<?xml version="1.0" encoding="UTF-8" standalone="no"?>
<!-- Created with Inkscape (http://www.inkscape.org/) -->

<svg
   version="1.0"
   width="128"
   height="128"
   id="svg2"
   inkscape:version="1.2.2 (b0a8486541, 2022-12-01)"
   sodipodi:docname="ic_property.svg"
   inkscape:export-filename="causes.png"
   inkscape:export-xdpi="11.25"
   inkscape:export-ydpi="11.25"
   xml:space="preserve"
   xmlns:inkscape="http://www.inkscape.org/namespaces/inkscape"
   xmlns:sodipodi="http://sodipodi.sourceforge.net/DTD/sodipodi-0.dtd"
   xmlns="http://www.w3.org/2000/svg"
   xmlns:svg="http://www.w3.org/2000/svg"
   xmlns:rdf="http://www.w3.org/1999/02/22-rdf-syntax-ns#"
   xmlns:cc="http://creativecommons.org/ns#"
   xmlns:dc="http://purl.org/dc/elements/1.1/"><metadata
     id="metadata23"><rdf:RDF><cc:Work
         rdf:about=""><dc:format>image/svg+xml</dc:format><dc:type
           rdf:resource="http://purl.org/dc/dcmitype/StillImage" /><dc:title /></cc:Work></rdf:RDF></metadata><sodipodi:namedview
     pagecolor="#ffffff"
     bordercolor="#666666"
     borderopacity="1"
     objecttolerance="10"
     gridtolerance="10"
     guidetolerance="10"
     inkscape:pageopacity="0"
     inkscape:pageshadow="2"
     inkscape:window-width="1920"
     inkscape:window-height="1113"
     id="namedview21"
     showgrid="false"
     inkscape:zoom="2.1599903"
     inkscape:cx="-169.90817"
     inkscape:cy="68.75031"
     inkscape:window-x="0"
     inkscape:window-y="0"
     inkscape:window-maximized="1"
     inkscape:current-layer="svg2"
     inkscape:showpageshadow="2"
     inkscape:pagecheckerboard="0"
     inkscape:deskcolor="#d1d1d1" /><defs
     id="defs5" /><g
     id="g326"
     transform="matrix(0.83696314,0,0,0.83696314,172.01001,-26.192702)"
     style="fill:none;stroke:#000000;stroke-width:4.77918;stroke-dasharray:none;stroke-opacity:1"><path
       d="m -84.49341,115.97827 -51.8,-52.2 c -1.5,-1.6 -3.6,-2.4 -5.7,-2.4 h -28.9 c -4.4,0 -8,3.6 -8,8 v 28.7 c 0,2.1 0.8,4.1 2.3,5.6 l 52,52 c 1.6,1.6 3.6,2.3 5.7,2.3 2,0 4.1,-0.8 5.6,-2.3 l 28.7,-28.5 c 3.2,-3 3.2,-8.1 0.1,-11.2 z m -2.9,8.4 -28.7,28.5 c -0.8,0.8 -1.8,1.2 -2.8,1.2 -1.1,0 -2.1,-0.4 -2.8,-1.2 l -52,-52 c -0.8,-0.7 -1.2,-1.7 -1.2,-2.8 v -28.7 c 0,-2.2 1.8,-4 4,-4 h 28.9 c 1.1,0 2.1,0.4 2.9,1.2 l 51.8,52.2 c 1.5,1.6 1.5,4.1 -0.1,5.6 z"
       id="path300"
       style="fill:none;stroke:#000000;stroke-width:4.77918;stroke-dasharray:none;stroke-opacity:1" /></g><circle
     style="fill:none;stroke:#000000;stroke-width:4;stroke-linecap:square;stroke-linejoin:round;stroke-dasharray:none;stroke-opacity:1"
     id="path896"
     cx="44.771072"
     cy="47.033451"
     r="7.4065366" /></svg>
