<svg xmlns="http://www.w3.org/2000/svg" xml:space="preserve" width="128" height="128" version="1.0">
    <path d="M74.732 32.577a2.942 2.942 0 0 1 .452 4.159 2.931 2.931 0 0 1-2.296 1.103c-9.891 0-16.871 3.526-21.392 7.016l-6.094 6.184v6.727a2.97 2.97 0 0 1-.868 2.098l-7.595 7.63a2.947 2.947 0 0 1-4.177 0l-15.225-15.26a2.947 2.947 0 0 1 0-4.177l7.612-7.631a2.94 2.94 0 0 1 2.098-.868h6.239C43.323 28.29 53.449 26.12 61.387 27.17a29.604 29.604 0 0 1 12.297 4.63z"/>
    <path d="M196.7 114.5c4.5.1 8.8 2 11.8 5.4l299.3 282.9c5.9 6.5 5.6 16.4-.6 22.6l-49.1 49.1c-6.4 6.4-16.7 6.4-23.1 0l-1.6-1.9-282.9-299.3c-4.8-6.5-4.1-15.6 1.6-21.3l32.7-32.7c3.1-3.1 7.5-4.9 11.9-4.8z" style="fill-rule:evenodd;clip-rule:evenodd" transform="translate(16.669 21.022)scale(.18083)"/>
</svg>
