<svg xmlns="http://www.w3.org/2000/svg" width="128" height="128" version="1.0">
    <defs>
        <mask id="a" maskUnits="userSpaceOnUse">
            <path d="M24.1 26.619h82.32v82.292H24.1Z" style="fill:#ffff;fill-opacity:1"/>
            <path d="M68.015 81.322v11.601h-3.613V62.728h3.613v3.32q1.133-1.953 2.852-2.89 1.738-.957 4.14-.957 3.985 0 6.465 3.164 2.5 3.164 2.5 8.32 0 5.156-2.5 8.32-2.48 3.164-6.465 3.164-2.402 0-4.14-.937-1.72-.957-2.852-2.91zm12.227-7.637q0-3.965-1.641-6.21-1.621-2.267-4.473-2.267-2.851 0-4.492 2.266-1.62 2.246-1.62 6.211 0 3.965 1.62 6.23 1.64 2.247 4.492 2.247 2.852 0 4.473-2.247 1.64-2.265 1.64-6.23z" aria-label="p" style="font-size:40px;line-height:1.25" transform="translate(.574 -.574)"/>
        </mask>
    </defs>
    <g mask="url(#a)" transform="translate(-1.26 -3.765)">
        <g style="stroke:#000">
            <path d="M31.2 33.719h68.092v68.092H31.2Z" style="fill:none;stroke:#000;stroke-width:12.2;stroke-linejoin:round;stroke-miterlimit:4;stroke-dasharray:none;stroke-dashoffset:0;stroke-opacity:1"/>
        </g>
        <path d="M58.777 63.857h38.922v37.13H58.777Z" style="fill:#000;fill-opacity:1;fill-rule:evenodd;stroke:#000001;stroke-width:15.4691;stroke-linejoin:round;stroke-miterlimit:4;stroke-dasharray:none;stroke-dashoffset:0;stroke-opacity:1" transform="skewY(-.906)scale(.99987 1)"/>
    </g>
</svg>
