<svg xmlns="http://www.w3.org/2000/svg" width="128" height="128" version="1.0">
    <g style="font-size:25.3158px;line-height:0%;-inkscape-font-specification:Sans;letter-spacing:0;word-spacing:0;fill:#013397;stroke-width:2.10965">
        <path d="M67.537 63.937q-7.594 0-10.522 1.736-2.929 1.737-2.929 5.925 0 3.337 2.18 5.312 2.213 1.941 5.993 1.941 5.21 0 8.342-3.677 3.167-3.712 3.167-9.841v-1.396zm12.497-2.588v21.759h-6.266v-5.789q-2.145 3.473-5.346 5.142-3.2 1.635-7.832 1.635-5.857 0-9.33-3.27-3.44-3.303-3.44-8.82 0-6.435 4.291-9.704 4.325-3.269 12.872-3.269h8.785v-.613q0-4.325-2.86-6.674-2.826-2.384-7.968-2.384-3.27 0-6.368.783-3.099.784-5.96 2.35v-5.789q3.44-1.328 6.675-1.975 3.235-.681 6.3-.681 8.274 0 12.36 4.29 4.087 4.291 4.087 13.009z" aria-label="a" style="font-size:69.7392px;line-height:1.25" transform="scale(1.00114 .99886)"/>
    </g>
</svg>
