<?xml version="1.0" encoding="UTF-8" standalone="no"?>
<!-- Created with Inkscape (http://www.inkscape.org/) -->

<svg
   version="1.0"
   width="128"
   height="128"
   id="svg2"
   inkscape:version="1.2.2 (b0a8486541, 2022-12-01)"
   sodipodi:docname="fore_location.svg"
   inkscape:export-filename="causes.png"
   inkscape:export-xdpi="11.25"
   inkscape:export-ydpi="11.25"
   xml:space="preserve"
   xmlns:inkscape="http://www.inkscape.org/namespaces/inkscape"
   xmlns:sodipodi="http://sodipodi.sourceforge.net/DTD/sodipodi-0.dtd"
   xmlns="http://www.w3.org/2000/svg"
   xmlns:svg="http://www.w3.org/2000/svg"
   xmlns:rdf="http://www.w3.org/1999/02/22-rdf-syntax-ns#"
   xmlns:cc="http://creativecommons.org/ns#"
   xmlns:dc="http://purl.org/dc/elements/1.1/"><metadata
     id="metadata23"><rdf:RDF><cc:Work
         rdf:about=""><dc:format>image/svg+xml</dc:format><dc:type
           rdf:resource="http://purl.org/dc/dcmitype/StillImage" /></cc:Work></rdf:RDF></metadata><sodipodi:namedview
     pagecolor="#ffffff"
     bordercolor="#666666"
     borderopacity="1"
     objecttolerance="10"
     gridtolerance="10"
     guidetolerance="10"
     inkscape:pageopacity="0"
     inkscape:pageshadow="2"
     inkscape:window-width="1256"
     inkscape:window-height="480"
     id="namedview21"
     showgrid="false"
     inkscape:zoom="0.76367188"
     inkscape:cx="-158.44501"
     inkscape:cy="65.473145"
     inkscape:window-x="26"
     inkscape:window-y="23"
     inkscape:window-maximized="0"
     inkscape:current-layer="svg2"
     inkscape:showpageshadow="2"
     inkscape:pagecheckerboard="0"
     inkscape:deskcolor="#d1d1d1" /><defs
     id="defs5" /><path
     d="m 63.834359,22.588928 c -15.570562,0 -27.993883,12.588965 -27.993883,27.993883 0,17.558294 16.564428,42.239288 24.349709,52.840529 1.822088,2.65031 5.631906,2.65031 7.619637,0 C 75.42946,92.987749 92.159525,68.141105 92.159525,50.582811 91.828237,35.177893 79.239278,22.588928 63.834359,22.588928 Z m 0,41.41107 c -7.453992,0 -13.58283,-6.128838 -13.58283,-13.582831 0,-7.453993 6.128838,-13.582832 13.58283,-13.582832 7.453994,0 13.582831,6.128839 13.582831,13.582832 0.165645,7.619636 -5.963193,13.582831 -13.582831,13.582831 z"
     id="path148"
     style="stroke-width:1.33989" /></svg>
