<svg xmlns="http://www.w3.org/2000/svg" width="128" height="128" version="1.0"><text xml:space="preserve" x="58.559" y="90.196" style="font-style:normal;font-variant:normal;font-weight:400;font-stretch:normal;line-height:0%;font-family:sans-serif;-inkscape-font-specification:Sans;text-align:start;letter-spacing:0;word-spacing:0;writing-mode:lr-tb;text-anchor:start;fill:#000;fill-opacity:1;stroke:none" transform="translate(-3.593 -2.426)"><tspan x="58.559" y="90.196" style="font-size:40px;line-height:1.25;font-family:sans-serif">m</tspan></text><path d="M39.124 25.457c-6.925 0-12.5 5.575-12.5 12.5v56.937c0 6.925 5.575 12.5 12.5 12.5h56.938c6.925 0 12.5-5.575 12.5-12.5V37.957c0-6.925-5.575-12.5-12.5-12.5zm22.719 28.25h31.844c3.873 0 7 3.095 7 6.969v31.843c0 3.874-3.127 7-7 7H61.843a6.99 6.99 0 0 1-7-7V60.676c0-3.874 3.127-6.97 7-6.97z" style="fill:#000;fill-opacity:1;fill-rule:evenodd;stroke:none" transform="translate(-3.593 -2.426)"/></svg>