<svg xmlns="http://www.w3.org/2000/svg" width="128" height="128" version="1.0">
    <path fill="#013397" d="M67.614 63.864q-7.603 0-10.534 1.734-2.932 1.735-2.932 5.918 0 3.334 2.182 5.306 2.216 1.94 6 1.94 5.216 0 8.351-3.674 3.171-3.707 3.171-9.83v-1.394zm12.511-2.585v21.734h-6.273v-5.782Q71.705 80.7 68.5 82.367 65.296 84 60.66 84q-5.865 0-9.342-3.266-3.443-3.3-3.443-8.81 0-6.428 4.295-9.693 4.33-3.265 12.887-3.265h8.795v-.613q0-4.32-2.863-6.666-2.83-2.381-7.977-2.381-3.274 0-6.376.782-3.102.783-5.966 2.347v-5.782q3.444-1.327 6.682-1.973Q60.591 44 63.66 44q8.284 0 12.375 4.285 4.091 4.286 4.091 12.994z"/>
</svg>
