<svg xmlns="http://www.w3.org/2000/svg" xml:space="preserve" width="128" height="128" version="1.0">
    <path d="M-465.63-92.804c0 38.429 31.263 69.693 69.694 69.693 38.43 0 69.693-31.262 69.693-69.693 0-38.427-31.263-69.693-69.693-69.693-38.43 0-69.694 31.266-69.694 69.693zm86.066 430.665a22.204 22.204 0 0 1-32.744 0c-1.832-2.001-33.857-37.078-74.61-88.04l-184.254 63.156 274.655 94.465 275.815-94.538-184.073-63.311c-40.84 51.083-72.954 86.263-74.79 88.268z" style="fill:none;stroke-width:1.84975"/>
    <path d="M20.957 51.752c0 12.19 18.754 36.043 28.219 46.81 9.464-10.77 28.219-34.628 28.219-46.81 0-15.56-12.66-28.22-28.22-28.22-15.56 0-28.218 12.66-28.218 28.22zm28.219-16.104c7.971 0 14.456 6.485 14.456 14.457s-6.485 14.457-14.456 14.457c-7.972 0-14.457-6.485-14.457-14.457s6.485-14.457 14.457-14.457z" style="fill:#000;stroke-width:.234396" transform="translate(9.623 10.077)scale(.8833)"/>
    <path d="M45.73 51.752c0 12.19 18.753 36.043 28.218 46.81 9.465-10.77 28.22-34.628 28.22-46.81 0-15.56-12.66-28.22-28.22-28.22-15.56 0-28.219 12.66-28.219 28.22zm28.218-16.104c7.972 0 14.457 6.485 14.457 14.457S81.92 64.562 73.948 64.562s-14.457-6.485-14.457-14.457 6.485-14.457 14.457-14.457z" style="fill:#fff;stroke-width:.234396" transform="translate(9.623 10.077)scale(.8833)"/>
</svg>
