<svg xmlns="http://www.w3.org/2000/svg" width="128" height="128" version="1.0">
    <g style="font-weight:700;line-height:0%;font-family:&quot;Arial Black&quot;;-inkscape-font-specification:&quot;Arial Black, Bold&quot;;letter-spacing:0;word-spacing:0">
        <path d="M62.85 98.824q-8.764 0-15.633-3.316-6.75-3.434-10.66-10.659-3.907-7.224-3.907-18.593 0-11.843 4.026-19.186 4.027-7.343 10.896-10.659 6.987-3.434 15.633-3.434 4.856 0 9.474.947 4.738.948 8.054 2.487l-3.08 8.527q-3.316-1.303-7.342-2.132-3.908-.829-7.343-.829-9.12 0-13.856 4.62-4.738 4.618-5.685 14.093h31.147v8.527H43.308q.593 10.54 5.33 15.632 4.737 5.093 13.975 5.093 5.33 0 9.474-1.066 4.145-1.066 7.698-2.487v9q-3.316 1.659-7.342 2.488-4.027.947-9.593.947z" aria-label="ϵ" style="font-size:118.431px;line-height:1.25" transform="scale(1.02054 .97988)"/>
    </g>
</svg>
