<svg xmlns="http://www.w3.org/2000/svg" width="128" height="128" version="1.0">
    <path fill="none" d="M24.997 24.184h80.687v80.156H24.997z" style="stroke:#000;stroke-width:15;stroke-linecap:round;stroke-linejoin:round;stroke-dasharray:none;stroke-opacity:1"/>
    <path d="M58.443 58.54v39.01h39.71V58.54zm16.99 9.332c1.504 0 2.694.266 3.57.798.876.533 1.592 1.327 2.149 2.381 1.136-1.231 2.173-2.065 3.109-2.504.936-.45 2.09-.675 3.463-.675 2.025 0 3.605.604 4.742 1.812 1.137 1.196 1.705 3.073 1.705 5.631v11.848h-7.246V76.416c0-.853-.166-1.488-.498-1.903-.486-.651-1.09-.976-1.812-.976-.853 0-1.538.308-2.06.923-.52.616-.782 1.605-.782 2.967v9.735h-7.246V76.769c0-.829-.048-1.391-.143-1.687a2.25 2.25 0 0 0-.799-1.137 2.1 2.1 0 0 0-1.332-.444c-.829 0-1.51.314-2.043.942-.533.628-.8 1.657-.8 3.09v9.629h-7.247V68.296h6.75v2.754c.971-1.148 1.947-1.965 2.93-2.45.995-.486 2.193-.73 3.59-.73z"/>
</svg>
