<svg xmlns="http://www.w3.org/2000/svg" width="128" height="128" version="1.0">
    <defs>
        <mask id="a" maskUnits="userSpaceOnUse">
            <path d="M24.1 26.619h82.32v82.292H24.1Z" style="fill:#ffff;fill-opacity:1"/>
            <path d="M79.36 72.52q1.347-2.422 3.222-3.574 1.875-1.152 4.414-1.152 3.418 0 5.274 2.402 1.855 2.383 1.855 6.797v13.203h-3.613V77.11q0-3.144-1.113-4.668Q88.286 70.92 86 70.92q-2.793 0-4.414 1.855-1.62 1.856-1.62 5.059v12.363h-3.614V77.11q0-3.164-1.113-4.668-1.114-1.523-3.438-1.523-2.754 0-4.375 1.875-1.62 1.855-1.62 5.039v12.363h-3.614V68.321h3.613v3.398q1.23-2.011 2.95-2.968 1.718-.957 4.081-.957 2.383 0 4.043 1.21 1.68 1.212 2.48 3.516z" aria-label="m" style="font-size:40px;line-height:1.25" transform="translate(-3.593 -2.426)"/>
        </mask>
    </defs>
    <g mask="url(#a)" transform="translate(-1.26 -3.765)">
        <g style="stroke:#000">
            <path d="M31.2 33.719h68.092v68.092H31.2Z" style="fill:none;stroke:#000;stroke-width:12.2;stroke-linejoin:round;stroke-miterlimit:4;stroke-dasharray:none;stroke-dashoffset:0;stroke-opacity:1"/>
        </g>
        <path d="M58.777 63.857h38.922v37.13H58.777Z" style="fill:#000;fill-opacity:1;fill-rule:evenodd;stroke:#000001;stroke-width:15.4691;stroke-linejoin:round;stroke-miterlimit:4;stroke-dasharray:none;stroke-dashoffset:0;stroke-opacity:1" transform="skewY(-.906)scale(.99987 1)"/>
    </g>
</svg>
