<svg xmlns="http://www.w3.org/2000/svg" width="128" height="128" version="1.0">
    <path fill="#013397" d="M76.517 46.04v5.92q-2.653-1.36-5.51-2.041-2.857-.68-5.919-.68-4.66 0-7.007 1.427-2.313 1.43-2.313 4.286 0 2.177 1.667 3.435 1.667 1.225 6.7 2.347l2.144.477q6.667 1.428 9.456 4.047 2.823 2.586 2.823 7.246 0 5.306-4.218 8.4Q70.156 84 62.81 84q-3.062 0-6.395-.612-3.3-.577-6.974-1.768v-6.461q3.47 1.802 6.838 2.72 3.367.885 6.666.885 4.422 0 6.803-1.496 2.381-1.531 2.381-4.286 0-2.551-1.734-3.912-1.7-1.36-7.518-2.62l-2.177-.51q-5.816-1.224-8.401-3.74-2.586-2.552-2.586-6.974 0-5.373 3.81-8.3 3.81-2.924 10.817-2.924 3.47 0 6.53.51 3.062.51 5.647 1.53z"/>
</svg>
