<svg xmlns="http://www.w3.org/2000/svg" width="128" height="128" version="1.0">
    <g style="line-height:0%;-inkscape-font-specification:Sans;letter-spacing:0;word-spacing:0">
        <path d="M79.36 72.52q1.347-2.422 3.222-3.574 1.875-1.152 4.414-1.152 3.418 0 5.274 2.402 1.855 2.383 1.855 6.797v13.203h-3.613V77.11q0-3.144-1.113-4.668Q88.286 70.92 86 70.92q-2.793 0-4.414 1.855-1.62 1.856-1.62 5.059v12.363h-3.614V77.11q0-3.164-1.113-4.668-1.114-1.523-3.438-1.523-2.754 0-4.375 1.875-1.62 1.855-1.62 5.039v12.363h-3.614V68.321h3.613v3.398q1.23-2.011 2.95-2.968 1.718-.957 4.081-.957 2.383 0 4.043 1.21 1.68 1.212 2.48 3.516z" aria-label="m" style="font-size:40px;line-height:1.25" transform="translate(-3.593 -2.426)"/>
    </g>
    <path d="M39.124 25.457c-6.925 0-12.5 5.575-12.5 12.5v56.937c0 6.925 5.575 12.5 12.5 12.5h56.938c6.925 0 12.5-5.575 12.5-12.5V37.957c0-6.925-5.575-12.5-12.5-12.5zm22.719 28.25h31.844c3.873 0 7 3.095 7 6.969v31.843c0 3.874-3.127 7-7 7H61.843a6.99 6.99 0 0 1-7-7V60.676c0-3.874 3.127-6.97 7-6.97z" style="fill:#000;fill-opacity:1;fill-rule:evenodd;stroke:none" transform="translate(-3.593 -2.426)"/>
</svg>
