<svg xmlns="http://www.w3.org/2000/svg" xml:space="preserve" width="128" height="128" version="1.0">
    <path fill="#050708" d="m34.63 54.34 6.4-19.198h46.928l6.4 19.198m-6.4 21.331a6.402 6.402 0 0 1-6.4-6.4 6.399 6.399 0 1 1 6.4 6.4zm-46.929 0a6.402 6.402 0 0 1-6.4-6.4 6.399 6.399 0 1 1 6.4 6.4zm52.983-42.615a6.403 6.403 0 0 0-6.054-4.314H41.03a6.397 6.397 0 0 0-6.05 4.314l-8.882 25.55v34.13a4.268 4.268 0 0 0 4.267 4.267h4.266a4.265 4.265 0 0 0 4.266-4.267V88.47h51.195v4.266a4.268 4.268 0 0 0 4.267 4.267h4.266a4.265 4.265 0 0 0 4.266-4.267v-34.13Z" style="fill:#000"/>
</svg>
