<svg xmlns="http://www.w3.org/2000/svg" width="128" height="128" version="1.0">
    <g style="font-size:25.2878px;line-height:0%;-inkscape-font-specification:Sans;letter-spacing:0;word-spacing:0;fill:#013397;stroke-width:2.10731">
        <path d="M76.515 46.042v5.919q-2.653-1.36-5.51-2.041-2.857-.68-5.919-.68-4.66 0-7.007 1.428-2.313 1.429-2.313 4.286 0 2.177 1.667 3.435 1.667 1.225 6.7 2.347l2.144.477q6.667 1.428 9.456 4.047 2.823 2.586 2.823 7.246 0 5.306-4.218 8.401-4.184 3.095-11.53 3.095-3.062 0-6.395-.612-3.3-.578-6.973-1.769V75.16q3.47 1.802 6.837 2.72 3.367.885 6.666.885 4.422 0 6.803-1.496 2.381-1.531 2.381-4.286 0-2.551-1.734-3.912-1.701-1.36-7.518-2.62l-2.177-.51q-5.816-1.224-8.401-3.74-2.585-2.552-2.585-6.974 0-5.374 3.81-8.3 3.809-2.925 10.816-2.925 3.47 0 6.53.51 3.062.51 5.647 1.531z" aria-label="s" style="font-size:69.6618px;line-height:1.25" transform="scale(1.00003 .99997)"/>
    </g>
</svg>
