<svg xmlns="http://www.w3.org/2000/svg" width="128" height="128" version="1.0">
    <path d="M35.531 23.032c-6.925 0-12.5 5.575-12.5 12.5V92.47c0 6.925 5.575 12.5 12.5 12.5h56.938c6.925 0 12.5-5.575 12.5-12.5V35.532c0-6.925-5.575-12.5-12.5-12.5zm22.72 28.25h31.843c3.873 0 7 3.095 7 6.969v31.844c0 3.873-3.127 7-7 7H58.25a6.99 6.99 0 0 1-7-7V58.25c0-3.873 3.127-6.969 7-6.969z"/>
    <path d="m60.596 80.685 9.581-.901q.593 1.707 1.66 2.443 1.068.735 2.847.735 1.945 0 3.012-.83.83-.617.83-1.542 0-1.043-1.091-1.613-.783-.403-4.15-.996-5.029-.877-6.997-1.612-1.945-.76-3.297-2.538-1.328-1.779-1.328-4.056 0-2.49 1.447-4.293 1.446-1.802 3.984-2.68 2.538-.901 6.807-.901 4.506 0 6.64.688 2.16.688 3.582 2.134 1.447 1.447 2.396 3.914l-9.155.901q-.356-1.21-1.186-1.779Q75.039 67 73.427 67q-1.637 0-2.396.593-.735.57-.735 1.4 0 .924.949 1.399.948.474 4.126.854 4.815.545 7.163 1.518 2.348.972 3.581 2.774 1.257 1.803 1.257 3.961 0 2.182-1.328 4.246-1.304 2.063-4.15 3.296-2.823 1.21-7.708 1.21-6.902 0-9.843-1.969-2.917-1.968-3.747-5.597z" style="stroke-width:4;stroke-linecap:round;stroke-linejoin:round"/>
</svg>
