<svg xmlns="http://www.w3.org/2000/svg" xml:space="preserve" width="128" height="128" version="1.0">
    <path fill="none" d="M426.69 2.736h58.17v58.17h-58.17z" style="stroke-width:1.21188"/>
    <path d="M81.967 31.935a5.134 5.134 0 0 0 6.922 2.127l14.281-7.568c2.489-1.319 3.446-4.434 2.127-6.923l-.15-.282a5.136 5.136 0 0 0-6.922-2.127L83.944 24.73c-2.489 1.319-3.446 4.434-2.127 6.922zM28.212 61.148c.04.076.085.153.132.231a14.945 14.945 0 0 0 13.108 7.734c2.425 0 4.845-.604 7-1.746 10.502-5.566 21.826-23.21 24.05-26.791l10.587-5.61a9.607 9.607 0 0 1-1.396-1.976l-.15-.284a9.602 9.602 0 0 1-.856-2.263l-10.584 5.609c-.94-.037-2.746-.092-5.115-.092-9.68 0-22.84.858-30.558 4.948-7.291 3.865-10.082 12.937-6.223 20.23l.005.01zm17.842 1.695a9.732 9.732 0 0 1-4.602 1.15 9.867 9.867 0 0 1-4.298-.988c2.291-.577 4.846-1.583 7.423-2.949 4.43-2.347 9.649-5.842 14.36-9.224-3.94 4.872-8.58 9.73-12.883 12.01zm-3.875-7.311c-3.958 2.097-7.153 2.875-8.877 2.91.944-1.307 3.376-3.565 7.4-5.698 4.516-2.392 10.711-4.846 16.356-6.882-4.852 3.527-10.362 7.276-14.879 9.67zm-5.351-10.098c4.309-2.284 10.95-3.395 17.178-3.919-5.445 2-11.27 4.357-15.701 6.705-2.337 1.238-4.702 2.784-6.603 4.465a9.842 9.842 0 0 1 5.126-7.251z" style="fill:#000;stroke-width:.3194" transform="translate(7.214 9.053)scale(.88078)"/>
    <path d="M106.247 73.345H21.753a3.2 3.2 0 0 0-3.2 3.2c0 8.699 4.96 17.549 13.608 24.28 8.787 6.84 20.094 10.606 31.839 10.606 11.745 0 23.052-3.766 31.839-10.606 8.648-6.731 13.608-15.581 13.608-24.28a3.2 3.2 0 0 0-3.2-3.2Z" style="fill:#000;stroke-width:.3194" transform="translate(7.63 6.207)scale(.88078)"/>
</svg>
