<svg xmlns="http://www.w3.org/2000/svg" width="128" height="128" version="1.0">
    <path d="M54.614 33.285h18.52L71.627 45.94q-.503 4.61-2.095 10.476 3.185-1.593 4.19-2.18 3.52-1.927 5.364-2.765l11.649-5.53 5.782 17.682-12.906 2.682q-3.52.67-10.475.922 4.693 3.687 7.458 6.704l8.716 9.47-15.085 11.314L68.023 83.4q-1.341-2.43-4.358-9.47-3.269 7.71-4.358 9.47L53.02 94.715 37.517 83.4l9.387-9.47q3.939-3.939 7.71-6.704-3.855-.336-10.14-1.509l-12.99-2.095 6.033-17.683 11.65 5.28q1.843.838 9.134 5.196-1.592-7.04-2.011-10.476z" aria-label="*" style="font-size:171.633px;font-family:&quot;Arial Black&quot;;-inkscape-font-specification:&quot;Arial Black, Normal&quot;;stroke:#000;stroke-width:7.34976;stroke-linecap:round;stroke-linejoin:round"/>
</svg>
