<svg xmlns="http://www.w3.org/2000/svg" width="128" height="128" version="1.0">
    <path d="M102.99 41.508q1.571 3.143 1.571 5.82 0 3.084-1.57 5.82-1.572 2.676-4.249 4.247-2.735 1.572-5.82 1.572-3.142 0-5.819-1.572-1.105-.64-2.095-1.513l-14.024 8.09 14.024 8.146q.99-.873 2.095-1.513 2.677-1.57 5.82-1.57 3.084 0 5.819 1.57 2.677 1.572 4.248 4.248 1.571 2.736 1.571 5.82 0 3.026-1.57 5.761-1.63 2.735-4.249 4.306-2.735 1.572-5.82 1.572-2.967 0-5.819-1.572-2.735-1.513-4.306-4.248-1.513-2.677-1.513-5.82 0-1.28.233-2.502l-14.025-8.147V86.26q1.222.408 2.328 1.048 2.677 1.571 4.248 4.248 1.571 2.677 1.571 5.82 0 3.142-1.571 5.819t-4.248 4.248q-2.677 1.571-5.82 1.571-3.142 0-5.82-1.571-2.676-1.571-4.247-4.248-1.571-2.677-1.571-5.82 0-3.142 1.57-5.819 1.572-2.677 4.249-4.248 1.106-.64 2.328-1.048V70.023L46.484 78.17q.233 1.223.233 2.503 0 3.142-1.513 5.82-1.572 2.734-4.307 4.247-2.735 1.572-5.819 1.572-3.142 0-5.82-1.572-2.676-1.513-4.248-4.248-1.57-2.677-1.57-5.82 0-3.083 1.57-5.819 1.572-2.676 4.249-4.248 2.735-1.57 5.819-1.57t5.82 1.57q1.105.64 2.094 1.513l14.025-8.147-14.025-8.089q-.93.873-2.095 1.513-2.851 1.572-5.819 1.572-3.142 0-5.82-1.572-2.676-1.57-4.248-4.248-1.57-2.677-1.57-5.82 0-3.142 1.57-5.819 1.572-2.735 4.249-4.248 2.735-1.571 5.819-1.571 2.968 0 5.82 1.571 2.734 1.513 4.306 4.248 1.513 2.677 1.513 5.82 0 1.28-.233 2.502l14.025 8.147V41.741q-1.222-.407-2.328-1.047-2.677-1.572-4.248-4.248-1.571-2.677-1.571-5.82 0-3.142 1.57-5.82 1.572-2.676 4.249-4.247 2.735-1.572 5.82-1.572 3.142 0 5.819 1.572 2.677 1.57 4.248 4.248 1.571 2.677 1.571 5.82 0 3.142-1.571 5.819-1.571 2.676-4.248 4.248-1.106.64-2.328 1.047v16.236l14.025-8.147q-.233-1.222-.233-2.502 0-3.143 1.513-5.82 1.513-2.618 4.306-4.248 2.677-1.571 5.82-1.571 3.084 0 5.819 1.571 2.968 1.746 4.248 4.248z"/>
</svg>
