<svg xmlns="http://www.w3.org/2000/svg" width="128" height="128" version="1.0">
    <g style="line-height:0%;-inkscape-font-specification:Sans;letter-spacing:0;word-spacing:0">
        <path d="M68.015 81.322v11.601h-3.613V62.728h3.613v3.32q1.133-1.953 2.852-2.89 1.738-.957 4.14-.957 3.985 0 6.465 3.164 2.5 3.164 2.5 8.32 0 5.156-2.5 8.32-2.48 3.164-6.465 3.164-2.402 0-4.14-.937-1.72-.957-2.852-2.91zm12.227-7.637q0-3.965-1.641-6.21-1.621-2.267-4.473-2.267-2.851 0-4.492 2.266-1.62 2.246-1.62 6.211 0 3.965 1.62 6.23 1.64 2.247 4.492 2.247 2.852 0 4.473-2.247 1.64-2.265 1.64-6.23z" aria-label="p" style="font-size:40px;line-height:1.25" transform="translate(.574 -.574)"/>
    </g>
    <path d="M34.957 23.605c-6.925 0-12.5 5.575-12.5 12.5v56.938c0 6.925 5.575 12.5 12.5 12.5h56.938c6.925 0 12.5-5.575 12.5-12.5V36.105c0-6.925-5.575-12.5-12.5-12.5zm22.72 28.25H89.52c3.873 0 7 3.095 7 6.969v31.844c0 3.873-3.127 7-7 7H57.676a6.99 6.99 0 0 1-7-7V58.824c0-3.874 3.127-6.969 7-6.969z" style="fill:#000;fill-opacity:1;fill-rule:evenodd;stroke:none" transform="translate(.574 -.574)"/>
</svg>
