<svg xmlns="http://www.w3.org/2000/svg" width="128" height="128" version="1.0">
    <g style="line-height:0%;letter-spacing:0;word-spacing:0">
        <path d="M82.067 66.029v3.398q-1.524-.781-3.164-1.172-1.64-.39-3.399-.39-2.675 0-4.023.82-1.328.82-1.328 2.46 0 1.25.957 1.973.957.704 3.847 1.348l1.23.273q3.83.82 5.43 2.325 1.622 1.484 1.622 4.16 0 3.047-2.422 4.824-2.403 1.777-6.621 1.777-1.758 0-3.672-.351-1.895-.332-4.004-1.016v-3.71q1.992 1.034 3.926 1.562 1.933.508 3.828.508 2.539 0 3.906-.86 1.367-.879 1.367-2.46 0-1.466-.996-2.247-.976-.781-4.316-1.504l-1.25-.293q-3.34-.703-4.824-2.148-1.485-1.465-1.485-4.004 0-3.086 2.188-4.766 2.187-1.68 6.21-1.68 1.993 0 3.75.294 1.758.293 3.243.879z" aria-label="s" style="font-size:40px;line-height:1.25" transform="translate(-.815 -.11)"/>
    </g>
    <path d="M36.346 23.142c-6.925 0-12.5 5.575-12.5 12.5V92.58c0 6.925 5.575 12.5 12.5 12.5h56.938c6.925 0 12.5-5.575 12.5-12.5V35.642c0-6.925-5.575-12.5-12.5-12.5zm22.72 28.25h31.843c3.873 0 7 3.095 7 6.969v31.844c0 3.873-3.127 7-7 7H59.065a6.99 6.99 0 0 1-7-7V58.36c0-3.873 3.127-6.969 7-6.969z" style="fill:#000;fill-opacity:1;fill-rule:evenodd;stroke:none" transform="translate(-.815 -.11)"/>
</svg>
