<svg xmlns="http://www.w3.org/2000/svg" width="128" height="128">
    <g style="font-size:14.0815px;line-height:0%;letter-spacing:0;word-spacing:0;stroke-width:1.17346">
        <path d="m829.29-669.46 26.983 26.983-26.984 26.984v-14.501h-55.03v-24.966h55.03z" aria-label="➡" style="font-size:108.786px;line-height:1.25" transform="matrix(-.59113 .46603 -.84925 -1.02216 .304 -965.726)"/>
    </g>
    <g style="font-size:14.0815px;line-height:0%;-inkscape-font-specification:Sans;letter-spacing:0;word-spacing:0;stroke-width:1.17346">
        <path d="M1094.625 416.43q-7.106 0-9.846 1.624-2.74 1.625-2.74 5.545 0 3.123 2.039 4.97 2.07 1.817 5.608 1.817 4.875 0 7.807-3.441 2.963-3.474 2.963-9.21v-1.306zm11.694-2.422v20.361h-5.863v-5.417q-2.007 3.25-5.003 4.812-2.995 1.53-7.328 1.53-5.481 0-8.731-3.06-3.219-3.09-3.219-8.253 0-6.022 4.015-9.081 4.047-3.06 12.045-3.06h8.221v-.573q0-4.047-2.676-6.245-2.645-2.23-7.457-2.23-3.059 0-5.959.732-2.9.733-5.576 2.199v-5.417q3.219-1.243 6.246-1.848 3.027-.638 5.895-.638 7.743 0 11.566 4.015 3.824 4.015 3.824 12.173z" aria-label="a" style="font-size:65.2586px;line-height:1.25" transform="matrix(.4508 .60282 -1.04348 .8229 .304 -965.726)"/>
    </g>
</svg>
