<svg xmlns="http://www.w3.org/2000/svg" viewBox="0 0 18 18"><path d="M5.125 3c-6.5 0-6.5 7.5 0 12 1.887-1.306 3.209-2.865 4-4.42-1.144-2.247-1.143-4.472 0-5.928C8.334 3.645 7.012 3 5.125 3Zm-.059 2a2 2 0 0 1 2.059 2 2 2 0 0 1-4 0 2 2 0 0 1 1.941-2z" style="fill:#85377d;fill-rule:evenodd" transform="translate(0 .414)scale(.954)"/><path d="M13.741 3c-6.5 0-6.5 7.5 0 12 6.5-4.5 6.5-12 0-12zm-2 4a2 2 0 0 0 4 0 2 2 0 0 0-4 0" style="fill:#e46d43;fill-rule:evenodd" transform="translate(0 .414)scale(.954)"/></svg>