<?xml version="1.0" encoding="UTF-8" standalone="no"?>
<svg
   xmlns:dc="http://purl.org/dc/elements/1.1/"
   xmlns:cc="http://creativecommons.org/ns#"
   xmlns:rdf="http://www.w3.org/1999/02/22-rdf-syntax-ns#"
   xmlns:svg="http://www.w3.org/2000/svg"
   xmlns="http://www.w3.org/2000/svg"
   xmlns:sodipodi="http://sodipodi.sourceforge.net/DTD/sodipodi-0.dtd"
   xmlns:inkscape="http://www.inkscape.org/namespaces/inkscape"
   height="1000"
   width="937.5"
   id="svg2"
   version="1.1"
   inkscape:version="0.91 r13725"
   sodipodi:docname="ic_download_dest.svg">
  <metadata
     id="metadata10">
    <rdf:RDF>
      <cc:Work
         rdf:about="">
        <dc:format>image/svg+xml</dc:format>
        <dc:type
           rdf:resource="http://purl.org/dc/dcmitype/StillImage" />
      </cc:Work>
    </rdf:RDF>
  </metadata>
  <defs
     id="defs8" />
  <sodipodi:namedview
     pagecolor="#ffffff"
     bordercolor="#666666"
     borderopacity="1"
     objecttolerance="10"
     gridtolerance="10"
     guidetolerance="10"
     inkscape:pageopacity="0"
     inkscape:pageshadow="2"
     inkscape:window-width="822"
     inkscape:window-height="480"
     id="namedview6"
     showgrid="false"
     inkscape:zoom="0.0417193"
     inkscape:cx="468.75"
     inkscape:cy="500"
     inkscape:window-x="59"
     inkscape:window-y="34"
     inkscape:window-maximized="0"
     inkscape:current-layer="svg2" />
  <path
     style="fill:#050708;fill-opacity:1;stroke-width:0.2;stroke-linejoin:round"
     inkscape:connector-curvature="0"
     d="m 684.96248,673.66296 -415.60484,0 0,-443.31251 415.60484,0 M 477.16006,784.49109 c -22.9418,0 -41.561,-18.6192 -41.561,-41.56061 0,-22.94141 18.6192,-41.56049 41.561,-41.56049 22.9418,0 41.561,18.61908 41.561,41.56049 0,22.94141 -18.6192,41.56061 -41.561,41.56061 z m 193.94962,-637.26174 -387.89923,0 c -38.26229,0 -69.26661,31.00419 -69.26661,69.26765 l 0,526.43348 c 0,38.26345 31.00432,69.26764 69.26661,69.26764 l 387.89923,0 c 38.26358,0 69.2679,-31.00419 69.2679,-69.26764 l 0,-526.43348 c 0,-38.26346 -31.00432,-69.26765 -69.2679,-69.26765 z"
     id="path6107" />
</svg>
