<?xml version="1.0" encoding="UTF-8" standalone="no"?>
<!-- Generator: Adobe Illustrator 14.0.0, SVG Export Plug-In . SVG Version: 6.00 Build 43363)  -->

<svg
   xmlns:dc="http://purl.org/dc/elements/1.1/"
   xmlns:cc="http://creativecommons.org/ns#"
   xmlns:rdf="http://www.w3.org/1999/02/22-rdf-syntax-ns#"
   xmlns:svg="http://www.w3.org/2000/svg"
   xmlns="http://www.w3.org/2000/svg"
   xmlns:sodipodi="http://sodipodi.sourceforge.net/DTD/sodipodi-0.dtd"
   xmlns:inkscape="http://www.inkscape.org/namespaces/inkscape"
   version="1.1"
   x="0px"
   y="0px"
   width="64"
   height="64"
   viewBox="0 0 64 64"
   enable-background="new 0 0 780 650"
   xml:space="preserve"
   id="svg4433"
   inkscape:version="0.91 r13725"
   sodipodi:docname="ic_roles_bysynset.svg"><metadata
     id="metadata5887"><rdf:RDF><cc:Work
         rdf:about=""><dc:format>image/svg+xml</dc:format><dc:type
           rdf:resource="http://purl.org/dc/dcmitype/StillImage" /></cc:Work></rdf:RDF></metadata><defs
     id="defs5885"><linearGradient
       id="linearGradient15834-3"><stop
         style="stop-color:#772b00;stop-opacity:1;"
         offset="0"
         id="stop15842-3" /><stop
         id="stop15848-8"
         offset="0.5"
         style="stop-color:#da441b;stop-opacity:1;" /><stop
         style="stop-color: rgb(210, 64, 15); stop-opacity: 1;"
         offset="0.75"
         id="stop15850-6" /><stop
         id="stop15852-0"
         offset="0.9375"
         style="stop-color: rgb(212, 67, 22); stop-opacity: 0.614583;" /><stop
         id="stop15838-4"
         offset="1"
         style="stop-color:#c33900;stop-opacity:0.21875;" /></linearGradient></defs><sodipodi:namedview
     pagecolor="#ffffff"
     bordercolor="#666666"
     borderopacity="1"
     objecttolerance="10"
     gridtolerance="10"
     guidetolerance="10"
     inkscape:pageopacity="0"
     inkscape:pageshadow="2"
     inkscape:window-width="1292"
     inkscape:window-height="767"
     id="namedview5883"
     showgrid="false"
     inkscape:zoom="7.693902"
     inkscape:cx="54.435247"
     inkscape:cy="-0.48276894"
     inkscape:window-x="531"
     inkscape:window-y="359"
     inkscape:window-maximized="0"
     inkscape:current-layer="svg4433" /><g
     id="Notification"
     transform="translate(-465.46203,-385.40339)" /><g
     id="Notification-5"
     transform="translate(-463.8149,-384.11737)" /><path
     style="fill:#d3d3d3;fill-opacity:1;fill-rule:evenodd;stroke:none"
     d="m 32.442847,1.2094139 c -0.03954,-0.00651 -0.07741,-0.00208 -0.113289,0.011721 -1.148019,0.4416316 -6.700824,5.8252003 -7.965181,6.626308 -2.788045,1.7665276 -5.679158,3.1320561 -7.369367,3.3329321 -3.606598,0.428633 -3.895114,0.182703 -6.76516,0.27103 -2.8700475,0.08833 -8.062359,-0.968686 -8.3903643,0.0029 -0.3280053,0.97159 -0.082728,3.886813 0.3272788,5.388362 0.4100066,1.501547 1.622506,5.838058 2.8364158,8.271531 0.3389164,0.679412 1.8663975,3.870669 3.9315406,7.429141 2.0651451,3.558472 5.2474061,6.735057 6.3441731,7.8833 2.193536,2.296485 5.240162,4.298574 5.937172,4.563553 1.394023,0.529958 5.879767,2.148004 8.749812,1.176414 2.870046,-0.971589 5.356015,-3.143664 5.68402,-4.115254 0.164003,-0.485796 1.677837,-3.916983 2.318925,-7.855465 0.641086,-3.938505 0.409279,-8.383846 0.327278,-9.3996 C 38.132098,22.764811 37.721838,15.445427 37.147828,13.23727 36.591757,11.098116 33.668714,1.4111779 32.442847,1.2094139 Z M 28.297315,13.752959 c 2.10207,-0.01858 4.48156,2.031697 4.64624,2.118425 l -7.877068,3.576127 c 0.128521,-4.413934 1.595886,-5.6801 3.230828,-5.694552 z m -11.098106,5.835194 c 2.102069,-0.01858 4.480161,2.031698 4.644841,2.118425 l -7.87567,3.576126 c 0.128521,-4.413933 1.595886,-5.680099 3.230829,-5.694551 z m 16.396107,9.280932 c 0.100038,-0.01618 0.20306,-0.01304 0.309096,0.01319 1.021766,0.252743 0.733038,3.772482 0.130073,5.849846 -0.938503,3.233377 -2.755868,4.965129 -4.372109,5.36492 -1.49366,0.369468 -3.1692,0.19133 -5.749756,-1.579296 -3.699826,-2.538597 -5.55692,-5.033351 -4.723164,-5.477728 1.095938,-0.584115 5.801682,2.332622 9.084083,1.520695 2.910299,-0.719883 3.821205,-5.448958 5.321777,-5.691622 z"
     id="path2202"
     inkscape:connector-curvature="0" /><g
     transform="matrix(0.27032973,0,0,0.27032973,36.740116,-221.22261)"
     id="layer1"
     inkscape:label="Layer 1"
     style="stroke:#d3d3d3"><path
       inkscape:connector-curvature="0"
       id="path10779"
       style="color:#000000;fill:none;stroke:#d3d3d3;stroke-width:10;stroke-miterlimit:4;stroke-dasharray:none;stroke-opacity:1"
       d="m 90.353025,1004.407 a 42.25398,42.634099 0 0 1 -84.5079603,0 42.25398,42.634099 0 1 1 84.5079603,0 z" /><g
       id="g4746"
       transform="matrix(0.71799222,0,0,0.73350513,16.638492,939.07509)"
       style="stroke:#d3d3d3" /><g
       id="g4767"
       transform="matrix(2.3933074,0,0,2.4450171,-64.255298,781.13187)"
       style="stroke:#d3d3d3" /><g
       id="g4847"
       transform="matrix(2.3933074,0,0,2.4450171,-6.8159205,781.13187)"
       style="stroke:#d3d3d3" /><g
       id="g4855"
       transform="matrix(2.3933074,0,0,2.4450171,-33.142302,732.23153)"
       style="stroke:#d3d3d3" /><g
       style="fill:#dcdcdc;fill-opacity:1;stroke:#d3d3d3"
       inkscape:label="Livello 1"
       id="layer1-1"
       transform="matrix(0.23975087,0,0,0.23975087,16.275655,988.76547)"><g
         style="fill:#dcdcdc;fill-opacity:1;stroke:#d3d3d3"
         inkscape:label="ombre"
         id="layer5"
         transform="matrix(0.51188693,0,0,0.58594337,-5.936074,-60.575397)" /><g
         style="fill:#dcdcdc;fill-opacity:1;stroke:#d3d3d3"
         id="g2841"
         inkscape:label="Layer 1"
         transform="matrix(0.51188693,0,0,0.58594337,-5.936074,-60.575397)" /><g
         style="fill:#dcdcdc;fill-opacity:1;stroke:#d3d3d3"
         inkscape:label="bureau"
         id="layer2"
         transform="matrix(0.51188693,0,0,0.58594337,-5.936074,-60.575397)" /><g
         style="fill:#dcdcdc;fill-opacity:1;stroke:#d3d3d3"
         inkscape:label="barre"
         id="layer3"
         transform="matrix(0.51188693,0,0,0.58594337,-5.936074,-60.575397)" /><g
         style="fill:#dcdcdc;fill-opacity:1;stroke:#d3d3d3"
         inkscape:label="fichier"
         id="layer4"
         transform="matrix(0.51188693,0,0,0.58594337,-5.936074,-60.575397)" /><circle
         style="fill:#d3d3d3;fill-opacity:1;stroke:#d3d3d3"
         id="path3455-6"
         transform="matrix(-0.16160701,-0.17763395,0.17763395,-0.16160701,31.47115,156.65493)"
         cx="380"
         cy="535.2193"
         r="225.71428" /><circle
         style="opacity:0.87614698;fill:#d3d3d3;fill-opacity:1;stroke:#d3d3d3"
         id="path3457-4"
         transform="matrix(0.24014714,0,0,0.24014714,27.396331,-143.71285)"
         cx="102.14286"
         cy="545.93359"
         r="135" /></g><g
       style="fill:#dcdcdc;fill-opacity:1;stroke:#d3d3d3"
       transform="matrix(0.23975087,0,0,0.23975087,46.876015,988.76547)"
       id="g3066"
       inkscape:label="Livello 1"><g
         style="fill:#dcdcdc;fill-opacity:1;stroke:#d3d3d3"
         transform="matrix(0.51188693,0,0,0.58594337,-5.936074,-60.575397)"
         id="g3068"
         inkscape:label="ombre" /><g
         style="fill:#dcdcdc;fill-opacity:1;stroke:#d3d3d3"
         transform="matrix(0.51188693,0,0,0.58594337,-5.936074,-60.575397)"
         inkscape:label="Layer 1"
         id="g3070" /><g
         style="fill:#dcdcdc;fill-opacity:1;stroke:#d3d3d3"
         transform="matrix(0.51188693,0,0,0.58594337,-5.936074,-60.575397)"
         id="g3072"
         inkscape:label="bureau" /><g
         style="fill:#dcdcdc;fill-opacity:1;stroke:#d3d3d3"
         transform="matrix(0.51188693,0,0,0.58594337,-5.936074,-60.575397)"
         id="g3074"
         inkscape:label="barre" /><g
         style="fill:#dcdcdc;fill-opacity:1;stroke:#d3d3d3"
         transform="matrix(0.51188693,0,0,0.58594337,-5.936074,-60.575397)"
         id="g3076"
         inkscape:label="fichier" /><circle
         transform="matrix(-0.16160701,-0.17763395,0.17763395,-0.16160701,31.47115,156.65493)"
         id="path3080"
         style="fill:#d3d3d3;fill-opacity:1;stroke:#d3d3d3"
         cx="380"
         cy="535.2193"
         r="225.71428" /><circle
         transform="matrix(0.24014714,0,0,0.24014714,27.396331,-143.71285)"
         id="path3082"
         style="opacity:0.87614698;fill:#d3d3d3;fill-opacity:1;stroke:#d3d3d3"
         cx="102.14286"
         cy="545.93359"
         r="135" /></g><g
       style="fill:#dcdcdc;fill-opacity:1;stroke:#d3d3d3"
       inkscape:label="Livello 1"
       id="g3090"
       transform="matrix(0.23975087,0,0,0.23975087,46.876015,1018.3458)"><g
         style="fill:#dcdcdc;fill-opacity:1;stroke:#d3d3d3"
         inkscape:label="ombre"
         id="g3092"
         transform="matrix(0.51188693,0,0,0.58594337,-5.936074,-60.575397)" /><g
         style="fill:#dcdcdc;fill-opacity:1;stroke:#d3d3d3"
         id="g3094"
         inkscape:label="Layer 1"
         transform="matrix(0.51188693,0,0,0.58594337,-5.936074,-60.575397)" /><g
         style="fill:#dcdcdc;fill-opacity:1;stroke:#d3d3d3"
         inkscape:label="bureau"
         id="g3096"
         transform="matrix(0.51188693,0,0,0.58594337,-5.936074,-60.575397)" /><g
         style="fill:#dcdcdc;fill-opacity:1;stroke:#d3d3d3"
         inkscape:label="barre"
         id="g3098"
         transform="matrix(0.51188693,0,0,0.58594337,-5.936074,-60.575397)" /><g
         style="fill:#dcdcdc;fill-opacity:1;stroke:#d3d3d3"
         inkscape:label="fichier"
         id="g3100"
         transform="matrix(0.51188693,0,0,0.58594337,-5.936074,-60.575397)" /><circle
         style="fill:#d3d3d3;fill-opacity:1;stroke:#d3d3d3"
         id="path3104"
         transform="matrix(-0.16160701,-0.17763395,0.17763395,-0.16160701,31.47115,156.65493)"
         cx="380"
         cy="535.2193"
         r="225.71428" /><circle
         style="opacity:0.87614698;fill:#d3d3d3;fill-opacity:1;stroke:#d3d3d3"
         id="path3106"
         transform="matrix(0.24014714,0,0,0.24014714,27.396331,-143.71285)"
         cx="102.14286"
         cy="545.93359"
         r="135" /></g><g
       style="fill:#dcdcdc;stroke:#d3d3d3"
       transform="matrix(0.23975087,0,0,0.23975087,16.275655,1018.3458)"
       id="g3114"
       inkscape:label="Livello 1"><g
         style="fill:#dcdcdc;stroke:#d3d3d3"
         transform="matrix(0.51188693,0,0,0.58594337,-5.936074,-60.575397)"
         id="g3116"
         inkscape:label="ombre" /><g
         style="fill:#dcdcdc;stroke:#d3d3d3"
         transform="matrix(0.51188693,0,0,0.58594337,-5.936074,-60.575397)"
         inkscape:label="Layer 1"
         id="g3118" /><g
         style="fill:#dcdcdc;stroke:#d3d3d3"
         transform="matrix(0.51188693,0,0,0.58594337,-5.936074,-60.575397)"
         id="g3120"
         inkscape:label="bureau" /><g
         style="fill:#dcdcdc;stroke:#d3d3d3"
         transform="matrix(0.51188693,0,0,0.58594337,-5.936074,-60.575397)"
         id="g3122"
         inkscape:label="barre" /><g
         style="fill:#dcdcdc;stroke:#d3d3d3"
         transform="matrix(0.51188693,0,0,0.58594337,-5.936074,-60.575397)"
         id="g3124"
         inkscape:label="fichier" /><circle
         transform="matrix(-0.16160701,-0.17763395,0.17763395,-0.16160701,31.47115,156.65493)"
         id="path3128"
         style="fill:#d3d3d3;fill-opacity:1;stroke:#d3d3d3"
         cx="380"
         cy="535.2193"
         r="225.71428" /><circle
         transform="matrix(0.24014714,0,0,0.24014714,27.396331,-143.71285)"
         id="path3130"
         style="opacity:0.87614698;fill:#d3d3d3;fill-opacity:1;stroke:#d3d3d3"
         cx="102.14286"
         cy="545.93359"
         r="135" /></g></g></svg>