<?xml version="1.0" encoding="UTF-8" standalone="no"?>
<!-- Generator: Adobe Illustrator 14.0.0, SVG Export Plug-In . SVG Version: 6.00 Build 43363)  -->

<svg
   xmlns:dc="http://purl.org/dc/elements/1.1/"
   xmlns:cc="http://creativecommons.org/ns#"
   xmlns:rdf="http://www.w3.org/1999/02/22-rdf-syntax-ns#"
   xmlns:svg="http://www.w3.org/2000/svg"
   xmlns="http://www.w3.org/2000/svg"
   xmlns:sodipodi="http://sodipodi.sourceforge.net/DTD/sodipodi-0.dtd"
   xmlns:inkscape="http://www.inkscape.org/namespaces/inkscape"
   version="1.1"
   x="0px"
   y="0px"
   width="64"
   height="64"
   viewBox="0 0 64 64"
   enable-background="new 0 0 780 650"
   xml:space="preserve"
   id="svg4433"
   inkscape:version="0.91 r13725"
   sodipodi:docname="ic_roles_byrole.svg"><metadata
     id="metadata5887"><rdf:RDF><cc:Work
         rdf:about=""><dc:format>image/svg+xml</dc:format><dc:type
           rdf:resource="http://purl.org/dc/dcmitype/StillImage" /></cc:Work></rdf:RDF></metadata><defs
     id="defs5885"><linearGradient
       id="linearGradient15834-3"><stop
         id="stop15842-3"
         offset="0"
         style="stop-color:#772b00;stop-opacity:1;" /><stop
         style="stop-color:#da441b;stop-opacity:1;"
         offset="0.5"
         id="stop15848-8" /><stop
         id="stop15850-6"
         offset="0.75"
         style="stop-color: rgb(210, 64, 15); stop-opacity: 1;" /><stop
         style="stop-color: rgb(212, 67, 22); stop-opacity: 0.614583;"
         offset="0.9375"
         id="stop15852-0" /><stop
         style="stop-color:#c33900;stop-opacity:0.21875;"
         offset="1"
         id="stop15838-4" /></linearGradient></defs><sodipodi:namedview
     pagecolor="#ffffff"
     bordercolor="#666666"
     borderopacity="1"
     objecttolerance="10"
     gridtolerance="10"
     guidetolerance="10"
     inkscape:pageopacity="0"
     inkscape:pageshadow="2"
     inkscape:window-width="1292"
     inkscape:window-height="783"
     id="namedview5883"
     showgrid="false"
     inkscape:zoom="1.9234755"
     inkscape:cx="-19.872233"
     inkscape:cy="-0.48276894"
     inkscape:window-x="531"
     inkscape:window-y="359"
     inkscape:window-maximized="0"
     inkscape:current-layer="svg4433" /><g
     id="Notification"
     transform="translate(-465.46203,-385.40339)" /><g
     id="Notification-5"
     transform="translate(-463.8149,-384.11737)" /><g
     id="Notification-0"
     transform="translate(-465.85069,-385.30774)" /><g
     id="Notification-5-3"
     transform="translate(-464.20356,-384.02172)" /><path
     style="fill:#d3d3d3;fill-opacity:1;fill-rule:evenodd;stroke:none"
     d="m 32.054182,1.305068 c -0.03954,-0.00651 -0.07741,-0.00208 -0.113289,0.011721 -1.148019,0.4416316 -6.700824,5.8252003 -7.965181,6.626308 -2.788045,1.7665276 -5.679158,3.132056 -7.369367,3.332932 -3.606598,0.428633 -3.895114,0.182703 -6.7651597,0.27103 -2.8700475,0.08833 -8.062359,-0.968686 -8.3903643,0.0029 -0.3280053,0.97159 -0.082728,3.886813 0.3272788,5.388362 0.4100066,1.501547 1.622506,5.838058 2.8364158,8.271531 0.3389164,0.679412 1.8663975,3.870669 3.9315406,7.429141 2.0651448,3.558472 5.2474058,6.735057 6.3441728,7.8833 2.193536,2.296485 5.240162,4.298574 5.937172,4.563553 1.394023,0.529958 5.879767,2.148004 8.749812,1.176414 2.870046,-0.971589 5.356015,-3.143664 5.68402,-4.115254 0.164003,-0.485796 1.677837,-3.916983 2.318925,-7.855465 0.641086,-3.938505 0.409279,-8.383846 0.327278,-9.3996 C 37.743433,22.860465 37.333173,15.541081 36.759163,13.332924 36.203092,11.19377 33.280049,1.506832 32.054182,1.305068 Z M 27.90865,13.848613 c 2.10207,-0.01858 4.48156,2.031697 4.64624,2.118425 l -7.877068,3.576127 c 0.128521,-4.413934 1.595886,-5.6801 3.230828,-5.694552 z m -11.098106,5.835194 c 2.102069,-0.01858 4.480161,2.031698 4.644841,2.118425 l -7.87567,3.576126 c 0.128521,-4.413933 1.595886,-5.680099 3.230829,-5.694551 z m 16.396107,9.280932 c 0.100038,-0.01618 0.20306,-0.01304 0.309096,0.01319 1.021766,0.252743 0.733038,3.772482 0.130073,5.849846 -0.938503,3.233377 -2.755868,4.965129 -4.372109,5.36492 -1.49366,0.369468 -3.1692,0.19133 -5.749756,-1.579296 -3.699826,-2.538597 -5.55692,-5.033351 -4.723164,-5.477728 1.095938,-0.584115 5.801682,2.332622 9.084083,1.520695 2.910299,-0.719883 3.821205,-5.448958 5.321777,-5.691622 z"
     id="path2202"
     inkscape:connector-curvature="0" /><path
     inkscape:connector-curvature="0"
     id="path8208"
     d="m 57.662635,33.537305 c -0.02501,-0.0041 -0.04896,-0.0013 -0.07165,0.0074 -0.726076,0.279314 -4.238002,3.684205 -5.037657,4.190873 -1.763326,1.117258 -3.591839,1.9809 -4.660828,2.107946 -2.281028,0.271093 -2.463503,0.115552 -4.278692,0.171416 -1.815189,0.05587 -5.099117,-0.612655 -5.306567,0.0018 -0.20745,0.614491 -0.05232,2.458253 0.20699,3.407922 0.259313,0.949668 1.02617,3.692337 1.793919,5.231411 0.214351,0.429701 1.180421,2.448042 2.486541,4.698633 1.306122,2.25059 3.318774,4.259652 4.012435,4.98587 1.387323,1.452434 3.314192,2.718675 3.755022,2.886264 0.881664,0.335177 3.718717,1.358526 5.533905,0.744034 1.815188,-0.614491 3.387464,-1.988241 3.594914,-2.602732 0.103725,-0.307247 1.061164,-2.477335 1.466627,-4.968266 0.405461,-2.490946 0.258852,-5.302446 0.20699,-5.944869 -0.103726,-1.284826 -0.363199,-5.914043 -0.726237,-7.310613 -0.351692,-1.352929 -2.2004,-7.479528 -2.975711,-7.607135 z m -2.621882,7.933288 c 1.329474,-0.01175 2.834406,1.284966 2.93856,1.339818 l -4.981929,2.261757 c 0.08128,-2.791636 1.009334,-3.592435 2.043369,-3.601575 z m -7.019106,3.690525 c 1.329474,-0.01175 2.833521,1.284967 2.937675,1.339819 l -4.981045,2.261756 c 0.08129,-2.791635 1.009334,-3.592435 2.04337,-3.601575 z m 10.369878,5.869816 c 0.06327,-0.01023 0.128427,-0.0082 0.195491,0.0083 0.646226,0.159849 0.463617,2.385943 0.08227,3.699792 -0.593565,2.044981 -1.742976,3.140244 -2.765183,3.393096 -0.94468,0.233674 -2.004392,0.121009 -3.63649,-0.998841 -2.339991,-1.605561 -3.514528,-3.183392 -2.987211,-3.464443 0.693137,-0.369429 3.669331,1.47529 5.745317,0.961779 1.840647,-0.455297 2.416759,-3.446247 3.36581,-3.599722 z"
     style="fill:#d3d3d3;fill-opacity:1;fill-rule:evenodd;stroke:none" /></svg>