<?xml version="1.0" encoding="UTF-8" standalone="no"?>
<svg
   xmlns:osb="http://www.openswatchbook.org/uri/2009/osb"
   xmlns:dc="http://purl.org/dc/elements/1.1/"
   xmlns:cc="http://creativecommons.org/ns#"
   xmlns:rdf="http://www.w3.org/1999/02/22-rdf-syntax-ns#"
   xmlns:svg="http://www.w3.org/2000/svg"
   xmlns="http://www.w3.org/2000/svg"
   xmlns:xlink="http://www.w3.org/1999/xlink"
   xmlns:sodipodi="http://sodipodi.sourceforge.net/DTD/sodipodi-0.dtd"
   xmlns:inkscape="http://www.inkscape.org/namespaces/inkscape"
   height="1066.6666"
   width="1000"
   id="svg2"
   version="1.1"
   inkscape:version="0.92.1 r15371"
   sodipodi:docname="ic_setup.svg">
  <metadata
     id="metadata10">
    <rdf:RDF>
      <cc:Work
         rdf:about="">
        <dc:format>image/svg+xml</dc:format>
        <dc:type
           rdf:resource="http://purl.org/dc/dcmitype/StillImage" />
      </cc:Work>
    </rdf:RDF>
  </metadata>
  <defs
     id="defs8">
    <linearGradient
       id="linearGradient19282"
       osb:paint="solid"
       gradientTransform="matrix(0,0,0,0,-52281657000,-1.6554885e11)">
      <stop
         style="stop-color:#666666;stop-opacity:1;"
         offset="0"
         id="stop19284" />
    </linearGradient>
    <inkscape:path-effect
       effect="spiro"
       id="path-effect36695"
       is_visible="true" />
    <clipPath
       id="clipPath980">
      <path
         d="M 5.38916,28.1929 H 27.1973 V 3.86426 H 5.38916 Z"
         inkscape:connector-curvature="0"
         id="path982" />
    </clipPath>
    <clipPath
       id="clipPath46">
      <path
         d="M 0,32 H 32 V 0 H 0 Z"
         inkscape:connector-curvature="0"
         id="path48" />
    </clipPath>
    <clipPath
       id="clipPath980-5">
      <path
         d="M 5.38916,28.1929 H 27.1973 V 3.86426 H 5.38916 Z"
         inkscape:connector-curvature="0"
         id="path982-0" />
    </clipPath>
    <clipPath
       id="clipPath46-9">
      <path
         d="M 0,32 H 32 V 0 H 0 Z"
         inkscape:connector-curvature="0"
         id="path48-0" />
    </clipPath>
    <style
       id="style2988"
       type="text/css">
    .fil0 {fill:#006C3B}
    .fil1 {fill:#77C06C}
   </style>
    <style
       id="style2988-7"
       type="text/css">
    .fil0 {fill:#006C3B}
    .fil1 {fill:#77C06C}
   </style>
  </defs>
  <sodipodi:namedview
     pagecolor="#ffffff"
     bordercolor="#666666"
     borderopacity="1"
     objecttolerance="10"
     gridtolerance="10"
     guidetolerance="10"
     inkscape:pageopacity="0"
     inkscape:pageshadow="2"
     inkscape:window-width="781"
     inkscape:window-height="814"
     id="namedview6"
     showgrid="false"
     inkscape:zoom="0.24208851"
     inkscape:cx="506.1005"
     inkscape:cy="533.58135"
     inkscape:window-x="320"
     inkscape:window-y="316"
     inkscape:window-maximized="0"
     inkscape:current-layer="svg2" />
  <g
     id="Notification"
     transform="translate(1396.3187,-407.20148)" />
  <g
     transform="translate(1186.1574,408.60401)"
     id="zoom-original"
     inkscape:label="#g6809">
    <g
       transform="matrix(0.996399,0,0,1,101.42425,-237.79776)"
       id="zoom_1_to_1">
      <use
         xlink:href="#g5796"
         transform="matrix(1,0,0,0.997925,-0.043616,0.509456)"
         x="0"
         y="0"
         id="use5816"
         width="1250"
         height="1250" />
    </g>
  </g>
  <g
     transform="matrix(0.99218952,0,0,1,1187.5833,409.20401)"
     id="zoom-half-size"
     inkscape:label="#g6895">
    <use
       xlink:href="#g5796"
       height="1250"
       width="1250"
       id="use5818"
       y="0"
       x="0"
       transform="matrix(0.996399,0,0,0.997925,101.38079,-215.95497)" />
  </g>
  <g
     id="g11074"
     transform="matrix(1,0,0,0.99801946,1212.2908,-104.23436)" />
  <g
     id="g11109"
     transform="translate(1212.2908,-126.71565)" />
  <g
     id="g11198"
     transform="translate(1212.2908,-126.71565)" />
  <g
     id="g11329"
     transform="translate(1233.6241,-126.71565)" />
  <g
     id="zoom-fit-selection"
     inkscape:label="#zoom_selection"
     transform="translate(1187.7574,-105.91565)">
    <g
       transform="translate(0,21.333333)"
       id="g11156"
       inkscape:label="#g11150">
      <g
         transform="translate(0,21.299467)"
         id="g11158">
        <g
           transform="matrix(1,0,0,0.99801946,0,22.481293)"
           id="g11160" />
      </g>
    </g>
  </g>
  <g
     id="g11563"
     inkscape:label="#zoom_select"
     transform="translate(1187.7574,-63.248981)">
    <g
       inkscape:label="#zoom_selection"
       id="g11565">
      <g
         inkscape:label="#g11150"
         id="g11567"
         transform="translate(0,21.333333)">
        <g
           id="g11569"
           transform="translate(0,21.299467)">
          <g
             id="g11571"
             transform="matrix(1,0,0,0.99801946,0,22.481293)" />
        </g>
      </g>
    </g>
  </g>
  <g
     id="g11647"
     transform="translate(1279.4908,-20.048981)" />
  <g
     transform="matrix(-1,0,0,1,1321.0908,-20.048981)"
     id="g11659" />
  <rect
     style="opacity:0.3;fill:url(#linearGradient19282);fill-opacity:1;stroke:none;stroke-width:1.06666672"
     id="rect19405"
     width="0"
     height="1.0666667"
     x="1338.1575"
     y="531.80402"
     ry="0" />
  <g
     id="g39728"
     transform="translate(1212.2908,-126.71565)" />
  <g
     transform="translate(790.25722,222.10401)"
     id="g39833" />
  <path
     style="color:#000000;font-style:normal;font-variant:normal;font-weight:normal;font-stretch:normal;font-size:medium;line-height:normal;font-family:Sans;-inkscape-font-specification:Sans;text-indent:0;text-align:start;text-decoration:none;text-decoration-line:none;letter-spacing:normal;word-spacing:normal;text-transform:none;writing-mode:lr-tb;direction:ltr;text-anchor:start;display:inline;overflow:visible;visibility:visible;fill:#808080;fill-opacity:1;fill-rule:nonzero;stroke:none;stroke-width:3.20000005;marker:none;enable-background:accumulate"
     d="m 59.792661,317.13907 c -7.182116,21.7216 -13.651927,45.71455 -13.696523,68.54733 -0.188442,109.28261 88.668432,180.91345 198.365632,160.71131 22.91944,-4.22106 45.29054,-13.62743 65.78978,-24.51304 1.451,-0.77888 70.94492,54.13286 89.6144,68.99143 2.57536,2.054 12.18963,9.72292 12.18963,9.72292 21.15501,16.92137 172.98951,138.37981 172.46313,140.05001 -6.64506,21.93706 -11.42957,45.36971 -10.93585,68.26654 2.36179,109.59104 91.97996,180.33934 200.84487,157.71386 22.74482,-4.72358 45.32886,-15.8661 65.50272,-27.22532 l -109.42268,-84.7922 c -22.52248,-17.64689 -20.08028,-51.48022 1.50753,-78.27025 l 39.60026,-47.88601 c 21.93077,-26.52057 52.08258,-37.53243 74.64526,-19.9333 l 110.94593,86.00763 c 6.64569,-21.93705 11.42958,-45.37032 10.93587,-68.26716 -2.3618,-109.5904 -93.21802,-178.84187 -202.08042,-156.21952 -22.74483,4.7236 -44.3785,11.65823 -64.55175,23.01745 L 664.94159,563.89197 469.90699,408.32571 433.33811,379.1569 c 7.18211,-21.72095 9.65258,-43.93754 9.69843,-66.76969 0.18844,-109.28261 -87.43162,-182.41031 -197.13069,-162.20566 -22.91947,4.22107 -45.29055,13.62618 -65.78919,24.51366 l 108.46732,89.0045 c 22.16631,18.07778 17.37678,49.31942 -4.55401,75.83998 l -39.60024,47.88665 c -22.26998,26.24545 -55.5047,35.55443 -77.69236,17.50177 L 59.793296,317.13907 Z"
     id="path3908-6"
     inkscape:connector-curvature="0" />
  <rect
     style="fill:none;stroke:none;stroke-width:1.06666672"
     id="rect2999-6"
     width="896.16705"
     height="896.16724"
     x="50.824909"
     y="124.79442" />
  <use
     transform="translate(1460.7943,571.76758)"
     x="0"
     y="0"
     id="use5704"
     width="1250"
     height="1250"
     xlink:href="#rect4442" />
  <g
     style="fill:none"
     transform="matrix(0.90013776,0,0,0.8929798,1086.3774,436.89711)"
     id="g14408" />
  <use
     x="0"
     y="0"
     id="use4586"
     transform="matrix(0.692914,0,0,0.70953374,1122.8891,251.93606)"
     width="1250"
     height="1250"
     xlink:href="#g5772" />
  <use
     x="0"
     y="0"
     id="use4586-2"
     transform="matrix(0.695835,0,0,0.741921,1105.8162,246.16134)"
     width="1250"
     height="1250"
     xlink:href="#g5772" />
  <use
     transform="matrix(0.695835,0,0,0.741921,1152.7495,243.49468)"
     x="0"
     y="0"
     id="use4589"
     width="1250"
     height="1250"
     xlink:href="#g5772" />
  <use
     transform="matrix(0.62897517,0,0,1.1624311,1232.4926,134.45802)"
     x="0"
     y="0"
     id="use4592"
     width="1250"
     height="1250"
     xlink:href="#g5772" />
  <use
     transform="translate(2035.7679,271.85911)"
     x="0"
     y="0"
     id="use3738"
     width="1250"
     height="1250"
     xlink:href="#rect10675" />
  <use
     transform="translate(2036.7987,289.69646)"
     x="0"
     y="0"
     id="use4635"
     width="1250"
     height="1250"
     xlink:href="#use5758" />
  <use
     transform="translate(2032.5162,208.54694)"
     x="0"
     y="0"
     id="use9872"
     width="1250"
     height="1250"
     xlink:href="#g6043" />
  <use
     height="1250"
     width="1250"
     id="use10185"
     y="0"
     x="0"
     transform="translate(2080.5501,272.86876)"
     xlink:href="#rect10675" />
  <use
     transform="translate(2067.7501,285.66876)"
     x="0"
     y="0"
     id="use10187"
     width="1250"
     height="1250"
     xlink:href="#rect10675" />
  <use
     transform="translate(2052.8347,202.10193)"
     x="0"
     y="0"
     id="use9872-0"
     width="1250"
     height="1250"
     xlink:href="#g6043" />
  <use
     height="1250"
     width="1250"
     id="use10185-8"
     y="0"
     x="0"
     transform="translate(2100.8686,266.42374)"
     xlink:href="#rect10675" />
  <use
     transform="translate(2088.0686,279.22374)"
     x="0"
     y="0"
     id="use10187-8"
     width="1250"
     height="1250"
     xlink:href="#rect10675" />
  <use
     style="stroke:url(#linearGradient19282);stroke-opacity:1"
     height="1250"
     width="1250"
     transform="matrix(1.1377421,0,0,1.1399698,1831.6796,276.7166)"
     id="use5845-6"
     y="0"
     x="0"
     xlink:href="#use5756-0-3" />
  <use
     style="stroke:url(#linearGradient19282);stroke-opacity:1"
     height="1250"
     width="1250"
     transform="matrix(1.1377421,0,0,1.1399698,1826.3466,284.42697)"
     id="use5845-6-1"
     y="0"
     x="0"
     xlink:href="#use5756-0-3" />
  <use
     style="stroke:url(#linearGradient19282);stroke-opacity:1"
     height="1250"
     width="1250"
     transform="matrix(1.1377421,0,0,1.1399698,1839.7788,288.32058)"
     id="use5845-6-1-9"
     y="0"
     x="0"
     xlink:href="#use5756-0-3" />
  <g
     id="g31444"
     inkscape:label="#zoom_selection"
     transform="translate(1347.7574,293.01769)">
    <g
       transform="translate(0,21.333333)"
       id="g31446"
       inkscape:label="#g11150">
      <g
         transform="translate(0,21.299467)"
         id="g31448">
        <g
           transform="matrix(1,0,0,0.99801946,0,22.481293)"
           id="g31450" />
      </g>
    </g>
  </g>
  <text
     xml:space="preserve"
     style="font-style:normal;font-weight:normal;font-size:12.80000019px;line-height:0%;font-family:sans-serif;letter-spacing:0px;word-spacing:0px;fill:#000000;fill-opacity:1;stroke:none;stroke-width:1.06666672"
     x="920.02411"
     y="673.67072"
     id="text19288"><tspan
       sodipodi:role="line"
       x="920.02411"
       y="673.67072"
       id="tspan19292"
       style="font-size:42.66666794px;line-height:1.25;font-family:sans-serif;stroke-width:1.06666672"> </tspan></text>
</svg>
