<svg xmlns="http://www.w3.org/2000/svg" xml:space="preserve" width="64" height="64"><path d="M56.034 13.712c0 .494-.406.9-.9.9H11.933a.904.904 0 0 1-.9-.9v-8.1c0-.495.406-.9.9-.9h43.2c.495 0 .9.405.9.9zm0 14.704c0 .494-.406.9-.9.9H11.933a.904.904 0 0 1-.9-.9v-8.1c0-.496.406-.9.9-.9h43.2c.495 0 .9.404.9.9zm0 14.704a.902.902 0 0 1-.9.899H11.933a.902.902 0 0 1-.9-.898v-8.102c0-.494.406-.898.9-.898h43.2c.495 0 .9.404.9.898zm0 14.703c0 .494-.406.9-.9.9H11.933a.904.904 0 0 1-.9-.9v-8.1c0-.495.406-.9.9-.9h43.2c.495 0 .9.405.9.9z" style="fill:#d3d3d3" transform="matrix(.46857 0 0 1 -.376 .52)"/><path d="M56.034 13.712c0 .494-.406.9-.9.9H11.933a.904.904 0 0 1-.9-.9v-8.1c0-.495.406-.9.9-.9h43.2c.495 0 .9.405.9.9zm0 14.704c0 .494-.406.9-.9.9H11.933a.904.904 0 0 1-.9-.9v-8.1c0-.496.406-.9.9-.9h43.2c.495 0 .9.404.9.9zm0 14.704a.902.902 0 0 1-.9.899H11.933a.902.902 0 0 1-.9-.898v-8.102c0-.494.406-.898.9-.898h43.2c.495 0 .9.404.9.898zm0 14.703c0 .494-.406.9-.9.9H11.933a.904.904 0 0 1-.9-.9v-8.1c0-.495.406-.9.9-.9h43.2c.495 0 .9.405.9.9z" style="fill:#d3d3d3" transform="matrix(.46857 0 0 1 -.376 .52)"/><path d="M56.034 13.712c0 .494-.406.9-.9.9H11.933a.904.904 0 0 1-.9-.9v-8.1c0-.495.406-.9.9-.9h43.2c.495 0 .9.405.9.9zm0 14.704c0 .494-.406.9-.9.9H11.933a.904.904 0 0 1-.9-.9v-8.1c0-.496.406-.9.9-.9h43.2c.495 0 .9.404.9.9zm0 14.704a.902.902 0 0 1-.9.899H11.933a.902.902 0 0 1-.9-.898v-8.102c0-.494.406-.898.9-.898h43.2c.495 0 .9.404.9.898zm0 14.703c0 .494-.406.9-.9.9H11.933a.904.904 0 0 1-.9-.9v-8.1c0-.495.406-.9.9-.9h43.2c.495 0 .9.405.9.9z" style="fill:#d3d3d3" transform="matrix(.46857 0 0 1 33.624 .52)"/></svg>