<svg xmlns="http://www.w3.org/2000/svg" width="341.333" height="373.333"><defs><filter id="a" style="color-interpolation-filters:sRGB"><feGaussianBlur in="SourceGraphic" result="result0" stdDeviation="5"/><feDiffuseLighting lighting-color="#fefefe" result="result5" surfaceScale="10"><feDistantLight azimuth="235" elevation="13"/></feDiffuseLighting><feComposite in="result5" in2="SourceGraphic" k1="1" k3=".6" operator="arithmetic" result="result4"/></filter></defs><text xml:space="preserve" x="364.725" y="204.528" style="font-style:normal;font-variant:normal;font-weight:400;font-stretch:condensed;font-size:44.32409668px;line-height:1.25;font-family:Impact;-inkscape-font-specification:&quot;Impact, Condensed&quot;;font-variant-ligatures:normal;font-variant-caps:normal;font-variant-numeric:normal;font-feature-settings:normal;text-align:start;letter-spacing:0;word-spacing:0;writing-mode:lr-tb;text-anchor:start;fill:#e46d43;fill-opacity:1;stroke:none;stroke-width:1.10810244" transform="matrix(.80221 0 0 1.24655 -186.609 108.745)"><tspan x="364.725" y="204.528" style="fill:#e46d43;stroke-width:1.10810244">Word</tspan></text><text xml:space="preserve" x="462.978" y="204.724" style="font-style:normal;font-variant:normal;font-weight:400;font-stretch:condensed;font-size:46.02099609px;line-height:1.25;font-family:Impact;-inkscape-font-specification:&quot;Impact, Condensed&quot;;font-variant-ligatures:normal;font-variant-caps:normal;font-variant-numeric:normal;font-feature-settings:normal;text-align:start;letter-spacing:0;word-spacing:0;writing-mode:lr-tb;text-anchor:start;fill:#500;fill-opacity:1;stroke:none;stroke-width:1.15052474" transform="matrix(.80306 0 0 1.24524 -186.609 108.745)"><tspan x="462.978" y="204.724" style="fill:#500;stroke-width:1.15052474">Net</tspan></text><g style="stroke:#ad8b9e;filter:url(#a)" transform="matrix(.57788 0 0 .57788 144.033 -219.476)"><ellipse cx="46.088" cy="538.184" rx="143.525" ry="143.608" style="fill:none;stroke:#ad8b9e;stroke-width:16.16086197;stroke-miterlimit:4;stroke-dasharray:none;stroke-opacity:1"/><path d="m-52.15 538.877 194.393.855m-97.56 101.571.731-205.043m-59.895 22.752c31.827 45.91 31.59 112.337-.564 157.967m119.626.526c-31.826-45.91-31.59-112.337.564-157.967m-156.997 79.006c47.256-61.201 147.653-60.441 194.481 1.184m-.314.222c-47.256 61.201-147.339 60.443-194.168-1.183" style="fill:none;stroke:#ad8b9e;stroke-width:12.72536182;stroke-opacity:1"/><ellipse cx="-466.943" cy="438.428" rx="17.87" ry="17.92" style="fill:#ad8b9e;fill-opacity:1;stroke:#ad8b9e;stroke-width:.07928234" transform="matrix(-.72081 -.69313 -.66515 .74671 0 0)"/><ellipse cx="-478.924" cy="278.434" rx="17.87" ry="17.92" style="fill:#ad8b9e;fill-opacity:1;stroke:#ad8b9e;stroke-width:.07928234" transform="matrix(-.72081 -.69313 -.66515 .74671 0 0)"/><ellipse cx="-306.635" cy="436.624" rx="17.87" ry="17.92" style="fill:#ad8b9e;fill-opacity:1;stroke:#ad8b9e;stroke-width:.07928234" transform="matrix(-.72081 -.69313 -.66515 .74671 0 0)"/><ellipse cx="-399.743" cy="466.781" rx="17.87" ry="17.92" style="fill:#ad8b9e;fill-opacity:1;stroke:#ad8b9e;stroke-width:.07928234" transform="matrix(-.72081 -.69313 -.66515 .74671 0 0)"/><ellipse cx="-281.893" cy="340.652" rx="17.87" ry="17.92" style="fill:#ad8b9e;fill-opacity:1;stroke:#ad8b9e;stroke-width:.07928234" transform="matrix(-.72081 -.69313 -.66515 .74671 0 0)"/><ellipse cx="-385.005" cy="247.763" rx="17.87" ry="17.92" style="fill:#ad8b9e;fill-opacity:1;stroke:#ad8b9e;stroke-width:.07928234" transform="matrix(-.72081 -.69313 -.66515 .74671 0 0)"/><ellipse cx="-500.973" cy="375.022" rx="17.87" ry="17.92" style="fill:#4c0000;fill-opacity:1;stroke:#ad8b9e;stroke-width:.07928234" transform="matrix(-.72081 -.69313 -.66515 .74671 0 0)"/><ellipse cx="-500.973" cy="375.022" rx="17.87" ry="17.92" style="fill:#ad8b9e;fill-opacity:1;stroke:#ad8b9e;stroke-width:.07928234" transform="matrix(-.72081 -.69313 -.66515 .74671 0 0)"/><ellipse cx="-317.022" cy="275.431" rx="17.87" ry="17.92" style="fill:#ad8b9e;fill-opacity:1;stroke:#ad8b9e;stroke-width:.07928234" transform="matrix(-.72081 -.69313 -.66515 .74671 0 0)"/></g><text xml:space="preserve" x="411.232" y="107.122" style="font-style:normal;font-variant:normal;font-weight:400;font-stretch:condensed;font-size:96.08006287px;line-height:1.25;font-family:Impact;-inkscape-font-specification:&quot;Impact, Condensed&quot;;font-variant-ligatures:normal;font-variant-caps:normal;font-variant-numeric:normal;font-feature-settings:normal;text-align:start;letter-spacing:0;word-spacing:0;writing-mode:lr-tb;text-anchor:start;fill:#e46d43;fill-opacity:1" transform="matrix(.5654 0 0 1.76869 -188.3 108.745)"><tspan x="411.232" y="107.122" style="fill:#e46d43">Syntag</tspan></text><text xml:space="preserve" x="600.248" y="122.34" style="font-style:normal;font-variant:normal;font-weight:400;font-stretch:condensed;font-size:112.28165436px;line-height:1.25;font-family:Impact;-inkscape-font-specification:&quot;Impact, Condensed&quot;;font-variant-ligatures:normal;font-variant-caps:normal;font-variant-numeric:normal;font-feature-settings:normal;text-align:start;letter-spacing:0;word-spacing:0;writing-mode:lr-tb;text-anchor:start;fill:#500;fill-opacity:1" transform="matrix(.64295 0 0 1.55533 -188.3 108.745)"><tspan x="600.248" y="122.34" style="fill:#500;fill-opacity:1">Net</tspan></text></svg>