<?xml version="1.0" encoding="UTF-8" standalone="no"?>
<!-- Generator: Adobe Illustrator 14.0.0, SVG Export Plug-In . SVG Version: 6.00 Build 43363)  -->

<svg
   xmlns:dc="http://purl.org/dc/elements/1.1/"
   xmlns:cc="http://creativecommons.org/ns#"
   xmlns:rdf="http://www.w3.org/1999/02/22-rdf-syntax-ns#"
   xmlns:svg="http://www.w3.org/2000/svg"
   xmlns="http://www.w3.org/2000/svg"
   xmlns:sodipodi="http://sodipodi.sourceforge.net/DTD/sodipodi-0.dtd"
   xmlns:inkscape="http://www.inkscape.org/namespaces/inkscape"
   version="1.1"
   x="0px"
   y="0px"
   width="64"
   height="64"
   viewBox="0 0 64 64"
   enable-background="new 0 0 780 650"
   xml:space="preserve"
   id="svg4433"
   inkscape:version="0.92.5 (2060ec1f9f, 2020-04-08)"
   sodipodi:docname="ic_snselector.svg"><metadata
     id="metadata5887"><rdf:RDF><cc:Work
         rdf:about=""><dc:format>image/svg+xml</dc:format><dc:type
           rdf:resource="http://purl.org/dc/dcmitype/StillImage" /></cc:Work></rdf:RDF></metadata><defs
     id="defs5885" /><sodipodi:namedview
     pagecolor="#ffffff"
     bordercolor="#666666"
     borderopacity="1"
     objecttolerance="10"
     gridtolerance="10"
     guidetolerance="10"
     inkscape:pageopacity="0"
     inkscape:pageshadow="2"
     inkscape:window-width="1263"
     inkscape:window-height="767"
     id="namedview5883"
     showgrid="false"
     inkscape:zoom="1.9234755"
     inkscape:cx="-35.971179"
     inkscape:cy="-4.1916053"
     inkscape:window-x="133"
     inkscape:window-y="359"
     inkscape:window-maximized="0"
     inkscape:current-layer="svg4433" /><g
     id="Notification"
     transform="translate(-465.46203,-385.40339)" /><g
     id="Notification-6"
     transform="translate(-382.0084,-366.31973)" /><g
     id="g4219"
     transform="matrix(0.46856632,0,0,1,-0.37563659,0.51989225)"
     style="fill:#d3d3d3"><path
       id="path5636"
       d="m 56.033555,13.71163 c 0,0.494 -0.406,0.9 -0.9,0.9 h -43.201 c -0.494,0 -0.9,-0.406 -0.9,-0.9 v -8.099 c 0,-0.496 0.406,-0.9 0.9,-0.9 h 43.201 c 0.494,0 0.9,0.404 0.9,0.9 z"
       inkscape:connector-curvature="0"
       style="fill:#d3d3d3" /><path
       id="path5638"
       d="m 56.033555,28.415886 c 0,0.494 -0.406,0.9 -0.9,0.9 h -43.201 c -0.494,0 -0.9,-0.406 -0.9,-0.9 v -8.1 c 0,-0.496 0.406,-0.9 0.9,-0.9 h 43.201 c 0.494,0 0.9,0.404 0.9,0.9 z"
       inkscape:connector-curvature="0"
       style="fill:#d3d3d3" /><path
       id="path5640"
       d="m 56.033555,43.120643 c 0,0.494 -0.406,0.898 -0.9,0.898 h -43.201 c -0.494,0 -0.9,-0.404 -0.9,-0.898 v -8.102 c 0,-0.494 0.406,-0.898 0.9,-0.898 h 43.201 c 0.494,0 0.9,0.404 0.9,0.898 z"
       inkscape:connector-curvature="0"
       style="fill:#d3d3d3" /><path
       style="fill:#d3d3d3"
       inkscape:connector-curvature="0"
       d="m 56.033555,57.8229 c 0,0.494 -0.406,0.9 -0.9,0.9 h -43.201 c -0.494,0 -0.9,-0.406 -0.9,-0.9 v -8.099 c 0,-0.496 0.406,-0.9 0.9,-0.9 h 43.201 c 0.494,0 0.9,0.404 0.9,0.9 z"
       id="path4199" /></g><g
     style="fill:#d3d3d3"
     transform="matrix(0.46856632,0,0,1,-0.37563665,0.51989225)"
     id="g21"><path
       style="fill:#d3d3d3"
       inkscape:connector-curvature="0"
       d="m 56.033555,13.71163 c 0,0.494 -0.406,0.9 -0.9,0.9 h -43.201 c -0.494,0 -0.9,-0.406 -0.9,-0.9 v -8.099 c 0,-0.496 0.406,-0.9 0.9,-0.9 h 43.201 c 0.494,0 0.9,0.404 0.9,0.9 z"
       id="path13" /><path
       style="fill:#d3d3d3"
       inkscape:connector-curvature="0"
       d="m 56.033555,28.415886 c 0,0.494 -0.406,0.9 -0.9,0.9 h -43.201 c -0.494,0 -0.9,-0.406 -0.9,-0.9 v -8.1 c 0,-0.496 0.406,-0.9 0.9,-0.9 h 43.201 c 0.494,0 0.9,0.404 0.9,0.9 z"
       id="path15" /><path
       style="fill:#d3d3d3"
       inkscape:connector-curvature="0"
       d="m 56.033555,43.120643 c 0,0.494 -0.406,0.898 -0.9,0.898 h -43.201 c -0.494,0 -0.9,-0.404 -0.9,-0.898 v -8.102 c 0,-0.494 0.406,-0.898 0.9,-0.898 h 43.201 c 0.494,0 0.9,0.404 0.9,0.898 z"
       id="path17" /><path
       id="path19"
       d="m 56.033555,57.8229 c 0,0.494 -0.406,0.9 -0.9,0.9 h -43.201 c -0.494,0 -0.9,-0.406 -0.9,-0.9 v -8.099 c 0,-0.496 0.406,-0.9 0.9,-0.9 h 43.201 c 0.494,0 0.9,0.404 0.9,0.9 z"
       inkscape:connector-curvature="0"
       style="fill:#d3d3d3" /></g><g
     id="g31"
     transform="matrix(0.46856632,0,0,1,33.624363,0.51989225)"
     style="fill:#d3d3d3"><path
       id="path23"
       d="m 56.033555,13.71163 c 0,0.494 -0.406,0.9 -0.9,0.9 h -43.201 c -0.494,0 -0.9,-0.406 -0.9,-0.9 v -8.099 c 0,-0.496 0.406,-0.9 0.9,-0.9 h 43.201 c 0.494,0 0.9,0.404 0.9,0.9 z"
       inkscape:connector-curvature="0"
       style="fill:#d3d3d3" /><path
       id="path25"
       d="m 56.033555,28.415886 c 0,0.494 -0.406,0.9 -0.9,0.9 h -43.201 c -0.494,0 -0.9,-0.406 -0.9,-0.9 v -8.1 c 0,-0.496 0.406,-0.9 0.9,-0.9 h 43.201 c 0.494,0 0.9,0.404 0.9,0.9 z"
       inkscape:connector-curvature="0"
       style="fill:#d3d3d3" /><path
       id="path27"
       d="m 56.033555,43.120643 c 0,0.494 -0.406,0.898 -0.9,0.898 h -43.201 c -0.494,0 -0.9,-0.404 -0.9,-0.898 v -8.102 c 0,-0.494 0.406,-0.898 0.9,-0.898 h 43.201 c 0.494,0 0.9,0.404 0.9,0.898 z"
       inkscape:connector-curvature="0"
       style="fill:#d3d3d3" /><path
       style="fill:#d3d3d3"
       inkscape:connector-curvature="0"
       d="m 56.033555,57.8229 c 0,0.494 -0.406,0.9 -0.9,0.9 h -43.201 c -0.494,0 -0.9,-0.406 -0.9,-0.9 v -8.099 c 0,-0.496 0.406,-0.9 0.9,-0.9 h 43.201 c 0.494,0 0.9,0.404 0.9,0.9 z"
       id="path29" /></g></svg>