<?xml version="1.0" encoding="UTF-8" standalone="no"?>
<!-- Generator: Adobe Illustrator 14.0.0, SVG Export Plug-In . SVG Version: 6.00 Build 43363)  -->

<svg
   xmlns:dc="http://purl.org/dc/elements/1.1/"
   xmlns:cc="http://creativecommons.org/ns#"
   xmlns:rdf="http://www.w3.org/1999/02/22-rdf-syntax-ns#"
   xmlns:svg="http://www.w3.org/2000/svg"
   xmlns="http://www.w3.org/2000/svg"
   xmlns:sodipodi="http://sodipodi.sourceforge.net/DTD/sodipodi-0.dtd"
   xmlns:inkscape="http://www.inkscape.org/namespaces/inkscape"
   version="1.1"
   x="0px"
   y="0px"
   width="64"
   height="64"
   viewBox="0 0 64 64"
   enable-background="new 0 0 780 650"
   xml:space="preserve"
   id="svg4433"
   inkscape:version="0.92.5 (2060ec1f9f, 2020-04-08)"
   sodipodi:docname="ic_xselector.svg"><metadata
     id="metadata5887"><rdf:RDF><cc:Work
         rdf:about=""><dc:format>image/svg+xml</dc:format><dc:type
           rdf:resource="http://purl.org/dc/dcmitype/StillImage" /></cc:Work></rdf:RDF></metadata><defs
     id="defs5885" /><sodipodi:namedview
     pagecolor="#ffffff"
     bordercolor="#666666"
     borderopacity="1"
     objecttolerance="10"
     gridtolerance="10"
     guidetolerance="10"
     inkscape:pageopacity="0"
     inkscape:pageshadow="2"
     inkscape:window-width="1292"
     inkscape:window-height="767"
     id="namedview5883"
     showgrid="false"
     inkscape:zoom="1.9234755"
     inkscape:cx="-40.705034"
     inkscape:cy="-62.869839"
     inkscape:window-x="531"
     inkscape:window-y="359"
     inkscape:window-maximized="0"
     inkscape:current-layer="svg4433" /><g
     id="Notification"
     transform="translate(-465.46203,-385.40339)" /><g
     id="g31"
     transform="matrix(1.4120978,0,0,1,-24.80077,0)"><path
       style="fill:#d3d3d3;stroke-width:1.21546936"
       inkscape:connector-curvature="0"
       d="m 58.617234,4.420369 h -35.97829 c -0.861304,0 -1.566007,0.477 -1.566007,1.059 v 6.352 c 0,0.584 0.704703,1.061 1.566007,1.061 h 35.97829 c 0.859827,0 1.56453,-0.477 1.56453,-1.061 v -6.352 c -0.0015,-0.582 -0.704703,-1.059 -1.56453,-1.059 z"
       id="path5623" /><path
       id="path7734"
       d="m 58.617234,16.420369 h -35.97829 c -0.861304,0 -1.566007,0.477 -1.566007,1.059 v 6.352 c 0,0.584 0.704703,1.061 1.566007,1.061 h 35.97829 c 0.859827,0 1.56453,-0.477 1.56453,-1.061 v -6.352 c -0.0015,-0.582 -0.704703,-1.059 -1.56453,-1.059 z"
       inkscape:connector-curvature="0"
       style="fill:#d3d3d3;stroke-width:1.21546936" /><path
       style="fill:#d3d3d3;stroke-width:1.21546936"
       inkscape:connector-curvature="0"
       d="m 58.617234,28.420369 h -35.97829 c -0.861304,0 -1.566007,0.477 -1.566007,1.059 v 6.352 c 0,0.584 0.704703,1.061 1.566007,1.061 h 35.97829 c 0.859827,0 1.56453,-0.477 1.56453,-1.061 v -6.352 c -0.0015,-0.582 -0.704703,-1.059 -1.56453,-1.059 z"
       id="path7736" /></g><g
     id="g46"
     transform="translate(-1.8725621)"><g
       id="g41"
       transform="matrix(0.62778268,0,0,1,-6.4003835,0)"><path
         id="path37"
         d="m 58.617232,40.420369 h -35.97829 c -0.861304,0 -1.566007,0.477 -1.566007,1.059 v 6.352 c 0,0.584 0.704703,1.061 1.566007,1.061 h 35.97829 c 0.859827,0 1.56453,-0.477 1.56453,-1.061 v -6.352 c -0.0015,-0.582 -0.704703,-1.059 -1.56453,-1.059 z"
         inkscape:connector-curvature="0"
         style="fill:#d3d3d3" /><path
         style="fill:#d3d3d3"
         inkscape:connector-curvature="0"
         d="m 58.617232,52.420369 h -35.97829 c -0.861304,0 -1.566007,0.477 -1.566007,1.059 v 6.352 c 0,0.584 0.704703,1.061 1.566007,1.061 h 35.97829 c 0.859827,0 1.56453,-0.477 1.56453,-1.061 v -6.352 c -0.0015,-0.582 -0.704703,-1.059 -1.56453,-1.059 z"
         id="path39" /></g></g><g
     transform="translate(28.801082)"
     id="g54"><g
       transform="matrix(0.62778268,0,0,1,-6.4003835,0)"
       id="g52"><path
         style="fill:#d3d3d3"
         inkscape:connector-curvature="0"
         d="m 58.617232,40.420369 h -35.97829 c -0.861304,0 -1.566007,0.477 -1.566007,1.059 v 6.352 c 0,0.584 0.704703,1.061 1.566007,1.061 h 35.97829 c 0.859827,0 1.56453,-0.477 1.56453,-1.061 v -6.352 c -0.0015,-0.582 -0.704703,-1.059 -1.56453,-1.059 z"
         id="path48" /><path
         id="path50"
         d="m 58.617232,52.420369 h -35.97829 c -0.861304,0 -1.566007,0.477 -1.566007,1.059 v 6.352 c 0,0.584 0.704703,1.061 1.566007,1.061 h 35.97829 c 0.859827,0 1.56453,-0.477 1.56453,-1.061 v -6.352 c -0.0015,-0.582 -0.704703,-1.059 -1.56453,-1.059 z"
         inkscape:connector-curvature="0"
         style="fill:#d3d3d3" /></g></g></svg>