<svg xmlns="http://www.w3.org/2000/svg" xml:space="preserve" width="64" height="64"><path d="M58.617 4.42H22.64c-.861 0-1.566.477-1.566 1.06v6.351c0 .584.705 1.061 1.566 1.061h35.978c.86 0 1.565-.477 1.565-1.06V5.478c-.002-.582-.705-1.059-1.565-1.059zM58.617 16.42H22.64c-.861 0-1.566.477-1.566 1.06v6.351c0 .584.705 1.061 1.566 1.061h35.978c.86 0 1.565-.477 1.565-1.06v-6.353c-.002-.582-.705-1.059-1.565-1.059zM58.617 28.42H22.64c-.861 0-1.566.477-1.566 1.06v6.351c0 .584.705 1.061 1.566 1.061h35.978c.86 0 1.565-.477 1.565-1.06v-6.353c-.002-.582-.705-1.059-1.565-1.059z" style="fill:#d3d3d3;stroke-width:1.21546936" transform="matrix(1.4121 0 0 1 -24.8 0)"/><path d="M58.617 40.42H22.64c-.861 0-1.566.477-1.566 1.06v6.351c0 .584.705 1.061 1.566 1.061h35.978c.86 0 1.565-.477 1.565-1.06v-6.353c-.002-.582-.705-1.059-1.565-1.059zM58.617 52.42H22.64c-.861 0-1.566.477-1.566 1.06v6.351c0 .584.705 1.061 1.566 1.061h35.978c.86 0 1.565-.477 1.565-1.06v-6.353c-.002-.582-.705-1.059-1.565-1.059z" style="fill:#d3d3d3" transform="matrix(.62778 0 0 1 -8.273 0)"/><path d="M58.617 40.42H22.64c-.861 0-1.566.477-1.566 1.06v6.351c0 .584.705 1.061 1.566 1.061h35.978c.86 0 1.565-.477 1.565-1.06v-6.353c-.002-.582-.705-1.059-1.565-1.059zM58.617 52.42H22.64c-.861 0-1.566.477-1.566 1.06v6.351c0 .584.705 1.061 1.566 1.061h35.978c.86 0 1.565-.477 1.565-1.06v-6.353c-.002-.582-.705-1.059-1.565-1.059z" style="fill:#d3d3d3" transform="matrix(.62778 0 0 1 22.4 0)"/></svg>