<svg xmlns="http://www.w3.org/2000/svg" xml:space="preserve" width="512" height="512"><path d="M80.567 60.7 55.845 37.234 37.362 56.722l24.72 23.451m-16.54 57.42-40.266 1.05.7 26.845 40.267-1.05m68.577 54.487 1.684 64.56 80.533-2.1-1.684-64.56c23.675-14.56 39.226-40.928 38.449-70.711-1.16-44.481-38.166-79.592-82.633-78.432-44.481 1.16-79.593 38.152-78.432 82.633.777 29.784 17.667 55.306 42.083 68.61zm146.176-60.09 40.266-1.05-.7-26.844-40.266 1.05M162.857.892c-4.242.084-26.844.7-26.844.7l1.033 39.596 26.844-.7m100.345 10.316-19.474-18.497-23.464 24.721 19.474 18.484z" style="fill:#8b4513;fill-opacity:1;stroke-width:2.68533039;stroke-linejoin:round"/><path d="M44.4 464.184 464.5 50.917" style="fill:#a9a9a9;fill-rule:evenodd;stroke:silver;stroke-width:10;stroke-linecap:butt;stroke-linejoin:miter;stroke-opacity:1;stroke-miterlimit:4;stroke-dasharray:none"/><path d="M377.803 302.037c23.194 0 41.993-18.799 41.993-41.993 0-23.194-18.799-41.993-41.993-41.993-23.194 0-41.993 18.8-41.993 41.993 0 23.194 18.799 41.993 41.993 41.993zm0 49.622c-33.09-30.697-77.28-49.622-125.979-49.622v153.974c48.698 0 92.889 18.925 125.979 49.622 33.09-30.697 77.28-49.622 125.979-49.622V302.037c-48.698 0-92.889 18.925-125.979 49.622z" style="fill:#8b4513;fill-opacity:1;stroke-width:2.79952431;stroke-linejoin:round"/></svg>