<svg xmlns="http://www.w3.org/2000/svg" xml:space="preserve" width="512mm" height="512mm" viewBox="0 0 1935.118 1935.118"><g style="fill:#8b4513;fill-opacity:1"><path d="M289.52 38.36c0-4.092 3.061-7.29 7.291-7.29h7.024v-7.013a3.598 3.598 0 0 0-3.595-3.593h-22.605a3.598 3.598 0 0 0-3.594 3.593v21.544c0 1.255 1.009 2.277 2.251 2.277.629 0 1.236-.271 1.626-.704l3.518-3.515h8.085V38.36Z" style="fill:#8b4513;fill-opacity:1" transform="translate(-6588.624 -452.364)scale(24.23332)"/><path d="M310.11 34.43h-13.299a3.937 3.937 0 0 0-3.931 3.93v10.189a3.936 3.936 0 0 0 3.931 3.929h10.201l1.722 1.723a3.07 3.07 0 0 0 2.229.958 3.087 3.087 0 0 0 3.078-3.09V38.36a3.937 3.937 0 0 0-3.931-3.93z" style="fill:#8b4513;fill-opacity:1" transform="translate(-6588.624 -452.364)scale(24.23332)"/></g><path d="m134.303 1776.233 1669.212-1642.07" style="fill:#a9a9a9;fill-rule:evenodd;stroke:silver;stroke-width:39.7338562;stroke-linecap:butt;stroke-linejoin:miter;stroke-miterlimit:4;stroke-dasharray:none;stroke-opacity:1"/><path d="M506.44 401.925 237.015 157.95l-53.567 53.73L430.73 477.637c6.551 7.189 17.777 7.44 24.646.57l51.634-51.634c6.873-6.873 6.612-18.103-.57-24.648z" style="fill:#8b4513;fill-opacity:1" transform="matrix(.0549 2.27074 -2.35698 .05698 1877.597 694.886)"/><path d="M187.992 249.39 86.798 148.195c-6.655-6.655-17.446-6.655-24.102 0L4.992 205.9c-6.656 6.655-6.656 17.446 0 24.102l101.194 101.194c6.656 6.655 17.445 6.656 24.102 0l57.704-57.704c6.656-6.655 6.656-17.446 0-24.102z" style="fill:#8b4513;fill-opacity:1" transform="matrix(.0549 2.27074 -2.35698 .05698 1939.468 627.208)"/><path d="M415.688 71.426c-28.04-56.57-154.528-59.128-203.134-23.532-5.929-1.972-12.722-.617-17.441 4.102l-78.154 78.153 89.075 89.075 78.154-78.154a17.037 17.037 0 0 0 4.991-12.049c0-.167 29.863-27.762 29.857-27.929 13.122-8.883 38.93-20.016 55.054-17.958 16.258-1.509 48.208 2.478 41.598-11.708z" style="fill:#8b4513;fill-opacity:1" transform="matrix(.0549 2.27074 -2.35698 .05698 1917.371 594.062)"/></svg>