<svg xmlns="http://www.w3.org/2000/svg" width="937.5" height="1000"><path d="M692.729 623.873H271.307c-71.61 0-129.67-51.49-129.67-114.998s58.06-114.998 129.67-114.998h23.08c21.2-66.325 89.829-114.998 171.421-114.998 98.452 0 178.294 70.781 178.294 158.122v14.375h48.627c53.715 0 97.25 38.61 97.25 86.248 0 47.638-43.535 86.249-97.25 86.249zm11.508-228.961C682.161 295.985 583.84 221.38 465.808 221.38c-93.75 0-174.955 47.12-215.54 116.033-97.51 9.315-173.465 82.482-173.465 171.462 0 95.276 87.073 172.497 194.504 172.497h421.422c89.503 0 162.086-64.342 162.086-143.748 0-75.898-66.553-137.393-150.578-142.712z" style="fill:#050708;fill-opacity:1;stroke-width:.1639501;stroke-linejoin:round"/><path d="M60.883 14.928 17.023 58.79l143.28 143.282H48.214v62.382h218.335V46.119h-62.381V158.21Zm855.888 34.023-43.883-43.84L729.674 148.46l-.053-112.09-62.382.03.088 187.143.015 31.19 31.191-.014 187.144-.088-.029-62.381-112.091.053zm-33.183 941.567 43.5-44.22L782.64 804.195l112.086-.917-.51-62.38-187.139 1.532-31.189.256.255 31.19 1.532 187.137 62.38-.51-.918-112.088zM5.405 945.188l43.908 43.814 143.13-143.432.12 112.09 62.38-.067-.198-187.144-.033-31.19-31.19.033-187.144.198.066 62.381 112.091-.119z" style="line-height:normal;-inkscape-font-specification:&quot;Bitstream Vera Sans&quot;;text-indent:0;text-align:start;text-transform:none;stroke-width:31.19067764;fill:gray"/></svg>