<svg xmlns="http://www.w3.org/2000/svg" width="937.5" height="1000"><path d="M684.962 673.663H269.358V230.35h415.604M477.16 784.491c-22.942 0-41.56-18.62-41.56-41.56 0-22.942 18.618-41.561 41.56-41.561 22.942 0 41.561 18.62 41.561 41.56 0 22.942-18.62 41.561-41.56 41.561zM671.11 147.23h-387.9c-38.262 0-69.266 31.005-69.266 69.268V742.93c0 38.264 31.004 69.268 69.266 69.268h387.9c38.263 0 69.268-31.004 69.268-69.268V216.497c0-38.263-31.005-69.268-69.268-69.268z" style="fill:#050708;fill-opacity:1;stroke-width:.2;stroke-linejoin:round"/></svg>