<svg xmlns="http://www.w3.org/2000/svg" width="937.5" height="1000"><path d="M738.625 713.837H254.494c-82.266 0-148.965-66.698-148.965-148.963S172.228 415.91 254.494 415.91h26.515c24.355-85.915 103.195-148.963 196.929-148.963 113.102 0 204.825 91.687 204.825 204.825v18.62h55.862c61.709 0 111.722 50.015 111.722 111.723s-50.013 111.722-111.722 111.722zm13.221-296.586c-25.36-128.146-138.313-224.786-273.908-224.786-107.7 0-200.99 61.038-247.614 150.304-112.02 12.066-199.277 106.844-199.277 222.105 0 123.416 100.03 223.445 223.447 223.445h484.131c102.821 0 186.205-83.345 186.205-186.204 0-98.316-76.456-177.974-172.984-184.864z" style="fill:#050708;fill-opacity:1;stroke-width:.2;stroke-linejoin:round"/></svg>