<svg xmlns="http://www.w3.org/2000/svg" xml:space="preserve" width="64" height="64"><path d="M895.954 834.718H886.6v-37.49h9.353v37.49zm-18.725 0h-9.383v-46.863h9.383v46.863zm-18.745 0h-9.393v-37.49h9.393v37.49zm-37.49 0h-9.383v-37.49h9.382v37.49zm-18.736 0h-9.372v-37.49h9.372v37.49zm28.118-46.863h9.372v46.863h-9.372v-46.863zm64.686-9.372H793.778c-5.704 0-10.305 4.6-10.305 10.275v59.984l-18.705 18.685v15.638c0 4.24 5.092 3.237 5.092 3.237 4.862 0 5.714 4.07 5.714 5.674v6.145c0 4.38-1.313 5.463-3.508 7.207l-7.027 5.934v64.426c0 4.961 4.03 8.991 9.001 8.991h122.305c4.962 0 9.001-4.03 9.001-8.991v-186.9c0-5.704-4.6-10.305-10.284-10.305" style="fill:#333;fill-opacity:1;fill-rule:nonzero;stroke:none" transform="translate(-1656.053 -626.238)"/><path d="M2527.426 479.7h-309.591V138.084h309.59m-112.093 405.671h-85.404v-21.35h85.404m85.405-448.374h-256.213c-35.38 0-64.054 28.675-64.054 64.053v384.32c0 35.379 28.675 64.053 64.054 64.053h256.213c35.379 0 64.053-28.674 64.053-64.053v-384.32c0-35.378-28.674-64.053-64.053-64.053zM684.962 673.663H269.358V230.35h415.604M477.16 784.491c-22.942 0-41.56-18.62-41.56-41.56 0-22.942 18.618-41.561 41.56-41.561 22.942 0 41.561 18.62 41.561 41.56 0 22.942-18.62 41.561-41.56 41.561zM671.11 147.23h-387.9c-38.262 0-69.266 31.005-69.266 69.268V742.93c0 38.264 31.004 69.268 69.266 69.268h387.9c38.263 0 69.268-31.004 69.268-69.268V216.497c0-38.263-31.005-69.268-69.268-69.268z" style="fill:#050708;fill-opacity:1;stroke-width:.2;stroke-linejoin:round" transform="translate(-1656.053 -626.238)"/><path d="M51.407 18.682h-2.63V8.14h2.63v10.54zm-5.265 0h-2.638V5.505h2.638v13.177zm-5.27 0H38.23V8.14h2.64v10.54zm-10.542 0h-2.638V8.14h2.638v10.54zm-5.267 0h-2.636V8.14h2.636v10.54zm7.905-13.177h2.636v13.177h-2.636V5.505zM51.156 2.87H22.678a2.891 2.891 0 0 0-2.897 2.889v16.866l-5.26 5.253v4.397c0 1.192 1.432.91 1.432.91 1.367 0 1.607 1.145 1.607 1.596v1.728c0 1.231-.37 1.536-.987 2.026l-1.975 1.669v18.114a2.53 2.53 0 0 0 2.53 2.528h34.389a2.532 2.532 0 0 0 2.531-2.528V5.768a2.892 2.892 0 0 0-2.892-2.898" style="fill:silver;fill-opacity:1;fill-rule:nonzero;stroke:none"/><text xml:space="preserve" x="24.351" y="52.429" style="font-style:normal;font-variant:normal;font-weight:400;font-stretch:normal;font-size:39.10249949px;line-height:100%;font-family:&quot;DejaVu Sans&quot;;-inkscape-font-specification:&quot;DejaVu Sans, Normal&quot;;text-align:start;letter-spacing:0;word-spacing:0;writing-mode:lr;text-anchor:start;fill:#000;fill-opacity:1;stroke:none;stroke-width:1px;stroke-linecap:butt;stroke-linejoin:miter;stroke-opacity:1"><tspan>2</tspan></text></svg>