<?xml version="1.0" encoding="UTF-8" standalone="no"?>
<!-- Generator: Adobe Illustrator 14.0.0, SVG Export Plug-In . SVG Version: 6.00 Build 43363)  -->

<svg
   xmlns:dc="http://purl.org/dc/elements/1.1/"
   xmlns:cc="http://creativecommons.org/ns#"
   xmlns:rdf="http://www.w3.org/1999/02/22-rdf-syntax-ns#"
   xmlns:svg="http://www.w3.org/2000/svg"
   xmlns="http://www.w3.org/2000/svg"
   xmlns:sodipodi="http://sodipodi.sourceforge.net/DTD/sodipodi-0.dtd"
   xmlns:inkscape="http://www.inkscape.org/namespaces/inkscape"
   version="1.1"
   x="0px"
   y="0px"
   width="64"
   height="64"
   viewBox="0 0 64 64"
   enable-background="new 0 0 780 650"
   xml:space="preserve"
   id="svg4433"
   inkscape:version="0.91 r13725"
   sodipodi:docname="ic_storage_extern-secondary.svg"><metadata
     id="metadata5887"><rdf:RDF><cc:Work
         rdf:about=""><dc:format>image/svg+xml</dc:format><dc:type
           rdf:resource="http://purl.org/dc/dcmitype/StillImage" /></cc:Work></rdf:RDF></metadata><defs
     id="defs5885"><style
       id="style2988"
       type="text/css">
    .fil0 {fill:#006C3B}
    .fil1 {fill:#77C06C}
   </style><clipPath
       id="clipPath46"><path
         id="path48"
         inkscape:connector-curvature="0"
         d="M 0,32 32,32 32,0 0,0 0,32 z" /></clipPath><clipPath
       id="clipPath980"><path
         id="path982"
         inkscape:connector-curvature="0"
         d="m 5.38916,28.1929 21.80814,0 0,-24.32864 -21.80814,0 0,24.32864 z" /></clipPath><style
       type="text/css"
       id="style2988-2">
    .fil0 {fill:#006C3B}
    .fil1 {fill:#77C06C}
   </style><clipPath
       id="clipPath46-2"><path
         d="M 0,32 32,32 32,0 0,0 0,32 z"
         inkscape:connector-curvature="0"
         id="path48-4" /></clipPath><clipPath
       id="clipPath980-7"><path
         d="m 5.38916,28.1929 21.80814,0 0,-24.32864 -21.80814,0 0,24.32864 z"
         inkscape:connector-curvature="0"
         id="path982-0" /></clipPath><style
       type="text/css"
       id="style2988-3">
    .fil0 {fill:#006C3B}
    .fil1 {fill:#77C06C}
   </style><clipPath
       id="clipPath46-8"><path
         d="M 0,32 32,32 32,0 0,0 0,32 z"
         inkscape:connector-curvature="0"
         id="path48-1" /></clipPath><clipPath
       id="clipPath980-1"><path
         d="m 5.38916,28.1929 21.80814,0 0,-24.32864 -21.80814,0 0,24.32864 z"
         inkscape:connector-curvature="0"
         id="path982-3" /></clipPath></defs><sodipodi:namedview
     pagecolor="#ffffff"
     bordercolor="#666666"
     borderopacity="1"
     objecttolerance="10"
     gridtolerance="10"
     guidetolerance="10"
     inkscape:pageopacity="0"
     inkscape:pageshadow="2"
     inkscape:window-width="979"
     inkscape:window-height="728"
     id="namedview5883"
     showgrid="false"
     inkscape:zoom="2.3334006"
     inkscape:cx="13.041629"
     inkscape:cy="29.317509"
     inkscape:window-x="200"
     inkscape:window-y="255"
     inkscape:window-maximized="0"
     inkscape:current-layer="svg4433" /><g
     id="g17037"
     transform="translate(-1656.0525,-626.23764)"><path
       d="m 895.95371,834.71825 -9.3526,0 0,-37.49023 9.3526,0 0,37.49023 z m -18.7251,0 -9.3826,0 0,-46.8628 9.3826,0 0,46.8628 z m -18.7451,0 -9.3926,0 0,-37.49023 9.3926,0 0,37.49023 z m -37.4903,0 -9.3825,0 0,-37.49023 9.3825,0 0,37.49023 z m -18.7351,0 -9.3725,0 0,-37.49023 9.3725,0 0,37.49023 z m 28.1177,-46.8628 9.3726,0 0,46.8628 -9.3726,0 0,-46.8628 z m 64.6857,-9.37257 -101.2838,0 c -5.7037,0 -10.3048,4.60106 -10.3048,10.27473 l 0,59.98439 -18.705,18.68495 0,15.63762 c 0,4.24022 5.0923,3.23782 5.0923,3.23782 4.8617,0 5.7137,4.06977 5.7137,5.67367 l 0,6.14477 c 0,4.38055 -1.3131,5.46313 -3.5084,7.20736 l -7.027,5.93428 0,64.42507 c 0,4.96193 4.0298,8.99161 9.0017,8.99161 l 122.3044,0 c 4.9619,0 9.0016,-4.02968 9.0016,-8.99161 l 0,-186.89986 c 0,-5.70374 -4.601,-10.3048 -10.2847,-10.3048"
       inkscape:connector-curvature="0"
       id="path172"
       style="fill:#333333;fill-opacity:1;fill-rule:nonzero;stroke:none" /><path
       id="path6105"
       d="m 2527.4258,479.70094 -309.591,0 0,-341.61756 309.591,0 m -112.094,405.67085 -85.4039,0 0,-21.3511 85.4039,0 m 85.405,-448.37304 -256.213,0 c -35.379,0 -64.0539,28.67453 -64.0539,64.05329 l 0,384.31975 c 0,35.37877 28.6749,64.05329 64.0539,64.05329 l 256.213,0 c 35.379,0 64.053,-28.67452 64.053,-64.05329 l 0,-384.31975 c 0,-35.37876 -28.674,-64.05329 -64.053,-64.05329 z"
       inkscape:connector-curvature="0"
       style="fill:#050708;fill-opacity:1;stroke-width:0.2;stroke-linejoin:round" /><path
       id="path6107"
       d="m 684.96248,673.66296 -415.60484,0 0,-443.31251 415.60484,0 M 477.16006,784.49109 c -22.9418,0 -41.561,-18.6192 -41.561,-41.56061 0,-22.94141 18.6192,-41.56049 41.561,-41.56049 22.9418,0 41.561,18.61908 41.561,41.56049 0,22.94141 -18.6192,41.56061 -41.561,41.56061 z m 193.94962,-637.26174 -387.89923,0 c -38.26229,0 -69.26661,31.00419 -69.26661,69.26765 l 0,526.43348 c 0,38.26345 31.00432,69.26764 69.26661,69.26764 l 387.89923,0 c 38.26358,0 69.2679,-31.00419 69.2679,-69.26764 l 0,-526.43348 c 0,-38.26346 -31.00432,-69.26765 -69.2679,-69.26765 z"
       inkscape:connector-curvature="0"
       style="fill:#050708;fill-opacity:1;stroke-width:0.2;stroke-linejoin:round" /></g><path
     d="m 51.407057,18.681672 -2.62967,0 0,-10.54117 2.62967,0 0,10.54117 z m -5.26494,0 -2.63811,0 0,-13.17647 2.63811,0 0,13.17647 z m -5.27057,0 -2.64092,0 0,-10.54117 2.64092,0 0,10.54117 z m -10.541159,0 -2.63808,0 0,-10.54117 2.63808,0 0,10.54117 z m -5.26776,0 -2.635265,0 0,-10.54117 2.635265,0 0,10.54117 z m 7.90587,-13.17647 2.6353,0 0,13.17647 -2.6353,0 0,-13.17647 z m 18.187699,-2.63527 -28.478001,0 c -1.603711,0 -2.897405,1.29367 -2.897405,2.88895 l 0,16.86583 -5.259292,5.25365 0,4.39685 c 0,1.192222 1.431804,0.910377 1.431804,0.910377 1.366967,0 1.606523,1.144307 1.606523,1.595276 l 0,1.727707 c 0,1.231695 -0.369204,1.536091 -0.986457,2.026507 l -1.975785,1.66855 0,18.114403 c 0,1.395167 1.133061,2.528171 2.531012,2.528171 l 34.388371,0 c 1.39514,0 2.53099,-1.133004 2.53099,-2.528171 l 0,-52.55069 c 0,-1.60374 -1.29367,-2.89741 -2.89176,-2.89741"
     inkscape:connector-curvature="0"
     id="path172-9"
     style="fill:#c0c0c0;fill-opacity:1;fill-rule:nonzero;stroke:none" /><text
     xml:space="preserve"
     style="font-style:normal;font-variant:normal;font-weight:normal;font-stretch:normal;font-size:39.10249949px;line-height:100%;font-family:'DejaVu Sans';-inkscape-font-specification:'DejaVu Sans, Normal';text-align:start;letter-spacing:0px;word-spacing:0px;writing-mode:lr;text-anchor:start;fill:#000000;fill-opacity:1;stroke:none;stroke-width:1px;stroke-linecap:butt;stroke-linejoin:miter;stroke-opacity:1;"
     x="24.351227"
     y="52.428905"
     id="text17113"
     sodipodi:linespacing="100%"><tspan
       sodipodi:role="line"
       id="tspan17135">2</tspan></text>
</svg>