<svg xmlns="http://www.w3.org/2000/svg" xml:space="preserve" width="64" height="64"><path d="M48.768 18.734h-2.63V8.193h2.63v10.541zm-5.265 0h-2.638V5.558h2.638v13.176zm-5.27 0h-2.641V8.193h2.64v10.541zm-10.541 0h-2.638V8.193h2.638v10.541zm-5.268 0h-2.635V8.193h2.635v10.541zM30.33 5.558h2.635v13.176H30.33V5.558zm18.188-2.636H20.04a2.891 2.891 0 0 0-2.898 2.89v16.865l-5.26 5.254v4.397c0 1.192 1.433.91 1.433.91 1.367 0 1.606 1.144 1.606 1.595v1.728c0 1.232-.369 1.536-.986 2.026l-1.976 1.669V58.37A2.53 2.53 0 0 0 14.49 60.9h34.388a2.532 2.532 0 0 0 2.531-2.529V5.82a2.892 2.892 0 0 0-2.891-2.898" style="fill:silver;fill-opacity:1;fill-rule:nonzero;stroke:none"/><text xml:space="preserve" x="21.502" y="54.682" style="font-style:normal;font-variant:normal;font-weight:400;font-stretch:normal;font-size:39.10264587px;line-height:100%;font-family:&quot;DejaVu Sans&quot;;-inkscape-font-specification:&quot;DejaVu Sans, Normal&quot;;text-align:start;letter-spacing:0;word-spacing:0;writing-mode:lr-tb;text-anchor:start;fill:#000;fill-opacity:1;stroke:none;stroke-width:1px;stroke-linecap:butt;stroke-linejoin:miter;stroke-opacity:1"><tspan x="21.502" y="54.682">1</tspan></text></svg>