<?xml version="1.0" encoding="UTF-8" standalone="no"?>
<!-- Generator: Adobe Illustrator 14.0.0, SVG Export Plug-In . SVG Version: 6.00 Build 43363)  -->

<svg
   xmlns:dc="http://purl.org/dc/elements/1.1/"
   xmlns:cc="http://creativecommons.org/ns#"
   xmlns:rdf="http://www.w3.org/1999/02/22-rdf-syntax-ns#"
   xmlns:svg="http://www.w3.org/2000/svg"
   xmlns="http://www.w3.org/2000/svg"
   xmlns:sodipodi="http://sodipodi.sourceforge.net/DTD/sodipodi-0.dtd"
   xmlns:inkscape="http://www.inkscape.org/namespaces/inkscape"
   version="1.1"
   x="0px"
   y="0px"
   width="64"
   height="64"
   viewBox="0 0 64 64"
   enable-background="new 0 0 780 650"
   xml:space="preserve"
   id="svg4433"
   inkscape:version="0.91 r13725"
   sodipodi:docname="ic_storage_auto.svg"><metadata
     id="metadata5887"><rdf:RDF><cc:Work
         rdf:about=""><dc:format>image/svg+xml</dc:format><dc:type
           rdf:resource="http://purl.org/dc/dcmitype/StillImage" /></cc:Work></rdf:RDF></metadata><defs
     id="defs5885"><style
       id="style2988"
       type="text/css">
    .fil0 {fill:#006C3B}
    .fil1 {fill:#77C06C}
   </style></defs><sodipodi:namedview
     pagecolor="#ffffff"
     bordercolor="#666666"
     borderopacity="1"
     objecttolerance="10"
     gridtolerance="10"
     guidetolerance="10"
     inkscape:pageopacity="0"
     inkscape:pageshadow="2"
     inkscape:window-width="1871"
     inkscape:window-height="1176"
     id="namedview5883"
     showgrid="false"
     inkscape:zoom="3.2999268"
     inkscape:cx="-86.399346"
     inkscape:cy="88.154139"
     inkscape:window-x="49"
     inkscape:window-y="24"
     inkscape:window-maximized="1"
     inkscape:current-layer="svg4433" /><path
     style="fill:#556b2f;fill-opacity:1;stroke-width:0.2;stroke-linejoin:round"
     inkscape:connector-curvature="0"
     d="m 48.702303,49.332226 -33.569554,0 0,-33.569546 33.569554,0 m 13.427814,13.427818 0,-6.713909 -6.713907,0 0,-6.713909 c 0,-3.706078 -3.007832,-6.7139101 -6.713907,-6.7139101 l -6.713917,0 0,-6.7139089 -6.713907,0 0,6.7139089 -6.713907,0 0,-6.7139089 -6.713906,0 0,6.7139089 -6.713917,0 c -3.709428,0 -6.7139072,3.0078321 -6.7139072,6.7139101 l 0,6.713909 -6.713907,0 0,6.713909 6.713907,0 0,6.713909 -6.713907,0 0,6.713909 6.713907,0 0,6.71391 c 0,3.709435 3.0044792,6.713909 6.7139072,6.713909 l 6.713917,0 0,6.713907 6.713906,0 0,-6.713907 6.713907,0 0,6.713907 6.713907,0 0,-6.713907 6.713917,0 c 3.706075,0 6.713907,-3.004474 6.713907,-6.713909 l 0,-6.71391 6.713907,0 0,-6.713909 -6.713907,0 0,-6.713909 m -20.141731,6.713909 -6.713907,0 0,-6.713909 6.713907,0 m 6.713907,-6.713909 -20.14172,0 0,20.141727 20.14172,0 0,-20.141727 z"
     id="path8880" /></svg>