<?xml version="1.0" encoding="UTF-8" standalone="no"?>
<!-- Generator: Adobe Illustrator 14.0.0, SVG Export Plug-In . SVG Version: 6.00 Build 43363)  -->

<svg
   xmlns:dc="http://purl.org/dc/elements/1.1/"
   xmlns:cc="http://creativecommons.org/ns#"
   xmlns:rdf="http://www.w3.org/1999/02/22-rdf-syntax-ns#"
   xmlns:svg="http://www.w3.org/2000/svg"
   xmlns="http://www.w3.org/2000/svg"
   xmlns:sodipodi="http://sodipodi.sourceforge.net/DTD/sodipodi-0.dtd"
   xmlns:inkscape="http://www.inkscape.org/namespaces/inkscape"
   version="1.1"
   x="0px"
   y="0px"
   width="64"
   height="64"
   viewBox="0 0 64 64"
   enable-background="new 0 0 780 650"
   xml:space="preserve"
   id="svg4433"
   inkscape:version="0.91 r13725"
   sodipodi:docname="ic_storage_extern_public.svg"><metadata
     id="metadata5887"><rdf:RDF><cc:Work
         rdf:about=""><dc:format>image/svg+xml</dc:format><dc:type
           rdf:resource="http://purl.org/dc/dcmitype/StillImage" /></cc:Work></rdf:RDF></metadata><defs
     id="defs5885"><style
       id="style2988"
       type="text/css">
    .fil0 {fill:#006C3B}
    .fil1 {fill:#77C06C}
   </style><style
       type="text/css"
       id="style2988-1">
    .fil0 {fill:#006C3B}
    .fil1 {fill:#77C06C}
   </style><clipPath
       id="clipPath46"><path
         d="M 0,32 32,32 32,0 0,0 0,32 z"
         inkscape:connector-curvature="0"
         id="path48" /></clipPath><clipPath
       id="clipPath980"><path
         d="m 5.38916,28.1929 21.80814,0 0,-24.32864 -21.80814,0 0,24.32864 z"
         inkscape:connector-curvature="0"
         id="path982" /></clipPath></defs><sodipodi:namedview
     pagecolor="#ffffff"
     bordercolor="#666666"
     borderopacity="1"
     objecttolerance="10"
     gridtolerance="10"
     guidetolerance="10"
     inkscape:pageopacity="0"
     inkscape:pageshadow="2"
     inkscape:window-width="1871"
     inkscape:window-height="1176"
     id="namedview5883"
     showgrid="false"
     inkscape:zoom="3.6203867"
     inkscape:cx="28.472391"
     inkscape:cy="39.349041"
     inkscape:window-x="49"
     inkscape:window-y="24"
     inkscape:window-maximized="1"
     inkscape:current-layer="svg4433" /><path
     d="m 49.934836,18.792351 -2.629675,0 0,-10.5411704 2.629675,0 0,10.5411704 z m -5.264945,0 -2.638108,0 0,-13.1764604 2.638108,0 0,13.1764604 z m -5.270566,0 -2.640921,0 0,-10.5411704 2.640921,0 0,10.5411704 z m -10.541162,0 -2.638081,0 0,-10.5411704 2.638081,0 0,10.5411704 z m -5.267756,0 -2.63527,0 0,-10.5411704 2.63527,0 0,10.5411704 z m 7.905865,-13.1764604 2.635297,0 0,13.1764604 -2.635297,0 0,-13.1764604 z m 18.187703,-2.63527 -28.478005,0 c -1.603711,0 -2.897405,1.29366 -2.897405,2.88894 l 0,16.8658404 -5.259292,5.25364 0,4.39685 c 0,1.19222 1.431804,0.91038 1.431804,0.91038 1.366967,0 1.606523,1.14431 1.606523,1.59527 l 0,1.72771 c 0,1.2317 -0.369204,1.53609 -0.986457,2.02651 l -1.975785,1.66855 0,18.1144 c 0,1.39517 1.133061,2.52817 2.531012,2.52817 l 34.388374,0 c 1.39514,0 2.530984,-1.133 2.530984,-2.52817 l 0,-52.5506904 c 0,-1.60374 -1.293665,-2.8974 -2.891753,-2.8974"
     inkscape:connector-curvature="0"
     id="path172"
     style="fill:#c0c0c0;fill-opacity:1;fill-rule:nonzero;stroke:none" /><polygon
     style="fill:#d6d6d6"
     points="113.152,769.956 121.864,765.097 1342.547,765.068 1342.547,765.87 122.073,765.9 112.35,771.322 112.35,765.899 85.353,765.87 85.354,765.068 113.152,765.098 "
     id="polygon17675"
     transform="translate(-707.24997,-530.80965)" /><g
     id="g18455"
     transform="matrix(0.8892205,0,0,0.8892205,570.83098,120.73559)"><path
       id="path17727"
       d="m -604.12897,-101.75765 c -10.834,0 -18,9.224 -18,13.713 0,4.494 7.166,13.714 18,13.714 10.834,0 18,-9.22 18,-13.714 0,-4.494 -7.166,-13.713 -18,-13.713 z m 0,22.709 c -4.975,0 -8.995,-4.022 -8.995,-8.996 0,-4.967 4.021,-8.996 8.995,-8.996 4.968,0 8.996,4.029 8.996,8.996 0,4.969 -4.028,8.996 -8.996,8.996 z"
       inkscape:connector-curvature="0"
       style="fill:#1d1d1b" /><circle
       id="circle17729"
       r="3.773"
       cy="-88.045639"
       cx="-604.12897"
       style="fill:#1d1d1b" /></g></svg>