<svg xmlns="http://www.w3.org/2000/svg" xml:space="preserve" width="64" height="64"><path d="M49.935 18.792h-2.63V8.252h2.63v10.54zm-5.265 0h-2.638V5.616h2.638v13.176zm-5.27 0h-2.642V8.252H39.4v10.54zm-10.542 0H26.22V8.252h2.638v10.54zm-5.268 0h-2.635V8.252h2.635v10.54zm7.906-13.176h2.636v13.176h-2.636V5.616zM49.684 2.98H21.206a2.891 2.891 0 0 0-2.897 2.889v16.865l-5.26 5.254v4.397c0 1.192 1.432.91 1.432.91 1.367 0 1.607 1.145 1.607 1.596v1.727c0 1.232-.37 1.536-.987 2.027l-1.976 1.668V58.43a2.53 2.53 0 0 0 2.531 2.528h34.389a2.532 2.532 0 0 0 2.53-2.528V5.878a2.892 2.892 0 0 0-2.891-2.897" style="fill:silver;fill-opacity:1;fill-rule:nonzero;stroke:none"/><path d="m113.152 769.956 8.712-4.859 1220.683-.029v.802l-1220.474.03-9.723 5.422v-5.423l-26.997-.029.001-.802 27.798.03z" style="fill:#d6d6d6" transform="translate(-707.25 -530.81)"/><g transform="translate(570.831 120.736)scale(.88922)"><path d="M-604.129-101.758c-10.834 0-18 9.224-18 13.713 0 4.494 7.166 13.714 18 13.714s18-9.22 18-13.714-7.166-13.713-18-13.713zm0 22.71a8.987 8.987 0 0 1-8.995-8.997 8.992 8.992 0 0 1 8.995-8.996 8.997 8.997 0 0 1 0 17.992z" style="fill:#1d1d1b"/><circle cx="-604.129" cy="-88.046" r="3.773" style="fill:#1d1d1b"/></g></svg>