<svg xmlns="http://www.w3.org/2000/svg" xml:space="preserve" width="64" height="64"><path d="M48.702 49.332h-33.57v-33.57h33.57M62.13 29.19v-6.713h-6.714v-6.714a6.716 6.716 0 0 0-6.714-6.714h-6.714V2.335h-6.714v6.714h-6.713V2.335h-6.714v6.714h-6.714a6.714 6.714 0 0 0-6.714 6.714v6.714H1.705v6.713h6.714v6.714H1.705v6.714h6.714v6.714a6.712 6.712 0 0 0 6.714 6.714h6.714v6.714h6.714v-6.714h6.713v6.714h6.714v-6.714h6.714a6.714 6.714 0 0 0 6.714-6.714v-6.714h6.714v-6.714h-6.714V29.19m-20.142 6.714h-6.713V29.19h6.713m6.714-6.713H21.847v20.141h20.141V22.477z" style="fill:silver;fill-opacity:1;stroke-width:.2;stroke-linejoin:round"/></svg>