<?xml version="1.0" encoding="UTF-8" standalone="no"?>
<svg
   xmlns:dc="http://purl.org/dc/elements/1.1/"
   xmlns:cc="http://creativecommons.org/ns#"
   xmlns:rdf="http://www.w3.org/1999/02/22-rdf-syntax-ns#"
   xmlns:svg="http://www.w3.org/2000/svg"
   xmlns="http://www.w3.org/2000/svg"
   xmlns:sodipodi="http://sodipodi.sourceforge.net/DTD/sodipodi-0.dtd"
   xmlns:inkscape="http://www.inkscape.org/namespaces/inkscape"
   width="200px"
   height="200px"
   viewBox="0 0 200 200"
   version="1.1"
   id="svg2"
   inkscape:version="0.91 r13725"
   sodipodi:docname="common (4th copy).svg">
  <metadata
     id="metadata12">
    <rdf:RDF>
      <cc:Work
         rdf:about="">
        <dc:format>image/svg+xml</dc:format>
        <dc:type
           rdf:resource="http://purl.org/dc/dcmitype/StillImage" />
      </cc:Work>
    </rdf:RDF>
  </metadata>
  <sodipodi:namedview
     pagecolor="#ffffff"
     bordercolor="#666666"
     borderopacity="1"
     objecttolerance="10"
     gridtolerance="10"
     guidetolerance="10"
     inkscape:pageopacity="0"
     inkscape:pageshadow="2"
     inkscape:window-width="1871"
     inkscape:window-height="1176"
     id="namedview10"
     showgrid="false"
     inkscape:zoom="1.18"
     inkscape:cx="213.36892"
     inkscape:cy="-181.52074"
     inkscape:window-x="49"
     inkscape:window-y="24"
     inkscape:window-maximized="1"
     inkscape:current-layer="svg2" />
  <title
     id="title4">Pinboard</title>
  <description>Created with Sketch (http://www.bohemiancoding.com/sketch)</description>
  <defs
     id="defs6" />
  <path
     style="fill:#808080;fill-opacity:1;stroke-width:0.2;stroke-linejoin:round"
     inkscape:connector-curvature="0"
     d="m 89.541928,74.009176 18.101732,0 0,-18.101735 -18.101732,0 M 98.5928,173.56827 c -39.923381,0 -72.406945,-32.48275 -72.406945,-72.40694 0,-39.922566 32.483564,-72.406492 72.406945,-72.406492 39.92337,0 72.40694,32.483926 72.40694,72.406492 0,39.92419 -32.48357,72.40694 -72.40694,72.40694 z m 0,-162.915167 c -49.987946,0 -90.5086805,40.521187 -90.5086805,90.508227 0,49.98885 40.5207345,90.50868 90.5086805,90.50868 49.98794,0 90.50867,-40.51983 90.50867,-90.50868 0,-49.98704 -40.52073,-90.508227 -90.50867,-90.508227 z m -9.050872,135.762567 18.101732,0 0,-54.305214 -18.101732,0 0,54.305214 z"
     id="path6145" />
</svg>
