<svg xmlns="http://www.w3.org/2000/svg" xml:space="preserve" width="64" height="48" viewBox="4 4 64 48"><defs><clipPath id="a" clipPathUnits="userSpaceOnUse"><path d="M0 0h7620v5151H0z"/></clipPath></defs><g class="Slide" clip-path="url(#a)" style="fill-rule:evenodd;stroke-width:28.22200012;stroke-linejoin:round" transform="matrix(.0053 0 0 .0053 -233.843 135.006)"><g class="Page"><path d="M5191 2944h-184c-27 0-49 9-66 26-18 17-26 39-26 66v920c0 126-45 235-135 325s-199 135-325 135H2063c-127 0-235-45-325-135s-135-199-135-325V1564c0-127 45-235 135-325s198-135 325-135h2024c27 0 49-9 66-26s26-39 26-66V828c0-27-9-49-26-66s-39-26-66-26H2063c-228 0-423 81-585 243s-243 357-243 585v2392c0 228 81 423 243 585s357 243 585 243h2392c228 0 423-81 585-243s243-357 243-585v-920c0-27-9-49-26-66s-39-26-66-26z" class="com.sun.star.drawing.ClosedBezierShape" style="fill:#09f;stroke:none"/><path d="M6332 423c-36-37-80-55-129-55H4731c-50 0-93 18-130 55-36 36-54 79-54 129s18 93 54 129l506 506-1874 1875c-19 19-29 41-29 66s10 47 29 66l328 328c19 19 41 29 66 29s47-10 66-29l1874-1875 506 506c37 37 80 55 130 55s93-18 129-55c37-36 55-79 55-129V552c0-50-19-93-55-129z" class="com.sun.star.drawing.ClosedBezierShape" style="fill:#09f;stroke:none"/></g></g><path d="M39.303 185.848h5.221l-5.221-5.223z" style="fill:#404040" transform="translate(-316.472 -32.558)"/><path d="M41.396 170.571h15.645v10.615H41.396z" style="fill:#404040" transform="rotate(-45.001 -148.328 541.612)"/><path d="m62.22 167.612-4.731-4.73c-.759-.763-2.046-.728-2.871.096l-1.796 1.796 7.506 7.504 1.795-1.792c.818-.821.861-2.11.097-2.874zM56.007 199.121H32.122c-3.893 0-7.058-3.167-7.058-7.057v-23.887c0-3.89 3.165-7.057 7.058-7.057h8.324a2.714 2.714 0 1 1 0 5.43h-8.324a1.65 1.65 0 0 0-1.629 1.627v23.887a1.65 1.65 0 0 0 1.629 1.627h23.885a1.65 1.65 0 0 0 1.629-1.627v-7.961a2.713 2.713 0 1 1 5.428 0v7.961c0 3.89-3.166 7.057-7.057 7.057z" style="fill:#404040" transform="translate(-316.472 -32.558)"/><path d="M-354.384 135.2v2h3.586l-9.83 9.828 1.415 1.414 9.829-9.828v3.585h2v-7m-2 16h-14v-14h7v-2h-7a2 2 0 0 0-2 2v14a2 2 0 0 0 2 2h14a2 2 0 0 0 2-2v-7h-2v7z" style="fill:#050708;fill-opacity:1;stroke-width:.2;stroke-linejoin:round"/><g style="fill:#36c"><path d="M-32.61 73.644a4.79 4.79 0 0 0-3.914-2.026l-26.368.024c-2.646 0-4.794 2.124-4.794 4.77v23.971c0 2.649 2.148 4.77 4.794 4.77l26.368.024a4.789 4.789 0 0 0 3.914-2.022l10.468-14.757-10.468-14.754Z" style="fill:#36c;fill-opacity:.99215686;stroke-width:.2;stroke-linejoin:round" transform="matrix(1.25454 0 0 1.25454 91.263 -82.501)"/></g><g transform="matrix(2.08444 0 0 2.08444 -24.632 47.019)"><circle cx="25.153" cy="-57.424" r="11.441" style="opacity:.98999999;fill:#36c;fill-opacity:1;fill-rule:evenodd;stroke:none;stroke-width:2;stroke-linecap:round;stroke-linejoin:round;stroke-miterlimit:4;stroke-dasharray:none;stroke-dashoffset:0;stroke-opacity:1"/><g style="fill:#fff"><path d="M1267.69 429.467c-3.598-3.604-9.449-3.604-13.049.002l-3.301 3.299a12.59 12.59 0 0 1 5.896 1.271l.98-.979a4.167 4.167 0 0 1 5.881-.001 4.171 4.171 0 0 1 0 5.887l-4.73 4.729c-1.614 1.621-4.262 1.62-5.883-.001a2.553 2.553 0 0 0-3.584.001 2.546 2.546 0 0 0 0 3.585c3.604 3.604 9.451 3.604 13.055 0l4.729-4.729c3.597-3.611 3.597-9.471.01-13.064z" style="fill:#fff" transform="translate(-559.556 -263.805)scale(.46608)"/><path d="M1250.553 452.48a4.17 4.17 0 0 1-5.879 0 4.166 4.166 0 0 1 0-5.886l4.729-4.729a4.166 4.166 0 0 1 5.883 0 2.534 2.534 0 1 0 3.584-3.585c-3.6-3.603-9.439-3.602-13.053.001l-4.729 4.729c-3.605 3.603-3.605 9.45 0 13.054 3.6 3.599 9.439 3.599 13.051 0l3.299-3.304c-2.02.062-4.047-.36-5.9-1.271l-.985.991z" style="fill:#fff" transform="translate(-559.556 -263.805)scale(.46608)"/></g></g><path d="M-32.61 73.644a4.79 4.79 0 0 0-3.914-2.026l-26.368.024c-2.646 0-4.794 2.124-4.794 4.77v23.971c0 2.649 2.148 4.77 4.794 4.77l26.368.024a4.789 4.789 0 0 0 3.914-2.022l10.468-14.757-10.468-14.754Z" style="fill:#36c;fill-opacity:.99215686;stroke-width:.2;stroke-linejoin:round" transform="matrix(1.25454 0 0 1.25454 89.23 -134.162)"/><path d="M-49.196 76.238c-6.95 0-12.51 5.638-12.51 12.51 0 6.946 5.56 12.587 12.51 12.587s12.588-5.637 12.588-12.587c-.001-6.868-5.639-12.51-12.588-12.51zm10.501 12.512c-1.389-.31-2.696-.54-4.015-.54-1.08 0-2.238.155-3.388.386-.242-.54-.473-1.16-.703-1.699 2.164-.996 4.33-2.396 6.258-4.014 1.154 1.776 1.848 3.782 1.848 5.867zm-10.501-10.424c2.781 0 5.33 1.08 7.26 2.933a23.111 23.111 0 0 1-5.793 3.709 40.218 40.218 0 0 0-4.168-6.257c.925-.228 1.774-.385 2.7-.385zm-4.788 1.158c1.699 2.01 3.166 4.101 4.33 6.258a25.07 25.07 0 0 1-8.495 1.467h-1.388a10.668 10.668 0 0 1 5.553-7.725zm-5.636 9.804c.54 0 1.005.081 1.467.081 3.166 0 6.331-.615 9.421-1.698.155.464.386.999.618 1.467-3.55 1.232-6.642 3.546-8.726 6.715-1.7-1.776-2.704-4.093-2.78-6.565zm10.424 9.965c-2.162 0-4.246-.698-6.1-1.93 1.932-2.935 4.634-5.098 7.878-6.178a34.518 34.518 0 0 1 1.552 7.565c-1.091.389-2.172.543-3.33.543zm5.33-1.47c-.31-2.467-.772-4.854-1.546-7.172a16.583 16.583 0 0 1 2.696-.232c1.236 0 2.47.148 3.783.463-.611 2.926-2.387 5.474-4.934 6.942z" style="fill:#fff" transform="matrix(1.25454 0 0 1.25454 89.23 -134.162)"/><g style="fill:#fff"><path d="M1267.69 429.467c-3.598-3.604-9.449-3.604-13.049.002l-3.301 3.299a12.59 12.59 0 0 1 5.896 1.271l.98-.979a4.167 4.167 0 0 1 5.881-.001 4.171 4.171 0 0 1 0 5.887l-4.73 4.729c-1.614 1.621-4.262 1.62-5.883-.001a2.553 2.553 0 0 0-3.584.001 2.546 2.546 0 0 0 0 3.585c3.604 3.604 9.451 3.604 13.055 0l4.729-4.729c3.597-3.611 3.597-9.471.01-13.064z" style="fill:#fff" transform="translate(-1369.76 -464.421)scale(1.11441)"/><path d="M1250.553 452.48a4.17 4.17 0 0 1-5.879 0 4.166 4.166 0 0 1 0-5.886l4.729-4.729a4.166 4.166 0 0 1 5.883 0 2.534 2.534 0 1 0 3.584-3.585c-3.6-3.603-9.439-3.602-13.053.001l-4.729 4.729c-3.605 3.603-3.605 9.45 0 13.054 3.6 3.599 9.439 3.599 13.051 0l3.299-3.304c-2.02.062-4.047-.36-5.9-1.271l-.985.991z" style="fill:#fff" transform="translate(-1369.76 -464.421)scale(1.11441)"/></g><g transform="matrix(2.17333 0 0 2.17333 45.998 -107.137)"><circle cx="16.051" cy="15.949" r="11.441" style="opacity:.98999999;fill:#36c;fill-opacity:1;fill-rule:evenodd;stroke:none;stroke-width:2;stroke-linecap:round;stroke-linejoin:round;stroke-miterlimit:4;stroke-dasharray:none;stroke-dashoffset:0;stroke-opacity:1"/><g transform="translate(6.103 6.158)scale(.02405)"><path d="M250.877 755.91c2.55-73.662-43.23-144.975-62.127-176.173-35.678-58.903-94.85-119.215-137.5-175-9.596-12.552-14.786-49.151 3.75-68.75 18.609-19.676 47.526-18.971 65-8.75 48.776 28.529 65.847 50.928 100 97.5 11.68 15.928 34.944 62.726 35 98.75v-408.75c0-36.53 34.4-62.204 70-60 35.6 2.203 64.769 33.137 65 61.25l2.5 303.75c-1.1-71.732 6.286-115.569 39.268-115.67 32.967-.1 46.789 48.063 48.232 118.17-1.443-73.023 9.456-93.69 43.964-94.268 34.509-.578 44.016 46.856 44.786 139.268.063-72.828 17.524-104.226 33.75-105 16.226-.775 56.873 32.177 57.134 106.605L660 573.487c.112 32.014-46.568 56.55-46.844 88.598l-.808 93.977" style="fill:#fff;fill-rule:evenodd;stroke:none;stroke-width:37.5;stroke-linejoin:round;stroke-miterlimit:4;stroke-opacity:1" transform="rotate(-17.448 368.814 435.146)"/></g></g></svg>