<?xml version="1.0" encoding="UTF-8" standalone="no"?>
<!-- Created with Inkscape (http://www.inkscape.org/) -->

<svg
   xmlns:dc="http://purl.org/dc/elements/1.1/"
   xmlns:cc="http://creativecommons.org/ns#"
   xmlns:rdf="http://www.w3.org/1999/02/22-rdf-syntax-ns#"
   xmlns:svg="http://www.w3.org/2000/svg"
   xmlns="http://www.w3.org/2000/svg"
   xmlns:sodipodi="http://sodipodi.sourceforge.net/DTD/sodipodi-0.dtd"
   xmlns:inkscape="http://www.inkscape.org/namespaces/inkscape"
   width="724.17578"
   height="806.75726"
   id="svg11699"
   version="1.1"
   inkscape:version="0.48.5 r10040"
   sodipodi:docname="role1.svg">
  <defs
     id="defs11701" />
  <sodipodi:namedview
     id="base"
     pagecolor="#ffffff"
     bordercolor="#666666"
     borderopacity="1.0"
     inkscape:pageopacity="0.0"
     inkscape:pageshadow="2"
     inkscape:zoom="0.35"
     inkscape:cx="487.98846"
     inkscape:cy="117.66432"
     inkscape:document-units="px"
     inkscape:current-layer="layer1"
     showgrid="false"
     fit-margin-top="0"
     fit-margin-left="0"
     fit-margin-right="0"
     fit-margin-bottom="0"
     inkscape:window-width="725"
     inkscape:window-height="688"
     inkscape:window-x="59"
     inkscape:window-y="34"
     inkscape:window-maximized="0" />
  <metadata
     id="metadata11704">
    <rdf:RDF>
      <cc:Work
         rdf:about="">
        <dc:format>image/svg+xml</dc:format>
        <dc:type
           rdf:resource="http://purl.org/dc/dcmitype/StillImage" />
        <dc:title />
      </cc:Work>
    </rdf:RDF>
  </metadata>
  <g
     inkscape:label="Layer 1"
     inkscape:groupmode="layer"
     id="layer1"
     transform="translate(1193.5165,499.58787)">
    <path
       style="fill:#888a85;fill-opacity:1;fill-rule:evenodd;stroke:none"
       d="M 573.125 19.75 C 572.79106 19.779591 572.47366 19.852181 572.15625 19.96875 C 551.84232 27.42915 453.59128 118.37329 431.21875 131.90625 C 381.88491 161.74787 330.72038 184.82539 300.8125 188.21875 C 236.99454 195.45957 231.90981 191.28917 181.125 192.78125 C 130.3401 194.27333 38.429 176.43088 32.625 192.84375 C 26.8211 209.25664 31.1826 258.47835 38.4375 283.84375 C 45.6925 309.20912 67.1451 382.48553 88.625 423.59375 C 94.622 435.07094 121.6452 488.98112 158.1875 549.09375 C 194.72978 609.20636 251.0617 662.85292 270.46875 682.25 C 309.28288 721.0441 363.16654 754.8675 375.5 759.34375 C 400.16692 768.29623 479.55892 795.63164 530.34375 779.21875 C 581.1286 762.80586 625.10227 726.13164 630.90625 709.71875 C 633.80823 701.51231 660.59358 643.53204 671.9375 577 C 683.28141 510.46796 679.16974 435.3777 677.71875 418.21875 C 674.81675 383.9009 667.56323 260.23951 657.40625 222.9375 C 647.408 186.21831 594.16295 17.885796 573.125 19.75 z M 500.8125 231.6875 C 538.00816 231.37361 580.11728 266.00367 583.03125 267.46875 L 443.65625 327.875 C 445.9304 253.31123 471.88254 231.93164 500.8125 231.6875 z M 304.4375 330.25 C 341.63316 329.93611 383.71103 364.56617 386.625 366.03125 L 247.25 426.4375 C 249.52415 351.87373 275.50754 330.49414 304.4375 330.25 z M 595.90625 486.875 C 597.25185 486.79837 598.62405 486.91769 600.03125 487.25 C 618.11118 491.51953 613.01308 550.96997 602.34375 586.0625 C 585.73715 640.68335 553.5678 669.96514 524.96875 676.71875 C 498.53877 682.9601 468.88114 679.94211 423.21875 650.03125 C 357.75115 607.14719 324.90313 564.97554 339.65625 557.46875 C 359.04863 547.60142 442.29363 596.90322 500.375 583.1875 C 552.73039 570.82395 568.54563 488.43309 595.90625 486.875 z "
       transform="translate(-1193.5165,-499.58787)"
       id="path2202" />
  </g>
</svg>
