<?xml version="1.0" encoding="UTF-8" standalone="no"?><!-- Created with Inkscape (http://www.inkscape.org/) -->

<svg xmlns:dc="http://purl.org/dc/elements/1.1/" xmlns:cc="http://creativecommons.org/ns#" xmlns:rdf="http://www.w3.org/1999/02/22-rdf-syntax-ns#" xmlns:svg="http://www.w3.org/2000/svg" xmlns="http://www.w3.org/2000/svg"
	xmlns:sodipodi="http://sodipodi.sourceforge.net/DTD/sodipodi-0.dtd" xmlns:inkscape="http://www.inkscape.org/namespaces/inkscape" width="800" height="800" id="svg11699" version="1.1" inkscape:version="0.92.3 (2405546, 2018-03-11)"
	sodipodi:docname="role2.svg">
	<defs id="defs11701" />
	<sodipodi:namedview id="base" pagecolor="#ffffff" bordercolor="#666666" borderopacity="1.0" inkscape:pageopacity="0.0" inkscape:pageshadow="2" inkscape:zoom="0.35" inkscape:cx="0.84560286" inkscape:cy="117.66432" inkscape:document-units="px"
		inkscape:current-layer="layer1" showgrid="false" fit-margin-top="0" fit-margin-left="0" fit-margin-right="0" fit-margin-bottom="0" inkscape:window-width="785" inkscape:window-height="688" inkscape:window-x="51" inkscape:window-y="27"
		inkscape:window-maximized="0" />
	<metadata id="metadata11704">
		<rdf:RDF>
			<cc:Work rdf:about="">
				<dc:format>image/svg+xml</dc:format>
				<dc:type rdf:resource="http://purl.org/dc/dcmitype/StillImage" />
				<dc:title></dc:title>
			</cc:Work>
		</rdf:RDF>
	</metadata>
	<g inkscape:label="Layer 1" inkscape:groupmode="layer" id="layer1" transform="translate(1193.5165,492.83061)">
		<path style="fill:#888a85;fill-opacity:1;fill-rule:evenodd;stroke:none"
			d="m -832.29515,-447.65392 c -0.25068,3.2e-4 -0.50461,0.0215 -0.75,0.0625 -15.70519,2.62346 -53.10902,27.95748 -70.15625,45.03125 -17.04721,17.07376 -66.0766,66.77815 -89.375,102.25 -6.5048,9.90354 -37.5597,55.51118 -69.3438,111.5 -31.7841,55.98882 -49.6037,124.978798 -56.4687,149.156248 -13.73,48.3549103 -16.7884,106.61754 -14.875,118.5 3.8267,23.764922 17.3286,99.591782 53.0625,133.062502 35.7339,33.47073 84.63855,52.46721 100.34375,49.84375 7.8526,-1.31174 66.13665,-5.49529 124.375,-25.90625 58.23835,-20.41095 116.42883,-57.03645 129.5,-65.8125 26.14228,-17.55211 121.76505,-78.208722 147.0625,-102.906252 25.29747,-24.69752 139.32177,-145.47758 124.3125,-158.46875 -15.00925,-12.991148 -131.46958,-51.488238 -152.25,-63.437498 -45.82307,-26.34938 -87.03261,-57.16243 -103.0625,-79.65625 -34.20486,-47.99769 -33.16285,-53.94165 -56.96875,-94.03125 -23.43394,-39.46323 -49.61351,-119.20766 -65.40625,-119.1875 z m -30.3125,256.78125 c 67.28856,-0.74219 48.56758,99.839988 48.75,104.156248 l -110.375,-85.031248 c 25.98025,-13.3936 46.09687,-18.95373 61.625,-19.125 z m 166.25,113.843748 c 67.28855,-0.74219 48.53632,99.87123 48.71875,104.1875 l -110.34375,-85.03125 c 25.98025,-13.3936 46.09687,-18.98498 61.625,-19.15625 z m -256.5,83.6875003 c 31.80696,-0.0534 55.51628,9.7493497 68.625,23.1249997 16.15265,16.48159 26.57493,38.95271 23.125,83.562502 -4.94618,63.95843 -23.32134,104.2299 -35.4375,96.625 -15.92617,-9.99635 -13.69115,-89.24953 -49.1875,-125.468752 -33.57055,-34.25421 -109.26575,-9.09531 -116.68755,-33.4375 -4.4698,-14.66022 43.5368,-34.58202 75.1563,-40.84375 12.30376,-2.4365697 23.80393,-3.5446997 34.40625,-3.5624997 z"
			id="path2995" inkscape:connector-curvature="0" />
	</g>
</svg>
