<svg xmlns="http://www.w3.org/2000/svg" width="360" height="360" version="1.0"><path d="M167.844 15.625c-.1 0-.215.012-.313.031-6.27 1.232-21.193 13.138-28 21.157-6.806 8.018-26.385 31.34-35.687 48-2.598 4.65-14.997 26.079-27.688 52.375-12.69 26.295-19.821 58.707-22.562 70.062-5.482 22.71-6.702 50.076-5.938 55.656 1.528 11.162 6.92 46.75 21.188 62.469 14.268 15.72 33.823 24.67 40.094 23.438 3.135-.617 26.37-2.602 49.625-12.188 23.253-9.586 46.5-26.784 51.718-30.906 10.438-8.244 48.618-36.745 58.719-48.344 10.1-11.6 55.65-68.305 49.656-74.406-5.993-6.102-52.515-24.17-60.812-29.781-18.297-12.376-34.756-26.874-41.156-37.438-13.658-22.543-13.214-25.328-22.72-44.156-9.356-18.535-19.818-55.978-26.124-55.969zM155.75 136.219c26.867-.349 19.365 46.91 19.438 48.937l-44.063-39.969c10.374-6.29 18.425-8.888 24.625-8.968zm66.375 53.469c26.867-.35 19.365 46.91 19.438 48.937L197.5 198.688c10.374-6.29 18.425-8.92 24.625-9zM119.688 229c12.7-.025 22.172 4.562 27.406 10.844 6.45 7.74 10.627 18.298 9.25 39.25-1.975 30.038-9.319 48.946-14.156 45.375-6.36-4.695-5.484-41.896-19.657-58.906-13.404-16.088-43.599-4.287-46.562-15.72-1.785-6.885 17.375-16.246 30-19.187 4.912-1.144 9.485-1.648 13.719-1.656z" style="fill:#a40000;fill-opacity:1;fill-rule:evenodd;stroke:none"/></svg>