<svg xmlns="http://www.w3.org/2000/svg" width="128" height="128"><g style="fill:#881ca8;stroke:#4c0064"><path d="M126.556 1020.35a62.543 62.55 0 0 1-125.087 0 62.543 62.55 0 1 1 125.087 0z" style="fill:#881ca8;fill-opacity:1;fill-rule:nonzero;stroke:#4c0064;stroke-width:2.69847;stroke-linecap:butt;stroke-linejoin:round;stroke-miterlimit:4;stroke-dasharray:none;stroke-dashoffset:0;stroke-opacity:1" transform="translate(-.012 -956.329)"/></g><path d="M20.515 61.91q-.02-2.846 2.031-5.037l4.158-4.216q2.107-2.136 5.065-2.156 3.015-.02 5.039 2.087L53.33 68.83l-.27-39.298q-.02-2.903 2.061-4.732 2.081-1.828 5.04-1.849l7.145-.049q2.958-.02 5.064 1.78t2.126 4.702l.27 39.298 16.299-16.468q1.995-2.135 5.01-2.156 3.013-.02 5.038 2.087l4.215 4.158q2.136 2.107 2.156 5.01.02 2.958-2.087 5.094l-36.09 36.589q-1.94 2.079-5.01 2.1-3.014.02-5.093-2.03l-36.59-36.09q-2.08-2.164-2.1-5.066z" style="fill:#fff;stroke-width:.0558224"/></svg>