<svg xmlns="http://www.w3.org/2000/svg" width="400" height="400" version="1.0" viewBox="0 0 442.857 442.857"><defs><filter id="a" width="1.072" height="1.072" x="-.036" y="-.036"><feGaussianBlur stdDeviation="5.79"/></filter></defs><path d="M139.038 29.085c-36.502 37.181-73.854 73.83-110.594 110.906v163.063c37.211 37.006 74.337 74.101 111.281 111.375h163.407c36.944-37.274 74.07-74.369 111.28-111.375V139.99c-37.038-37.26-74.409-74.193-111.342-111.56H139.632l-.594.656zm154.937 21.344 98.47 98.468V293.93l-98.5 98.5H148.912l-98.5-98.5V148.897l98.469-98.468h145.093z" style="font-size:medium;font-style:normal;font-variant:normal;font-weight:400;font-stretch:normal;text-indent:0;text-align:start;text-decoration:none;line-height:normal;letter-spacing:normal;word-spacing:normal;text-transform:none;direction:ltr;writing-mode:lr-tb;text-anchor:start;color:#000;fill:#777;fill-opacity:.79607843;fill-rule:nonzero;stroke:none;stroke-width:0;marker:none;visibility:visible;display:inline;overflow:visible;filter:url(#a);enable-background:accumulate;font-family:Bitstream Vera Sans;-inkscape-font-specification:Bitstream Vera Sans" transform="matrix(1.0259 0 0 1.04481 2.34 .5)"/><path d="m57 422.857-15 15H20l-15-15v-22l15-15h22l15 15v22z" style="fill:red;fill-opacity:1;stroke:#870000;stroke-width:.43202081;stroke-miterlimit:4;stroke-opacity:1;stroke-dasharray:none" transform="matrix(7.61822 0 0 7.75867 -16.301 -2973.427)"/><path d="M-286.954 309.524h35.294v7.247h-35.294z" style="fill:#fff" transform="scale(7.61822 7.75867)rotate(-45 -463.681 -189.037)"/><path d="M-272.93 295.433h7.247v35.429h-7.247z" style="fill:#fff" transform="scale(7.61822 7.75867)rotate(-45 -463.681 -189.037)"/></svg>