<svg xmlns="http://www.w3.org/2000/svg" xml:space="preserve" width="128" height="128"><path d="M115.946 5.2H74.834c-4.23 0-7.8 3.437-7.8 7.667s3.438 7.8 7.8 7.8h22.605l-14.145 13.88H12.835c-4.23 0-7.535 3.57-7.535 7.8v73.632c0 4.23 3.305 7.667 7.535 7.667h73.5c4.362 0 7.8-3.437 7.8-7.667v-70.46l14.144-14.145v22.738a7.673 7.673 0 0 0 7.667 7.667 7.673 7.673 0 0 0 7.668-7.667V12.867a7.673 7.673 0 0 0-7.668-7.667ZM78.8 108.311H20.502V50.014H67.96L44.297 73.676c-3.04 3.04-3.04 7.932 0 10.708 2.908 3.04 7.8 3.04 10.84 0 0-.132 23.53-23.53 23.53-23.53v47.457z" style="stroke-width:1.32194;fill:#999"/></svg>