<svg xmlns="http://www.w3.org/2000/svg" xml:space="preserve" width="64" height="48" viewBox="4 4 64 48"><defs><clipPath id="a" clipPathUnits="userSpaceOnUse"><path d="M0 0h7620v5151H0z"/></clipPath></defs><g class="Slide" clip-path="url(#a)" style="fill-rule:evenodd;stroke-width:28.22200012;stroke-linejoin:round" transform="matrix(.0053 0 0 .0053 -233.843 135.006)"><g class="Page"><path d="M5191 2944h-184c-27 0-49 9-66 26-18 17-26 39-26 66v920c0 126-45 235-135 325s-199 135-325 135H2063c-127 0-235-45-325-135s-135-199-135-325V1564c0-127 45-235 135-325s198-135 325-135h2024c27 0 49-9 66-26s26-39 26-66V828c0-27-9-49-26-66s-39-26-66-26H2063c-228 0-423 81-585 243s-243 357-243 585v2392c0 228 81 423 243 585s357 243 585 243h2392c228 0 423-81 585-243s243-357 243-585v-920c0-27-9-49-26-66s-39-26-66-26z" class="com.sun.star.drawing.ClosedBezierShape" style="fill:#09f;stroke:none"/><path d="M6332 423c-36-37-80-55-129-55H4731c-50 0-93 18-130 55-36 36-54 79-54 129s18 93 54 129l506 506-1874 1875c-19 19-29 41-29 66s10 47 29 66l328 328c19 19 41 29 66 29s47-10 66-29l1874-1875 506 506c37 37 80 55 130 55s93-18 129-55c37-36 55-79 55-129V552c0-50-19-93-55-129z" class="com.sun.star.drawing.ClosedBezierShape" style="fill:#09f;stroke:none"/></g></g><path d="M39.303 185.848h5.221l-5.221-5.223z" style="fill:#404040" transform="translate(-316.472 -32.558)"/><path d="M41.396 170.571h15.645v10.615H41.396z" style="fill:#404040" transform="rotate(-45.001 -148.328 541.612)"/><path d="m62.22 167.612-4.731-4.73c-.759-.763-2.046-.728-2.871.096l-1.796 1.796 7.506 7.504 1.795-1.792c.818-.821.861-2.11.097-2.874zM56.007 199.121H32.122c-3.893 0-7.058-3.167-7.058-7.057v-23.887c0-3.89 3.165-7.057 7.058-7.057h8.324a2.714 2.714 0 1 1 0 5.43h-8.324a1.65 1.65 0 0 0-1.629 1.627v23.887a1.65 1.65 0 0 0 1.629 1.627h23.885a1.65 1.65 0 0 0 1.629-1.627v-7.961a2.713 2.713 0 1 1 5.428 0v7.961c0 3.89-3.166 7.057-7.057 7.057z" style="fill:#404040" transform="translate(-316.472 -32.558)"/><path d="M-354.384 135.2v2h3.586l-9.83 9.828 1.415 1.414 9.829-9.828v3.585h2v-7m-2 16h-14v-14h7v-2h-7a2 2 0 0 0-2 2v14a2 2 0 0 0 2 2h14a2 2 0 0 0 2-2v-7h-2v7z" style="fill:#050708;fill-opacity:1;stroke-width:.2;stroke-linejoin:round"/><g style="fill:#7800a0"><path d="M-32.61 73.644a4.79 4.79 0 0 0-3.914-2.026l-26.368.024c-2.646 0-4.794 2.124-4.794 4.77v23.971c0 2.649 2.148 4.77 4.794 4.77l26.368.024a4.789 4.789 0 0 0 3.914-2.022l10.468-14.757-10.468-14.754Z" style="fill:#7800a0;fill-opacity:.99215686;stroke-width:.2;stroke-linejoin:round" transform="matrix(1.25454 0 0 1.25454 91.263 -82.501)"/></g><text xml:space="preserve" x="8.456" y="46.27" style="font-style:normal;font-variant:normal;font-weight:400;font-stretch:normal;font-size:4.83426px;line-height:0%;font-family:&quot;DejaVu Sans&quot;;-inkscape-font-specification:&quot;DejaVu Sans, Normal&quot;;text-align:start;letter-spacing:0;word-spacing:0;writing-mode:lr-tb;text-anchor:start;fill:#fff;fill-opacity:1;stroke:none;stroke-width:.402855px;stroke-linecap:butt;stroke-linejoin:miter;stroke-opacity:1"><tspan x="8.456" y="46.27" style="font-size:48.0127px;line-height:1;fill:#fff;stroke-width:.402855px">❇</tspan></text></svg>