<?xml version="1.0" encoding="UTF-8" standalone="no"?><!-- Generator: Adobe Illustrator 14.0.0, SVG Export Plug-In . SVG Version: 6.00 Build 43363)  -->

<svg xmlns:dc="http://purl.org/dc/elements/1.1/" xmlns:cc="http://creativecommons.org/ns#" xmlns:rdf="http://www.w3.org/1999/02/22-rdf-syntax-ns#" xmlns="http://www.w3.org/2000/svg" xmlns:sodipodi="http://sodipodi.sourceforge.net/DTD/sodipodi-0.dtd"
	xmlns:inkscape="http://www.inkscape.org/namespaces/inkscape" version="1.1" x="0px" y="0px" width="128" height="64" viewBox="0 0 128 64" enable-background="new 0 0 780 650" xml:space="preserve" id="svg4433" inkscape:version="0.91 r13725"
	sodipodi:docname="ic_search_wnword.svg"><metadata
     id="metadata5887"><rdf:RDF><cc:Work
         rdf:about=""><dc:format>image/svg+xml</dc:format><dc:type rdf:resource="http://purl.org/dc/dcmitype/StillImage" /><dc:title /></cc:Work></rdf:RDF></metadata>
	<defs id="defs5885"><style
       id="style2988"
       type="text/css">
    .fil0 {fill:#006C3B}
    .fil1 {fill:#77C06C}
   </style></defs>
	<sodipodi:namedview pagecolor="#ffffff" bordercolor="#666666" borderopacity="1" objecttolerance="10" gridtolerance="10" guidetolerance="10" inkscape:pageopacity="0" inkscape:pageshadow="2" inkscape:window-width="1040" inkscape:window-height="717"
		id="namedview5883" showgrid="false" inkscape:zoom="1.6499634" inkscape:cx="33.846443" inkscape:cy="-81.546595" inkscape:window-x="70" inkscape:window-y="92" inkscape:window-maximized="0" inkscape:current-layer="svg4433" />
	<g transform="matrix(0.46014345,0,0,0.47008529,12.565709,-9.8550275)" id="g4746" />
	<g transform="matrix(1.5338115,0,0,1.566951,-39.27712,-111.07693)" id="g4767" />
	<g transform="matrix(1.5338115,0,0,1.566951,-2.4656437,-111.07693)" id="g4847" />
	<g transform="matrix(1.5338115,0,0,1.566951,-19.33757,-142.41595)" id="g4855" />
	<g transform="matrix(0.71893407,0,0,0.71893407,-1.492263,-690.39634)" style="stroke:none" id="g8099"><path
       style="color:#000000;fill:#dcdcdc;stroke:none;stroke-width:10;stroke-miterlimit:4;stroke-dasharray:none;stroke-opacity:1"
       d="m -270.23242,104.70703 a 32.185229,32.474769 0 0 0 -33.125,32.46094 32.185545,32.475088 0 0 0 64.37109,0 32.185229,32.474769 0 0 0 -31.24609,-32.46094 z m -22.70508,17.80078 7.56055,0 5.28711,22.23047 5.24414,-22.23047 7.60156,0 5.24609,22.23047 5.28516,-22.23047 7.5,0 -7.21289,30.58985 -9.09766,0 -5.55078,-23.25391 -5.49219,23.25391 -9.09765,0 -7.27344,-30.58985 z"
       transform="matrix(1.3128377,0,0,1.3128377,404.10414,824.32713)"
       id="path8101"
       inkscape:connector-curvature="0" /></g>
	<g style="font-style:normal;font-variant:normal;font-weight:bold;font-stretch:normal;font-size:41.96130753px;line-height:125%;font-family:Sans;-inkscape-font-specification:'Sans, Bold';text-align:start;letter-spacing:0px;word-spacing:0px;writing-mode:lr-tb;text-anchor:start;fill:#f5f5f5;fill-opacity:1;stroke:none"
		id="text8088" transform="translate(-58.789183,18.182221)" />
	<path id="path8142" style="fill:#d3d3d3"
		d="m 123.34467,10.768583 0,-3.9405474 c 0,-0.725936 -0.52057,-1.3135157 -1.162,-1.3135157 l -22.07793,0 c -1.896374,0 -3.58437,1.0332987 -4.644886,2.6270307 -0.0011,0 -0.0023,0 -0.0035,0 -7.7e-4,0 -0.0011,0 -0.0035,0 -1.060516,-1.593732 -2.748512,-2.6270307 -4.64489,-2.6270307 l -22.077941,0 c -0.64143,0 -1.161999,0.5875797 -1.161999,1.3135157 l 0,3.9405474 -2.323998,0 0,44.659533 25.020898,0 c 1.271221,1.611245 3.130421,2.627031 5.191023,2.627031 2.060613,0 3.919032,-1.015786 5.189483,-2.627031 l 25.02244,0 0,-44.659533 -2.324,0 z m -53.451858,-2.6270324 20.915954,0 c 1.921941,0 3.485996,1.767993 3.485996,3.9405474 l 0,25.102161 c 0,0.725936 0.520569,1.313516 1.161988,1.313516 0.641428,0 1.161998,-0.58758 1.161998,-1.313516 l 0,-25.102161 c 0,-2.1725544 1.564054,-3.9405474 3.485992,-3.9405474 l 20.91595,0 0,42.0325024 -20.91595,0 c -1.895603,0 -3.58437,1.033299 -4.644886,2.627031 -7.7e-4,0 -0.0023,0 -0.0035,0 -7.7e-4,0 -0.0023,0 -0.0035,0 -1.060516,-1.593732 -2.749283,-2.627031 -4.64489,-2.627031 l -20.915954,0 0,-42.0325024 z"
		inkscape:connector-curvature="0" />
	<text xml:space="preserve"
		style="font-style:normal;font-variant:normal;font-weight:normal;font-stretch:normal;font-size:33.78192139px;line-height:100%;font-family:'DejaVu Sans';-inkscape-font-specification:'DejaVu Sans, Normal';text-align:start;letter-spacing:0px;word-spacing:0px;writing-mode:lr-tb;text-anchor:start;fill:#d3d3d3;fill-opacity:1;stroke:none;stroke-width:1px;stroke-linecap:butt;stroke-linejoin:miter;stroke-opacity:1;"
		x="83.106522" y="38.160316" id="text8151" sodipodi:linespacing="100%" transform="scale(0.87376393,1.1444739)"><tspan
       sodipodi:role="line"
       id="tspan8153"
       x="83.106522"
       y="38.160316">A</tspan></text>
	<text transform="scale(0.87376392,1.1444739)" sodipodi:linespacing="100%" id="text8155" y="38.160316" x="112.86286"
		style="font-style:normal;font-variant:normal;font-weight:normal;font-stretch:normal;font-size:33.78249741px;line-height:100%;font-family:'DejaVu Sans';-inkscape-font-specification:'DejaVu Sans, Normal';text-align:start;letter-spacing:0px;word-spacing:0px;writing-mode:lr-tb;text-anchor:start;fill:#d3d3d3;fill-opacity:1;stroke:none;stroke-width:1px;stroke-linecap:butt;stroke-linejoin:miter;stroke-opacity:1;"
		xml:space="preserve"><tspan
       sodipodi:role="line"
       id="tspan8159"
       x="112.86286"
       y="38.160316">Z</tspan></text>
</svg>