<svg xmlns="http://www.w3.org/2000/svg" xml:space="preserve" width="128" height="64"><g style="stroke:none"><path d="M-270.232 104.707a32.185 32.475 0 0 0-33.125 32.461 32.186 32.475 0 0 0 64.37 0 32.185 32.475 0 0 0-31.245-32.461zm-22.705 17.8h7.56l5.287 22.231 5.244-22.23h7.602l5.246 22.23 5.285-22.23h7.5l-7.213 30.59h-9.097l-5.551-23.254-5.492 23.254h-9.098l-7.274-30.59z" style="color:#000;fill:#dcdcdc;stroke:none;stroke-width:10;stroke-miterlimit:4;stroke-dasharray:none;stroke-opacity:1" transform="matrix(.94384 0 0 .94384 289.032 -97.76)"/></g><path d="M123.345 10.769V6.828c0-.726-.52-1.313-1.162-1.313h-22.078c-1.897 0-3.585 1.033-4.645 2.627h-.007c-1.06-1.594-2.749-2.627-4.645-2.627H68.73c-.641 0-1.162.587-1.162 1.313v3.94h-2.324v44.66h25.02c1.272 1.611 3.131 2.627 5.192 2.627 2.06 0 3.919-1.016 5.19-2.627h25.022v-44.66h-2.324zM69.893 8.142h20.916c1.922 0 3.486 1.768 3.486 3.94v25.102c0 .726.52 1.314 1.162 1.314.641 0 1.162-.588 1.162-1.314V12.082c0-2.172 1.564-3.94 3.486-3.94h20.916v42.032h-20.916c-1.896 0-3.585 1.033-4.645 2.627h-.007c-1.06-1.594-2.75-2.627-4.645-2.627H69.892V8.142z" style="fill:#d3d3d3"/><text xml:space="preserve" x="83.107" y="38.16" style="font-style:normal;font-variant:normal;font-weight:400;font-stretch:normal;font-size:33.78192139px;line-height:100%;font-family:&quot;DejaVu Sans&quot;;-inkscape-font-specification:&quot;DejaVu Sans, Normal&quot;;text-align:start;letter-spacing:0;word-spacing:0;writing-mode:lr-tb;text-anchor:start;fill:#d3d3d3;fill-opacity:1;stroke:none;stroke-width:1px;stroke-linecap:butt;stroke-linejoin:miter;stroke-opacity:1" transform="scale(.87376 1.14447)"><tspan x="83.107" y="38.16">A</tspan></text><text xml:space="preserve" x="112.863" y="38.16" style="font-style:normal;font-variant:normal;font-weight:400;font-stretch:normal;font-size:33.78249741px;line-height:100%;font-family:&quot;DejaVu Sans&quot;;-inkscape-font-specification:&quot;DejaVu Sans, Normal&quot;;text-align:start;letter-spacing:0;word-spacing:0;writing-mode:lr-tb;text-anchor:start;fill:#d3d3d3;fill-opacity:1;stroke:none;stroke-width:1px;stroke-linecap:butt;stroke-linejoin:miter;stroke-opacity:1" transform="scale(.87376 1.14447)"><tspan x="112.863" y="38.16">Z</tspan></text></svg>