<svg xmlns="http://www.w3.org/2000/svg" xml:space="preserve" width="128" height="64"><g style="fill:#d3d3d3"><text xml:space="preserve" x="10.369" y="323.846" style="font-style:normal;font-variant:normal;font-weight:700;font-stretch:normal;font-size:352.95266724px;line-height:125%;font-family:ChopinScript;-inkscape-font-specification:&quot;ChopinScript Bold&quot;;text-align:start;letter-spacing:0;word-spacing:0;writing-mode:lr-tb;text-anchor:start;fill:#d3d3d3;fill-opacity:1;stroke:none" transform="matrix(.1903 0 0 .1903 63.266 -4.778)"><tspan x="10.369" y="323.846">D</tspan></text><text xml:space="preserve" x="1.641" y="312.532" style="font-style:normal;font-variant:normal;font-weight:700;font-stretch:normal;font-size:352.95266724px;line-height:125%;font-family:ChopinScript;-inkscape-font-specification:&quot;ChopinScript Bold&quot;;text-align:start;letter-spacing:0;word-spacing:0;writing-mode:lr-tb;text-anchor:start;fill:#d3d3d3;fill-opacity:1;stroke:none" transform="matrix(.1903 0 0 .1903 63.266 -4.778)"><tspan x="1.641" y="312.532">D</tspan></text></g><g style="stroke:none"><path d="M90.353 1004.407a42.254 42.634 0 0 1-84.508 0 42.254 42.634 0 1 1 84.508 0z" style="color:#000;fill:#dcdcdc;stroke:none;stroke-width:10;stroke-miterlimit:4;stroke-dasharray:none;stroke-opacity:1" transform="matrix(.74039 0 0 .74039 -529.423 -779.331)"/></g><g style="stroke:none"><path d="M-270.232 104.707a32.185 32.475 0 0 0-33.125 32.461 32.186 32.475 0 0 0 64.37 0 32.185 32.475 0 0 0-31.245-32.461zm-22.705 17.8h7.56l5.287 22.231 5.244-22.23h7.602l5.246 22.23 5.285-22.23h7.5l-7.213 30.59h-9.097l-5.551-23.254-5.492 23.254h-9.098l-7.274-30.59z" style="color:#000;fill:#dcdcdc;stroke:none;stroke-width:10;stroke-miterlimit:4;stroke-dasharray:none;stroke-opacity:1" transform="matrix(.94384 0 0 .94384 287.034 -97.212)"/></g></svg>