<svg xmlns="http://www.w3.org/2000/svg" xml:space="preserve" width="128" height="64"><g style="stroke:none"><path d="M-270.232 104.707a32.185 32.475 0 0 0-33.125 32.461 32.186 32.475 0 0 0 64.37 0 32.185 32.475 0 0 0-31.245-32.461zm-22.705 17.8h7.56l5.287 22.231 5.244-22.23h7.602l5.246 22.23 5.285-22.23h7.5l-7.213 30.59h-9.097l-5.551-23.254-5.492 23.254h-9.098l-7.274-30.59z" style="color:#000;fill:#dcdcdc;stroke:none;stroke-width:10;stroke-miterlimit:4;stroke-dasharray:none;stroke-opacity:1" transform="matrix(.94384 0 0 .94384 287.98 -97.197)"/></g><path d="M74.633 2.648v57.047h46.53V2.648h-46.53zm6.181 10.561h34.102v7.486H80.814V13.21zm0 13.742h34.102v7.485H80.814V26.95zm0 15.049h34.102v7.486H80.814V42z" style="fill:#dcdcdc;fill-opacity:1;fill-rule:nonzero;stroke:none" transform="matrix(1 0 0 1 1.135 .546)"/><text xml:space="preserve" x="-114.625" y="56.97" style="font-style:normal;font-variant:normal;font-weight:400;font-stretch:normal;font-size:15px;line-height:100%;font-family:&quot;DejaVu Sans&quot;;-inkscape-font-specification:&quot;DejaVu Sans, Normal&quot;;text-align:start;letter-spacing:0;word-spacing:0;writing-mode:lr-tb;text-anchor:start;fill:#000;fill-opacity:1;stroke:none;stroke-width:1px;stroke-linecap:butt;stroke-linejoin:miter;stroke-opacity:1"/></svg>