<svg xmlns="http://www.w3.org/2000/svg" xml:space="preserve" width="128" height="128"><circle cx="64.068" cy="64.068" r="58.462" fill="none" stroke="#000" stroke-width="11.212" style="stroke:gray"/><path d="M45.865 106.801a46.45 46.45 0 0 1 0-85.466l16.349 28.318h3.708l16.35-28.318a46.45 46.45 0 0 1 0 85.466l-5.663-9.802a35.237 35.237 0 0 0 9.706-60.256L72.39 60.864H55.747L41.82 36.743a35.237 35.237 0 0 0 9.707 60.256z" style="fill:gray"/><path d="M54.786 91.36a28.83 28.83 0 0 1-14.223-43.982l5.606 9.71a17.619 17.619 0 0 0 4.693 18.64l4.882-8.457h16.647l4.883 8.457a17.619 17.619 0 0 0 4.693-18.64l5.606-9.71A28.83 28.83 0 0 1 73.35 91.361l-7.435-12.878H62.22z" style="fill:gray;fill-opacity:1"/></svg>