<svg xmlns="http://www.w3.org/2000/svg" xml:space="preserve" width="128" height="128"><g style="fill:#881ca8;stroke:#4c0064"><path d="M126.556 1020.35a62.543 62.55 0 0 1-125.087 0 62.543 62.55 0 1 1 125.087 0z" style="fill:#881ca8;fill-opacity:1;fill-rule:nonzero;stroke:#4c0064;stroke-width:2.69847;stroke-linecap:butt;stroke-linejoin:round;stroke-miterlimit:4;stroke-dasharray:none;stroke-dashoffset:0;stroke-opacity:1" transform="translate(-.012 -956.329)"/></g><path d="M107.486 66.4q0 2.847-2.066 5.024l-4.186 4.187q-2.122 2.121-5.08 2.121-3.015 0-5.024-2.12L74.718 59.254v39.3q0 2.902-2.093 4.716-2.094 1.814-5.052 1.814h-7.146q-2.958 0-5.052-1.814-2.093-1.814-2.093-4.717V59.255L36.87 75.611q-2.01 2.121-5.024 2.121-3.014 0-5.024-2.12l-4.186-4.188q-2.122-2.12-2.122-5.024 0-2.958 2.122-5.08l36.34-36.34Q60.93 22.915 64 22.915q3.014 0 5.08 2.065l36.34 36.34q2.066 2.178 2.066 5.08z" style="fill:#fff;stroke-width:.0558224"/></svg>