<?xml version="1.0" encoding="UTF-8" standalone="no"?>
<svg
   version="1.1"
   width="128.0px"
   viewBox="0 0 128.0 128.0"
   height="128.0px"
   id="svg183"
   sodipodi:docname="up.svg"
   inkscape:version="1.2.2 (b0a8486541, 2022-12-01)"
   xml:space="preserve"
   xmlns:inkscape="http://www.inkscape.org/namespaces/inkscape"
   xmlns:sodipodi="http://sodipodi.sourceforge.net/DTD/sodipodi-0.dtd"
   xmlns="http://www.w3.org/2000/svg"
   xmlns:svg="http://www.w3.org/2000/svg"
   xmlns:rdf="http://www.w3.org/1999/02/22-rdf-syntax-ns#"
   xmlns:cc="http://creativecommons.org/ns#"
   xmlns:dc="http://purl.org/dc/elements/1.1/"><defs
     id="defs185" /><g
     id="g181"><g
       transform="translate(-0.01219835,0.03314248)"
       id="g161"
       style="fill:#881ca8;stroke:#4c0064"><defs
         id="defs4" /><sodipodi:namedview
         id="base"
         pagecolor="#ffffff"
         bordercolor="#666666"
         borderopacity="1.0"
         inkscape:pageopacity="0.0"
         inkscape:pageshadow="2"
         inkscape:zoom="3.959798"
         inkscape:cx="20.834396"
         inkscape:cy="74.49875"
         inkscape:document-units="px"
         inkscape:current-layer="g181"
         showgrid="false"
         inkscape:window-width="1256"
         inkscape:window-height="480"
         inkscape:window-x="26"
         inkscape:window-y="23"
         inkscape:window-maximized="0"
         inkscape:showpageshadow="0"
         inkscape:pagecheckerboard="1"
         inkscape:deskcolor="#d1d1d1" /><metadata
         id="metadata7"><rdf:RDF><cc:Work
             rdf:about=""><dc:format>image/svg+xml</dc:format><dc:type
               rdf:resource="http://purl.org/dc/dcmitype/StillImage" /></cc:Work></rdf:RDF></metadata><g
         inkscape:label="Layer 1"
         inkscape:groupmode="layer"
         id="layer1"
         transform="translate(0,-956.36217)"
         style="fill:#881ca8;stroke:#4c0064"><path
           inkscape:connector-curvature="0"
           d="m 126.55565,1020.3495 a 62.543455,62.549724 0 0 1 -125.0869033,0 62.543455,62.549724 0 1 1 125.0869033,0 z"
           style="fill:#881ca8;fill-opacity:1;fill-rule:nonzero;stroke:#4c0064;stroke-width:2.69847;stroke-linecap:butt;stroke-linejoin:round;stroke-miterlimit:4;stroke-dasharray:none;stroke-dashoffset:0;stroke-opacity:1"
           id="path1873" /></g></g><path
       d="m 107.48564,66.40036 q 0,2.846938 -2.06543,5.024012 l -4.18668,4.186687 q -2.121253,2.121247 -5.079835,2.121247 -3.014409,0 -5.024011,-2.121247 L 74.717899,59.255091 v 39.298968 q 0,2.902761 -2.093338,4.716991 -2.093338,1.81423 -5.051919,1.81423 h -7.145269 q -2.958593,0 -5.051932,-1.81423 -2.093338,-1.81423 -2.093338,-4.716991 V 59.255091 L 36.870319,75.611059 q -2.009602,2.121247 -5.024012,2.121247 -3.014409,0 -5.024011,-2.121247 l -4.186688,-4.186687 q -2.121246,-2.121246 -2.121246,-5.024012 0,-2.958581 2.121246,-5.079839 L 58.97599,24.980151 q 1.953786,-2.06543 5.024011,-2.06543 3.01441,0 5.07984,2.06543 l 36.340369,36.34037 q 2.06543,2.177074 2.06543,5.079839 z"
       id="path3029"
       inkscape:connector-curvature="0"
       style="fill:#ffffff;stroke-width:0.0558224" /></g></svg>
