<svg xmlns="http://www.w3.org/2000/svg" xml:space="preserve" id="Layer_1" width="128" height="128" x="0" y="0" version="1.1"><defs id="defs15"><style id="style304" type="text/css">.st0{fill:#3eb3e0}</style></defs><g id="g964" transform="translate(-1.569 2.596)"><path id="path4" d="M85.7 116.558c0 3.78-2.823 5.782-6.283 4.462l-47.808-20.99c-3.46-1.275-6.283-5.418-6.283-9.197v-66.02c0-3.78 2.96-5.874 6.283-4.463l47.808 20.99c3.46 1.275 6.283 5.418 6.283 9.197z" class="st0" style="fill:gray;stroke:gray;stroke-width:.455315;stroke-opacity:1"/><path id="path8" d="m85.039 117.278-2.33-2.832 12.104-9.911 1.782-.32c1.096.411 2.055.365 2.74-.091.731-.503 1.096-1.462 1.096-2.695V35.2c0-3.015-2.329-6.44-5.115-7.49l-.046-.046L45.302 6.79c-3.974-.137-7.993 1.416-10.825 4.11-2.375 2.285-3.7 5.162-3.7 8.177v1.827h-3.654v-1.827c0-4.02 1.736-7.856 4.842-10.825 3.654-3.426 8.815-5.344 13.84-5.07l.593.137 50.197 21.01c4.202 1.599 7.445 6.35 7.445 10.917v66.228c0 2.421-.96 4.522-2.695 5.664-1.416.96-3.197 1.28-5.07.822z" class="st0" style="fill:gray;stroke:gray;stroke-width:4;stroke-dasharray:none;stroke-opacity:1"/></g><g id="g323" style="fill:#f9f9f9;fill-rule:evenodd;image-rendering:optimizeQuality;shape-rendering:geometricPrecision;text-rendering:geometricPrecision" transform="rotate(11.153 -237.532 215.113)scale(.00501)"><g id="Symbol-Rahmen" style="fill:#f9f9f9"><path id="path308" d="M716.82 4324.3c731.31 313.61 827.71 357.49 1567.8 675.18 40.476 17.968 72.394 31.791 101.49 46.122 50.76 27.555 77.339 53.453 127.28-15.287 16.882-17.106 46.268-32.858 65.602-65.449 1771.2-1641.6 3104.2-2926.1 4875.4-4567.7 311.45-314.04 957.14-82.315 668.75 262.42-1819 2115.1-3013.9 3557.1-3898.3 4727.1-378.15 498.87-701.18 948.44-991.49 1378.7-190.68 277.3-364.94 546.58-526.53 815.85-46.827 81.508-85.945 138.84-146.8 184.88-95.28 67.846-199.82 75.197-302.62 18.468-38.555-25.295-76.043-57.032-113.86-103.76-22.693-28.032-45.508-64.331-68.74-99.854l-553.4-911.48-623.12-1098.3c-170.56-300.64-307.26-550.24-571.63-1007.6-28.921-43.067-111.65-155.14-87.535-238.72 20.748-95.457 124.86-147.42 234.97-102.71 98.807 41.689 197.58 84.988 242.72 102.13z" style="fill:#f9f9f9"/></g><g id="Symbol" style="fill:#f9f9f9"><path id="path311" d="M431.48 4322.7c694.72 300.72 1260.1 541.86 1963.1 846.5 48.492 21.169 97.638 26.933 146.55-15.724 1682.6-1574.1 3327.4-3117.8 5010-4692 220.55-198.94 645.36-76.925 509.09 107.46-2981.1 3437.6-4547.9 5449-5497.6 7037.3-86.311 145.08-250.18 136.88-339.06-2.283-209.35-332.54-525.42-854.16-534.06-867.24-673.5-1175.6-694.99-1224.6-1337.9-2347.4-30.346-55.044 35.429-95.3 79.819-66.682z" style="fill:#f9f9f9"/></g></g></svg>