<svg xmlns="http://www.w3.org/2000/svg" xml:space="preserve" id="Layer_1" width="128" height="128" x="0" y="0" version="1.1"><defs id="defs15"><style id="style304" type="text/css">.st0{fill:#3eb3e0}</style></defs><g id="g302" style="fill:#666" transform="matrix(.45675 0 0 .45675 21.682 2.862)"><g id="g10" style="fill:#666"><path id="path4" d="M146.3 250c0 8.3-6.2 12.7-13.8 9.8l-105-46.1c-7.6-2.8-13.8-11.9-13.8-20.2v-145c0-8.3 6.5-12.9 13.8-9.8l105 46.1c7.6 2.8 13.8 11.9 13.8 20.2z" class="st0" style="fill:#666"/><path id="path6" d="M132.7 84.4c7.8 2.9 14.1 12.2 14.1 20.6v145c0 6.7-3.9 11.2-9.8 11.2-1.5 0-3.1-.3-4.7-.9l-105-46.1c-7.8-2.9-14.1-12.2-14.1-20.6v-145c0-6.7 17.2-23.3 13.5-18.7-5 6.2-.7 7.8.9 8.4m-4.7.1c-5.3 0-8.8 4.1-8.8 10.2v145c0 8.1 6.1 16.9 13.5 19.7l105 46.1c1.5.5 2.9.8 4.3.8 5.3 0 8.8-4.1 8.8-10.2V105c0-8.1-6.1-16.9-13.5-19.7l-105-46.1c-1.4-.5-2.9-.8-4.3-.8z" class="st0" style="fill:#666"/><path id="path8" d="m139.9 260-5.1-6.2 26.5-21.7 3.9-.7c2.4.9 4.5.8 6-.2 1.6-1.1 2.4-3.2 2.4-5.9v-145c0-6.6-5.1-14.1-11.2-16.4l-.1-.1L52.9 18.1c-8.7-.3-17.5 3.1-23.7 9-5.2 5-8.1 11.3-8.1 17.9v4h-8v-4c0-8.8 3.8-17.2 10.6-23.7C31.7 13.8 43 9.6 54 10.2l1.3.3 109.9 46c9.2 3.5 16.3 13.9 16.3 23.9v145c0 5.3-2.1 9.9-5.9 12.4-3.1 2.1-7 2.8-11.1 1.8z" class="st0" style="fill:#666"/></g></g><g id="g323" style="fill:#f9f9f9;fill-rule:evenodd;image-rendering:optimizeQuality;shape-rendering:geometricPrecision;text-rendering:geometricPrecision" transform="matrix(.00501 0 0 .00501 36.465 52.89)"><g id="Symbol-Rahmen" style="fill:#f9f9f9"><path id="path308" d="M716.82 4324.3c731.31 313.61 827.71 357.49 1567.8 675.18 40.476 17.968 72.394 31.791 101.49 46.122 50.76 27.555 77.339 53.453 127.28-15.287 16.882-17.106 46.268-32.858 65.602-65.449 1771.2-1641.6 3104.2-2926.1 4875.4-4567.7 311.45-314.04 957.14-82.315 668.75 262.42-1819 2115.1-3013.9 3557.1-3898.3 4727.1-378.15 498.87-701.18 948.44-991.49 1378.7-190.68 277.3-364.94 546.58-526.53 815.85-46.827 81.508-85.945 138.84-146.8 184.88-95.28 67.846-199.82 75.197-302.62 18.468-38.555-25.295-76.043-57.032-113.86-103.76-22.693-28.032-45.508-64.331-68.74-99.854l-553.4-911.48-623.12-1098.3c-170.56-300.64-307.26-550.24-571.63-1007.6-28.921-43.067-111.65-155.14-87.535-238.72 20.748-95.457 124.86-147.42 234.97-102.71 98.807 41.689 197.58 84.988 242.72 102.13z" style="fill:#f9f9f9"/></g><g id="Symbol" style="fill:#f9f9f9"><path id="path311" d="M431.48 4322.7c694.72 300.72 1260.1 541.86 1963.1 846.5 48.492 21.169 97.638 26.933 146.55-15.724 1682.6-1574.1 3327.4-3117.8 5010-4692 220.55-198.94 645.36-76.925 509.09 107.46-2981.1 3437.6-4547.9 5449-5497.6 7037.3-86.311 145.08-250.18 136.88-339.06-2.283-209.35-332.54-525.42-854.16-534.06-867.24-673.5-1175.6-694.99-1224.6-1337.9-2347.4-30.346-55.044 35.429-95.3 79.819-66.682z" style="fill:#f9f9f9"/></g></g></svg>