<?xml version="1.0" encoding="UTF-8" standalone="no"?>
<!-- Generator: Adobe Illustrator 19.0.0, SVG Export Plug-In . SVG Version: 6.00 Build 0)  -->

<svg
   xmlns:dc="http://purl.org/dc/elements/1.1/"
   xmlns:cc="http://creativecommons.org/ns#"
   xmlns:rdf="http://www.w3.org/1999/02/22-rdf-syntax-ns#"
   xmlns:svg="http://www.w3.org/2000/svg"
   xmlns="http://www.w3.org/2000/svg"
   xmlns:sodipodi="http://sodipodi.sourceforge.net/DTD/sodipodi-0.dtd"
   xmlns:inkscape="http://www.inkscape.org/namespaces/inkscape"
   version="1.1"
   id="Layer_1"
   x="0px"
   y="0px"
   viewBox="0 0 96 96"
   style="enable-background:new 0 0 96 96;"
   xml:space="preserve"
   inkscape:version="0.91 r13725"
   sodipodi:docname="verbframe.svg"><metadata
     id="metadata11"><rdf:RDF><cc:Work
         rdf:about=""><dc:format>image/svg+xml</dc:format><dc:type
           rdf:resource="http://purl.org/dc/dcmitype/StillImage" /></cc:Work></rdf:RDF></metadata><defs
     id="defs9" /><sodipodi:namedview
     pagecolor="#ffffff"
     bordercolor="#666666"
     borderopacity="1"
     objecttolerance="10"
     gridtolerance="10"
     guidetolerance="10"
     inkscape:pageopacity="0"
     inkscape:pageshadow="2"
     inkscape:window-width="1123"
     inkscape:window-height="480"
     id="namedview7"
     showgrid="false"
     inkscape:zoom="2.4583333"
     inkscape:cx="4.0896986"
     inkscape:cy="48"
     inkscape:window-x="49"
     inkscape:window-y="24"
     inkscape:window-maximized="0"
     inkscape:current-layer="Layer_1" /><style
     type="text/css"
     id="style3">
	.st0{fill:#333333;}
</style><g
     id="XMLID_2_"
     transform="matrix(1.5874475,0,0,1.5874475,-27.5003,-24.827969)"
     style="fill:#a9a9a9"><path
       id="XMLID_6_"
       class="st0"
       d="m 62.8,46.6 0.4,7.5 c 0.1,1.1 -0.6,2.1 -2,3.1 -1.4,0.9 -3.2,1.7 -5.6,2.2 -2.4,0.5 -4.9,0.8 -7.7,0.8 -2.8,0 -5.3,-0.3 -7.7,-0.8 -2.4,-0.5 -4.2,-1.3 -5.6,-2.2 -1.4,-0.9 -2,-2 -2,-3.1 l 0.4,-7.5 13.7,4.3 c 0.4,0.1 0.7,0.2 1.1,0.2 0.4,0 0.8,-0.1 1.1,-0.2 l 13.9,-4.3 z m 12.7,-7.8 c 0,0.4 -0.2,0.6 -0.5,0.7 L 48.2,48 c -0.1,0 -0.1,0 -0.2,0 -0.1,0 -0.2,0 -0.2,0 L 32.2,43.1 c -0.7,0.5 -1.2,1.4 -1.7,2.7 -0.4,1.2 -0.7,2.7 -0.8,4.3 1,0.6 1.5,1.4 1.5,2.6 0,1.1 -0.5,1.9 -1.4,2.6 l 1.4,10.3 c 0,0.2 0,0.4 -0.2,0.6 -0.1,0.2 -0.3,0.3 -0.6,0.3 l -4.6,0 c -0.2,0 -0.4,-0.1 -0.6,-0.3 C 25,66 25,65.8 25,65.6 L 26.4,55.3 C 25.5,54.7 25,53.8 25,52.7 c 0,-1.2 0.5,-2 1.6,-2.6 0.2,-3.3 1,-5.9 2.3,-7.9 L 21,39.6 c -0.4,-0.1 -0.5,-0.4 -0.5,-0.7 0,-0.3 0.2,-0.6 0.5,-0.7 l 26.7,-8.4 c 0.1,0 0.1,0 0.2,0 0.1,0 0.2,0 0.2,0 L 75,38.1 c 0.3,0.1 0.5,0.4 0.5,0.7 z"
       inkscape:connector-curvature="0"
       style="fill:#a9a9a9" /></g></svg>