<svg xmlns="http://www.w3.org/2000/svg" xml:space="preserve" width="128" height="128"><path fill="#231f20" d="M123.788 9.76c0 .42-.128.806-.403 1.157-.266.343-.557.523-.88.523-2.624.25-4.78 1.103-6.453 2.552-1.673 1.45-3.401 4.216-5.19 8.299l-27.258 61.4c-.18.57-.686.857-1.501.857a1.673 1.673 0 0 1-1.493-.857L65.31 51.792 47.743 83.678a1.673 1.673 0 0 1-1.501.858c-.781 0-1.3-.288-1.544-.858L17.924 22.29c-1.673-3.834-3.44-6.51-5.292-8.033-1.844-1.522-4.418-2.462-7.737-2.822-.283 0-.557-.158-.802-.454a1.544 1.544 0 0 1-.386-1.03c0-.969.283-1.458.858-1.458 2.384 0 4.889.107 7.488.322 2.423.214 4.704.309 6.844.309 2.175 0 4.74-.108 7.703-.322a120.939 120.939 0 0 1 8.234-.326c.566 0 .849.493.849 1.475 0 .978-.172 1.467-.532 1.467-2.389.172-4.267.785-5.64 1.823-1.372 1.042-2.058 2.401-2.058 4.087 0 .857.287 1.93.858 3.216l21.837 50.091 12.823-23.845L51.255 22.27c-2.101-4.408-3.834-7.248-5.19-8.517-1.35-1.274-3.4-2.05-6.14-2.337-.258 0-.498-.15-.73-.446a1.617 1.617 0 0 1-.343-1.03c0-.969.245-1.458.746-1.458 2.385 0 4.576.103 6.575.318 1.921.214 3.971.317 6.146.317a76.09 76.09 0 0 0 6.784-.326 83.842 83.842 0 0 1 7.265-.326c.57 0 .858.493.858 1.471 0 .987-.18 1.467-.536 1.467-4.774.322-7.162 1.681-7.162 4.083 0 1.072.557 2.744 1.655 5l7.745 15.718 7.72-14.345c1.063-2.046 1.6-3.766 1.6-5.164 0-3.294-2.39-5.048-7.163-5.262-.428 0-.643-.502-.643-1.484 0-.343.107-.686.322-.995.214-.317.429-.472.643-.472 1.716 0 3.817.103 6.304.318 2.39.214 4.349.321 5.876.321 1.106 0 2.727-.085 4.867-.257 2.702-.249 4.975-.373 6.785-.373.429 0 .643.416.643 1.256 0 1.116-.394 1.682-1.175 1.682-2.766.278-5.018 1.046-6.69 2.298-1.698 1.257-3.808 4.105-6.339 8.535l-10.25 18.998 13.879 28.305 20.542-47.724c.712-1.758 1.072-3.37 1.072-4.837 0-3.517-2.393-5.374-7.162-5.588-.429 0-.643-.493-.643-1.476 0-.973.317-1.458.96-1.458 1.742 0 3.804.108 6.193.322 2.209.206 4.062.313 5.558.313 1.566 0 3.388-.111 5.447-.322 2.136-.214 4.057-.326 5.768-.326.502 0 .75.416.75 1.257z" style="fill:gray;stroke:#666;stroke-width:2;stroke-dasharray:none"/><path d="M-274.902 232.182h4.747v-128h-4.747zm9.494 0h14.24v-128h-14.24zm18.986-128v128h14.24v-128z" style="fill:#900;stroke-width:.201257" transform="matrix(.99551 0 0 .31805 273.908 54.233)"/><path d="M-160.983 232.182h4.746v-128h-4.746zm9.493-128v128h4.747v-128zm-75.946 128h4.747v-128h-4.747zm9.494-128v128h4.746v-128z" style="fill:#396;stroke-width:.201257" transform="matrix(.99551 0 0 .31805 273.908 54.233)"/><path d="M-208.45 232.182h14.24v-128h-14.24zm18.987 0h4.747v-128h-4.747zm9.493-128v128h14.24v-128z" style="fill:#069;stroke-width:.201257" transform="matrix(.99551 0 0 .31805 273.908 54.233)"/></svg>