<?xml version="1.0" encoding="UTF-8" standalone="no"?>
<svg xmlns:dc="http://purl.org/dc/elements/1.1/" xmlns:cc="http://creativecommons.org/ns#" xmlns:rdf="http://www.w3.org/1999/02/22-rdf-syntax-ns#" xmlns="http://www.w3.org/2000/svg" xmlns:xlink="http://www.w3.org/1999/xlink" xmlns:sodipodi="http://sodipodi.sourceforge.net/DTD/sodipodi-0.dtd" xmlns:inkscape="http://www.inkscape.org/namespaces/inkscape" width="200px" height="200px" viewBox="0 0 200 200" version="1.1" id="svg2"
	inkscape:version="0.91 r13725" sodipodi:docname="annoset.svg">
	<metadata id="metadata14">
		<rdf:RDF>
			<cc:Work rdf:about="">
				<dc:format>image/svg+xml</dc:format>
				<dc:type rdf:resource="http://purl.org/dc/dcmitype/StillImage" />
			</cc:Work>
		</rdf:RDF>
	</metadata>
	<sodipodi:namedview pagecolor="#ffffff" bordercolor="#666666" borderopacity="1" objecttolerance="10" gridtolerance="10" guidetolerance="10" inkscape:pageopacity="0" inkscape:pageshadow="2" inkscape:window-width="1435" inkscape:window-height="548"
		id="namedview12" showgrid="false" inkscape:zoom="1.18" inkscape:cx="-106.35593" inkscape:cy="100" inkscape:window-x="59" inkscape:window-y="34" inkscape:window-maximized="0" inkscape:current-layer="svg2" />
	<title id="title4">Download</title>
	<description id="description6">Created with Sketch (http://www.bohemiancoding.com/sketch)</description>
	<defs id="defs8">
		<linearGradient id="linearGradient2816">
			<stop id="stop2818" offset="0" style="stop-color:#f07836;stop-opacity:1;" />
			<stop id="stop2820" offset="1" style="stop-color:white;stop-opacity:1" />
		</linearGradient>
		<linearGradient id="linearGradient2794">
			<stop id="stop2796" offset="0" style="stop-color:#545454;stop-opacity:1" />
			<stop id="stop2804" offset="0.9464286" style="stop-color:#545454;stop-opacity:1" />
			<stop id="stop2798" offset="1" style="stop-color:#c5c5c5;stop-opacity:0" />
		</linearGradient>
		<linearGradient y2="12" x2="31.5" y1="63" x1="31.5" gradientTransform="matrix(0.89419004,0,0,0.50191997,9.6878701,-0.29570749)" gradientUnits="userSpaceOnUse" id="linearGradient3061" xlink:href="#linearGradient2816" inkscape:collect="always" />
		<radialGradient r="54.179893" fy="65.015877" fx="62.984127" cy="65.015877" cx="62.984127" gradientTransform="matrix(1.0578729,0,0,1.1181378,-2.9853126,-10.795733)" id="radialGradient3065"
			xlink:href="#linearGradient2794" inkscape:collect="always" />
	</defs>
	<g style="fill:#666666" id="Edit" transform="matrix(2.5109968,0,0,2.5109968,-1655.8072,-882.74075)">
		<path id="path543"
			d="m 711.824,370.929 -14.471,-14.47 c -0.994,-0.995 -2.623,-0.995 -3.617,0 l -20.199,20.198 c -0.332,0.332 -0.678,0.98 -0.77,1.439 l -4.377,21.957 c -0.092,0.459 0.205,0.746 0.662,0.635 l 21.141,-5.137 c 0.457,-0.111 1.102,-0.475 1.432,-0.805 l 20.199,-20.199 c 0.996,-0.995 0.996,-2.622 0,-3.618 z m -23.615,22.974 -10.988,2.633 c -0.455,0.109 -1.1,-0.072 -1.432,-0.404 l -3.186,-3.186 c -0.332,-0.332 -0.529,-0.98 -0.439,-1.441 l 2.24,-11.434 c 0.09,-0.461 0.436,-0.566 0.766,-0.234 l 13.266,13.266 c 0.332,0.33 0.23,0.691 -0.227,0.8 z"
			inkscape:connector-curvature="0" style="fill:#666666" />
	</g>
	<g transform="matrix(2.5109968,0,0,2.5109968,-1596.4852,-820.02889)" id="g4161" style="fill:#666666">
		<path style="fill:#666666" inkscape:connector-curvature="0"
			d="m 711.824,370.929 -14.471,-14.47 c -0.994,-0.995 -2.623,-0.995 -3.617,0 l -20.199,20.198 c -0.332,0.332 -0.678,0.98 -0.77,1.439 l -4.377,21.957 c -0.092,0.459 0.205,0.746 0.662,0.635 l 21.141,-5.137 c 0.457,-0.111 1.102,-0.475 1.432,-0.805 l 20.199,-20.199 c 0.996,-0.995 0.996,-2.622 0,-3.618 z m -23.615,22.974 -10.988,2.633 c -0.455,0.109 -1.1,-0.072 -1.432,-0.404 l -3.186,-3.186 c -0.332,-0.332 -0.529,-0.98 -0.439,-1.441 l 2.24,-11.434 c 0.09,-0.461 0.436,-0.566 0.766,-0.234 l 13.266,13.266 c 0.332,0.33 0.23,0.691 -0.227,0.8 z"
			id="path4163" />
	</g>
</svg>
