<svg xmlns="http://www.w3.org/2000/svg" xml:space="preserve" width="850.394" height="850.394" style="overflow:visible;enable-background:new 0 0 850.394 850.394"><path d="M-475.644-227.012H374.75v850.394h-850.394z" style="fill:none"/><path d="m218.004 349.172 118.325 90.071-45.27-145.448 118.358-88.07-145.155.067L218.004 55.61l-46.29 150.182-145.124-.067 118.357 88.07-45.205 145.448 118.262-90.07zm407.18-3.603 118.325 90.071-45.27-145.448 118.358-88.07-145.155.067-46.258-150.182-46.29 150.182-145.124-.067 118.358 88.07-45.206 145.448 118.262-90.071zM423.395 677.078l118.326 90.072L496.45 621.7l118.358-88.07-145.155.067-46.259-150.182-46.29 150.182-145.123-.067 118.357 88.07-45.205 145.449 118.261-90.072z" style="fill:gray;fill-opacity:1;stroke-width:.2;stroke-linejoin:round"/></svg>