<?xml version="1.0" encoding="UTF-8" standalone="no"?><!-- Generator: Adobe Illustrator 12.0.1, SVG Export Plug-In . SVG Version: 6.00 Build 51448)  -->

<svg xmlns:dc="http://purl.org/dc/elements/1.1/" xmlns:cc="http://creativecommons.org/ns#" xmlns:rdf="http://www.w3.org/1999/02/22-rdf-syntax-ns#" xmlns="http://www.w3.org/2000/svg" xmlns:sodipodi="http://sodipodi.sourceforge.net/DTD/sodipodi-0.dtd"
	xmlns:inkscape="http://www.inkscape.org/namespaces/inkscape" version="1.1" id="Layer_1" width="850.394" height="850.394" viewBox="0 0 850.394 850.394" style="overflow:visible;enable-background:new 0 0 850.394 850.394;" xml:space="preserve"
	inkscape:version="0.91 r13725" sodipodi:docname="coreset.svg"><metadata
     id="metadata60"><rdf:RDF><cc:Work
         rdf:about=""><dc:format>image/svg+xml</dc:format><dc:type rdf:resource="http://purl.org/dc/dcmitype/StillImage" /></cc:Work></rdf:RDF></metadata>
	<defs id="defs58"><style
       id="style2988"
       type="text/css">
    .fil0 {fill:#006C3B}
    .fil1 {fill:#77C06C}
   </style></defs>
	<sodipodi:namedview pagecolor="#ffffff" bordercolor="#666666" borderopacity="1" objecttolerance="10" gridtolerance="10" guidetolerance="10" inkscape:pageopacity="0" inkscape:pageshadow="2" inkscape:window-width="1079" inkscape:window-height="1061"
		id="namedview56" showgrid="false" inkscape:zoom="0.27751843" inkscape:cx="352.37712" inkscape:cy="365.4945" inkscape:window-x="495" inkscape:window-y="96" inkscape:window-maximized="0" inkscape:current-layer="Layer_1" />
	<rect y="-227.01195" x="-475.6441" style="fill:none" width="850.39398" height="850.39398" id="rect54" />
	<path style="fill:#808080;fill-opacity:1;stroke-width:0.2;stroke-linejoin:round" inkscape:connector-curvature="0"
		d="m 218.00354,349.17214 118.32543,90.07127 -45.26928,-145.44844 118.35728,-88.0697 -145.15519,0.0669 -46.25824,-150.182226 -46.29015,150.182206 -145.12327,-0.0669 118.35729,88.06972 -45.20547,145.44844 118.2616,-90.07127 z" id="path3068" />
	<path id="path4153" d="m 625.18371,345.56878 118.32543,90.07127 -45.26928,-145.44844 118.35728,-88.0697 -145.15519,0.0669 -46.25824,-150.18223 -46.29015,150.18221 -145.12327,-0.0669 118.35729,88.06972 -45.20547,145.44844 118.2616,-90.07127 z"
		inkscape:connector-curvature="0" style="fill:#808080;fill-opacity:1;stroke-width:0.2;stroke-linejoin:round" />
	<path style="fill:#808080;fill-opacity:1;stroke-width:0.2;stroke-linejoin:round" inkscape:connector-curvature="0"
		d="m 423.39531,677.0783 118.32543,90.07127 -45.26928,-145.44844 118.35728,-88.0697 -145.15519,0.0669 -46.25824,-150.18223 -46.29015,150.18221 -145.12327,-0.0669 118.35729,88.06972 -45.20547,145.44844 118.2616,-90.07127 z" id="path4155" /></svg>