<?xml version="1.0" encoding="UTF-8" standalone="no"?>
<!-- Created with Inkscape (http://www.inkscape.org/) -->

<svg
   xmlns:dc="http://purl.org/dc/elements/1.1/"
   xmlns:cc="http://creativecommons.org/ns#"
   xmlns:rdf="http://www.w3.org/1999/02/22-rdf-syntax-ns#"
   xmlns:svg="http://www.w3.org/2000/svg"
   xmlns="http://www.w3.org/2000/svg"
   xmlns:sodipodi="http://sodipodi.sourceforge.net/DTD/sodipodi-0.dtd"
   xmlns:inkscape="http://www.inkscape.org/namespaces/inkscape"
   width="800"
   height="800"
   id="svg11699"
   version="1.1"
   inkscape:version="0.92.3 (2405546, 2018-03-11)"
   sodipodi:docname="role1.svg">
  <defs
     id="defs11701" />
  <sodipodi:namedview
     id="base"
     pagecolor="#ffffff"
     bordercolor="#666666"
     borderopacity="1.0"
     inkscape:pageopacity="0.0"
     inkscape:pageshadow="2"
     inkscape:zoom="0.35"
     inkscape:cx="0.84560286"
     inkscape:cy="117.66432"
     inkscape:document-units="px"
     inkscape:current-layer="layer1"
     showgrid="false"
     fit-margin-top="0"
     fit-margin-left="0"
     fit-margin-right="0"
     fit-margin-bottom="0"
     inkscape:window-width="1869"
     inkscape:window-height="1136"
     inkscape:window-x="51"
     inkscape:window-y="27"
     inkscape:window-maximized="1" />
  <metadata
     id="metadata11704">
    <rdf:RDF>
      <cc:Work
         rdf:about="">
        <dc:format>image/svg+xml</dc:format>
        <dc:type
           rdf:resource="http://purl.org/dc/dcmitype/StillImage" />
        <dc:title></dc:title>
      </cc:Work>
    </rdf:RDF>
  </metadata>
  <g
     inkscape:label="Layer 1"
     inkscape:groupmode="layer"
     id="layer1"
     transform="translate(1193.5165,492.83061)">
    <path
       style="fill:#888a85;fill-opacity:1;fill-rule:evenodd;stroke:none"
       d="m -575.18396,-475.12858 c -0.33394,0.0296 -0.65134,0.10218 -0.96875,0.21875 -20.31393,7.4604 -118.56497,98.40454 -140.9375,111.9375 -49.33384,29.84162 -100.49837,52.91914 -130.40625,56.3125 -63.81796,7.24082 -68.90269,3.07042 -119.6875,4.5625 -50.78494,1.49208 -142.69604,-16.35037 -148.50004,0.0625 -5.8039,16.41289 -1.4424,65.6346 5.8125,91 7.255,25.36537 28.7076,98.64178 50.1875,139.749999 5.997,11.47719 33.0202,65.3873699 69.56254,125.5 36.54228,60.112611 92.8742,113.759171 112.28125,133.156251 38.81413,38.7941 92.69779,72.6175 105.03125,77.09375 24.66692,8.95248 104.05892,36.28789 154.84375,19.875 50.78485,-16.41289 94.75852,-53.08711 100.5625,-69.5 2.90198,-8.20644 29.68733,-66.18671 41.03125,-132.718751 11.34391,-66.53204 7.23224,-141.6223 5.78125,-158.78125 -2.902,-34.317849 -10.15552,-157.979239 -20.3125,-195.281249 -9.99825,-36.71919 -63.2433,-205.0517 -84.28125,-203.1875 z m -72.3125,211.9375 c 37.19566,-0.31389 79.30478,34.31617 82.21875,35.78125 l -139.375,60.40625 c 2.27415,-74.56377 28.22629,-95.94336 57.15625,-96.1875 z m -196.375,98.5625 c 37.19566,-0.31389 79.27353,34.31617 82.1875,35.78125 l -139.375,60.406249 c 2.27415,-74.563769 28.25754,-95.943359 57.1875,-96.187499 z m 291.46875,156.6249989 c 1.3456,-0.0766 2.7178,0.0427 4.125,0.375 18.07993,4.26953 12.98183,63.7199701 2.3125,98.8125001 -16.6066,54.620851 -48.77595,83.902641 -77.375,90.656251 -26.42998,6.24135 -56.08761,3.22336 -101.75,-26.6875 -65.4676,-42.88406 -98.31562,-85.055711 -83.5625,-92.562501 19.39238,-9.86733 102.63738,39.434471 160.71875,25.71875 52.35539,-12.36355 68.17063,-94.7544101 95.53125,-96.3125001 z"
       id="path2202"
       inkscape:connector-curvature="0" />
  </g>
</svg>
