<svg xmlns="http://www.w3.org/2000/svg" width="800" height="800"><path d="M-575.184-475.129a3.74 3.74 0 0 0-.969.22c-20.314 7.46-118.565 98.404-140.937 111.937-49.334 29.841-100.499 52.919-130.406 56.312-63.818 7.241-68.903 3.07-119.688 4.563-50.785 1.492-142.696-16.35-148.5.062-5.804 16.413-1.442 65.635 5.813 91 7.255 25.366 28.707 98.642 50.187 139.75 5.997 11.477 33.02 65.388 69.563 125.5 36.542 60.113 92.874 113.76 112.28 133.156 38.815 38.795 92.699 72.618 105.032 77.094 24.667 8.953 104.059 36.288 154.844 19.875 50.785-16.413 94.758-53.087 100.562-69.5 2.902-8.206 29.688-66.187 41.032-132.719 11.343-66.532 7.232-141.622 5.78-158.78-2.901-34.319-10.155-157.98-20.312-195.282-9.998-36.72-63.243-205.052-84.281-203.188zm-72.312 211.938c37.195-.314 79.304 34.316 82.218 35.781l-139.375 60.406c2.274-74.563 28.227-95.943 57.157-96.187zm-196.375 98.562c37.195-.313 79.273 34.317 82.187 35.782l-139.375 60.406c2.274-74.564 28.258-95.943 57.188-96.188zM-552.403-8.004a14.31 14.31 0 0 1 4.125.375c18.08 4.27 12.982 63.72 2.313 98.813-16.607 54.62-48.776 83.903-77.375 90.656-26.43 6.242-56.088 3.224-101.75-26.687-65.468-42.884-98.316-85.056-83.563-92.563 19.393-9.867 102.638 39.435 160.719 25.719 52.355-12.364 68.17-94.754 95.531-96.313z" style="fill:#888a85;fill-opacity:1;fill-rule:evenodd;stroke:none" transform="translate(1193.516 492.83)"/></svg>