<svg xmlns="http://www.w3.org/2000/svg" width="160" height="160"><path d="m-750.136 594.916-.749-79.888c.223-18.453 5.995-34.98 27.12-33.596 27.773 1.157 22.329 22.515 23.63 32.847m-15.499 64.024 79.89-.749c18.452.223 34.978 5.995 33.595 27.12-1.157 27.772-22.516 22.329-32.847 23.63m-61.394-10.899.748 79.889c-.223 18.452-5.995 34.979-27.12 33.596-27.772-1.158-22.328-22.516-23.629-32.847m15.49-70.383-79.889.749c-18.452-.223-34.979-5.995-33.596-27.12 1.158-27.772 22.516-22.329 32.847-23.63" style="fill:none;fill-rule:evenodd;stroke:gray;stroke-width:20;stroke-linecap:round;stroke-linejoin:round;stroke-miterlimit:4;stroke-dasharray:none;stroke-opacity:1" transform="translate(502.07 -273.715)scale(.5832)"/></svg>