<svg xmlns="http://www.w3.org/2000/svg" xml:space="preserve" width="64" height="64" version="1.0" viewBox="0 0 256 256"><path d="M13.017-304.814h256v256h-256z" style="fill:none;stroke:none"/><path d="M108.004 30.217v48.907L73.422 44.54c-8.261-8.261-21.705-8.261-29.968 0a21.051 21.051 0 0 0-6.206 14.986 21.05 21.05 0 0 0 6.206 14.984l34.582 34.582H29.132c-11.685 0-21.191 9.505-21.191 21.19s9.506 21.19 21.191 21.19h48.906l-34.583 34.586c-4.132 4.13-6.196 9.556-6.196 14.982 0 5.428 2.064 10.852 6.196 14.984a21.049 21.049 0 0 0 14.985 6.208c5.66 0 10.98-2.205 14.984-6.208l34.582-34.58v48.905c0 11.683 9.508 21.19 21.191 21.19s21.192-9.507 21.192-21.19v-48.905l34.582 34.58a21.049 21.049 0 0 0 14.984 6.208 21.05 21.05 0 0 0 14.984-6.208 21.051 21.051 0 0 0 6.206-14.984c0-5.66-2.205-10.981-6.206-14.984l-34.584-34.584h48.907c11.685 0 21.192-9.505 21.192-21.19s-9.507-21.19-21.192-21.19h-48.905C194.28 95.172 214.94 74.51 214.94 74.51c4.133-4.13 6.197-9.558 6.197-14.984 0-5.427-2.064-10.853-6.197-14.986-8.261-8.261-21.705-8.261-29.966 0L150.39 79.122V30.217c0-11.685-9.509-21.192-21.192-21.192s-21.195 9.507-21.195 21.192z" style="fill:#c00;stroke:none"/><path d="M229.259 118.079h-67.851l47.98-47.98c5.208-5.21 5.208-13.659 0-18.868-5.213-5.21-13.66-5.21-18.87 0l-47.98 47.98V31.358c0-7.37-5.973-13.343-13.342-13.343-7.37 0-13.343 5.973-13.343 13.343v67.855L67.873 51.23c-5.212-5.21-13.658-5.21-18.87 0-5.21 5.211-5.21 13.659 0 18.868l47.98 47.98h-67.85c-7.37 0-13.343 5.973-13.343 13.342 0 7.37 5.971 13.343 13.342 13.343h67.855l-47.983 47.981c-5.21 5.211-5.21 13.659 0 18.868 5.213 5.21 13.659 5.21 18.87 0l47.98-47.98v67.853c0 7.368 5.972 13.341 13.342 13.341s13.342-5.971 13.342-13.34v-67.854l47.98 47.98c5.21 5.21 13.658 5.21 18.868 0 5.209-5.21 5.21-13.659 0-18.868l-47.982-47.981h67.855c7.37 0 13.342-5.973 13.342-13.343s-5.97-13.342-13.342-13.342z" style="fill:red;stroke:none"/></svg>