<svg xmlns="http://www.w3.org/2000/svg" xml:space="preserve" width="850.394" height="850.394" style="overflow:visible;enable-background:new 0 0 850.394 850.394"><path d="M-475.644-227.012H374.75v850.394h-850.394z" style="fill:none"/><g style="fill:gray;fill-opacity:1"><path d="m8.46 26.84 21.6 11.52 22.08-11.52-22.08-11.52z" style="fill:gray;fill-opacity:1" transform="matrix(11.89235 0 0 12.79887 67.113 -116.923)"/><path d="M259.156 103.456v55.04c9.042-4.39 19.252-6.881 30.09-6.881 24.108 0 45.225 12.268 56.934 30.65 11.703-18.382 32.826-30.65 56.939-30.65 10.098 0 19.664 2.164 28.242 6.012v-53.645l-86.55 45.157z" style="fill:gray;fill-opacity:1;stroke-width:5.78653" transform="matrix(2.05518 0 0 2.21184 -282.119 74.213)"/></g><text xml:space="preserve" x="160.113" y="929.489" style="font-size:378.918px;font-family:Impact;-inkscape-font-specification:&quot;Impact, Normal&quot;;fill:gray;stroke-width:53.7049;stroke-linecap:round;stroke-linejoin:round;font-weight:400;font-style:normal;font-stretch:normal;font-variant:normal;font-variant-ligatures:normal;font-variant-caps:normal;font-variant-numeric:normal;font-variant-east-asian:normal" transform="scale(1.20492 .82993)"><tspan>PT</tspan></text></svg>