<svg xmlns="http://www.w3.org/2000/svg" width="24" height="24" version="1.0"><g style="fill:silver;stroke:gray"><path d="M6.938.5A.43.43 0 0 0 6.5.938v1.25a5.82 5.82 0 0 0-1.531.656l-.907-.906a.437.437 0 0 0-.625 0l-1.5 1.5a.437.437 0 0 0 0 .624l.907.907A5.82 5.82 0 0 0 2.188 6.5H.938a.43.43 0 0 0-.438.438v2.125c0 .248.19.437.438.437h1.25a5.82 5.82 0 0 0 .656 1.531l-.906.906a.437.437 0 0 0 0 .626l1.5 1.5a.436.436 0 0 0 .624 0l.907-.907c.48.285.977.514 1.531.656v1.25c0 .249.19.438.438.438h2.125a.43.43 0 0 0 .437-.437v-1.25a5.82 5.82 0 0 0 1.531-.657l.906.906c.176.176.45.176.626 0l1.5-1.5a.437.437 0 0 0 0-.624l-.907-.907a5.82 5.82 0 0 0 .656-1.531h1.25a.43.43 0 0 0 .438-.437V6.937a.43.43 0 0 0-.437-.437h-1.25a5.82 5.82 0 0 0-.657-1.531l.906-.907a.437.437 0 0 0 0-.625l-1.5-1.5a.437.437 0 0 0-.624 0l-.907.907A5.82 5.82 0 0 0 9.5 2.188V.938A.43.43 0 0 0 9.063.5H6.937zM8 6a2 2 0 1 1-.001 4.001A2 2 0 0 1 8 6z" style="fill:gray;fill-opacity:1;fill-rule:nonzero;stroke:gray;stroke-width:.99999994;stroke-linecap:butt;stroke-linejoin:round;stroke-miterlimit:4;stroke-opacity:1;stroke-dasharray:none;stroke-dashoffset:0;marker:none;visibility:visible;display:block;overflow:visible;enable-background:accumulate" transform="translate(.475 .39)scale(1.45763)"/></g></svg>