<?xml version="1.0" encoding="UTF-8" standalone="no"?>
<svg xmlns:dc="http://purl.org/dc/elements/1.1/" xmlns:cc="http://creativecommons.org/ns#" xmlns:rdf="http://www.w3.org/1999/02/22-rdf-syntax-ns#" xmlns:svg="http://www.w3.org/2000/svg" xmlns="http://www.w3.org/2000/svg"
	xmlns:sodipodi="http://sodipodi.sourceforge.net/DTD/sodipodi-0.dtd" xmlns:inkscape="http://www.inkscape.org/namespaces/inkscape" width="108" height="108" id="svg15" version="1.1" inkscape:version="0.91 r13725" sodipodi:docname="semtype.svg">
	<metadata id="metadata27">
		<rdf:RDF>
			<cc:Work rdf:about="">
				<dc:format>image/svg+xml</dc:format>
				<dc:type rdf:resource="http://purl.org/dc/dcmitype/StillImage" />
			</cc:Work>
		</rdf:RDF>
	</metadata>
	<defs id="defs25" />
	<sodipodi:namedview pagecolor="#ffffff" bordercolor="#666666" borderopacity="1" objecttolerance="10" gridtolerance="10" guidetolerance="10" inkscape:pageopacity="0" inkscape:pageshadow="2" inkscape:window-width="1185" inkscape:window-height="1148"
		id="namedview23" showgrid="false" inkscape:zoom="2.1851852" inkscape:cx="51.271144" inkscape:cy="54" inkscape:window-x="49" inkscape:window-y="24" inkscape:window-maximized="0" inkscape:current-layer="svg15" />
	<ellipse cx="53.084747" cy="53.538372" id="circle17" style="fill:#808080" rx="50.338982" ry="48.966103" />
	<path id="path6993"
		d="m 35.372912,33.05728 -5.880886,-5.807198 -4.574569,4.635879 5.880866,5.80395 m -4.285364,13.841653 -9.767208,0.06161 0.04105,6.51147 9.767207,-0.06161 m 16.364677,13.538913 0.09873,15.660087 19.534414,-0.12315 -0.09873,-15.660086 c 5.809717,-3.416215 9.706228,-9.734365 9.660683,-16.958842 -0.06802,-10.789513 -8.871312,-19.479269 -19.657562,-19.411268 -10.789508,0.06799 -19.479287,8.868053 -19.411268,19.657566 0.04554,7.224479 4.018149,13.493019 9.873732,16.835694 z m 35.727093,-13.867314 9.767207,-0.06161 -0.04105,-6.51147 -9.767208,0.06161 M 55.610351,18.95227 c -1.028852,-2.2e-5 -6.511468,0.04111 -6.511468,0.04111 l 0.06055,9.604416 6.511471,-0.041 m 24.278249,2.982348 -4.632653,-4.577847 -5.807203,5.880889 4.632634,4.574588 5.807222,-5.87763 z"
		inkscape:connector-curvature="0" style="fill:#ffffff;fill-opacity:1;stroke-width:0.2;stroke-linejoin:round" />
</svg>
