<svg xmlns="http://www.w3.org/2000/svg" xml:space="preserve" width="850.394" height="850.394" style="overflow:visible;enable-background:new 0 0 850.394 850.394"><path d="M-475.644-227.012H374.75v850.394h-850.394z" style="fill:none"/><g transform="translate(21.344 351.726)scale(4.57438)"><ellipse cx="53.085" cy="53.538" rx="50.339" ry="48.966" style="fill:gray"/><path d="m35.373 33.057-5.881-5.807-4.575 4.636 5.881 5.804m-4.285 13.842-9.767.061.04 6.512 9.768-.062m16.365 13.539.098 15.66 19.535-.123-.099-15.66c5.81-3.416 9.706-9.735 9.66-16.959-.067-10.79-8.87-19.48-19.657-19.411-10.79.068-19.48 8.868-19.411 19.657.045 7.225 4.018 13.493 9.874 16.836zm35.727-13.867 9.767-.062-.041-6.511-9.767.061M55.61 18.953c-1.029 0-6.511.04-6.511.04l.06 9.605 6.512-.041m24.278 2.982-4.633-4.578-5.807 5.881 4.633 4.575z" style="fill:#fff;fill-opacity:1;stroke-width:.2;stroke-linejoin:round"/></g><g style="fill:gray;fill-opacity:1"><path d="m30.06 38.36 22.08-11.52-22.08-11.52-21.6 11.52z" style="fill:gray;fill-opacity:1" transform="matrix(11.89235 0 0 12.79887 214.133 -163.415)"/><path d="M259.156 103.456v55.04c9.042-4.39 19.252-6.881 30.09-6.881 24.108 0 45.225 12.268 56.934 30.65 11.703-18.382 32.826-30.65 56.939-30.65 10.098 0 19.664 2.164 28.242 6.012v-53.645l-86.55 45.157z" style="fill:gray;fill-opacity:1;stroke-width:5.78653" transform="matrix(2.05518 0 0 2.21184 -135.099 27.722)"/></g></svg>