<svg xmlns="http://www.w3.org/2000/svg" width="937.5" height="1000"><g style="fill:silver;fill-opacity:1"><g style="fill:silver;fill-opacity:1"><path d="M231.5 450c-3.042 0-5.5 2.49-5.5 5.531 0 3.042 2.458 5.469 5.5 5.469a5.46 5.46 0 0 0 2.938-.844l2.77 2.587c.38.38.969.354 1.343-.031l.188-.188a.976.976 0 0 0 0-1.375l-2.708-2.524c.617-.89 1-1.93 1-3.094 0-3.042-2.489-5.531-5.531-5.531zm.031 2.063c1.942 0 3.5 1.555 3.5 3.468s-1.558 3.469-3.5 3.469c-1.941 0-3.531-1.556-3.531-3.469 0-1.913 1.59-3.469 3.531-3.469z" style="fill:silver;fill-opacity:1;stroke:none" transform="matrix(62.54049 0 0 62.54049 -14062.148 -28017.151)"/></g></g><path d="M500.252 288.262a1.738 1.738 0 0 0-.92.096c-9.327 3.587-54.44 47.325-64.712 53.834-22.65 14.351-46.139 25.445-59.87 27.077-29.302 3.483-31.646 1.485-54.963 2.202-23.317.718-65.5-7.87-68.165.024-2.665 7.893-.672 31.577 2.659 43.776 3.33 12.2 13.181 47.43 23.043 67.2 2.754 5.52 15.164 31.447 31.941 60.357 16.778 28.91 42.632 54.718 51.542 64.046 17.821 18.658 42.573 34.923 48.236 37.076 11.325 4.305 47.768 17.45 71.085 9.557 23.318-7.893 43.514-25.54 46.18-33.433 1.332-3.947 13.63-31.823 18.839-63.82 5.208-31.998 3.325-68.113 2.659-76.365-1.333-16.505-4.666-75.97-9.33-93.909-4.517-17.38-28.265-96.079-38.224-97.718zm-33.68 101.908c17.078-.151 36.41 16.506 37.748 17.21l-63.996 29.054c1.045-35.86 12.966-46.147 26.249-46.264zm-90.164 47.406c17.078-.15 36.399 16.507 37.736 17.211l-63.984 29.054c1.044-35.86 12.966-46.147 26.248-46.265zm133.207 75.401a6.216 6.216 0 0 1 2.511.108c8.301 2.053 5.956 30.648 1.057 47.525-7.625 26.27-22.39 40.339-35.52 43.587-12.135 3.001-25.748 1.554-46.713-12.831-30.058-20.624-45.146-40.892-38.372-44.503 8.903-4.745 47.134 18.951 73.801 12.355 23.645-5.849 31.045-44.27 43.236-46.24z" style="fill:#d3d3d3;fill-opacity:1;fill-rule:evenodd;stroke:none"/></svg>