<svg xmlns="http://www.w3.org/2000/svg" width="360" height="360" version="1.0"><path d="M154.012 84.822c-28.493 3.22-30.773 1.375-53.447 2.038-22.674.664-63.698-7.28-66.29.02-2.59 7.3-.647 29.201 2.592 40.483 3.24 11.283 12.816 43.873 22.406 62.157 2.677 5.105 14.747 29.085 31.062 55.823 16.315 26.737 41.456 50.601 50.12 59.229 17.33 17.255 41.396 32.302 46.902 34.293 11.013 3.982 46.448 16.136 69.122 8.835 22.674-7.3 42.312-23.617 44.903-30.917 1.296-3.65 13.26-29.432 18.324-59.025 5.065-29.593 3.23-62.997 2.583-70.629-1.296-15.264-4.535-70.262-9.07-86.854S284.224 6.671 275.155 9.99c-9.07 3.318-52.935 43.775-62.923 49.794-22.026 13.274-44.867 23.53-58.22 25.04z" style="fill:#f0f;fill-opacity:1;fill-rule:evenodd;stroke:none" transform="matrix(.66638 0 0 .6689 -21.492 -1.286)"/><path d="M130.096 190.783c2.321-75.806 59.913-28.028 62.226-26.87l-62.226 26.87zm113.011 69.719c-25.931 6.101-63.1-15.82-71.758-11.431-6.587 3.339 8.08 22.086 37.31 41.16 20.386 13.305 33.63 14.647 45.43 11.871 12.769-3.004 27.125-16.023 34.54-40.318 4.763-15.61 7.042-42.052-1.03-43.951-13.403-3.153-19.967 36.9-44.492 42.67zm-25.329-113.559c2.32-75.807 59.912-28.029 62.225-26.87l-62.225 26.87z" style="fill:#fff;fill-opacity:1;fill-rule:evenodd;stroke:none" transform="matrix(.66638 0 0 .6689 -21.492 -1.286)"/><path d="M154.012 84.822c-28.493 3.22-30.773 1.375-53.447 2.038-22.674.664-63.698-7.28-66.29.02-2.59 7.3-.647 29.201 2.592 40.483 3.24 11.283 12.816 43.873 22.406 62.157 2.677 5.105 14.747 29.085 31.062 55.823 16.315 26.737 41.456 50.601 50.12 59.229 17.33 17.255 41.396 32.302 46.902 34.293 11.013 3.982 46.448 16.136 69.122 8.835 22.674-7.3 42.312-23.617 44.903-30.917 1.296-3.65 13.26-29.432 18.324-59.025 5.065-29.593 3.23-62.997 2.583-70.629-1.296-15.264-4.535-70.262-9.07-86.854S284.224 6.671 275.155 9.99c-9.07 3.318-52.935 43.775-62.923 49.794-22.026 13.274-44.867 23.53-58.22 25.04z" style="fill:#a40000;fill-opacity:1;fill-rule:evenodd;stroke:none" transform="rotate(60.974 94.745 243.515)scale(.75237)"/><path d="M130.096 190.783c2.321-75.806 59.913-28.028 62.226-26.87l-62.226 26.87zm103.929 69.639c23.786-6.55 56.97 13.113 64.982 8.697 6.095-3.359-6.7-20.684-32.74-37.886-18.162-11.998-30.178-12.876-41.003-9.895-11.712 3.225-25.168 15.987-32.64 39.223-4.8 14.93-7.66 40.049-.369 41.608 12.108 2.589 19.273-35.552 41.77-41.747zm-16.247-113.479c2.32-75.807 59.912-28.029 62.225-26.87l-62.225 26.87z" style="fill:#fff;fill-opacity:1;fill-rule:evenodd;stroke:none" transform="rotate(60.974 94.745 243.515)scale(.75237)"/></svg>