<?xml version="1.0" encoding="UTF-8" standalone="no"?>
<!-- Generator: Adobe Illustrator 18.0.0, SVG Export Plug-In . SVG Version: 6.00 Build 0)  -->

<svg
   version="1.1"
   id="external"
   x="0px"
   y="0px"
   viewBox="4 4 64 48"
   enable-background="new 4 4 24 24"
   xml:space="preserve"
   inkscape:version="1.2.2 (b0a8486541, 2022-12-01)"
   sodipodi:docname="link_relation.svg"
   width="64"
   height="48"
   xmlns:inkscape="http://www.inkscape.org/namespaces/inkscape"
   xmlns:sodipodi="http://sodipodi.sourceforge.net/DTD/sodipodi-0.dtd"
   xmlns="http://www.w3.org/2000/svg"
   xmlns:svg="http://www.w3.org/2000/svg"
   xmlns:rdf="http://www.w3.org/1999/02/22-rdf-syntax-ns#"
   xmlns:cc="http://creativecommons.org/ns#"
   xmlns:dc="http://purl.org/dc/elements/1.1/"><metadata
   id="metadata9"><rdf:RDF><cc:Work
       rdf:about=""><dc:format>image/svg+xml</dc:format><dc:type
         rdf:resource="http://purl.org/dc/dcmitype/StillImage" /><dc:title /></cc:Work></rdf:RDF></metadata>
	<defs
   id="defs7"><clipPath
     id="presentation_clip_path"
     clipPathUnits="userSpaceOnUse"><rect
       x="0"
       y="0"
       width="7620"
       height="5151"
       id="rect7069" /></clipPath></defs>
	<sodipodi:namedview
   pagecolor="#ffffff"
   bordercolor="#666666"
   borderopacity="1"
   objecttolerance="10"
   gridtolerance="10"
   guidetolerance="10"
   inkscape:pageopacity="0"
   inkscape:pageshadow="2"
   inkscape:window-width="1495"
   inkscape:window-height="788"
   id="namedview5"
   showgrid="false"
   inkscape:zoom="2.4583333"
   inkscape:cx="103.72881"
   inkscape:cy="-10.983051"
   inkscape:window-x="26"
   inkscape:window-y="23"
   inkscape:window-maximized="0"
   inkscape:current-layer="external"
   showguides="false"
   inkscape:showpageshadow="0"
   inkscape:pagecheckerboard="1"
   inkscape:deskcolor="#d1d1d1" />
	<g
   style="fill-rule:evenodd;stroke-width:28.22200012;stroke-linejoin:round"
   class="Master_Slide"
   id="id2"
   transform="matrix(0.03543307,0,0,0.03543307,-34.059724,10.410738)"><g
   class="Background"
   id="bg-id2" />
		<g
   class="BackgroundObjects"
   id="bo-id2" /></g>
	<g
   style="fill-rule:evenodd;stroke-width:28.22200012;stroke-linejoin:round"
   class="Master_Slide"
   id="id2-8"
   transform="matrix(0.03543307,0,0,0.03543307,21.281645,75.051455)"><g
   class="Background"
   id="bg-id2-3" />
		<g
   class="BackgroundObjects"
   id="bo-id2-7" /></g>
	<g
   style="fill-rule:evenodd;stroke-width:28.22200012;stroke-linejoin:round"
   id="id1"
   class="Slide"
   clip-path="url(#presentation_clip_path)"
   transform="matrix(0.00530347,0,0,0.00530347,-233.84295,135.00641)"><g
     class="Page"
     id="g7116"><g
       class="com.sun.star.drawing.ClosedBezierShape"
       id="g7118"><g
         id="id3"><path
           style="fill:#0099ff;stroke:none"
           inkscape:connector-curvature="0"
           d="m 5191,2944 -184,0 c -27,0 -49,9 -66,26 -18,17 -26,39 -26,66 l 0,920 c 0,126 -45,235 -135,325 -90,90 -199,135 -325,135 l -2392,0 c -127,0 -235,-45 -325,-135 -90,-90 -135,-199 -135,-325 l 0,-2392 c 0,-127 45,-235 135,-325 90,-90 198,-135 325,-135 l 2024,0 c 27,0 49,-9 66,-26 17,-17 26,-39 26,-66 l 0,-184 c 0,-27 -9,-49 -26,-66 -17,-17 -39,-26 -66,-26 l -2024,0 c -228,0 -423,81 -585,243 -162,162 -243,357 -243,585 l 0,2392 c 0,228 81,423 243,585 162,162 357,243 585,243 l 2392,0 c 228,0 423,-81 585,-243 162,-162 243,-357 243,-585 l 0,-920 c 0,-27 -9,-49 -26,-66 -17,-17 -39,-26 -66,-26 z"
           id="path7121" /></g></g><g
       class="com.sun.star.drawing.ClosedBezierShape"
       id="g7123"><g
         id="id4"><path
           style="fill:#0099ff;stroke:none"
           inkscape:connector-curvature="0"
           d="m 6332,423 c -36,-37 -80,-55 -129,-55 l -1472,0 c -50,0 -93,18 -130,55 -36,36 -54,79 -54,129 0,50 18,93 54,129 l 506,506 -1874,1875 c -19,19 -29,41 -29,66 0,25 10,47 29,66 l 328,328 c 19,19 41,29 66,29 25,0 47,-10 66,-29 l 1874,-1875 506,506 c 37,37 80,55 130,55 50,0 93,-18 129,-55 37,-36 55,-79 55,-129 l 0,-1472 c 0,-50 -19,-93 -55,-129 z"
           id="path7126" /></g></g></g></g>
	<g
   id="g8906"
   transform="translate(-316.47165,-32.557573)"><g
   id="g8908"><polygon
     style="fill:#404040"
     points="39.303,185.848 44.524,185.848 39.303,180.625 "
     id="polygon8910" /><rect
     style="fill:#404040"
     x="41.396"
     y="170.571"
     transform="matrix(0.7071,-0.7071,0.7071,0.7071,-109.9473,86.3133)"
     width="15.645"
     height="10.615"
     id="rect8912" /><path
     style="fill:#404040"
     inkscape:connector-curvature="0"
     d="m 62.22,167.612 -4.731,-4.73 c -0.759,-0.763 -2.046,-0.728 -2.871,0.096 l -1.796,1.796 7.506,7.504 1.795,-1.792 c 0.818,-0.821 0.861,-2.11 0.097,-2.874 z"
     id="path8914" /></g>
		<g
   id="g8916"><path
     style="fill:#404040"
     inkscape:connector-curvature="0"
     d="m 56.007,199.121 -23.885,0 c -3.893,0 -7.058,-3.167 -7.058,-7.057 l 0,-23.887 c 0,-3.89 3.165,-7.057 7.058,-7.057 l 8.324,0 c 1.499,0 2.714,1.215 2.714,2.714 0,1.499 -1.215,2.716 -2.714,2.716 l -8.324,0 c -0.883,0 -1.629,0.746 -1.629,1.627 l 0,23.887 c 0,0.882 0.746,1.627 1.629,1.627 l 23.885,0 c 0.883,0 1.629,-0.745 1.629,-1.627 l 0,-7.961 c 0,-1.501 1.214,-2.716 2.713,-2.716 1.5,0 2.715,1.215 2.715,2.716 l 0,7.961 c 0,3.89 -3.166,7.057 -7.057,7.057 z"
     id="path8918" /></g></g>
	<path
   style="fill:#050708;fill-opacity:1;stroke-width:0.2;stroke-linejoin:round"
   inkscape:connector-curvature="0"
   d="m -354.38431,135.19945 0,2 3.586,0 -9.829,9.8281 1.414,1.4149 9.829,-9.8289 0,3.5859 2,0 0,-7 m -2,16 -14,0 0,-14 7,0 0,-2 -7,0 c -1.105,0 -2,0.896 -2,2 l 0,14 c 0,1.1041 0.895,2 2,2 l 14,0 c 1.104,0 2,-0.8959 2,-2 l 0,-7 -2,0 0,7 z"
   id="path15392" />
	<g
   id="g8231"
   transform="matrix(1.2545447,0,0,1.2545447,91.263045,-82.501168)"
   style="fill:#3366cc"><path
     id="path15388"
     d="m -32.609637,73.643771 c -0.867744,-1.225149 -2.298802,-2.025774 -3.914436,-2.025774 l -26.367908,0.02421 c -2.64638,0 -4.79416,2.123576 -4.79416,4.769955 l 0,23.970818 c 0,2.64878 2.14778,4.77044 4.79416,4.77044 l 26.367908,0.024 c 1.615634,0 3.046692,-0.79823 3.914436,-2.0229 L -22.141578,88.397813 -32.609637,73.644011 Z"
     inkscape:connector-curvature="0"
     style="fill:#3366cc;fill-opacity:0.99215686;stroke-width:0.2;stroke-linejoin:round" /></g>
	<g
   style="fill-rule:evenodd;stroke-width:28.22200012;stroke-linejoin:round"
   class="Master_Slide"
   id="id2-5"
   transform="matrix(0.03543307,0,0,0.03543307,-24.958028,-86.962143)"><g
   class="Background"
   id="bg-id2-7" />
		<g
   class="BackgroundObjects"
   id="bo-id2-1" /></g>
	
	
	
	<text
   xml:space="preserve"
   style="font-style:normal;font-variant:normal;font-weight:normal;font-stretch:normal;font-size:4.83426px;line-height:0%;font-family:'DejaVu Sans';-inkscape-font-specification:'DejaVu Sans, Normal';text-align:start;letter-spacing:0px;word-spacing:0px;writing-mode:lr-tb;text-anchor:start;fill:#ffffff;fill-opacity:1;stroke:none;stroke-width:0.402855px;stroke-linecap:butt;stroke-linejoin:miter;stroke-opacity:1"
   x="8.4557657"
   y="46.269794"
   id="text8077"><tspan
     sodipodi:role="line"
     id="tspan8083"
     x="8.4557657"
     y="46.269794"
     style="font-size:48.0127px;line-height:1;fill:#ffffff;stroke-width:0.402855px">❇</tspan></text></svg>
