<svg xmlns="http://www.w3.org/2000/svg" width="128" height="128" version="1.0"><path d="M29.62 11.557c-4.08 0-7.574 2.33-9.905 5.826L6.895 38.36c-.583 1.166-1.166 3.496-1.166 5.244v61.184c0 6.41 5.244 11.654 11.654 11.654h93.234c6.41 0 11.654-5.244 11.654-11.654V43.605c0-1.748-.583-4.078-1.166-5.244l-12.82-20.978c-2.33-3.496-5.825-5.826-9.904-5.826H29.619zM28.454 23.21h71.09l9.906 17.48H18.55l9.906-17.48zm35.533 25.094c1.827 0 3.393.632 4.696 1.898s1.955 2.797 1.955 4.59v27.89l9.105-8.94c1.29-1.267 2.85-1.9 4.676-1.9 1.827 0 3.384.633 4.674 1.9 1.316 1.265 1.974 2.802 1.974 4.609 0 1.806-.658 3.343-1.974 4.609l-20.39 20.018c-1.344 1.318-2.916 1.978-4.716 1.978-1.773 0-3.33-.66-4.674-1.978L39.328 83.355c-1.316-1.292-1.974-2.835-1.974-4.628 0-1.794.658-3.322 1.974-4.588 1.29-1.266 2.847-1.899 4.674-1.899 1.827 0 3.384.633 4.674 1.899l8.705 8.545V54.793c0-1.793.644-3.324 1.933-4.59 1.29-1.266 2.848-1.898 4.674-1.898z" style="fill:#fff;stroke-width:5.8271184"/></svg>