<svg xmlns="http://www.w3.org/2000/svg" width="128" height="128" version="1.0"><path d="M4.713 97.4v-8.994q0-4.133 3.002-7.05 3.003-2.917 7.212-2.917 4.21 0 7.18 2.917 2.972 2.917 2.972 7.05V97.4q0 2.188 1.578 3.707 1.579 1.52 3.745 1.52h67.472q2.167 0 3.745-1.52 1.579-1.52 1.579-3.707v-8.994q0-4.133 2.971-7.05t7.18-2.917q4.21 0 7.212 2.917t3.002 7.05V97.4q0 10.452-7.52 17.867-7.522 7.414-18.169 7.414H30.402q-10.647 0-18.168-7.414-7.52-7.415-7.52-17.867Zm19.623-44.667q0-4.132 3.033-7.05 2.971-2.916 7.18-2.916 4.21 0 7.181 2.917L55.1 58.81V15.966q0-4.132 2.972-7.049Q61.043 6 65.252 6q4.21 0 7.212 2.917t3.002 7.05V58.81l13.99-13.734q2.971-2.917 7.18-2.917 4.21 0 7.18 2.917 3.034 2.917 3.034 7.08t-3.033 7.08l-31.322 30.75q-3.095 3.038-7.243 3.038-4.085 0-7.18-3.038L27.369 59.843q-3.033-2.978-3.033-7.11Z" style="fill:#fff"/></svg>