<svg xmlns="http://www.w3.org/2000/svg" width="128" height="128" version="1.0"><path d="M132.969 133.642H285.83v152.86H132.97z" style="fill:none"/><path d="M109.996 70.47c.245-1.923.429-3.847.429-5.89 0-2.043-.184-3.967-.43-5.89l12.94-9.916c1.166-.902 1.472-2.525.737-3.847l-12.266-20.795c-.736-1.322-2.392-1.803-3.74-1.322l-15.271 6.01c-3.189-2.404-6.623-4.387-10.364-5.89L79.7 7.004c-.185-1.443-1.472-2.525-3.006-2.525h-24.53c-1.533 0-2.821 1.082-3.005 2.525L46.83 22.93c-3.742 1.503-7.176 3.546-10.365 5.89l-15.27-6.01c-1.41-.54-3.005 0-3.741 1.322L5.189 44.927c-.798 1.322-.43 2.945.736 3.847l12.94 9.916c-.246 1.923-.43 3.907-.43 5.89 0 1.983.184 3.967.43 5.89l-12.94 9.917c-1.166.901-1.472 2.524-.736 3.846l12.265 20.795c.736 1.322 2.392 1.803 3.74 1.322l15.271-6.01c3.19 2.404 6.623 4.387 10.364 5.89l2.33 15.927c.185 1.442 1.473 2.524 3.006 2.524h24.53c1.534 0 2.821-1.082 3.005-2.524l2.33-15.927c3.742-1.503 7.176-3.546 10.365-5.89l15.27 6.01c1.41.54 3.005 0 3.741-1.322l12.266-20.795c.735-1.322.429-2.945-.736-3.846l-12.94-9.917ZM64.43 85.615c-11.836 0-21.464-9.435-21.464-21.035s9.628-21.035 21.464-21.035c11.836 0 21.464 9.436 21.464 21.035 0 11.6-9.628 21.035-21.464 21.035z" style="fill:#fff"/></svg>