<svg xmlns="http://www.w3.org/2000/svg" xmlns:xlink="http://www.w3.org/1999/xlink" width="800" height="800"><defs><radialGradient xlink:href="#b" id="o" cx="102.143" cy="545.934" r="135" fx="102.143" fy="545.934" gradientUnits="userSpaceOnUse"/><radialGradient xlink:href="#c" id="m" cx="102.143" cy="545.934" r="135" fx="102.143" fy="545.934" gradientUnits="userSpaceOnUse"/><radialGradient xlink:href="#b" id="l" cx="102.143" cy="545.934" r="135" fx="102.143" fy="545.934" gradientUnits="userSpaceOnUse"/><radialGradient xlink:href="#c" id="j" cx="102.143" cy="545.934" r="135" fx="102.143" fy="545.934" gradientUnits="userSpaceOnUse"/><radialGradient xlink:href="#b" id="i" cx="102.143" cy="545.934" r="135" fx="102.143" fy="545.934" gradientUnits="userSpaceOnUse"/><radialGradient xlink:href="#c" id="g" cx="102.143" cy="545.934" r="135" fx="102.143" fy="545.934" gradientUnits="userSpaceOnUse"/><radialGradient xlink:href="#c" id="d" cx="102.143" cy="545.934" r="135" fx="102.143" fy="545.934" gradientUnits="userSpaceOnUse"/><radialGradient xlink:href="#b" id="f" cx="102.143" cy="545.934" r="135" fx="102.143" fy="545.934" gradientUnits="userSpaceOnUse"/><linearGradient xlink:href="#a" id="n" x1="154.286" x2="605.714" y1="535.219" y2="535.219" gradientUnits="userSpaceOnUse"/><linearGradient id="c"><stop offset="0" style="stop-color:#999;stop-opacity:1"/><stop offset="1" style="stop-color:#999;stop-opacity:0"/></linearGradient><linearGradient id="a"><stop offset="0" style="stop-color:#772b00;stop-opacity:1"/><stop offset=".5" style="stop-color:#da441b;stop-opacity:1"/><stop offset=".75" style="stop-color:#d2400f;stop-opacity:1"/><stop offset=".938" style="stop-color:#d44316;stop-opacity:.614583"/><stop offset="1" style="stop-color:#c33900;stop-opacity:.21875"/></linearGradient><linearGradient id="b"><stop offset="0" style="stop-color:#fff;stop-opacity:1"/><stop offset="1" style="stop-color:#fff;stop-opacity:0"/></linearGradient><linearGradient xlink:href="#a" id="e" x1="154.286" x2="605.714" y1="535.219" y2="535.219" gradientUnits="userSpaceOnUse"/><linearGradient xlink:href="#a" id="h" x1="154.286" x2="605.714" y1="535.219" y2="535.219" gradientUnits="userSpaceOnUse"/><linearGradient xlink:href="#a" id="k" x1="154.286" x2="605.714" y1="535.219" y2="535.219" gradientUnits="userSpaceOnUse"/></defs><g style="display:inline" transform="translate(0 41.71)"><circle cx="400.216" cy="358.788" r="398.929" style="display:inline;opacity:.98999999;fill:#806678;fill-opacity:1;fill-rule:evenodd;stroke:none;stroke-width:2.29999995;stroke-linecap:round;stroke-linejoin:round;stroke-miterlimit:4;stroke-dasharray:none;stroke-dashoffset:0;stroke-opacity:1"/><path d="M774.06 369.785a319.633 318.563 0 0 1-235.602 211.988 319.633 318.563 0 0 1-302.779-94.944l234.66-216.3z" style="opacity:.98999999;fill:#039;fill-opacity:1;fill-rule:evenodd;stroke:none;stroke-width:2.29999995;stroke-linecap:round;stroke-linejoin:round;stroke-miterlimit:4;stroke-dasharray:none;stroke-dashoffset:0;stroke-opacity:1" transform="rotate(12.002 22.086 -15.537)skewX(-.086)"/><path d="M258.92-475.604a318.512 318.512 0 0 1-213.536 238.18 318.512 318.512 0 0 1-312.705-67.396l214.385-235.561z" style="opacity:.98999999;fill:#36c;fill-opacity:1;fill-rule:evenodd;stroke:none;stroke-width:2.29999995;stroke-linecap:round;stroke-linejoin:round;stroke-miterlimit:4;stroke-dasharray:none;stroke-dashoffset:0;stroke-opacity:1" transform="rotate(137.707 -.42 -2.998)"/><path d="M-87.521 394.764a318.512 318.512 0 0 1-187.292 258.593 318.512 318.512 0 0 1-317.5-33.803l187.93-257.163z" style="opacity:.98999999;fill:#69f;fill-opacity:1;fill-rule:evenodd;stroke:none;stroke-width:2.29999995;stroke-linecap:round;stroke-linejoin:round;stroke-miterlimit:4;stroke-dasharray:none;stroke-dashoffset:0;stroke-opacity:1" transform="rotate(-96.005 -3.595 -1.23)"/><circle cx="400" cy="358.29" r="148.219" style="display:inline;opacity:.98999999;fill:gold;fill-opacity:1;fill-rule:evenodd;stroke:none;stroke-width:2.29999995;stroke-linecap:round;stroke-linejoin:round;stroke-miterlimit:4;stroke-dasharray:none;stroke-dashoffset:0;stroke-opacity:1"/><circle cx="490.155" cy="430.518" r="31.219" style="display:inline;opacity:.98999999;fill:#ff0;fill-opacity:1;fill-rule:evenodd;stroke:none;stroke-width:2.29999995;stroke-linecap:round;stroke-linejoin:round;stroke-miterlimit:4;stroke-dasharray:none;stroke-dashoffset:0;stroke-opacity:1"/></g><g style="display:inline"><g style="display:inline"><g style="fill:#393a7a;fill-opacity:1;stroke:#393a7a;stroke-opacity:1"><path d="M90.353 1004.407a42.254 42.634 0 0 1-84.508 0 42.254 42.634 0 1 1 84.508 0z" style="color:#000;fill:#393a7a;fill-opacity:1;stroke:#393a7a;stroke-width:10;stroke-miterlimit:4;stroke-dasharray:none;stroke-opacity:1" transform="matrix(.8368 0 0 .8368 359.75 -796.77)"/></g><text xml:space="preserve" x="16.876" y="1029.505" style="font-style:normal;font-variant:normal;font-weight:700;font-stretch:normal;font-size:65.47499847px;line-height:125%;font-family:Sans;-inkscape-font-specification:&quot;Sans, Bold&quot;;text-align:start;letter-spacing:0;word-spacing:0;writing-mode:lr-tb;text-anchor:start;fill:#f5f5f5;fill-opacity:1;stroke:none" transform="matrix(.8368 0 0 .8368 359.75 -796.77)"><tspan x="16.876" y="1029.505">M</tspan></text></g><g style="display:inline"><g style="fill:orange;stroke:orange"><path d="M90.353 1004.407a42.254 42.634 0 0 1-84.508 0 42.254 42.634 0 1 1 84.508 0z" style="color:#000;fill:orange;stroke:orange;stroke-width:10;stroke-miterlimit:4;stroke-dasharray:none;stroke-opacity:1" transform="matrix(.87018 0 0 .87018 567.566 -573.95)"/></g><text xml:space="preserve" x="24.876" y="1029.505" style="font-style:normal;font-variant:normal;font-weight:700;font-stretch:normal;font-size:65.47507477px;line-height:125%;font-family:Sans;-inkscape-font-specification:&quot;Sans Bold&quot;;text-align:start;letter-spacing:0;word-spacing:0;writing-mode:lr-tb;text-anchor:start;fill:#f5f5f5;fill-opacity:1;stroke:none" transform="matrix(.87018 0 0 .87018 567.566 -573.95)"><tspan x="24.876" y="1029.505">P</tspan></text></g><g style="display:inline"><g style="fill:#8b0000;stroke:#8b0000;stroke-opacity:1"><path d="M90.353 1004.407a42.254 42.634 0 0 1-84.508 0 42.254 42.634 0 1 1 84.508 0z" style="color:#000;fill:orange;stroke:orange;stroke-width:10;stroke-miterlimit:4;stroke-dasharray:none;stroke-opacity:1" transform="matrix(.87204 0 0 .87204 145.457 -575.822)"/></g><text xml:space="preserve" x="22.018" y="1032.362" style="font-style:normal;font-variant:normal;font-weight:700;font-stretch:normal;font-size:65.47507477px;line-height:125%;font-family:Sans;-inkscape-font-specification:&quot;Sans Bold&quot;;text-align:start;letter-spacing:0;word-spacing:0;writing-mode:lr-tb;text-anchor:start;fill:#f5f5f5;fill-opacity:1;stroke:none" transform="matrix(.87204 0 0 .87204 145.457 -575.822)"><tspan x="22.018" y="1032.362">V</tspan></text></g><g style="display:inline"><g style="fill:orange;stroke:none"><path d="M90.353 1004.407a42.254 42.634 0 0 1-84.508 0 42.254 42.634 0 1 1 84.508 0z" style="color:#000;fill:orange;stroke:none;stroke-width:10;stroke-miterlimit:4;stroke-dasharray:none;stroke-opacity:1" transform="matrix(1.05629 0 0 1.04811 349.194 -752.67)"/></g><text xml:space="preserve" x="11.661" y="1029.148" style="font-style:normal;font-variant:normal;font-weight:700;font-stretch:normal;font-size:65.47499847px;line-height:125%;font-family:Sans;-inkscape-font-specification:&quot;Sans, Bold&quot;;text-align:start;letter-spacing:0;word-spacing:0;writing-mode:lr-tb;text-anchor:start;fill:#f5f5f5;fill-opacity:1;stroke:none" transform="matrix(.96723 0 0 .96723 353.86 -671.429)"><tspan x="11.661" y="1029.148">W</tspan></text></g><g style="display:inline"><g style="stroke:#3465a4"><path d="M90.353 1004.407a42.254 42.634 0 0 1-84.508 0 42.254 42.634 0 1 1 84.508 0z" style="color:#000;fill:orange;stroke:orange;stroke-width:10;stroke-miterlimit:4;stroke-dasharray:none;stroke-opacity:1" transform="matrix(.87018 0 0 .87018 358.145 -245.507)"/></g><text xml:space="preserve" x="25.59" y="1029.505" style="font-style:normal;font-variant:normal;font-weight:700;font-stretch:normal;font-size:65.47507477px;line-height:125%;font-family:Sans;-inkscape-font-specification:&quot;Sans Bold&quot;;text-align:start;letter-spacing:0;word-spacing:0;writing-mode:lr-tb;text-anchor:start;fill:#f5f5f5;fill-opacity:1;stroke:none" transform="matrix(.87018 0 0 .87018 358.145 -245.507)"><tspan x="25.59" y="1029.505">F</tspan></text></g><g style="display:inline"><path d="M90.353 1004.407a42.254 42.634 0 0 1-84.508 0 42.254 42.634 0 1 1 84.508 0z" style="color:#000;fill:none;stroke:#ff6500;stroke-width:10;stroke-miterlimit:4;stroke-dasharray:none;stroke-opacity:1" transform="matrix(.93824 0 0 .93824 354.871 -542.379)"/><g style="overflow:visible"><g transform="matrix(.22494 0 0 .22494 370.142 385.324)"><circle cx="102.143" cy="545.934" r="135" style="fill:url(#d);fill-opacity:1;stroke:none" transform="matrix(.34959 -.11439 .15509 .25785 -54.059 -75.42)"/><circle cx="380" cy="535.219" r="225.714" style="fill:url(#e);fill-opacity:1;stroke:none" transform="matrix(-.1616 -.17763 .17763 -.1616 31.471 156.655)"/><circle cx="102.143" cy="545.934" r="135" style="opacity:.87614698;fill:url(#f);fill-opacity:1;stroke:none" transform="matrix(.24015 0 0 .24015 27.396 -143.713)"/></g><g transform="matrix(.22494 0 0 .22494 398.852 385.324)"><circle cx="102.143" cy="545.934" r="135" style="fill:url(#g);fill-opacity:1;stroke:none" transform="matrix(.34959 -.11439 .15509 .25785 -54.059 -75.42)"/><circle cx="380" cy="535.219" r="225.714" style="fill:url(#h);fill-opacity:1;stroke:none" transform="matrix(-.1616 -.17763 .17763 -.1616 31.471 156.655)"/><circle cx="102.143" cy="545.934" r="135" style="opacity:.87614698;fill:url(#i);fill-opacity:1;stroke:none" transform="matrix(.24015 0 0 .24015 27.396 -143.713)"/></g><g transform="matrix(.22494 0 0 .22494 398.852 413.078)"><circle cx="102.143" cy="545.934" r="135" style="fill:url(#j);fill-opacity:1;stroke:none" transform="matrix(.34959 -.11439 .15509 .25785 -54.059 -75.42)"/><circle cx="380" cy="535.219" r="225.714" style="fill:url(#k);fill-opacity:1;stroke:none" transform="matrix(-.1616 -.17763 .17763 -.1616 31.471 156.655)"/><circle cx="102.143" cy="545.934" r="135" style="opacity:.87614698;fill:url(#l);fill-opacity:1;stroke:none" transform="matrix(.24015 0 0 .24015 27.396 -143.713)"/></g><g transform="matrix(.22494 0 0 .22494 370.142 413.078)"><circle cx="102.143" cy="545.934" r="135" style="fill:url(#m);fill-opacity:1;stroke:none" transform="matrix(.34959 -.11439 .15509 .25785 -54.059 -75.42)"/><circle cx="380" cy="535.219" r="225.714" style="fill:url(#n);fill-opacity:1;stroke:none" transform="matrix(-.1616 -.17763 .17763 -.1616 31.471 156.655)"/><circle cx="102.143" cy="545.934" r="135" style="opacity:.87614698;fill:url(#o);fill-opacity:1;stroke:none" transform="matrix(.24015 0 0 .24015 27.396 -143.713)"/></g></g></g><path d="M227.779 501.024a.397.397 0 0 0-.108.023c-2.22.813-12.958 10.724-15.404 12.198-5.394 3.25-10.987 5.76-14.257 6.13-6.977.788-7.54.335-13.093.497-5.553.163-15.597-1.78-16.231.008-.635 1.788-.158 7.147.635 9.91s3.138 10.744 5.487 15.221c.655 1.25 3.611 7.128 7.606 13.675 3.996 6.548 10.153 12.389 12.275 14.502 4.244 4.225 10.138 7.907 11.486 8.395 2.697.975 11.368 3.953 16.92 2.165 5.553-1.788 10.362-5.78 10.997-7.568.317-.894 3.252-7.209 4.492-14.456 1.24-7.247.786-15.426.627-17.295-.317-3.737-1.108-17.21-2.219-21.274-1.093-3.999-6.913-22.334-9.213-22.13zm-7.905 23.088c4.066-.035 8.665 3.735 8.984 3.895l-15.237 6.581c.249-8.122 3.09-10.45 6.253-10.476zM198.4 534.848c4.066-.034 8.665 3.736 8.984 3.895l-15.237 6.581c.249-8.121 3.09-10.45 6.253-10.476zm31.865 17.058c.147-.01.297.002.451.038 1.977.465 1.42 6.945.253 10.767-1.816 5.95-5.33 9.136-8.456 9.872-2.89.68-6.135.35-11.127-2.908-7.158-4.671-10.75-9.26-9.137-10.079 2.12-1.074 11.227 4.295 17.578 2.801 5.724-1.346 7.446-10.322 10.438-10.491zM364.936 59.488a.406.406 0 0 0-.107.023c-2.221.813-12.959 10.725-15.405 12.199-5.394 3.25-10.987 5.76-14.257 6.13-6.977.788-7.54.334-13.093.497-5.553.162-15.597-1.78-16.231.007-.635 1.788-.158 7.148.635 9.91.793 2.763 3.138 10.744 5.487 15.221.656 1.25 3.611 7.128 7.606 13.675 3.996 6.548 10.153 12.39 12.275 14.502 4.244 4.225 10.138 7.907 11.487 8.395 2.696.975 11.367 3.953 16.92 2.165 5.552-1.787 10.361-5.78 10.996-7.568.317-.894 3.252-7.209 4.492-14.456 1.24-7.246.786-15.425.628-17.294-.318-3.738-1.11-17.211-2.22-21.274-1.093-4-6.913-22.335-9.213-22.132zm-7.905 23.088c4.066-.034 8.665 3.736 8.984 3.895l-15.236 6.581c.248-8.121 3.089-10.45 6.252-10.476zm-21.473 10.737c4.066-.035 8.665 3.735 8.984 3.895l-15.236 6.58c.248-8.12 3.089-10.449 6.252-10.475zm31.865 17.057c.147-.009.297.002.451.038 1.977.465 1.42 6.945.253 10.768-1.816 5.949-5.33 9.136-8.456 9.871-2.89.68-6.135.35-11.127-2.908-7.158-4.67-10.75-9.26-9.137-10.078 2.12-1.075 11.228 4.295 17.578 2.8 5.724-1.346 7.446-10.321 10.438-10.49z" style="display:inline;fill:#f0f;fill-opacity:1;fill-rule:evenodd;stroke:none" transform="translate(0 41.71)"/><g style="display:inline"><path d="M-209.608 140.746c-.15.014-.296.042-.438.094-9.07 3.318-52.918 43.793-62.906 49.813-22.026 13.273-44.866 23.522-58.219 25.03-28.493 3.222-30.795 1.368-53.469 2.032-22.674.664-63.69-7.269-66.281.031-2.591 7.3-.645 29.187 2.594 40.47 3.239 11.281 12.816 43.87 22.406 62.155 2.678 5.105 14.748 29.106 31.063 55.844 16.314 26.738 41.46 50.591 50.125 59.219 17.329 17.255 41.4 32.29 46.906 34.281 11.013 3.982 46.42 16.144 69.094 8.844 22.673-7.3 42.314-23.606 44.906-30.906 1.295-3.65 13.279-29.439 18.344-59.032 5.064-29.593 3.21-62.992 2.562-70.625-1.296-15.264-4.528-70.283-9.062-86.875-4.464-16.332-28.233-91.204-37.625-90.375zm-32.282 94.282c16.607-.14 35.387 15.254 36.688 15.906l-62.219 26.875c1.015-33.165 12.615-42.673 25.531-42.781zm-87.687 43.843c16.606-.14 35.386 15.255 36.687 15.907l-62.218 26.875c1.015-33.166 12.614-42.673 25.53-42.782zm130.125 69.657c.6-.034 1.215.008 1.844.156 8.072 1.899 5.794 28.36 1.03 43.969-7.414 24.295-21.762 37.308-34.53 40.312-11.8 2.776-25.051 1.43-45.438-11.875-29.23-19.074-43.9-37.817-37.312-41.156 8.658-4.389 45.85 17.538 71.78 11.437 23.376-5.499 30.41-42.15 42.626-42.843z" style="fill:#f0f;fill-opacity:1;fill-rule:evenodd;stroke:none" transform="matrix(.19027 0 0 .19027 437.253 702.495)"/><path d="M-90.817 149.188c-.1 0-.215.012-.313.031-6.27 1.232-21.193 13.137-28 21.156-6.807 8.02-26.385 31.34-35.687 48-2.598 4.652-14.997 26.08-27.688 52.375-12.69 26.296-19.821 58.708-22.562 70.063-5.483 22.71-6.702 50.075-5.938 55.656 1.528 11.162 6.92 46.749 21.188 62.469 14.268 15.72 33.822 24.67 40.093 23.437 3.136-.616 26.372-2.6 49.625-12.187 23.254-9.586 46.5-26.785 51.719-30.906 10.438-8.244 48.618-36.745 58.719-48.344 10.1-11.6 55.649-68.305 49.656-74.406-5.993-6.102-52.515-24.17-60.812-29.782-18.297-12.375-34.756-26.873-41.157-37.437-13.657-22.543-13.213-25.328-22.718-44.156-9.357-18.535-19.82-55.979-26.125-55.97zm-12.094 120.594c26.867-.349 19.364 46.91 19.437 48.937l-44.062-39.969c10.373-6.29 18.425-8.888 24.625-8.968zm66.375 53.468c26.867-.348 19.364 46.91 19.437 48.938L-61.16 332.25c10.373-6.29 18.425-8.92 24.625-9zm-102.438 39.313c12.7-.025 22.172 4.562 27.407 10.844 6.449 7.74 10.627 18.298 9.25 39.25-1.975 30.038-9.319 48.946-14.157 45.375-6.359-4.695-5.483-41.896-19.656-58.907-13.404-16.087-43.6-4.286-46.562-15.718-1.785-6.886 17.374-16.247 30-19.188 4.912-1.144 9.485-1.648 13.718-1.656z" style="fill:#a40000;fill-opacity:1;fill-rule:evenodd;stroke:none" transform="matrix(.19027 0 0 .19027 437.253 702.495)"/></g><path d="M660.473 397.622a.446.446 0 0 0-.089.009c-1.782.35-6.023 3.733-7.957 6.012-1.934 2.279-7.498 8.906-10.141 13.64-.739 1.322-4.262 7.412-7.869 14.884-3.606 7.473-5.632 16.684-6.411 19.91-1.558 6.454-1.905 14.23-1.688 15.817.435 3.172 1.967 13.285 6.021 17.752 4.055 4.467 9.612 7.01 11.394 6.66.891-.175 7.494-.739 14.102-3.463 6.609-2.724 13.214-7.612 14.698-8.783 2.966-2.342 13.816-10.442 16.686-13.738 2.87-3.296 15.814-19.41 14.111-21.145-1.703-1.733-14.923-6.868-17.281-8.463-5.2-3.517-9.877-7.636-11.696-10.639-3.881-6.406-3.755-7.197-6.456-12.548-2.659-5.267-5.632-15.908-7.424-15.905zm-3.437 34.27c7.635-.099 5.503 13.33 5.524 13.907l-12.522-11.358c2.948-1.788 5.236-2.526 6.998-2.549zm18.862 15.195c7.636-.1 5.503 13.33 5.524 13.907l-12.521-11.35c2.948-1.787 5.236-2.535 6.997-2.557zm-29.11 11.171c3.61-.007 6.3 1.297 7.788 3.082 1.833 2.2 3.02 5.2 2.629 11.154-.561 8.536-2.648 13.91-4.023 12.894-1.807-1.334-1.558-11.905-5.586-16.74-3.809-4.571-12.39-1.218-13.232-4.466-.507-1.957 4.938-4.617 8.526-5.453a17.309 17.309 0 0 1 3.898-.47z" style="display:inline;fill:#a40000;fill-opacity:1;fill-rule:evenodd;stroke:none" transform="translate(0 41.71)"/><g style="display:inline"><g style="fill:orange;stroke:orange"><path d="M90.353 1004.407a42.254 42.634 0 0 1-84.508 0 42.254 42.634 0 1 1 84.508 0z" style="color:#000;fill:orange;stroke:orange;stroke-width:10;stroke-miterlimit:4;stroke-dasharray:none;stroke-opacity:1" transform="matrix(.39079 0 0 .39079 472.79 70.627)"/></g><text xml:space="preserve" x="24.876" y="1029.505" style="font-style:normal;font-variant:normal;font-weight:700;font-stretch:normal;font-size:65.47499847px;line-height:125%;font-family:Sans;-inkscape-font-specification:&quot;Sans, Bold&quot;;text-align:start;letter-spacing:0;word-spacing:0;writing-mode:lr-tb;text-anchor:start;fill:#f5f5f5;fill-opacity:1;stroke:none" transform="matrix(.39079 0 0 .39079 472.79 70.627)"><tspan x="24.876" y="1029.505">B</tspan></text></g></g><g style="display:inline"><text xml:space="preserve" x="359.039" y="325.421" style="font-style:normal;font-variant:normal;font-weight:400;font-stretch:normal;font-size:16.55632401px;line-height:100%;font-family:&quot;DejaVu Sans Mono&quot;;-inkscape-font-specification:&quot;DejaVu Sans Mono, Normal&quot;;text-align:start;letter-spacing:0;word-spacing:0;writing-mode:lr-tb;text-anchor:start;fill:#000;fill-opacity:1;stroke:none;stroke-width:1px;stroke-linecap:butt;stroke-linejoin:miter;stroke-opacity:1" transform="translate(6.288 32.778)"><tspan x="359.039" y="325.421">WORDNET</tspan></text><text xml:space="preserve" x="353.118" y="656.682" style="font-style:normal;font-variant:normal;font-weight:400;font-stretch:normal;font-size:16.55632401px;line-height:100%;font-family:&quot;DejaVu Sans Mono&quot;;-inkscape-font-specification:&quot;DejaVu Sans Mono, Normal&quot;;text-align:start;letter-spacing:0;word-spacing:0;writing-mode:lr-tb;text-anchor:start;fill:#fff;fill-opacity:1;stroke:none;stroke-width:1px;stroke-linecap:butt;stroke-linejoin:miter;stroke-opacity:1" transform="translate(6.288 32.778)"><tspan x="353.118" y="656.682">FRAMENET</tspan></text><text xml:space="preserve" x="144.666" y="216.641" style="font-style:normal;font-variant:normal;font-weight:400;font-stretch:normal;font-size:16.55632401px;line-height:100%;font-family:&quot;DejaVu Sans Mono&quot;;-inkscape-font-specification:&quot;DejaVu Sans Mono, Normal&quot;;text-align:start;letter-spacing:0;word-spacing:0;writing-mode:lr-tb;text-anchor:start;fill:#fff;fill-opacity:1;stroke:none;stroke-width:1px;stroke-linecap:butt;stroke-linejoin:miter;stroke-opacity:1" transform="translate(6.288 32.778)"><tspan x="144.666" y="216.641">VERBNET</tspan></text><text xml:space="preserve" x="470.46" y="464.472" style="font-style:normal;font-variant:normal;font-weight:400;font-stretch:normal;font-size:16.55632401px;line-height:100%;font-family:&quot;DejaVu Sans Mono&quot;;-inkscape-font-specification:&quot;DejaVu Sans Mono, Normal&quot;;text-align:start;letter-spacing:0;word-spacing:0;writing-mode:lr-tb;text-anchor:start;fill:#a9a9a9;fill-opacity:1;stroke:none;stroke-width:1px;stroke-linecap:butt;stroke-linejoin:miter;stroke-opacity:1" transform="translate(6.288 32.778)"><tspan x="470.46" y="464.472">BNC</tspan></text><text xml:space="preserve" x="557.055" y="216.633" style="font-style:normal;font-variant:normal;font-weight:400;font-stretch:normal;font-size:16.55632401px;line-height:100%;font-family:&quot;DejaVu Sans&quot;;-inkscape-font-specification:&quot;DejaVu Sans, Normal&quot;;text-align:start;letter-spacing:0;word-spacing:0;writing-mode:lr-tb;text-anchor:start;fill:#fff;fill-opacity:1;stroke:none;stroke-width:1px;stroke-linecap:butt;stroke-linejoin:miter;stroke-opacity:1" transform="translate(6.288 32.778)"><tspan x="557.055" y="216.633">PROPBANK</tspan></text><text xml:space="preserve" x="313.534" y="54.032" style="font-style:normal;font-variant:normal;font-weight:400;font-stretch:normal;font-size:16.55632401px;line-height:100%;font-family:&quot;DejaVu Sans&quot;;-inkscape-font-specification:&quot;DejaVu Sans, Normal&quot;;text-align:start;letter-spacing:0;word-spacing:0;writing-mode:lr-tb;text-anchor:start;fill:#fff;fill-opacity:1;stroke:none;stroke-width:1px;stroke-linecap:butt;stroke-linejoin:miter;stroke-opacity:1" transform="translate(6.288 32.778)"><tspan x="313.534" y="54.032">PREDICATE MATRIX</tspan></text></g></svg>