<svg xmlns="http://www.w3.org/2000/svg" width="1000" height="1066.667"><g style="fill:gray;fill-opacity:1"><path d="M0 0a.996.996 0 0 1-.391.182 2.119 2.119 0 0 1-.476.052c-.169 0-.329-.017-.48-.052A.996.996 0 0 1-1.742 0a.891.891 0 0 1-.264-.342 1.293 1.293 0 0 1-.097-.533c0-.209.033-.385.097-.528a.89.89 0 0 1 .264-.346c.112-.087.243-.15.395-.186a2 2 0 0 1 .48-.056c.168 0 .327.019.476.056a.928.928 0 0 1 .66.532c.065.143.099.32.099.528 0 .214-.034.39-.1.533A.93.93 0 0 1 0 0" style="fill:gray;fill-opacity:1;fill-rule:nonzero;stroke:none;stroke-width:1.06666672" transform="matrix(38.8181 0 0 -38.8181 547.349 301.259)"/></g><path d="M463.875 752.948h88.153V429.94h-88.153z" style="fill:gray;fill-opacity:1;fill-rule:nonzero;stroke:none;stroke-width:1.06666672"/><g style="fill:silver;fill-opacity:1"><path d="M.227.568c-5.253 0-9.526 4.273-9.526 9.527 0 5.253 4.273 9.527 9.526 9.527s9.527-4.274 9.527-9.527C9.754 4.841 5.48.568.227.568m0 20.663c-6.14 0-11.134-4.996-11.134-11.136 0-6.14 4.994-11.136 11.134-11.136 6.14 0 11.135 4.996 11.135 11.136 0 6.14-4.995 11.136-11.135 11.136" style="fill:gray;fill-opacity:1;fill-rule:nonzero;stroke:none;stroke-width:.06320076;stroke-miterlimit:4;stroke-dasharray:none" transform="matrix(38.8181 0 0 -38.8181 502.275 907.773)"/></g></svg>