<?xml version="1.0" encoding="UTF-8" standalone="no"?>
<svg xmlns:dc="http://purl.org/dc/elements/1.1/" xmlns:cc="http://creativecommons.org/ns#" xmlns:rdf="http://www.w3.org/1999/02/22-rdf-syntax-ns#" xmlns:svg="http://www.w3.org/2000/svg" xmlns="http://www.w3.org/2000/svg"
	xmlns:sodipodi="http://sodipodi.sourceforge.net/DTD/sodipodi-0.dtd" xmlns:inkscape="http://www.inkscape.org/namespaces/inkscape" height="1000" width="937.5" id="svg2" version="1.1" inkscape:version="0.91 r13725"
	sodipodi:docname="ic_download_source.svg">
	<metadata id="metadata10">
		<rdf:RDF>
			<cc:Work rdf:about="">
				<dc:format>image/svg+xml</dc:format>
				<dc:type rdf:resource="http://purl.org/dc/dcmitype/StillImage" />
			</cc:Work>
		</rdf:RDF>
	</metadata>
	<defs id="defs8">
		<clipPath id="clipPath980">
			<path id="path982" inkscape:connector-curvature="0" d="m 5.38916,28.1929 21.80814,0 0,-24.32864 -21.80814,0 0,24.32864 z" />
		</clipPath>
		<clipPath id="clipPath46">
			<path id="path48" inkscape:connector-curvature="0" d="M 0,32 32,32 32,0 0,0 0,32 z" />
		</clipPath>
	</defs>
	<sodipodi:namedview pagecolor="#ffffff" bordercolor="#666666" borderopacity="1" objecttolerance="10" gridtolerance="10" guidetolerance="10" inkscape:pageopacity="0" inkscape:pageshadow="2" inkscape:window-width="1320" inkscape:window-height="1148"
		id="namedview6" showgrid="false" inkscape:zoom="0.059" inkscape:cx="-1155.4175" inkscape:cy="1992.5522" inkscape:window-x="324" inkscape:window-y="24" inkscape:window-maximized="0" inkscape:current-layer="svg2" />
	<path style="fill:#050708;fill-opacity:1;stroke-width:0.2;stroke-linejoin:round" inkscape:connector-curvature="0"
		d="m 738.62496,713.83737 -484.13133,0 c -82.26591,0 -148.9647,-66.69844 -148.9647,-148.96347 0,-82.26521 66.69879,-148.96364 148.9647,-148.96364 l 26.51556,0 c 24.35447,-85.91482 103.19475,-148.96365 196.92886,-148.96365 113.10189,0 204.82493,91.6871 204.82493,204.82492 l 0,18.62054 55.86198,0 c 61.70859,0 111.72222,50.0145 111.72222,111.72275 0,61.70805 -50.01363,111.72255 -111.72222,111.72255 z M 751.84611,417.25085 C 726.48522,289.10494 613.53334,192.46478 477.93805,192.46478 370.238,192.46478 276.94866,253.50255 230.32404,342.76904 118.30356,354.83517 31.047468,449.6132 31.047468,564.8739 c 0,123.4163 100.028992,223.4453 223.446162,223.4453 l 484.13133,0 c 102.82148,0 186.20544,-83.34505 186.20544,-186.20438 0,-98.31601 -76.45593,-177.97432 -172.98429,-184.86397 z"
		id="path5959" />
</svg>
