<svg xmlns="http://www.w3.org/2000/svg" width="1000" height="1066.667"><g style="fill:gray;fill-opacity:1"><path d="M0 0c0 .46.066.85.198 1.17.133.317.316.574.552.77.235.197.512.338.83.427.319.087.659.132 1.022.132.343 0 .67-.045.978-.132.308-.089.58-.23.816-.427a2.04 2.04 0 0 0 .558-.77C5.09.85 5.159.46 5.159 0c0-.442-.068-.82-.205-1.133a2.198 2.198 0 0 0-.558-.78 2.21 2.21 0 0 0-.816-.448 3.377 3.377 0 0 0-.978-.14c-.363 0-.703.048-1.021.14a2.183 2.183 0 0 0-.831.448c-.236.206-.42.468-.552.78C.066-.819 0-.442 0 0m.485 5.028v1.087c0 .5.052.954.155 1.36.102.408.26.794.47 1.162.21.367.483.725.815 1.073.334.348.736.708 1.207 1.08.411.324.76.613 1.043.869.285.254.514.506.691.757.176.25.304.51.382.785.079.275.118.594.118.956 0 .559-.19 1.02-.566 1.382-.378.363-.954.544-1.728.544-.675 0-1.404-.142-2.183-.425a24.459 24.459 0 0 1-2.419-1.045l-1.498 3.25a15.389 15.389 0 0 0 2.917 1.286c.534.17 1.076.306 1.625.404.549.098 1.088.147 1.618.147 1 0 1.9-.12 2.704-.36.804-.24 1.486-.59 2.043-1.05.56-.462.988-1.022 1.287-1.678.3-.657.449-1.406.449-2.248 0-.618-.07-1.17-.206-1.655a4.98 4.98 0 0 0-.609-1.352 6.72 6.72 0 0 0-1.015-1.206 21.89 21.89 0 0 0-1.42-1.227 17.008 17.008 0 0 1-1.007-.846 4.132 4.132 0 0 1-.61-.683 2.008 2.008 0 0 1-.301-.67 3.633 3.633 0 0 1-.081-.815v-.882Z" style="fill:gray;fill-opacity:1;fill-rule:nonzero;stroke:none;stroke-width:1.06666672" transform="matrix(40.10492 0 0 -40.10492 381.185 869.718)"/></g></svg>