<svg xmlns="http://www.w3.org/2000/svg" xmlns:xlink="http://www.w3.org/1999/xlink" width="128" height="128" version="1.0"><defs><linearGradient id="b"><stop offset="0" style="stop-color:#f07836;stop-opacity:1"/><stop offset="1" style="stop-color:white;stop-opacity:1"/></linearGradient><linearGradient id="a"><stop offset="0" style="stop-color:#545454;stop-opacity:1"/><stop offset=".946" style="stop-color:#545454;stop-opacity:1"/><stop offset="1" style="stop-color:#c5c5c5;stop-opacity:0"/></linearGradient><radialGradient xlink:href="#a" id="c" cx="62.984" cy="65.016" r="54.18" fx="62.984" fy="65.016" gradientTransform="matrix(1.05787 0 0 1.11814 -2.985 -11.45)" gradientUnits="userSpaceOnUse"/></defs><path d="M120.96 61.246a57.315 60.58 0 0 1-114.632 0 57.315 60.58 0 1 1 114.631 0z" style="fill:url(#c);fill-opacity:1;fill-rule:nonzero;stroke:none"/><path d="M127.27 64.037a61.899 62.545 0 0 1-123.796 0 61.899 62.545 0 1 1 123.797 0z" style="fill:orange;fill-opacity:1;fill-rule:nonzero;stroke:none"/><path d="M128.398 64.864C128.604 29.737 100.32 1.118 65.192.912 30.064.705 1.445 28.99 1.239 64.118c-.206 35.127 28.078 63.746 63.206 63.953 35.128.206 63.747-28.079 63.953-63.207zm-15.895-.093-47.965 47.405.187-31.79-47.685-.28.187-31.79 47.685.28.187-31.79 47.404 47.965z" style="fill:#696969"/></svg>