<?xml version="1.0" encoding="UTF-8" standalone="no"?><!-- Generator: Adobe Illustrator 14.0.0, SVG Export Plug-In . SVG Version: 6.00 Build 43363)  -->

<svg xmlns:dc="http://purl.org/dc/elements/1.1/" xmlns:cc="http://creativecommons.org/ns#" xmlns:rdf="http://www.w3.org/1999/02/22-rdf-syntax-ns#" xmlns="http://www.w3.org/2000/svg" xmlns:sodipodi="http://sodipodi.sourceforge.net/DTD/sodipodi-0.dtd"
	xmlns:inkscape="http://www.inkscape.org/namespaces/inkscape" version="1.1" x="0px" y="0px" width="64" height="64" viewBox="0 0 64 64" enable-background="new 0 0 780 650" xml:space="preserve" id="svg4433" inkscape:version="0.91 r13725" sodipodi:docname="ic_roles2.svg"><metadata
     id="metadata5887"><rdf:RDF><cc:Work
         rdf:about=""><dc:format>image/svg+xml</dc:format><dc:type rdf:resource="http://purl.org/dc/dcmitype/StillImage" /></cc:Work></rdf:RDF></metadata>
	<defs id="defs5885" />
	<sodipodi:namedview pagecolor="#ffffff" bordercolor="#666666" borderopacity="1" objecttolerance="10" gridtolerance="10" guidetolerance="10" inkscape:pageopacity="0" inkscape:pageshadow="2" inkscape:window-width="1292" inkscape:window-height="767"
		id="namedview5883" showgrid="false" inkscape:zoom="3.846951" inkscape:cx="-23.132572" inkscape:cy="30.710766" inkscape:window-x="531" inkscape:window-y="359" inkscape:window-maximized="0" inkscape:current-layer="svg4433" />
	<g id="Notification" transform="translate(-465.46203,-385.40339)" />
	<path style="fill:#a9a9a9;fill-opacity:1;fill-rule:evenodd;stroke:none"
		d="m 28.967046,0.96303845 c -0.03619,-0.0057 -0.07068,-0.0023 -0.103515,0.0098 -1.050684,0.38587005 -6.131903,5.09105905 -7.289063,5.79101605 -2.551662,1.5434777 -5.197234,2.7346403 -6.74414,2.9101553 -3.300815,0.3745112 -3.564697,0.161108 -6.1914072,0.238281 -2.626712,0.07717 -7.379492,-0.8469876 -7.67968697,0.002 -0.300196,0.8489132 -0.07642,3.3950732 0.29882797,4.7070312 0.375245,1.311956 1.484714,5.102302 2.595703,7.228516 0.310182,0.593627 1.709554,3.381067 3.59961,6.490235 1.89005,3.109166 4.8028622,5.88541 5.8066402,6.888672 2.007558,2.006522 4.795678,3.756759 5.433594,3.988281 1.275831,0.463043 5.381101,1.876258 8.007812,1.027344 2.626712,-0.848913 4.900977,-2.74679 5.201172,-3.595703 0.150098,-0.424457 1.536313,-3.422087 2.123047,-6.863281 0.586734,-3.441195 0.373876,-7.325391 0.298828,-8.212892 -0.150099,-1.775 -0.525439,-8.170261 -1.050781,-10.099609 C 32.764762,9.6038288 30.08898,1.1394085 28.967046,0.96311945 Z M 25.174078,11.923976 c 1.923846,-0.01624 4.101235,1.773832 4.251953,1.849609 l -7.208985,3.125 c 0.117624,-3.856614 1.460706,-4.961984 2.957032,-4.974609 z m -10.158203,5.097656 c 1.923845,-0.01624 4.101235,1.773832 4.251953,1.849609 l -7.208985,3.125 c 0.117624,-3.856614 1.460706,-4.961982 2.957032,-4.974609 z m 15.007812,8.107422 c 0.09156,-0.01413 0.184205,-0.0092 0.28125,0.01367 0.935136,0.220829 0.672937,3.294307 0.121094,5.109375 -0.858932,2.82512 -2.522743,4.340142 -4.001953,4.689454 -1.367021,0.322817 -2.901906,0.1662 -5.263672,-1.38086 -3.386138,-2.218065 -5.085332,-4.39884 -4.322266,-4.787109 1.00302,-0.510361 5.308395,2.039487 8.3125,1.330078 2.663552,-0.628988 3.4997,-4.762587 4.873047,-4.97461 z"
		id="path2202" inkscape:connector-curvature="0" />
	<g id="g8093" transform="translate(101.379,17.676336)"><path
       id="path2995"
       d="m -62.138672,-0.296875 c -0.999381,0.166941 -3.382017,1.7787654 -4.466797,2.8652344 -1.084779,1.086468 -4.204931,4.2506035 -5.6875,6.5078125 -0.413925,0.6302 -2.389565,3.5329211 -4.412109,7.0957031 -2.022544,3.562781 -3.156902,7.951731 -3.59375,9.490234 -0.873694,3.077006 -1.067066,6.78489 -0.945313,7.541016 0.243507,1.512252 1.10307,6.336929 3.376953,8.466797 2.273888,2.12987 5.385385,3.338816 6.384766,3.171875 0.49969,-0.08347 4.208135,-0.351565 7.914063,-1.650391 3.705927,-1.298827 7.410419,-3.627093 8.242187,-4.185547 1.663533,-1.116908 7.747649,-4.979183 9.357422,-6.550781 1.609774,-1.571597 8.865253,-9.255353 7.910156,-10.082031 -0.955095,-0.826676 -8.365163,-3.276733 -9.6875,-4.037109 -2.915896,-1.676712 -5.538551,-3.636993 -6.558594,-5.06836 -2.176585,-3.054275 -2.11014,-3.4333209 -3.625,-5.9843749 -1.514859,-2.551055 -3.209602,-7.7470191 -4.208984,-7.5800781 z m -1.882812,16.335937 c 4.281826,-0.04723 3.089954,6.354246 3.101562,6.628907 l -7.021484,-5.41211 c 1.653222,-0.852285 2.931808,-1.205898 3.919922,-1.216797 z m 10.580078,7.246094 c 4.281826,-0.04723 3.088001,6.354247 3.099609,6.628906 l -7.021484,-5.412109 c 1.653222,-0.852286 2.933761,-1.205898 3.921875,-1.216797 z m -16.322266,5.324219 c 2.023998,-0.0034 3.533029,0.61956 4.367188,1.470703 1.027854,1.048786 1.690235,2.477716 1.470703,5.316406 -0.314744,4.069918 -1.484863,6.634319 -2.25586,6.150391 -1.013443,-0.636106 -0.870138,-5.679609 -3.128906,-7.984375 -2.136221,-2.179729 -6.953502,-0.57992 -7.425781,-2.128906 -0.284431,-0.932886 2.771136,-2.199198 4.783203,-2.597656 0.782936,-0.155049 1.514787,-0.22543 2.189453,-0.226563 z"
       style="fill:#d3d3d3;fill-opacity:1;fill-rule:evenodd;stroke:#c0c0c0;stroke-width:0.13079691"
       inkscape:connector-curvature="0" /></g></svg>