<svg xmlns="http://www.w3.org/2000/svg" width="128" height="128" version="1.0"><path d="M110.055 70.335c.245-1.924.43-3.847.43-5.89 0-2.044-.185-3.967-.43-5.89l12.94-9.917c1.165-.901 1.472-2.524.736-3.846l-12.266-20.795c-.736-1.322-2.391-1.803-3.74-1.322l-15.27 6.01c-3.19-2.404-6.624-4.387-10.365-5.89L79.76 6.868c-.184-1.442-1.472-2.524-3.005-2.524H52.224c-1.533 0-2.821 1.082-3.005 2.524l-2.33 15.927c-3.741 1.503-7.176 3.546-10.365 5.89l-15.27-6.01c-1.41-.541-3.005 0-3.74 1.322L5.247 44.792c-.797 1.322-.43 2.945.736 3.846l12.94 9.917c-.246 1.923-.43 3.907-.43 5.89 0 1.983.184 3.966.43 5.89L5.984 80.25c-1.165.902-1.472 2.525-.736 3.847l12.265 20.795c.736 1.322 2.392 1.803 3.741 1.322l15.27-6.01c3.19 2.404 6.624 4.387 10.365 5.89l2.33 15.926c.184 1.443 1.472 2.525 3.005 2.525h24.53c1.534 0 2.822-1.082 3.006-2.525l2.33-15.926c3.74-1.503 7.175-3.546 10.364-5.89l15.27 6.01c1.411.54 3.005 0 3.741-1.322l12.266-20.795c.736-1.322.429-2.945-.736-3.847l-12.94-9.916zM64.489 85.48c-11.836 0-21.464-9.436-21.464-21.035 0-11.6 9.628-21.035 21.464-21.035 11.836 0 21.465 9.435 21.465 21.035S76.325 85.48 64.489 85.48z" style="fill:#fff"/></svg>