<svg xmlns="http://www.w3.org/2000/svg" xml:space="preserve" width="64" height="64"><path d="M31.882 1.339a.214.214 0 0 0-.114.012c-1.148.441-6.7 5.825-7.965 6.626-2.788 1.767-5.679 3.132-7.37 3.333-3.606.429-3.894.183-6.764.271-2.87.088-8.063-.969-8.39.003-.329.971-.083 3.887.327 5.388.41 1.502 1.622 5.838 2.836 8.272.339.68 1.866 3.87 3.932 7.429 2.065 3.558 5.247 6.735 6.344 7.883 2.193 2.297 5.24 4.299 5.937 4.564 1.394.53 5.88 2.148 8.75 1.176 2.87-.971 5.356-3.143 5.684-4.115.164-.486 1.678-3.917 2.319-7.856.64-3.938.409-8.383.327-9.4-.164-2.03-.574-9.35-1.148-11.558-.556-2.14-3.48-11.826-4.705-12.028Zm-4.146 12.544c2.102-.02 4.482 2.031 4.646 2.118l-7.877 3.576c.129-4.414 1.596-5.68 3.231-5.694zm-11.098 5.835c2.102-.019 4.48 2.031 4.645 2.118l-7.876 3.576c.129-4.414 1.596-5.68 3.231-5.694zm16.396 9.28a.765.765 0 0 1 .31.014c1.021.253.732 3.772.13 5.85-.94 3.233-2.757 4.965-4.373 5.365-1.493.37-3.169.19-5.75-1.58-3.7-2.538-5.556-5.033-4.723-5.477 1.096-.585 5.802 2.332 9.084 1.52 2.91-.72 3.822-5.449 5.322-5.691z" style="fill:#d3d3d3;fill-opacity:1;fill-rule:evenodd;stroke:none"/><g style="fill:#d3d3d3"><path d="M-267.89 25.816h-24.352c-.583 0-1.06.477-1.06 1.059v6.352c0 .584.477 1.06 1.06 1.06h24.353c.582 0 1.059-.476 1.059-1.06v-6.352a1.063 1.063 0 0 0-1.06-1.06zm-36 8.471h6.355c.582 0 1.059-.477 1.059-1.061v-6.352c0-.582-.477-1.06-1.06-1.06h-6.353c-.582 0-1.06.478-1.06 1.06v6.352c0 .584.478 1.06 1.06 1.06zm36 3.529h-24.352c-.583 0-1.06.477-1.06 1.059v6.352c0 .584.477 1.06 1.06 1.06h24.353c.582 0 1.059-.476 1.059-1.06v-6.352a1.063 1.063 0 0 0-1.06-1.06zm0 12h-24.352c-.583 0-1.06.477-1.06 1.059v6.352c0 .584.477 1.06 1.06 1.06h24.353c.582 0 1.059-.476 1.059-1.06v-6.352a1.063 1.063 0 0 0-1.06-1.06z" style="fill:#d3d3d3" transform="matrix(.59275 0 0 .46584 220.706 24.258)"/><path d="M59.137 38.94H23.16c-.861 0-1.566.477-1.566 1.06v6.351c0 .584.705 1.061 1.566 1.061h35.978c.86 0 1.565-.477 1.565-1.06v-6.353c-.002-.582-.705-1.059-1.565-1.059zM5.952 47.411h9.387c.86 0 1.565-.477 1.565-1.06v-6.353c0-.582-.705-1.059-1.565-1.059H5.952c-.86 0-1.565.477-1.565 1.06v6.351c0 .584.705 1.061 1.565 1.061zm53.185 3.529H23.16c-.861 0-1.566.477-1.566 1.06v6.351c0 .584.705 1.061 1.566 1.061h35.978c.86 0 1.565-.477 1.565-1.06v-6.353c-.002-.582-.705-1.059-1.565-1.059z" style="fill:#d3d3d3" transform="matrix(.40122 0 0 .46584 38.188 34.914)"/></g></svg>