<svg xmlns="http://www.w3.org/2000/svg" xml:space="preserve" width="64" height="64"><path d="M31.76 1.662a.214.214 0 0 0-.113.012c-1.148.441-6.7 5.825-7.965 6.626-2.788 1.767-5.68 3.132-7.37 3.333-3.606.429-3.894.183-6.764.271-2.87.088-8.063-.969-8.39.003-.329.972-.084 3.887.326 5.388.41 1.502 1.623 5.838 2.837 8.272.339.68 1.866 3.87 3.931 7.429 2.066 3.558 5.248 6.735 6.345 7.883 2.193 2.297 5.24 4.299 5.937 4.564 1.394.53 5.88 2.148 8.75 1.176 2.87-.971 5.356-3.143 5.684-4.115.164-.486 1.677-3.917 2.318-7.855.642-3.939.41-8.384.328-9.4-.164-2.032-.574-9.35-1.149-11.56-.556-2.138-3.479-11.825-4.704-12.027Zm-4.145 12.544c2.102-.019 4.482 2.031 4.646 2.118L24.384 19.9c.129-4.414 1.596-5.68 3.231-5.694zM16.517 20.04c2.102-.019 4.48 2.032 4.645 2.118l-7.876 3.576c.129-4.414 1.596-5.68 3.23-5.694zm16.396 9.28a.765.765 0 0 1 .31.014c1.02.253.732 3.772.13 5.85-.94 3.233-2.757 4.965-4.373 5.365-1.494.37-3.17.191-5.75-1.58-3.7-2.538-5.557-5.033-4.723-5.477 1.096-.584 5.802 2.332 9.084 1.52 2.91-.72 3.821-5.449 5.322-5.691z" style="fill:#d3d3d3;fill-opacity:1;fill-rule:evenodd;stroke:none"/><path d="M56.034 13.712c0 .494-.406.9-.9.9H11.933a.904.904 0 0 1-.9-.9v-8.1c0-.495.406-.9.9-.9h43.2c.495 0 .9.405.9.9v8.1zm0 14.704c0 .494-.406.9-.9.9H11.933a.904.904 0 0 1-.9-.9v-8.1c0-.496.406-.9.9-.9h43.2c.495 0 .9.404.9.9v8.1zm0 14.704a.902.902 0 0 1-.9.899H11.933a.902.902 0 0 1-.9-.898v-8.102c0-.494.406-.898.9-.898h43.2c.495 0 .9.404.9.898v8.102zm0 14.703c0 .494-.406.9-.9.9H11.933a.904.904 0 0 1-.9-.9v-8.1c0-.495.406-.9.9-.9h43.2c.495 0 .9.405.9.9v8.1z" style="fill:#d3d3d3" transform="matrix(.49167 0 0 .56005 34.462 29.157)"/></svg>