<svg xmlns="http://www.w3.org/2000/svg" xml:space="preserve" width="64" height="64"><path d="M48.275 1.99a.312.312 0 0 0-.158.016c-1.603.589-9.357 7.766-11.123 8.834-3.893 2.355-7.93 4.175-10.29 4.443-5.037.572-5.44.244-9.448.362-4.008.117-11.259-1.292-11.717.003-.458 1.296-.115 5.182.457 7.184.573 2.002 2.266 7.783 3.961 11.027.473.906 2.606 5.16 5.49 9.905 2.884 4.744 7.328 8.979 8.86 10.51 3.063 3.061 7.317 5.73 8.29 6.083 1.947.707 8.212 2.864 12.22 1.569 4.007-1.296 7.479-4.191 7.937-5.487.229-.647 2.343-5.222 3.238-10.472.895-5.25.572-11.177.457-12.531-.229-2.709-.802-12.467-1.603-15.41-.777-2.852-4.859-15.767-6.57-16.036zm-5.789 16.723c2.936-.025 6.259 2.708 6.489 2.824l-11 4.768c.18-5.885 2.228-7.573 4.511-7.592zm-15.498 7.78c2.936-.026 6.257 2.708 6.487 2.823l-10.998 4.768c.179-5.885 2.228-7.573 4.511-7.592zm22.897 12.372c.14-.021.283-.017.431.018 1.427.337 1.024 5.03.182 7.799-1.31 4.31-3.848 6.619-6.105 7.152-2.086.493-4.426.255-8.03-2.105-5.166-3.385-7.76-6.71-6.595-7.303 1.53-.779 8.101 3.11 12.685 2.027 4.064-.96 5.336-7.264 7.432-7.588z" style="fill:#d3d3d3;fill-opacity:1;fill-rule:evenodd;stroke:none"/></svg>