<svg xmlns="http://www.w3.org/2000/svg" xml:space="preserve" width="64" height="64"><path d="M28.967.963a.203.203 0 0 0-.103.01c-1.051.386-6.132 5.09-7.29 5.79-2.551 1.544-5.197 2.735-6.744 2.911-3.3.375-3.564.161-6.191.238-2.627.077-7.38-.847-7.68.002-.3.85-.076 3.395.3 4.707.374 1.312 1.484 5.103 2.595 7.229.31.593 1.71 3.38 3.6 6.49 1.89 3.11 4.802 5.885 5.806 6.889 2.008 2.006 4.796 3.757 5.434 3.988 1.275.463 5.38 1.876 8.007 1.027s4.901-2.746 5.202-3.595c.15-.425 1.536-3.422 2.123-6.864.586-3.44.374-7.325.298-8.213-.15-1.775-.525-8.17-1.05-10.1-.51-1.868-3.185-10.333-4.307-10.509Zm-3.793 10.961c1.924-.016 4.101 1.774 4.252 1.85l-7.209 3.125c.118-3.857 1.46-4.962 2.957-4.975zm-10.158 5.098c1.924-.017 4.101 1.773 4.252 1.85l-7.21 3.124c.118-3.856 1.462-4.962 2.958-4.974zm15.008 8.107a.727.727 0 0 1 .28.014c.936.22.674 3.294.122 5.11-.859 2.824-2.523 4.34-4.002 4.689-1.367.322-2.902.166-5.264-1.381-3.386-2.218-5.085-4.4-4.322-4.787 1.003-.51 5.309 2.04 8.313 1.33 2.663-.63 3.5-4.763 4.873-4.975z" style="fill:#a9a9a9;fill-opacity:1;fill-rule:evenodd;stroke:none"/><path d="M-62.139-.297c-1 .167-3.382 1.779-4.466 2.865-1.085 1.087-4.205 4.251-5.688 6.508-.414.63-2.39 3.533-4.412 7.096-2.023 3.563-3.157 7.952-3.594 9.49-.874 3.077-1.067 6.785-.945 7.541.243 1.512 1.103 6.337 3.377 8.467 2.274 2.13 5.385 3.339 6.385 3.172.5-.084 4.208-.352 7.914-1.65 3.706-1.3 7.41-3.628 8.242-4.186 1.663-1.117 7.747-4.98 9.357-6.55 1.61-1.573 8.866-9.256 7.91-10.083-.955-.827-8.365-3.277-9.687-4.037-2.916-1.677-5.539-3.637-6.559-5.068-2.176-3.055-2.11-3.434-3.625-5.985-1.515-2.55-3.21-7.747-4.209-7.58zM-64.02 16.04c4.281-.047 3.09 6.354 3.101 6.629l-7.021-5.412c1.653-.852 2.931-1.206 3.92-1.217zm10.58 7.246c4.281-.047 3.088 6.354 3.1 6.63l-7.022-5.413c1.653-.852 2.933-1.206 3.922-1.217zm-16.323 5.324c2.024-.003 3.533.62 4.368 1.471 1.027 1.049 1.69 2.478 1.47 5.316-.315 4.07-1.485 6.635-2.256 6.15-1.013-.635-.87-5.679-3.129-7.983-2.136-2.18-6.953-.58-7.425-2.13-.285-.932 2.77-2.199 4.783-2.597a11.384 11.384 0 0 1 2.19-.227z" style="fill:#d3d3d3;fill-opacity:1;fill-rule:evenodd;stroke:silver;stroke-width:.13079691" transform="translate(101.379 17.676)"/></svg>