<svg xmlns="http://www.w3.org/2000/svg" xml:space="preserve" width="64" height="64"><path d="M32.443 1.21a.214.214 0 0 0-.113.011c-1.148.442-6.701 5.825-7.966 6.626-2.788 1.767-5.679 3.132-7.369 3.333-3.607.429-3.895.183-6.765.271-2.87.089-8.063-.968-8.39.003-.329.972-.083 3.887.327 5.389.41 1.501 1.622 5.838 2.836 8.271.34.68 1.867 3.87 3.932 7.43 2.065 3.558 5.247 6.734 6.344 7.883 2.193 2.296 5.24 4.298 5.937 4.563 1.394.53 5.88 2.148 8.75 1.177 2.87-.972 5.356-3.144 5.684-4.116.164-.485 1.678-3.917 2.319-7.855.64-3.939.41-8.384.327-9.4-.164-2.031-.574-9.35-1.148-11.559-.556-2.139-3.48-11.826-4.705-12.028Zm-4.146 12.543c2.102-.019 4.482 2.032 4.647 2.118l-7.878 3.577c.129-4.414 1.596-5.68 3.231-5.695zM17.2 19.588c2.102-.018 4.48 2.032 4.645 2.119l-7.876 3.576c.129-4.414 1.596-5.68 3.231-5.695zm16.396 9.281a.765.765 0 0 1 .31.013c1.021.253.732 3.773.13 5.85-.939 3.233-2.756 4.965-4.373 5.365-1.493.37-3.169.191-5.75-1.58-3.7-2.538-5.556-5.033-4.723-5.477 1.096-.584 5.802 2.333 9.085 1.52 2.91-.72 3.82-5.448 5.321-5.69z" style="fill:#d3d3d3;fill-opacity:1;fill-rule:evenodd;stroke:none"/><g style="stroke:#d3d3d3"><path d="M90.353 1004.407a42.254 42.634 0 0 1-84.508 0 42.254 42.634 0 1 1 84.508 0z" style="color:#000;fill:none;stroke:#d3d3d3;stroke-width:10;stroke-miterlimit:4;stroke-dasharray:none;stroke-opacity:1" transform="translate(36.74 -221.223)scale(.27033)"/><g style="fill:#dcdcdc;fill-opacity:1;stroke:#d3d3d3" transform="translate(41.14 46.07)scale(.06481)"><circle cx="380" cy="535.219" r="225.714" style="fill:#d3d3d3;fill-opacity:1;stroke:#d3d3d3" transform="rotate(-132.294 50.368 71.37)scale(.24014)"/><circle cx="102.143" cy="545.934" r="135" style="opacity:.87614698;fill:#d3d3d3;fill-opacity:1;stroke:#d3d3d3" transform="translate(27.396 -143.713)scale(.24015)"/></g><g style="fill:#dcdcdc;fill-opacity:1;stroke:#d3d3d3" transform="translate(49.412 46.07)scale(.06481)"><circle cx="380" cy="535.219" r="225.714" style="fill:#d3d3d3;fill-opacity:1;stroke:#d3d3d3" transform="rotate(-132.294 50.368 71.37)scale(.24014)"/><circle cx="102.143" cy="545.934" r="135" style="opacity:.87614698;fill:#d3d3d3;fill-opacity:1;stroke:#d3d3d3" transform="translate(27.396 -143.713)scale(.24015)"/></g><g style="fill:#dcdcdc;fill-opacity:1;stroke:#d3d3d3" transform="translate(49.412 54.067)scale(.06481)"><circle cx="380" cy="535.219" r="225.714" style="fill:#d3d3d3;fill-opacity:1;stroke:#d3d3d3" transform="rotate(-132.294 50.368 71.37)scale(.24014)"/><circle cx="102.143" cy="545.934" r="135" style="opacity:.87614698;fill:#d3d3d3;fill-opacity:1;stroke:#d3d3d3" transform="translate(27.396 -143.713)scale(.24015)"/></g><g style="fill:#dcdcdc;stroke:#d3d3d3" transform="translate(41.14 54.067)scale(.06481)"><circle cx="380" cy="535.219" r="225.714" style="fill:#d3d3d3;fill-opacity:1;stroke:#d3d3d3" transform="rotate(-132.294 50.368 71.37)scale(.24014)"/><circle cx="102.143" cy="545.934" r="135" style="opacity:.87614698;fill:#d3d3d3;fill-opacity:1;stroke:#d3d3d3" transform="translate(27.396 -143.713)scale(.24015)"/></g></g></svg>