<?xml version="1.0" encoding="UTF-8" standalone="no"?>
<svg xmlns:dc="http://purl.org/dc/elements/1.1/" xmlns:cc="http://creativecommons.org/ns#" xmlns:rdf="http://www.w3.org/1999/02/22-rdf-syntax-ns#" xmlns:svg="http://www.w3.org/2000/svg" xmlns="http://www.w3.org/2000/svg"
	xmlns:sodipodi="http://sodipodi.sourceforge.net/DTD/sodipodi-0.dtd" xmlns:inkscape="http://www.inkscape.org/namespaces/inkscape" version="1" viewBox="0 0 24 24" enable-background="new 0 0 24 24" id="svg4" sodipodi:docname="ic_settings_assets.svg"
	inkscape:version="0.92.5 (2060ec1f9f, 2020-04-08)">
	<metadata id="metadata10">
		<rdf:RDF>
			<cc:Work rdf:about="">
				<dc:format>image/svg+xml</dc:format>
				<dc:type rdf:resource="http://purl.org/dc/dcmitype/StillImage" />
			</cc:Work>
		</rdf:RDF>
	</metadata>
	<defs id="defs8" />
	<sodipodi:namedview pagecolor="#ffffff" bordercolor="#666666" borderopacity="1" objecttolerance="10" gridtolerance="10" guidetolerance="10" inkscape:pageopacity="0" inkscape:pageshadow="2" inkscape:window-width="941" inkscape:window-height="480"
		id="namedview6" showgrid="false" inkscape:zoom="27.812867" inkscape:cx="17.016393" inkscape:cy="12" inkscape:window-x="1020" inkscape:window-y="403" inkscape:window-maximized="0" inkscape:current-layer="svg4" />
	<path inkscape:connector-curvature="0"
		d="M 6.09375,4 C 5.3937504,4.0007508 4.80625,4.4 4.40625,5 L 2.1875,8.59375 C 2.0875,8.79375 2,9.2 2,9.5 V 20 c 0,1.1 0.9,2 2,2 h 16 c 1.1,0 2,-0.9 2,-2 V 16 9.5 C 22,9.2 21.9125,8.79375 21.8125,8.59375 L 19.59375,5 c -0.4,-0.6 -0.9875,-1 -1.6875,-1 l -6.061098,-0.00617 0.01947,2.0421234 L 18.09375,6 19.8125,9 H 19 5 4.1875 l 1.71875,-3 5.958368,0.035955 -0.01947,-2.0421234 z M 9,11 h 6 c 0.6,0 1,0.4 1,1 0,0.6 -0.4,1 -1,1 H 9 C 8.4,13 8,12.6 8,12 8,11.4 8.4,11 9,11 Z"
		id="path2" style="fill:#696969" sodipodi:nodetypes="sccssssscsccsccccccccccssssssss" />
</svg>
