<?xml version="1.0" encoding="UTF-8" standalone="no"?>
<svg xmlns:osb="http://www.openswatchbook.org/uri/2009/osb" xmlns:dc="http://purl.org/dc/elements/1.1/" xmlns:cc="http://creativecommons.org/ns#" xmlns:rdf="http://www.w3.org/1999/02/22-rdf-syntax-ns#" xmlns="http://www.w3.org/2000/svg" xmlns:sodipodi="http://sodipodi.sourceforge.net/DTD/sodipodi-0.dtd" xmlns:inkscape="http://www.inkscape.org/namespaces/inkscape" height="1000" width="937.5" id="svg2" version="1.1" inkscape:version="0.91 r13725"
	sodipodi:docname="ic_search_pm.svg">
	<metadata id="metadata10">
		<rdf:RDF>
			<cc:Work rdf:about="">
				<dc:format>image/svg+xml</dc:format>
				<dc:type rdf:resource="http://purl.org/dc/dcmitype/StillImage" />
			</cc:Work>
		</rdf:RDF>
	</metadata>
	<defs id="defs8">
		<linearGradient id="linearGradient19282" osb:paint="solid" gradientTransform="matrix(0,0,0,0,-15850794,-50191087)">
			<stop style="stop-color:#666666;stop-opacity:1;" offset="0" id="stop19284" />
		</linearGradient>
		<style type="text/css" id="style2988">
			.fil0 {fill:#006C3B}
			.fil1 {fill:#77C06C}
		</style>
		<linearGradient id="linearGradient15834-3">
			<stop style="stop-color:#772b00;stop-opacity:1;" offset="0" id="stop15842-3" />
			<stop id="stop15848-8" offset="0.5" style="stop-color:#da441b;stop-opacity:1;" />
			<stop style="stop-color: rgb(210, 64, 15); stop-opacity: 1;" offset="0.75" id="stop15850-6" />
			<stop id="stop15852-0" offset="0.9375" style="stop-color: rgb(212, 67, 22); stop-opacity: 0.614583;" />
			<stop id="stop15838-4" offset="1" style="stop-color:#c33900;stop-opacity:0.21875;" />
		</linearGradient>
	</defs>
	<sodipodi:namedview pagecolor="#ffffff" bordercolor="#666666" borderopacity="1" objecttolerance="10" gridtolerance="10" guidetolerance="10" inkscape:pageopacity="0" inkscape:pageshadow="2" inkscape:window-width="1268" inkscape:window-height="1029"
		id="namedview6" showgrid="false" inkscape:zoom="0.24208851" inkscape:cx="26.302468" inkscape:cy="533.58135" inkscape:window-x="732" inkscape:window-y="143" inkscape:window-maximized="0" inkscape:current-layer="svg2" />
	<g transform="matrix(62.552205,0,0,61.869169,-4705.4506,-33800.646)" id="g31454" style="fill:#c0c0c0;fill-opacity:1">
		<g transform="translate(0,20)" id="g31456" style="fill:#c0c0c0;fill-opacity:1">
			<g id="g31458" style="fill:#c0c0c0;fill-opacity:1" />
			<g id="g31462" style="fill:#c0c0c0;fill-opacity:1">
				<path style="fill:#c0c0c0;fill-opacity:1;stroke:none"
					d="m 231.5,450 c -3.04236,0 -5.5,2.48919 -5.5,5.53125 0,3.04204 2.45764,5.46875 5.5,5.46875 1.08216,0 2.08617,-0.30479 2.9375,-0.84375 l 2.77023,2.58664 c 0.38046,0.37956 0.96888,0.35397 1.34375,-0.0313 l 0.1875,-0.1875 c 0.37487,-0.38522 0.38046,-0.99545 0,-1.375 l -2.70773,-2.52414 c 0.61646,-0.8895 1,-1.92958 1,-3.09375 0,-3.042 -2.48889,-5.5312 -5.53125,-5.5312 z m 0.0313,2.0625 c 1.9417,0 3.5,1.55589 3.5,3.46875 0,1.91286 -1.5583,3.46875 -3.5,3.46875 -1.9417,0 -3.53125,-1.55589 -3.53125,-3.46875 0,-1.91286 1.58955,-3.46875 3.53125,-3.46875 z"
					transform="matrix(0.99981264,0,0,1.0108506,-149.58222,73.479428)" id="path31464" inkscape:connector-curvature="0" sodipodi:nodetypes="sssccccccsssssss" />
			</g>
		</g>
	</g>
	<g id="Notification" transform="matrix(15.151095,0,0,15.151095,-8266.9835,-5807.5031)" />
	<g id="Notification-5" transform="matrix(15.151095,0,0,15.151095,-8242.0277,-5788.0185)" />
	<g id="Notification-65" transform="matrix(15.151095,0,0,15.151095,-8268.82,-5802.6078)" />
	<g id="Notification-5-8" transform="matrix(15.151095,0,0,15.151095,-8243.8642,-5783.1232)" />
	<g id="Notification-2" transform="matrix(15.151095,0,0,15.151095,-8263.5561,-5794.2171)" />
	<g id="Notification-5-5" transform="matrix(15.151095,0,0,15.151095,-8238.6002,-5774.7325)" />
	<g id="Notification-0" transform="matrix(15.151095,0,0,15.151095,-8269.4447,-5792.7679)" />
	<g id="Notification-5-3" transform="matrix(15.151095,0,0,15.151095,-8244.4889,-5773.2833)" />
	<path style="fill:#d3d3d3;fill-opacity:1;fill-rule:evenodd;stroke:none"
		d="m 500.25209,288.26232 c -0.32124,-0.0529 -0.6289,-0.0169 -0.9204,0.0952 -9.32683,3.58794 -54.43941,47.3256 -64.71141,53.83403 -22.65088,14.35177 -46.1391,25.44572 -59.87085,27.07769 -29.30106,3.48234 -31.64503,1.48433 -54.96208,2.20193 -23.31711,0.71762 -65.50094,-7.86988 -68.16572,0.0235 -2.66485,7.89347 -0.6721,31.57758 2.65889,43.77659 3.33103,12.19901 13.18168,47.43006 23.04385,67.2003 2.75348,5.51973 15.16316,31.44642 31.94099,60.35647 16.77782,28.91004 42.6314,54.71753 51.54185,64.04618 17.82092,18.65731 42.57258,34.92285 48.23529,37.07562 11.32544,4.30552 47.76892,17.45099 71.08598,9.55752 23.31708,-7.89347 43.5138,-25.54003 46.17861,-33.4335 1.33241,-3.94675 13.63123,-31.8227 18.83961,-63.82005 5.20837,-31.99754 3.3251,-68.11277 2.6589,-76.36504 -1.3324,-16.5043 -4.66548,-75.96907 -9.3289,-93.90877 -4.51768,-17.3791 -28.26532,-96.07856 -38.22461,-97.71775 z M 466.5726,390.16967 c 17.07782,-0.15094 36.40948,16.50609 37.74738,17.21069 l -63.99556,29.05348 c 1.04415,-35.86006 12.96544,-46.14675 26.24818,-46.26417 z m -90.16419,47.40679 c 17.0778,-0.15095 36.39811,16.5061 37.73601,17.21069 l -63.9842,29.05348 c 1.04413,-35.86006 12.96544,-46.14675 26.24819,-46.26417 z m 133.20667,75.40096 c 0.81274,-0.13146 1.64971,-0.10595 2.51118,0.10715 8.30112,2.05336 5.95541,30.64873 1.05675,47.52583 -7.62467,26.26888 -22.38946,40.33813 -35.52027,43.58614 -12.13492,3.00167 -25.74749,1.55442 -46.71266,-12.83065 -30.05845,-20.62428 -45.14601,-40.89238 -38.37234,-44.50263 8.90372,-4.74552 47.13453,18.95089 73.80169,12.35456 23.64411,-5.84853 31.04457,-44.26889 43.23565,-46.24037 z"
		id="path2202" inkscape:connector-curvature="0" />
</svg>
