<svg xmlns="http://www.w3.org/2000/svg" xmlns:osb="http://www.openswatchbook.org/uri/2009/osb" xmlns:xlink="http://www.w3.org/1999/xlink" width="1000" height="1066.667"><defs><linearGradient osb:paint="solid" id="a" gradientTransform="matrix(0 0 0 0 -52281657000 -165548850000)"><stop offset="0" style="stop-color:#666;stop-opacity:1"/></linearGradient></defs><use xlink:href="#g5796" width="1250" height="1250" transform="matrix(.9964 0 0 .99792 1287.538 171.316)"/><use xlink:href="#g5796" width="1250" height="1250" transform="matrix(.98862 0 0 .99792 1288.172 193.249)"/><path d="M59.793 317.14c-7.182 21.72-13.652 45.714-13.697 68.546-.188 109.283 88.669 180.914 198.366 160.712 22.92-4.221 45.29-13.628 65.79-24.513 1.45-.78 70.944 54.133 89.614 68.991l12.19 9.723c21.155 16.921 172.99 138.38 172.463 140.05-6.645 21.937-11.43 45.37-10.936 68.267 2.362 109.59 91.98 180.339 200.845 157.713 22.745-4.723 45.329-15.866 65.502-27.225l-109.422-84.792c-22.523-17.647-20.08-51.48 1.507-78.27l39.6-47.886c21.931-26.52 52.083-37.533 74.646-19.934l110.946 86.008c6.645-21.937 11.43-45.37 10.936-68.267-2.362-109.59-93.218-178.842-202.08-156.22-22.746 4.724-44.38 11.659-64.553 23.018l-36.568-29.169-195.035-155.566-36.569-29.17c7.182-21.72 9.653-43.937 9.699-66.769.188-109.282-87.432-182.41-197.131-162.205-22.92 4.22-45.29 13.626-65.79 24.513L288.585 263.7c22.166 18.077 17.377 49.32-4.554 75.84l-39.6 47.886c-22.27 26.246-55.505 35.555-77.693 17.502L59.793 317.14Z" style="color:#000;font-style:normal;font-variant:normal;font-weight:400;font-stretch:normal;font-size:medium;line-height:normal;font-family:Sans;-inkscape-font-specification:Sans;text-indent:0;text-align:start;text-decoration:none;text-decoration-line:none;letter-spacing:normal;word-spacing:normal;text-transform:none;writing-mode:lr-tb;direction:ltr;text-anchor:start;display:inline;overflow:visible;visibility:visible;fill:gray;fill-opacity:1;fill-rule:nonzero;stroke:none;stroke-width:3.20000005;marker:none;enable-background:accumulate"/><path d="M50.825 124.794h896.167v896.167H50.825z" style="fill:none;stroke:none;stroke-width:1.06666672"/><use xlink:href="#rect4442" width="1250" height="1250" transform="translate(1460.794 571.768)"/><use xlink:href="#g5772" width="1250" height="1250" transform="matrix(.69291 0 0 .70953 1122.89 251.936)"/><use xlink:href="#g5772" width="1250" height="1250" transform="matrix(.69583 0 0 .74192 1105.816 246.161)"/><use xlink:href="#g5772" width="1250" height="1250" transform="matrix(.69583 0 0 .74192 1152.75 243.495)"/><use xlink:href="#g5772" width="1250" height="1250" transform="matrix(.62898 0 0 1.16243 1232.493 134.458)"/><use xlink:href="#rect10675" width="1250" height="1250" transform="translate(2035.768 271.86)"/><use xlink:href="#use5758" width="1250" height="1250" transform="translate(2036.799 289.696)"/><use xlink:href="#g6043" width="1250" height="1250" transform="translate(2032.516 208.547)"/><use xlink:href="#rect10675" width="1250" height="1250" transform="translate(2080.55 272.869)"/><use xlink:href="#rect10675" width="1250" height="1250" transform="translate(2067.75 285.669)"/><use xlink:href="#g6043" width="1250" height="1250" transform="translate(2052.835 202.102)"/><use xlink:href="#rect10675" width="1250" height="1250" transform="translate(2100.869 266.424)"/><use xlink:href="#rect10675" width="1250" height="1250" transform="translate(2088.069 279.224)"/><use xlink:href="#use5756-0-3" width="1250" height="1250" style="stroke:url(#a);stroke-opacity:1" transform="matrix(1.13774 0 0 1.13997 1831.68 276.717)"/><use xlink:href="#use5756-0-3" width="1250" height="1250" style="stroke:url(#a);stroke-opacity:1" transform="matrix(1.13774 0 0 1.13997 1826.347 284.427)"/><use xlink:href="#use5756-0-3" width="1250" height="1250" style="stroke:url(#a);stroke-opacity:1" transform="matrix(1.13774 0 0 1.13997 1839.779 288.32)"/><text xml:space="preserve" x="920.024" y="673.671" style="font-style:normal;font-weight:400;font-size:12.80000019px;line-height:0%;font-family:sans-serif;letter-spacing:0;word-spacing:0;fill:#000;fill-opacity:1;stroke:none;stroke-width:1.06666672"><tspan x="920.024" y="673.671" style="font-size:42.66666794px;line-height:1.25;font-family:sans-serif;stroke-width:1.06666672"> </tspan></text></svg>