<?xml version="1.0" encoding="UTF-8" standalone="no"?>
<svg xmlns:dc="http://purl.org/dc/elements/1.1/" xmlns:cc="http://creativecommons.org/ns#" xmlns:rdf="http://www.w3.org/1999/02/22-rdf-syntax-ns#" xmlns="http://www.w3.org/2000/svg" xmlns:sodipodi="http://sodipodi.sourceforge.net/DTD/sodipodi-0.dtd"
	xmlns:inkscape="http://www.inkscape.org/namespaces/inkscape" height="1066.6666" width="1066.6666" id="svg2" version="1.1" inkscape:version="0.92.5 (2060ec1f9f, 2020-04-08)" sodipodi:docname="ic_settings.svg">
	<metadata id="metadata10">
		<rdf:RDF>
			<cc:Work rdf:about="">
				<dc:format>image/svg+xml</dc:format>
				<dc:type rdf:resource="http://purl.org/dc/dcmitype/StillImage" />
				<dc:title />
			</cc:Work>
		</rdf:RDF>
	</metadata>
	<defs id="defs8" />
	<sodipodi:namedview pagecolor="#ffffff" bordercolor="#666666" borderopacity="1" objecttolerance="10" gridtolerance="10" guidetolerance="10" inkscape:pageopacity="0" inkscape:pageshadow="2" inkscape:window-width="1353" inkscape:window-height="792"
		id="namedview6" showgrid="false" inkscape:zoom="0.068437503" inkscape:cx="533.33331" inkscape:cy="533.33331" inkscape:window-x="361" inkscape:window-y="338" inkscape:window-maximized="0" inkscape:current-layer="svg2" />
	<path style="clip-rule:evenodd;fill:#808080;fill-opacity:1;fill-rule:evenodd;stroke-width:1.06666672" inkscape:connector-curvature="0"
		d="m 908.25758,635.38577 h -48.67385 c -7.90204,28.59742 -19.22604,55.72552 -33.74382,80.87729 l 44.97632,44.99892 c 28.7815,28.8041 28.7815,75.45642 0,104.1927 l -26.04843,26.07104 c -28.78149,28.78148 -75.45749,28.78148 -104.23897,0 l -45.25081,-45.2745 c -25.08288,14.28741 -52.1647,25.40475 -80.64801,33.16901 v 47.22605 c 0,40.70398 -32.98494,73.68892 -73.68784,73.68892 h -36.84501 c -40.67922,0 -73.71045,-32.98494 -73.71045,-73.68892 v -47.22605 c -28.45963,-7.76426 -55.51884,-18.8816 -80.64801,-33.16901 l -45.25188,45.2745 c -28.7352,28.78148 -75.41013,28.78148 -104.19161,0 l -26.04845,-26.07104 c -28.78148,-28.73628 -28.78148,-75.3886 0,-104.1927 l 44.97526,-44.99892 c -14.49409,-25.17545 -25.84177,-52.27987 -33.76643,-80.87729 h -48.62756 c -40.702913,0 -73.687845,-33.03122 -73.687845,-73.73413 v -36.82131 c 0,-40.70292 32.984932,-73.73414 73.687845,-73.73414 h 48.05383 c 7.62648,-28.34552 18.53714,-55.28956 32.61786,-80.32615 l -43.25296,-43.25296 c -28.78148,-28.7815 -28.78148,-75.43382 0,-104.2153 l 26.04845,-26.02583 c 28.78148,-28.78149 75.45641,-28.78149 104.19161,0 l 42.37997,42.35737 c 25.95695,-15.06889 53.95695,-26.85253 83.51992,-34.89128 v -49.52423 c 0,-40.70279 33.03123,-73.687951 73.71045,-73.687951 h 36.84501 c 40.67923,0 73.68784,32.985161 73.68784,73.687951 v 49.47794 c 29.60817,8.08504 57.60925,19.84607 83.51884,34.93757 l 42.37998,-42.35737 c 28.78148,-28.78149 75.43379,-28.78149 104.23897,0 l 26.04843,26.02583 c 28.7815,28.78148 28.7815,75.4338 0,104.2153 l -43.25296,43.25296 c 14.10335,25.03659 24.96878,51.98063 32.61679,80.32615 h 48.05383 c 40.70291,0 73.68785,33.03122 73.68785,73.73414 v 36.82131 c 0,40.72551 -32.96125,73.73413 -73.66416,73.73413 z M 522.54281,341.7582 c -111.91067,0 -202.64265,90.73198 -202.64265,202.64263 0,111.93327 90.73198,202.66525 202.64265,202.66525 111.91066,0 202.64264,-90.73198 202.64264,-202.66525 0,-111.91065 -90.73198,-202.64263 -202.64264,-202.64263 z m 0,292.47903 c -50.85578,0 -92.13349,-41.27772 -92.13349,-92.1335 0,-50.85575 41.27771,-92.13347 92.13349,-92.13347 50.85576,0 92.0872,41.27772 92.0872,92.13347 0,50.85578 -41.23144,92.1335 -92.0872,92.1335 z"
		id="path26701" />
</svg>
