<svg xmlns="http://www.w3.org/2000/svg" width="1066.667" height="1066.667"><path d="M908.258 635.386h-48.674c-7.902 28.597-19.226 55.725-33.744 80.877l44.976 44.999c28.782 28.804 28.782 75.456 0 104.193l-26.048 26.07c-28.782 28.782-75.458 28.782-104.24 0l-45.25-45.274c-25.083 14.288-52.165 25.405-80.648 33.17v47.225c0 40.704-32.985 73.69-73.688 73.69h-36.845c-40.68 0-73.71-32.986-73.71-73.69V879.42c-28.46-7.764-55.52-18.881-80.648-33.169l-45.252 45.275c-28.735 28.781-75.41 28.781-104.192 0l-26.048-26.071c-28.782-28.737-28.782-75.389 0-104.193l44.975-44.999c-14.494-25.175-25.842-52.28-33.766-80.877h-48.628c-40.703 0-73.688-33.031-73.688-73.734V524.83c0-40.703 32.985-73.734 73.688-73.734h48.054c7.626-28.345 18.537-55.29 32.618-80.326l-43.253-43.253c-28.782-28.781-28.782-75.434 0-104.215l26.048-26.026c28.782-28.782 75.457-28.782 104.192 0l42.38 42.357a348.178 348.178 0 0 1 83.52-34.891v-49.524c0-40.703 33.03-73.688 73.71-73.688h36.845c40.68 0 73.688 32.985 73.688 73.688v49.478c29.608 8.085 57.61 19.846 83.519 34.937l42.38-42.357c28.781-28.782 75.434-28.782 104.239 0l26.048 26.026c28.782 28.781 28.782 75.434 0 104.215l-43.253 43.253c14.104 25.037 24.969 51.98 32.617 80.326h48.054c40.703 0 73.688 33.031 73.688 73.734v36.822c0 40.725-32.962 73.734-73.664 73.734zM522.543 341.758c-111.91 0-202.643 90.732-202.643 202.643 0 111.933 90.732 202.665 202.643 202.665 111.91 0 202.642-90.732 202.642-202.665 0-111.91-90.732-202.643-202.642-202.643zm0 292.48c-50.856 0-92.134-41.278-92.134-92.134s41.278-92.134 92.134-92.134 92.087 41.278 92.087 92.134-41.231 92.133-92.087 92.133z" style="clip-rule:evenodd;fill:gray;fill-opacity:1;fill-rule:evenodd;stroke-width:1.06666672"/></svg>