<?xml version="1.0" encoding="UTF-8" standalone="no"?><!-- Generator: Adobe Illustrator 14.0.0, SVG Export Plug-In . SVG Version: 6.00 Build 43363)  -->

<svg xmlns:dc="http://purl.org/dc/elements/1.1/" xmlns:cc="http://creativecommons.org/ns#" xmlns:rdf="http://www.w3.org/1999/02/22-rdf-syntax-ns#" xmlns:svg="http://www.w3.org/2000/svg" xmlns="http://www.w3.org/2000/svg"
	xmlns:sodipodi="http://sodipodi.sourceforge.net/DTD/sodipodi-0.dtd" xmlns:inkscape="http://www.inkscape.org/namespaces/inkscape" version="1.1" x="0px" y="0px" width="136.53334" height="136.53334" viewBox="0 0 128 128"
	enable-background="new 0 0 780 650" xml:space="preserve" id="svg2" inkscape:version="0.92.3 (2405546, 2018-03-11)" sodipodi:docname="ic_settings_general.svg"><metadata
     id="metadata1456"><rdf:RDF><cc:Work
         rdf:about=""><dc:format>image/svg+xml</dc:format><dc:type rdf:resource="http://purl.org/dc/dcmitype/StillImage" /></cc:Work></rdf:RDF></metadata>
	<defs id="defs1454"><style
       type="text/css"
       id="style2988">
    .fil0 {fill:#006C3B}
    .fil1 {fill:#77C06C}
   </style>
		<style type="text/css" id="style2988-7">
    .fil0 {fill:#006C3B}
    .fil1 {fill:#77C06C}
   </style></defs>
	<sodipodi:namedview pagecolor="#ffffff" bordercolor="#666666" borderopacity="1" objecttolerance="10" gridtolerance="10" guidetolerance="10" inkscape:pageopacity="0" inkscape:pageshadow="2" inkscape:window-width="1869" inkscape:window-height="1136"
		id="namedview1452" showgrid="false" inkscape:zoom="1.3183594" inkscape:cx="-158.94806" inkscape:cy="64.153275" inkscape:window-x="51" inkscape:window-y="27" inkscape:window-maximized="1" inkscape:current-layer="svg2" />
	<style id="style8" type="text/css">
      .Border { fill: lightGray; stroke: black; stroke-width: 4; }
      .Label { font-size:24; font-family:Arial; fill:black; }
   </style>
	<style id="style8-7" type="text/css">
      .Border { fill: lightGray; stroke: black; stroke-width: 4; }
      .Label { font-size:24; font-family:Arial; fill:black; }
   </style>
	<style id="style8-3" type="text/css">
      .Border { fill: lightGray; stroke: black; stroke-width: 4; }
      .Label { font-size:24; font-family:Arial; fill:black; }
   </style>
	<style id="style8-6" type="text/css">
      .Border { fill: lightGray; stroke: black; stroke-width: 4; }
      .Label { font-size:24; font-family:Arial; fill:black; }
   </style>
	<style type="text/css" id="style8-1">
      .Border { fill: lightGray; stroke: black; stroke-width: 4; }
      .Label { font-size:24; font-family:Arial; fill:black; }
   </style>
	<style type="text/css" id="style8-7-0">
      .Border { fill: lightGray; stroke: black; stroke-width: 4; }
      .Label { font-size:24; font-family:Arial; fill:black; }
   </style>
	<style type="text/css" id="style8-3-2">
      .Border { fill: lightGray; stroke: black; stroke-width: 4; }
      .Label { font-size:24; font-family:Arial; fill:black; }
   </style>
	<style type="text/css" id="style8-6-7">
      .Border { fill: lightGray; stroke: black; stroke-width: 4; }
      .Label { font-size:24; font-family:Arial; fill:black; }
   </style>
	<path
		style="color:#000000;font-style:normal;font-variant:normal;font-weight:normal;font-stretch:normal;font-size:medium;line-height:normal;font-family:Sans;-inkscape-font-specification:Sans;text-indent:0;text-align:start;text-decoration:none;text-decoration-line:none;letter-spacing:normal;word-spacing:normal;text-transform:none;writing-mode:lr-tb;direction:ltr;text-anchor:start;display:inline;overflow:visible;visibility:visible;fill:#696969;fill-opacity:1;fill-rule:nonzero;stroke:none;stroke-width:2.81249976;marker:none;enable-background:accumulate"
		d="m 8.3186089,33.915944 c -0.89397,2.703711 -1.69927,5.690144 -1.704821,8.532166 -0.02344,13.602514 11.0366541,22.518481 24.6907821,20.003895 2.852805,-0.525386 5.637361,-1.696209 8.18892,-3.051155 0.180605,-0.09699 8.830592,6.737968 11.1544,8.587433 0.320559,0.255658 1.517259,1.21023 1.517259,1.21023 2.633189,2.106222 21.53219,17.224281 21.46667,17.432171 -0.827116,2.73053 -1.42265,5.64722 -1.361195,8.497211 0.293973,13.640905 11.448842,22.447025 24.999379,19.630805 2.831067,-0.58795 5.642127,-1.97486 8.153187,-3.38878 L 91.803233,100.81576 c -2.803397,-2.196519 -2.499412,-6.407806 0.18764,-9.742376 l 4.92909,-5.96042 c 2.72975,-3.30106 6.482767,-4.671701 9.291177,-2.48113 l 13.80955,10.70546 c 0.8272,-2.73053 1.42266,-5.64728 1.3612,-8.49729 -0.29398,-13.640822 -11.60294,-22.260627 -25.153157,-19.444795 -2.83108,0.587953 -5.52384,1.451105 -8.034825,2.864999 l -4.551766,-3.630671 -24.27617,-19.363501 -4.551765,-3.63067 c 0.893963,-2.70363 1.201464,-5.468953 1.207172,-8.310893 0.02345,-13.602514 -10.882707,-22.704801 -24.537068,-20.18991 -2.852809,0.525406 -5.637362,1.696067 -8.188847,3.051237 l 13.501042,11.078493 c 2.759063,2.250165 2.162907,6.138831 -0.566841,9.43989 l -4.929089,5.960482 c -2.771964,3.266817 -6.908727,4.425501 -9.670447,2.178468 L 8.3186839,33.915944 Z"
		id="path3908-6" inkscape:connector-curvature="0" /></svg>