<svg xmlns="http://www.w3.org/2000/svg" xml:space="preserve" width="64" height="64"><g style="fill:#d3d3d3"><path d="M56.034 13.712c0 .494-.406.9-.9.9H11.933a.904.904 0 0 1-.9-.9v-8.1c0-.495.406-.9.9-.9h43.2c.495 0 .9.405.9.9v8.1zM56.034 28.416c0 .494-.406.9-.9.9H11.933a.904.904 0 0 1-.9-.9v-8.1c0-.496.406-.9.9-.9h43.2c.495 0 .9.404.9.9v8.1zM56.034 43.12a.902.902 0 0 1-.9.899H11.933a.902.902 0 0 1-.9-.898v-8.102c0-.494.406-.898.9-.898h43.2c.495 0 .9.404.9.898v8.102zM56.034 57.823c0 .494-.406.9-.9.9H11.933a.904.904 0 0 1-.9-.9v-8.1c0-.495.406-.9.9-.9h43.2c.495 0 .9.405.9.9v8.1z" style="fill:#d3d3d3" transform="matrix(1.20795 0 0 1 -8.533 .52)"/></g></svg>