<svg xmlns="http://www.w3.org/2000/svg" xml:space="preserve" width="136.533" height="136.533" viewBox="0 0 128 128"><path d="M8.319 33.916c-.894 2.704-1.7 5.69-1.705 8.532-.024 13.603 11.036 22.519 24.69 20.004 2.853-.525 5.638-1.696 8.19-3.051.18-.097 8.83 6.738 11.154 8.587l1.517 1.21c2.633 2.107 21.532 17.225 21.467 17.433-.827 2.73-1.423 5.647-1.361 8.497.294 13.64 11.448 22.447 24.999 19.63 2.831-.587 5.642-1.974 8.153-3.388l-13.62-10.554c-2.803-2.197-2.5-6.408.188-9.743l4.929-5.96c2.73-3.301 6.483-4.672 9.291-2.481l13.81 10.705c.827-2.73 1.422-5.647 1.36-8.497-.293-13.64-11.602-22.26-25.152-19.445-2.831.588-5.524 1.451-8.035 2.865l-4.552-3.63-24.276-19.364-4.552-3.63c.894-2.704 1.202-5.47 1.207-8.312.024-13.602-10.882-22.704-24.537-20.19-2.852.526-5.637 1.697-8.189 3.052l13.502 11.078c2.759 2.25 2.162 6.14-.567 9.44l-4.93 5.96c-2.771 3.267-6.908 4.426-9.67 2.18L8.32 33.915Z" style="color:#000;font-style:normal;font-variant:normal;font-weight:400;font-stretch:normal;font-size:medium;line-height:normal;font-family:Sans;-inkscape-font-specification:Sans;text-indent:0;text-align:start;text-decoration:none;text-decoration-line:none;letter-spacing:normal;word-spacing:normal;text-transform:none;writing-mode:lr-tb;direction:ltr;text-anchor:start;display:inline;overflow:visible;visibility:visible;fill:#696969;fill-opacity:1;fill-rule:nonzero;stroke:none;stroke-width:2.81249976;marker:none;enable-background:accumulate"/></svg>