<svg xmlns="http://www.w3.org/2000/svg" xml:space="preserve" width="136.533" height="136.533" viewBox="0 0 128 128"><defs><clipPath id="a" clipPathUnits="userSpaceOnUse"><ellipse cx="43.981" cy="52.106" rx="43.981" ry="52.026" style="fill:#a9a9a9;fill-opacity:1;fill-rule:evenodd;stroke:none" transform="matrix(.18154 0 0 .15447 788.014 700.64)"/></clipPath></defs><g clip-path="url(#a)" transform="translate(-6070.79 -5399.71)scale(7.70834)"><path d="M509.778 597.159c-12.427 0-22.5 10.074-22.5 22.5 0 12.428 10.073 22.5 22.5 22.5s22.5-10.072 22.5-22.5c-.001-12.426-10.073-22.5-22.5-22.5zm-.559 36.414a3.069 3.069 0 0 1-3.054-3.055 3.067 3.067 0 0 1 3.054-3.053 3.066 3.066 0 0 1 3.054 3.053 3.068 3.068 0 0 1-3.054 3.055zm2.904-11.791c-.892 1.305-.594 3.129-3.052 3.129-1.602 0-2.385-1.305-2.385-2.496 0-4.432 6.519-5.436 6.519-9.086 0-2.012-1.34-3.203-3.576-3.203-4.767 0-2.905 4.916-6.518 4.916-1.304 0-2.421-.783-2.421-2.271 0-3.65 4.172-6.891 8.714-6.891 4.769 0 9.46 2.197 9.46 7.449.001 4.842-5.55 6.703-6.741 8.453z" style="fill:#333"/></g><path d="M9.525 94.668v-8.47q0-3.892 2.775-6.639 2.776-2.747 6.667-2.747 3.892 0 6.64 2.747 2.746 2.747 2.746 6.639v8.47q0 2.06 1.46 3.491 1.459 1.43 3.462 1.43h62.38q2.003 0 3.462-1.43 1.46-1.43 1.46-3.491v-8.47q0-3.892 2.746-6.639 2.747-2.747 6.64-2.747 3.89 0 6.666 2.747 2.776 2.747 2.776 6.639v8.47q0 9.843-6.953 16.825-6.954 6.982-16.797 6.982h-62.38q-9.844 0-16.797-6.982-6.953-6.982-6.953-16.825Zm18.141-42.064q0-3.891 2.805-6.638 2.747-2.747 6.638-2.747 3.892 0 6.639 2.747l12.361 12.361V17.981q0-3.892 2.747-6.639 2.747-2.747 6.639-2.747 3.891 0 6.667 2.747t2.776 6.639v40.346l12.934-12.933q2.747-2.747 6.638-2.747 3.892 0 6.639 2.747 2.804 2.747 2.804 6.667t-2.804 6.667L72.19 87.686q-2.862 2.861-6.696 2.861-3.777 0-6.639-2.861L30.471 59.3q-2.805-2.804-2.805-6.696z" style="fill:#696969;stroke-width:.93749994"/></svg>