<svg xmlns="http://www.w3.org/2000/svg" width="937.5" height="1000"><g style="fill:silver;fill-opacity:1"><g style="fill:silver;fill-opacity:1"><path d="M231.5 450c-3.042 0-5.5 2.49-5.5 5.531 0 3.042 2.458 5.469 5.5 5.469a5.46 5.46 0 0 0 2.938-.844l2.77 2.587c.38.38.969.354 1.343-.031l.188-.188a.976.976 0 0 0 0-1.375l-2.708-2.524c.617-.89 1-1.93 1-3.094 0-3.042-2.489-5.531-5.531-5.531zm.031 2.063c1.942 0 3.5 1.555 3.5 3.468s-1.558 3.469-3.5 3.469c-1.941 0-3.531-1.556-3.531-3.469 0-1.913 1.59-3.469 3.531-3.469z" style="fill:silver;fill-opacity:1;stroke:none" transform="matrix(62.54049 0 0 62.54049 -14062.148 -28017.151)"/></g></g></svg>