<svg xmlns="http://www.w3.org/2000/svg" width="1000" height="1066.667"><g style="fill:#696969;fill-opacity:1"><path d="M51.2 46.613c5.653 0 10.88-.533 15.787-1.493 4.906-1.067 8.746-2.56 11.626-4.587v6.08c0 1.6-1.173 3.2-3.626 4.587-2.454 1.387-5.76 2.56-10.027 3.307-4.267.746-8.747 1.28-13.76 1.28s-9.493-.427-13.76-1.28c-4.267-.854-7.573-1.92-10.027-3.307-2.453-1.387-3.626-2.88-3.626-4.587v-6.08c2.88 2.027 6.72 3.52 11.626 4.587 4.907.96 10.134 1.493 15.787 1.493Zm0 27.414c5.653 0 10.88-.534 15.787-1.494 4.906-1.066 8.746-2.56 11.626-4.586v6.08c0 1.6-1.173 3.2-3.626 4.586-2.454 1.387-5.76 2.56-10.027 3.307-4.267.747-8.853 1.28-13.76 1.28s-9.493-.427-13.76-1.28c-4.267-.853-7.573-1.92-10.027-3.307-2.453-1.386-3.626-2.88-3.626-4.586v-6.08c2.88 2.026 6.72 3.52 11.626 4.586 4.907.96 10.134 1.494 15.787 1.494zm0-13.654c5.653 0 10.88-.533 15.787-1.493 4.906-.96 8.746-2.56 11.626-4.587v6.08c0 1.6-1.173 3.2-3.626 4.587-2.454 1.387-5.76 2.56-10.027 3.307-4.267.853-8.747 1.28-13.76 1.28s-9.493-.427-13.76-1.28c-4.267-.854-7.573-1.92-10.027-3.307-2.453-1.387-3.626-2.88-3.626-4.587v-6.08c2.88 2.027 6.72 3.52 11.626 4.587 4.907 1.067 10.134 1.493 15.787 1.493Zm0-41.173c4.907 0 9.493.427 13.76 1.28 4.267.853 7.573 1.92 10.027 3.307 2.453 1.386 3.626 2.88 3.626 4.586v4.587c0 1.6-1.173 3.2-3.626 4.587-2.454 1.386-5.76 2.56-10.027 3.306-4.267.747-8.747 1.28-13.76 1.28s-9.493-.426-13.76-1.28c-4.267-.853-7.573-1.92-10.027-3.306-2.453-1.387-3.626-2.88-3.626-4.587v-4.587c0-1.6 1.173-3.2 3.626-4.586 2.454-1.387 5.76-2.56 10.027-3.307 4.267-.853 8.853-1.28 13.76-1.28Z" style="fill:#696969;fill-opacity:1;stroke-width:1.06666672" transform="translate(-226.609 -179.276)scale(14.11651)"/></g></svg>