<svg xmlns="http://www.w3.org/2000/svg" xmlns:xlink="http://www.w3.org/1999/xlink" width="320" height="350"><defs><linearGradient id="b"><stop offset="0" style="stop-color:#fff;stop-opacity:1"/><stop offset="1" style="stop-color:#fff;stop-opacity:0"/></linearGradient><linearGradient id="a"><stop offset="0" style="stop-color:#77001c;stop-opacity:1"/><stop offset=".5" style="stop-color:#da1964;stop-opacity:1"/><stop offset=".75" style="stop-color:#d2400f;stop-opacity:1"/><stop offset=".938" style="stop-color:#d44316;stop-opacity:.614583"/><stop offset="1" style="stop-color:#c3003b;stop-opacity:.21875"/></linearGradient><linearGradient xlink:href="#a" id="f" x1="154.286" x2="605.714" y1="535.219" y2="535.219" gradientUnits="userSpaceOnUse"/><linearGradient xlink:href="#a" id="i" x1="154.286" x2="605.714" y1="535.219" y2="535.219" gradientUnits="userSpaceOnUse"/><linearGradient xlink:href="#a" id="k" x1="154.286" x2="605.714" y1="535.219" y2="535.219" gradientUnits="userSpaceOnUse"/><linearGradient xlink:href="#a" id="m" x1="154.286" x2="605.714" y1="535.219" y2="535.219" gradientUnits="userSpaceOnUse"/><linearGradient xlink:href="#a" id="o" x1="154.286" x2="605.714" y1="535.219" y2="535.219" gradientUnits="userSpaceOnUse"/><linearGradient xlink:href="#a" id="q" x1="154.286" x2="605.714" y1="535.219" y2="535.219" gradientUnits="userSpaceOnUse"/><linearGradient xlink:href="#a" id="s" x1="154.286" x2="605.714" y1="535.219" y2="535.219" gradientUnits="userSpaceOnUse"/><linearGradient xlink:href="#a" id="u" x1="154.286" x2="605.714" y1="535.219" y2="535.219" gradientUnits="userSpaceOnUse"/><radialGradient xlink:href="#b" id="h" cx="102.143" cy="545.934" r="135" fx="102.143" fy="545.934" gradientUnits="userSpaceOnUse"/><radialGradient xlink:href="#b" id="j" cx="102.143" cy="545.934" r="135" fx="102.143" fy="545.934" gradientUnits="userSpaceOnUse"/><radialGradient xlink:href="#b" id="l" cx="102.143" cy="545.934" r="135" fx="102.143" fy="545.934" gradientUnits="userSpaceOnUse"/><radialGradient xlink:href="#b" id="n" cx="102.143" cy="545.934" r="135" fx="102.143" fy="545.934" gradientUnits="userSpaceOnUse"/><radialGradient xlink:href="#b" id="p" cx="102.143" cy="545.934" r="135" fx="102.143" fy="545.934" gradientUnits="userSpaceOnUse"/><radialGradient xlink:href="#b" id="r" cx="102.143" cy="545.934" r="135" fx="102.143" fy="545.934" gradientUnits="userSpaceOnUse"/><radialGradient xlink:href="#b" id="t" cx="102.143" cy="545.934" r="135" fx="102.143" fy="545.934" gradientUnits="userSpaceOnUse"/><radialGradient xlink:href="#b" id="v" cx="102.143" cy="545.934" r="135" fx="102.143" fy="545.934" gradientUnits="userSpaceOnUse"/><filter id="c" color-interpolation-filters="sRGB"><feGaussianBlur in="SourceGraphic" result="result0" stdDeviation="6"/><feDiffuseLighting result="result5" surfaceScale="10"><feDistantLight azimuth="235" elevation="25"/></feDiffuseLighting><feComposite in="result5" in2="SourceGraphic" k1="1" k3=".6" operator="arithmetic" result="result4"/></filter><filter id="e" style="color-interpolation-filters:sRGB"><feGaussianBlur in="SourceGraphic" result="result0" stdDeviation="6"/><feDiffuseLighting result="result5" surfaceScale="10"><feDistantLight azimuth="235" elevation="25"/></feDiffuseLighting><feComposite in="result5" in2="SourceGraphic" k1="1" k3=".6" operator="arithmetic" result="result4"/></filter><filter id="g" width="1" height="1" x="0" y="0" style="color-interpolation-filters:sRGB"><feColorMatrix result="result1" type="hueRotate" values="180"/></filter><filter id="d" width="1" height="1" x="0" y="0" style="color-interpolation-filters:sRGB"><feColorMatrix result="result2" type="saturate" values="1"/><feColorMatrix in="result2" result="result1" type="hueRotate" values="50"/><feColorMatrix values="1 -1 1 0 0 0 1 0 0 0 1 -1 1 0 0 0 0 0 1 0"/><feColorMatrix result="fbSourceGraphic" type="hueRotate" values="300"/><feColorMatrix in="fbSourceGraphic" result="fbSourceGraphicAlpha" values="0 0 0 -1 0 0 0 0 -1 0 0 0 0 -1 0 0 0 0 1 0"/><feColorMatrix in="fbSourceGraphic" result="result1" type="saturate" values="0"/><feFlood flood-color="#096F98" result="result3"/><feBlend in2="result1" mode="screen" result="result2"/><feComposite in="result2" in2="fbSourceGraphic" operator="in"/></filter><filter id="w" style="color-interpolation-filters:sRGB"><feGaussianBlur in="SourceGraphic" result="result0" stdDeviation="5"/><feDiffuseLighting result="result5" surfaceScale="10"><feDistantLight azimuth="235" elevation="25"/></feDiffuseLighting><feComposite in="result5" in2="SourceGraphic" k1="1" k3=".6" operator="arithmetic" result="result4"/></filter></defs><text xml:space="preserve" x="556.779" y="163.51" style="font-size:127.66687775000001182px;font-style:normal;font-variant:normal;font-weight:400;font-stretch:condensed;text-align:start;line-height:125%;writing-mode:lr-tb;text-anchor:start;fill:#0000a0;fill-opacity:1;stroke:#00132c;stroke-width:.69631933999999995;stroke-miterlimit:4;stroke-opacity:1;stroke-dasharray:none;filter:url(#c);font-family:Impact;-inkscape-font-specification:Impact Condensed" transform="matrix(.7015 0 0 1.60198 -208.164 71.736)"><tspan x="556.779" y="163.51" style="stroke:#00132c;stroke-width:.69631933999999995;stroke-opacity:1;fill:#0000a0">Net</tspan></text><text xml:space="preserve" x="483.357" y="153.328" style="font-size:135.33781433px;font-style:normal;font-variant:normal;font-weight:400;font-stretch:condensed;text-align:start;line-height:125%;writing-mode:lr-tb;text-anchor:start;fill:#729fcf;fill-opacity:1;stroke:#4074b8;stroke-width:.73815811;stroke-miterlimit:4;stroke-opacity:1;stroke-dasharray:none;font-family:Impact;-inkscape-font-specification:Impact Condensed" transform="matrix(.66173 0 0 1.51118 -185.346 101.949)"><tspan x="483.357" y="153.328" style="stroke-width:.73815811">U</tspan></text><text xml:space="preserve" x="305.037" y="153.328" style="font-size:135.33781433px;font-style:normal;font-variant:normal;font-weight:400;font-stretch:condensed;text-align:start;line-height:125%;writing-mode:lr-tb;text-anchor:start;fill:#0048d8;fill-opacity:1;stroke:#4074b8;stroke-width:.73815811;stroke-miterlimit:4;stroke-opacity:1;stroke-dasharray:none;font-family:Impact;-inkscape-font-specification:Impact Condensed" transform="matrix(.66173 0 0 1.51118 -185.346 101.949)"><tspan x="305.037" y="153.328" style="stroke-width:.73815811">Sql</tspan></text><g transform="matrix(.56636 0 0 .51669 -37.17 46.381)"><g style="filter:url(#d)" transform="matrix(-.0046 .62018 .53915 .0053 232.843 -57.627)"><g style="fill:none;stroke:#2f6a68;stroke-width:1.24609017;stroke-opacity:1;filter:url(#e)" transform="translate(431.088 190.59)scale(.8599)"><g style="fill:none;stroke:#2f6a68;stroke-width:1.24609017;stroke-opacity:1"><path d="M212 15v390m195-195H15M59 90c87.502 64.18 214.497 64.18 302 0m0 240c-87.502-64.18-214.497-64.18-302 0M211.36 15.596c-117.4 94.366-116.791 295.79.629 390.18m.427-.63c117.399-94.367 116.79-295.16-.63-389.55" style="fill:none;stroke:#2f6a68;stroke-width:24.92180634;stroke-opacity:1" transform="translate(-466.381 -183.305)"/></g></g><g transform="translate(176.792 165.195)scale(.8599)"><circle cx="380" cy="535.219" r="225.714" style="fill:url(#f);fill-opacity:1;stroke:none;filter:url(#g)" transform="matrix(-.10393 -.11538 .11424 -.10497 20.465 -54.214)"/><circle cx="102.143" cy="545.934" r="135" style="opacity:.87614698;fill:url(#h);fill-opacity:1;stroke:none" transform="matrix(.15444 0 0 .15599 12.512 -255.06)"/></g><g transform="translate(176.792 521.195)scale(.8599)"><circle cx="380" cy="535.219" r="225.714" style="fill:url(#i);fill-opacity:1;stroke:none;filter:url(#g)" transform="matrix(-.10393 -.11538 .11424 -.10497 20.465 -54.214)"/><circle cx="102.143" cy="545.934" r="135" style="opacity:.87614698;fill:url(#j);fill-opacity:1;stroke:none" transform="matrix(.15444 0 0 .15599 12.512 -255.06)"/></g><g transform="translate(6.53 347.495)scale(.8599)"><circle cx="380" cy="535.219" r="225.714" style="fill:url(#k);fill-opacity:1;stroke:none;filter:url(#g)" transform="matrix(-.10393 -.11538 .11424 -.10497 20.465 -54.214)"/><circle cx="102.143" cy="545.934" r="135" style="opacity:.87614698;fill:url(#l);fill-opacity:1;stroke:none" transform="matrix(.15444 0 0 .15599 12.512 -255.06)"/></g><g transform="translate(341.894 347.495)scale(.8599)"><circle cx="380" cy="535.219" r="225.714" style="fill:url(#m);fill-opacity:1;stroke:none;filter:url(#g)" transform="matrix(-.10393 -.11538 .11424 -.10497 20.465 -54.214)"/><circle cx="102.143" cy="545.934" r="135" style="opacity:.87614698;fill:url(#n);fill-opacity:1;stroke:none" transform="matrix(.15444 0 0 .15599 12.512 -255.06)"/></g><g transform="translate(310.937 235.707)scale(.8599)"><circle cx="380" cy="535.219" r="225.714" style="fill:url(#o);fill-opacity:1;stroke:none;filter:url(#g)" transform="matrix(-.10393 -.11538 .11424 -.10497 20.465 -54.214)"/><circle cx="102.143" cy="545.934" r="135" style="opacity:.87614698;fill:url(#p);fill-opacity:1;stroke:none" transform="matrix(.15444 0 0 .15599 12.512 -255.06)"/></g><g transform="translate(39.207 235.707)scale(.8599)"><circle cx="380" cy="535.219" r="225.714" style="fill:url(#q);fill-opacity:1;stroke:none;filter:url(#g)" transform="matrix(-.10393 -.11538 .11424 -.10497 20.465 -54.214)"/><circle cx="102.143" cy="545.934" r="135" style="opacity:.87614698;fill:url(#r);fill-opacity:1;stroke:none" transform="matrix(.15444 0 0 .15599 12.512 -255.06)"/></g><g transform="translate(39.207 452.403)scale(.8599)"><circle cx="380" cy="535.219" r="225.714" style="fill:url(#s);fill-opacity:1;stroke:none;filter:url(#g)" transform="matrix(-.10393 -.11538 .11424 -.10497 20.465 -54.214)"/><circle cx="102.143" cy="545.934" r="135" style="opacity:.87614698;fill:url(#t);fill-opacity:1;stroke:none" transform="matrix(.15444 0 0 .15599 12.512 -255.06)"/></g><g transform="translate(309.217 452.403)scale(.8599)"><circle cx="380" cy="535.219" r="225.714" style="fill:url(#u);fill-opacity:1;stroke:none;filter:url(#g)" transform="matrix(-.10393 -.11538 .11424 -.10497 20.465 -54.214)"/><circle cx="102.143" cy="545.934" r="135" style="opacity:.87614698;fill:url(#v);fill-opacity:1;stroke:none" transform="matrix(.15444 0 0 .15599 12.512 -255.06)"/></g></g><ellipse cx="158.884" cy="173.783" rx="158.884" ry="172.365" style="fill:none;stroke:#71bacf;stroke-width:18.62837601;stroke-miterlimit:4;stroke-dasharray:none;stroke-opacity:1;filter:url(#w)" transform="matrix(.84025 0 0 .84948 213.587 -71.574)"/></g></svg>