<?xml version="1.0" encoding="UTF-8" standalone="no"?>
<svg
   height="128"
   width="128"
   id="svg2"
   version="1.1"
   inkscape:version="1.2.2 (b0a8486541, 2022-12-01)"
   sodipodi:docname="ic_settings_tree.svg"
   xml:space="preserve"
   xmlns:inkscape="http://www.inkscape.org/namespaces/inkscape"
   xmlns:sodipodi="http://sodipodi.sourceforge.net/DTD/sodipodi-0.dtd"
   xmlns="http://www.w3.org/2000/svg"
   xmlns:svg="http://www.w3.org/2000/svg"
   xmlns:rdf="http://www.w3.org/1999/02/22-rdf-syntax-ns#"
   xmlns:cc="http://creativecommons.org/ns#"
   xmlns:dc="http://purl.org/dc/elements/1.1/"><metadata
     id="metadata10"><rdf:RDF><cc:Work
         rdf:about=""><dc:format>image/svg+xml</dc:format><dc:type
           rdf:resource="http://purl.org/dc/dcmitype/StillImage" /></cc:Work></rdf:RDF></metadata><defs
     id="defs8"><linearGradient
       id="linearGradient19282"
       gradientTransform="matrix(0,0,0,0,-45950673000,-1.4550191e11)"
       inkscape:swatch="solid"><stop
         style="stop-color:#666666;stop-opacity:1;"
         offset="0"
         id="stop19284" /></linearGradient><style
       id="style2988"
       type="text/css">
			.fil0 {fill:#006C3B}
			.fil1 {fill:#77C06C}
		</style><style
       id="style2988-7"
       type="text/css">
			.fil0 {fill:#006C3B}
			.fil1 {fill:#77C06C}
		</style></defs><sodipodi:namedview
     pagecolor="#ffffff"
     bordercolor="#666666"
     borderopacity="1"
     objecttolerance="10"
     gridtolerance="10"
     guidetolerance="10"
     inkscape:pageopacity="0"
     inkscape:pageshadow="2"
     inkscape:window-width="1920"
     inkscape:window-height="1113"
     id="namedview6"
     showgrid="false"
     inkscape:zoom="1.3350176"
     inkscape:cx="162.17015"
     inkscape:cy="108.23827"
     inkscape:window-x="0"
     inkscape:window-y="0"
     inkscape:window-maximized="1"
     inkscape:current-layer="svg2"
     inkscape:showpageshadow="0"
     inkscape:pagecheckerboard="1"
     inkscape:deskcolor="#d1d1d1" /><style
     type="text/css"
     id="style8">
		.Border { fill: lightGray; stroke: black; stroke-width: 4; }
		.Label { font-size:24; font-family:Arial; fill:black; }
	</style><style
     type="text/css"
     id="style8-7">
		.Border { fill: lightGray; stroke: black; stroke-width: 4; }
		.Label { font-size:24; font-family:Arial; fill:black; }
	</style><style
     type="text/css"
     id="style8-3">
		.Border { fill: lightGray; stroke: black; stroke-width: 4; }
		.Label { font-size:24; font-family:Arial; fill:black; }
	</style><style
     type="text/css"
     id="style8-6">
		.Border { fill: lightGray; stroke: black; stroke-width: 4; }
		.Label { font-size:24; font-family:Arial; fill:black; }
	</style><style
     id="style8-1"
     type="text/css">
		.Border { fill: lightGray; stroke: black; stroke-width: 4; }
		.Label { font-size:24; font-family:Arial; fill:black; }
	</style><style
     id="style8-7-0"
     type="text/css">
		.Border { fill: lightGray; stroke: black; stroke-width: 4; }
		.Label { font-size:24; font-family:Arial; fill:black; }
	</style><style
     id="style8-3-2"
     type="text/css">
		.Border { fill: lightGray; stroke: black; stroke-width: 4; }
		.Label { font-size:24; font-family:Arial; fill:black; }
	</style><style
     id="style8-6-7"
     type="text/css">
		.Border { fill: lightGray; stroke: black; stroke-width: 4; }
		.Label { font-size:24; font-family:Arial; fill:black; }
	</style><g
     style="fill:#696969;fill-opacity:1"
     id="g3773"
     transform="matrix(0.18299124,0,0,0.18299124,10.010814,10.010722)"><g
       id="g3764"
       style="fill:#696969;fill-opacity:1">
	<path
   d="m 537.804,174.688 c 0,-44.772 -33.976,-81.597 -77.552,-86.12 -12.23,-32.981 -43.882,-56.534 -81.128,-56.534 -16.304,0 -31.499,4.59 -44.514,12.422 C 319.808,17.949 291.513,0 258.991,0 c -43.117,0 -78.776,31.556 -85.393,72.809 -3.519,-0.43 -7.076,-0.727 -10.71,-0.727 -47.822,0 -86.598,38.767 -86.598,86.598 0,2.343 0.172,4.638 0.354,6.933 -24.25,15.348 -40.392,42.333 -40.392,73.153 0,27.244 12.604,51.513 32.273,67.387 -0.086,1.559 -0.239,3.107 -0.239,4.686 0,47.822 38.767,86.598 86.598,86.598 14.334,0 27.817,-3.538 39.723,-9.696 16.495,11.848 40.115,26.67 51.551,23.715 0,0 4.255,65.905 3.337,82.64 -1.75,31.843 -11.303,67.291 -18.025,95.979 h 104.117 c 0,0 -15.348,-63.954 -16.018,-85.307 -0.669,-21.354 6.675,-60.675 6.675,-60.675 l 36.118,-37.36 c 13.903,9.505 30.695,14.908 48.807,14.908 44.771,0 81.597,-34.062 86.12,-77.639 32.98,-12.23 56.533,-43.968 56.533,-81.214 0,-21.994 -8.262,-41.999 -21.765,-57.279 3.653,-9.583 5.747,-19.948 5.747,-30.821 z M 214.611,373.444 c 6.942,-6.627 12.766,-14.372 17.212,-22.969 l 17.002,35.62 c -0.009,10e-4 -9.256,4.084 -34.214,-12.651 z m 63.572,21.994 c -8.798,1.597 -23.782,-25.494 -34.416,-47.517 11.791,6.015 25.102,9.477 39.254,9.477 3.634,0 7.201,-0.296 10.72,-0.736 -2.735,17.624 -7.554,37.313 -15.558,38.776 z m 37.38,17.337 c -20.35,5.651 -8.167,-36.501 -2.334,-60.904 4.218,-1.568 8.301,-3.413 12.183,-5.604 2.343,17.786 10.069,33.832 21.516,46.521 -9.917,8.809 -21.335,17.204 -31.365,19.987 z"
   id="path3762"
   style="fill:#696969;fill-opacity:1" />
</g></g></svg>
