<svg xmlns="http://www.w3.org/2000/svg" width="1000" height="1066.667"><path d="M770 318.664h-43.76V143.248H770zm-87.614 0h-43.903V99.394h43.903zm-87.71 0H550.73V143.248h43.947zm-175.415 0H375.36V143.248h43.9zm-87.661 0h-43.854V143.248H331.6zm131.56-219.27h43.854v219.27H463.16ZM765.825 55.54H291.92c-26.687 0-48.215 21.528-48.215 48.075v280.666l-87.52 87.427v73.168c0 19.84 23.826 15.15 23.826 15.15 22.747 0 26.734 19.042 26.734 26.546v28.752c0 20.496-6.144 25.562-16.415 33.723l-32.88 27.766v301.444c0 23.217 18.855 42.072 42.118 42.072H771.83c23.217 0 42.118-18.855 42.118-42.072V103.756c0-26.688-21.528-48.216-48.122-48.216" style="fill:gray;fill-opacity:1;fill-rule:nonzero;stroke:none;stroke-width:1.06666672"/></svg>