<?xml version="1.0" encoding="UTF-8" standalone="no"?>
<!--
  - Copyright (c) 2022. Bernard Bou
  -->

<svg
   version="1.1"
   viewBox="0 0 384 384"
   id="svg206"
   sodipodi:docname="sqlunet.svg"
   inkscape:version="1.1.2 (0a00cf5339, 2022-02-04)"
   xmlns:inkscape="http://www.inkscape.org/namespaces/inkscape"
   xmlns:sodipodi="http://sodipodi.sourceforge.net/DTD/sodipodi-0.dtd"
   xmlns:xlink="http://www.w3.org/1999/xlink"
   xmlns="http://www.w3.org/2000/svg"
   xmlns:svg="http://www.w3.org/2000/svg"
   xmlns:rdf="http://www.w3.org/1999/02/22-rdf-syntax-ns#"
   xmlns:cc="http://creativecommons.org/ns#"
   xmlns:dc="http://purl.org/dc/elements/1.1/">
  <sodipodi:namedview
     id="namedview208"
     pagecolor="#ffffff"
     bordercolor="#666666"
     borderopacity="1.0"
     inkscape:pageshadow="2"
     inkscape:pageopacity="0.0"
     inkscape:pagecheckerboard="0"
     showgrid="false"
     inkscape:zoom="1.8723958"
     inkscape:cx="189.59666"
     inkscape:cy="192"
     inkscape:window-width="1920"
     inkscape:window-height="1113"
     inkscape:window-x="0"
     inkscape:window-y="25"
     inkscape:window-maximized="1"
     inkscape:current-layer="svg206" />
  <defs
     id="defs26">
    <linearGradient
       id="c"
       x1="154.29"
       x2="605.71"
       y1="535.22"
       y2="535.22"
       gradientUnits="userSpaceOnUse"
       xlink:href="#f" />
    <linearGradient
       id="d">
      <stop
         stop-color="#999"
         offset="0"
         id="stop3" />
      <stop
         stop-color="#999"
         stop-opacity="0"
         offset="1"
         id="stop5" />
    </linearGradient>
    <linearGradient
       id="f">
      <stop
         stop-color="#772b00"
         offset="0"
         id="stop8" />
      <stop
         stop-color="#da441b"
         offset=".5"
         id="stop10" />
      <stop
         stop-color="#d2400f"
         offset=".75"
         id="stop12" />
      <stop
         stop-color="#d44316"
         stop-opacity=".61458"
         offset=".9375"
         id="stop14" />
      <stop
         stop-color="#c33900"
         stop-opacity=".21875"
         offset="1"
         id="stop16" />
    </linearGradient>
    <linearGradient
       id="e">
      <stop
         stop-color="#fff"
         offset="0"
         id="stop19" />
      <stop
         stop-color="#fff"
         stop-opacity="0"
         offset="1"
         id="stop21" />
    </linearGradient>
    <radialGradient
       id="a"
       cx="102.14"
       cy="545.93"
       r="135"
       gradientUnits="userSpaceOnUse"
       xlink:href="#e" />
    <radialGradient
       id="b"
       cx="102.14"
       cy="545.93"
       r="135"
       gradientUnits="userSpaceOnUse"
       xlink:href="#d" />
  </defs>
  <metadata
     id="metadata28">
    <rdf:RDF>
      <cc:Work
         rdf:about="">
        <dc:format>image/svg+xml</dc:format>
        <dc:type
           rdf:resource="http://purl.org/dc/dcmitype/StillImage" />
      </cc:Work>
    </rdf:RDF>
  </metadata>
  <g
     transform="translate(0 -294.29)"
     id="g30" />
  <g
     transform="translate(6.2879 -303.22)"
     id="g204">
    <g
       transform="matrix(.7502 0 0 .7502 -1.8244 171.24)"
       id="g202">
      <ellipse
         transform="translate(-6.2879 8.9314)"
         cx="256.27"
         cy="422.93"
         rx="254.48"
         ry="254.48"
         fill="#806678"
         fill-rule="evenodd"
         opacity=".99"
         id="ellipse32" />
      <g
         transform="matrix(.6379 0 0 .6379 -7.0696 199.85)"
         fill-rule="evenodd"
         id="g40">
        <path
           transform="matrix(.97814 .20795 -.20942 .97783 0 0)"
           d="m774.06 369.79a319.63 318.56 0 0 1-235.6 211.99 319.63 318.56 0 0 1-302.78-94.945l234.66-216.3z"
           fill="#039"
           opacity=".99"
           id="path34" />
        <path
           transform="rotate(137.71)"
           d="m258.92-475.6a318.51 318.51 0 0 1-213.54 238.18 318.51 318.51 0 0 1-312.71-67.396l214.39-235.56z"
           fill="#36c"
           opacity=".99"
           id="path36" />
        <path
           transform="rotate(264)"
           d="m-87.521 394.76a318.51 318.51 0 0 1-187.29 258.59 318.51 318.51 0 0 1-317.5-33.804l187.93-257.16z"
           fill="#69f"
           opacity=".99"
           id="path38" />
      </g>
      <ellipse
         transform="translate(-6.2879 8.9314)"
         cx="256.13"
         cy="422.62"
         rx="94.549"
         ry="94.549"
         fill="#ffd700"
         fill-rule="evenodd"
         opacity=".99"
         id="ellipse42" />
      <ellipse
         transform="translate(-6.2879 8.9314)"
         cx="313.64"
         cy="468.69"
         rx="19.915"
         ry="19.915"
         fill="#ff0"
         fill-rule="evenodd"
         opacity=".99"
         id="ellipse44" />
      <g
         transform="matrix(.70409 0 0 .70409 -11.674 163.42)"
         id="g56">
        <g
           transform="matrix(.75815 0 0 .75815 334.96 -703.46)"
           id="g54">
          <g
             fill="#393a7a"
             stroke="#393a7a"
             id="g48">
            <path
               d="m90.353 1004.4a42.254 42.634 0 0 1-84.508 0 42.254 42.634 0 1 1 84.508 0z"
               color="#000000"
               fill="#393a7a"
               stroke="#393a7a"
               stroke-width="10"
               id="path46" />
          </g>
          <text
             x="16.875616"
             y="1029.505"
             fill="#f5f5f5"
             font-family="sans-serif"
             font-weight="bold"
             letter-spacing="0px"
             word-spacing="0px"
             style="line-height:0%"
             xml:space="preserve"
             id="text52"><tspan
               x="16.875616"
               y="1029.505"
               font-family="sans-serif"
               font-size="65.475px"
               style="line-height:1.25"
               id="tspan50">M</tspan></text>
        </g>
      </g>
      <g
         transform="matrix(.70409 0 0 .70409 -10.926 194.23)"
         id="g68">
        <g
           transform="matrix(.78838 0 0 .78838 522.18 -545.35)"
           id="g66">
          <g
             fill="#ffa500"
             stroke="#ffa500"
             id="g60">
            <path
               d="m90.353 1004.4a42.254 42.634 0 0 1-84.508 0 42.254 42.634 0 1 1 84.508 0z"
               color="#000000"
               fill="#ffa500"
               stroke="#ffa500"
               stroke-width="10"
               id="path58" />
          </g>
          <text
             x="24.875616"
             y="1029.505"
             fill="#f5f5f5"
             font-family="sans-serif"
             font-weight="bold"
             letter-spacing="0px"
             word-spacing="0px"
             style="line-height:0%"
             xml:space="preserve"
             id="text64"><tspan
               x="24.875616"
               y="1029.505"
               font-family="sans-serif"
               font-size="65.475px"
               style="line-height:1.25"
               id="tspan62">P</tspan></text>
        </g>
      </g>
      <g
         transform="matrix(.70409 0 0 .70409 -8.592 186.33)"
         id="g80">
        <g
           transform="matrix(.79007 0 0 .79007 136.44 -535.82)"
           id="g78">
          <g
             fill="#8b0000"
             stroke="#8b0000"
             id="g72">
            <path
               d="m90.353 1004.4a42.254 42.634 0 0 1-84.508 0 42.254 42.634 0 1 1 84.508 0z"
               color="#000000"
               fill="#ffa500"
               stroke="#ffa500"
               stroke-width="10"
               id="path70" />
          </g>
          <text
             x="22.018473"
             y="1032.3622"
             fill="#f5f5f5"
             font-family="sans-serif"
             font-weight="bold"
             letter-spacing="0px"
             word-spacing="0px"
             style="line-height:0%"
             xml:space="preserve"
             id="text76"><tspan
               x="22.018473"
               y="1032.3622"
               font-family="sans-serif"
               font-size="65.475px"
               style="line-height:1.25"
               id="tspan74">V</tspan></text>
        </g>
      </g>
      <g
         transform="matrix(.617 0 0 .617 220.41 -251.92)"
         id="g90">
        <g
           transform="matrix(1.0921 0 0 1.0836 -4.8239 -83.994)"
           fill="#ffa500"
           id="g84">
          <path
             d="m90.353 1004.4a42.254 42.634 0 0 1-84.508 0 42.254 42.634 0 1 1 84.508 0z"
             color="#000000"
             fill="#ffa500"
             id="path82" />
        </g>
        <text
           x="11.661331"
           y="1029.1479"
           fill="#f5f5f5"
           font-family="sans-serif"
           font-weight="bold"
           letter-spacing="0px"
           word-spacing="0px"
           style="line-height:0%"
           xml:space="preserve"
           id="text88"><tspan
             x="11.661331"
             y="1029.1479"
             font-family="sans-serif"
             font-size="65.475px"
             style="line-height:1.25"
             id="tspan86">W</tspan></text>
      </g>
      <g
         transform="matrix(.70409 0 0 .70409 -22.616 134.97)"
         id="g102">
        <g
           transform="matrix(.78838 0 0 .78838 349.05 -163.61)"
           id="g100">
          <g
             stroke="#3465a4"
             id="g94">
            <path
               d="m90.353 1004.4a42.254 42.634 0 0 1-84.508 0 42.254 42.634 0 1 1 84.508 0z"
               color="#000000"
               fill="#ffa500"
               stroke="#ffa500"
               stroke-width="10"
               id="path92" />
          </g>
          <text
             x="25.589901"
             y="1029.505"
             fill="#f5f5f5"
             font-family="sans-serif"
             font-weight="bold"
             letter-spacing="0px"
             word-spacing="0px"
             style="line-height:0%"
             xml:space="preserve"
             id="text98"><tspan
               x="25.589901"
               y="1029.505"
               font-family="sans-serif"
               font-size="65.475px"
               style="line-height:1.25"
               id="tspan96">F</tspan></text>
        </g>
      </g>
      <g
         transform="matrix(.59851 0 0 .59851 221.06 -169.6)"
         id="g140">
        <path
           d="m90.353 1004.4a42.254 42.634 0 0 1-84.508 0 42.254 42.634 0 1 1 84.508 0z"
           color="#000000"
           fill="none"
           stroke="#ff6500"
           stroke-width="10"
           id="path104" />
        <g
           transform="matrix(.51001 0 0 .51001 14.303 971.85)"
           id="g138">
          <g
             transform="matrix(.47009 0 0 .47009 3.8674 33.173)"
             id="g112">
            <circle
               transform="matrix(.34959 -.11439 .15509 .25785 -54.059 -75.419)"
               cx="102.14"
               cy="545.93"
               r="135"
               fill="url(#b)"
               id="circle106" />
            <circle
               transform="matrix(-.16161 -.17763 .17763 -.16161 31.471 156.65)"
               cx="380"
               cy="535.22"
               r="225.71"
               fill="url(#c)"
               id="circle108" />
            <circle
               transform="matrix(.24015 0 0 .24015 27.396 -143.71)"
               cx="102.14"
               cy="545.93"
               r="135"
               fill="url(#a)"
               opacity=".87615"
               id="circle110" />
          </g>
          <g
             transform="matrix(.47009 0 0 .47009 63.867 33.173)"
             id="g120">
            <circle
               transform="matrix(.34959 -.11439 .15509 .25785 -54.059 -75.419)"
               cx="102.14"
               cy="545.93"
               r="135"
               fill="url(#b)"
               id="circle114" />
            <circle
               transform="matrix(-.16161 -.17763 .17763 -.16161 31.471 156.65)"
               cx="380"
               cy="535.22"
               r="225.71"
               fill="url(#c)"
               id="circle116" />
            <circle
               transform="matrix(.24015 0 0 .24015 27.396 -143.71)"
               cx="102.14"
               cy="545.93"
               r="135"
               fill="url(#a)"
               opacity=".87615"
               id="circle118" />
          </g>
          <g
             transform="matrix(.47009 0 0 .47009 63.867 91.173)"
             id="g128">
            <circle
               transform="matrix(.34959 -.11439 .15509 .25785 -54.059 -75.419)"
               cx="102.14"
               cy="545.93"
               r="135"
               fill="url(#b)"
               id="circle122" />
            <circle
               transform="matrix(-.16161 -.17763 .17763 -.16161 31.471 156.65)"
               cx="380"
               cy="535.22"
               r="225.71"
               fill="url(#c)"
               id="circle124" />
            <circle
               transform="matrix(.24015 0 0 .24015 27.396 -143.71)"
               cx="102.14"
               cy="545.93"
               r="135"
               fill="url(#a)"
               opacity=".87615"
               id="circle126" />
          </g>
          <g
             transform="matrix(.47009 0 0 .47009 3.8674 91.173)"
             id="g136">
            <circle
               transform="matrix(.34959 -.11439 .15509 .25785 -54.059 -75.419)"
               cx="102.14"
               cy="545.93"
               r="135"
               fill="url(#b)"
               id="circle130" />
            <circle
               transform="matrix(-.16161 -.17763 .17763 -.16161 31.471 156.65)"
               cx="380"
               cy="535.22"
               r="225.71"
               fill="url(#c)"
               id="circle132" />
            <circle
               transform="matrix(.24015 0 0 .24015 27.396 -143.71)"
               cx="102.14"
               cy="545.93"
               r="135"
               fill="url(#a)"
               opacity=".87615"
               id="circle134" />
          </g>
        </g>
      </g>
      <path
         transform="translate(-6.2879 8.9314)"
         d="m146.27 513.67c-0.0233 2e-3 -0.0462 6e-3 -0.0684 0.0146-1.4167 0.51835-8.2662 6.8409-9.8266 7.7812-3.4407 2.0734-7.0085 3.6744-9.0943 3.9101-4.4508 0.50309-4.8105 0.21362-8.3523 0.3173-3.5419 0.10366-9.949-1.1355-10.354 5e-3 -0.40478 1.1404-0.1008 4.5592 0.40517 6.3216 0.50598 1.7624 2.002 6.8532 3.5001 9.7094 0.41826 0.79744 2.3037 4.5467 4.8523 8.7233 2.5486 4.1767 6.4765 7.9028 7.83 9.2506 2.707 2.6954 6.467 5.044 7.3272 5.3551 1.7203 0.62202 7.2513 2.5218 10.793 1.3815 3.5419-1.1404 6.61-3.6875 7.0148-4.8279 0.20239-0.5702 2.0743-4.5986 2.8655-9.2212 0.79116-4.6227 0.50148-9.8401 0.40029-11.032-0.2024-2.3844-0.70728-10.979-1.4157-13.571-0.69729-2.5513-4.4101-14.247-5.8774-14.117zm-5.0426 14.728c2.5941-0.0218 5.5277 2.3829 5.731 2.4847l-9.7192 4.1981c0.15861-5.1808 1.9706-6.6659 3.9882-6.6828zm-13.698 6.8488c2.5941-0.0218 5.5277 2.3829 5.731 2.4847l-9.7192 4.1981c0.15861-5.1807 1.9706-6.6659 3.9882-6.6828zm20.327 10.881c0.0938-6e-3 0.18987 9.9e-4 0.28801 0.0244 1.2609 0.29664 0.90519 4.4301 0.16109 6.8683-1.1582 3.7951-3.3996 5.828-5.3941 6.2972-1.8433 0.43366-3.9132 0.22323-7.0978-1.855-4.5659-2.9796-6.8575-5.9074-5.8286-6.429 1.3525-0.6856 7.1622 2.7396 11.213 1.7866 3.6514-0.85904 4.7502-6.5844 6.6584-6.6926z"
         fill="#f0f"
         fill-rule="evenodd"
         id="path142" />
      <path
         transform="translate(-6.2879 8.9314)"
         d="m233.76 232.01c-0.0232 2e-3 -0.0462 6e-3 -0.0684 0.0146-1.4167 0.51835-8.2662 6.8409-9.8266 7.7812-3.4406 2.0734-7.0085 3.6744-9.0943 3.9101-4.4508 0.5031-4.8105 0.21363-8.3523 0.3173-3.5419 0.10367-9.949-1.1355-10.354 5e-3 -0.40479 1.1404-0.1008 4.5592 0.40517 6.3216 0.50599 1.7624 2.002 6.8532 3.5001 9.7094 0.41826 0.79744 2.3037 4.5466 4.8523 8.7233 2.5486 4.1767 6.4765 7.9028 7.83 9.2506 2.707 2.6954 6.467 5.044 7.3272 5.355 1.7203 0.62203 7.2512 2.5219 10.793 1.3815 3.5419-1.1404 6.61-3.6875 7.0148-4.8279 0.20238-0.57019 2.0743-4.5986 2.8655-9.2212 0.79116-4.6227 0.50149-9.8401 0.40029-11.032-0.20238-2.3844-0.70728-10.979-1.4157-13.571-0.69728-2.5513-4.4101-14.247-5.8774-14.117zm-5.0426 14.728c2.5941-0.0218 5.5277 2.3829 5.7309 2.4847l-9.7192 4.1981c0.15861-5.1808 1.9706-6.6659 3.9882-6.6828zm-13.698 6.8488c2.5941-0.0218 5.5277 2.3829 5.731 2.4847l-9.7192 4.1981c0.15861-5.1807 1.9706-6.6659 3.9882-6.6828zm20.327 10.881c0.0938-6e-3 0.18986 9.9e-4 0.288 0.0244 1.261 0.29666 0.9052 4.4301 0.1611 6.8684-1.1582 3.7951-3.3995 5.828-5.3941 6.2972-1.8433 0.43366-3.9132 0.22323-7.0978-1.855-4.5659-2.9796-6.8575-5.9074-5.8286-6.429 1.3525-0.68559 7.1622 2.7396 11.213 1.7867 3.6514-0.85903 4.7502-6.5844 6.6584-6.6926z"
         fill="#f0f"
         fill-rule="evenodd"
         id="path144" />
      <g
         transform="matrix(.12137 0 0 .12137 273.61 624.51)"
         fill-rule="evenodd"
         id="g150">
        <path
           d="m-209.61 140.75c-0.14909 0.0132-0.29579 0.0419-0.4375 0.0937-9.0695 3.3183-52.918 43.793-62.906 49.812-22.026 13.273-44.866 23.522-58.219 25.031-28.493 3.2207-30.795 1.3676-53.469 2.0312-22.674 0.66367-63.69-7.269-66.281 0.0312-2.5913 7.3003-0.64536 29.186 2.5938 40.469 3.2391 11.282 12.816 43.872 22.406 62.156 2.6775 5.105 14.748 29.106 31.062 55.844 16.315 26.738 41.46 50.591 50.125 59.219 17.329 17.255 41.4 32.29 46.906 34.281 11.013 3.982 46.42 16.144 69.094 8.8438s42.315-23.606 44.906-30.906c1.2956-3.6502 13.279-29.438 18.344-59.031s3.2103-62.993 2.5625-70.625c-1.2956-15.264-4.5277-70.283-9.0625-86.875-4.4639-16.332-28.232-91.204-37.625-90.375zm-32.281 94.281c16.607-0.13962 35.387 15.255 36.688 15.906l-62.219 26.875c1.0153-33.165 12.615-42.673 25.531-42.781zm-87.687 43.844c16.607-0.13962 35.387 15.255 36.688 15.906l-62.219 26.875c1.0153-33.165 12.615-42.673 25.531-42.781zm130.12 69.656c0.60077-0.0341 1.2155 8e-3 1.8438 0.15625 8.0721 1.899 5.7948 28.36 1.0312 43.969-7.4143 24.295-21.763 37.309-34.531 40.312-11.8 2.7761-25.051 1.4291-45.437-11.875-29.229-19.074-43.899-37.817-37.312-41.156 8.6581-4.3889 45.85 17.538 71.781 11.438 23.375-5.4992 30.409-42.151 42.625-42.844z"
           fill="#f0f"
           id="path146" />
        <path
           d="m-90.817 149.19c-0.10009 1.5e-4 -0.21452 0.012-0.3125 0.0312-6.2708 1.2321-21.193 13.137-28 21.156-6.8067 8.0189-26.385 31.34-35.688 48-2.5973 4.6513-14.997 26.079-27.688 52.375-12.691 26.296-19.821 58.707-22.562 70.062-5.4822 22.71-6.7015 50.076-5.9375 55.656 1.5279 11.161 6.9195 46.749 21.188 62.469 14.268 15.72 33.823 24.67 40.094 23.438 3.1354-0.61608 26.371-2.6013 49.625-12.188 23.254-9.5862 46.5-26.784 51.719-30.906 10.438-8.2435 48.618-36.744 58.719-48.344 10.101-11.599 55.649-68.305 49.656-74.406s-52.515-24.169-60.813-29.781c-18.296-12.375-34.756-26.873-41.156-37.438-13.657-22.543-13.213-25.328-22.719-44.156-9.3568-18.534-19.819-55.978-26.125-55.969zm-12.094 120.59c26.867-0.34858 19.365 46.91 19.438 48.938l-44.063-39.969c10.374-6.2904 18.425-8.8883 24.625-8.9688zm66.375 53.469c26.867-0.34858 19.365 46.91 19.438 48.938l-44.062-39.938c10.374-6.2904 18.425-8.9196 24.625-9zm-102.44 39.312c12.7-0.0251 22.172 4.5617 27.406 10.844 6.4495 7.7408 10.628 18.299 9.25 39.25-1.9749 30.039-9.3185 48.947-14.156 45.375-6.3591-4.6949-5.4831-41.896-19.656-58.906-13.404-16.088-43.599-4.2862-46.562-15.719-1.7847-6.8853 17.375-16.247 30-19.188 4.9127-1.1444 9.4854-1.6479 13.719-1.6562z"
           fill="#a40000"
           id="path148" />
      </g>
      <path
         transform="translate(-6.2879 8.9314)"
         d="m422.29 447.7c-0.0182 3e-5 -0.0389 2e-3 -0.0567 6e-3 -1.1368 0.22337-3.8419 2.3815-5.0758 3.8351-1.2339 1.4536-4.783 5.6813-6.4693 8.7013-0.47082 0.84317-2.7185 4.7276-5.0191 9.4944-2.3006 4.7668-3.5932 10.642-4.0901 12.701-0.99379 4.1168-1.2148 9.0775-1.0763 10.089 0.27697 2.0233 1.2543 8.4745 3.8408 11.324 2.5865 2.8496 6.1313 4.472 7.2681 4.2487 0.56838-0.11169 4.7805-0.47155 8.9958-2.2093 4.2154-1.7378 8.4293-4.8554 9.3754-5.6026 1.8922-1.4944 8.8133-6.6609 10.644-8.7636 1.831-2.1027 10.088-12.382 9.0015-13.488-1.0864-1.106-9.5198-4.3813-11.024-5.3986-3.3167-2.2434-6.3004-4.8715-7.4607-6.7865-2.4758-4.0864-2.3953-4.5913-4.1184-8.0045-1.6962-3.3598-3.5928-10.148-4.7358-10.146zm-2.1923 21.861c4.8704-0.0631 3.5104 8.5038 3.5236 8.8712l-7.9875-7.2454c1.8805-1.1403 3.34-1.6112 4.4639-1.6258zm12.032 9.6926c4.8704-0.0632 3.5104 8.5037 3.5236 8.8712l-7.9875-7.2397c1.8805-1.1403 3.34-1.6169 4.4639-1.6315zm-18.57 7.1264c2.3022-4e-3 4.0193 0.82693 4.9681 1.9657 1.1691 1.4032 1.9265 3.3171 1.6768 7.1151-0.358 5.4453-1.6892 8.8729-2.5662 8.2254-1.1528-0.85107-0.99396-7.5947-3.5632-10.678-2.4299-2.9164-7.9035-0.77699-8.4407-2.8494-0.32354-1.2481 3.1496-2.9451 5.4383-3.4782 0.89055-0.20743 1.7195-0.29872 2.4869-0.30023z"
         fill="#a40000"
         fill-rule="evenodd"
         id="path152" />
      <g
         transform="matrix(.24928 0 0 .24928 292.28 219.44)"
         id="g162">
        <g
           fill="#ffa500"
           stroke="#ffa500"
           id="g156">
          <path
             d="m90.353 1004.4a42.254 42.634 0 0 1-84.508 0 42.254 42.634 0 1 1 84.508 0z"
             color="#000000"
             fill="#ffa500"
             stroke="#ffa500"
             stroke-width="10"
             id="path154" />
        </g>
        <text
           x="24.875616"
           y="1029.505"
           fill="#f5f5f5"
           font-family="sans-serif"
           font-weight="bold"
           letter-spacing="0px"
           word-spacing="0px"
           style="line-height:0%"
           xml:space="preserve"
           id="text160"><tspan
             x="24.875616"
             y="1029.505"
             font-family="sans-serif"
             font-size="65.475px"
             style="line-height:1.25"
             id="tspan158">B</tspan></text>
      </g>
      <g
         transform="translate(-2.2879 6.9314)"
         id="g172">
        <g
           transform="matrix(.24928 0 0 .24928 188.56 212.51)"
           fill="#ffa500"
           stroke="#ffa500"
           id="g166">
          <path
             d="m90.353 1004.4a42.254 42.634 0 0 1-84.508 0 42.254 42.634 0 1 1 84.508 0z"
             color="#000000"
             fill="#ffa500"
             stroke="#ffa500"
             stroke-width="10"
             id="path164" />
        </g>
        <text
           x="194.03279"
           y="468.87949"
           fill="#f5f5f5"
           font-family="'Arial Black'"
           font-size="17.431px"
           letter-spacing="0px"
           stroke-width=".10863"
           word-spacing="0px"
           style="font-feature-settings:normal;font-variant-caps:normal;font-variant-ligatures:normal;font-variant-numeric:normal;line-height:0%"
           xml:space="preserve"
           id="text170"><tspan
             x="194.03279"
             y="468.87949"
             stroke-width=".10863"
             id="tspan168">S</tspan></text>
      </g>
      <text
         x="227.72585"
         y="404.8822"
         fill="#000000"
         font-family="'DejaVu Sans Mono'"
         font-size="7.6548px"
         letter-spacing="0px"
         stroke-width=".6379px"
         word-spacing="0px"
         style="line-height:0%"
         xml:space="preserve"
         id="text176"><tspan
           x="227.72585"
           y="404.8822"
           font-size="10.561px"
           stroke-width=".6379px"
           style="line-height:1"
           id="tspan174">WORDNET</tspan></text>
      <text
         x="223.94844"
         y="616.19373"
         fill="#ffffff"
         font-family="'DejaVu Sans Mono'"
         font-size="7.6548px"
         letter-spacing="0px"
         stroke-width=".6379px"
         word-spacing="0px"
         style="line-height:0%"
         xml:space="preserve"
         id="text180"><tspan
           x="223.94844"
           y="616.19373"
           font-size="10.561px"
           stroke-width=".6379px"
           style="line-height:1"
           id="tspan178">FRAMENET</tspan></text>
      <text
         x="90.977127"
         y="335.49112"
         fill="#ffffff"
         font-family="'DejaVu Sans Mono'"
         font-size="7.6548px"
         letter-spacing="0px"
         stroke-width=".6379px"
         word-spacing="0px"
         style="line-height:0%"
         xml:space="preserve"
         id="text184"><tspan
           x="90.977127"
           y="335.49112"
           font-size="10.561px"
           stroke-width=".6379px"
           style="line-height:1"
           id="tspan182">VERBNET</tspan></text>
      <text
         x="294.80118"
         y="491.58273"
         fill="#666666"
         font-family="'DejaVu Sans Mono'"
         font-size="7.6548px"
         letter-spacing="0px"
         stroke-width=".6379px"
         word-spacing="0px"
         style="line-height:0%"
         xml:space="preserve"
         id="text188"><tspan
           x="294.80118"
           y="491.58273"
           fill="#666666"
           font-size="10.561px"
           stroke-width=".6379px"
           style="line-height:1"
           id="tspan186">BNC</tspan></text>
      <text
         x="354.04047"
         y="335.48599"
         fill="#ffffff"
         font-family="'DejaVu Sans'"
         font-size="7.6548px"
         letter-spacing="0px"
         stroke-width=".6379px"
         word-spacing="0px"
         style="line-height:0%"
         xml:space="preserve"
         id="text192"><tspan
           x="354.04047"
           y="335.48599"
           font-size="10.561px"
           stroke-width=".6379px"
           style="line-height:1"
           id="tspan190">PROPBANK</tspan></text>
      <text
         x="198.6978"
         y="231.76283"
         fill="#ffffff"
         font-family="'DejaVu Sans'"
         font-size="7.6548px"
         letter-spacing="0px"
         stroke-width=".6379px"
         word-spacing="0px"
         style="line-height:0%"
         xml:space="preserve"
         id="text196"><tspan
           x="198.6978"
           y="231.76283"
           font-size="10.561px"
           stroke-width=".6379px"
           style="line-height:1"
           id="tspan194">PREDICATE MATRIX</tspan></text>
      <text
         transform="scale(.90449 1.1056)"
         x="195.40001"
         y="443.80981"
         fill="#666666"
         font-family="'DejaVu Sans Mono'"
         font-size="9.5112px"
         letter-spacing="0px"
         stroke-width=".7926px"
         word-spacing="0px"
         style="font-feature-settings:normal;font-variant-caps:normal;font-variant-ligatures:normal;font-variant-numeric:normal;line-height:0%"
         xml:space="preserve"
         id="text200"><tspan
           x="195.40001"
           y="443.80981"
           fill="#666666"
           stroke-width=".7926px"
           id="tspan198">SYNTAGNET</tspan></text>
    </g>
  </g>
</svg>
