<svg xmlns="http://www.w3.org/2000/svg" width="160" height="160"><defs><linearGradient id="a"><stop offset="0" style="stop-color:#b8b8b8;stop-opacity:1"/><stop offset="1" style="stop-color:#c9c9c9;stop-opacity:1"/></linearGradient></defs><path d="m-750.136 594.916-.749-79.888c.223-18.453 5.995-34.98 27.12-33.596 27.773 1.157 22.329 22.515 23.63 32.847M-715.634 578.303l79.89-.749c18.452.223 34.978 5.995 33.595 27.12-1.157 27.772-22.516 22.329-32.847 23.63M-696.39 617.405l.748 79.889c-.223 18.452-5.995 34.979-27.12 33.596-27.772-1.158-22.328-22.516-23.629-32.847M-730.901 627.66l-79.889.749c-18.452-.223-34.979-5.995-33.596-27.12 1.158-27.772 22.516-22.329 32.847-23.63" style="fill:none;fill-rule:evenodd;stroke:gray;stroke-width:20;stroke-linecap:round;stroke-linejoin:round;stroke-miterlimit:4;stroke-dasharray:none;stroke-opacity:1" transform="matrix(.5832 0 0 .5832 502.07 -273.715)"/></svg>