<svg xmlns="http://www.w3.org/2000/svg" width="96" height="96"><defs><linearGradient id="e"><stop offset="0" style="stop-color:#e5e5e5"/><stop offset="1" style="stop-color:#ababab"/></linearGradient><linearGradient id="a"><stop offset="0" style="stop-color:#fff"/><stop offset="1" style="stop-color:#fff;stop-opacity:0"/></linearGradient><linearGradient id="b"><stop offset="0" style="stop-color:#fff;stop-opacity:1"/><stop offset="1" style="stop-color:#fff;stop-opacity:0"/></linearGradient><linearGradient id="c"><stop offset="0" style="stop-color:#772b00;stop-opacity:1"/><stop offset=".5" style="stop-color:#da441b;stop-opacity:1"/><stop offset=".75" style="stop-color:#d2400f;stop-opacity:1"/><stop offset=".938" style="stop-color:#d44316;stop-opacity:.614583"/><stop offset="1" style="stop-color:#c33900;stop-opacity:.21875"/></linearGradient><linearGradient id="d"><stop offset="0" style="stop-color:#999;stop-opacity:1"/><stop offset="1" style="stop-color:#999;stop-opacity:0"/></linearGradient><linearGradient id="f"><stop offset="0" style="stop-color:#aaa;stop-opacity:1"/><stop offset="1" style="stop-color:#8c8c8c;stop-opacity:1"/></linearGradient><linearGradient id="g" x1="63.999" x2="63.999" y1="3.1" y2="122.899" gradientUnits="userSpaceOnUse"><stop offset="0" style="stop-color:#f6f6f6;stop-opacity:1"/><stop offset="1" style="stop-color:#ccc;stop-opacity:1"/></linearGradient></defs><g style="stroke:gray"><path d="M60.806 1024.61a42.254 42.634 0 0 1-84.508 0 42.254 42.634 0 1 1 84.508 0z" style="color:#000;fill:none;stroke:gray;stroke-width:10;stroke-miterlimit:4;stroke-opacity:1;stroke-dasharray:none" transform="translate(29.683 -976.34)"/></g><g style="fill:gray;stroke:gray;stroke-width:.71732396"><path d="M6.938.5A.43.43 0 0 0 6.5.938v1.25a5.82 5.82 0 0 0-1.531.656l-.907-.906a.437.437 0 0 0-.625 0l-1.5 1.5a.437.437 0 0 0 0 .624l.907.907A5.82 5.82 0 0 0 2.188 6.5H.938a.43.43 0 0 0-.438.438v2.125c0 .248.19.437.438.437h1.25a5.82 5.82 0 0 0 .656 1.531l-.906.906a.437.437 0 0 0 0 .626l1.5 1.5c.175.175.449.175.624 0l.907-.907c.48.285.977.514 1.531.656v1.25c0 .249.19.438.438.438h2.125a.43.43 0 0 0 .437-.437v-1.25a5.82 5.82 0 0 0 1.531-.657l.906.906c.176.176.45.176.626 0l1.5-1.5a.437.437 0 0 0 0-.624l-.907-.907a5.82 5.82 0 0 0 .656-1.531h1.25a.43.43 0 0 0 .438-.437V6.937a.43.43 0 0 0-.437-.437h-1.25a5.82 5.82 0 0 0-.657-1.531l.906-.907a.437.437 0 0 0 0-.625l-1.5-1.5a.437.437 0 0 0-.624 0l-.907.907A5.82 5.82 0 0 0 9.5 2.188V.938A.43.43 0 0 0 9.063.5H6.937zM8 6a2 2 0 1 1-.001 4.001A2 2 0 0 1 8 6Z" style="display:block;overflow:visible;visibility:visible;fill:gray;fill-opacity:1;fill-rule:nonzero;stroke:gray;stroke-width:.71732396;stroke-linecap:butt;stroke-linejoin:round;stroke-miterlimit:4;stroke-dasharray:none;stroke-dashoffset:0;stroke-opacity:1;marker:none;enable-background:accumulate" transform="matrix(2.03217 0 0 2.0319 48.63 21.648)"/></g><g style="fill:gray;stroke:gray;stroke-width:.71732396"><path d="M6.938.5A.43.43 0 0 0 6.5.938v1.25a5.82 5.82 0 0 0-1.531.656l-.907-.906a.437.437 0 0 0-.625 0l-1.5 1.5a.437.437 0 0 0 0 .624l.907.907A5.82 5.82 0 0 0 2.188 6.5H.938a.43.43 0 0 0-.438.438v2.125c0 .248.19.437.438.437h1.25a5.82 5.82 0 0 0 .656 1.531l-.906.906a.437.437 0 0 0 0 .626l1.5 1.5c.175.175.449.175.624 0l.907-.907c.48.285.977.514 1.531.656v1.25c0 .249.19.438.438.438h2.125a.43.43 0 0 0 .437-.437v-1.25a5.82 5.82 0 0 0 1.531-.657l.906.906c.176.176.45.176.626 0l1.5-1.5a.437.437 0 0 0 0-.624l-.907-.907a5.82 5.82 0 0 0 .656-1.531h1.25a.43.43 0 0 0 .438-.437V6.937a.43.43 0 0 0-.437-.437h-1.25a5.82 5.82 0 0 0-.657-1.531l.906-.907a.437.437 0 0 0 0-.625l-1.5-1.5a.437.437 0 0 0-.624 0l-.907.907A5.82 5.82 0 0 0 9.5 2.188V.938A.43.43 0 0 0 9.063.5H6.937zM8 6a2 2 0 1 1-.001 4.001A2 2 0 0 1 8 6Z" style="display:block;overflow:visible;visibility:visible;fill:gray;fill-opacity:1;fill-rule:nonzero;stroke:gray;stroke-width:.71732396;stroke-linecap:butt;stroke-linejoin:round;stroke-miterlimit:4;stroke-dasharray:none;stroke-dashoffset:0;stroke-opacity:1;marker:none;enable-background:accumulate" transform="matrix(1.81237 .91913 -.91925 1.81213 40.127 46.235)"/></g><g style="fill:silver;stroke:gray;stroke-width:.71732396"><path d="M6.938.5A.43.43 0 0 0 6.5.938v1.25a5.82 5.82 0 0 0-1.531.656l-.907-.906a.437.437 0 0 0-.625 0l-1.5 1.5a.437.437 0 0 0 0 .624l.907.907A5.82 5.82 0 0 0 2.188 6.5H.938a.43.43 0 0 0-.438.438v2.125c0 .248.19.437.438.437h1.25a5.82 5.82 0 0 0 .656 1.531l-.906.906a.437.437 0 0 0 0 .626l1.5 1.5c.175.175.449.175.624 0l.907-.907c.48.285.977.514 1.531.656v1.25c0 .249.19.438.438.438h2.125a.43.43 0 0 0 .437-.437v-1.25a5.82 5.82 0 0 0 1.531-.657l.906.906c.176.176.45.176.626 0l1.5-1.5a.437.437 0 0 0 0-.624l-.907-.907a5.82 5.82 0 0 0 .656-1.531h1.25a.43.43 0 0 0 .438-.437V6.937a.43.43 0 0 0-.437-.437h-1.25a5.82 5.82 0 0 0-.657-1.531l.906-.907a.437.437 0 0 0 0-.625l-1.5-1.5a.437.437 0 0 0-.624 0l-.907.907A5.82 5.82 0 0 0 9.5 2.188V.938A.43.43 0 0 0 9.063.5H6.937zM8 6a2 2 0 1 1-.001 4.001A2 2 0 0 1 8 6Z" style="display:block;overflow:visible;visibility:visible;fill:gray;fill-opacity:1;fill-rule:nonzero;stroke:gray;stroke-width:.71732396;stroke-linecap:butt;stroke-linejoin:round;stroke-miterlimit:4;stroke-dasharray:none;stroke-dashoffset:0;stroke-opacity:1;marker:none;enable-background:accumulate" transform="matrix(2.00546 .32835 -.3284 2.0052 18.148 17.98)"/></g></svg>