<svg xmlns="http://www.w3.org/2000/svg" xml:space="preserve" width="128" height="64"><g style="fill:#d3d3d3;fill-opacity:1;stroke:none"><path d="M92.447 94.203a27.2 27.445 0 0 0-27.996 27.434 27.201 27.446 0 0 0 54.403 0 27.2 27.445 0 0 0-26.407-27.434zm-11.416 12.863h21.383v5.989H88.955v5.72h12.656v5.99H88.955v13.028h-7.924v-30.727z" style="color:#000;fill:#d3d3d3;fill-opacity:1;stroke:none;stroke-width:10;stroke-miterlimit:4;stroke-dasharray:none;stroke-opacity:1" transform="translate(-70.148 -103.13)scale(1.11041)"/></g><path d="M74.633 2.648v57.047h46.53V2.648h-46.53zm6.181 10.561h34.102v7.486H80.814V13.21zm0 13.742h34.102v7.485H80.814V26.95zm0 15.049h34.102v7.486H80.814V42z" style="fill:#dcdcdc;fill-opacity:1;fill-rule:nonzero;stroke:none"/></svg>