<svg xmlns="http://www.w3.org/2000/svg" width="128" height="128" version="1.0"><path d="m711.824 370.929-14.471-14.47a2.565 2.565 0 0 0-3.617 0l-20.199 20.198c-.332.332-.678.98-.77 1.439l-4.377 21.957c-.092.459.205.746.662.635l21.141-5.137c.457-.111 1.102-.475 1.432-.805l20.199-20.199a2.564 2.564 0 0 0 0-3.618zm-23.615 22.974-10.988 2.633c-.455.109-1.1-.072-1.432-.404l-3.186-3.186c-.332-.332-.529-.98-.439-1.441l2.24-11.434c.09-.461.436-.566.766-.234l13.266 13.266c.332.33.23.691-.227.8z" style="fill:#666" transform="translate(-1667.645 -887.212)scale(2.511)"/></svg>