<svg xmlns="http://www.w3.org/2000/svg" width="360" height="360" version="1.0"><path d="M163.69 127.55h32.83V94.72h-32.83m16.415 213.394c-72.406 0-131.32-58.912-131.32-131.32 0-72.404 58.914-131.318 131.32-131.318 72.406 0 131.32 58.914 131.32 131.319 0 72.407-58.914 131.319-131.32 131.319zm0-295.468c-90.66 0-164.15 73.49-164.15 164.149 0 90.66 73.49 164.149 164.15 164.149 90.66 0 164.15-73.488 164.15-164.15 0-90.658-73.49-164.148-164.15-164.148zM163.69 258.869h32.83v-98.49h-32.83v98.49zM438.26-92.677a8 8 0 1 1 0-16 8 8 0 0 1 0 16zm0-18c-5.524 0-10 4.477-10 10s4.476 10 10 10c5.522 0 10-4.477 10-10s-4.478-10-10-10z" style="fill:gray;fill-opacity:1;stroke-width:.2;stroke-linejoin:round"/></svg>