<svg xmlns="http://www.w3.org/2000/svg" width="180" height="185" version="1.0"><path d="M88.4 4.707a81.862 81.862 0 0 0-10.732.733C31.546 11.65-.156 55.711 6.815 103.668c6.991 47.977 50.086 81.825 96.271 75.576 46.165-6.238 77.888-50.33 70.865-98.198h-.073c-6.733-44.22-43.62-76.44-85.478-76.34Zm28.821 22.566c3.676-.324 12.979 28.921 14.725 35.3 1.775 6.481 3.042 27.966 3.549 33.928.253 2.981.97 16.028-1.011 27.587-1.982 11.559-6.66 21.631-7.167 23.057-1.014 2.852-8.698 9.225-17.57 12.076-8.872 2.852-22.743-1.898-27.052-3.453-2.155-.778-11.569-6.654-18.35-13.394-3.39-3.37-13.231-12.69-19.615-23.134-6.384-10.444-11.105-19.81-12.153-21.804-3.752-7.142-7.5-19.874-8.768-24.281-1.267-4.407-2.03-12.957-1.016-15.809 1.014-2.851 17.072.249 25.945-.01 8.872-.26 9.76.464 20.909-.794 5.225-.59 14.163-4.598 22.782-9.782 3.908-2.351 21.074-18.152 24.623-19.448a.659.659 0 0 1 .17-.04zM104.59 64.095c-5.055.042-9.589 3.757-9.986 16.711l24.35-10.496c-.51-.254-7.866-6.27-14.364-6.215zm-34.31 17.122c-5.053.043-9.593 3.757-9.99 16.712l24.35-10.494c-.51-.254-7.861-6.272-14.36-6.218Zm50.922 27.213c-4.78.27-7.542 14.586-16.689 16.734-10.147 2.383-24.69-6.184-28.078-4.47-2.577 1.304 3.161 8.632 14.599 16.082 7.977 5.197 13.158 5.722 17.776 4.637 4.996-1.173 10.615-6.26 13.517-15.75 1.864-6.097 2.754-16.426-.404-17.168a2.513 2.513 0 0 0-.72-.065z" style="fill:#4c0000;fill-opacity:1;stroke:none;stroke-width:21.10049438;stroke-miterlimit:4;stroke-dasharray:none;stroke-opacity:1"/></svg>