<svg xmlns="http://www.w3.org/2000/svg" width="108" height="108"><ellipse cx="53.085" cy="53.538" rx="50.339" ry="48.966" style="fill:gray"/><path d="m35.373 33.057-5.881-5.807-4.575 4.636 5.881 5.804m-4.285 13.842-9.767.061.04 6.512 9.768-.062m16.365 13.539.098 15.66 19.535-.123-.099-15.66c5.81-3.416 9.706-9.735 9.66-16.959-.067-10.79-8.87-19.48-19.657-19.411-10.79.068-19.48 8.868-19.411 19.657.045 7.225 4.018 13.493 9.874 16.836zm35.727-13.867 9.767-.062-.041-6.511-9.767.061M55.61 18.953c-1.029 0-6.511.04-6.511.04l.06 9.605 6.512-.041m24.278 2.982-4.633-4.578-5.807 5.881 4.633 4.575 5.807-5.878z" style="fill:#fff;fill-opacity:1;stroke-width:.2;stroke-linejoin:round"/></svg>