<?xml version="1.0" encoding="UTF-8" standalone="no"?>
<!-- Created with Inkscape (http://www.inkscape.org/) -->

<svg
   xmlns:dc="http://purl.org/dc/elements/1.1/"
   xmlns:cc="http://creativecommons.org/ns#"
   xmlns:rdf="http://www.w3.org/1999/02/22-rdf-syntax-ns#"
   xmlns:svg="http://www.w3.org/2000/svg"
   xmlns="http://www.w3.org/2000/svg"
   xmlns:sodipodi="http://sodipodi.sourceforge.net/DTD/sodipodi-0.dtd"
   xmlns:inkscape="http://www.inkscape.org/namespaces/inkscape"
   version="1.0"
   width="128"
   height="128"
   id="svg2"
   inkscape:version="0.92.3 (2405546, 2018-03-11)"
   sodipodi:docname="ic_download.svg"
   inkscape:export-filename="sphere-red.png"
   inkscape:export-xdpi="25.3125"
   inkscape:export-ydpi="25.3125">
  <metadata
     id="metadata3021">
    <rdf:RDF>
      <cc:Work
         rdf:about="">
        <dc:format>image/svg+xml</dc:format>
        <dc:type
           rdf:resource="http://purl.org/dc/dcmitype/StillImage" />
        <dc:title />
      </cc:Work>
    </rdf:RDF>
  </metadata>
  <sodipodi:namedview
     pagecolor="#ffffff"
     bordercolor="#666666"
     borderopacity="1"
     objecttolerance="10"
     gridtolerance="10"
     guidetolerance="10"
     inkscape:pageopacity="0"
     inkscape:pageshadow="2"
     inkscape:window-width="1067"
     inkscape:window-height="489"
     id="namedview3019"
     showgrid="false"
     inkscape:zoom="0.921875"
     inkscape:cx="-74.847458"
     inkscape:cy="28.054687"
     inkscape:window-x="889"
     inkscape:window-y="387"
     inkscape:window-maximized="0"
     inkscape:current-layer="svg2" />
  <defs
     id="defs5" />
  <path
     style="fill:#696969"
     id="path4"
     d="m 4.7131705,97.399807 0,-8.99413 q 0,-4.13244 3.0021966,-7.04945 3.0021949,-2.917016 7.2114979,-2.917016 4.209251,0 7.180514,2.917016 2.971263,2.91701 2.971263,7.04945 l 0,8.99413 q 0,2.187762 1.578457,3.707043 1.578508,1.51927 3.744999,1.51927 l 67.47221,0 q 2.166542,0 3.745002,-1.51927 1.5785,-1.519281 1.5785,-3.707043 l 0,-8.99413 q 0,-4.13244 2.97126,-7.04945 2.97121,-2.917016 7.18052,-2.917016 4.20925,0 7.21145,2.917016 3.00225,2.91701 3.00225,7.04945 l 0,8.99413 q 0,10.452633 -7.52099,17.866703 -7.52098,7.4141 -18.167992,7.4141 l -67.47221,0 q -10.646963,0 -18.167945,-7.4141 Q 4.7131705,107.85244 4.7131705,97.399807 Z M 24.33584,52.733013 q 0,-4.132437 3.033128,-7.049454 2.971264,-2.917014 7.180515,-2.917014 4.209303,0 7.180514,2.917014 l 13.370659,13.12657 0,-42.84366 q 0,-4.132437 2.971264,-7.0494523 2.971263,-2.9170156 7.180513,-2.9170156 4.209304,0 7.211499,2.9170156 3.002197,2.9170153 3.002197,7.0494523 l 0,42.84366 13.989626,-13.73428 q 2.971264,-2.917016 7.180514,-2.917016 4.209301,0 7.180561,2.917016 3.03313,2.917016 3.03313,7.079838 0,4.162825 -3.03313,7.07984 L 72.494865,89.98573 q -3.095046,3.038553 -7.242432,3.038553 -4.085467,0 -7.180513,-3.038553 L 27.368968,59.843239 Q 24.33584,56.865451 24.33584,52.733013 Z"
     inkscape:connector-curvature="0" />
</svg>
