<?xml version="1.0" encoding="UTF-8" standalone="no"?>
<!-- Created with Inkscape (http://www.inkscape.org/) -->

<svg
   xmlns:a="http://ns.adobe.com/AdobeSVGViewerExtensions/3.0/"
   xmlns:dc="http://purl.org/dc/elements/1.1/"
   xmlns:cc="http://creativecommons.org/ns#"
   xmlns:rdf="http://www.w3.org/1999/02/22-rdf-syntax-ns#"
   xmlns:svg="http://www.w3.org/2000/svg"
   xmlns="http://www.w3.org/2000/svg"
   xmlns:xlink="http://www.w3.org/1999/xlink"
   xmlns:sodipodi="http://sodipodi.sourceforge.net/DTD/sodipodi-0.dtd"
   xmlns:inkscape="http://www.inkscape.org/namespaces/inkscape"
   version="1.0"
   width="48pt"
   height="48pt"
   viewBox="0 0 256 256"
   id="svg3261"
   xml:space="preserve"
   inkscape:version="0.91 r13725"
   sodipodi:docname="alias.svg"
   inkscape:export-filename="/home/bbou/Desktop/Documents/pixes/svg/asterisk.png"
   inkscape:export-xdpi="24"
   inkscape:export-ydpi="24"><metadata
     id="metadata454"><rdf:RDF><cc:Work
         rdf:about=""><dc:format>image/svg+xml</dc:format><dc:type
           rdf:resource="http://purl.org/dc/dcmitype/StillImage" /><dc:title /></cc:Work></rdf:RDF></metadata><sodipodi:namedview
     pagecolor="#ffffff"
     bordercolor="#666666"
     borderopacity="1"
     objecttolerance="10"
     gridtolerance="10"
     guidetolerance="10"
     inkscape:pageopacity="0"
     inkscape:pageshadow="2"
     inkscape:window-width="1323"
     inkscape:window-height="656"
     id="namedview452"
     showgrid="false"
     inkscape:zoom="3.9333333"
     inkscape:cx="27.566282"
     inkscape:cy="19.830508"
     inkscape:window-x="389"
     inkscape:window-y="281"
     inkscape:window-maximized="0"
     inkscape:current-layer="svg3261" /><defs
     id="defs3707"><inkscape:perspective
       sodipodi:type="inkscape:persp3d"
       inkscape:vp_x="0 : 30 : 1"
       inkscape:vp_y="0 : 1000 : 0"
       inkscape:vp_z="60 : 30 : 1"
       inkscape:persp3d-origin="30 : 20 : 1"
       id="perspective456" /><linearGradient
       x1="121.918"
       y1="185.75"
       x2="249.582"
       y2="185.75"
       id="XMLID_2_"
       gradientUnits="userSpaceOnUse"><stop
         style="stop-color:#ffff66;stop-opacity:1"
         offset="0"
         id="stop173" /><stop
         style="stop-color:#ffcc66;stop-opacity:1"
         offset="1"
         id="stop174" /></linearGradient><linearGradient
       gradientTransform="translate(357,0)"
       gradientUnits="userSpaceOnUse"
       id="XMLID_3_"
       y2="245.0005"
       x2="-228"
       y1="11"
       x1="-228"><stop
         id="stop3268"
         offset="0"
         style="stop-color:#494949;stop-opacity:1" /><stop
         id="stop3269"
         offset="1"
         style="stop-color:#000000;stop-opacity:1" /><a:midPointStop
         offset="0"
         style="stop-color:#494949"
         id="midPointStop3270" /><a:midPointStop
         offset="0.5"
         style="stop-color:#494949"
         id="midPointStop3271" /><a:midPointStop
         offset="1"
         style="stop-color:#000000"
         id="midPointStop3272" /></linearGradient><linearGradient
       gradientTransform="translate(357,0)"
       gradientUnits="userSpaceOnUse"
       id="XMLID_4_"
       y2="226.9473"
       x2="-130.0527"
       y1="29.0527"
       x1="-327.9473"><stop
         id="stop3276"
         offset="0"
         style="stop-color:#ffffff;stop-opacity:1" /><stop
         id="stop3277"
         offset="1"
         style="stop-color:#dadada;stop-opacity:1" /><a:midPointStop
         offset="0"
         style="stop-color:#FFFFFF"
         id="midPointStop3278" /><a:midPointStop
         offset="0.5"
         style="stop-color:#FFFFFF"
         id="midPointStop3279" /><a:midPointStop
         offset="1"
         style="stop-color:#DADADA"
         id="midPointStop3280" /></linearGradient><linearGradient
       inkscape:collect="always"
       xlink:href="#XMLID_4_"
       id="linearGradient3714"
       gradientUnits="userSpaceOnUse"
       gradientTransform="translate(357,0)"
       x1="-327.9473"
       y1="29.0527"
       x2="-130.0527"
       y2="226.9473" /><linearGradient
       inkscape:collect="always"
       xlink:href="#XMLID_3_"
       id="linearGradient3718"
       gradientUnits="userSpaceOnUse"
       gradientTransform="translate(357,0)"
       x1="-228"
       y1="11"
       x2="-228"
       y2="245.0005" /><linearGradient
       gradientUnits="userSpaceOnUse"
       id="linearGradient5966"
       y2="185.75"
       x2="249.582"
       y1="185.75"
       x1="121.918"><stop
         id="stop5968"
         offset="0"
         style="stop-color:#ffff66;stop-opacity:1" /><stop
         id="stop5970"
         offset="1"
         style="stop-color:#ffcc66;stop-opacity:1" /></linearGradient></defs><rect
     id="_x3C_Slice_x3E_"
     style="fill:none"
     y="0"
     x="0"
     height="256"
     width="256" /><path
     inkscape:connector-curvature="0"
     id="path170"
     style="opacity:0.2;stroke:none"
     d="m 112.96753,36.891793 c 0,0 0,27.782516 0,46.500705 C 99.732537,70.1575 80.086968,50.510242 80.086968,50.510242 c -7.854848,-7.854848 -20.637137,-7.854848 -28.493675,0 -3.805801,3.805801 -5.900427,8.865 -5.900427,14.248527 0,5.381839 2.094626,10.441037 5.900427,14.246838 0,0 19.645568,19.645568 32.880566,32.880563 -18.718189,0 -46.497326,0 -46.497326,0 -11.109966,0 -20.148954,9.0373 -20.148954,20.14727 0,11.10996 9.038988,20.14726 20.148954,20.14726 0,0 27.782516,0 46.499016,0 -13.234998,13.235 -32.880567,32.88395 -32.880567,32.88395 -3.929113,3.92742 -5.891981,9.08628 -5.891981,14.24515 0,5.16055 1.962868,10.31772 5.891981,14.24683 3.804112,3.8058 8.865,5.90212 14.246838,5.90212 5.381838,0 10.441037,-2.09632 14.246838,-5.90212 0,0 19.645568,-19.64388 32.880562,-32.87887 0,18.71481 0,46.49901 0,46.49901 0,11.10828 9.04068,20.14727 20.14896,20.14727 11.10827,0 20.14895,-9.03899 20.14895,-20.14727 0,0 0,-27.78251 0,-46.49901 13.235,13.23499 32.88057,32.87887 32.88057,32.87887 3.80411,3.8058 8.865,5.90212 14.24684,5.90212 5.38183,0 10.44103,-2.09632 14.24683,-5.90212 3.80412,-3.80411 5.90043,-8.86331 5.90043,-14.24683 0,-5.38184 -2.09631,-10.44104 -5.90043,-14.24684 0,0 -19.64725,-19.64726 -32.88225,-32.88226 18.71819,0 46.5007,0 46.5007,0 11.10997,0 20.14896,-9.0373 20.14896,-20.14726 0,-11.10997 -9.03899,-20.14727 -20.14896,-20.14727 0,0 -27.78082,0 -46.49901,0 13.23668,-13.234995 32.88056,-32.880563 32.88056,-32.880563 3.92912,-3.927424 5.89198,-9.087976 5.89198,-14.246838 0,-5.160551 -1.96286,-10.319413 -5.89198,-14.248527 -7.85485,-7.854848 -20.63713,-7.854848 -28.49198,0 0,0 -19.64557,19.645569 -32.88057,32.880567 0,-18.7165 0,-46.499016 0,-46.499016 0,-11.109966 -9.04068,-20.148954 -20.14895,-20.148954 -11.10828,0 -20.15234,9.038988 -20.15234,20.148954 z" /><path
     inkscape:connector-curvature="0"
     id="path171"
     style="fill:#a9a9a9;stroke:none"
     d="m 109.5891,33.513363 c 0,0 0,27.782516 0,46.500705 C 96.354107,66.77907 76.708539,47.131813 76.708539,47.131813 c -7.854849,-7.854849 -20.637137,-7.854849 -28.493675,0 -3.805801,3.805801 -5.900428,8.864999 -5.900428,14.248527 0,5.381838 2.094627,10.441036 5.900428,14.246837 0,0 19.645568,19.645568 32.880566,32.880563 -18.718189,0 -46.497327,0 -46.497327,0 -11.109966,0 -20.148954,9.0373 -20.148954,20.14727 0,11.10996 9.038988,20.14726 20.148954,20.14726 0,0 27.782516,0 46.499016,0 -13.234998,13.235 -32.880566,32.88395 -32.880566,32.88395 -3.929114,3.92742 -5.891981,9.08628 -5.891981,14.24515 0,5.16055 1.962867,10.31772 5.891981,14.24683 3.804112,3.8058 8.864999,5.90212 14.246837,5.90212 5.381839,0 10.441037,-2.09632 14.246838,-5.90212 0,0 19.645568,-19.64388 32.880562,-32.87887 0,18.71481 0,46.49901 0,46.49901 0,11.10828 9.04068,20.14727 20.14896,20.14727 11.10827,0 20.14895,-9.03899 20.14895,-20.14727 0,0 0,-27.78251 0,-46.49901 13.235,13.23499 32.88057,32.87887 32.88057,32.87887 3.80411,3.8058 8.865,5.90212 14.24684,5.90212 5.38183,0 10.44103,-2.09632 14.24683,-5.90212 3.80412,-3.80411 5.90043,-8.86331 5.90043,-14.24683 0,-5.38184 -2.09631,-10.44104 -5.90043,-14.24684 0,0 -19.64725,-19.64726 -32.88225,-32.88226 18.71819,0 46.5007,0 46.5007,0 11.10997,0 20.14896,-9.0373 20.14896,-20.14726 0,-11.10997 -9.03899,-20.14727 -20.14896,-20.14727 0,0 -27.78082,0 -46.49901,0 13.23668,-13.234995 32.88056,-32.880563 32.88056,-32.880563 3.92912,-3.927424 5.89198,-9.087975 5.89198,-14.246837 0,-5.160552 -1.96286,-10.319414 -5.89198,-14.248527 -7.85485,-7.854849 -20.63713,-7.854849 -28.49198,0 0,0 -19.64557,19.645568 -32.88057,32.880566 0,-18.7165 0,-46.499016 0,-46.499016 0,-11.109966 -9.04068,-20.148954 -20.14895,-20.148954 -11.10828,0 -20.15234,9.038988 -20.15234,20.148954 z" /><path
     inkscape:connector-curvature="0"
     id="path178"
     style="fill:#a9a9a9;stroke:none"
     d="m 224.87802,117.05207 -64.51281,0 45.61894,-45.61894 c 4.95278,-4.95447 4.95278,-12.98669 0,-17.93946 -4.95616,-4.95447 -12.98669,-4.95447 -17.94115,0 l -45.61894,45.61893 0,-64.514492 c 0,-7.006863 -5.67914,-12.686003 -12.686,-12.686003 -7.00686,0 -12.686,5.67914 -12.686,12.686003 l 0,64.516182 -45.61894,-45.62062 c -4.95616,-4.95447 -12.98669,-4.95447 -17.94115,0 -4.95447,4.95446 -4.95447,12.98668 0,17.93946 l 45.61893,45.61894 -64.5128,0 c -7.00686,0 -12.686,5.67914 -12.686,12.686 0,7.00686 5.67745,12.686 12.686,12.686 l 64.51618,0 -45.62231,45.62063 c -4.95278,4.95446 -4.95278,12.98668 0,17.93946 4.95615,4.95446 12.98668,4.95446 17.94115,0 l 45.61894,-45.61894 0,64.51449 c 0,7.00518 5.67914,12.68432 12.686,12.68432 7.00686,0 12.686,-5.67745 12.686,-12.68432 l 0,-64.51449 45.61894,45.61894 c 4.95446,4.95446 12.98668,4.95446 17.93946,0 4.95278,-4.95447 4.95447,-12.98669 0,-17.93946 l -45.62063,-45.62063 64.51619,0 c 7.00686,0 12.686,-5.67914 12.686,-12.686 0,-7.00686 -5.67745,-12.686 -12.686,-12.686 z" /><path
     inkscape:connector-curvature="0"
     id="path179"
     style="fill:#c0c0c0;stroke:#c0c0c0"
     d="m 121.53016,34.598108 0,75.327162 -53.262624,-53.264327 c -3.20107,-3.201062 -8.40891,-3.201062 -11.60829,0 -1.54901,1.550699 -2.40375,3.61323 -2.40375,5.805831 0,2.192601 0.85474,4.253443 2.40375,5.804142 l 53.260944,53.260944 -75.322084,0 c -4.5271,0 -8.2079,3.68418 -8.2079,8.2079 0,4.52709 3.68249,8.20789 8.2079,8.20789 l 75.325464,0 -53.262634,53.26263 c -3.20106,3.20107 -3.20106,8.40892 0,11.60829 1.5507,1.54901 3.60985,2.40375 5.80414,2.40375 2.19261,0 4.25345,-0.85474 5.80415,-2.40375 l 53.262624,-53.26094 0,75.32377 c 0,4.5271 3.68249,8.20621 8.2079,8.20621 4.5254,0 8.20789,-3.6808 8.20789,-8.20621 l 0,-75.32377 53.26095,53.26094 c 1.55069,1.54901 3.61154,2.40375 5.80583,2.40375 2.1926,0 4.25344,-0.85474 5.80414,-2.40375 1.5507,-1.5507 2.40544,-3.61154 2.40544,-5.80583 0,-2.1926 -0.85474,-4.25345 -2.40544,-5.80414 l -53.26263,-53.26264 75.32546,0 c 4.5271,0 8.2079,-3.68248 8.2079,-8.20789 0,-4.52541 -3.68249,-8.2079 -8.2079,-8.2079 l -75.32208,0 53.25925,-53.260943 c 3.20106,-3.201062 3.20275,-8.408912 0,-11.608284 -3.20106,-3.201062 -8.40722,-3.201062 -11.60829,0 l -53.26094,53.260947 0,-75.323782 c 0,-4.527096 -3.68249,-8.209584 -8.20789,-8.209584 -4.52541,0 -8.21128,3.682488 -8.21128,8.209584 z" /></svg>