<?xml version="1.0" encoding="UTF-8" standalone="no"?>
<svg
   xml:space="preserve"
   width="64"
   height="64"
   version="1.0"
   viewBox="0 0 256 256"
   id="svg12"
   sodipodi:docname="pbaliasroleset.svg"
   inkscape:version="1.2.2 (b0a8486541, 2022-12-01)"
   xmlns:inkscape="http://www.inkscape.org/namespaces/inkscape"
   xmlns:sodipodi="http://sodipodi.sourceforge.net/DTD/sodipodi-0.dtd"
   xmlns="http://www.w3.org/2000/svg"
   xmlns:svg="http://www.w3.org/2000/svg"><defs
     id="defs16" /><sodipodi:namedview
     id="namedview14"
     pagecolor="#505050"
     bordercolor="#ffffff"
     borderopacity="1"
     inkscape:showpageshadow="0"
     inkscape:pageopacity="0"
     inkscape:pagecheckerboard="1"
     inkscape:deskcolor="#d1d1d1"
     showgrid="false"
     inkscape:zoom="5.2149125"
     inkscape:cx="-30.681243"
     inkscape:cy="21.956265"
     inkscape:window-width="1920"
     inkscape:window-height="1139"
     inkscape:window-x="0"
     inkscape:window-y="24"
     inkscape:window-maximized="1"
     inkscape:current-layer="svg12" /><path
     d="M0 0h256v256H0z"
     style="fill:none"
     id="path2" /><path
     d="M112.968 36.892v46.5L80.087 50.51c-7.855-7.855-20.637-7.855-28.494 0a20.015 20.015 0 0 0-5.9 14.249 20.014 20.014 0 0 0 5.9 14.247l32.88 32.88H37.978c-11.11 0-20.15 9.037-20.15 20.147 0 11.11 9.04 20.148 20.15 20.148h46.499l-32.881 32.884c-3.93 3.927-5.892 9.086-5.892 14.245 0 5.16 1.963 10.318 5.892 14.247a20.013 20.013 0 0 0 14.247 5.902 20.016 20.016 0 0 0 14.247-5.902l32.88-32.88v46.5c0 11.108 9.04 20.147 20.15 20.147 11.107 0 20.148-9.039 20.148-20.147v-46.5l32.88 32.88a20.013 20.013 0 0 0 14.248 5.902 20.016 20.016 0 0 0 14.246-5.902 20.016 20.016 0 0 0 5.9-14.247 20.021 20.021 0 0 0-5.9-14.247l-32.882-32.882h46.5c11.11 0 20.15-9.038 20.15-20.148s-9.04-20.147-20.15-20.147h-46.498l32.88-32.88c3.93-3.928 5.892-9.088 5.892-14.247 0-5.16-1.963-10.32-5.892-14.249-7.854-7.855-20.637-7.855-28.492 0l-32.88 32.88V36.893c0-11.11-9.04-20.15-20.15-20.15-11.107 0-20.151 9.04-20.151 20.15z"
     style="opacity:.2;stroke:none"
     id="path4" /><path
     d="M 107.85,32.858 V 79.359 L 74.968,46.477 c -7.855,-7.855 -20.638,-7.855 -28.494,0 a 20.015,20.015 0 0 0 -5.9,14.248 20.014,20.014 0 0 0 5.9,14.247 l 32.88,32.88 H 32.858 c -11.11,0 -20.149,9.038 -20.149,20.148 0,11.11 9.04,20.147 20.15,20.147 h 46.498 a 575462.45,575462.45 0 0 0 -32.88,32.884 c -3.93,3.928 -5.892,9.086 -5.892,14.245 0,5.16 1.962,10.318 5.892,14.247 a 20.013,20.013 0 0 0 14.246,5.902 20.016,20.016 0 0 0 14.247,-5.902 l 32.88,-32.879 v 46.5 c 0,11.108 9.041,20.147 20.15,20.147 11.108,0 20.149,-9.04 20.149,-20.148 v -46.498 l 32.88,32.88 a 20.013,20.013 0 0 0 14.247,5.901 20.016,20.016 0 0 0 14.247,-5.902 20.016,20.016 0 0 0 5.9,-14.247 20.021,20.021 0 0 0 -5.9,-14.246 l -32.882,-32.883 h 46.5 c 11.11,0 20.15,-9.037 20.15,-20.147 0,-11.11 -9.04,-20.147 -20.15,-20.147 h -46.499 c 13.237,-13.235 32.88,-32.88 32.88,-32.88 3.93,-3.928 5.893,-9.089 5.893,-14.248 0,-5.16 -1.963,-10.32 -5.892,-14.248 -7.855,-7.855 -20.637,-7.855 -28.492,0 l -32.88,32.88 v -46.5 c 0,-11.11 -9.041,-20.149 -20.15,-20.149 -11.108,0 -20.152,9.04 -20.152,20.15 z"
     style="fill:#0004c8;stroke:none"
     id="path6" /><path
     d="m 223.14,115.314 h -64.513 l 45.62,-45.618995 c 4.952,-4.954 4.952,-12.987 0,-17.94 -4.957,-4.954 -12.988,-4.954 -17.942,0 l -45.619,45.62 v -64.515 c 0,-7.007 -5.68,-12.686 -12.686,-12.686 -7.007,0 -12.686,5.68 -12.686,12.686 v 64.516 l -45.619,-45.62 c -4.956,-4.955 -12.987,-4.955 -17.941,0 -4.955,4.954 -4.955,12.986 0,17.94 L 97.372999,115.314 H 32.86 c -7.007,0 -12.686,5.68 -12.686,12.686 0,7.007 5.678,12.686 12.686,12.686 H 97.375999 L 51.754,186.306 c -4.953,4.955 -4.953,12.987 0,17.94 4.956,4.955 12.987,4.955 17.941,0 l 45.62,-45.619 v 64.51499 c 0,7.005 5.678,12.68401 12.685,12.68401 7.007,0 12.686,-5.677 12.686,-12.68401 V 158.627 l 45.619,45.62 c 4.954,4.954 12.987,4.954 17.94,0 4.952,-4.955 4.954,-12.988 0,-17.94 l -45.621,-45.62 h 64.516 c 7.007,0 12.686,-5.68 12.686,-12.687 0,-7.007 -5.677,-12.686 -12.686,-12.686 z"
     style="fill:#0038d4;stroke:#0038d4"
     id="path8" /><path
     d="m 119.79099,32.86 v 75.327 L 66.529,54.923 c -3.202,-3.201 -8.41,-3.201 -11.609,0 a 8.164,8.164 0 0 0 -2.404,5.806 8.16,8.16 0 0 0 2.404,5.804 l 53.26099,53.26 H 32.859 c -4.527,0 -8.208,3.685 -8.208,8.209 0,4.527 3.683,8.208 8.208,8.208 h 75.32599 L 54.921,189.472 c -3.201,3.201 -3.201,8.41 0,11.609 a 8.157,8.157 0 0 0 5.804,2.403 8.16,8.16 0 0 0 5.804,-2.403 l 53.26299,-53.261 v 75.323 c 0,4.528 3.682,8.207 8.208,8.207 4.525,0 8.208,-3.681 8.208,-8.207 V 147.82 l 53.26001,53.26 a 8.161,8.161 0 0 0 5.806,2.404 8.16,8.16 0 0 0 5.805,-2.403 8.156,8.156 0 0 0 2.405,-5.806 8.155,8.155 0 0 0 -2.405,-5.804 L 147.81599,136.208 H 223.141 c 4.527,0 8.208,-3.683 8.208,-8.208 0,-4.525 -3.682,-8.208 -8.208,-8.208 H 147.82099 L 201.081,66.532 c 3.2,-3.202 3.202,-8.41 0,-11.61 -3.202,-3.2 -8.408,-3.2 -11.609,0 l -53.26001,53.262 V 32.86 c 0,-4.527 -3.683,-8.21 -8.209,-8.21 -4.525,0 -8.21,3.683 -8.21,8.21 z"
     style="fill:#729fcf;fill-opacity:1;stroke:#0038d4"
     id="path10" /></svg>
