<?xml version="1.0" encoding="UTF-8" standalone="no"?><!-- Created with Inkscape (http://www.inkscape.org/) -->

<svg xmlns:dc="http://purl.org/dc/elements/1.1/" xmlns:cc="http://creativecommons.org/ns#" xmlns:rdf="http://www.w3.org/1999/02/22-rdf-syntax-ns#" xmlns="http://www.w3.org/2000/svg" xmlns:sodipodi="http://sodipodi.sourceforge.net/DTD/sodipodi-0.dtd"
	xmlns:inkscape="http://www.inkscape.org/namespaces/inkscape" id="svg2" sodipodi:version="0.32" inkscape:version="0.48.5 r10040" width="360" height="360" sodipodi:docname="roles.svg" version="1.0">
	<metadata id="metadata7">
		<rdf:RDF>
			<cc:Work rdf:about="">
				<dc:format>image/svg+xml</dc:format>
				<dc:type rdf:resource="http://purl.org/dc/dcmitype/StillImage" />
			</cc:Work>
		</rdf:RDF>
	</metadata>
	<defs id="defs5" />
	<sodipodi:namedview inkscape:window-height="721" inkscape:window-width="908" inkscape:pageshadow="2" inkscape:pageopacity="0.0" borderopacity="1.0" bordercolor="#666666" pagecolor="#ffffff" id="base" inkscape:showpageshadow="false" borderlayer="top"
		inkscape:zoom="0.70710678" inkscape:cx="169.2759" inkscape:cy="5.9905448" inkscape:window-x="171" inkscape:window-y="124" inkscape:current-layer="svg2" showgrid="false" inkscape:window-maximized="0" />
	<g id="g2987" transform="matrix(0.66638041,0,0,0.668891,-21.492417,-1.2864358)">
		<path sodipodi:nodetypes="csssssssssssssss" id="path2202"
			d="m 154.01188,84.82216 c -28.49265,3.220657 -30.7732,1.374497 -53.44698,2.038162 -22.673791,0.663666 -63.697735,-7.280783 -66.289025,0.01954 -2.59129,7.300321 -0.647823,29.201278 2.59129,40.483598 3.239112,11.28231 12.815384,43.87222 22.40545,62.15682 2.677491,5.10496 14.747169,29.08476 31.062111,55.82237 16.314944,26.7376 41.455944,50.60161 50.120564,59.22927 17.32925,17.2553 41.39554,32.30164 46.90203,34.29264 11.01298,3.98199 46.44789,16.13616 69.12167,8.83584 22.67379,-7.30032 42.31169,-23.61705 44.90298,-30.91737 1.29564,-3.65016 13.25932,-29.43188 18.32401,-59.02479 5.06469,-29.59291 3.23039,-62.997 2.58257,-70.62916 -1.29565,-15.2643 -4.53475,-70.26232 -9.06951,-86.85395 C 308.68429,83.683491 284.22421,6.6706646 275.15469,9.9889921 266.08518,13.307319 222.22034,53.764092 212.23173,59.78344 190.20577,73.05675 167.36478,83.31282 154.01188,84.82216 z"
			style="fill:#ff00ff;fill-opacity:1;fill-rule:evenodd;stroke:none" inkscape:connector-curvature="0" />
		<path sodipodi:nodetypes="ccc" id="path7269" d="m 130.09632,190.78324 c 2.32076,-75.80653 59.91251,-28.02858 62.22539,-26.87008 l -62.22539,26.87008 z" style="fill:#ffffff;fill-opacity:1;fill-rule:evenodd;stroke:none"
			inkscape:connector-curvature="0" />
		<path sodipodi:nodetypes="cssssss" id="path9047"
			d="m 243.10745,260.50245 c -25.93145,6.10064 -63.1001,-15.82063 -71.75817,-11.43172 -6.58679,3.33896 8.08016,22.08659 37.30932,41.16107 20.38678,13.30411 33.63044,14.64657 45.43057,11.87047 12.76855,-3.00395 27.12516,-16.02358 34.53947,-40.31849 4.76351,-15.60887 7.04231,-42.05173 -1.02979,-43.95078 -13.4031,-3.15321 -19.96682,36.89979 -44.4914,42.66945 z"
			style="fill:#ffffff;fill-opacity:1;fill-rule:evenodd;stroke:none" inkscape:connector-curvature="0" />
		<path style="fill:#ffffff;fill-opacity:1;fill-rule:evenodd;stroke:none" d="m 217.77756,146.94262 c 2.32076,-75.806533 59.91251,-28.02858 62.22539,-26.87008 l -62.22539,26.87008 z" id="path10837" sodipodi:nodetypes="ccc"
			inkscape:connector-curvature="0" />
	</g>
	<g id="g3003" transform="matrix(0.75236987,0,0,0.75236987,-143.77972,-33.427226)">
		<g transform="matrix(0.48520629,0.87439971,-0.87439971,0.48520629,538.94125,100.93791)" id="g2993">
			<path sodipodi:nodetypes="csssssssssssssss" id="path2995"
				d="m 154.01188,84.82216 c -28.49265,3.220657 -30.7732,1.374497 -53.44698,2.038162 -22.673791,0.663666 -63.697735,-7.280783 -66.289025,0.01954 -2.59129,7.300321 -0.647823,29.201278 2.59129,40.483598 3.239112,11.28231 12.815384,43.87222 22.40545,62.15682 2.677491,5.10496 14.747169,29.08476 31.062111,55.82237 16.314944,26.7376 41.455944,50.60161 50.120564,59.22927 17.32925,17.2553 41.39554,32.30164 46.90203,34.29264 11.01298,3.98199 46.44789,16.13616 69.12167,8.83584 22.67379,-7.30032 42.31169,-23.61705 44.90298,-30.91737 1.29564,-3.65016 13.25932,-29.43188 18.32401,-59.02479 5.06469,-29.59291 3.23039,-62.997 2.58257,-70.62916 -1.29565,-15.2643 -4.53475,-70.26232 -9.06951,-86.85395 C 308.68429,83.683491 284.22421,6.6706646 275.15469,9.9889921 266.08518,13.307319 222.22034,53.764092 212.23173,59.78344 190.20577,73.05675 167.36478,83.31282 154.01188,84.82216 z"
				style="fill:#a40000;fill-opacity:1;fill-rule:evenodd;stroke:none" inkscape:connector-curvature="0" />
			<path sodipodi:nodetypes="ccc" id="path2997" d="m 130.09632,190.78324 c 2.32076,-75.80653 59.91251,-28.02858 62.22539,-26.87008 l -62.22539,26.87008 z" style="fill:#ffffff;fill-opacity:1;fill-rule:evenodd;stroke:none"
				inkscape:connector-curvature="0" />
			<path sodipodi:nodetypes="cssssss" id="path2999"
				d="m 234.02454,260.42224 c 23.78692,-6.55045 56.97018,13.11249 64.98214,8.69716 6.09525,-3.35906 -6.69889,-20.68422 -32.73941,-37.88617 -18.16275,-11.99806 -30.17864,-12.87621 -41.0029,-9.89542 -11.71259,3.22543 -25.16853,15.98673 -32.63999,39.22365 -4.80024,14.92914 -7.66066,40.04833 -0.36903,41.60751 12.10721,2.58888 19.27279,-35.55167 41.76919,-41.74673 z"
				style="fill:#ffffff;fill-opacity:1;fill-rule:evenodd;stroke:none" inkscape:connector-curvature="0" />
			<path style="fill:#ffffff;fill-opacity:1;fill-rule:evenodd;stroke:none" d="m 217.77756,146.94262 c 2.32076,-75.806533 59.91251,-28.02858 62.22539,-26.87008 l -62.22539,26.87008 z" id="path3001" sodipodi:nodetypes="ccc"
				inkscape:connector-curvature="0" />
		</g>
	</g>
</svg>
