<?xml version="1.0" encoding="UTF-8" standalone="no"?>
<!--
  - Copyright (c) 2023. Bernard Bou
  -->

<svg xmlns:dc="http://purl.org/dc/elements/1.1/" xmlns:cc="http://creativecommons.org/ns#" xmlns:rdf="http://www.w3.org/1999/02/22-rdf-syntax-ns#" xmlns="http://www.w3.org/2000/svg" xmlns:sodipodi="http://sodipodi.sourceforge.net/DTD/sodipodi-0.dtd"
	xmlns:inkscape="http://www.inkscape.org/namespaces/inkscape" version="1.0" width="180" height="185" id="svg2" inkscape:version="0.91 r13725" sodipodi:docname="roleclass.svg">
	<metadata id="metadata11">
		<rdf:RDF>
			<cc:Work rdf:about="">
				<dc:format>image/svg+xml</dc:format>
				<dc:type rdf:resource="http://purl.org/dc/dcmitype/StillImage" />
			</cc:Work>
		</rdf:RDF>
	</metadata>
	<defs id="defs9" />
	<sodipodi:namedview pagecolor="#ffffff" bordercolor="#666666" borderopacity="1" objecttolerance="10" gridtolerance="10" guidetolerance="10" inkscape:pageopacity="0" inkscape:pageshadow="2" inkscape:window-width="1219" inkscape:window-height="1148"
		id="namedview7" showgrid="false" inkscape:zoom="1.8040778" inkscape:cx="44.947907" inkscape:cy="-32.923728" inkscape:window-x="582" inkscape:window-y="24" inkscape:window-maximized="0" inkscape:current-layer="svg2" />
	<path style="fill:#4c0000;fill-opacity:1;stroke:none;stroke-width:21.10049438;stroke-miterlimit:4;stroke-dasharray:none;stroke-opacity:1"
		d="M 88.400351,4.7066469 C 84.85312,4.7151027 81.271677,4.9550543 77.66836,5.4401082 31.545884,11.648794 -0.15566784,55.71097 6.8148793,103.66807 c 6.9914157,47.97713 50.0863757,81.82506 96.2714507,75.57631 46.16421,-6.23873 77.88736,-50.3312 70.86465,-98.198186 l -0.0726,0 C 167.14458,36.826507 130.25767,4.6068689 88.400351,4.7066469 Z M 117.22128,27.272683 c 3.67543,-0.32388 12.97834,28.921621 14.72508,35.301084 1.77447,6.48072 3.04117,27.964977 3.54817,33.927239 0.25349,2.981132 0.971,16.027664 -1.01084,27.586704 -1.98184,11.55905 -6.66009,21.63175 -7.16707,23.0575 -1.01399,2.85152 -8.69721,9.22453 -17.56956,12.07605 -8.87235,2.85152 -22.743016,-1.89785 -27.052443,-3.45323 -2.154713,-0.77769 -11.568553,-6.6541 -18.349564,-13.39404 C 60.954551,139.00401 51.113725,129.68393 44.729617,119.24017 38.345506,108.79641 33.624947,99.429526 32.577243,97.435518 28.824604,90.29352 25.076698,77.56186 23.809215,73.15497 22.54175,68.748074 21.778826,60.197976 22.792794,57.346459 c 1.013987,-2.851515 17.072438,0.248059 25.944798,-0.01117 8.872345,-0.259229 9.759936,0.464963 20.909232,-0.793032 5.225048,-0.58955 14.163127,-4.598008 22.781979,-9.782587 3.908588,-2.351169 21.074137,-18.151751 24.623077,-19.447894 0.0555,-0.02025 0.11106,-0.03395 0.1694,-0.03909 z m -12.63265,36.821992 c -5.054209,0.04242 -9.5882,3.756929 -9.985505,16.711376 l 24.349425,-10.49557 c -0.50908,-0.254538 -7.86567,-6.27034 -14.36392,-6.215806 z M 70.279761,81.21746 c -5.0542,0.04242 -9.593779,3.756929 -9.991084,16.711376 L 84.638104,87.435126 C 84.12902,87.180589 76.778017,81.162926 70.279761,81.21746 Z m 50.921569,27.21253 c -4.78003,0.2707 -7.5423,14.58572 -16.68903,16.73372 -10.147088,2.38292 -24.690226,-6.18397 -28.078166,-4.46964 -2.577439,1.3042 3.16099,8.63163 14.598486,16.08215 7.977431,5.19662 13.15875,5.72154 17.7762,4.6372 4.99639,-1.17335 10.61565,-6.26117 13.51691,-15.75081 1.86398,-6.09686 2.75469,-16.42569 -0.40397,-17.16746 -0.24584,-0.0577 -0.48534,-0.0785 -0.72043,-0.0652 z"
		id="2" inkscape:connector-curvature="0" />
	<g transform="matrix(0.18329626,0,0,0.18228044,231.97922,112.5222)" id="layer1" inkscape:label="Layer 1" />
</svg>
