<?xml version="1.0" encoding="UTF-8" standalone="no"?>
<!-- Created with Inkscape (http://www.inkscape.org/) -->

<svg
   width="128"
   height="128"
   id="svg2"
   version="1.1"
   inkscape:version="1.2.2 (b0a8486541, 2022-12-01)"
   sodipodi:docname="bodypart.svg"
   xml:space="preserve"
   xmlns:inkscape="http://www.inkscape.org/namespaces/inkscape"
   xmlns:sodipodi="http://sodipodi.sourceforge.net/DTD/sodipodi-0.dtd"
   xmlns="http://www.w3.org/2000/svg"
   xmlns:svg="http://www.w3.org/2000/svg"
   xmlns:rdf="http://www.w3.org/1999/02/22-rdf-syntax-ns#"
   xmlns:cc="http://creativecommons.org/ns#"
   xmlns:dc="http://purl.org/dc/elements/1.1/"><defs
     id="defs4" /><sodipodi:namedview
     id="base"
     pagecolor="#ffffff"
     bordercolor="#666666"
     borderopacity="1.0"
     inkscape:pageopacity="0.0"
     inkscape:pageshadow="2"
     inkscape:zoom="3.959798"
     inkscape:cx="50.255089"
     inkscape:cy="68.185296"
     inkscape:document-units="px"
     inkscape:current-layer="layer1"
     showgrid="false"
     inkscape:window-width="1354"
     inkscape:window-height="816"
     inkscape:window-x="26"
     inkscape:window-y="23"
     inkscape:window-maximized="0"
     inkscape:showpageshadow="2"
     inkscape:pagecheckerboard="0"
     inkscape:deskcolor="#d1d1d1" /><metadata
     id="metadata7"><rdf:RDF><cc:Work
         rdf:about=""><dc:format>image/svg+xml</dc:format><dc:type
           rdf:resource="http://purl.org/dc/dcmitype/StillImage" /></cc:Work></rdf:RDF></metadata><g
     inkscape:label="Layer 1"
     inkscape:groupmode="layer"
     id="layer1"
     transform="translate(0,-956.36217)"><path
       inkscape:connector-curvature="0"
       d="m 126.19041,1020.3019 a 61.936159,62.241953 0 0 1 -123.8723155,0 61.936159,62.241953 0 1 1 123.8723155,0 z"
       style="fill:#34d0fc;fill-opacity:1;fill-rule:nonzero;stroke:#0044d8;stroke-width:2.67872;stroke-linecap:butt;stroke-linejoin:round;stroke-miterlimit:4;stroke-dasharray:none;stroke-dashoffset:0;stroke-opacity:1"
       id="path1873" /><path
       d="m 76.203745,1032.4837 24.406405,-14.8727 c 2.13066,-1.2963 2.88774,-3.9218 1.69499,-5.879 -1.18617,-1.9457 -3.87251,-2.489 -6.00399,-1.1886 l -21.833497,13.3026 c -0.704466,0.4283 -1.602104,0.2483 -1.991739,-0.3954 -0.401142,-0.6584 -0.15125,-1.5388 0.553215,-1.967 l 24.403941,-14.8703 c 2.11915,-1.2922 2.88855,-3.9234 1.69745,-5.8815 -1.19438,-1.95797 -3.88565,-2.47917 -6.00398,-1.18857 l -24.408049,14.87187 c -0.700356,0.4258 -1.599638,0.2457 -1.999137,-0.4119 -0.391278,-0.6403 -0.141386,-1.5207 0.561435,-1.9506 l 19.262241,-11.7367 c 2.13312,-1.29957 2.8828,-3.93577 1.69746,-5.88147 -1.192743,-1.9572 -3.870863,-2.4883 -6.00481,-1.1887 l -32.105379,19.56307 4.211175,-9.1243 c 1.50675,-2.8573 0.623908,-6.11327 -1.978587,-7.30517 -2.616468,-1.1714 -5.954665,0.1833 -7.476212,3.0233 0,0 -7.995725,15.43497 -11.425165,22.02827 -3.446702,6.6008 -4.452846,14.5119 1.611147,24.4623 10.035962,16.4699 24.779595,9.5058 28.918433,6.9839 l 34.677458,-21.1282 c 2.11833,-1.2906 2.87705,-3.935 1.68431,-5.8922 -1.18617,-1.9466 -3.88319,-2.4825 -6.00152,-1.192 l -16.709071,10.1815 c -0.700356,0.4258 -1.598816,0.2507 -1.993383,-0.3962 -0.399498,-0.6584 -0.145496,-1.5405 0.554859,-1.9663 z"
       id="path142"
       style="stroke-width:1" /><path
       d="m 76.203745,1032.4837 24.406405,-14.8727 c 2.13066,-1.2963 2.88774,-3.9218 1.69499,-5.879 -1.18617,-1.9457 -3.87251,-2.489 -6.00399,-1.1886 l -21.833497,13.3026 c -0.704466,0.4283 -1.602104,0.2483 -1.991739,-0.3954 -0.401142,-0.6584 -0.15125,-1.5388 0.553215,-1.967 l 24.403941,-14.8703 c 2.11915,-1.2922 2.88855,-3.9234 1.69745,-5.8815 -1.19438,-1.95797 -3.88565,-2.47917 -6.00398,-1.18857 l -24.408049,14.87187 c -0.700356,0.4258 -1.599638,0.2457 -1.999137,-0.4119 -0.391278,-0.6403 -0.141386,-1.5207 0.561435,-1.9506 l 19.262241,-11.7367 c 2.13312,-1.29957 2.8828,-3.93577 1.69746,-5.88147 -1.192743,-1.9572 -3.870863,-2.4883 -6.00481,-1.1887 l -32.105379,19.56307 4.211175,-9.1243 c 1.50675,-2.8573 0.623908,-6.11327 -1.978587,-7.30517 -2.616468,-1.1714 -5.954665,0.1833 -7.476212,3.0233 0,0 -7.995725,15.43497 -11.425165,22.02827 -3.446702,6.6008 -4.452846,14.5119 1.611147,24.4623 10.035962,16.4699 24.779595,9.5058 28.918433,6.9839 l 34.677458,-21.1282 c 2.11833,-1.2906 2.87705,-3.935 1.68431,-5.8922 -1.18617,-1.9466 -3.88319,-2.4825 -6.00152,-1.192 l -16.709071,10.1815 c -0.700356,0.4258 -1.598816,0.2507 -1.993383,-0.3962 -0.399498,-0.6584 -0.145496,-1.5405 0.554859,-1.9663 z"
       id="path311"
       style="stroke-width:1" /></g></svg>
