<svg xmlns="http://www.w3.org/2000/svg" width="128" height="128"><path d="M79.876 898.265c-9.012 11.43-25.892-10.482-39.902-6.532-14.01 3.95-16.957 31.452-30.612 26.413-13.656-5.04 1.968-27.864-6.118-39.967-8.086-12.103-35.153-6.408-34.58-20.952.572-14.545 27.108-6.74 36.12-18.17 9.012-11.43-4.769-35.412 9.24-39.362 14.01-3.95 14.787 23.7 28.442 28.738 13.656 5.04 32.206-15.478 40.292-3.375 8.086 12.103-17.97 21.386-18.543 35.93-.572 14.545 24.673 25.846 15.66 37.277z" style="fill:#917c6f;fill-opacity:.969163;fill-rule:evenodd;stroke:none;stroke-width:1.02695417" transform="rotate(15.718 3032.472 596.736)scale(1.03867)"/></svg>