<svg xmlns="http://www.w3.org/2000/svg" xmlns:xlink="http://www.w3.org/1999/xlink" xml:space="preserve" width="128" height="128" enable-background="new 0 0 256 256" overflow="visible" style="overflow:visible" viewBox="0 0 546.134 546.133"><g style="stroke:#881ca8"><path d="M495.889 125.83a93.737 95.497 0 0 1-187.475 0 93.737 95.497 0 1 1 187.475 0z" style="color:#000;fill:none;stroke:#881ca8;stroke-width:22.2915;stroke-miterlimit:4;stroke-dasharray:none;stroke-opacity:1" transform="matrix(1.90013 0 0 1.86636 -556.858 -23.193)"/><g style="stroke:#881ca8;filter:url(#a)" transform="matrix(1.01062 0 0 1.00228 74.949 147.52)"><circle cx="102.143" cy="545.934" r="135" style="fill:url(#b);fill-opacity:1;stroke:#881ca8" transform="matrix(.34959 -.11439 .15509 .25785 -54.059 -75.42)"/><circle cx="380" cy="535.219" r="225.714" style="fill:url(#c);fill-opacity:1;stroke:#881ca8" transform="rotate(-132.294 50.368 71.37)scale(.24014)"/><circle cx="102.143" cy="545.934" r="135" style="opacity:.876147;fill:url(#d);fill-opacity:1;stroke:#881ca8" transform="translate(27.396 -143.713)scale(.24015)"/></g><g style="stroke:#881ca8;filter:url(#a)" transform="matrix(1.01062 0 0 1.00228 206.487 147.52)"><circle cx="102.143" cy="545.934" r="135" style="fill:url(#e);fill-opacity:1;stroke:#881ca8" transform="matrix(.34959 -.11439 .15509 .25785 -54.059 -75.42)"/><circle cx="380" cy="535.219" r="225.714" style="fill:url(#f);fill-opacity:1;stroke:#881ca8" transform="rotate(-132.294 50.368 71.37)scale(.24014)"/><circle cx="102.143" cy="545.934" r="135" style="opacity:.876147;fill:url(#g);fill-opacity:1;stroke:#881ca8" transform="translate(27.396 -143.713)scale(.24015)"/></g><g style="stroke:#881ca8;filter:url(#a)" transform="matrix(1.01062 0 0 1.00228 74.949 271.668)"><circle cx="102.143" cy="545.934" r="135" style="fill:url(#h);fill-opacity:1;stroke:#881ca8" transform="matrix(.34959 -.11439 .15509 .25785 -54.059 -75.42)"/><circle cx="380" cy="535.219" r="225.714" style="fill:url(#i);fill-opacity:1;stroke:#881ca8" transform="rotate(-132.294 50.368 71.37)scale(.24014)"/><circle cx="102.143" cy="545.934" r="135" style="opacity:.876147;fill:url(#j);fill-opacity:1;stroke:#881ca8" transform="translate(27.396 -143.713)scale(.24015)"/></g><g style="stroke:#881ca8" transform="matrix(1.01062 0 0 1.00228 206.487 271.668)"><circle cx="102.143" cy="545.934" r="135" style="fill:url(#k);fill-opacity:1;stroke:#881ca8" transform="matrix(.34959 -.11439 .15509 .25785 -54.059 -75.42)"/><circle cx="380" cy="535.219" r="225.714" style="fill:url(#l);fill-opacity:1;stroke:#881ca8" transform="rotate(-132.294 50.368 71.37)scale(.24014)"/><circle cx="102.143" cy="545.934" r="135" style="opacity:.876147;fill:url(#m);fill-opacity:1;stroke:#881ca8" transform="translate(27.396 -143.713)scale(.24015)"/></g></g><g style="stroke:#881ca8"><path d="M495.889 125.83a93.737 95.497 0 0 1-187.475 0 93.737 95.497 0 1 1 187.475 0z" style="color:#000;fill:none;stroke:#881ca8;stroke-width:22.2915;stroke-miterlimit:4;stroke-dasharray:none;stroke-opacity:1" transform="matrix(1.90013 0 0 1.86636 -425.287 99.71)"/><g style="stroke:#881ca8;filter:url(#a)" transform="matrix(1.01062 0 0 1.00228 206.52 270.424)"><circle cx="102.143" cy="545.934" r="135" style="fill:url(#n);fill-opacity:1;stroke:#881ca8" transform="matrix(.34959 -.11439 .15509 .25785 -54.059 -75.42)"/><circle cx="380" cy="535.219" r="225.714" style="fill:url(#o);fill-opacity:1;stroke:#881ca8" transform="rotate(-132.294 50.368 71.37)scale(.24014)"/><circle cx="102.143" cy="545.934" r="135" style="opacity:.876147;fill:url(#p);fill-opacity:1;stroke:#881ca8" transform="translate(27.396 -143.713)scale(.24015)"/></g><g style="stroke:#881ca8;filter:url(#a)" transform="matrix(1.01062 0 0 1.00228 338.057 270.424)"><circle cx="102.143" cy="545.934" r="135" style="fill:url(#q);fill-opacity:1;stroke:#881ca8" transform="matrix(.34959 -.11439 .15509 .25785 -54.059 -75.42)"/><circle cx="380" cy="535.219" r="225.714" style="fill:url(#r);fill-opacity:1;stroke:#881ca8" transform="rotate(-132.294 50.368 71.37)scale(.24014)"/><circle cx="102.143" cy="545.934" r="135" style="opacity:.876147;fill:url(#s);fill-opacity:1;stroke:#881ca8" transform="translate(27.396 -143.713)scale(.24015)"/></g><g style="stroke:#881ca8;filter:url(#a)" transform="matrix(1.01062 0 0 1.00228 206.52 394.571)"><circle cx="102.143" cy="545.934" r="135" style="fill:url(#t);fill-opacity:1;stroke:#881ca8" transform="matrix(.34959 -.11439 .15509 .25785 -54.059 -75.42)"/><circle cx="380" cy="535.219" r="225.714" style="fill:url(#u);fill-opacity:1;stroke:#881ca8" transform="rotate(-132.294 50.368 71.37)scale(.24014)"/><circle cx="102.143" cy="545.934" r="135" style="opacity:.876147;fill:url(#v);fill-opacity:1;stroke:#881ca8" transform="translate(27.396 -143.713)scale(.24015)"/></g><g style="stroke:#881ca8" transform="matrix(1.01062 0 0 1.00228 338.057 394.571)"><circle cx="102.143" cy="545.934" r="135" style="fill:url(#w);fill-opacity:1;stroke:#881ca8" transform="matrix(.34959 -.11439 .15509 .25785 -54.059 -75.42)"/><circle cx="380" cy="535.219" r="225.714" style="fill:url(#x);fill-opacity:1;stroke:#881ca8" transform="rotate(-132.294 50.368 71.37)scale(.24014)"/><circle cx="102.143" cy="545.934" r="135" style="opacity:.876147;fill:url(#y);fill-opacity:1;stroke:#881ca8" transform="translate(27.396 -143.713)scale(.24015)"/></g></g><defs><radialGradient xlink:href="#z" id="b" cx="102.143" cy="545.934" r="135" fx="102.143" fy="545.934" gradientUnits="userSpaceOnUse"/><radialGradient xlink:href="#A" id="d" cx="102.143" cy="545.934" r="135" fx="102.143" fy="545.934" gradientUnits="userSpaceOnUse"/><radialGradient xlink:href="#z" id="e" cx="102.143" cy="545.934" r="135" fx="102.143" fy="545.934" gradientUnits="userSpaceOnUse"/><radialGradient xlink:href="#A" id="g" cx="102.143" cy="545.934" r="135" fx="102.143" fy="545.934" gradientUnits="userSpaceOnUse"/><radialGradient xlink:href="#z" id="h" cx="102.143" cy="545.934" r="135" fx="102.143" fy="545.934" gradientUnits="userSpaceOnUse"/><radialGradient xlink:href="#A" id="j" cx="102.143" cy="545.934" r="135" fx="102.143" fy="545.934" gradientUnits="userSpaceOnUse"/><radialGradient xlink:href="#z" id="k" cx="102.143" cy="545.934" r="135" fx="102.143" fy="545.934" gradientUnits="userSpaceOnUse"/><radialGradient xlink:href="#A" id="m" cx="102.143" cy="545.934" r="135" fx="102.143" fy="545.934" gradientUnits="userSpaceOnUse"/><radialGradient xlink:href="#z" id="n" cx="102.143" cy="545.934" r="135" fx="102.143" fy="545.934" gradientUnits="userSpaceOnUse"/><radialGradient xlink:href="#A" id="p" cx="102.143" cy="545.934" r="135" fx="102.143" fy="545.934" gradientUnits="userSpaceOnUse"/><radialGradient xlink:href="#z" id="q" cx="102.143" cy="545.934" r="135" fx="102.143" fy="545.934" gradientUnits="userSpaceOnUse"/><radialGradient xlink:href="#A" id="s" cx="102.143" cy="545.934" r="135" fx="102.143" fy="545.934" gradientUnits="userSpaceOnUse"/><radialGradient xlink:href="#z" id="t" cx="102.143" cy="545.934" r="135" fx="102.143" fy="545.934" gradientUnits="userSpaceOnUse"/><radialGradient xlink:href="#A" id="v" cx="102.143" cy="545.934" r="135" fx="102.143" fy="545.934" gradientUnits="userSpaceOnUse"/><radialGradient xlink:href="#z" id="w" cx="102.143" cy="545.934" r="135" fx="102.143" fy="545.934" gradientUnits="userSpaceOnUse"/><radialGradient xlink:href="#A" id="y" cx="102.143" cy="545.934" r="135" fx="102.143" fy="545.934" gradientUnits="userSpaceOnUse"/><linearGradient id="B"><stop offset="0" style="stop-color:#772b00;stop-opacity:1"/><stop offset=".5" style="stop-color:#da441b;stop-opacity:1"/><stop offset=".75" style="stop-color:#d2400f;stop-opacity:1"/><stop offset=".938" style="stop-color:#d44316;stop-opacity:.614583"/><stop offset="1" style="stop-color:#c33900;stop-opacity:.21875"/></linearGradient><linearGradient id="z"><stop offset="0" style="stop-color:#999;stop-opacity:1"/><stop offset="1" style="stop-color:#999;stop-opacity:0"/></linearGradient><linearGradient id="A"><stop offset="0" style="stop-color:#fff;stop-opacity:1"/><stop offset="1" style="stop-color:#fff;stop-opacity:0"/></linearGradient><linearGradient xlink:href="#B" id="i" x1="154.286" x2="605.714" y1="535.219" y2="535.219" gradientUnits="userSpaceOnUse"/><linearGradient id="D"><stop offset="0" style="stop-color:#480077;stop-opacity:1"/><stop offset=".5" style="stop-color:#9129cc;stop-opacity:1"/><stop offset=".75" style="stop-color:#9c12ef;stop-opacity:1"/><stop offset=".938" style="stop-color:#af6ef0;stop-opacity:.61458302"/><stop offset="1" style="stop-color:#8700c3;stop-opacity:.21875"/></linearGradient><linearGradient xlink:href="#D" id="l" x1="154.286" x2="605.714" y1="535.219" y2="535.219" gradientUnits="userSpaceOnUse"/><linearGradient xlink:href="#B" id="c" x1="154.286" x2="605.714" y1="535.219" y2="535.219" gradientUnits="userSpaceOnUse"/><linearGradient xlink:href="#B" id="f" x1="154.286" x2="605.714" y1="535.219" y2="535.219" gradientUnits="userSpaceOnUse"/><linearGradient xlink:href="#B" id="o" x1="154.286" x2="605.714" y1="535.219" y2="535.219" gradientUnits="userSpaceOnUse"/><linearGradient xlink:href="#B" id="r" x1="154.286" x2="605.714" y1="535.219" y2="535.219" gradientUnits="userSpaceOnUse"/><linearGradient xlink:href="#B" id="u" x1="154.286" x2="605.714" y1="535.219" y2="535.219" gradientUnits="userSpaceOnUse"/><linearGradient xlink:href="#D" id="x" x1="154.286" x2="605.714" y1="535.219" y2="535.219" gradientUnits="userSpaceOnUse"/><filter id="a" width="1.002" height="1.002" x="-.001" y="-.001" color-interpolation-filters="sRGB"><feColorMatrix type="saturate" values="0"/></filter></defs></svg>