<?xml version="1.0" encoding="UTF-8" standalone="no"?>
<!-- Created with Inkscape (http://www.inkscape.org/) -->

<svg
   xmlns:dc="http://purl.org/dc/elements/1.1/"
   xmlns:cc="http://creativecommons.org/ns#"
   xmlns:rdf="http://www.w3.org/1999/02/22-rdf-syntax-ns#"
   xmlns:svg="http://www.w3.org/2000/svg"
   xmlns="http://www.w3.org/2000/svg"
   xmlns:xlink="http://www.w3.org/1999/xlink"
   xmlns:sodipodi="http://sodipodi.sourceforge.net/DTD/sodipodi-0.dtd"
   xmlns:inkscape="http://www.inkscape.org/namespaces/inkscape"
   inkscape:export-ydpi="7.03125"
   inkscape:export-xdpi="7.03125"
   inkscape:export-filename="/opt/devel/grammarscope/current2/dist/logo/bullet10.png"
   inkscape:output_extension="org.inkscape.output.svg.inkscape"
   sodipodi:docname="focus.svg"
   version="1.0"
   inkscape:version="0.48.5 r10040"
   sodipodi:version="0.32"
   id="svg2"
   height="128"
   width="128">
  <sodipodi:namedview
     id="base"
     pagecolor="#ffffff"
     bordercolor="#666666"
     borderopacity="1.0"
     inkscape:pageopacity="0.0"
     inkscape:pageshadow="2"
     inkscape:zoom="2.6637577"
     inkscape:cx="39.649807"
     inkscape:cy="46.816626"
     inkscape:document-units="px"
     inkscape:current-layer="layer1"
     showgrid="false"
     inkscape:window-width="1222"
     inkscape:window-height="925"
     inkscape:window-x="473"
     inkscape:window-y="127"
     inkscape:showpageshadow="true"
     width="48px"
     height="48px"
     gridtolerance="10000"
     inkscape:grid-points="false"
     inkscape:grid-bbox="true"
     showborder="true"
     borderlayer="true"
     inkscape:guide-bbox="false"
     inkscape:object-paths="false"
     inkscape:snap-page="false"
     showguides="false"
     fit-margin-top="0"
     fit-margin-left="0"
     fit-margin-right="0"
     fit-margin-bottom="0"
     inkscape:window-maximized="0">
    <inkscape:grid
       id="GridFromPre046Settings"
       type="xygrid"
       originx="0px"
       originy="0px"
       spacingx="0.5px"
       spacingy="0.5px"
       color="#0000ff"
       empcolor="#0000ff"
       opacity="0.2"
       empopacity="0.4"
       empspacing="2"
       visible="true"
       enabled="true"
       snapvisiblegridlinesonly="true" />
  </sodipodi:namedview>
  <defs
     id="defs4">
    <linearGradient
       inkscape:collect="always"
       id="linearGradient20749-8">
      <stop
         style="stop-color: rgb(153, 153, 153); stop-opacity: 1;"
         offset="0"
         id="stop20751-96" />
      <stop
         style="stop-color: rgb(153, 153, 153); stop-opacity: 0;"
         offset="1"
         id="stop20753-4" />
    </linearGradient>
    <linearGradient
       id="linearGradient15834-3">
      <stop
         id="stop15842-3"
         offset="0"
         style="stop-color:#772b00;stop-opacity:1;" />
      <stop
         style="stop-color:#da441b;stop-opacity:1;"
         offset="0.5"
         id="stop15848-8" />
      <stop
         id="stop15850-6"
         offset="0.75"
         style="stop-color: rgb(210, 64, 15); stop-opacity: 1;" />
      <stop
         style="stop-color: rgb(212, 67, 22); stop-opacity: 0.614583;"
         offset="0.9375"
         id="stop15852-0" />
      <stop
         style="stop-color:#c33900;stop-opacity:0.21875;"
         offset="1"
         id="stop15838-4" />
    </linearGradient>
    <linearGradient
       inkscape:collect="always"
       id="linearGradient18791-8">
      <stop
         style="stop-color: rgb(255, 255, 255); stop-opacity: 1;"
         offset="0"
         id="stop18793-8" />
      <stop
         style="stop-color: rgb(255, 255, 255); stop-opacity: 0;"
         offset="1"
         id="stop18795-9" />
    </linearGradient>
    <radialGradient
       inkscape:collect="always"
       xlink:href="#linearGradient20749-8"
       id="radialGradient3706"
       gradientUnits="userSpaceOnUse"
       cx="102.14286"
       cy="545.93359"
       fx="102.14286"
       fy="545.93359"
       r="135" />
    <linearGradient
       inkscape:collect="always"
       xlink:href="#linearGradient15834-3"
       id="linearGradient3030"
       gradientUnits="userSpaceOnUse"
       x1="154.28572"
       y1="535.2193"
       x2="605.71429"
       y2="535.2193" />
    <radialGradient
       inkscape:collect="always"
       xlink:href="#linearGradient18791-8"
       id="radialGradient3032"
       gradientUnits="userSpaceOnUse"
       cx="102.14286"
       cy="545.93359"
       fx="102.14286"
       fy="545.93359"
       r="135" />
  </defs>
  <metadata
     id="metadata7">
    <rdf:RDF>
      <cc:Work
         rdf:about="">
        <dc:format>image/svg+xml</dc:format>
        <dc:type
           rdf:resource="http://purl.org/dc/dcmitype/StillImage" />
        <dc:creator>
          <cc:Agent>
            <dc:title>Lapo Calamandrei</dc:title>
          </cc:Agent>
        </dc:creator>
        <dc:title />
        <cc:license
           rdf:resource="http://creativecommons.org/licenses/GPL/2.0/" />
        <dc:subject>
          <rdf:Bag>
            <rdf:li>run</rdf:li>
            <rdf:li>launch</rdf:li>
            <rdf:li>exec</rdf:li>
          </rdf:Bag>
        </dc:subject>
      </cc:Work>
      <cc:License
         rdf:about="http://creativecommons.org/licenses/GPL/2.0/">
        <cc:permits
           rdf:resource="http://web.resource.org/cc/Reproduction" />
        <cc:permits
           rdf:resource="http://web.resource.org/cc/Distribution" />
        <cc:requires
           rdf:resource="http://web.resource.org/cc/Notice" />
        <cc:permits
           rdf:resource="http://web.resource.org/cc/DerivativeWorks" />
        <cc:requires
           rdf:resource="http://web.resource.org/cc/ShareAlike" />
        <cc:requires
           rdf:resource="http://web.resource.org/cc/SourceCode" />
      </cc:License>
    </rdf:RDF>
  </metadata>
  <g
     inkscape:label="Livello 1"
     inkscape:groupmode="layer"
     id="layer1"
     transform="translate(2.6285568,52.733904)">
    <g
       inkscape:label="ombre"
       id="layer5"
       transform="matrix(0.51188693,0,0,0.58594337,-5.936074,-60.575397)" />
    <g
       id="g2841"
       inkscape:label="Layer 1"
       transform="matrix(0.51188693,0,0,0.58594337,-5.936074,-60.575397)" />
    <g
       inkscape:label="bureau"
       id="layer2"
       transform="matrix(0.51188693,0,0,0.58594337,-5.936074,-60.575397)" />
    <g
       inkscape:label="barre"
       id="layer3"
       transform="matrix(0.51188693,0,0,0.58594337,-5.936074,-60.575397)" />
    <g
       inkscape:label="fichier"
       id="layer4"
       transform="matrix(0.51188693,0,0,0.58594337,-5.936074,-60.575397)" />
    <g
       transform="matrix(0.07543515,0.02052708,-0.02052708,0.07543515,199.92658,-10.064689)"
       id="layer1-6"
       inkscape:label="Ebene 1">
      <g
         transform="matrix(0.98108747,0,0,0.98108747,-25.226439,9.2186745)"
         id="g4252">
        <path
           style="fill:#696c8d"
           d="m -1793.7188,-88.0625 c -1.8518,0.01006 -3.6021,0.513281 -3.9687,1.46875 -0.3103,0.808666 -0.051,58.746167 0.5937,128.75 0.6462,70.00384 1.357,219.76554 1.5626,332.8125 0.2047,113.04697 0.5933,209.57197 0.875,214.5 0.2806,4.92804 0.7644,44.74375 1.0937,88.46875 0.3292,43.725 0.7664,82.2 0.9687,85.5 0.4964,8.06688 2.0643,227.75633 1.9063,267.75 l -0.125,31.75 6.9687,0 7,0 -0.6562,-15.75 c -0.9012,-21.6564 -4.0625,-360.22297 -4.0625,-434.78125 0,-33.77168 0.017,-34.03686 2.25,-36.875 1.3304,-1.69084 2.25,-4.2416 2.25,-6.25 0,-3.67456 2.0827,-5.34567 4.3437,-3.46875 1.6746,1.38937 3.8975,-2.3589 3.875,-6.53125 -0.014,-2.84885 1.3154,-5.34375 2.8438,-5.34375 l 0,-26.78125 c -0.2256,5.50321 -0.5273,8.63089 -0.9375,9.125 -1.1973,1.442 -2.8546,2.16247 -3.25,1.40625 -0.072,-0.1375 -0.2668,-26.08426 -0.4063,-57.65625 -0.3469,-78.83576 -1.4324,-163.6437 -4,-311.59375 -3.0726,-177.121172 -3.3825,-205.013416 -2.4687,-215 0.5032,-5.5 0.6478,-13.6 0.3437,-18 -0.4378,-6.350705 -0.2092,-8.412324 1.0313,-10 0.5954,-0.761927 0.9658,-1.17262 1.2187,-1.25 0.254,-0.07738 0.3778,0.178556 0.4063,0.75 0,0.02887 0,1.244876 0,1.3125 l 8.0625,0 0,-4.03125 c -2.4908,0.129905 -2.6258,-0.319914 -2.9062,-3.28125 -0.5685,-5.985137 -3.374,-7.823167 -5.3438,-3.5 -1.4416,3.164041 -3.599,3.204471 -4.7812,0.09375 -1.0896,-2.865874 -2.3235,-3.757631 -4.25,-3.0625 l -7.1563,0 c -0.9275,-0.367702 -2.1235,-0.537535 -3.2813,-0.53125 z m 15.0938,494.4375 c 0.066,0.009 0.1403,0.11914 0.2188,0.3125 0.2768,0.6875 0.2768,1.8125 0,2.5 -0.2779,0.6875 -0.5,0.125 -0.5,-1.25 0,-0.85938 0.084,-1.41345 0.2187,-1.53125 0.02,-0.0177 0.041,-0.0342 0.062,-0.0312 z"
           id="path4090"
           inkscape:connector-curvature="0" />
        <g
           id="g4219"
           transform="translate(-1009.8276,-64.835385)">
          <path
             style="fill:#d30b19"
             d="m -748.05645,-7.5387764 c -0.415,-0.017579 -0.7149,0.039564 -0.9375,0.125 -1.6185,0.621079 -1.7085,1.906917 -1.1562,15.40625 3.3842,82.7356004 4.5664,176.7241764 6.125,479.2499964 0.3016,58.575 0.7965,107.48618 1.0937,108.6875 1.1751,4.75141 6.6124,4.8483 24.0313,0.40625 8.0634,-2.05627 32.8767,-7.09919 44.3437,-9 11.0428,-1.83051 29.0024,-3.11775 40,-2.875 9.0935,0.20071 11.5716,-0.12678 18.5,-2.4375 4.4,-1.46747 13.175,-4.08468 19.5,-5.8125 6.325,-1.72782 13.525,-3.7613 16,-4.53125 11.211,-3.48762 46.0991,-9.76541 58.5,-10.53125 7.15,-0.44157 19.075,-1.24389 26.5,-1.78125 30.4921,-2.20679 42.0778,-2.39371 71.3125,-1.125 l 30.0938,1.3125 16.5312,7.90625 c 9.0992,4.36419 23.0875,10.58246 31.0625,13.8125 7.975,3.23005 20.0197,8.10785 26.7813,10.84375 6.7616,2.73589 17.5615,6.18247 24,7.65625 7.75,1.774 13.2944,3.68609 16.375,5.625 2.559,1.61078 6.1591,3.39954 8,3.96875 1.8407,0.56921 15.0437,1.13622 29.3437,1.28125 23.247,0.23577 27.6412,0.56687 41.5,3.03125 8.525,1.51592 19.325,3.11244 24,3.5625 4.675,0.45002 12.1577,0.69431 16.625,0.53125 7.3987,-0.27006 8.7353,-0.6687 15,-4.3125 14.9465,-8.69346 30.6659,-15.78597 47.3437,-21.375 15.687,-5.25695 18.2989,-5.84375 25.7188,-5.84375 4.5445,0 11.3234,0.51511 15.0625,1.15625 5.1127,0.87675 9.1593,0.87881 16.2813,0.0312 17.6297,-2.09808 51.38065,-7.96236 68.9687,-12 23.71167,-5.44342 28.4631,-6.12964 35,-5.09375 7.88504,1.24953 18.06735,1.38757 29.0625,0.4375 8.17433,-0.70633 10.06775,-0.55775 13.21875,0.9375 4.52939,2.14934 5.91869,1.65498 9.15625,-3.1875 6.13655,-9.17858 7.18608,-10.43488 9.53125,-11.59375 2.36247,-1.16742 2.54951,-1.90755 3.75,-15.21875 1.26553,-14.03229 4.47969,-37.06422 6.34375,-45.46875 0.54894,-2.475 1.26507,-6.4125 1.59375,-8.75 0.67796,-4.82141 -10e-4,-5.13756 -6.71875,-3.125 -8.41183,2.52024 -11.02951,-1.10201 -14.9375,-20.625 -6.61748,-33.0587 -9.43548,-41.15774 -19.28125,-55.28125 -2.96546,-4.25387 -7.74802,-11.76875 -10.625,-16.71875 -6.80149,-11.70231 -8.82806,-14.49548 -17.0625,-23.5 -21.87439,-23.92004 -24.48415,-29.1998 -31.625,-64 -2.42644,-11.825 -5.3753,-23.89969 -6.5625,-26.84375 -1.43744,-3.56461 -4.81106,-8.23539 -10.09375,-13.9375 -4.36305,-4.70945 -9.7999004,-11.05352 -12.0625004,-14.125 -2.2626,-3.07149 -7.65140003,-9.19375 -12,-13.59375 -4.3485,-4.4 -8.3374996,-9.15465 -8.8437996,-10.5625 -1.7247,-4.79689 3.9094996,-18.2319 13.74999957,-32.84375 2.40890003,-3.57675 2.15490003,-5.40306 -1.12499997,-8.125 -1.3605,-1.12906 -2.1744,-1.12478 -4.8124,-0.0312 -10.8811996,4.51057 -13.4300996,5.05573 -18.8437996,4.03125 -3.1642,-0.5988 -13.8264,-5.21168 -26.3125,-11.375 -21.7416,-10.73198 -47.5273,-21.4149 -62.8125,-26.03125 -7.6368,-2.30642 -25.6714,-5.25846 -52.6875,-8.59375 -4.125,-0.50925 -12.9,-1.60829 -19.5,-2.46875 -6.6,-0.86047 -22.125,-2.00104 -34.5,-2.53125 -12.375,-0.5302 -26.55,-1.3814 -31.5,-1.875 -10.198,-1.01691 -35.3088,-7.46108 -46.6563,-11.96875 -16.4836,-6.54803 -73.4421,-21.84711 -128.8437,-34.624996 -27.7846,-6.40827 -62.7581,-15.04688 -72.5,-17.90625 -4.4,-1.29145 -12.95,-3.54511 -19,-5 -6.05,-1.45489 -15.725,-3.797354 -21.5,-5.21875 -5.775,-1.421397 -15.9,-3.841032 -22.5,-5.375 -29.1041,-6.764348 -39.3213,-9.686775 -60,-17.0625 -26.636,-9.500563 -35.5369,-12.726986 -46,-16.78125 -4.4,-1.704916 -15.2,-5.787631 -24,-9.0625 -8.8,-3.2748694 -20.725,-7.7973614 -26.5,-10.0625004 -17.6249,-6.913023 -25.5947,-9.689449 -28.5,-9.8125 z"
             id="path4153"
             inkscape:connector-curvature="0" />
          <path
             id="path4155"
             d="m -764.28125,-12.5625 0,8.90625 -0.21875,0 c 0.0658,4.7692918 0.17188,14.823758 0.3125,31.40625 0.168,19.8 0.8173,51.75 1.4375,71 0.6203,19.25 1.59575,71.9 2.15625,117 0.5607,45.1 1.24105,100.9 1.53125,124 0.2902,23.1 1.0753,73.725 1.75,112.5 1.48137,85.14423 1.65017,133.99036 0.46875,146.3125 l 0,10.75 7.46875,-1.21875 c 0.36643,-0.44534 0.9041,-0.57246 1.71875,-0.6875 1.3344,-0.18849 3.3596,-0.95327 4.5,-1.6875 1.1402,-0.73423 4.90745,-1.82372 8.34375,-2.4375 3.4364,-0.61377 8.1614,-1.79802 10.5,-2.625 15.1004,-5.33976 64.90625,-12.39925 87.53125,-12.40625 8.2745,-0.003 10.70325,-0.46297 22.53125,-4.375 7.2947,-2.41267 19.09165,-5.62003 26.21875,-7.09375 7.1268,-1.47372 14.54375,-3.06747 16.46875,-3.5625 12.4847,-3.21049 42.3296,-8.42035 52,-9.0625 6.325,-0.42001 14.65,-1.21994 18.5,-1.78125 23.2125,-3.38425 42.7013,-3.84784 82.5,-1.96875 l 25.5,1.21875 15.5,7.4375 c 25.7348,12.33828 69.4201,29.6749 82.375,32.6875 8.16,1.89757 12.88025,3.60747 16.59375,6 6.691,4.3107 9.93915,4.69178 40.53125,5 23.1388,0.23313 26.3044,0.49439 42.5,3.4375 12.6539,2.29953 20.9593,3.23877 30,3.375 l 12.5,0.1875 8,-4.625 c 15.9679,-9.22899 29.33225,-15.29947 46.34375,-21 16.2349,-5.44025 18.0099,-5.8126 27.5,-5.96875 5.5799,-0.0918 11.95625,0.29778 14.15625,0.875 10.7667,2.82486 14.7848,2.5665 48,-3.25 28.13813,-4.92743 44.378,-8.30537 61.9375,-12.875 4.31179,-1.12209 6.18224,-1.03982 14.84375,0.6875 9.51632,1.8978 10.33748,1.91768 20.0625,0.34375 9.45681,-1.53052 17.65625,-1.38457 17.65625,0.3125 0,0.40387 0.95867,1.95476 2.125,3.4375 l 2.09375,2.6875 2.40625,-2.25 c 1.31468,-1.23507 4.20322,-5.51721 6.40625,-9.53125 2.62061,-4.77489 5.02622,-7.83922 6.96875,-8.84375 3.45755,-1.78797 3.30309,-1.13754 5.46875,-22.5 0.92,-9.075 2.06065,-18.3 2.53125,-20.5 0.47061,-2.2 1.41355,-8.05 2.09375,-13 0.6802,-4.95 2.04452,-11.68086 3.0625,-14.9375 3.01004,-9.6295 1.24273,-11.37705 -7.65625,-7.5625 -6.77362,2.90351 -8.34285,2.63511 -10.1875,-1.75 -0.86762,-2.0625 -3.12619,-11.175 -5,-20.25 -5.69046,-27.55932 -9.14394,-36.92577 -19.28125,-51.9375 C 93.28326,402.59529 89.19378,396.05 87.375,392.75 82.0011,382.99959 76.35244,375.05042 71.4375,370.25 51.97107,351.23715 44.11347,337.28486 39.84375,314.3125 36.69328,297.36205 32.51059,280.47801 30.15625,275.15625 28.59614,271.62978 25.05421,266.96749 20,261.78125 c -4.27374,-4.38538 -9.13767,-10.01038 -10.8125,-12.5 -1.6748,-2.48961 -7.26395,-8.8708 -12.40625,-14.15625 -5.1421,-5.28546 -9.34375,-10.03529 -9.34375,-10.5625 0,-4.95056 9.81635,-26.12882 14.09375,-30.40625 2.0513,-2.05122 3.90625,-5.30968 3.90625,-6.875 0,-1.2235 -8.0285,-9.01145 -9.3125,-9.03125 -0.4448,-0.007 -2.4698,1.28561 -4.5,2.84375 -2.0303,1.55814 -5.56315,3.61908 -7.84375,4.59375 -6.2028,2.65116 -11.29405,1.09836 -34.34375,-10.4375 -17.3802,-8.69838 -29.7124,-14.12635 -50.5,-22.1875 -11.1603,-4.32779 -22.9073,-7.08126 -40,-9.40625 -44.6401,-6.07206 -58.3812,-7.55396 -78.5,-8.46875 -40.9297,-1.86105 -47.8508,-3.11371 -82.5,-14.75 -21.2516,-7.13694 -42.55,-13.40042 -58.5,-17.21875 -6.325,-1.51417 -17.575,-4.33009 -25,-6.25 -7.425,-1.91991 -26.325,-6.50654 -42,-10.21875 -28.6936,-6.79531 -61.9583,-15.0929 -74,-18.4375 -3.575,-0.99297 -9.65,-2.52612 -13.5,-3.40625 -6.7465,-1.542276 -27.3734,-6.48352 -61,-14.625 -8.8,-2.130605 -17.575,-4.176954 -19.5,-4.5625 -3.8444,-0.769959 -44.9324,-15.615817 -65.5,-23.65625 -7.15,-2.795133 -16.6,-6.303156 -21,-7.8125 -4.4,-1.509344 -15.875,-6.017391 -25.5,-10 -30.66814,-12.6898004 -40.39464,-16.360248 -45.6875,-16.8125 l -2.03125,0 c -1.3779,0.108531 -2.26579,0.152344 -2.84375,0 l -6.15625,0 z m 56.71875,19.46875 c 4.86219,1.8458745 10.02321,3.771488 14.5,5.4375 8.8,3.274869 19.6,7.357584 24,9.0625 10.4631,4.054264 19.364,7.280687 46,16.78125 20.6787,7.375725 30.8959,10.298152 60,17.0625 6.6,1.533968 16.725,3.953603 22.5,5.375 5.775,1.421396 15.45,3.76386 21.5,5.21875 6.05,1.45489 14.6,3.70855 19,5 0.50823,0.14917 1.35904,0.351759 2,0.53125 -0.2109,0.172862 -0.22878,0.504808 0,0.875 0.3399,0.55 0.82,1 1.0625,1 0.2426,0 0.4375,-0.45 0.4375,-1 0,-0.184412 -0.0625,-0.351266 -0.15625,-0.5 1.31888,0.361244 2.93515,0.804742 4.625,1.25 -0.30725,-0.05829 -0.58638,-0.110566 -0.84375,-0.125 -0.2667,-0.01496 -0.51255,0.0039 -0.71875,0.03125 -1.2373,0.164317 -1.33575,1.0098 0.34375,1.6875 2.0423,0.8241 3.75,0.72578 3.75,-0.21875 0,-0.350414 -0.59547,-0.786284 -1.4375,-1.09375 14.82841,3.881657 41.31881,10.367272 63.4375,15.46875 55.4016,12.77789 112.36015,28.07697 128.84375,34.625 11.3475,4.50767 36.45825,10.95184 46.65625,11.96875 4.95,0.4936 19.125,1.3448 31.5,1.875 12.375,0.53021 27.9,1.67078 34.5,2.53125 6.6,0.86046 15.375,1.9595 19.5,2.46875 27.0161,3.33529 45.0507,6.28733 52.6875,8.59375 15.2852,4.61635 41.0709,15.29927 62.8125,26.03125 12.4861,6.16332 23.1483,10.7762 26.3125,11.375 4.800651,0.90847 7.365822,0.54315 15.46875,-2.6875 -0.1577027,0.073 -0.2727444,0.14205 -0.4375,0.21875 l -5.34375,2.46875 4.5,0.125 c 2.4749996,0.0687 5.21555,0.0522 6.09375,-0.0312 0.8783,-0.0836 2.1735,0.56094 2.875,1.40625 0.9348125,1.12641 1.74342358,1.5269 2.34375,1.4375 -0.20676342,0.37084 -0.44022746,0.77395 -0.71875,1.1875 -6.6201931,9.83012 -11.334691,19.10071 -13.1875,25.59375 1.36879,-4.61919 1.363358,-4.74618 -0.59375,-4.125 -2.9403,0.93321 -10.7378,-1.53959 -11.9375,-3.78125 -0.5664,-1.05842 -2.91995,-2.72794 -5.21875,-3.71875 -11.5252,-4.96744 -14.7962,-6.99459 -22.3125,-13.75 -4.4805,-4.02704 -8.48875,-7.3125 -8.90625,-7.3125 -0.4175,0 -2.19605,-1.11671 -3.96875,-2.46875 -1.7726,-1.35204 -6.31445,-3.67635 -10.09375,-5.1875 -3.7793,-1.51115 -8.22415,-3.68819 -9.84375,-4.8125 -1.6198,-1.12431 -5.28865,-3.38125 -8.15625,-5.03125 -2.8676,-1.65 -7.1086,-4.33105 -9.4375,-5.96875 -4.0974,-2.88132 -4.72555,-3.00169 -19.34375,-3.6875 -11.2907,-0.52971 -16.535,-1.23007 -20.75,-2.75 -7.2844,-2.62674 -14.545,-3.3074 -17.8125,-1.65625 -3.8366,1.93865 -9.7295,2.75431 -11.75,1.625 -0.9876,-0.5519 -8.22915,-3.09096 -16.09375,-5.65625 -11.1924,-3.65078 -14.7775,-4.4627 -16.5,-3.6875 -1.5503,0.69767 -3.35815,0.58462 -6.09375,-0.375 -1.7562,-0.61609 -3.22555,-0.89341 -4.71875,-0.84375 -0.8959,0.0298 -1.79975,0.17777 -2.78125,0.4375 -1.9891,0.52643 -9.28815,1.15805 -16.21875,1.375 -6.9306,0.21696 -13.1091,0.69767 -13.75,1.09375 -1.7484,1.08056 -0.35405,2.59375 2.40625,2.59375 1.3378,0 2.9722,0.86113 3.625,1.90625 0.6525,1.04512 1.7731,1.65397 2.5,1.375 0.7269,-0.27896 1.34375,-0.0839 1.34375,0.4375 0,0.52135 1.9865,3.09278 4.4375,5.6875 3.9446,4.17608 4.70935,4.57099 6.59375,3.5625 1.1707,-0.6266 2.911,-2.90931 3.875,-5.0625 0.9639,-2.15319 1.99125,-3.66493 2.28125,-3.375 0.2899,0.28993 2.04455,0.69898 3.90625,0.90625 7.1269,0.7934 13.57425,2.37605 17.90625,4.40625 2.475,1.15992 5.4546,2.1129 6.625,2.125 1.1703,0.0121 3.6453,0.64227 5.5,1.40625 1.8546,0.76398 5.85,1.71169 8.875,2.09375 3.025,0.38207 9.55,1.7607 14.5,3.0625 4.95,1.3018 11.00535,2.6525 13.46875,3 2.4633,0.3475 4.8001,0.8231 5.1875,1.0625 1.3398,0.82806 10.37565,2.50362 18.34375,3.40625 22.1226,2.50606 25.98985,3.08366 26.90625,4 0.5463,0.54625 2.0281,1 3.3125,1 1.2844,0 3.3442,0.63343 4.5625,1.40625 1.2181,0.77281 6.49375,2.8333 11.71875,4.59375 9.9422,3.34979 10.4913,3.60872 26.3125,11.5625 9.5683,4.81021 16.6875,10.71238 16.6875,13.875 0,5.68724 8.98955,13.14514 14.59375,12.09375 2.6477,-0.49668 3.4953,-0.2064 4.375,1.4375 2.025564,3.7848 3.306999,2.2186 6.3125,-7.84375 -0.802107,2.95846 -0.976469,5.31347 -0.4375,6.8125 0.5063,1.40785 4.49525,6.1625 8.84375,10.5625 4.34859997,4.4 9.7374,10.52226 12,13.59375 2.2626,3.07148 7.69945,9.41555 12.0625,14.125 5.28269,5.70211 8.65631,10.37289 10.09375,13.9375 1.1872,2.94406 4.13606,15.01875 6.5625,26.84375 0.593114,2.89048 1.14612,5.56606 1.6875,8.0625 -0.211944,-0.97603 -0.449138,-1.9249 -0.65625,-2.9375 -1.84178,-9.00472 -3.58817,-16.61942 -3.875,-16.90625 -0.20706,-0.20705 -0.38655,-0.29686 -0.53125,-0.28125 -1.01292,0.10929 -0.50925,5.6133 1.46875,15.59375 3.21248,16.20924 5.9099,25.35239 9.625,32.71875 1.59496,3.1625 3.39908,5.75 4,5.75 0.60092,0 0.83902,-0.5625 0.53125,-1.25 -0.764231,-1.70716 -1.471596,-3.39474 -2.15625,-5.0625 4.287963,8.82752 10.434931,16.17847 21.53125,28.3125 8.23444,9.00452 10.26101,11.79769 17.0625,23.5 2.87698,4.95 7.65954,12.46488 10.625,16.71875 6.47975,9.29504 9.92802,16.02908 13.40625,28.9375 -0.58364,-2.02621 -1.05839,-3.33678 -1.375,-3.65625 -0.13271,-0.13391 -0.25138,-0.22891 -0.34375,-0.25 -0.0404,-0.009 -0.0617,-0.0193 -0.0937,0 -0.48044,0.28906 -0.012,4.03304 2.0625,18.25 2.71094,18.57901 5.17976,27.81036 8.5,31.78125 2.51067,3.00267 3.28074,0.32741 1.25,-4.34375 2.48206,5.87262 5.4649,6.78968 10.8125,5.1875 0.15227,-0.0456 0.26013,-0.0818 0.40625,-0.125 -0.88767,0.44099 -1.20959,0.95577 -0.53125,1.375 1.38836,0.85806 1.53978,5.4936 0.25,7.53125 -0.5328,0.84178 -0.52576,2.40982 0.0312,3.875 1.64375,4.32338 0.32191,5.85659 -6.59375,7.59375 -3.53332,0.88754 -7.40635,1.625 -8.625,1.625 -1.21866,0 -2.97394,0.68753 -3.90625,1.53125 -0.9323,0.84373 -4.58274,2.02208 -8.09375,2.625 -10.37568,1.78174 -10.24508,1.83247 -10.96875,-2.5 -0.35408,-2.11978 -1.03486,-4.14478 -1.53125,-4.5 -0.49639,-0.35521 -2.77785,-1.88479 -5.0625,-3.375 -5.57754,-3.63808 -5.93504,-4.46383 -3.34375,-7.96875 1.67579,-2.26663 1.93249,-3.28649 1.0625,-4.15625 -1.49668,-1.4963 -13.61674,-1.25047 -15.5,0.3125 -1.76993,1.46891 -6.72496,0.9754 -7.28125,-0.71875 -0.22565,-0.68721 0.39802,-1.51985 1.40625,-1.84375 3.31491,-1.06491 12.35172,-5.66526 12.90625,-6.5625 1.41356,-2.28719 -0.91117,-4.57678 -6.34375,-6.28125 -3.15674,-0.99043 -8.38936,-3.15321 -11.625,-4.78125 -10.86811,-5.46838 -30.6732,-8.09622 -39.375,-5.25 -4.8346,1.58131 -5.77011,1.5679 -12.46875,0.125 -9.1065,-1.96157 -16.75,-4.60245 -16.75,-5.8125 0,-2.08929 -5.03985,-5.84375 -7.84375,-5.84375 -1.6078,0 -3.4834,-0.68294 -4.1875,-1.53125 -2.0261,-2.44131 0.1927,-3.77209 5.1875,-3.09375 17.8732996,2.42734 27.4671496,2.87996 35.25,1.6875 4.45337,-0.68233 9.44375,-1.62913 11.09375,-2.125 1.7113,-0.51424 5.26905,-0.543 8.28125,-0.0625 2.90431,0.46328 6.41926,0.61008 7.8125,0.34375 L 45.5625,446 l -2.75,-2.875 c -1.50078,-1.56647 -4.12433,-3.30754 -5.84375,-3.875 -3.85435,-1.27205 -45.4546004,-1.15565 -58.125,0.15625 -6.3342,0.65584 -11.0316,0.58022 -15.5,-0.21875 -3.5263,-0.63052 -8.5298,-1.44876 -11.125,-1.84375 -2.5953,-0.39498 -5.5203,-1.46079 -6.5,-2.34375 -0.9798,-0.88296 -3.13125,-1.93764 -4.78125,-2.34375 -1.65,-0.4061 -5.475,-2.05492 -8.5,-3.6875 -3.025,-1.63257 -7.75,-3.77915 -10.5,-4.75 -2.75,-0.97085 -8.6,-3.16867 -13,-4.875 -4.4,-1.70632 -9.0125,-3.09175 -10.25,-3.09375 -1.8287,-0.003 -2.25,-0.54928 -2.25,-2.96875 0,-1.99834 0.7396,-3.44975 2.25,-4.40625 2.446,-1.549 8.4849,-3.1566 10.5,-2.78125 1.5079,0.28086 3.25,-3.87168 3.25,-7.78125 0,-2.04337 -0.9605,-3.56302 -3.5,-5.5 -1.925,-1.46827 -3.5,-3.22584 -3.5,-3.90625 0,-0.68041 -2.1778,-3.53743 -4.8125,-6.34375 l -4.78125,-5.09375 -2.65625,1.9375 c -3.5261,2.56858 -5.79075,1.36648 -10.21875,-5.46875 -1.8479,-2.85251 -5.6395,-7.56829 -8.4375,-10.46875 -2.7978,-2.90045 -5.09375,-5.85835 -5.09375,-6.5625 0,-2.37494 -6.4525,-7.49922 -14,-11.125 -9.1556,-4.39827 -15.45165,-8.06926 -20.59375,-12.03125 -17.2343,-13.27902 -30.58255,-21.877 -44.40625,-28.59375 -9.8911,-4.80592 -38.8741,-14.9583 -51,-17.875 -3.025,-0.72761 -12.025,-3.5409 -20,-6.25 -14.0443,-4.77083 -22.41985,-7.3116 -34.09375,-10.3125 -3.0781,-0.79127 -10.2781,-3.65015 -16,-6.34375 -5.7219,-2.69361 -14.68125,-6.52702 -19.90625,-8.53125 -12.9418,-4.96428 -14.4439,-5.8182 -14.8125,-8.375 -0.3774,-2.61723 1.6881,-3.61407 9.8125,-4.71875 10.9358,-1.48696 32.55885,-6.33646 35.84375,-8.03125 4.0153,-2.07156 14.4087,-1.62491 18.25,0.78125 1.3257,0.83035 5.10625,2.29067 8.40625,3.25 6.8286,1.9851 16.6629,5.68508 24,9.03125 2.75,1.25417 8.825,3.49916 13.5,4.96875 4.675,1.46958 9.4,3.17981 10.5,3.8125 1.1,0.63269 7.625,1.43757 14.5,1.78125 12.7277,0.63627 18.9751,1.81485 24.6875,4.6875 2.4656,1.23994 3.7219,1.36424 5.5,0.53125 3.238,-1.51697 7.899,-1.56694 10.625,-0.125 1.8859,0.99754 2.4764,0.96302 3.1875,-0.1875 0.544,-0.88022 2.22365,-1.3387 4.46875,-1.1875 4.4584,0.30028 6.0165,-0.51647 4.5,-2.34375 -0.6102,-0.73523 -0.95225,-2.09626 -0.78125,-3.03125 0.2014,-1.10114 -1.4488,-2.91674 -4.6875,-5.15625 -5.633,-3.89515 -6.45245,-5.59935 -3.96875,-8.34375 1.6046,-1.77363 1.6075,-2.04857 0.0625,-4.40625 -2.1292,-3.24961 -2.7325,-3.19673 -2.375,0.21875 0.2636,2.51707 -0.0363,2.77842 -3.46875,3.0625 -2.7107,0.22434 -3.7835,0.77865 -3.8125,2 -0.0294,1.22117 -0.8126,0.75447 -2.875,-1.65625 l -2.875,-3.34375 -1.15625,3.59375 c -0.6508,1.97204 -1.63165,3.59375 -2.15625,3.59375 -1.4668,0 -2.2216,-2.89351 -1.125,-4.28125 0.5377,-0.6805 1.18805,-2.50665 1.46875,-4.0625 0.6902,-3.82332 -1.9055,-4.78317 -4.4375,-1.65625 -1.4522,1.79345 -2.1491,2.03839 -3.0625,1.125 -0.9133,-0.91339 -0.8823,-1.66808 0.125,-3.28125 0.9376,-1.50115 0.99485,-2.38011 0.21875,-3.15625 -0.5951,-0.59515 -1.0625,-2.78621 -1.0625,-4.84375 0,-2.05754 -0.45,-4.00383 -1,-4.34375 -0.55,-0.33992 -0.98585,-1.38246 -0.96875,-2.3125 0.0293,-1.55964 0.11845,-1.55155 1.34375,0.0625 1.624,2.13946 3.76305,2.3196 2.96875,0.25 -0.3166,-0.825 -0.0787,-1.5 0.5,-1.5 0.5788,0 1.17615,2.1375 1.34375,4.75 0.3203,4.99199 2.08645,6.52625 2.59375,2.25 0.5081,-4.28396 2.3405,-7.90532 4.3125,-8.53125 2.4661,-0.78269 2.42855,-2.0904 -0.0937,-2.75 -1.4563,-0.38083 -2,-1.37238 -2,-3.625 0,-1.70149 0.4801,-3.09375 1.0625,-3.09375 0.5825,0 0.7774,-0.45 0.4375,-1 -0.3399,-0.55 0.08,-1 0.9375,-1 2.4775,0 1.81675,-1.9484 -1.03125,-3.03125 -1.4292,-0.54334 -5.21945,-3.59445 -8.40625,-6.75 -3.1867,-3.15554 -6.94435,-6.67889 -8.34375,-7.84375 -2.3453,-1.95231 -2.40785,-2.28463 -1.03125,-4.25 0.8214,-1.17264 2.086,-2.125 2.8125,-2.125 0.7264,0 1.8458,-0.6493 2.5,-1.4375 0.9454,-1.13919 0.7681,-1.85696 -0.875,-3.5 -1.1368,-1.1368 -2.5125,-2.0625 -3.0625,-2.0625 -0.55,0 -1,-0.8154 -1,-1.8125 0,-2.62483 -5.30085,-7.40897 -7.34375,-6.625 -0.9146,0.35095 -1.65625,1.07013 -1.65625,1.59375 0,0.52361 -0.45,0.68367 -1,0.34375 -0.55,-0.33992 -1,0.066 -1,0.90625 0,0.87277 -0.6025,1.29643 -1.375,1 -0.7437,-0.28538 -2.06665,0.62299 -2.96875,2 -3.1325,4.78083 -11.89885,4.43045 -18.90625,-0.75 -2.1752,-1.60805 -5.0044,-2.17646 -13.5,-2.71875 -5.9907,-0.38241 -11.6246,-0.28953 -12.75,0.21875 -1.4096,0.63666 -3.7307,0.30002 -7.75,-1.125 -12.525,-4.44064 -16.45315,-5.9175 -21.09375,-7.9375 -2.6582,-1.15702 -5.81815,-2.09375 -7.03125,-2.09375 -1.2131,0 -4.0087,-0.92631 -6.1875,-2.0625 -7.1605,-3.73409 -26.9738,-10.17294 -35.4375,-11.5 -2.475,-0.38807 -8.48415,-2.20856 -13.34375,-4.0625 -4.8598,-1.85395 -10.1504,-3.375 -11.75,-3.375 -2.0931,0 -4.14135,-1.24923 -7.34375,-4.40625 -4.1288,-4.07038 -11.39715,-7.59375 -15.59375,-7.59375 -0.9094,0 -4.6664,-0.96091 -8.375,-2.125 -4.8548,-1.52386 -7.0598,-2.7541 -7.8125,-4.40625 -0.7048,-1.54678 -2.20945,-2.48634 -4.65625,-2.90625 -1.9964,-0.34263 -4.8363,-0.86433 -6.3125,-1.15625 -2.1876,-0.4326 -2.9445,-0.0344 -4.125,2.21875 -1.3212,2.52165 -1.26875,3.02989 0.65625,5.8125 3.6265,5.24204 7.98565,9.5625 9.65625,9.5625 0.8821,0 2.00865,0.40485 2.53125,0.90625 0.5225,0.5014 2.9255,1.2889 5.3125,1.75 6.0404,1.16679 4.80645,2.90511 -1.84375,2.59375 -4.8648,-0.22777 -9.1636,-1.6072 -14,-4.4375 -5.2999,-3.10155 -12.57365,-5.8125 -15.53125,-5.8125 -2.38,0 -3.86035,-0.62547 -4.71875,-2 -0.7945,-1.27218 -2.32575,-2 -4.21875,-2 -3.7006,0 -11.36575,-2.77235 -14.03125,-5.0625 -1.1,-0.94509 -3.125,-2.03545 -4.5,-2.4375 -1.375,-0.40205 -3.95665,-1.80515 -5.71875,-3.125 -1.7623,-1.31986 -4.66295,-2.70135 -6.46875,-3.0625 -1.8057,-0.36115 -5.2977,-1.94484 -7.75,-3.5 -2.4522,-1.55517 -4.95155,-2.8095 -5.53125,-2.8125 -0.5798,-0.003 -2.2282,-0.64484 -3.6875,-1.40625 -1.4593,-0.76142 -4.35325,-1.94745 -6.40625,-2.625 -2.0529,-0.67754 -5.3025,-2.3034 -7.25,-3.625 -1.9475,-1.3216 -4.7098,-2.68654 -6.125,-3.03125 -1.4152,-0.34471 -3.85165,-1.67741 -5.40625,-2.96875 -1.5547,-1.29135 -3.2422,-2.34375 -3.75,-2.34375 -0.5078,0 -0.90625,-0.675 -0.90625,-1.5 0,-1.03207 -1.05995,-1.5 -3.34375,-1.5 -2.3244,0 -4.9473,-1.21547 -8.75,-4.0625 -4.2213,-3.16023 -6.03405,-3.94846 -8.15625,-3.53125 -2.0431,0.40166 -2.99185,0.03745 -3.78125,-1.4375 -0.5802,-1.08408 -1.8068,-1.96575 -2.75,-1.96875 -0.943,-0.0034 -3.01835,-0.67839 -4.59375,-1.5 -3.9186,-2.04368 -8.6277,-1.84452 -11.625,0.5 -1.375,1.07554 -3.02755,1.95655 -3.65625,1.96875 -0.6286,0.01223 -1.4394,0.81875 -1.8125,1.78125 -0.6069,1.56511 -0.821,1.57774 -1.875,0.1875 -4.2147,-5.55872 -17.03855,-12.968779 -43.15625,-24.9375 -6.6613,-3.05263 -26.1714,-12.631115 -31.5,-15.46875 -1.375,-0.732226 -10.375,-5.286994 -20,-10.09375 -18.9082,-9.442805 -24.7267,-13.148336 -23.125,-14.75 0.6504,-0.650352 2.1343,-0.4661774 4.3125,0.53125 5.8116,2.661148 12.84755,5.089774 13.34375,4.59375 0.2641,-0.26421 -4.36735,-2.337567 -10.28125,-4.59375 -2.57292,-0.9815649 -5.90859,-2.2713564 -9.25,-3.5625 z M -691.875,39.25 c 2.0699,0 4.3059,1.707853 9.5,7.25 3.737,3.9875 8.02785,9.05 9.53125,11.25 1.5035,2.2 5.3558,6.925 8.5625,10.5 6.3293,7.05653 9.1298,11.50668 8.1875,13.03125 -2.0939,3.38806 -8.75195,-1.14883 -19.40625,-13.21875 -4.525,-5.126268 -9.21995,-10.4375 -10.46875,-11.8125 -1.2485,-1.375 -2.8614,-4.633782 -3.5625,-7.21875 -0.7013,-2.584968 -2.11995,-5.437225 -3.15625,-6.375 -2.6079,-2.360125 -2.3681,-3.40625 0.8125,-3.40625 z m -25.96875,0.1875 c 1.1558,0.0029 3.94085,2.306219 7.21875,6.0625 1.7999,2.0625 2.85225,3.75 2.34375,3.75 -1.3036,0 -10.5805,-9.044525 -9.9375,-9.6875 0.0962,-0.09617 0.2099,-0.125419 0.375,-0.125 z m -24.125,10.125 c 1.8844,-0.03384 5.4721,2.643277 6.8125,5.46875 0.968,2.04056 3.5926,6.395131 5.8125,9.65625 2.2201,3.26113 4.4349,7.39884 4.9375,9.21875 0.5024,1.8199 1.9114,3.83666 3.125,4.46875 5.8112,3.02718 45.4641,45.61583 57,61.21875 2.0928,2.83065 5.5307,6.95625 7.625,9.15625 3.3774,3.5479 15.2053,18.44415 19.125,24.09375 0.8025,1.15671 2.93125,4.04293 4.71875,6.40625 2.5263,3.34014 3.25,5.28913 3.25,8.71875 0,5.79354 2.417,12.97051 6.5625,19.5 4.2341,6.66912 5.60635,9.58624 8.71875,18.28125 3.9094,10.92173 5.029,15.20172 4.375,16.90625 -0.3324,0.86589 -1.01605,1.59375 -1.53125,1.59375 -1.4113,0 -16.125,-14.57134 -16.125,-15.96875 0,-0.66783 -2.1375,-3.31013 -4.75,-5.875 -2.6125,-2.56488 -6.3632,-6.45834 -8.3125,-8.65625 -1.9492,-2.1979 -5.11295,-5.17606 -7.03125,-6.625 -1.9182,-1.44894 -6.1548,-5.41688 -9.4375,-8.8125 -3.2825,-3.39563 -8.933,-8.42431 -12.5625,-11.15625 -5.2141,-3.92447 -6.8569,-5.81067 -7.8125,-9 -0.6651,-2.22019 -2.65105,-5.69044 -4.40625,-7.71875 -3.4575,-3.99554 -4.53475,-5.47787 -12.96875,-17.9375 -3.0742,-4.54175 -6.51945,-9.46103 -7.65625,-10.90625 -1.1368,-1.44522 -2.61125,-4.45572 -3.28125,-6.71875 -1.152,-3.89098 -3.55835,-7.53566 -11.21875,-17.03125 -4.1534,-5.14841 -10.5625,-14.37084 -10.5625,-15.1875 0,-0.33874 -1.125,-1.95965 -2.5,-3.59375 -1.419,-1.68634 -2.5,-4.24704 -2.5,-5.90625 0,-1.6078 0.15335,-2.90625 0.34375,-2.90625 1.8512,0 6.97615,3.74484 8.09375,5.90625 0.7777,1.50388 3.3454,4.04242 5.6875,5.65625 2.3421,1.61382 5.2867,3.98289 6.5625,5.25 2.2189,2.20378 4.3125,2.20793 4.3125,0.0312 0,-0.56397 -5.44975,-6.34676 -12.09375,-12.875 -11.0729,-10.87984 -12.0527,-12.16292 -11.75,-15.125 0.302,-2.95536 0.0447,-3.28178 -3.15625,-4.09375 -4.6221,-1.1725 -5.2918,-2.03199 -7.9375,-10.09375 -2.057,-6.267832 -2.24965,-11.962074 -0.46875,-14.84375 0.202,-0.326728 0.5652,-0.492192 1,-0.5 z m 7,37.0625 c 0.1196,-0.0053 0.26875,0.04002 0.40625,0.125 0.55,0.33992 1,1.04496 1,1.5625 0,0.51754 -0.45,0.9375 -1,0.9375 -0.55,0 -1,-0.70504 -1,-1.5625 0,-0.64311 0.23525,-1.046622 0.59375,-1.0625 z m 85.6875,3.90625 c 0.21699,-0.02296 0.44174,-0.0085 0.6875,0 0.9075,0.03128 2.00665,0.290224 3.28125,0.8125 3.168,1.29814 21.75,19.31542 21.75,21.09375 0,0.49717 3.0375,4.25725 6.75,8.34375 10.3747,11.41988 13.0904,14.68968 15.25,18.25 1.0955,1.80597 2.6782,3.52838 3.5,3.84375 0.8219,0.31537 1.5,1.20259 1.5,1.96875 0,2.05399 -1.1799,1.66814 -4.0625,-1.375 -1.4123,-1.49108 -6.7895,-6.54375 -11.9375,-11.21875 -5.1479,-4.675 -14.44525,-13.45 -20.65625,-19.5 -6.2109,-6.05 -12.8713,-12.41522 -14.8125,-14.125 -4.49006,-3.954577 -4.50479,-7.749336 -1.25,-8.09375 z M -475.9375,101.375 c -1.2927,0.0346 -3.0692,0.69636 -3.375,1.625 -0.2264,0.6875 0.0116,1.25 0.5625,1.25 1.8559,0 4.1875,-1.21768 4.1875,-2.1875 0,-0.52143 -0.5994,-0.70828 -1.375,-0.6875 z m -262.6875,0.78125 c 0.7248,0.0326 1.3901,1.66454 3.125,6.3125 4.3303,11.60151 16.00925,32.65453 23.84375,43.03125 2.2484,2.97823 4.09375,5.72881 4.09375,6.09375 0,0.75351 11.92065,18.34254 16.03125,23.65625 1.4891,1.925 3.64145,5.3 4.78125,7.5 1.1398,2.2 3.1041,5.16688 4.375,6.59375 9.3995,10.55288 11.9291,13.1022 12.5,12.53125 0.3584,-0.35834 -0.1205,-2.27475 -1.0625,-4.25 -0.9419,-1.97524 -1.9811,-5.5509 -2.3125,-7.96875 -1.082,-7.89418 3.20435,-5.19476 11.71875,7.4375 2.3577,3.49815 5.7279,7.77315 7.5,9.5 3.0523,2.9743 12.16405,14.85861 20.96875,27.34375 6.7169,9.52456 18.49085,21.655 22.71875,23.40625 1.8302,0.75804 2.78125,1.87019 2.78125,3.3125 0,1.20059 1.2649,4.21107 2.8125,6.65625 1.5477,2.44518 4.0521,6.9125 5.5625,9.9375 6.2086,12.43386 19.6781,33.05219 25.75,39.40625 6.8327,7.15032 7.72785,9.17853 5.21875,11.6875 -1.4212,1.42135 -3.65705,2.10902 -7.59375,2.34375 -5.7828,0.3448 -7.75,1.00914 -7.75,2.625 0,0.54157 3.739,0.83335 8.75,0.6875 5.5932,-0.1628 9.88665,0.24119 11.90625,1.09375 2.3435,0.98939 3.6855,1.05393 5.1875,0.25 1.1139,-0.59606 2.87075,-1.09375 3.90625,-1.09375 2.6339,0 12.62005,5.24775 17.59375,9.25 5.1139,4.11489 19.74375,13.96427 29.15625,19.625 11.56,6.95225 14.18425,9.27089 19.59375,17.34375 5.5592,8.29595 17.56605,21.38742 23.03125,25.09375 1.845,1.25122 5.91415,3.57865 9.03125,5.15625 3.117,1.57761 8.2682,5.07672 11.4375,7.78125 3.1694,2.70454 7.95685,5.97905 10.65625,7.28125 6.2859,3.03244 19.58975,5.76983 27.03125,5.5625 3.9283,-0.10945 6.74025,0.39375 8.71875,1.5625 2.633,1.55529 3.0715,1.57547 4.6875,0.1875 2.7557,-2.36691 14.92145,-6.84375 18.59375,-6.84375 5.3913,0 14.0698,2.68348 24.4375,7.5625 11.3423,5.33768 43.84325,21.12294 46.78125,22.71875 1.1,0.59747 5.15,2.80696 9,4.9375 3.85,2.13054 8.575,4.57167 10.5,5.40625 5.3258,2.30898 30.4538,15.08781 39.5,20.09375 1.1,0.60872 4.475,2.34618 7.5,3.84375 9.3724,4.63993 18.4311,9.55503 20,10.84375 0.825,0.67766 4.875,2.71626 9,4.5625 4.125,1.84623 8.85,4.36366 10.5,5.59375 1.65,1.23009 6.825,4.0968 11.5,6.34375 4.675,2.24696 9.625,4.72575 11,5.53125 1.375,0.80551 6.775,3.34133 12,5.625 5.225,2.28366 11.3,5.03178 13.5,6.125 2.2,1.09321 8.05,3.48133 13,5.28125 10.3747,3.77245 26.2558,11.06169 28.625,13.15625 2.7999,2.47535 13.078,8.39146 20.8125,11.96875 6.6664,3.08332 7.27165,3.60335 5.90625,4.96875 -1.1034,1.10354 -4.1188,1.61556 -10.9375,1.8125 -5.1794,0.14959 -13.23125,0.77253 -17.90625,1.40625 -4.675,0.63372 -15.025,1.37778 -23,1.65625 -7.975,0.27847 -17.2,1.02057 -20.5,1.65625 -3.3,0.63567 -8.7668,1.21715 -12.125,1.28125 l -6.09375,0.125 -6.71875,-6 c -10.9646,-9.79167 -17.54585,-14.59031 -25.53125,-18.625 -4.1481,-2.09591 -8.65625,-4.45175 -10.03125,-5.21875 -4.6815,-2.61146 -17.80495,-8.65625 -18.78125,-8.65625 -0.5351,0 -1.50875,-0.65732 -2.15625,-1.4375 -0.6475,-0.78018 -5.3177,-3.75174 -10.375,-6.625 -5.0574,-2.87326 -12.44365,-7.42219 -16.40625,-10.09375 -3.9628,-2.67156 -8.2546,-4.84375 -9.5625,-4.84375 -1.5716,0 -3.46895,-1.35607 -5.59375,-4 -1.7679,-2.2 -3.78595,-4 -4.46875,-4 -2.8023,0 -9.50255,-4.37634 -15.15625,-9.90625 -3.3081,-3.23556 -7.439,-6.59207 -9.1875,-7.46875 -1.7486,-0.87667 -3.45805,-2.40647 -3.78125,-3.375 -0.3232,-0.96853 -2.41305,-3.1 -4.65625,-4.75 -2.2433,-1.65 -4.6834,-4.17553 -5.4375,-5.625 -1.7083,-3.28375 -11.72785,-11.76337 -20.84375,-17.625 -10.5154,-6.76166 -20.73585,-10.55252 -29.09375,-10.8125 -3.85,-0.11976 -8.4625,-0.54156 -10.25,-0.9375 -2.0876,-0.46241 -3.25,-0.34239 -3.25,0.34375 0,0.5875 -1.6875,1.35424 -3.75,1.71875 -2.0625,0.36451 -6.32365,1.52709 -9.46875,2.5625 -8.6338,2.84232 -24.53585,2.64386 -30.59375,-0.375 -5.9743,-2.97712 -12.79725,-9.52618 -14.71875,-14.125 -1.2638,-3.02484 -4.4639,-5.625 -6.9375,-5.625 -1.1611,0 3.9847,10.88248 6,12.6875 1.3522,1.21112 2.46875,2.65805 2.46875,3.21875 0,0.5607 1.05015,3.40931 2.34375,6.3125 1.6649,3.73638 4.86405,7.69151 10.96875,13.53125 4.7434,4.5375 9.1122,8.25 9.6875,8.25 0.5753,0 3.51675,3.82718 6.53125,8.5 3.0695,4.75818 9.9069,13.00729 15.5625,18.75 5.5541,5.63968 13.2375,14.43116 17.0625,19.53125 7.3026,9.73731 10.86665,13.7531 14.53125,16.3125 1.215,0.84856 9.1814,8.18682 17.6875,16.3125 8.5061,8.12569 17.2526,16.0807 19.4375,17.6875 4.0522,2.97999 5.6306,5.37298 4.625,7 -0.3092,0.50037 -0.87,0.8559 -1.25,0.8125 -1.3332,-0.15218 -9.7554,-4.50571 -16.6875,-8.625 -3.85,-2.2878 -12.85,-6.71953 -20,-9.84375 -7.15,-3.12423 -15.77755,-6.97441 -19.15625,-8.5625 -3.3785,-1.58809 -6.65865,-2.875 -7.28125,-2.875 -0.6226,0 -4.1575,-1.53416 -7.875,-3.40625 -5.9841,-3.01354 -7.05155,-3.97499 -9.15625,-8.46875 -2.7339,-5.83688 -12.53115,-14.4914 -30.03125,-26.4375 -5.8098,-3.96597 -13.6114,-9.19875 -15.125,-10.15625 -0.8963,-0.56703 -4.0812,-2.88252 -7.0625,-5.15625 -2.9814,-2.27373 -7.44505,-5.06627 -9.90625,-6.1875 -2.4612,-1.12122 -6.7014,-3.56046 -9.4375,-5.4375 -2.7361,-1.87705 -6.09375,-3.7123 -7.46875,-4.0625 -1.375,-0.3502 -4.4654,-2.43858 -6.875,-4.65625 -4.1261,-3.79749 -4.36885,-4.274 -3.84375,-8.1875 0.6469,-4.82378 -2.1724,-13.53333 -5.3125,-16.375 -1.0907,-0.98716 -2.42065,-3.46421 -2.96875,-5.5 -1.2597,-4.67798 -7.4935,-11.80245 -13.9375,-15.9375 -2.7348,-1.75496 -5.2786,-4.09611 -5.625,-5.1875 -0.3464,-1.0914 -1.59145,-2.41501 -2.78125,-2.96875 -1.1898,-0.55373 -3.6651,-3.49028 -5.5,-6.5 -4.0038,-6.56751 -9.85215,-10.82721 -12.15625,-8.875 -0.825,0.69901 -2.4,1.53837 -3.5,1.875 -1.145,0.35038 -2.79615,2.50931 -3.84375,5.0625 l -1.8125,4.46875 2.96875,4.28125 c 1.644,2.36297 6.45235,8.3625 10.65625,13.3125 5.044,5.9391 8,10.4272 8.75,13.1875 0.6251,2.30061 1.85925,4.36898 2.71875,4.59375 1.7687,0.46252 10.4648,12.62889 9.625,13.46875 -0.2998,0.29982 -1.6504,-0.52005 -3,-1.84375 -5.4196,-5.3155 -6.3471,-5.90625 -9.3125,-5.90625 -3.2086,0 -11.923,-3.88643 -16.25,-7.25 -1.375,-1.06883 -5.2,-3.19176 -8.5,-4.71875 -3.3,-1.52699 -9.15,-5.30951 -13,-8.40625 -3.85,-3.09673 -8.7544,-6.86508 -10.875,-8.375 -2.1207,-1.50991 -5.75295,-4.4375 -8.09375,-6.5 -2.3408,-2.0625 -5.19915,-3.75 -6.34375,-3.75 -2.9747,0 -8.28595,-3.39351 -11.28125,-7.21875 -3.129,-3.9957 -6.72265,-10.83061 -10.96875,-20.75 -1.7568,-4.10401 -4.6828,-9.60832 -6.5,-12.25 -3.4667,-5.03968 -9.4375,-19.35644 -9.4375,-22.625 0,-1.05039 -0.69155,-2.49058 -1.53125,-3.1875 -0.8396,-0.69693 -2.9263,-3.32669 -4.625,-5.84375 -2.8708,-4.25385 -3.04925,-4.99006 -2.46875,-10.65625 0.569,-5.55399 0.4239,-6.30146 -1.75,-8.34375 -3.2293,-3.03376 -9.16815,-15.26974 -10.96875,-22.625 -2.1887,-8.94058 -12.9263,-31.35763 -20.5625,-42.875 -3.6975,-5.57693 -7.57155,-11.475 -8.59375,-13.125 -3.2209,-5.19939 -22.60435,-29.56968 -29.71875,-37.34375 -2.1767,-2.37838 -4.8462,-6.31444 -5.9375,-8.78125 -2.0928,-4.73106 -4.2564,-6.36866 -6.0625,-4.5625 -1.4992,1.49916 2.3834,13.56595 6.75,20.96875 1.852,3.14011 4.08855,7.29375 4.96875,9.21875 0.8801,1.925 2.86515,4.85 4.40625,6.5 1.5411,1.65 4.27735,5.7 6.09375,9 1.8163,3.3 3.97385,6.77564 4.78125,7.71875 1.7981,2.10054 3.87005,11.28089 3.40625,15.03125 -0.4658,3.76653 -4.0501,3.65316 -7.5,-0.21875 -1.4466,-1.62361 -4.3998,-3.41764 -6.5625,-4 -4.5446,-1.22373 -5.47125,-2.80654 -4.03125,-6.9375 1.0342,-2.96653 -0.0356,-6.7241 -2.375,-8.25 -1.2603,-0.8221 -5.95425,-8.80827 -9.28125,-15.84375 -5.6896,-12.03139 -6.4375,-13.74335 -6.4375,-14.3125 0,-0.32525 -1.99285,-4.79174 -4.40625,-9.90625 -4.6581,-9.87179 -5.13105,-11.63957 -6.53125,-24.4375 -0.4897,-4.47536 -1.36605,-9.03026 -1.96875,-10.15625 -1.9228,-3.59286 -0.8596,-28.61982 1.1875,-27.9375 0.5448,0.1816 1.7525,2.2958 2.6875,4.6875 0.9353,2.39171 2.85755,5.1816 4.28125,6.21875 1.4238,1.03715 2.9259,3.33381 3.3125,5.09375 0.3865,1.75995 2.0966,5.09922 3.8125,7.40625 1.716,2.30703 5.066,6.88533 7.4375,10.1875 2.3715,3.30218 4.96705,6.57424 5.78125,7.25 0.8144,0.67576 3.5983,4.37398 6.1875,8.25 2.5892,3.87602 7.53125,9.93829 10.96875,13.4375 3.4375,3.49922 6.25,6.76524 6.25,7.28125 0,1.08984 17.1319,17.9295 18.25,17.9375 1.3921,0.0102 0.69585,-3.47356 -1.59375,-8 -5.8487,-11.5623 -12.14035,-22.72848 -14.09375,-25 -1.1824,-1.375 -4.66735,-6.325 -7.71875,-11 -14.3759,-22.02596 -21.57865,-32.6847 -23.96875,-35.46875 -1.432,-1.66808 -3.7625,-4.83125 -5.1875,-7.03125 -1.425,-2.2 -5.31805,-7.93792 -8.65625,-12.75 -7.3046,-10.52929 -9.66485,-16.21979 -10.90625,-26.21875 -1.0214,-8.22728 -0.6772,-11.08129 1.6875,-13.8125 0.4475,-0.51687 0.7955,-0.82733 1.125,-0.8125 z m 266.03125,0.28125 c -0.8338,0.0452 -0.67395,0.51774 -0.0312,1.71875 1.3231,2.47216 4.14845,4.09375 7.15625,4.09375 1.2304,0 3.0081,0.69009 3.9375,1.53125 1.8626,1.68565 6.52545,2.23098 9.15625,1.0625 1.1379,-0.50538 2.26235,-0.0964 3.46875,1.3125 1.8692,2.18304 3.42055,2.30096 4.09375,0.28125 0.2177,-0.65313 -0.3166,-1.1875 -1.1875,-1.1875 -0.8708,0 -1.5625,-0.45 -1.5625,-1 0,-0.55 -0.71615,-1 -1.59375,-1 -0.8778,0 -2.7902,-0.61902 -4.25,-1.375 -3.3934,-1.7572 -11.55515,-4.27586 -16.46875,-5.09375 -1.3514,-0.22495 -2.21835,-0.37089 -2.71875,-0.34375 z m 216.71875,32.90625 c -0.3065,0.005 -0.5375,0.009 -0.6875,0.0312 -2.9297,0.4334 -3.2322,2.25739 -0.4375,2.65625 3.1228,0.44568 9.84905,2.51437 10.78125,3.3125 0.9727,0.83277 15.70175,1.01584 19.90625,0.25 3.3115,-0.60317 3.648,-3.12766 0.5,-3.75 -4.3621,-0.86234 -25.465,-2.58054 -30.0625,-2.5 z m -150.09375,3.34375 c 0.5003,0.0198 0.8441,0.63475 1.375,2.03125 0.563,1.48093 0.78015,3.12115 0.46875,3.625 -0.7679,1.24256 -1.8149,1.12264 -3.25,-0.3125 -1.6116,-1.61163 -1.51395,-3.29128 0.28125,-4.78125 0.4617,-0.3831 0.8249,-0.57439 1.125,-0.5625 z m 403.0625,44.65625 c 0.3553793,0.0204 0.6815945,0.15942 1,0.34375 -0.3817203,-0.18949 -0.7900644,-0.27787 -1.25,-0.28125 -0.1500028,-0.001 -0.3051045,0.0127 -0.46875,0.0312 0.2518826,-0.0427 0.5042011,-0.10609 0.71875,-0.0937 z m 1.53125,0.6875 c 0.09274,0.0697 0.1837227,0.10656 0.28125,0.1875 0.050083,0.0416 0.076335,0.0839 0.125,0.125 1.68201492,1.42229 2.5406825,2.60248 2.59375,3.9375 -0.2142203,-0.76889 -0.64242046,-1.61688 -1.3125,-2.46875 -0.468075,-0.59511 -0.87533477,-1.0935 -1.28125,-1.46875 -0.1353051,-0.12508 -0.2709375,-0.21201 -0.40625,-0.3125 z m -173.125,9.4375 c -1.2096,0.0494 -2.334,1.54023 -1.625,2.6875 0.3696,0.59792 1.3325,1.09375 2.125,1.09375 1.6836,0 1.92975,-2.58229 0.34375,-3.5625 -0.2648,-0.16363 -0.56465,-0.23015 -0.84375,-0.21875 z m -34.28125,12.84375 c 0.5069,0.006 1.2442,0.30966 2.1875,0.90625 0.8091,0.51167 1.2591,1.07758 1,1.28125 -0.8465,0.66549 -3.96875,-0.36245 -3.96875,-1.3125 0,-0.58569 0.27425,-0.88085 0.78125,-0.875 z m -58.78125,0.9375 c 0.55,0 1,0.45 1,1 0,0.55 -0.45,1 -1,1 -0.55,0 -1,-0.45 -1,-1 0,-0.55 0.45,-1 1,-1 z m -3.84375,12.03125 c 5.6422,-0.0343 8.8677,0.46202 10.875,1.5 1.6225,0.83912 2.96875,1.86925 2.96875,2.3125 0,0.80259 7.2421,5.72463 12,8.15625 1.375,0.70272 2.85115,1.89777 3.28125,2.625 0.4301,0.72723 2.2598,2.01952 4.0625,2.875 3.4781,1.65039 15.65625,12.78339 15.65625,14.3125 0,1.00287 -10.9864,1.05745 -18,0.0937 -8.444,-1.16018 -16.41785,-3.91425 -20.21875,-6.96875 -2.0879,-1.67793 -7.21345,-4.81771 -11.40625,-7 -4.1928,-2.1823 -8.97145,-5.10359 -10.59375,-6.46875 -1.6224,-1.36516 -3.51005,-2.46875 -4.21875,-2.46875 -2.1168,0 -6.5625,-4.02573 -6.5625,-5.9375 0,-1.52678 1.29455,-1.84821 9.15625,-2.40625 5.3757,-0.38158 9.6146,-0.60443 13,-0.625 z M -146.0625,228.75 c -1.3082,0.17819 -1.60505,1.47071 -0.46875,3.59375 0.9112,1.70225 0.93645,2.40659 0.0937,2.6875 -1.8695,0.62316 -1.3075,1.81182 1.4375,3.0625 2.1951,1.00017 2.4918,1.63252 1.9375,4.15625 -0.358,1.6292 -0.34715,3.45043 0.0312,4.0625 0.6342,1.02634 1.77015,-0.35077 4.09375,-4.96875 0.4182,-0.83128 -0.0338,-1.92085 -1.125,-2.71875 -1.5505,-1.13375 -1.6768,-1.73476 -0.6875,-3.90625 1.5422,-3.38469 1.6287,-3.1871 -1.9375,-5.03125 -1.4435,-0.74648 -2.5901,-1.04441 -3.375,-0.9375 z m -9.90625,17.875 c -0.3585,0.0159 -0.59375,0.4194 -0.59375,1.0625 0,0.85746 0.45,1.5625 1,1.5625 0.55,0 1,-0.41996 1,-0.9375 0,-0.51754 -0.45,-1.22258 -1,-1.5625 -0.1375,-0.085 -0.28665,-0.13029 -0.40625,-0.125 z M -192,248.25 c 0.8709,0 1.4052,0.53437 1.1875,1.1875 -0.618,1.85422 -2.75,2.17218 -2.75,0.40625 0,-0.87083 0.6917,-1.59375 1.5625,-1.59375 z m 53.3125,7.5625 c -1.39601,0.26663 -2.875,3.19245 -2.875,6 0,0.78919 0.45,1.4375 1,1.4375 0.55,0 1,-0.68899 1,-1.53125 0,-0.84227 0.675,-1.80842 1.5,-2.125 1.9483,-0.74764 1.92985,-2.96618 -0.0312,-3.71875 -0.0952,-0.0366 -0.2146,-0.0555 -0.3125,-0.0625 -0.0918,-0.007 -0.18818,-0.0178 -0.28125,0 z m -6.875,0.4375 c -0.55,0 -1,0.45 -1,1 0,0.55 0.45,1 1,1 0.55,0 1,-0.45 1,-1 0,-0.55 -0.45,-1 -1,-1 z m -28.9375,9 c -0.5175,0 -1.2226,0.45 -1.5625,1 -0.3399,0.55 0.08,1 0.9375,1 0.8574,0 1.5625,-0.45 1.5625,-1 0,-0.55 -0.4199,-1 -0.9375,-1 z m -562.09375,14 c 1.3161,0 2.9266,9.77829 2.5625,15.5 -0.4233,6.64924 1.24595,18.26855 3.15625,22 3.232,6.31309 5.32465,13.86387 4.71875,17.09375 -0.5338,2.84513 -0.2427,3.42858 2.3125,4.75 4.1139,2.12731 9.26455,7.65117 9.90625,10.625 0.2993,1.38644 1.368,4.78125 2.375,7.53125 1.0069,2.75 3.71335,10.175 6.03125,16.5 5.1794,14.1341 8.52455,20.88957 13.84375,27.96875 6.0155,8.00596 20.11605,20.31286 28.65625,25 4.0991,2.24981 7.46875,4.62863 7.46875,5.28125 0,0.65262 -1.19245,2.11412 -2.65625,3.28125 -3.09,2.46394 -2.6368,3.77323 2.1875,6.0625 1.9015,0.90239 3.46875,2.04392 3.46875,2.53125 0,0.48733 0.49385,0.875 1.09375,0.875 0.6001,0 2.82475,1.50853 4.96875,3.34375 2.1441,1.83522 5.48515,4.18417 7.40625,5.21875 4.6832,2.52208 6.03125,1.08385 6.03125,-6.375 0,-5.00557 0.23745,-5.6875 1.96875,-5.6875 3.3218,0 5.61345,7.53229 4.90625,16.15625 -0.3702,4.51419 -0.1447,8.51148 0.625,10.84375 1.0336,3.13172 0.97865,3.92745 -0.34375,5.25 -1.1821,1.18195 -1.9095,1.29059 -2.9375,0.4375 -0.7467,-0.61979 -3.11295,-1.70408 -5.28125,-2.4375 -3.5054,-1.1857 -4.464,-1.12199 -8.6875,0.59375 -2.6125,1.06129 -4.75,2.2509 -4.75,2.65625 0,0.95225 14.16695,6 16.84375,6 2.8251,0 6.112,4.63087 12.75,18.03125 3.1205,6.29954 6.6658,12.59375 7.875,13.96875 2.3895,2.71702 5.52125,10.3804 5.53125,13.53125 0.003,1.08161 0.62795,3.19549 1.40625,4.6875 0.7784,1.49201 1.9382,5.31701 2.5625,8.5 1.7071,8.70222 2.9811,11.45037 7.0625,15.3125 3.2738,3.09802 3.7863,4.26442 4.4375,9.875 0.6529,5.62518 0.5207,6.50782 -1.125,7.46875 -2.2322,1.30344 -14.91025,5.50304 -25.53125,8.46875 -11.1853,3.12326 -12.0125,3.01772 -20.9375,-2.96875 -13.5399,-9.08198 -18.6052,-12.05184 -33,-19.25 -8.4615,-4.23118 -16.725,-8.48412 -18.375,-9.46875 -9.0656,-5.40984 -25.6266,-13.15625 -28.125,-13.15625 -1.6951,0 -1.74925,2.92014 -0.0937,5.09375 0.6725,0.88295 3.78265,3.25184 6.90625,5.25 3.1236,1.99816 5.9638,4.092 6.3125,4.65625 0.3487,0.56425 2.3998,1.92794 4.5625,3.03125 4.2775,2.18225 5.1144,3.96875 1.875,3.96875 -2.6963,0 -16.28735,-4.31716 -27.09375,-8.59375 -4.7515,-1.8804 -9.1389,-3.40625 -9.75,-3.40625 -0.611,0 -1.14775,-0.3375 -1.21875,-0.75 -0.5537,-3.22044 -0.84655,-7.53856 -1.28125,-19.40625 -0.4315,-11.78674 -0.25115,-14.37167 1.40625,-18.90625 2.0127,-5.5065 5.44135,-9.9375 7.65625,-9.9375 2.26,0 2.5155,-4.30638 0.5,-8.4375 -1.3593,-2.78584 -1.65755,-4.42828 -0.96875,-5.53125 0.6078,-0.97338 0.65425,-2.85765 0.0937,-5.03125 -0.6752,-2.61878 -1.51215,-3.58425 -3.34375,-3.84375 -4.0973,-0.58049 -5.1754,-2.12623 -4.5625,-6.59375 0.3061,-2.23151 0.1173,-6.9875 -0.4375,-10.5625 -0.5548,-3.575 -1.22905,-8.96726 -1.46875,-11.96875 -0.2396,-3.00149 -0.64015,-6.02535 -0.90625,-6.71875 -0.2661,-0.6934 -0.021,-1.53362 0.53125,-1.875 0.5705,-0.35257 0.73425,-2.41754 0.40625,-4.78125 -0.6979,-5.03054 0.58795,-10.03898 2.65625,-10.4375 1.8604,-0.35847 6.84375,6.57617 6.84375,9.53125 0,2.02537 2.485,6.56136 6.75,12.25 1.0308,1.375 4.7765,7.21532 8.3125,12.96875 6.1829,10.0604 18.74775,23.9689 21.65625,24 0.6693,0.007 3.4758,2.03608 6.25,4.5 2.7743,2.46391 6.38715,5.18104 8.03125,6.03125 1.6441,0.85021 3,1.9328 3,2.40625 0,0.47345 1.2375,1.10047 2.75,1.375 2.8892,0.52442 8.5855,2.4094 11.375,3.78125 1.1173,0.5495 2.21225,0.1943 3.40625,-1.125 0.9673,-1.06896 2.5441,-1.9375 3.5,-1.9375 1.609,0 2.96875,-1.85666 2.96875,-4.09375 0,-0.51731 -1.856,-2.97595 -4.125,-5.4375 -3.493,-3.7893 -4.03955,-4.92696 -3.53125,-7.46875 0.3303,-1.65115 0.17335,-3 -0.34375,-3 -0.5171,0 -2.41225,-1.2904 -4.21875,-2.875 -1.8067,-1.58459 -7.76235,-5.0248 -13.21875,-7.625 -10.155,-4.83925 -17.339,-10.80785 -20.5625,-17.0625 -0.825,-1.60076 -2.9625,-5.1592 -4.75,-7.90625 -1.7875,-2.74704 -3.25,-5.51505 -3.25,-6.15625 0,-4.5217 10.43555,0.18366 13.71875,6.1875 1.6819,3.07539 3.6304,4.76608 7.9375,6.875 5.5673,2.72605 8.1292,2.70628 9.0625,-0.0937 0.5336,-1.60052 -12.28185,-18.07209 -15.21875,-19.5625 -3.0809,-1.56351 -13.4992,-13.0662 -13.5,-14.90625 -3e-4,-0.89541 -0.92695,-2.24541 -2.03125,-3 -1.1042,-0.75458 -2.9212,-4.075 -4.0625,-7.375 -1.1414,-3.3 -2.85465,-6.9 -3.78125,-8 -2.8613,-3.39654 -6.125,-8.37701 -6.125,-9.3125 0,-0.48975 -1.2692,-2.63623 -2.8125,-4.78125 -3.4668,-4.81846 -5.6348,-10.21154 -7.6875,-19.0625 -0.8694,-3.74909 -2.27245,-8.79944 -3.09375,-11.21875 -1.1767,-3.4655 -1.2555,-5.11316 -0.375,-7.78125 1.0366,-3.14096 0.91355,-3.58058 -1.84375,-6.15625 -2.887,-2.69688 -3.0042,-3.14241 -3.625,-14.75 -0.3515,-6.57403 -0.8871,-15.3125 -1.1875,-19.4375 -0.9054,-12.43498 -0.24495,-21 1.59375,-21 z m 283.375,34.53125 c 0.0803,-0.0245 0.16888,-0.009 0.28125,0 0.4495,0.0374 1.1872,0.35559 2.3125,0.9375 1.6151,0.83521 3.22875,2.00325 3.59375,2.59375 1.019,1.64895 0.23805,1.63871 -3.28125,-0.0312 -1.7756,-0.84257 -3.238,-2.11088 -3.25,-2.8125 -0.006,-0.36662 0.10288,-0.61398 0.34375,-0.6875 z M -610.5625,337.25 c -1.65,0 -3,0.45 -3,1 0,0.55 1.35,1 3,1 1.65,0 3,-0.45 3,-1 0,-0.55 -1.35,-1 -3,-1 z m 55.21875,16.84375 c -0.31416,0.0458 -0.60047,0.19422 -0.8125,0.40625 -0.338,0.33807 -0.2757,2.11068 0.125,3.9375 0.4871,2.22077 3.2109,5.88313 8.25,11.0625 4.145,4.26062 7.7497,7.53155 8,7.28125 0.6636,-0.66364 -2.71375,-8.76314 -4.46875,-10.71875 -0.8244,-0.9186 -2.51305,-3.6186 -3.78125,-6 -1.7419,-3.27065 -5.0278,-5.90253 -7,-5.96875 -0.1138,-0.004 -0.20778,-0.0153 -0.3125,0 z m 501.46875,49.625 c -3.4593,0.11855 -6.6875,0.96114 -6.6875,2 0,0.28861 3.375,0.53125 7.5,0.53125 8.465,0 9.98595,-1.42566 2.59375,-2.40625 -1.092,-0.14487 -2.25315,-0.16452 -3.40625,-0.125 z M -551.75,406.25 c -0.8476,0.0826 -0.6552,0.5163 0.6875,2 2.0402,2.25437 2.85115,2.08742 1.90625,-0.375 -0.3468,-0.90372 -1.336,-1.625 -2.1875,-1.625 -0.1635,0 -0.28515,-0.0118 -0.40625,0 z m 440.625,1.59375 c 1.5715,-0.0566 2.6878,1.35636 3.5625,4.40625 0.7125,2.48431 0.62855,3.60968 -0.28125,4.1875 -1.7523,1.11298 -5.48565,0.99863 -6.21875,-0.1875 -0.3399,-0.55 -1.33605,-1 -2.21875,-1 -2.7282,0 -9.28125,-3.30761 -9.28125,-4.6875 0,-1.48953 0.84155,-1.67803 6.65625,-1.375 2.2888,0.11928 5.0218,-0.22421 6.0625,-0.78125 0.6347,-0.33964 1.19495,-0.54364 1.71875,-0.5625 z m -623.8125,72.75 c 0.76155,0.0704 1.375,1.00606 1.375,2.3125 0,0.73333 -0.41515,1.34375 -0.90625,1.34375 -1.2267,0 -2.1965,-2.81399 -1.1875,-3.4375 0.1313,-0.0812 0.2458,-0.1574 0.375,-0.1875 0.113,-0.0263 0.23496,-0.0413 0.34375,-0.0312 z m 869.4375,2.625 c 0.36916,-0.007 0.66364,0.0319 0.90625,0.125 -0.28927,-0.0411 -0.64417,-0.0445 -1.09375,-0.0312 -0.44817,0.0132 -0.89276,0.0457 -1.3125,0.0937 0.58796,-0.11933 1.08592,-0.17978 1.5,-0.1875 z M -495.1875,491.25 c 0.7772,0 8.56545,4.27141 13.34375,7.3125 2.3266,1.48068 4.6005,2.6875 5.0625,2.6875 0.4619,0 2.61975,1.49294 4.78125,3.3125 2.1615,1.81957 5.65445,4.36623 7.78125,5.65625 2.1268,1.29002 5.8541,4.0201 8.25,6.09375 2.3959,2.07366 5.2602,4.08368 6.375,4.4375 1.1149,0.35382 2.03125,1.42206 2.03125,2.375 0,0.95293 0.5275,2.24625 1.1875,2.90625 0.9333,0.93333 0.8778,1.20555 -0.25,1.15625 -2.5625,-0.11202 -5.662,-1.71764 -6.25,-3.25 -0.3144,-0.81916 -2.0504,-1.82477 -3.875,-2.21875 -4.4377,-0.95819 -9.696,-3.69115 -19.3125,-10.03125 -8.5385,-5.6294 -10.17315,-7.03482 -15.21875,-12.9375 -3.0016,-3.51122 -5.08725,-7.5 -3.90625,-7.5 z m -166.1875,8.15625 c -1.8528,0.16079 -3.0711,1.97995 -3.6875,5.4375 -0.5759,3.22946 1.8011,6.85577 5.0625,7.6875 8.7368,2.2281 11.2509,-4.2613 4.0625,-10.5 -2.163,-1.87726 -3.9964,-2.75006 -5.4375,-2.625 z m 795.09375,0.71875 c -0.44732,2.44072 -0.94032,5.35846 -1.4375,8.59375 0.49262,-3.17843 0.98471,-6.14646 1.4375,-8.59375 z m -814.28125,7.4375 c -0.5143,0.12627 -0.4986,1.05319 -0.0625,3.4375 0.3909,2.1377 1.0681,4.45742 1.5,5.15625 0.5998,0.97064 -0.2412,1.20308 -3.5625,0.9375 -5.405,-0.4322 -6.16,1.47061 -2.375,5.96875 2.9755,3.53621 15.5961,10.88159 23,13.375 6.401,2.15574 6.5,2.13978 6.5,0 0,-0.99 0.5625,-2.34156 1.25,-3.03125 1.0005,-1.00371 0.8149,-1.61125 -0.9375,-2.96875 -1.2041,-0.93281 -2.48575,-2.9023 -2.84375,-4.375 -0.7743,-3.1852 -2.86145,-4.2123 -5.59375,-2.75 -2.3011,1.23153 -7.17,0.39502 -11.125,-1.90625 -3.5536,-2.0677 -3.4798,-3.7275 0.25,-5.65625 1.65,-0.85325 3,-1.99537 3,-2.53125 0,-1.47707 -3.8286,-4.96875 -5.4375,-4.96875 -0.78,0 -2.0728,-0.25469 -2.875,-0.5625 -0.2982,-0.11444 -0.5161,-0.16709 -0.6875,-0.125 z m -13.96875,3.8125 c -0.63925,0.0979 -1.03125,0.60678 -1.03125,1.375 0,1.02996 0.6554,1.5233 1.75,1.3125 2.2069,-0.425 2.13615,-2.19556 -0.0937,-2.625 -0.1279,-0.0246 -0.22795,-0.0597 -0.34375,-0.0625 -0.10136,-0.002 -0.18993,-0.014 -0.28125,0 z M -444.125,527.25 c 0.2425,0 0.7226,0.45 1.0625,1 0.3399,0.55 0.145,1 -0.4375,1 -0.5824,0 -1.0625,-0.45 -1.0625,-1 0,-0.55 0.1949,-1 0.4375,-1 z m 555.09375,1 c 0.80565,0 1.46875,0.9 1.46875,2 0,1.47407 -0.66274,2 -2.53125,2 -2.22531,0 -2.40829,-0.24446 -1.46875,-2 0.5887,-1.1 1.7256,-2 2.53125,-2 z m 2.09375,22.84375 c 0.71889,-0.0119 1.41135,-0.006 2.09375,0 3.27553,0.0267 6.03564,0.26442 7.46875,0.71875 0.93436,0.29622 1.98599,1.46651 2.34375,2.59375 0.30958,0.9754 0.59898,1.4737 0.875,1.46875 -0.37506,0.46887 -0.82705,0.76085 -1.4375,1.0625 -1.59684,0.78908 -2.62088,1.68161 -5.03125,5.03125 0.0347,-0.89011 -0.42414,-1.71875 -1.34375,-1.71875 -0.76915,0 -3.95705,1.35 -7.09375,3 -3.6359,1.91259 -7.23023,3.01865 -9.875,3.03125 -2.28165,0.0109 -7.275,0.46472 -11.125,1.03125 -5.1349,0.7556 -10.33053,0.67227 -19.5,-0.28125 -15.64243,-1.62664 -23.25234,-1.37124 -35.6875,1.125 -23.86733,4.79113 -40.8125,5.45224 -40.8125,1.59375 0,-1.71612 0.9226,-2.12236 6.5,-2.78125 3.575,-0.42233 9.65,-1.22366 13.5,-1.78125 3.85,-0.55759 9.7,-1.21509 13,-1.46875 14.86401,-1.14256 18.45119,-1.58167 25,-3.03125 6.88976,-1.52504 10.86987,-2.1988 29.5,-5.0625 5.225,-0.80315 12.875,-2.19363 17,-3.09375 3.84096,-0.83815 9.5928,-1.35393 14.625,-1.4375 z m -845.09375,6 c 1.35201,0.055 3.85834,2.31535 8.40625,6.90625 4.4377,4.47959 8.0625,8.59615 8.0625,9.15625 0,0.56009 -0.8736,1.49315 -1.9375,2.0625 -2.4068,1.28846 -2.80235,1.28038 -3.59375,0 -0.3488,-0.56459 -1.17435,-0.90209 -1.84375,-0.75 -0.6693,0.15209 -3.3483,-1.82312 -5.9375,-4.375 -3.77,-3.71562 -4.6995,-5.30908 -4.6875,-8 0.0141,-3.08769 0.28325,-4.77245 1.28125,-4.96875 0.0802,-0.0158 0.15987,-0.0349 0.25,-0.0312 z m 849.4375,7.71875 c -0.775,1.13322 -1.49853,2.17408 -2.53125,3.71875 -0.74313,1.11151 -1.41969,1.9848 -2.03125,2.65625 0.60971,-0.70462 1.25979,-1.63994 2,-2.8125 0.88212,-1.39736 1.83116,-2.68151 2.5625,-3.5625 z m -827.03125,18.5 c 1.5897,-0.0525 3.48605,0.47942 5.09375,1.78125 1.286,1.04134 1.9693,2.34169 1.5625,3 -1.1255,1.8212 -7.0933,1.38165 -8.9375,-0.65625 -2.1237,-2.34659 -0.36825,-4.03749 2.28125,-4.125 z m 638.5625,1.875 c 3.611555,-0.0887 6.923012,0.51836 11.5,1.59375 1.387757,0.32606 2.567707,0.58148 3.6875,0.78125 -0.312879,-0.0464 -0.617175,-0.10132 -0.9375,-0.15625 -3.7391,-0.64114 -10.518,-1.15625 -15.0625,-1.15625 -7.4199,0 -10.03175,0.5868 -25.71875,5.84375 -6.23889,2.09076 -12.33768,4.38517 -18.3125,6.90625 -1.96888,0.83077 -3.93205,1.68533 -5.875,2.5625 1.94901,-0.88616 3.91763,-1.72907 5.875,-2.5625 5.62556,-2.39531 11.26646,-4.58227 16.84375,-6.46875 15.107187,-5.10992 21.980742,-7.19585 28,-7.34375 z m 36.40625,1.46875 c -2.09881,0.28717 -4.078249,0.56742 -5.875,0.78125 -3.593446,0.42767 -6.378935,0.63337 -8.9375,0.625 2.085618,-0.0421 4.527853,-0.24429 7.90625,-0.59375 2.042,-0.21123 4.36515,-0.48042 6.90625,-0.8125 z M -733.6875,588.375 c 1.7984,-0.0153 4.1825,0.35769 7.0625,1.21875 5.694,1.70238 6.1253,3.19242 1.5,5.125 -5.1576,2.15496 -7.74105,1.93084 -10.40625,-0.90625 -3.177,-3.38171 -2.11265,-5.4038 1.84375,-5.4375 z m 568.53125,9.875 c 0.57304,-0.0139 1.17906,-0.002 1.84375,0 7.3215,0.0181 24.81335,2.29113 26.71875,3.46875 2.1727,1.34273 0.87895,3.46962 -2.71875,4.46875 -5.8373,1.62109 -13.13815,1.11497 -20.34375,-1.40625 -12.38288,-4.3327 -14.09563,-6.3233 -5.5,-6.53125 z"
             style="fill:#a4061a"
             inkscape:connector-curvature="0" />
        </g>
        <path
           style="fill:#4e4964"
           d="m -1796.375,-86.5625 0.2188,59.46875 c 0.1193,32.701571 0.3713,59.69011 0.5624,60 0.7659,1.23855 2.065,327.56253 1.6563,416.53125 -0.091,19.8 0.078,49.5 0.375,66 0.2974,16.5 1.206,104.25 2,195 0.7939,90.75 1.6806,178.5 1.9687,195 0.7725,44.19252 0.731,139.7293 -0.062,149.25 l -0.6876,8.25 5.0938,0 5.0938,0 -0.4376,-26.25 c -0.231,-14.4375 -0.6656,-59.09998 -0.9687,-99.25 -0.303,-40.15 -0.7857,-81.1 -1.0625,-91 -0.2768,-9.9 -0.6733,-51.3 -0.9062,-92 -0.4075,-71.00287 -0.9031,-110.08163 -2.25,-184 -0.3413,-18.7 -0.6943,-58.3 -0.8126,-88 -0.1174,-29.7 -0.5046,-60.075 -0.8437,-67.5 -0.5796,-12.6912 0.071,-17.64744 2.0625,-15.65625 0.9937,0.99369 1.2577,6.59836 1.7188,37.65625 0.1994,13.475 0.6728,45.56697 1.0624,71.3125 l 0.7188,46.8125 2.2812,0.84375 c 1.2548,0.47687 2.5356,1.98931 2.875,3.34375 0.635,2.52985 3.0894,4.15157 4.75,3.125 0.5152,-0.31817 0.8479,-2.17599 0.7188,-4.09375 -0.2975,-4.41698 1.0484,-5.41161 7.6875,-5.75 1.6962,-0.0865 2.0222,-0.9162 2.2813,-5.4375 0.3942,-6.89603 -0.8991,-8.6649 -4.8438,-6.625 -3.4039,1.76018 -5.5891,1.86861 -6.5312,0.34375 -0.3812,-0.61624 -0.805,-38.75374 -0.9688,-84.75 -0.1638,-45.99625 -0.7723,-115.35 -1.3438,-154.125 -0.5707,-38.775 -1.331,-96.825 -1.6874,-129 -0.3569,-32.175 -0.7733,-58.7457 -0.9376,-59.03125 -0.3073,-0.53651 -1.8742,-127.102058 -1.7812,-143.96875 0.029,-5.225 0.1347,-18.115656 0.25,-28.65625 0.1337,-12.221345 -0.1857,-19.899638 -0.875,-21.1875 -0.5944,-1.110748 -1.0625,-2.957592 -1.0625,-4.09375 0,-1.136157 -0.4418,-2.0625 -0.9687,-2.0625 -0.566,0 -1.1172,7.898694 -1.3438,19.25 -0.2114,10.5875 -0.9244,31.4 -1.5938,46.25 -1.081,24.00327 -1.0086,218.97509 0.1563,378.65625 0.205,28.09631 -0.1024,34.33511 -1.6875,32.75 -0.6927,-0.69274 -1.5504,-72.71852 -2.0625,-173.90625 -0.4864,-96.10302 -1.2795,-183.61856 -2.375,-260 l -0.625,-43.5 -2.4063,0 -2.4062,0 z m 14.75,144.9375 c 0.066,0.0087 0.1404,0.119141 0.2188,0.3125 0.2769,0.6875 0.2769,1.8125 0,2.5 -0.2778,0.6875 -0.5,0.125 -0.5,-1.25 0,-0.859375 0.084,-1.413452 0.2187,-1.53125 0.02,-0.01767 0.041,-0.03416 0.062,-0.03125 z m 0.125,6.96875 c 0.3242,-0.08191 0.4871,0.714444 0.7812,2.625 0.4964,3.21808 0.9964,28.710618 2.2188,115.46875 0.2635,18.7 0.6671,39.175 0.9062,45.5 0.2397,6.325 0.7547,76.1875 1.125,155.25 0.3713,79.0625 0.4294,143.75 0.1563,143.75 -1.1814,0 -1.6064,-10.66083 -1.7187,-43.5 -0.1435,-41.78807 -0.8384,-65.90877 -2.0313,-70 -0.4811,-1.65 -1.1294,-40.125 -1.4375,-85.5 -0.3081,-45.375 -0.8587,-122.59803 -1.2188,-171.59375 -0.4538,-61.857892 -0.3272,-89.65803 0.4063,-90.96875 0.3489,-0.623449 0.618,-0.982101 0.8125,-1.03125 z"
           id="path4088"
           inkscape:connector-curvature="0" />
      </g>
    </g>
    <g
       id="g3026"
       transform="matrix(0.61141442,0,0,0.61141442,9.350616,29.078212)">
      <path
         transform="matrix(-0.1891764,-0.20793746,0.20793746,-0.1891764,34.975613,192.17305)"
         d="m 605.71428,535.2193 c 0,124.65855 -101.05573,225.71428 -225.71428,225.71428 -124.65855,0 -225.71428,-101.05573 -225.71428,-225.71428 0,-124.65855 101.05573,-225.71428 225.71428,-225.71428 124.65855,0 225.71428,101.05573 225.71428,225.71428 z"
         sodipodi:ry="225.71428"
         sodipodi:rx="225.71428"
         sodipodi:cy="535.2193"
         sodipodi:cx="380"
         id="path3455-6"
         style="fill:url(#linearGradient3030);fill-opacity:1;stroke:none"
         sodipodi:type="arc" />
      <path
         transform="matrix(0.24014714,0,0,0.24014714,27.396331,-143.71285)"
         d="m 237.14286,545.93359 c 0,74.55844 -60.44156,135 -135,135 -74.558441,0 -135,-60.44156 -135,-135 0,-74.55844 60.441559,-135 135,-135 74.55844,0 135,60.44156 135,135 z"
         sodipodi:ry="135"
         sodipodi:rx="135"
         sodipodi:cy="545.93359"
         sodipodi:cx="102.14286"
         id="path3457-4"
         style="opacity:0.87614698;fill:url(#radialGradient3032);fill-opacity:1;stroke:none"
         sodipodi:type="arc" />
    </g>
  </g>
</svg>
