<?xml version="1.0" encoding="UTF-8" standalone="no"?>
<!--
  - Copyright (c) 2022. Bernard Bou
  -->

<!-- Created with Inkscape (http://www.inkscape.org/) -->

<svg
   version="1.0"
   width="128"
   height="128"
   id="svg2"
   inkscape:version="1.2.2 (b0a8486541, 2022-12-01)"
   sodipodi:docname="menu.svg"
   inkscape:export-filename="/home/bbou/Desktop/stale.png"
   inkscape:export-xdpi="11.25"
   inkscape:export-ydpi="11.25"
   xmlns:inkscape="http://www.inkscape.org/namespaces/inkscape"
   xmlns:sodipodi="http://sodipodi.sourceforge.net/DTD/sodipodi-0.dtd"
   xmlns="http://www.w3.org/2000/svg"
   xmlns:svg="http://www.w3.org/2000/svg"
   xmlns:rdf="http://www.w3.org/1999/02/22-rdf-syntax-ns#"
   xmlns:cc="http://creativecommons.org/ns#"
   xmlns:dc="http://purl.org/dc/elements/1.1/">
  <metadata
     id="metadata23">
    <rdf:RDF>
      <cc:Work
         rdf:about="">
        <dc:format>image/svg+xml</dc:format>
        <dc:type
           rdf:resource="http://purl.org/dc/dcmitype/StillImage" />
      </cc:Work>
    </rdf:RDF>
  </metadata>
  <sodipodi:namedview
     pagecolor="#ffffff"
     bordercolor="#666666"
     borderopacity="1"
     objecttolerance="10"
     gridtolerance="10"
     guidetolerance="10"
     inkscape:pageopacity="0"
     inkscape:pageshadow="2"
     inkscape:window-width="1256"
     inkscape:window-height="480"
     id="namedview21"
     showgrid="false"
     inkscape:zoom="0.76367188"
     inkscape:cx="-147.96931"
     inkscape:cy="-40.59335"
     inkscape:window-x="26"
     inkscape:window-y="23"
     inkscape:window-maximized="0"
     inkscape:current-layer="svg2"
     inkscape:showpageshadow="0"
     inkscape:pagecheckerboard="1"
     inkscape:deskcolor="#d1d1d1" />
  <defs
     id="defs5" />
  <g
     transform="matrix(2.3385323,0,0,2.5565882,-706.40973,-1057.1435)"
     id="List"
     style="fill:#666666">
    <g
       id="g954"
       style="fill:#666666">
      <path
         style="fill:#666666"
         inkscape:connector-curvature="0"
         d="m 352.572,429.142 c 0,0.494 -0.406,0.9 -0.9,0.9 h -43.201 c -0.494,0 -0.9,-0.406 -0.9,-0.9 v -8.099 c 0,-0.496 0.406,-0.9 0.9,-0.9 h 43.201 c 0.494,0 0.9,0.404 0.9,0.9 v 8.099 z"
         id="path956" />
      <path
         style="fill:#666666"
         inkscape:connector-curvature="0"
         d="m 352.572,443.542 c 0,0.494 -0.406,0.9 -0.9,0.9 h -43.201 c -0.494,0 -0.9,-0.406 -0.9,-0.9 v -8.1 c 0,-0.496 0.406,-0.9 0.9,-0.9 h 43.201 c 0.494,0 0.9,0.404 0.9,0.9 v 8.1 z"
         id="path958" />
      <path
         style="fill:#666666"
         inkscape:connector-curvature="0"
         d="m 352.572,457.942 c 0,0.494 -0.406,0.898 -0.9,0.898 h -43.201 c -0.494,0 -0.9,-0.404 -0.9,-0.898 v -8.102 c 0,-0.494 0.406,-0.898 0.9,-0.898 h 43.201 c 0.494,0 0.9,0.404 0.9,0.898 v 8.102 z"
         id="path960" />
    </g>
  </g>
</svg>
