<svg xmlns="http://www.w3.org/2000/svg" width="128" height="128" version="1.0"><path d="M352.572 429.142c0 .494-.406.9-.9.9h-43.201a.904.904 0 0 1-.9-.9v-8.099c0-.496.406-.9.9-.9h43.201c.494 0 .9.404.9.9v8.099zm0 14.4c0 .494-.406.9-.9.9h-43.201a.904.904 0 0 1-.9-.9v-8.1c0-.496.406-.9.9-.9h43.201c.494 0 .9.404.9.9v8.1zm0 14.4a.902.902 0 0 1-.9.898h-43.201a.902.902 0 0 1-.9-.898v-8.102c0-.494.406-.898.9-.898h43.201c.494 0 .9.404.9.898v8.102z" style="fill:#666" transform="matrix(2.33853 0 0 2.55659 -706.41 -1057.143)"/></svg>