<svg xmlns="http://www.w3.org/2000/svg" xmlns:xlink="http://www.w3.org/1999/xlink" width="128" height="128"><g><defs><linearGradient id="b"><stop offset="0" style="stop-color:silver;stop-opacity:1"/><stop offset="1" style="stop-color:silver;stop-opacity:0"/></linearGradient><linearGradient id="a"><stop offset="0" style="stop-color:#a9a9a9;stop-opacity:1"/><stop offset="1" style="stop-color:#a9a9a9;stop-opacity:0"/></linearGradient><linearGradient xlink:href="#a" id="c" x1="250.365" x2="289.504" y1="180.014" y2="301.007" gradientUnits="userSpaceOnUse"/><linearGradient xlink:href="#b" id="d" x1="-10.831" x2="121.159" y1="499.844" y2="499.844" gradientUnits="userSpaceOnUse"/></defs><g transform="matrix(2.66661 0 0 2.6877 -.237 -.614)"><ellipse cx="8.154" cy="7.959" rx="7.073" ry="7.14" style="fill:#0038d4;fill-opacity:1;fill-rule:evenodd;stroke:none" transform="matrix(3.26975 .9073 -.89083 3.2104 4.556 -8.866)"/><g style="fill:#fff5ee;stroke:none"><path d="M422.857 623.79c-54.72 69.401-157.207-63.642-242.269-39.66C95.527 608.113 77.63 775.098-5.282 744.503c-82.913-30.596 11.948-169.18-37.147-242.667-49.094-73.487-213.437-38.907-209.96-127.216 3.476-88.31 164.592-40.916 219.311-110.316C21.642 194.904-62.03 49.29 23.03 25.308 108.092 1.325 112.805 169.2 195.718 199.796c82.913 30.595 195.543-93.98 244.637-20.492C489.45 252.79 331.248 309.15 327.771 397.459c-3.476 88.31 149.806 156.931 95.086 226.332z" style="fill:#fff5ee;fill-opacity:.969163;fill-rule:evenodd;stroke:none" transform="rotate(15.519 6.815 88.828)scale(.05568)"/><path d="M231.143 320.22S194 28.79 342.57 285.933z" style="opacity:.752101;fill:url(#c);fill-opacity:1;stroke:none" transform="rotate(15.508 36.688 47.164)scale(.05567)"/><path d="M114.248 558.033s-285.98-67.276 6.911-116.379z" style="opacity:.752101;fill:url(#d);fill-opacity:1;stroke:none" transform="rotate(15.508 36.688 47.164)scale(.05567)"/></g></g></g><text xml:space="preserve" x="42.324" y="84.032" style="font-style:normal;font-weight:400;font-size:26.5615px;line-height:0%;font-family:sans-serif;letter-spacing:0;word-spacing:0;fill:#000;fill-opacity:1;stroke:none;stroke-width:2.21346" transform="scale(1.00038 .99962)">
        <tspan x="42.324" y="84.032" style="font-size:73.1708px;line-height:1.25;font-family:sans-serif;fill:#013397;stroke-width:2.21346">v</tspan>
      </text></svg>