<?xml version="1.0" encoding="UTF-8" standalone="no"?>
<!-- Created with Inkscape (http://www.inkscape.org/) -->

<svg
   width="128"
   height="128"
   id="svg2"
   version="1.1"
   inkscape:version="1.2.2 (b0a8486541, 2022-12-01)"
   sodipodi:docname="property.svg"
   xml:space="preserve"
   xmlns:inkscape="http://www.inkscape.org/namespaces/inkscape"
   xmlns:sodipodi="http://sodipodi.sourceforge.net/DTD/sodipodi-0.dtd"
   xmlns="http://www.w3.org/2000/svg"
   xmlns:svg="http://www.w3.org/2000/svg"
   xmlns:rdf="http://www.w3.org/1999/02/22-rdf-syntax-ns#"
   xmlns:cc="http://creativecommons.org/ns#"
   xmlns:dc="http://purl.org/dc/elements/1.1/"><defs
     id="defs4" /><sodipodi:namedview
     id="base"
     pagecolor="#ffffff"
     bordercolor="#666666"
     borderopacity="1.0"
     inkscape:pageopacity="0.0"
     inkscape:pageshadow="2"
     inkscape:zoom="3.959798"
     inkscape:cx="50.255089"
     inkscape:cy="68.185296"
     inkscape:document-units="px"
     inkscape:current-layer="layer1"
     showgrid="false"
     inkscape:window-width="1354"
     inkscape:window-height="816"
     inkscape:window-x="26"
     inkscape:window-y="23"
     inkscape:window-maximized="0"
     inkscape:showpageshadow="2"
     inkscape:pagecheckerboard="0"
     inkscape:deskcolor="#d1d1d1" /><metadata
     id="metadata7"><rdf:RDF><cc:Work
         rdf:about=""><dc:format>image/svg+xml</dc:format><dc:type
           rdf:resource="http://purl.org/dc/dcmitype/StillImage" /></cc:Work></rdf:RDF></metadata><g
     inkscape:label="Layer 1"
     inkscape:groupmode="layer"
     id="layer1"
     transform="translate(0,-956.36217)"><path
       inkscape:connector-curvature="0"
       d="m 126.19041,1020.3019 a 61.936159,62.241953 0 0 1 -123.8723155,0 61.936159,62.241953 0 1 1 123.8723155,0 z"
       style="fill:#34d0fc;fill-opacity:1;fill-rule:nonzero;stroke:#0044d8;stroke-width:2.67872;stroke-linecap:butt;stroke-linejoin:round;stroke-miterlimit:4;stroke-dasharray:none;stroke-dashoffset:0;stroke-opacity:1"
       id="path1873" /><g
       id="g254"
       transform="translate(3.4771576,960.24762)"><g
         id="g326"
         transform="matrix(0.83696314,0,0,0.83696314,172.01001,-26.192702)"
         style="fill:none;stroke:#000000;stroke-width:4.77918;stroke-dasharray:none;stroke-opacity:1"><path
           d="m -84.49341,115.97827 -51.8,-52.2 c -1.5,-1.6 -3.6,-2.4 -5.7,-2.4 h -28.9 c -4.4,0 -8,3.6 -8,8 v 28.7 c 0,2.1 0.8,4.1 2.3,5.6 l 52,52 c 1.6,1.6 3.6,2.3 5.7,2.3 2,0 4.1,-0.8 5.6,-2.3 l 28.7,-28.5 c 3.2,-3 3.2,-8.1 0.1,-11.2 z m -2.9,8.4 -28.7,28.5 c -0.8,0.8 -1.8,1.2 -2.8,1.2 -1.1,0 -2.1,-0.4 -2.8,-1.2 l -52,-52 c -0.8,-0.7 -1.2,-1.7 -1.2,-2.8 v -28.7 c 0,-2.2 1.8,-4 4,-4 h 28.9 c 1.1,0 2.1,0.4 2.9,1.2 l 51.8,52.2 c 1.5,1.6 1.5,4.1 -0.1,5.6 z"
           id="path300"
           style="fill:none;stroke:#000000;stroke-width:4.77918;stroke-dasharray:none;stroke-opacity:1" /></g><circle
         style="fill:none;stroke:#000000;stroke-width:4;stroke-linecap:square;stroke-linejoin:round;stroke-dasharray:none;stroke-opacity:1"
         id="path896"
         cx="44.771072"
         cy="47.033451"
         r="7.4065366" /></g></g></svg>
