<svg xmlns="http://www.w3.org/2000/svg" xmlns:xlink="http://www.w3.org/1999/xlink" width="128" height="128" version="1.0"><defs><linearGradient id="a"><stop offset="0" style="stop-color:#772b00;stop-opacity:1"/><stop offset=".5" style="stop-color:#da441b;stop-opacity:1"/><stop offset=".75" style="stop-color:#d2400f;stop-opacity:1"/><stop offset=".938" style="stop-color:#d44316;stop-opacity:.614583"/><stop offset="1" style="stop-color:#c33900;stop-opacity:.21875"/></linearGradient><linearGradient id="b"><stop offset="0" style="stop-color:#fff;stop-opacity:1"/><stop offset="1" style="stop-color:#fff;stop-opacity:0"/></linearGradient><linearGradient xlink:href="#a" id="c" x1="154.286" x2="605.714" y1="535.219" y2="535.219" gradientUnits="userSpaceOnUse"/><radialGradient xlink:href="#b" id="e" cx="102.143" cy="545.934" r="135" fx="102.143" fy="545.934" gradientUnits="userSpaceOnUse"/></defs><path d="M-1793.719-88.062c-1.852.01-3.602.513-3.969 1.468-.31.809-.05 58.746.594 128.75.646 70.004 1.357 219.766 1.563 332.813.204 113.047.593 209.572.875 214.5.28 4.928.764 44.743 1.093 88.468.33 43.725.767 82.2.97 85.5.496 8.067 2.063 227.757 1.905 267.75l-.125 31.75h13.97l-.657-15.75c-.901-21.656-4.063-360.222-4.063-434.78 0-33.772.017-34.038 2.25-36.876 1.33-1.69 2.25-4.241 2.25-6.25 0-3.674 2.083-5.345 4.344-3.468 1.675 1.389 3.898-2.36 3.875-6.532-.014-2.849 1.316-5.343 2.844-5.343v-26.782c-.226 5.503-.527 8.631-.938 9.125-1.197 1.442-2.854 2.163-3.25 1.407-.072-.138-.266-26.085-.406-57.657-.347-78.836-1.432-163.643-4-311.593-3.072-177.122-3.382-205.014-2.469-215 .504-5.5.648-13.6.344-18-.438-6.351-.209-8.413 1.031-10 .596-.762.966-1.173 1.22-1.25.253-.078.377.178.405.75v1.312h8.063v-4.031c-2.49.13-2.626-.32-2.906-3.281-.569-5.986-3.374-7.824-5.344-3.5-1.442 3.164-3.599 3.204-4.781.093-1.09-2.866-2.324-3.757-4.25-3.062h-7.157c-.927-.368-2.123-.538-3.28-.531zm15.094 494.437c.066.009.14.12.219.313.277.687.277 1.812 0 2.5-.278.687-.5.125-.5-1.25 0-.86.084-1.414.219-1.532.02-.017.04-.034.061-.031z" style="fill:#696c8d" transform="rotate(15.224 -60.075 771.503)scale(.0767)"/><path d="M-748.056-7.539c-.415-.017-.715.04-.938.125-1.618.621-1.708 1.907-1.156 15.406 3.384 82.736 4.566 176.725 6.125 479.25.301 58.575.796 107.487 1.094 108.688 1.175 4.751 6.612 4.848 24.03.406 8.064-2.056 32.878-7.099 44.345-9 11.042-1.83 29.002-3.118 40-2.875 9.093.2 11.571-.127 18.5-2.437 4.4-1.468 13.175-4.085 19.5-5.813 6.325-1.728 13.525-3.761 16-4.531 11.21-3.488 46.099-9.765 58.5-10.531 7.15-.442 19.075-1.244 26.5-1.782 30.492-2.206 42.077-2.393 71.312-1.125l30.094 1.313 16.531 7.906c9.1 4.364 23.088 10.583 31.063 13.813 7.975 3.23 20.02 8.108 26.78 10.843 6.762 2.736 17.562 6.183 24 7.657 7.75 1.774 13.295 3.686 16.376 5.625 2.559 1.61 6.159 3.4 8 3.968 1.84.57 15.044 1.137 29.344 1.282 23.247.235 27.64.567 41.5 3.031 8.525 1.516 19.325 3.112 24 3.562 4.675.45 12.157.695 16.625.532 7.398-.27 8.735-.669 15-4.313 14.946-8.693 30.665-15.786 47.343-21.375 15.687-5.257 18.3-5.844 25.719-5.844 4.545 0 11.323.516 15.063 1.157 5.112.876 9.159.879 16.28.03 17.63-2.097 51.381-7.961 68.97-12 23.711-5.443 28.463-6.129 35-5.093 7.885 1.25 18.067 1.388 29.062.438 8.174-.707 10.068-.558 13.219.937 4.53 2.15 5.918 1.655 9.156-3.187 6.137-9.179 7.186-10.435 9.531-11.594 2.363-1.168 2.55-1.908 3.75-15.219 1.266-14.032 4.48-37.064 6.344-45.469.549-2.475 1.265-6.412 1.594-8.75.678-4.821-.001-5.137-6.719-3.125-8.412 2.52-11.03-1.102-14.937-20.625-6.618-33.058-9.436-41.157-19.282-55.28-2.965-4.255-7.748-11.77-10.625-16.72-6.801-11.702-8.828-14.495-17.062-23.5-21.875-23.92-24.484-29.2-31.625-64-2.427-11.825-5.376-23.9-6.563-26.843-1.437-3.565-4.81-8.236-10.093-13.938-4.364-4.71-9.8-11.053-12.063-14.125-2.263-3.071-7.651-9.194-12-13.594-4.348-4.4-8.337-9.154-8.844-10.562-1.724-4.797 3.91-18.232 13.75-32.844 2.41-3.577 2.155-5.403-1.125-8.125-1.36-1.129-2.174-1.125-4.812-.031-10.881 4.51-13.43 5.056-18.844 4.031-3.164-.599-13.826-5.211-26.312-11.375-21.742-10.732-47.528-21.415-62.813-26.031-7.637-2.306-25.671-5.258-52.687-8.594a3330.05 3330.05 0 0 1-19.5-2.469c-6.6-.86-22.125-2-34.5-2.53-12.375-.531-26.55-1.382-31.5-1.876-10.198-1.017-35.31-7.46-46.657-11.969-16.483-6.548-73.442-21.847-128.843-34.625-27.785-6.408-62.759-15.046-72.5-17.906-4.4-1.291-12.95-3.545-19-5a5048.05 5048.05 0 0 1-21.5-5.219 2168.54 2168.54 0 0 0-22.5-5.375c-29.105-6.764-39.322-9.686-60-17.062-26.636-9.5-35.537-12.727-46-16.781-4.4-1.705-15.2-5.788-24-9.063-8.8-3.275-20.725-7.797-26.5-10.062-17.625-6.913-25.595-9.69-28.5-9.813z" style="fill:#d30b19" transform="rotate(15.224 -2.746 484.179)scale(.0767)"/><path d="M-764.281-12.562v8.906h-.219c.066 4.769.172 14.824.313 31.406.168 19.8.817 51.75 1.437 71 .62 19.25 1.596 71.9 2.156 117 .561 45.1 1.241 100.9 1.532 124 .29 23.1 1.075 73.725 1.75 112.5 1.48 85.144 1.65 133.99.468 146.313v10.75l7.469-1.22c.366-.445.904-.572 1.719-.687 1.334-.188 3.36-.953 4.5-1.687 1.14-.734 4.907-1.824 8.343-2.438 3.437-.614 8.162-1.798 10.5-2.625 15.1-5.34 64.907-12.399 87.532-12.406 8.274-.003 10.703-.463 22.531-4.375 7.295-2.413 19.092-5.62 26.219-7.094 7.127-1.473 14.543-3.067 16.468-3.562 12.485-3.21 42.33-8.42 52-9.063 6.325-.42 14.65-1.22 18.5-1.781 23.213-3.384 42.702-3.848 82.5-1.969l25.5 1.219 15.5 7.438c25.735 12.338 69.42 29.674 82.375 32.687 8.16 1.898 12.88 3.607 16.594 6 6.691 4.31 9.94 4.692 40.531 5 23.14.233 26.305.494 42.5 3.438 12.654 2.299 20.96 3.238 30 3.375l12.5.187 8-4.625c15.968-9.229 29.333-15.3 46.344-21 16.235-5.44 18.01-5.813 27.5-5.969 5.58-.092 11.956.298 14.156.875 10.767 2.825 14.785 2.567 48-3.25 28.139-4.927 44.379-8.305 61.938-12.875 4.312-1.122 6.182-1.04 14.844.688 9.516 1.898 10.337 1.917 20.062.343 9.457-1.53 17.656-1.384 17.656.313 0 .404.96 1.955 2.126 3.438l2.093 2.687 2.406-2.25c1.315-1.235 4.204-5.517 6.407-9.531 2.62-4.775 5.026-7.84 6.969-8.844 3.457-1.788 3.303-1.138 5.468-22.5.92-9.075 2.06-18.3 2.531-20.5.471-2.2 1.414-8.05 2.094-13 .68-4.95 2.045-11.68 3.063-14.937 3.01-9.63 1.242-11.378-7.656-7.563-6.774 2.904-8.343 2.635-10.188-1.75-.868-2.062-3.126-11.175-5-20.25-5.69-27.56-9.144-36.926-19.281-51.937-3.186-4.718-7.275-11.263-9.094-14.563-5.374-9.75-11.023-17.7-15.937-22.5-19.467-19.013-27.325-32.965-31.594-55.937-3.15-16.95-7.333-33.835-9.688-39.157-1.56-3.526-5.102-8.189-10.156-13.375-4.274-4.385-9.138-10.01-10.812-12.5-1.675-2.49-7.264-8.87-12.407-14.156-5.142-5.285-9.343-10.035-9.343-10.562 0-4.951 9.816-26.13 14.093-30.407 2.052-2.051 3.907-5.31 3.907-6.875 0-1.223-8.029-9.011-9.313-9.031-.445-.007-2.47 1.286-4.5 2.844-2.03 1.558-5.563 3.619-7.844 4.594-6.203 2.65-11.294 1.098-34.343-10.438-17.38-8.698-29.713-14.126-50.5-22.187-11.16-4.328-22.908-7.082-40-9.407-44.64-6.072-58.382-7.554-78.5-8.469-40.93-1.86-47.851-3.113-82.5-14.75-21.252-7.136-42.55-13.4-58.5-17.218-6.325-1.514-17.575-4.33-25-6.25-7.425-1.92-26.325-6.507-42-10.219-28.694-6.795-61.959-15.093-74-18.437-3.575-.993-9.65-2.527-13.5-3.407-6.747-1.542-27.374-6.483-61-14.625-8.8-2.13-17.575-4.177-19.5-4.562-3.845-.77-44.933-15.616-65.5-23.656-7.15-2.796-16.6-6.304-21-7.813-4.4-1.51-15.875-6.017-25.5-10-30.669-12.69-40.395-16.36-45.688-16.812h-2.031c-1.378.108-2.266.152-2.844 0h-6.156zm56.718 19.468a2414.967 2414.967 0 0 0 14.5 5.438c8.8 3.275 19.6 7.357 24 9.062 10.464 4.055 19.364 7.28 46 16.782 20.68 7.375 30.896 10.298 60 17.062a2168.54 2168.54 0 0 1 22.5 5.375 5048.05 5048.05 0 0 0 21.5 5.219c6.05 1.455 14.6 3.708 19 5 .509.149 1.36.352 2 .531-.21.173-.228.505 0 .875.34.55.82 1 1.063 1s.438-.45.438-1a.932.932 0 0 0-.157-.5c1.32.361 2.935.805 4.625 1.25a6.714 6.714 0 0 0-.844-.125 3.837 3.837 0 0 0-.718.031c-1.238.165-1.336 1.01.344 1.688 2.042.824 3.75.726 3.75-.219 0-.35-.596-.786-1.438-1.094 14.828 3.882 41.319 10.368 63.438 15.469 55.401 12.778 112.36 28.077 128.843 34.625 11.348 4.508 36.458 10.952 46.656 11.969 4.95.493 19.125 1.345 31.5 1.875s27.9 1.67 34.5 2.531c6.6.86 15.375 1.96 19.5 2.469 27.017 3.335 45.051 6.287 52.688 8.594 15.285 4.616 41.07 15.299 62.813 26.03 12.486 6.164 23.148 10.777 26.312 11.376 4.8.908 7.366.543 15.469-2.688-.158.073-.273.142-.438.219l-5.344 2.469 4.5.125c2.475.068 5.216.052 6.094-.031.879-.084 2.174.56 2.875 1.406.935 1.126 1.744 1.527 2.344 1.437-.207.371-.44.774-.719 1.188-6.62 9.83-11.334 19.1-13.187 25.594 1.369-4.62 1.363-4.747-.594-4.125-2.94.933-10.738-1.54-11.937-3.782-.567-1.058-2.92-2.728-5.22-3.718-11.524-4.968-14.795-6.995-22.312-13.75-4.48-4.027-8.488-7.313-8.906-7.313-.417 0-2.196-1.117-3.969-2.469-1.772-1.352-6.314-3.676-10.094-5.187-3.779-1.511-8.224-3.688-9.843-4.813-1.62-1.124-5.289-3.381-8.156-5.031-2.868-1.65-7.11-4.331-9.438-5.969-4.097-2.881-4.726-3.001-19.344-3.687-11.29-.53-16.535-1.23-20.75-2.75-7.284-2.627-14.545-3.308-17.812-1.656-3.837 1.938-9.73 2.754-11.75 1.625-.988-.552-8.23-3.091-16.094-5.657-11.192-3.65-14.777-4.462-16.5-3.687-1.55.697-3.358.584-6.094-.375-1.756-.616-3.225-.894-4.719-.844-.895.03-1.8.178-2.78.438-1.99.526-9.289 1.158-16.22 1.375-6.93.217-13.109.697-13.75 1.093-1.748 1.08-.354 2.594 2.407 2.594 1.338 0 2.972.861 3.625 1.906.652 1.045 1.773 1.654 2.5 1.375.727-.279 1.344-.084 1.344.438 0 .521 1.986 3.093 4.437 5.687 3.945 4.176 4.71 4.571 6.594 3.563 1.17-.627 2.91-2.91 3.875-5.063.964-2.153 1.991-3.665 2.281-3.375.29.29 2.045.7 3.906.907 7.127.793 13.574 2.376 17.906 4.406 2.475 1.16 5.455 2.113 6.625 2.125 1.17.012 3.646.642 5.5 1.406 1.855.764 5.85 1.712 8.875 2.094 3.025.382 9.55 1.76 14.5 3.062 4.95 1.302 11.006 2.653 13.47 3 2.463.348 4.8.823 5.187 1.063 1.34.828 10.375 2.503 18.344 3.406 22.122 2.506 25.99 3.084 26.906 4 .546.546 2.028 1 3.312 1 1.285 0 3.344.633 4.563 1.406 1.218.773 6.494 2.834 11.719 4.594 9.942 3.35 10.49 3.609 26.312 11.563 9.568 4.81 16.688 10.712 16.688 13.875 0 5.687 8.989 13.145 14.593 12.093 2.648-.496 3.496-.206 4.375 1.438 2.026 3.785 3.307 2.218 6.313-7.844-.802 2.959-.977 5.314-.438 6.813.507 1.407 4.496 6.162 8.844 10.562 4.349 4.4 9.737 10.522 12 13.594 2.263 3.071 7.7 9.415 12.063 14.125 5.282 5.702 8.656 10.373 10.093 13.937 1.187 2.944 4.136 15.019 6.563 26.844a750.74 750.74 0 0 0 1.687 8.063c-.212-.976-.449-1.925-.656-2.938-1.842-9.005-3.588-16.62-3.875-16.906-.207-.207-.387-.297-.531-.281-1.013.109-.51 5.613 1.468 15.593 3.213 16.21 5.91 25.353 9.626 32.719 1.594 3.163 3.399 5.75 4 5.75.6 0 .839-.562.53-1.25a174.692 174.692 0 0 1-2.156-5.062c4.288 8.827 10.435 16.178 21.532 28.312 8.234 9.005 10.26 11.798 17.062 23.5 2.877 4.95 7.66 12.465 10.625 16.719 6.48 9.295 9.928 16.029 13.406 28.937-.583-2.026-1.058-3.336-1.374-3.656-.133-.134-.252-.229-.344-.25-.04-.009-.062-.02-.094 0-.48.29-.012 4.033 2.063 18.25 2.71 18.58 5.18 27.81 8.5 31.781 2.51 3.003 3.28.328 1.25-4.343 2.482 5.872 5.464 6.79 10.812 5.187.152-.046.26-.082.406-.125-.887.441-1.21.956-.531 1.375 1.388.858 1.54 5.494.25 7.531-.533.842-.526 2.41.031 3.875 1.644 4.324.322 5.857-6.594 7.594-3.533.888-7.406 1.625-8.624 1.625-1.22 0-2.974.688-3.907 1.531-.932.844-4.582 2.022-8.094 2.625-10.375 1.782-10.245 1.833-10.968-2.5-.354-2.12-1.035-4.144-1.531-4.5-.497-.355-2.778-1.884-5.063-3.375-5.578-3.638-5.935-4.464-3.344-7.968 1.676-2.267 1.933-3.287 1.063-4.157-1.497-1.496-13.617-1.25-15.5.313-1.77 1.469-6.725.975-7.281-.719-.226-.687.398-1.52 1.406-1.844 3.315-1.065 12.351-5.665 12.906-6.562 1.414-2.287-.911-4.577-6.344-6.281-3.156-.99-8.39-3.154-11.625-4.782-10.868-5.468-30.673-8.096-39.375-5.25-4.834 1.582-5.77 1.568-12.468.125-9.107-1.961-16.75-4.602-16.75-5.812 0-2.09-5.04-5.844-7.844-5.844-1.608 0-3.484-.683-4.188-1.531-2.026-2.442.193-3.772 5.188-3.094 17.873 2.427 27.467 2.88 35.25 1.688 4.453-.683 9.444-1.63 11.094-2.125 1.71-.515 5.269-.543 8.28-.063 2.905.463 6.42.61 7.813.344l2.532-.469-2.75-2.875c-1.501-1.566-4.125-3.308-5.844-3.875-3.855-1.272-45.455-1.156-58.125.156-6.334.656-11.032.58-15.5-.219-3.527-.63-8.53-1.448-11.125-1.843-2.596-.395-5.52-1.461-6.5-2.344-.98-.883-3.132-1.938-4.782-2.344-1.65-.406-5.474-2.055-8.5-3.687-3.024-1.633-7.75-3.78-10.5-4.75-2.75-.971-8.6-3.169-13-4.875-4.4-1.707-9.012-3.092-10.25-3.094-1.828-.003-2.25-.55-2.25-2.969 0-1.998.74-3.45 2.25-4.406 2.447-1.549 8.485-3.157 10.5-2.781 1.508.28 3.25-3.872 3.25-7.781 0-2.044-.96-3.564-3.5-5.5-1.924-1.469-3.5-3.226-3.5-3.907 0-.68-2.177-3.537-4.812-6.344l-4.781-5.093-2.656 1.937c-3.527 2.569-5.791 1.367-10.22-5.469-1.847-2.852-5.639-7.568-8.437-10.468-2.798-2.9-5.094-5.859-5.094-6.563 0-2.375-6.452-7.499-14-11.125-9.155-4.398-15.451-8.069-20.593-12.031-17.235-13.279-30.583-21.877-44.406-28.594-9.892-4.806-38.875-14.958-51-17.875-3.025-.727-12.025-3.54-20-6.25-14.045-4.77-22.42-7.311-34.094-10.312-3.078-.792-10.278-3.65-16-6.344-5.722-2.694-14.681-6.527-19.906-8.531-12.942-4.965-14.444-5.818-14.813-8.375-.377-2.617 1.688-3.614 9.813-4.719 10.935-1.487 32.558-6.336 35.843-8.031 4.016-2.072 14.409-1.625 18.25.781 1.326.83 5.106 2.29 8.406 3.25 6.83 1.985 16.663 5.685 24 9.031 2.75 1.254 8.825 3.5 13.5 4.969 4.675 1.47 9.4 3.18 10.5 3.813 1.1.632 7.625 1.437 14.5 1.78 12.728.637 18.976 1.816 24.688 4.688 2.466 1.24 3.722 1.364 5.5.531 3.238-1.516 7.899-1.566 10.625-.125 1.886.998 2.476.964 3.188-.187.544-.88 2.223-1.339 4.468-1.187 4.459.3 6.017-.517 4.5-2.344-.61-.735-.952-2.097-.781-3.031.201-1.102-1.449-2.917-4.687-5.157-5.633-3.895-6.453-5.6-3.97-8.344 1.605-1.773 1.608-2.048.063-4.406-2.129-3.25-2.732-3.196-2.375.219.264 2.517-.036 2.778-3.469 3.063-2.71.224-3.783.778-3.812 2-.03 1.22-.813.754-2.875-1.657l-2.875-3.344-1.156 3.594c-.651 1.972-1.632 3.594-2.156 3.594-1.467 0-2.222-2.894-1.125-4.281.537-.68 1.188-2.507 1.468-4.063.69-3.823-1.905-4.783-4.437-1.656-1.452 1.793-2.15 2.038-3.063 1.125-.913-.913-.882-1.668.125-3.281.938-1.501.995-2.38.219-3.156-.595-.596-1.062-2.787-1.062-4.844 0-2.058-.45-4.004-1-4.344-.55-.34-.986-1.382-.97-2.312.03-1.56.12-1.552 1.345.062 1.624 2.14 3.763 2.32 2.968.25-.316-.825-.078-1.5.5-1.5.579 0 1.176 2.138 1.344 4.75.32 4.992 2.086 6.526 2.594 2.25.508-4.284 2.34-7.905 4.312-8.531 2.466-.783 2.429-2.09-.093-2.75-1.457-.381-2-1.373-2-3.625 0-1.702.48-3.094 1.062-3.094.583 0 .777-.45.438-1-.34-.55.08-1 .937-1 2.478 0 1.817-1.948-1.031-3.031-1.43-.544-5.22-3.595-8.406-6.75-3.187-3.156-6.945-6.68-8.344-7.844-2.346-1.952-2.408-2.285-1.031-4.25.82-1.173 2.086-2.125 2.812-2.125s1.846-.65 2.5-1.437c.945-1.14.768-1.857-.875-3.5-1.137-1.137-2.512-2.063-3.062-2.063-.55 0-1-.815-1-1.812 0-2.625-5.301-7.41-7.344-6.625-.915.35-1.656 1.07-1.656 1.593 0 .524-.45.684-1 .344-.55-.34-1 .066-1 .906 0 .873-.603 1.297-1.375 1-.744-.285-2.067.623-2.97 2-3.132 4.781-11.898 4.43-18.905-.75-2.176-1.608-5.005-2.176-13.5-2.719-5.991-.382-11.625-.289-12.75.22-1.41.636-3.731.3-7.75-1.126-12.525-4.44-16.454-5.917-21.094-7.937-2.658-1.157-5.818-2.094-7.031-2.094-1.214 0-4.01-.926-6.188-2.062-7.16-3.735-26.974-10.173-35.437-11.5-2.475-.389-8.485-2.21-13.344-4.063-4.86-1.854-10.15-3.375-11.75-3.375-2.093 0-4.142-1.25-7.344-4.406-4.129-4.07-11.397-7.594-15.594-7.594-.91 0-4.666-.96-8.375-2.125-4.855-1.524-7.06-2.754-7.812-4.406-.705-1.547-2.21-2.487-4.656-2.906a311.958 311.958 0 0 1-6.313-1.157c-2.188-.432-2.944-.034-4.125 2.219-1.321 2.522-1.269 3.03.656 5.813 3.627 5.242 7.986 9.562 9.657 9.562.882 0 2.008.405 2.53.906.523.502 2.926 1.29 5.313 1.75 6.04 1.167 4.807 2.905-1.843 2.594-4.865-.228-9.164-1.607-14-4.437-5.3-3.102-12.574-5.813-15.532-5.813-2.38 0-3.86-.625-4.718-2-.795-1.272-2.326-2-4.22-2-3.7 0-11.365-2.772-14.03-5.062-1.1-.946-3.125-2.036-4.5-2.438-1.375-.402-3.957-1.805-5.72-3.125-1.762-1.32-4.662-2.701-6.468-3.062-1.806-.362-5.298-1.945-7.75-3.5-2.452-1.556-4.952-2.81-5.531-2.813-.58-.003-2.228-.645-3.688-1.406-1.459-.762-4.353-1.948-6.406-2.625-2.053-.678-5.302-2.304-7.25-3.625-1.947-1.322-4.71-2.687-6.125-3.031-1.415-.345-3.852-1.678-5.406-2.97-1.555-1.29-3.242-2.343-3.75-2.343s-.906-.675-.906-1.5c0-1.032-1.06-1.5-3.344-1.5-2.325 0-4.948-1.215-8.75-4.062-4.222-3.16-6.034-3.949-8.156-3.532-2.044.402-2.992.038-3.782-1.437-.58-1.084-1.806-1.966-2.75-1.969-.943-.003-3.018-.678-4.593-1.5-3.92-2.044-8.628-1.845-11.625.5-1.375 1.076-3.028 1.957-3.657 1.969-.628.012-1.44.819-1.812 1.781-.607 1.565-.821 1.578-1.875.188-4.215-5.56-17.039-12.97-43.156-24.938-6.662-3.053-26.172-12.631-31.5-15.469-1.375-.732-10.375-5.287-20-10.093-18.909-9.443-24.727-13.149-23.125-14.75.65-.65 2.134-.467 4.312.53 5.812 2.662 12.848 5.09 13.344 4.595.264-.265-4.368-2.338-10.281-4.594-2.573-.982-5.909-2.272-9.25-3.563zm15.688 32.344c2.07 0 4.306 1.708 9.5 7.25 3.737 3.988 8.028 9.05 9.531 11.25 1.504 2.2 5.356 6.925 8.563 10.5 6.329 7.057 9.13 11.507 8.187 13.031-2.094 3.388-8.752-1.149-19.406-13.219-4.525-5.126-9.22-10.437-10.469-11.812-1.248-1.375-2.861-4.634-3.562-7.219-.702-2.585-2.12-5.437-3.157-6.375-2.607-2.36-2.368-3.406.813-3.406zm-25.969.188c1.156.002 3.941 2.306 7.219 6.062 1.8 2.063 2.852 3.75 2.344 3.75-1.304 0-10.58-9.045-9.938-9.687.096-.097.21-.126.375-.126zm-24.125 10.124c1.885-.033 5.472 2.644 6.813 5.47.968 2.04 3.592 6.394 5.812 9.656 2.22 3.26 4.435 7.398 4.938 9.218.502 1.82 1.911 3.837 3.125 4.469 5.81 3.027 45.464 45.616 57 61.219 2.093 2.83 5.53 6.956 7.625 9.156 3.377 3.548 15.205 18.444 19.125 24.094.802 1.156 2.931 4.043 4.718 6.406 2.527 3.34 3.25 5.29 3.25 8.719 0 5.793 2.417 12.97 6.563 19.5 4.234 6.669 5.606 9.586 8.719 18.281 3.91 10.922 5.029 15.202 4.375 16.906-.333.866-1.016 1.594-1.532 1.594-1.41 0-16.125-14.571-16.125-15.969 0-.668-2.137-3.31-4.75-5.875-2.612-2.565-6.363-6.458-8.312-8.656-1.95-2.198-5.113-5.176-7.031-6.625-1.918-1.449-6.155-5.417-9.438-8.812-3.282-3.396-8.933-8.425-12.562-11.157-5.214-3.924-6.857-5.81-7.813-9-.665-2.22-2.65-5.69-4.406-7.719-3.457-3.995-4.535-5.477-12.969-17.937-3.074-4.542-6.52-9.461-7.656-10.906-1.137-1.445-2.611-4.456-3.281-6.719-1.152-3.891-3.559-7.536-11.219-17.031-4.153-5.149-10.562-14.371-10.562-15.188 0-.338-1.125-1.96-2.5-3.594-1.42-1.686-2.5-4.247-2.5-5.906 0-1.608.153-2.906.343-2.906 1.851 0 6.976 3.745 8.094 5.906.778 1.504 3.345 4.043 5.688 5.656 2.342 1.614 5.286 3.983 6.562 5.25 2.219 2.204 4.313 2.208 4.313.032 0-.564-5.45-6.347-12.094-12.875-11.073-10.88-12.053-12.163-11.75-15.125.302-2.956.044-3.282-3.157-4.094-4.622-1.173-5.291-2.032-7.937-10.094-2.057-6.268-2.25-11.962-.469-14.844.202-.326.565-.492 1-.5zm7 37.063a.76.76 0 0 1 .407.125c.55.34 1 1.045 1 1.563 0 .517-.45.937-1 .937s-1-.705-1-1.562c0-.644.235-1.047.593-1.063zm85.688 3.906c.217-.023.441-.008.687 0 .908.032 2.007.29 3.282.813 3.168 1.298 21.75 19.315 21.75 21.094 0 .497 3.037 4.257 6.75 8.343 10.374 11.42 13.09 14.69 15.25 18.25 1.095 1.806 2.678 3.529 3.5 3.844.821.315 1.5 1.203 1.5 1.969 0 2.054-1.18 1.668-4.063-1.375-1.412-1.491-6.79-6.544-11.937-11.219-5.148-4.675-14.446-13.45-20.657-19.5-6.21-6.05-12.871-12.415-14.812-14.125-4.49-3.955-4.505-7.75-1.25-8.094zm173.343 10.844c-1.292.035-3.069.696-3.375 1.625-.226.688.012 1.25.563 1.25 1.856 0 4.188-1.218 4.188-2.187 0-.522-.6-.709-1.375-.688zm-262.687.781c.725.033 1.39 1.665 3.125 6.313 4.33 11.601 16.01 32.654 23.844 43.031 2.248 2.978 4.093 5.729 4.093 6.094 0 .753 11.921 18.342 16.032 23.656 1.489 1.925 3.641 5.3 4.781 7.5 1.14 2.2 3.104 5.167 4.375 6.594 9.4 10.553 11.93 13.102 12.5 12.531.358-.358-.12-2.275-1.062-4.25-.942-1.975-1.982-5.55-2.313-7.969-1.082-7.894 3.204-5.195 11.719 7.438 2.357 3.498 5.728 7.773 7.5 9.5 3.052 2.974 12.164 14.858 20.968 27.344 6.717 9.524 18.491 21.655 22.72 23.406 1.83.758 2.78 1.87 2.78 3.312 0 1.2 1.265 4.211 2.813 6.656 1.548 2.446 4.052 6.913 5.563 9.938 6.208 12.434 19.678 33.052 25.75 39.406 6.832 7.15 7.727 9.179 5.218 11.688-1.42 1.421-3.657 2.109-7.593 2.344-5.783.344-7.75 1.009-7.75 2.625 0 .541 3.739.833 8.75.687 5.593-.163 9.886.241 11.906 1.094 2.343.99 3.685 1.054 5.187.25 1.114-.596 2.871-1.094 3.907-1.094 2.633 0 12.62 5.248 17.593 9.25 5.114 4.115 19.744 13.964 29.157 19.625 11.56 6.952 14.184 9.27 19.593 17.344 5.56 8.296 17.566 21.387 23.031 25.094 1.845 1.25 5.915 3.578 9.032 5.156 3.117 1.577 8.268 5.076 11.437 7.781 3.17 2.705 7.957 5.979 10.656 7.281 6.286 3.033 19.59 5.77 27.032 5.563 3.928-.11 6.74.394 8.719 1.562 2.633 1.556 3.071 1.576 4.687.188 2.756-2.367 14.921-6.844 18.594-6.844 5.391 0 14.07 2.683 24.437 7.563 11.343 5.337 43.843 21.122 46.781 22.718 1.1.598 5.15 2.807 9 4.938 3.85 2.13 8.575 4.571 10.5 5.406 5.326 2.309 30.454 15.088 39.5 20.094 1.1.608 4.475 2.346 7.5 3.844 9.373 4.64 18.432 9.555 20 10.843.825.678 4.875 2.717 9 4.563 4.125 1.846 8.85 4.363 10.5 5.593 1.65 1.23 6.825 4.097 11.5 6.344s9.625 4.726 11 5.532c1.375.805 6.775 3.34 12 5.625 5.225 2.283 11.3 5.031 13.5 6.125 2.2 1.093 8.05 3.48 13 5.28 10.375 3.773 26.256 11.062 28.625 13.157 2.8 2.475 13.079 8.391 20.813 11.969 6.666 3.083 7.272 3.603 5.906 4.968-1.103 1.104-4.119 1.616-10.937 1.813-5.18.15-13.231.773-17.906 1.406-4.676.634-15.026 1.378-23 1.657-7.975.278-17.2 1.02-20.5 1.656-3.3.635-8.767 1.217-12.125 1.281l-6.094.125-6.719-6c-10.965-9.792-17.546-14.59-25.531-18.625-4.148-2.096-8.656-4.452-10.031-5.219-4.682-2.611-17.805-8.656-18.782-8.656-.535 0-1.509-.657-2.156-1.437-.647-.78-5.318-3.752-10.375-6.625-5.057-2.874-12.444-7.423-16.406-10.094-3.963-2.672-8.255-4.844-9.563-4.844-1.571 0-3.469-1.356-5.594-4-1.767-2.2-3.785-4-4.468-4-2.803 0-9.503-4.376-15.156-9.906-3.309-3.236-7.44-6.592-9.188-7.469-1.749-.877-3.458-2.406-3.781-3.375-.323-.969-2.413-3.1-4.656-4.75-2.244-1.65-4.684-4.176-5.438-5.625-1.708-3.284-11.728-11.763-20.844-17.625-10.515-6.762-20.736-10.553-29.094-10.812-3.85-.12-8.462-.542-10.25-.938-2.087-.462-3.25-.342-3.25.344 0 .587-1.687 1.354-3.75 1.719-2.062.364-6.323 1.527-9.468 2.562-8.634 2.842-24.536 2.644-30.594-.375-5.974-2.977-12.797-9.526-14.719-14.125-1.264-3.025-4.464-5.625-6.937-5.625-1.161 0 3.984 10.882 6 12.688 1.352 1.21 2.469 2.658 2.469 3.218s1.05 3.41 2.343 6.313c1.665 3.736 4.864 7.691 10.969 13.531 4.743 4.538 9.112 8.25 9.688 8.25.575 0 3.516 3.827 6.53 8.5 3.07 4.758 9.908 13.007 15.563 18.75 5.554 5.64 13.238 14.431 17.063 19.531 7.302 9.738 10.866 13.753 14.531 16.313 1.215.848 9.181 8.187 17.688 16.312 8.506 8.126 17.252 16.081 19.437 17.688 4.052 2.98 5.63 5.373 4.625 7-.31.5-.87.856-1.25.812-1.333-.152-9.755-4.505-16.687-8.625-3.85-2.288-12.85-6.72-20-9.843-7.15-3.125-15.778-6.975-19.157-8.563-3.378-1.588-6.658-2.875-7.281-2.875-.623 0-4.157-1.534-7.875-3.406-5.984-3.014-7.052-3.975-9.156-8.469-2.734-5.837-12.531-14.491-30.031-26.437-5.81-3.966-13.612-9.2-15.125-10.157-.897-.567-4.082-2.882-7.063-5.156-2.981-2.274-7.445-5.066-9.906-6.187-2.461-1.122-6.702-3.561-9.438-5.438-2.736-1.877-6.094-3.712-7.469-4.062-1.375-.35-4.465-2.44-6.875-4.657-4.126-3.797-4.368-4.274-3.843-8.187.647-4.824-2.173-13.534-5.313-16.375-1.09-.987-2.42-3.464-2.969-5.5-1.26-4.678-7.493-11.803-13.937-15.938-2.735-1.755-5.279-4.096-5.625-5.187-.346-1.092-1.591-2.415-2.781-2.969-1.19-.554-3.665-3.49-5.5-6.5-4.004-6.568-9.852-10.827-12.157-8.875-.825.699-2.4 1.538-3.5 1.875-1.145.35-2.796 2.51-3.843 5.063l-1.813 4.468 2.969 4.281c1.644 2.363 6.452 8.363 10.656 13.313 5.044 5.94 8 10.427 8.75 13.188.625 2.3 1.86 4.368 2.719 4.593 1.769.463 10.465 12.63 9.625 13.469-.3.3-1.65-.52-3-1.844-5.42-5.315-6.347-5.906-9.312-5.906-3.21 0-11.923-3.886-16.25-7.25-1.375-1.069-5.2-3.192-8.5-4.719-3.3-1.527-9.15-5.31-13-8.406-3.85-3.097-8.755-6.865-10.875-8.375-2.121-1.51-5.753-4.437-8.094-6.5-2.341-2.062-5.2-3.75-6.344-3.75-2.975 0-8.286-3.394-11.281-7.219-3.13-3.995-6.723-10.83-10.969-20.75-1.757-4.104-4.683-9.608-6.5-12.25-3.467-5.04-9.437-19.356-9.437-22.625 0-1.05-.692-2.49-1.532-3.187-.84-.697-2.926-3.327-4.625-5.844-2.87-4.254-3.049-4.99-2.468-10.656.569-5.554.423-6.302-1.75-8.344-3.23-3.034-9.169-15.27-10.97-22.625-2.188-8.94-12.926-31.358-20.562-42.875-3.697-5.577-7.571-11.475-8.593-13.125-3.221-5.2-22.605-29.57-29.72-37.344-2.176-2.378-4.845-6.314-5.937-8.781-2.093-4.731-4.256-6.369-6.062-4.562-1.5 1.499 2.383 13.565 6.75 20.968 1.852 3.14 4.088 7.294 4.968 9.219.88 1.925 2.866 4.85 4.407 6.5 1.54 1.65 4.277 5.7 6.093 9 1.817 3.3 3.974 6.776 4.782 7.719 1.798 2.1 3.87 11.28 3.406 15.031-.466 3.767-4.05 3.653-7.5-.219-1.447-1.623-4.4-3.417-6.562-4-4.545-1.223-5.472-2.806-4.032-6.937 1.034-2.967-.035-6.724-2.375-8.25-1.26-.822-5.954-8.809-9.281-15.844-5.69-12.031-6.437-13.743-6.437-14.312 0-.326-1.993-4.792-4.407-9.907-4.658-9.872-5.13-11.64-6.531-24.437-.49-4.476-1.366-9.03-1.969-10.156-1.923-3.593-.86-28.62 1.188-27.938.545.182 1.752 2.296 2.687 4.688.936 2.391 2.858 5.181 4.282 6.218 1.423 1.037 2.925 3.334 3.312 5.094.387 1.76 2.097 5.1 3.813 7.406a920.042 920.042 0 0 1 7.437 10.188c2.372 3.302 4.967 6.574 5.781 7.25.815.676 3.599 4.374 6.188 8.25 2.589 3.876 7.531 9.938 10.968 13.437 3.438 3.5 6.25 6.765 6.25 7.281 0 1.09 17.132 17.93 18.25 17.938 1.393.01.696-3.474-1.593-8-5.849-11.562-12.14-22.728-14.094-25-1.182-1.375-4.667-6.325-7.719-11-14.376-22.026-21.578-32.685-23.968-35.469-1.432-1.668-3.763-4.831-5.188-7.031-1.425-2.2-5.318-7.938-8.656-12.75-7.305-10.53-9.665-16.22-10.907-26.219-1.02-8.227-.677-11.081 1.688-13.812.448-.517.796-.828 1.125-.813zm266.031.281c-.834.046-.674.518-.031 1.72 1.323 2.471 4.148 4.093 7.156 4.093 1.23 0 3.008.69 3.938 1.531 1.862 1.686 6.525 2.231 9.156 1.063 1.138-.506 2.262-.097 3.469 1.312 1.869 2.183 3.42 2.301 4.094.281.217-.653-.317-1.187-1.188-1.187-.87 0-1.562-.45-1.562-1s-.717-1-1.594-1c-.878 0-2.79-.619-4.25-1.375-3.394-1.757-11.555-4.276-16.469-5.094-1.351-.225-2.218-.37-2.719-.344zm216.719 32.907a6.321 6.321 0 0 0-.687.031c-2.93.433-3.233 2.257-.438 2.656 3.123.446 9.85 2.515 10.781 3.313.973.832 15.702 1.016 19.906.25 3.312-.603 3.648-3.128.5-3.75-4.362-.863-25.465-2.58-30.062-2.5zm-150.094 3.344c.5.02.844.634 1.375 2.03.563 1.482.78 3.122.469 3.626-.768 1.242-1.815 1.122-3.25-.313-1.612-1.611-1.514-3.291.281-4.781.462-.383.825-.574 1.125-.562zm403.063 44.656c.355.02.681.16 1 .344a2.79 2.79 0 0 0-1.25-.282 3.967 3.967 0 0 0-.469.031c.252-.042.504-.106.719-.093zm1.531.687c.093.07.184.107.281.188.05.041.077.084.125.125 1.682 1.422 2.54 2.602 2.594 3.937-.214-.769-.642-1.617-1.312-2.469-.469-.595-.876-1.093-1.282-1.468-.135-.125-.27-.212-.406-.313zM-174.5 193.47c-1.21.05-2.334 1.54-1.625 2.687.37.598 1.333 1.094 2.125 1.094 1.684 0 1.93-2.582.344-3.562a1.495 1.495 0 0 0-.844-.22zm-34.281 12.844c.507.006 1.244.31 2.187.906.81.511 1.26 1.077 1 1.281-.846.665-3.969-.362-3.969-1.312 0-.586.275-.881.782-.875zm-58.781.937c.55 0 1 .45 1 1s-.45 1-1 1-1-.45-1-1 .45-1 1-1zm-3.844 12.031c5.642-.034 8.867.462 10.875 1.5 1.622.84 2.969 1.87 2.969 2.313 0 .802 7.242 5.724 12 8.156 1.375.703 2.85 1.898 3.28 2.625.43.727 2.26 2.02 4.063 2.875 3.478 1.65 15.656 12.783 15.656 14.313 0 1.002-10.986 1.057-18 .093-8.444-1.16-16.417-3.914-20.218-6.969-2.088-1.677-7.214-4.817-11.406-7-4.193-2.182-8.972-5.103-10.594-6.468-1.623-1.365-3.51-2.469-4.219-2.469-2.117 0-6.562-4.026-6.562-5.938 0-1.526 1.294-1.848 9.156-2.406 5.375-.381 9.614-.604 13-.625zm125.344 9.469c-1.309.178-1.606 1.47-.47 3.594.912 1.702.937 2.406.094 2.687-1.869.623-1.307 1.812 1.438 3.063 2.195 1 2.492 1.632 1.937 4.156-.358 1.63-.347 3.45.032 4.063.634 1.026 1.77-.351 4.093-4.97.419-.83-.033-1.92-1.125-2.718-1.55-1.134-1.676-1.735-.687-3.906 1.542-3.385 1.629-3.187-1.938-5.031-1.443-.747-2.59-1.045-3.375-.938zm-9.907 17.875c-.358.016-.594.42-.594 1.063 0 .857.45 1.562 1 1.562s1-.42 1-.937c0-.518-.45-1.223-1-1.563a.754.754 0 0 0-.406-.125zM-192 248.25c.87 0 1.405.534 1.188 1.188-.618 1.854-2.75 2.172-2.75.406 0-.871.691-1.594 1.562-1.594zm53.313 7.563c-1.397.266-2.875 3.192-2.875 6 0 .789.45 1.437 1 1.437s1-.689 1-1.531c0-.843.675-1.809 1.5-2.125 1.948-.748 1.93-2.966-.032-3.719a1.151 1.151 0 0 0-.312-.062c-.092-.007-.188-.018-.281 0zm-6.875.437c-.55 0-1 .45-1 1s.45 1 1 1 1-.45 1-1-.45-1-1-1zm-28.938 9c-.517 0-1.223.45-1.562 1-.34.55.08 1 .937 1 .857 0 1.563-.45 1.563-1s-.42-1-.938-1zm-562.094 14c1.316 0 2.927 9.778 2.563 15.5-.424 6.65 1.246 18.269 3.156 22 3.232 6.313 5.325 13.864 4.719 17.094-.534 2.845-.243 3.428 2.312 4.75 4.114 2.127 9.265 7.65 9.907 10.625.299 1.386 1.368 4.781 2.375 7.531 1.006 2.75 3.713 10.175 6.03 16.5 5.18 14.134 8.525 20.89 13.845 27.969 6.015 8.006 20.116 20.313 28.656 25 4.099 2.25 7.468 4.628 7.468 5.281 0 .653-1.192 2.114-2.656 3.281-3.09 2.464-2.637 3.773 2.188 6.063 1.901.902 3.468 2.044 3.468 2.531 0 .487.494.875 1.094.875.6 0 2.825 1.509 4.969 3.344s5.485 4.184 7.406 5.219c4.683 2.522 6.032 1.083 6.032-6.375 0-5.006.237-5.688 1.968-5.688 3.322 0 5.614 7.532 4.907 16.156-.37 4.514-.145 8.512.625 10.844 1.033 3.132.978 3.927-.344 5.25-1.182 1.182-1.91 1.29-2.938.438-.746-.62-3.113-1.705-5.281-2.438-3.505-1.186-4.464-1.122-8.687.594-2.613 1.061-4.75 2.25-4.75 2.656 0 .952 14.166 6 16.843 6 2.825 0 6.112 4.63 12.75 18.031 3.12 6.3 6.666 12.594 7.875 13.969 2.39 2.717 5.522 10.38 5.532 13.531.003 1.082.627 3.196 1.406 4.688.778 1.492 1.938 5.317 2.562 8.5 1.707 8.702 2.981 11.45 7.063 15.312 3.274 3.098 3.786 4.265 4.437 9.875.653 5.625.521 6.508-1.125 7.469-2.232 1.303-14.91 5.503-25.531 8.469-11.185 3.123-12.012 3.017-20.937-2.969-13.54-9.082-18.606-12.052-33-19.25-8.462-4.231-16.725-8.484-18.375-9.469-9.066-5.41-25.627-13.156-28.125-13.156-1.696 0-1.75 2.92-.094 5.094.672.883 3.782 3.252 6.906 5.25 3.124 1.998 5.964 4.092 6.313 4.656.348.564 2.4 1.928 4.562 3.031 4.278 2.183 5.114 3.969 1.875 3.969-2.696 0-16.287-4.317-27.094-8.594-4.751-1.88-9.139-3.406-9.75-3.406-.61 0-1.147-.337-1.218-.75-.554-3.22-.847-7.539-1.282-19.406-.431-11.787-.25-14.372 1.407-18.907 2.012-5.506 5.44-9.937 7.656-9.937 2.26 0 2.515-4.306.5-8.437-1.36-2.786-1.658-4.429-.969-5.532.608-.973.654-2.857.094-5.031-.675-2.619-1.512-3.584-3.344-3.844-4.097-.58-5.175-2.126-4.562-6.594.306-2.231.117-6.987-.438-10.562-.555-3.575-1.229-8.967-1.469-11.969-.24-3.001-.64-6.025-.906-6.719-.266-.693-.021-1.533.531-1.875.57-.352.735-2.417.407-4.78-.698-5.031.587-10.04 2.656-10.438 1.86-.359 6.843 6.576 6.843 9.531 0 2.025 2.485 6.561 6.75 12.25 1.031 1.375 4.777 7.215 8.313 12.969 6.183 10.06 18.748 23.969 21.656 24 .67.007 3.476 2.036 6.25 4.5 2.775 2.464 6.387 5.18 8.032 6.031 1.644.85 3 1.933 3 2.406 0 .474 1.237 1.1 2.75 1.375 2.889.525 8.585 2.41 11.375 3.781 1.117.55 2.212.195 3.406-1.125.967-1.068 2.544-1.937 3.5-1.937 1.609 0 2.968-1.857 2.968-4.094 0-.517-1.856-2.976-4.125-5.437-3.493-3.79-4.04-4.927-3.53-7.469.33-1.651.173-3-.345-3-.517 0-2.412-1.29-4.218-2.875-1.807-1.585-7.763-5.025-13.219-7.625-10.155-4.84-17.339-10.808-20.562-17.062-.825-1.601-2.963-5.16-4.75-7.907-1.788-2.747-3.25-5.515-3.25-6.156 0-4.522 10.435.184 13.718 6.188 1.682 3.075 3.63 4.766 7.938 6.875 5.567 2.726 8.129 2.706 9.062-.094.534-1.6-12.282-18.072-15.218-19.563-3.081-1.563-13.5-13.066-13.5-14.906 0-.895-.927-2.245-2.032-3-1.104-.755-2.92-4.075-4.062-7.375-1.142-3.3-2.855-6.9-3.782-8-2.86-3.396-6.125-8.377-6.125-9.312 0-.49-1.269-2.637-2.812-4.782-3.467-4.818-5.635-10.211-7.687-19.062-.87-3.75-2.273-8.8-3.094-11.219-1.177-3.465-1.256-5.113-.375-7.781 1.036-3.141.913-3.58-1.844-6.156-2.887-2.697-3.004-3.143-3.625-14.75-.351-6.574-.887-15.313-1.187-19.438-.906-12.435-.245-21 1.593-21zm283.375 34.531c.08-.024.17-.009.281 0 .45.038 1.188.356 2.313.938 1.615.835 3.229 2.003 3.594 2.594 1.019 1.648.238 1.638-3.281-.032-1.776-.842-3.238-2.11-3.25-2.812-.006-.367.102-.614.343-.688zm-157.343 23.469c-1.65 0-3 .45-3 1s1.35 1 3 1 3-.45 3-1-1.35-1-3-1zm55.218 16.844c-.314.046-.6.194-.812.406-.338.338-.276 2.11.125 3.938.487 2.22 3.21 5.883 8.25 11.062 4.145 4.26 7.75 7.532 8 7.281.663-.663-2.714-8.763-4.469-10.719-.824-.918-2.513-3.618-3.781-6-1.742-3.27-5.028-5.902-7-5.968-.114-.004-.208-.016-.313 0zm501.469 49.625c-3.46.118-6.687.96-6.687 2 0 .288 3.374.531 7.5.531 8.464 0 9.985-1.426 2.593-2.406-1.092-.145-2.253-.165-3.406-.125zm-497.875 2.531c-.848.083-.655.516.688 2 2.04 2.254 2.85 2.087 1.906-.375-.347-.904-1.336-1.625-2.188-1.625-.163 0-.285-.012-.406 0zm440.625 1.594c1.572-.057 2.688 1.356 3.563 4.406.712 2.484.628 3.61-.282 4.188-1.752 1.112-5.485.998-6.219-.188-.34-.55-1.336-1-2.218-1-2.728 0-9.281-3.308-9.281-4.687 0-1.49.841-1.679 6.656-1.375 2.289.119 5.022-.225 6.062-.782.635-.34 1.195-.543 1.719-.562zm-623.812 72.75c.761.07 1.375 1.006 1.375 2.312 0 .734-.416 1.344-.907 1.344-1.226 0-2.196-2.814-1.187-3.437.131-.082.246-.158.375-.188.113-.026.235-.041.343-.031zm869.437 2.625c.37-.007.664.032.906.125-.289-.041-.644-.045-1.094-.031-.448.013-.892.045-1.312.093a8.485 8.485 0 0 1 1.5-.187zm-629.687 8.031c.777 0 8.565 4.271 13.343 7.313 2.327 1.48 4.6 2.687 5.063 2.687.462 0 2.62 1.493 4.781 3.313 2.162 1.82 5.654 4.366 7.781 5.656s5.854 4.02 8.25 6.094c2.396 2.073 5.26 4.083 6.375 4.437 1.115.354 2.031 1.422 2.031 2.375 0 .953.528 2.246 1.188 2.906.933.934.878 1.206-.25 1.157-2.562-.113-5.662-1.718-6.25-3.25-.314-.82-2.05-1.825-3.875-2.22-4.438-.957-9.696-3.69-19.312-10.03-8.539-5.63-10.174-7.035-15.22-12.938-3-3.511-5.087-7.5-3.906-7.5zm-166.188 8.156c-1.853.161-3.071 1.98-3.687 5.438-.576 3.23 1.8 6.856 5.062 7.687 8.737 2.228 11.25-4.261 4.063-10.5-2.163-1.877-3.997-2.75-5.438-2.625zm795.094.719zm-814.281 7.438c-.515.126-.5 1.053-.063 3.437.39 2.138 1.068 4.457 1.5 5.156.6.97-.241 1.203-3.562.938-5.405-.432-6.16 1.47-2.375 5.968 2.975 3.537 15.596 10.882 23 13.375 6.4 2.156 6.5 2.14 6.5 0 0-.99.562-2.341 1.25-3.03 1-1.004.814-1.612-.938-2.97-1.204-.932-2.486-2.902-2.844-4.375-.774-3.185-2.861-4.212-5.593-2.75-2.302 1.232-7.17.396-11.125-1.906-3.554-2.067-3.48-3.727.25-5.656 1.65-.853 3-1.995 3-2.531 0-1.477-3.83-4.969-5.438-4.969-.78 0-2.073-.255-2.875-.562-.298-.115-.516-.168-.687-.125zm-13.97 3.812c-.638.098-1.03.607-1.03 1.375 0 1.03.655 1.523 1.75 1.313 2.206-.425 2.136-2.196-.094-2.625-.128-.025-.228-.06-.344-.063-.101-.002-.19-.014-.281 0zm250.407 15.875c.243 0 .723.45 1.063 1 .34.55.145 1-.438 1-.582 0-1.062-.45-1.062-1s.194-1 .437-1zm555.094 1c.805 0 1.469.9 1.469 2 0 1.474-.663 2-2.532 2-2.225 0-2.408-.244-1.469-2 .59-1.1 1.726-2 2.532-2zm2.094 22.844a81.624 81.624 0 0 1 2.093 0c3.276.026 6.036.264 7.469.718.934.297 1.986 1.467 2.344 2.594.31.976.599 1.474.875 1.469-.375.469-.827.76-1.438 1.063-1.597.789-2.62 1.681-5.031 5.03.035-.89-.424-1.718-1.344-1.718-.769 0-3.957 1.35-7.094 3-3.635 1.913-7.23 3.019-9.874 3.031-2.282.011-7.276.465-11.126 1.032-5.134.755-10.33.672-19.5-.282-15.642-1.626-23.252-1.371-35.687 1.125-23.867 4.791-40.812 5.452-40.812 1.594 0-1.716.922-2.122 6.5-2.781 3.575-.423 9.65-1.224 13.5-1.782 3.85-.557 9.7-1.215 13-1.468 14.864-1.143 18.45-1.582 25-3.032 6.89-1.525 10.87-2.198 29.5-5.062 5.224-.803 12.874-2.194 17-3.094 3.84-.838 9.592-1.354 14.624-1.437zm-845.094 6c1.352.055 3.858 2.315 8.406 6.906 4.438 4.48 8.063 8.596 8.063 9.156 0 .56-.874 1.493-1.938 2.063-2.407 1.288-2.802 1.28-3.594 0-.349-.565-1.174-.902-1.843-.75-.67.152-3.349-1.823-5.938-4.375-3.77-3.716-4.7-5.31-4.687-8 .014-3.088.283-4.773 1.28-4.969.081-.016.16-.035.25-.031zm849.437 7.718c-.775 1.134-1.498 2.175-2.531 3.72-.743 1.11-1.42 1.984-2.031 2.655.61-.704 1.26-1.64 2-2.812a35.603 35.603 0 0 1 2.562-3.562zm-827.031 18.5c1.59-.052 3.486.48 5.094 1.782 1.286 1.041 1.969 2.341 1.562 3-1.125 1.82-7.093 1.381-8.937-.657-2.124-2.346-.369-4.037 2.281-4.125zm638.563 1.875c3.611-.088 6.923.519 11.5 1.594 1.387.326 2.567.582 3.687.782-.313-.047-.617-.102-.937-.157-3.74-.64-10.519-1.156-15.063-1.156-7.42 0-10.032.587-25.719 5.844a257.604 257.604 0 0 0-24.187 9.468 262.435 262.435 0 0 1 5.875-2.562c5.625-2.395 11.266-4.582 16.844-6.469 15.107-5.11 21.98-7.196 28-7.343zm36.406 1.47c-2.1.286-4.078.567-5.875.78-3.594.428-6.38.634-8.938.625 2.086-.042 4.528-.244 7.907-.593 2.041-.211 4.365-.48 6.906-.813zm-699.031 1.718c1.798-.015 4.182.358 7.062 1.219 5.694 1.702 6.125 3.192 1.5 5.125-5.158 2.155-7.741 1.93-10.406-.907-3.177-3.381-2.113-5.403 1.843-5.437zm568.53 9.875c.574-.014 1.18-.002 1.845 0 7.321.018 24.813 2.291 26.718 3.469 2.173 1.342.88 3.47-2.719 4.468-5.837 1.622-13.138 1.115-20.343-1.406-12.383-4.332-14.096-6.323-5.5-6.531z" style="fill:#a4061a" transform="rotate(15.224 -2.746 484.179)scale(.0767)"/><path d="m-1796.375-86.562.219 59.468c.12 32.702.371 59.69.562 60 .766 1.239 2.065 327.563 1.657 416.532-.091 19.8.078 49.5.375 66s1.206 104.25 2 195c.793 90.75 1.68 178.5 1.968 195 .773 44.192.731 139.729-.062 149.25l-.687 8.25h10.187l-.437-26.25c-.231-14.438-.666-59.1-.97-99.25-.302-40.15-.785-81.1-1.062-91-.276-9.9-.673-51.3-.906-92-.407-71.003-.903-110.082-2.25-184-.341-18.7-.694-58.3-.812-88-.118-29.7-.505-60.075-.844-67.5-.58-12.692.07-17.648 2.062-15.657.994.994 1.258 6.599 1.72 37.656.199 13.475.672 45.567 1.062 71.313l.718 46.813 2.282.843c1.254.477 2.535 1.99 2.875 3.344.635 2.53 3.089 4.152 4.75 3.125.515-.318.848-2.176.718-4.094-.297-4.417 1.049-5.411 7.688-5.75 1.696-.086 2.022-.916 2.281-5.437.394-6.896-.899-8.665-4.844-6.625-3.403 1.76-5.589 1.868-6.53.343-.382-.616-.806-38.753-.97-84.75-.163-45.996-.772-115.35-1.343-154.124-.571-38.775-1.331-96.825-1.688-129s-.773-58.746-.937-59.032c-.308-.536-1.875-127.102-1.782-143.968.03-5.225.135-18.116.25-28.657.134-12.221-.185-19.9-.875-21.187-.594-1.111-1.062-2.958-1.062-4.094 0-1.136-.442-2.062-.969-2.062-.566 0-1.117 7.898-1.344 19.25-.211 10.587-.924 31.4-1.593 46.25-1.081 24.003-1.009 218.975.156 378.656.205 28.096-.102 34.335-1.688 32.75-.692-.693-1.55-72.719-2.062-173.906-.486-96.104-1.28-183.62-2.375-260l-.625-43.5h-4.813zm14.75 144.937c.066.009.14.12.219.313.277.687.277 1.812 0 2.5-.278.687-.5.124-.5-1.25 0-.86.084-1.414.219-1.532.02-.017.04-.034.061-.031zm.125 6.969c.324-.082.487.714.781 2.625.497 3.218.997 28.71 2.219 115.469.264 18.7.667 39.175.906 45.5.24 6.325.755 76.187 1.125 155.25.371 79.062.43 143.75.156 143.75-1.18 0-1.606-10.661-1.718-43.5-.144-41.789-.839-65.91-2.031-70-.482-1.65-1.13-40.125-1.438-85.5-.308-45.375-.859-122.599-1.219-171.594-.454-61.858-.327-89.658.406-90.969.35-.623.619-.982.813-1.031z" style="fill:#4e4964" transform="rotate(15.224 -60.075 771.503)scale(.0767)"/><path d="M605.714 535.22c0 124.658-101.055 225.714-225.714 225.714-124.659 0-225.714-101.056-225.714-225.715 0-124.658 101.055-225.714 225.714-225.714 124.659 0 225.714 101.056 225.714 225.714z" style="fill:url(#c);fill-opacity:1;stroke:none" transform="rotate(-132.294 60.744 92.28)scale(.17188)"/><path d="M237.143 545.934c0 74.558-60.442 135-135 135-74.559 0-135-60.442-135-135 0-74.559 60.441-135 135-135 74.558 0 135 60.441 135 135z" style="opacity:.87614698;fill:url(#e);fill-opacity:1;stroke:none" transform="translate(28.73 -6.056)scale(.14683)"/></svg>