<?xml version="1.0" encoding="UTF-8" standalone="no"?>
<!-- Created with Sodipodi ("http://www.sodipodi.com/") -->

<svg
   width="128"
   height="128"
   viewBox="0 0 546.13359 546.13333"
   overflow="visible"
   enable-background="new 0 0 256 256"
   xml:space="preserve"
   id="svg548"
   sodipodi:version="0.32"
   sodipodi:docname="semantic.svg"
   version="1.1"
   inkscape:version="1.2.2 (b0a8486541, 2022-12-01)"
   style="overflow:visible"
   xmlns:inkscape="http://www.inkscape.org/namespaces/inkscape"
   xmlns:sodipodi="http://sodipodi.sourceforge.net/DTD/sodipodi-0.dtd"
   xmlns:xlink="http://www.w3.org/1999/xlink"
   xmlns="http://www.w3.org/2000/svg"
   xmlns:svg="http://www.w3.org/2000/svg"><defs
     id="defs654"><radialGradient
       r="135"
       fy="545.93359"
       fx="102.14286"
       cy="545.93359"
       cx="102.14286"
       gradientUnits="userSpaceOnUse"
       id="radialGradient3136"
       xlink:href="#linearGradient18791-8"
       inkscape:collect="always" /><linearGradient
       y2="535.2193"
       x2="605.71429"
       y1="535.2193"
       x1="154.28572"
       gradientUnits="userSpaceOnUse"
       id="linearGradient3134"
       xlink:href="#linearGradient15834-3"
       inkscape:collect="always" /><radialGradient
       r="135"
       fy="545.93359"
       fx="102.14286"
       cy="545.93359"
       cx="102.14286"
       gradientUnits="userSpaceOnUse"
       id="radialGradient3132"
       xlink:href="#linearGradient20749-8"
       inkscape:collect="always" /><radialGradient
       r="135"
       fy="545.93359"
       fx="102.14286"
       cy="545.93359"
       cx="102.14286"
       gradientUnits="userSpaceOnUse"
       id="radialGradient3112"
       xlink:href="#linearGradient18791-8"
       inkscape:collect="always" /><radialGradient
       r="135"
       fy="545.93359"
       fx="102.14286"
       cy="545.93359"
       cx="102.14286"
       gradientUnits="userSpaceOnUse"
       id="radialGradient3108"
       xlink:href="#linearGradient20749-8"
       inkscape:collect="always" /><radialGradient
       r="135"
       fy="545.93359"
       fx="102.14286"
       cy="545.93359"
       cx="102.14286"
       gradientUnits="userSpaceOnUse"
       id="radialGradient3088"
       xlink:href="#linearGradient18791-8"
       inkscape:collect="always" /><radialGradient
       r="135"
       fy="545.93359"
       fx="102.14286"
       cy="545.93359"
       cx="102.14286"
       gradientUnits="userSpaceOnUse"
       id="radialGradient3084"
       xlink:href="#linearGradient20749-8"
       inkscape:collect="always" /><linearGradient
       inkscape:collect="always"
       id="linearGradient20749-8"><stop
         style="stop-color: rgb(153, 153, 153); stop-opacity: 1;"
         offset="0"
         id="stop20751-96" /><stop
         style="stop-color: rgb(153, 153, 153); stop-opacity: 0;"
         offset="1"
         id="stop20753-4" /></linearGradient><linearGradient
       id="linearGradient15834-3"><stop
         id="stop15842-3"
         offset="0"
         style="stop-color:#772b00;stop-opacity:1;" /><stop
         style="stop-color:#da441b;stop-opacity:1;"
         offset="0.5"
         id="stop15848-8" /><stop
         id="stop15850-6"
         offset="0.75"
         style="stop-color: rgb(210, 64, 15); stop-opacity: 1;" /><stop
         style="stop-color: rgb(212, 67, 22); stop-opacity: 0.614583;"
         offset="0.9375"
         id="stop15852-0" /><stop
         style="stop-color:#c33900;stop-opacity:0.21875;"
         offset="1"
         id="stop15838-4" /></linearGradient><linearGradient
       inkscape:collect="always"
       id="linearGradient18791-8"><stop
         style="stop-color: rgb(255, 255, 255); stop-opacity: 1;"
         offset="0"
         id="stop18793-8" /><stop
         style="stop-color: rgb(255, 255, 255); stop-opacity: 0;"
         offset="1"
         id="stop18795-9" /></linearGradient><radialGradient
       inkscape:collect="always"
       xlink:href="#linearGradient20749-8"
       id="radialGradient3706"
       gradientUnits="userSpaceOnUse"
       cx="102.14286"
       cy="545.93359"
       fx="102.14286"
       fy="545.93359"
       r="135" /><radialGradient
       inkscape:collect="always"
       xlink:href="#linearGradient18791-8"
       id="radialGradient3710"
       gradientUnits="userSpaceOnUse"
       cx="102.14286"
       cy="545.93359"
       fx="102.14286"
       fy="545.93359"
       r="135" /><linearGradient
       inkscape:collect="always"
       xlink:href="#linearGradient15834-3"
       id="linearGradient1431"
       gradientUnits="userSpaceOnUse"
       x1="154.28572"
       y1="535.2193"
       x2="605.71429"
       y2="535.2193" /><linearGradient
       inkscape:collect="always"
       xlink:href="#linearGradient15834-3"
       id="linearGradient1433"
       gradientUnits="userSpaceOnUse"
       x1="154.28572"
       y1="535.2193"
       x2="605.71429"
       y2="535.2193" /><linearGradient
       inkscape:collect="always"
       xlink:href="#linearGradient15834-3"
       id="linearGradient1435"
       gradientUnits="userSpaceOnUse"
       x1="154.28572"
       y1="535.2193"
       x2="605.71429"
       y2="535.2193" /><radialGradient
       inkscape:collect="always"
       xlink:href="#linearGradient20749-8"
       id="radialGradient1637"
       gradientUnits="userSpaceOnUse"
       cx="102.14286"
       cy="545.93359"
       fx="102.14286"
       fy="545.93359"
       r="135" /><linearGradient
       inkscape:collect="always"
       xlink:href="#linearGradient15834-3"
       id="linearGradient1639"
       gradientUnits="userSpaceOnUse"
       x1="154.28572"
       y1="535.2193"
       x2="605.71429"
       y2="535.2193" /><radialGradient
       inkscape:collect="always"
       xlink:href="#linearGradient18791-8"
       id="radialGradient1641"
       gradientUnits="userSpaceOnUse"
       cx="102.14286"
       cy="545.93359"
       fx="102.14286"
       fy="545.93359"
       r="135" /><radialGradient
       inkscape:collect="always"
       xlink:href="#linearGradient20749-8"
       id="radialGradient1643"
       gradientUnits="userSpaceOnUse"
       cx="102.14286"
       cy="545.93359"
       fx="102.14286"
       fy="545.93359"
       r="135" /><linearGradient
       inkscape:collect="always"
       xlink:href="#linearGradient15834-3"
       id="linearGradient1645"
       gradientUnits="userSpaceOnUse"
       x1="154.28572"
       y1="535.2193"
       x2="605.71429"
       y2="535.2193" /><radialGradient
       inkscape:collect="always"
       xlink:href="#linearGradient18791-8"
       id="radialGradient1647"
       gradientUnits="userSpaceOnUse"
       cx="102.14286"
       cy="545.93359"
       fx="102.14286"
       fy="545.93359"
       r="135" /><radialGradient
       inkscape:collect="always"
       xlink:href="#linearGradient20749-8"
       id="radialGradient1649"
       gradientUnits="userSpaceOnUse"
       cx="102.14286"
       cy="545.93359"
       fx="102.14286"
       fy="545.93359"
       r="135" /><linearGradient
       inkscape:collect="always"
       xlink:href="#linearGradient15834-3"
       id="linearGradient1651"
       gradientUnits="userSpaceOnUse"
       x1="154.28572"
       y1="535.2193"
       x2="605.71429"
       y2="535.2193" /><radialGradient
       inkscape:collect="always"
       xlink:href="#linearGradient18791-8"
       id="radialGradient1653"
       gradientUnits="userSpaceOnUse"
       cx="102.14286"
       cy="545.93359"
       fx="102.14286"
       fy="545.93359"
       r="135" /><radialGradient
       inkscape:collect="always"
       xlink:href="#linearGradient20749-8"
       id="radialGradient1655"
       gradientUnits="userSpaceOnUse"
       cx="102.14286"
       cy="545.93359"
       fx="102.14286"
       fy="545.93359"
       r="135" /><linearGradient
       inkscape:collect="always"
       xlink:href="#linearGradient15834-3"
       id="linearGradient1657"
       gradientUnits="userSpaceOnUse"
       x1="154.28572"
       y1="535.2193"
       x2="605.71429"
       y2="535.2193" /><radialGradient
       inkscape:collect="always"
       xlink:href="#linearGradient18791-8"
       id="radialGradient1659"
       gradientUnits="userSpaceOnUse"
       cx="102.14286"
       cy="545.93359"
       fx="102.14286"
       fy="545.93359"
       r="135" /></defs><sodipodi:namedview
     id="base"
     showgrid="false"
     inkscape:zoom="2.7812867"
     inkscape:cx="23.730024"
     inkscape:cy="42.606179"
     inkscape:window-width="1256"
     inkscape:window-height="869"
     inkscape:window-x="26"
     inkscape:window-y="23"
     inkscape:window-maximized="0"
     inkscape:current-layer="svg548"
     pagecolor="#505050"
     bordercolor="#ffffff"
     borderopacity="1"
     inkscape:showpageshadow="0"
     inkscape:pageopacity="0"
     inkscape:pagecheckerboard="1"
     inkscape:deskcolor="#505050"
     showguides="false" /><g
     id="g1749"
     transform="matrix(1.1420791,0,0,1.1420791,-1.9735108,0.68742015)"><g
       inkscape:label="Layer 1"
       id="layer1"
       transform="matrix(2.8831888,0,0,2.8831888,0.2615335,-2758.2044)"><g
         transform="matrix(0.71799222,0,0,0.73350513,16.638492,939.07509)"
         id="g4746" /><g
         transform="matrix(2.3933074,0,0,2.4450171,-64.255298,781.13187)"
         id="g4767" /><g
         transform="matrix(2.3933074,0,0,2.4450171,-6.8159205,781.13187)"
         id="g4847" /><g
         transform="matrix(2.3933074,0,0,2.4450171,-33.142302,732.23153)"
         id="g4855" /><g
         id="g269"
         transform="matrix(1.280664,0,0,1.2704843,2.4012848,-255.72115)"><path
           d="m 90.353025,1004.407 a 42.25398,42.634099 0 0 1 -84.5079603,0 42.25398,42.634099 0 1 1 84.5079603,0 z"
           style="color:#000000;fill:none;stroke:#ff6500;stroke-width:10;stroke-miterlimit:4;stroke-dasharray:none;stroke-opacity:1"
           id="path10779"
           inkscape:connector-curvature="0" /><g
           style="overflow:visible"
           id="g3995"
           transform="matrix(0.510006,0,0,0.510006,14.303259,971.84725)"><g
             inkscape:label="Livello 1"
             id="layer1-1"
             transform="matrix(0.47009421,0,0,0.47009421,3.867397,33.172591)"><g
               inkscape:label="ombre"
               id="layer5"
               transform="matrix(0.51188693,0,0,0.58594337,-5.936074,-60.575397)" /><g
               id="g2841"
               inkscape:label="Layer 1"
               transform="matrix(0.51188693,0,0,0.58594337,-5.936074,-60.575397)" /><g
               inkscape:label="bureau"
               id="layer2"
               transform="matrix(0.51188693,0,0,0.58594337,-5.936074,-60.575397)" /><g
               inkscape:label="barre"
               id="layer3"
               transform="matrix(0.51188693,0,0,0.58594337,-5.936074,-60.575397)" /><g
               inkscape:label="fichier"
               id="layer4"
               transform="matrix(0.51188693,0,0,0.58594337,-5.936074,-60.575397)" /><circle
               transform="matrix(0.34958936,-0.11438929,0.155088,0.25785079,-54.058938,-75.419406)"
               id="path3453-7"
               style="fill:url(#radialGradient3706);fill-opacity:1;stroke:none"
               inkscape:transform-center-y="10.305508"
               inkscape:transform-center-x="-6.1984247"
               cx="102.14286"
               cy="545.93359"
               r="135" /><circle
               style="fill:url(#linearGradient1431);fill-opacity:1;stroke:none"
               id="path3455-6"
               transform="matrix(-0.16160701,-0.17763395,0.17763395,-0.16160701,31.47115,156.65493)"
               cx="380"
               cy="535.2193"
               r="225.71428" /><circle
               style="opacity:0.876147;fill:url(#radialGradient3710);fill-opacity:1;stroke:none"
               id="path3457-4"
               transform="matrix(0.24014714,0,0,0.24014714,27.396331,-143.71285)"
               cx="102.14286"
               cy="545.93359"
               r="135" /></g><g
             transform="matrix(0.47009421,0,0,0.47009421,63.867397,33.172591)"
             id="g3066"
             inkscape:label="Livello 1"><g
               transform="matrix(0.51188693,0,0,0.58594337,-5.936074,-60.575397)"
               id="g3068"
               inkscape:label="ombre" /><g
               transform="matrix(0.51188693,0,0,0.58594337,-5.936074,-60.575397)"
               inkscape:label="Layer 1"
               id="g3070" /><g
               transform="matrix(0.51188693,0,0,0.58594337,-5.936074,-60.575397)"
               id="g3072"
               inkscape:label="bureau" /><g
               transform="matrix(0.51188693,0,0,0.58594337,-5.936074,-60.575397)"
               id="g3074"
               inkscape:label="barre" /><g
               transform="matrix(0.51188693,0,0,0.58594337,-5.936074,-60.575397)"
               id="g3076"
               inkscape:label="fichier" /><circle
               inkscape:transform-center-x="-6.1984247"
               inkscape:transform-center-y="10.305508"
               style="fill:url(#radialGradient3084);fill-opacity:1;stroke:none"
               id="path3078"
               transform="matrix(0.34958936,-0.11438929,0.155088,0.25785079,-54.058938,-75.419406)"
               cx="102.14286"
               cy="545.93359"
               r="135" /><circle
               transform="matrix(-0.16160701,-0.17763395,0.17763395,-0.16160701,31.47115,156.65493)"
               id="path3080"
               style="fill:url(#linearGradient1433);fill-opacity:1;stroke:none"
               cx="380"
               cy="535.2193"
               r="225.71428" /><circle
               transform="matrix(0.24014714,0,0,0.24014714,27.396331,-143.71285)"
               id="path3082"
               style="opacity:0.876147;fill:url(#radialGradient3088);fill-opacity:1;stroke:none"
               cx="102.14286"
               cy="545.93359"
               r="135" /></g><g
             inkscape:label="Livello 1"
             id="g3090"
             transform="matrix(0.47009421,0,0,0.47009421,63.867397,91.172591)"><g
               inkscape:label="ombre"
               id="g3092"
               transform="matrix(0.51188693,0,0,0.58594337,-5.936074,-60.575397)" /><g
               id="g3094"
               inkscape:label="Layer 1"
               transform="matrix(0.51188693,0,0,0.58594337,-5.936074,-60.575397)" /><g
               inkscape:label="bureau"
               id="g3096"
               transform="matrix(0.51188693,0,0,0.58594337,-5.936074,-60.575397)" /><g
               inkscape:label="barre"
               id="g3098"
               transform="matrix(0.51188693,0,0,0.58594337,-5.936074,-60.575397)" /><g
               inkscape:label="fichier"
               id="g3100"
               transform="matrix(0.51188693,0,0,0.58594337,-5.936074,-60.575397)" /><circle
               transform="matrix(0.34958936,-0.11438929,0.155088,0.25785079,-54.058938,-75.419406)"
               id="path3102"
               style="fill:url(#radialGradient3108);fill-opacity:1;stroke:none"
               inkscape:transform-center-y="10.305508"
               inkscape:transform-center-x="-6.1984247"
               cx="102.14286"
               cy="545.93359"
               r="135" /><circle
               style="fill:url(#linearGradient1435);fill-opacity:1;stroke:none"
               id="path3104"
               transform="matrix(-0.16160701,-0.17763395,0.17763395,-0.16160701,31.47115,156.65493)"
               cx="380"
               cy="535.2193"
               r="225.71428" /><circle
               style="opacity:0.876147;fill:url(#radialGradient3112);fill-opacity:1;stroke:none"
               id="path3106"
               transform="matrix(0.24014714,0,0,0.24014714,27.396331,-143.71285)"
               cx="102.14286"
               cy="545.93359"
               r="135" /></g><g
             transform="matrix(0.47009421,0,0,0.47009421,3.867397,91.172591)"
             id="g3114"
             inkscape:label="Livello 1"><g
               transform="matrix(0.51188693,0,0,0.58594337,-5.936074,-60.575397)"
               id="g3116"
               inkscape:label="ombre" /><g
               transform="matrix(0.51188693,0,0,0.58594337,-5.936074,-60.575397)"
               inkscape:label="Layer 1"
               id="g3118" /><g
               transform="matrix(0.51188693,0,0,0.58594337,-5.936074,-60.575397)"
               id="g3120"
               inkscape:label="bureau" /><g
               transform="matrix(0.51188693,0,0,0.58594337,-5.936074,-60.575397)"
               id="g3122"
               inkscape:label="barre" /><g
               transform="matrix(0.51188693,0,0,0.58594337,-5.936074,-60.575397)"
               id="g3124"
               inkscape:label="fichier" /><circle
               inkscape:transform-center-x="-6.1984247"
               inkscape:transform-center-y="10.305508"
               style="fill:url(#radialGradient3132);fill-opacity:1;stroke:none"
               id="path3126"
               transform="matrix(0.34958936,-0.11438929,0.155088,0.25785079,-54.058938,-75.419406)"
               cx="102.14286"
               cy="545.93359"
               r="135" /><circle
               transform="matrix(-0.16160701,-0.17763395,0.17763395,-0.16160701,31.47115,156.65493)"
               id="path3128"
               style="fill:url(#linearGradient3134);fill-opacity:1;stroke:none"
               cx="380"
               cy="535.2193"
               r="225.71428" /><circle
               transform="matrix(0.24014714,0,0,0.24014714,27.396331,-143.71285)"
               id="path3130"
               style="opacity:0.876147;fill:url(#radialGradient3136);fill-opacity:1;stroke:none"
               cx="102.14286"
               cy="545.93359"
               r="135" /></g></g></g></g><g
       inkscape:label="Layer 1"
       id="g1635"
       transform="matrix(2.8831888,0,0,2.8831888,114.0638,-2649.8852)"><g
         transform="matrix(0.71799222,0,0,0.73350513,16.638492,939.07509)"
         id="g1549" /><g
         transform="matrix(2.3933074,0,0,2.4450171,-64.255298,781.13187)"
         id="g1551" /><g
         transform="matrix(2.3933074,0,0,2.4450171,-6.8159205,781.13187)"
         id="g1553" /><g
         transform="matrix(2.3933074,0,0,2.4450171,-33.142302,732.23153)"
         id="g1555" /><g
         id="g1633"
         transform="matrix(1.280664,0,0,1.2704843,2.4012848,-255.72115)"><path
           d="m 90.353025,1004.407 a 42.25398,42.634099 0 0 1 -84.5079603,0 42.25398,42.634099 0 1 1 84.5079603,0 z"
           style="color:#000000;fill:none;stroke:#ff6500;stroke-width:10;stroke-miterlimit:4;stroke-dasharray:none;stroke-opacity:1"
           id="path1557"
           inkscape:connector-curvature="0" /><g
           style="overflow:visible"
           id="g1631"
           transform="matrix(0.510006,0,0,0.510006,14.303259,971.84725)"><g
             inkscape:label="Livello 1"
             id="g1575"
             transform="matrix(0.47009421,0,0,0.47009421,3.867397,33.172591)"><g
               inkscape:label="ombre"
               id="g1559"
               transform="matrix(0.51188693,0,0,0.58594337,-5.936074,-60.575397)" /><g
               id="g1561"
               inkscape:label="Layer 1"
               transform="matrix(0.51188693,0,0,0.58594337,-5.936074,-60.575397)" /><g
               inkscape:label="bureau"
               id="g1563"
               transform="matrix(0.51188693,0,0,0.58594337,-5.936074,-60.575397)" /><g
               inkscape:label="barre"
               id="g1565"
               transform="matrix(0.51188693,0,0,0.58594337,-5.936074,-60.575397)" /><g
               inkscape:label="fichier"
               id="g1567"
               transform="matrix(0.51188693,0,0,0.58594337,-5.936074,-60.575397)" /><circle
               transform="matrix(0.34958936,-0.11438929,0.155088,0.25785079,-54.058938,-75.419406)"
               id="circle1569"
               style="fill:url(#radialGradient1637);fill-opacity:1;stroke:none"
               inkscape:transform-center-y="10.305508"
               inkscape:transform-center-x="-6.1984247"
               cx="102.14286"
               cy="545.93359"
               r="135" /><circle
               style="fill:url(#linearGradient1639);fill-opacity:1;stroke:none"
               id="circle1571"
               transform="matrix(-0.16160701,-0.17763395,0.17763395,-0.16160701,31.47115,156.65493)"
               cx="380"
               cy="535.2193"
               r="225.71428" /><circle
               style="opacity:0.876147;fill:url(#radialGradient1641);fill-opacity:1;stroke:none"
               id="circle1573"
               transform="matrix(0.24014714,0,0,0.24014714,27.396331,-143.71285)"
               cx="102.14286"
               cy="545.93359"
               r="135" /></g><g
             transform="matrix(0.47009421,0,0,0.47009421,63.867397,33.172591)"
             id="g1593"
             inkscape:label="Livello 1"><g
               transform="matrix(0.51188693,0,0,0.58594337,-5.936074,-60.575397)"
               id="g1577"
               inkscape:label="ombre" /><g
               transform="matrix(0.51188693,0,0,0.58594337,-5.936074,-60.575397)"
               inkscape:label="Layer 1"
               id="g1579" /><g
               transform="matrix(0.51188693,0,0,0.58594337,-5.936074,-60.575397)"
               id="g1581"
               inkscape:label="bureau" /><g
               transform="matrix(0.51188693,0,0,0.58594337,-5.936074,-60.575397)"
               id="g1583"
               inkscape:label="barre" /><g
               transform="matrix(0.51188693,0,0,0.58594337,-5.936074,-60.575397)"
               id="g1585"
               inkscape:label="fichier" /><circle
               inkscape:transform-center-x="-6.1984247"
               inkscape:transform-center-y="10.305508"
               style="fill:url(#radialGradient1643);fill-opacity:1;stroke:none"
               id="circle1587"
               transform="matrix(0.34958936,-0.11438929,0.155088,0.25785079,-54.058938,-75.419406)"
               cx="102.14286"
               cy="545.93359"
               r="135" /><circle
               transform="matrix(-0.16160701,-0.17763395,0.17763395,-0.16160701,31.47115,156.65493)"
               id="circle1589"
               style="fill:url(#linearGradient1645);fill-opacity:1;stroke:none"
               cx="380"
               cy="535.2193"
               r="225.71428" /><circle
               transform="matrix(0.24014714,0,0,0.24014714,27.396331,-143.71285)"
               id="circle1591"
               style="opacity:0.876147;fill:url(#radialGradient1647);fill-opacity:1;stroke:none"
               cx="102.14286"
               cy="545.93359"
               r="135" /></g><g
             inkscape:label="Livello 1"
             id="g1611"
             transform="matrix(0.47009421,0,0,0.47009421,63.867397,91.172591)"><g
               inkscape:label="ombre"
               id="g1595"
               transform="matrix(0.51188693,0,0,0.58594337,-5.936074,-60.575397)" /><g
               id="g1597"
               inkscape:label="Layer 1"
               transform="matrix(0.51188693,0,0,0.58594337,-5.936074,-60.575397)" /><g
               inkscape:label="bureau"
               id="g1599"
               transform="matrix(0.51188693,0,0,0.58594337,-5.936074,-60.575397)" /><g
               inkscape:label="barre"
               id="g1601"
               transform="matrix(0.51188693,0,0,0.58594337,-5.936074,-60.575397)" /><g
               inkscape:label="fichier"
               id="g1603"
               transform="matrix(0.51188693,0,0,0.58594337,-5.936074,-60.575397)" /><circle
               transform="matrix(0.34958936,-0.11438929,0.155088,0.25785079,-54.058938,-75.419406)"
               id="circle1605"
               style="fill:url(#radialGradient1649);fill-opacity:1;stroke:none"
               inkscape:transform-center-y="10.305508"
               inkscape:transform-center-x="-6.1984247"
               cx="102.14286"
               cy="545.93359"
               r="135" /><circle
               style="fill:url(#linearGradient1651);fill-opacity:1;stroke:none"
               id="circle1607"
               transform="matrix(-0.16160701,-0.17763395,0.17763395,-0.16160701,31.47115,156.65493)"
               cx="380"
               cy="535.2193"
               r="225.71428" /><circle
               style="opacity:0.876147;fill:url(#radialGradient1653);fill-opacity:1;stroke:none"
               id="circle1609"
               transform="matrix(0.24014714,0,0,0.24014714,27.396331,-143.71285)"
               cx="102.14286"
               cy="545.93359"
               r="135" /></g><g
             transform="matrix(0.47009421,0,0,0.47009421,3.867397,91.172591)"
             id="g1629"
             inkscape:label="Livello 1"><g
               transform="matrix(0.51188693,0,0,0.58594337,-5.936074,-60.575397)"
               id="g1613"
               inkscape:label="ombre" /><g
               transform="matrix(0.51188693,0,0,0.58594337,-5.936074,-60.575397)"
               inkscape:label="Layer 1"
               id="g1615" /><g
               transform="matrix(0.51188693,0,0,0.58594337,-5.936074,-60.575397)"
               id="g1617"
               inkscape:label="bureau" /><g
               transform="matrix(0.51188693,0,0,0.58594337,-5.936074,-60.575397)"
               id="g1619"
               inkscape:label="barre" /><g
               transform="matrix(0.51188693,0,0,0.58594337,-5.936074,-60.575397)"
               id="g1621"
               inkscape:label="fichier" /><circle
               inkscape:transform-center-x="-6.1984247"
               inkscape:transform-center-y="10.305508"
               style="fill:url(#radialGradient1655);fill-opacity:1;stroke:none"
               id="circle1623"
               transform="matrix(0.34958936,-0.11438929,0.155088,0.25785079,-54.058938,-75.419406)"
               cx="102.14286"
               cy="545.93359"
               r="135" /><circle
               transform="matrix(-0.16160701,-0.17763395,0.17763395,-0.16160701,31.47115,156.65493)"
               id="circle1625"
               style="fill:url(#linearGradient1657);fill-opacity:1;stroke:none"
               cx="380"
               cy="535.2193"
               r="225.71428" /><circle
               transform="matrix(0.24014714,0,0,0.24014714,27.396331,-143.71285)"
               id="circle1627"
               style="opacity:0.876147;fill:url(#radialGradient1659);fill-opacity:1;stroke:none"
               cx="102.14286"
               cy="545.93359"
               r="135" /></g></g></g></g></g></svg>
