<svg xmlns="http://www.w3.org/2000/svg" xmlns:xlink="http://www.w3.org/1999/xlink" xml:space="preserve" width="128" height="128"><defs><radialGradient xlink:href="#a" id="g" cx="102.143" cy="545.934" r="135" fx="102.143" fy="545.934" gradientUnits="userSpaceOnUse"/><radialGradient xlink:href="#b" id="i" cx="102.143" cy="545.934" r="135" fx="102.143" fy="545.934" gradientUnits="userSpaceOnUse"/><radialGradient xlink:href="#a" id="j" cx="102.143" cy="545.934" r="135" fx="102.143" fy="545.934" gradientUnits="userSpaceOnUse"/><radialGradient xlink:href="#b" id="l" cx="102.143" cy="545.934" r="135" fx="102.143" fy="545.934" gradientUnits="userSpaceOnUse"/><radialGradient xlink:href="#a" id="m" cx="102.143" cy="545.934" r="135" fx="102.143" fy="545.934" gradientUnits="userSpaceOnUse"/><radialGradient xlink:href="#b" id="o" cx="102.143" cy="545.934" r="135" fx="102.143" fy="545.934" gradientUnits="userSpaceOnUse"/><radialGradient xlink:href="#a" id="p" cx="102.143" cy="545.934" r="135" fx="102.143" fy="545.934" gradientUnits="userSpaceOnUse"/><radialGradient xlink:href="#b" id="r" cx="102.143" cy="545.934" r="135" fx="102.143" fy="545.934" gradientUnits="userSpaceOnUse"/><linearGradient id="c"><stop offset="0" style="stop-color:#480077;stop-opacity:1"/><stop offset=".5" style="stop-color:#9129cc;stop-opacity:1"/><stop offset=".75" style="stop-color:#9c12ef;stop-opacity:1"/><stop offset=".938" style="stop-color:#af6ef0;stop-opacity:.61458302"/><stop offset="1" style="stop-color:#8700c3;stop-opacity:.21875"/></linearGradient><linearGradient id="d"><stop offset="0" style="stop-color:#772b00;stop-opacity:1"/><stop offset=".5" style="stop-color:#da441b;stop-opacity:1"/><stop offset=".75" style="stop-color:#d2400f;stop-opacity:1"/><stop offset=".938" style="stop-color:#d44316;stop-opacity:.614583"/><stop offset="1" style="stop-color:#c33900;stop-opacity:.21875"/></linearGradient><linearGradient id="a"><stop offset="0" style="stop-color:#999;stop-opacity:1"/><stop offset="1" style="stop-color:#999;stop-opacity:0"/></linearGradient><linearGradient id="b"><stop offset="0" style="stop-color:#fff;stop-opacity:1"/><stop offset="1" style="stop-color:#fff;stop-opacity:0"/></linearGradient><linearGradient xlink:href="#c" id="q" x1="154.286" x2="605.714" y1="535.219" y2="535.219" gradientUnits="userSpaceOnUse"/><linearGradient xlink:href="#d" id="h" x1="154.286" x2="605.714" y1="535.219" y2="535.219" gradientUnits="userSpaceOnUse"/><linearGradient xlink:href="#d" id="k" x1="154.286" x2="605.714" y1="535.219" y2="535.219" gradientUnits="userSpaceOnUse"/><linearGradient xlink:href="#d" id="n" x1="154.286" x2="605.714" y1="535.219" y2="535.219" gradientUnits="userSpaceOnUse"/><filter id="f" width="1" height="1" x="0" y="0" color-interpolation-filters="sRGB"><feColorMatrix type="saturate" values="0"/></filter></defs><g style="stroke:#881ca8"><path d="M495.889 125.83a93.737 95.497 0 0 1-187.475 0 93.737 95.497 0 1 1 187.475 0z" style="color:#000;fill:none;stroke:#881ca8;stroke-width:22.2915;stroke-miterlimit:4;stroke-dasharray:none;stroke-opacity:1" transform="matrix(.57603 0 0 .5658 -167.653 -7.183)"/><g style="filter:url(#f);stroke:#881ca8" transform="matrix(.30637 0 0 .30385 23.883 44.57)"><circle cx="102.143" cy="545.934" r="135" style="fill:url(#g);fill-opacity:1;stroke:#881ca8" transform="matrix(.34959 -.11439 .15509 .25785 -54.059 -75.42)"/><circle cx="380" cy="535.219" r="225.714" style="fill:url(#h);fill-opacity:1;stroke:#881ca8" transform="rotate(-132.294 50.368 71.37)scale(.24014)"/><circle cx="102.143" cy="545.934" r="135" style="opacity:.876147;fill:url(#i);fill-opacity:1;stroke:#881ca8" transform="translate(27.396 -143.713)scale(.24015)"/></g><g style="filter:url(#f);stroke:#881ca8" transform="matrix(.30637 0 0 .30385 63.76 44.57)"><circle cx="102.143" cy="545.934" r="135" style="fill:url(#j);fill-opacity:1;stroke:#881ca8" transform="matrix(.34959 -.11439 .15509 .25785 -54.059 -75.42)"/><circle cx="380" cy="535.219" r="225.714" style="fill:url(#k);fill-opacity:1;stroke:#881ca8" transform="rotate(-132.294 50.368 71.37)scale(.24014)"/><circle cx="102.143" cy="545.934" r="135" style="opacity:.876147;fill:url(#l);fill-opacity:1;stroke:#881ca8" transform="translate(27.396 -143.713)scale(.24015)"/></g><g style="filter:url(#f);stroke:#881ca8" transform="matrix(.30637 0 0 .30385 23.883 82.205)"><circle cx="102.143" cy="545.934" r="135" style="fill:url(#m);fill-opacity:1;stroke:#881ca8" transform="matrix(.34959 -.11439 .15509 .25785 -54.059 -75.42)"/><circle cx="380" cy="535.219" r="225.714" style="fill:url(#n);fill-opacity:1;stroke:#881ca8" transform="rotate(-132.294 50.368 71.37)scale(.24014)"/><circle cx="102.143" cy="545.934" r="135" style="opacity:.876147;fill:url(#o);fill-opacity:1;stroke:#881ca8" transform="translate(27.396 -143.713)scale(.24015)"/></g><g style="stroke:#881ca8" transform="matrix(.30637 0 0 .30385 63.76 82.205)"><circle cx="102.143" cy="545.934" r="135" style="fill:url(#p);fill-opacity:1;stroke:#881ca8" transform="matrix(.34959 -.11439 .15509 .25785 -54.059 -75.42)"/><circle cx="380" cy="535.219" r="225.714" style="fill:url(#q);fill-opacity:1;stroke:#881ca8" transform="rotate(-132.294 50.368 71.37)scale(.24014)"/><circle cx="102.143" cy="545.934" r="135" style="opacity:.876147;fill:url(#r);fill-opacity:1;stroke:#881ca8" transform="translate(27.396 -143.713)scale(.24015)"/></g></g></svg>