<svg xmlns="http://www.w3.org/2000/svg" xmlns:xlink="http://www.w3.org/1999/xlink" width="128" height="128"><defs><radialGradient xlink:href="#a" id="p" cx="102.143" cy="545.934" r="135" fx="102.143" fy="545.934" gradientUnits="userSpaceOnUse"/><radialGradient xlink:href="#b" id="n" cx="102.143" cy="545.934" r="135" fx="102.143" fy="545.934" gradientUnits="userSpaceOnUse"/><radialGradient xlink:href="#a" id="m" cx="102.143" cy="545.934" r="135" fx="102.143" fy="545.934" gradientUnits="userSpaceOnUse"/><radialGradient xlink:href="#b" id="k" cx="102.143" cy="545.934" r="135" fx="102.143" fy="545.934" gradientUnits="userSpaceOnUse"/><radialGradient xlink:href="#a" id="j" cx="102.143" cy="545.934" r="135" fx="102.143" fy="545.934" gradientUnits="userSpaceOnUse"/><radialGradient xlink:href="#b" id="h" cx="102.143" cy="545.934" r="135" fx="102.143" fy="545.934" gradientUnits="userSpaceOnUse"/><radialGradient xlink:href="#b" id="d" cx="102.143" cy="545.934" r="135" fx="102.143" fy="545.934" gradientUnits="userSpaceOnUse"/><radialGradient xlink:href="#a" id="g" cx="102.143" cy="545.934" r="135" fx="102.143" fy="545.934" gradientUnits="userSpaceOnUse"/><linearGradient xlink:href="#c" id="o" x1="154.286" x2="605.714" y1="535.219" y2="535.219" gradientUnits="userSpaceOnUse"/><linearGradient xlink:href="#c" id="l" x1="154.286" x2="605.714" y1="535.219" y2="535.219" gradientUnits="userSpaceOnUse"/><linearGradient xlink:href="#c" id="i" x1="154.286" x2="605.714" y1="535.219" y2="535.219" gradientUnits="userSpaceOnUse"/><linearGradient id="b"><stop offset="0" style="stop-color:#999;stop-opacity:1"/><stop offset="1" style="stop-color:#999;stop-opacity:0"/></linearGradient><linearGradient id="c"><stop offset="0" style="stop-color:#772b00;stop-opacity:1"/><stop offset=".5" style="stop-color:#da441b;stop-opacity:1"/><stop offset=".75" style="stop-color:#d2400f;stop-opacity:1"/><stop offset=".938" style="stop-color:#d44316;stop-opacity:.614583"/><stop offset="1" style="stop-color:#c33900;stop-opacity:.21875"/></linearGradient><linearGradient id="a"><stop offset="0" style="stop-color:#fff;stop-opacity:1"/><stop offset="1" style="stop-color:#fff;stop-opacity:0"/></linearGradient><linearGradient xlink:href="#c" id="f" x1="154.286" x2="605.714" y1="535.219" y2="535.219" gradientUnits="userSpaceOnUse"/></defs><path d="M90.353 1004.407a42.254 42.634 0 0 1-84.508 0 42.254 42.634 0 1 1 84.508 0z" style="color:#000;fill:none;stroke:#ff6500;stroke-width:10;stroke-miterlimit:4;stroke-dasharray:none;stroke-opacity:1" transform="matrix(1.28066 0 0 1.27048 2.401 -1212.083)"/><g style="overflow:visible"><g transform="matrix(.30704 0 0 .3046 23.245 44.128)"><circle cx="102.143" cy="545.934" r="135" style="fill:url(#d);fill-opacity:1;stroke:none" transform="matrix(.34959 -.11439 .15509 .25785 -54.059 -75.42)"/><circle cx="380" cy="535.219" r="225.714" style="fill:url(#f);fill-opacity:1;stroke:none" transform="rotate(-132.294 50.368 71.37)scale(.24014)"/><circle cx="102.143" cy="545.934" r="135" style="opacity:.876147;fill:url(#g);fill-opacity:1;stroke:none" transform="translate(27.396 -143.713)scale(.24015)"/></g><g transform="matrix(.30704 0 0 .3046 62.434 44.128)"><circle cx="102.143" cy="545.934" r="135" style="fill:url(#h);fill-opacity:1;stroke:none" transform="matrix(.34959 -.11439 .15509 .25785 -54.059 -75.42)"/><circle cx="380" cy="535.219" r="225.714" style="fill:url(#i);fill-opacity:1;stroke:none" transform="rotate(-132.294 50.368 71.37)scale(.24014)"/><circle cx="102.143" cy="545.934" r="135" style="opacity:.876147;fill:url(#j);fill-opacity:1;stroke:none" transform="translate(27.396 -143.713)scale(.24015)"/></g><g transform="matrix(.30704 0 0 .3046 62.434 81.71)"><circle cx="102.143" cy="545.934" r="135" style="fill:url(#k);fill-opacity:1;stroke:none" transform="matrix(.34959 -.11439 .15509 .25785 -54.059 -75.42)"/><circle cx="380" cy="535.219" r="225.714" style="fill:url(#l);fill-opacity:1;stroke:none" transform="rotate(-132.294 50.368 71.37)scale(.24014)"/><circle cx="102.143" cy="545.934" r="135" style="opacity:.876147;fill:url(#m);fill-opacity:1;stroke:none" transform="translate(27.396 -143.713)scale(.24015)"/></g><g transform="matrix(.30704 0 0 .3046 23.245 81.71)"><circle cx="102.143" cy="545.934" r="135" style="fill:url(#n);fill-opacity:1;stroke:none" transform="matrix(.34959 -.11439 .15509 .25785 -54.059 -75.42)"/><circle cx="380" cy="535.219" r="225.714" style="fill:url(#o);fill-opacity:1;stroke:none" transform="rotate(-132.294 50.368 71.37)scale(.24014)"/><circle cx="102.143" cy="545.934" r="135" style="opacity:.876147;fill:url(#p);fill-opacity:1;stroke:none" transform="translate(27.396 -143.713)scale(.24015)"/></g></g></svg>