<svg xmlns="http://www.w3.org/2000/svg" xmlns:xlink="http://www.w3.org/1999/xlink" xml:space="preserve" width="128" height="128" overflow="visible"><defs><linearGradient xlink:href="#a" id="c" x1="154.286" x2="605.714" y1="535.219" y2="535.219" gradientUnits="userSpaceOnUse"/><linearGradient id="b"><stop offset="0" style="stop-color:#fff;stop-opacity:1"/><stop offset="1" style="stop-color:#fff;stop-opacity:0"/></linearGradient><linearGradient id="a"><stop offset="0" style="stop-color:#772b00;stop-opacity:1"/><stop offset=".5" style="stop-color:#da441b;stop-opacity:1"/><stop offset=".75" style="stop-color:#d2400f;stop-opacity:1"/><stop offset=".938" style="stop-color:#d44316;stop-opacity:.614583"/><stop offset="1" style="stop-color:#c33900;stop-opacity:.21875"/></linearGradient><linearGradient xlink:href="#a" id="f" x1="154.286" x2="605.714" y1="535.219" y2="535.219" gradientUnits="userSpaceOnUse"/><linearGradient xlink:href="#a" id="h" x1="154.286" x2="605.714" y1="535.219" y2="535.219" gradientUnits="userSpaceOnUse"/><linearGradient xlink:href="#a" id="j" x1="154.286" x2="605.714" y1="535.219" y2="535.219" gradientUnits="userSpaceOnUse"/><radialGradient xlink:href="#b" id="e" cx="102.143" cy="545.934" r="135" fx="102.143" fy="545.934" gradientUnits="userSpaceOnUse"/><radialGradient xlink:href="#b" id="g" cx="102.143" cy="545.934" r="135" fx="102.143" fy="545.934" gradientUnits="userSpaceOnUse"/><radialGradient xlink:href="#b" id="i" cx="102.143" cy="545.934" r="135" fx="102.143" fy="545.934" gradientUnits="userSpaceOnUse"/><radialGradient xlink:href="#b" id="k" cx="102.143" cy="545.934" r="135" fx="102.143" fy="545.934" gradientUnits="userSpaceOnUse"/></defs><g transform="matrix(.48894 0 0 .50156 .95 31.725)"><circle cx="380" cy="535.219" r="225.714" style="fill:url(#c);fill-opacity:1;stroke:none" transform="rotate(-132.294 50.368 71.37)scale(.24014)"/><circle cx="102.143" cy="545.934" r="135" style="opacity:.876147;fill:url(#e);fill-opacity:1;stroke:none" transform="translate(27.396 -143.713)scale(.24015)"/></g><g transform="matrix(.48894 0 0 .50156 63.356 31.725)"><circle cx="380" cy="535.219" r="225.714" style="fill:url(#f);fill-opacity:1;stroke:none" transform="rotate(-132.294 50.368 71.37)scale(.24014)"/><circle cx="102.143" cy="545.934" r="135" style="opacity:.876147;fill:url(#g);fill-opacity:1;stroke:none" transform="translate(27.396 -143.713)scale(.24015)"/></g><g transform="matrix(.48894 0 0 .50156 63.356 93.608)"><circle cx="380" cy="535.219" r="225.714" style="fill:url(#h);fill-opacity:1;stroke:none" transform="rotate(-132.294 50.368 71.37)scale(.24014)"/><circle cx="102.143" cy="545.934" r="135" style="opacity:.876147;fill:url(#i);fill-opacity:1;stroke:none" transform="translate(27.396 -143.713)scale(.24015)"/></g><g transform="matrix(.48894 0 0 .50156 .95 93.608)"><circle cx="380" cy="535.219" r="225.714" style="fill:url(#j);fill-opacity:1;stroke:none" transform="rotate(-132.294 50.368 71.37)scale(.24014)"/><circle cx="102.143" cy="545.934" r="135" style="opacity:.876147;fill:url(#k);fill-opacity:1;stroke:none" transform="translate(27.396 -143.713)scale(.24015)"/></g></svg>