<svg xmlns="http://www.w3.org/2000/svg" width="800" height="800"><defs><linearGradient id="b"><stop offset="0" style="stop-color:#000;stop-opacity:1"/><stop offset="1" style="stop-color:#000;stop-opacity:0"/></linearGradient><linearGradient id="f"><stop offset="0" style="stop-color:#fff;stop-opacity:1"/><stop offset="1" style="stop-color:#fff;stop-opacity:0"/></linearGradient><linearGradient id="t"><stop offset="0" style="stop-color:#5b90c8;stop-opacity:1"/><stop offset=".316" style="stop-color:#8fb0d1;stop-opacity:1"/><stop offset="1" style="stop-color:#34679d;stop-opacity:1"/></linearGradient><linearGradient id="s"><stop offset="0" style="stop-color:#729fcf;stop-opacity:1"/><stop offset=".316" style="stop-color:#a5bfda;stop-opacity:1"/><stop offset="1" style="stop-color:#376ca4;stop-opacity:1"/></linearGradient><linearGradient id="r"><stop offset="0" style="stop-color:#000;stop-opacity:1"/><stop offset="1" style="stop-color:#c9c9c9;stop-opacity:1"/></linearGradient><linearGradient id="q"><stop offset="0" style="stop-color:#e7e2b8;stop-opacity:1"/><stop offset="1" style="stop-color:#e7e2b8;stop-opacity:0"/></linearGradient><linearGradient id="p"><stop offset="0" style="stop-color:#c1c1c1;stop-opacity:1"/><stop offset="1" style="stop-color:#acacac;stop-opacity:1"/></linearGradient><linearGradient id="o"><stop offset="0" style="stop-color:#ffd1d1;stop-opacity:1"/><stop offset=".5" style="stop-color:#ff1d1d;stop-opacity:1"/><stop offset="1" style="stop-color:#6f0000;stop-opacity:1"/></linearGradient><linearGradient id="n"><stop offset="0" style="stop-color:#fff;stop-opacity:1"/><stop offset=".329" style="stop-color:#fff;stop-opacity:.69"/><stop offset=".658" style="stop-color:#c2c2c2;stop-opacity:.34"/><stop offset="1" style="stop-color:#fff;stop-opacity:0"/></linearGradient><linearGradient id="m"><stop offset="0" style="stop-color:#959791;stop-opacity:1"/><stop offset=".5" style="stop-color:#f8f8f8;stop-opacity:1"/><stop offset="1" style="stop-color:#8c8c8c;stop-opacity:1"/></linearGradient><linearGradient id="l"><stop offset="0" style="stop-color:#f5f5f5;stop-opacity:.09"/><stop offset=".263" style="stop-color:#fff;stop-opacity:.89999998"/><stop offset=".748" style="stop-color:#c7c7c7;stop-opacity:.46000001"/><stop offset="1" style="stop-color:#fff;stop-opacity:.78039217"/></linearGradient><linearGradient id="v"><stop offset="0" style="stop-color:#72cf7b;stop-opacity:1"/><stop offset="1" style="stop-color:#57c552;stop-opacity:1"/></linearGradient><linearGradient id="w"><stop offset="0" style="stop-color:#b9e7c9;stop-opacity:1"/><stop offset="1" style="stop-color:#72cf79;stop-opacity:1"/></linearGradient><linearGradient id="u"><stop offset="0" style="stop-color:#3465a4;stop-opacity:1"/><stop offset="1" style="stop-color:#3465a4;stop-opacity:1"/></linearGradient><linearGradient id="a"><stop offset="0" style="stop-color:black;stop-opacity:0"/><stop offset=".5" style="stop-color:black;stop-opacity:1"/><stop offset="1" style="stop-color:black;stop-opacity:0"/></linearGradient><linearGradient id="x"><stop offset="0" style="stop-color:#eeebc9;stop-opacity:1"/><stop offset="1" style="stop-color:#ffd420;stop-opacity:1"/><stop offset="1" style="stop-color:#ffec00;stop-opacity:1"/></linearGradient><linearGradient id="d"><stop offset="0" style="stop-color:#729fcf;stop-opacity:1"/><stop offset="1" style="stop-color:#3465a4;stop-opacity:1"/></linearGradient><linearGradient id="c"><stop offset="0" style="stop-color:#fff;stop-opacity:1"/><stop offset="1" style="stop-color:#babdb6;stop-opacity:1"/></linearGradient><linearGradient id="e"><stop offset="0" style="stop-color:#000;stop-opacity:.068627454"/><stop offset="1" style="stop-color:#fff;stop-opacity:1"/></linearGradient><linearGradient id="k"><stop offset="0" style="stop-color:#b6b6b6;stop-opacity:1"/><stop offset=".5" style="stop-color:#f2f2f2;stop-opacity:1"/><stop offset=".676" style="stop-color:#fafafa;stop-opacity:1"/><stop offset=".841" style="stop-color:#d8d8d8;stop-opacity:1"/><stop offset=".875" style="stop-color:#f2f2f2;stop-opacity:1"/><stop offset="1" style="stop-color:#dbdbdb;stop-opacity:1"/></linearGradient><linearGradient id="j"><stop offset="0" style="stop-color:#fff;stop-opacity:1"/><stop offset="1" style="stop-color:#000;stop-opacity:1"/></linearGradient><linearGradient id="i"><stop offset="0" style="stop-color:#98a0a9;stop-opacity:1"/><stop offset="1" style="stop-color:#c3d0dd;stop-opacity:1"/></linearGradient><linearGradient id="h"><stop offset="0" style="stop-color:#3465a4;stop-opacity:1"/><stop offset="0" style="stop-color:#9fbce1;stop-opacity:1"/><stop offset="0" style="stop-color:#6b95ca;stop-opacity:1"/><stop offset=".75" style="stop-color:#3d6aa5;stop-opacity:1"/><stop offset="1" style="stop-color:#386eb4;stop-opacity:1"/></linearGradient><linearGradient id="g"><stop offset="0" style="stop-color:#fff;stop-opacity:1"/><stop offset=".379" style="stop-color:#fefefe;stop-opacity:1"/><stop offset="1" style="stop-color:#1d1d1d;stop-opacity:1"/></linearGradient><linearGradient id="z"><stop offset="0" style="stop-color:#999;stop-opacity:1"/><stop offset="1" style="stop-color:#999;stop-opacity:0"/></linearGradient><linearGradient id="y"><stop offset="0" style="stop-color:#772b00;stop-opacity:1"/><stop offset=".5" style="stop-color:#da441b;stop-opacity:1"/><stop offset=".75" style="stop-color:#d2400f;stop-opacity:1"/><stop offset=".938" style="stop-color:#d44316;stop-opacity:.614583"/><stop offset="1" style="stop-color:#c33900;stop-opacity:.21875"/></linearGradient><linearGradient id="B"><stop offset="0" style="stop-color:#081074;stop-opacity:1"/><stop offset=".5" style="stop-color:#5873c2;stop-opacity:1"/><stop offset=".75" style="stop-color:#0f99d2;stop-opacity:1"/><stop offset=".938" style="stop-color:#1660d4;stop-opacity:.6156863"/><stop offset="1" style="stop-color:#414cf6;stop-opacity:.21568628"/></linearGradient><linearGradient id="A"><stop offset="0" style="stop-color:#770900;stop-opacity:1"/><stop offset=".5" style="stop-color:#da101b;stop-opacity:1"/><stop offset=".75" style="stop-color:#d2400f;stop-opacity:1"/><stop offset=".938" style="stop-color:#d44316;stop-opacity:.614583"/><stop offset="1" style="stop-color:#c30000;stop-opacity:.21875"/></linearGradient><linearGradient id="M"><stop offset="0" style="stop-color:#5bb0c7;stop-opacity:1"/><stop offset=".316" style="stop-color:#8fc3d1;stop-opacity:1"/><stop offset="1" style="stop-color:#33869d;stop-opacity:1"/></linearGradient><linearGradient id="L"><stop offset="0" style="stop-color:#71bacf;stop-opacity:1"/><stop offset=".316" style="stop-color:#a5ceda;stop-opacity:1"/><stop offset="1" style="stop-color:#378ca4;stop-opacity:1"/></linearGradient><linearGradient id="K"><stop offset="0" style="stop-color:#e7d3b7;stop-opacity:1"/><stop offset="1" style="stop-color:#e7d3b7;stop-opacity:0"/></linearGradient><linearGradient id="J"><stop offset="0" style="stop-color:#fed1de;stop-opacity:1"/><stop offset=".5" style="stop-color:#ff1d60;stop-opacity:1"/><stop offset="1" style="stop-color:#6f0021;stop-opacity:1"/></linearGradient><linearGradient id="I"><stop offset="0" style="stop-color:#969691;stop-opacity:1"/><stop offset=".5" style="stop-color:#f8f8f8;stop-opacity:1"/><stop offset="1" style="stop-color:#8c8c8c;stop-opacity:1"/></linearGradient><linearGradient id="O"><stop offset="0" style="stop-color:#84cf71;stop-opacity:1"/><stop offset="1" style="stop-color:#79c452;stop-opacity:1"/></linearGradient><linearGradient id="P"><stop offset="0" style="stop-color:#b9e7bb;stop-opacity:1"/><stop offset="1" style="stop-color:#86cf71;stop-opacity:1"/></linearGradient><linearGradient id="N"><stop offset="0" style="stop-color:#3386a4;stop-opacity:1"/><stop offset="1" style="stop-color:#3386a4;stop-opacity:1"/></linearGradient><linearGradient id="Q"><stop offset="0" style="stop-color:#eedfc9;stop-opacity:1"/><stop offset="1" style="stop-color:#ff9120;stop-opacity:1"/><stop offset="1" style="stop-color:#ff9f00;stop-opacity:1"/></linearGradient><linearGradient id="F"><stop offset="0" style="stop-color:#71bacf;stop-opacity:1"/><stop offset="1" style="stop-color:#3386a4;stop-opacity:1"/></linearGradient><linearGradient id="E"><stop offset="0" style="stop-color:#fff;stop-opacity:1"/><stop offset="1" style="stop-color:#bcbdb6;stop-opacity:1"/></linearGradient><linearGradient id="H"><stop offset="0" style="stop-color:#98a5a9;stop-opacity:1"/><stop offset="1" style="stop-color:#c3d7dd;stop-opacity:1"/></linearGradient><linearGradient id="G"><stop offset="0" style="stop-color:#3386a4;stop-opacity:1"/><stop offset="0" style="stop-color:#9fcfe1;stop-opacity:1"/><stop offset="0" style="stop-color:#6bb1c9;stop-opacity:1"/><stop offset=".75" style="stop-color:#3d89a4;stop-opacity:1"/><stop offset="1" style="stop-color:#3893b4;stop-opacity:1"/></linearGradient><linearGradient id="R"><stop offset="0" style="stop-color:#770700;stop-opacity:1"/><stop offset=".5" style="stop-color:#da1a2b;stop-opacity:1"/><stop offset=".75" style="stop-color:#d2400f;stop-opacity:1"/><stop offset=".938" style="stop-color:#d44316;stop-opacity:.614583"/><stop offset="1" style="stop-color:#c30001;stop-opacity:.21875"/></linearGradient><filter id="X" width="1.222" height="1.129" x="-.111" y="-.064" style="color-interpolation-filters:sRGB"><feGaussianBlur in="SourceGraphic" result="blur" stdDeviation="6"/><feDiffuseLighting lighting-color="#FFF" result="diffuse" surfaceScale="10"><feDistantLight azimuth="235" elevation="25"/></feDiffuseLighting><feComposite in="diffuse" in2="diffuse" k1="1" operator="arithmetic" result="composite1"/><feComposite in="composite1" in2="SourceGraphic" k1="1" k3="1" operator="arithmetic" result="composite2"/></filter><filter id="ad" width="1.407" height="1.231" x="-.203" y="-.115" style="color-interpolation-filters:sRGB"><feGaussianBlur in="SourceGraphic" result="blur" stdDeviation="6"/><feDiffuseLighting lighting-color="#FFF" result="diffuse" surfaceScale="10"><feDistantLight azimuth="235" elevation="25"/></feDiffuseLighting><feComposite in="diffuse" in2="diffuse" k1="1" operator="arithmetic" result="composite1"/><feComposite in="composite1" in2="SourceGraphic" k1="1" k3="1" operator="arithmetic" result="composite2"/></filter><filter id="ac" width="1.401" height="1.277" x="-.2" y="-.138" style="color-interpolation-filters:sRGB"><feGaussianBlur in="SourceGraphic" result="blur" stdDeviation="6"/><feDiffuseLighting lighting-color="#FFF" result="diffuse" surfaceScale="10"><feDistantLight azimuth="235" elevation="25"/></feDiffuseLighting><feComposite in="diffuse" in2="diffuse" k1="1" operator="arithmetic" result="composite1"/><feComposite in="composite1" in2="SourceGraphic" k1="1" k3="1" operator="arithmetic" result="composite2"/></filter><filter id="ab" width="1.41" height="1.272" x="-.205" y="-.136" style="color-interpolation-filters:sRGB"><feGaussianBlur in="SourceGraphic" result="blur" stdDeviation="6"/><feDiffuseLighting lighting-color="#FFF" result="diffuse" surfaceScale="10"><feDistantLight azimuth="235" elevation="25"/></feDiffuseLighting><feComposite in="diffuse" in2="diffuse" k1="1" operator="arithmetic" result="composite1"/><feComposite in="composite1" in2="SourceGraphic" k1="1" k3="1" operator="arithmetic" result="composite2"/></filter><filter id="aa" width="1.381" height="1.231" x="-.191" y="-.115" style="color-interpolation-filters:sRGB"><feGaussianBlur in="SourceGraphic" result="blur" stdDeviation="6"/><feDiffuseLighting lighting-color="#FFF" result="diffuse" surfaceScale="10"><feDistantLight azimuth="235" elevation="25"/></feDiffuseLighting><feComposite in="diffuse" in2="diffuse" k1="1" operator="arithmetic" result="composite1"/><feComposite in="composite1" in2="SourceGraphic" k1="1" k3="1" operator="arithmetic" result="composite2"/></filter><filter id="Z" width="1.337" height="1.139" x="-.169" y="-.069" style="color-interpolation-filters:sRGB"><feGaussianBlur in="SourceGraphic" result="blur" stdDeviation="6"/><feDiffuseLighting lighting-color="#FFF" result="diffuse" surfaceScale="10"><feDistantLight azimuth="235" elevation="25"/></feDiffuseLighting><feComposite in="diffuse" in2="diffuse" k1="1" operator="arithmetic" result="composite1"/><feComposite in="composite1" in2="SourceGraphic" k1="1" k3="1" operator="arithmetic" result="composite2"/></filter><filter id="Y" width="1.225" height="1.152" x="-.112" y="-.076" style="color-interpolation-filters:sRGB"><feGaussianBlur in="SourceGraphic" result="blur" stdDeviation="6"/><feDiffuseLighting lighting-color="#FFF" result="diffuse" surfaceScale="10"><feDistantLight azimuth="235" elevation="25"/></feDiffuseLighting><feComposite in="diffuse" in2="diffuse" k1="1" operator="arithmetic" result="composite1"/><feComposite in="composite1" in2="SourceGraphic" k1="1" k3="1" operator="arithmetic" result="composite2"/></filter><radialGradient id="C" fx=".3" fy=".3" gradientUnits="objectBoundingBox"><stop offset="0%" style="stop-color:#fff"/><stop offset="40%" style="stop-color:#00a"/><stop offset="100%" style="stop-color:#007"/></radialGradient><radialGradient id="D" fx=".3" fy=".3" gradientUnits="objectBoundingBox"><stop offset="0%" style="stop-color:#fff"/><stop offset="40%" style="stop-color:#00a"/><stop offset="100%" style="stop-color:#007"/></radialGradient><radialGradient id="S" fx=".3" fy=".3" gradientUnits="objectBoundingBox"><stop offset="0%" style="stop-color:#fff"/><stop offset="40%" style="stop-color:#00a"/><stop offset="100%" style="stop-color:#007"/></radialGradient><radialGradient id="T" fx=".3" fy=".3" gradientUnits="objectBoundingBox"><stop offset="0%" style="stop-color:#fff"/><stop offset="40%" style="stop-color:#00a"/><stop offset="100%" style="stop-color:#007"/></radialGradient><radialGradient id="U" fx=".3" fy=".3" gradientUnits="objectBoundingBox"><stop offset="0%" style="stop-color:#fff"/><stop offset="40%" style="stop-color:#00a"/><stop offset="100%" style="stop-color:#007"/></radialGradient><radialGradient id="V" fx=".3" fy=".3" gradientUnits="objectBoundingBox"><stop offset="0%" style="stop-color:#fff"/><stop offset="40%" style="stop-color:#00a"/><stop offset="100%" style="stop-color:#007"/></radialGradient><mask id="W" maskUnits="userSpaceOnUse"><ellipse cx="394.44" cy="366.96" rx="401.031" ry="402.041" style="opacity:.98;fill:#f8ec70;stroke:purple;stroke-width:3.77953;stroke-linejoin:round"/></mask></defs><g style="display:inline"><g mask="url(#W)" transform="translate(6.288 32.778)"><path d="M-6.59-35.08h802.06v480.832H-6.59Z" style="display:inline;opacity:.99;fill:#996f88;fill-opacity:.992157;fill-rule:evenodd;stroke:none;stroke-width:25.0106;stroke-linecap:round;stroke-linejoin:round;stroke-miterlimit:4;stroke-dasharray:none;stroke-dashoffset:0;stroke-opacity:1"/><path d="M-6.59 474.036h802.06v294.965H-6.59Z" style="display:inline;fill:#899a70;fill-opacity:1;fill-rule:evenodd;stroke:none;stroke-width:16.5757;stroke-linecap:round;stroke-linejoin:round;stroke-miterlimit:4;stroke-dasharray:none;stroke-dashoffset:0;stroke-opacity:1"/><path d="M-6.59 392.194H796.48v97.985H-6.59Z" style="display:inline;fill:#637a88;fill-opacity:1;fill-rule:evenodd;stroke:none;stroke-width:18.3909;stroke-linecap:round;stroke-linejoin:round;stroke-miterlimit:4;stroke-dasharray:none;stroke-dashoffset:0;stroke-opacity:1"/><g style="stroke-width:.979584"><g aria-label="Net" style="font-style:normal;font-variant:normal;font-weight:400;font-stretch:condensed;font-size:282.827px;line-height:100%;font-family:Impact;-inkscape-font-specification:&quot;Impact, Condensed&quot;;font-variant-ligatures:normal;font-variant-caps:normal;font-variant-numeric:normal;font-feature-settings:normal;text-align:start;letter-spacing:0;word-spacing:0;writing-mode:lr-tb;text-anchor:start;fill:#066;fill-opacity:1;stroke:none;stroke-width:18.4703px;stroke-linecap:butt;stroke-linejoin:miter;stroke-opacity:.996078"><path d="M-548.369 76.12v223.583h-50.958l-30.244-101.641v101.64h-48.61V76.12h48.61l32.591 100.675V76.12Z" style="fill:#9141ac;fill-opacity:1;stroke-width:18.4703px;filter:url(#X)" transform="matrix(.67939 -.00196 0 1.5339 907.373 56.547)"/><path d="M-400.464 211.32h-72.226v39.634q0 12.429 1.795 16.02 1.795 3.59 6.905 3.59 6.353 0 8.424-4.695 2.21-4.834 2.21-18.506v-24.167h52.892v13.534q0 16.986-2.21 26.1-2.071 9.115-9.943 19.472-7.872 10.358-20.024 15.606-12.015 5.11-30.244 5.11-17.677 0-31.21-5.11-13.534-5.11-21.13-13.948-7.457-8.977-10.357-19.61-2.9-10.772-2.9-31.21v-53.445q0-24.03 6.49-37.84 6.491-13.948 21.268-21.267 14.776-7.457 33.972-7.457 23.477 0 38.668 8.976 15.329 8.839 21.405 23.615 6.215 14.639 6.215 41.292zm-55.93-29.83v-13.396q0-14.224-1.52-18.367-1.519-4.143-6.214-4.143-5.8 0-7.181 3.59-1.381 3.453-1.381 18.92v13.396Z" style="fill:#813d9c;fill-opacity:1;stroke-width:18.4703px;filter:url(#Y)" transform="matrix(.67939 -.00196 0 1.5339 907.373 56.547)"/><path d="M-323.267 92.002v28.862h15.053v29.001h-15.053v98.05q0 18.092 1.795 20.163 1.934 2.072 15.606 2.072v29.553h-22.51q-19.058 0-27.206-1.52-8.148-1.656-14.362-7.318-6.215-5.8-7.734-13.12-1.519-7.457-1.519-34.8v-93.08h-12.015v-29h12.015V92.001Z" style="fill:#813d9c;fill-opacity:1;stroke-width:18.4703px;filter:url(#Z)" transform="matrix(.67939 -.00196 0 1.5339 907.373 56.547)"/></g><g aria-label="Verb" style="font-style:normal;font-variant:normal;font-weight:400;font-stretch:condensed;font-size:279px;line-height:0%;font-family:Impact;-inkscape-font-specification:&quot;Impact, Condensed&quot;;font-variant-ligatures:normal;font-variant-caps:normal;font-variant-numeric:normal;font-feature-settings:normal;text-align:start;writing-mode:lr-tb;text-anchor:start;fill:#681c68;fill-opacity:1;stroke:none;stroke-width:1.02502;stroke-miterlimit:4;stroke-dasharray:none;stroke-opacity:1"><path d="m-1095.152 71.318-29.153 220.557h-87.051l-33.104-220.557h60.486q10.49 91.138 14.985 154.077 4.496-63.62 9.4-113.072l3.95-41.005zM-962.327 204.687h-71.249v39.099q0 12.26 1.771 15.802t6.812 3.542q6.266 0 8.31-4.632 2.18-4.768 2.18-18.254v-23.84h52.176v13.35q0 16.756-2.18 25.747-2.043 8.992-9.808 19.209-7.766 10.217-19.754 15.394-11.852 5.04-29.834 5.04-17.438 0-30.788-5.04-13.351-5.04-20.844-13.76-7.356-8.854-10.217-19.344-2.86-10.626-2.86-30.788V173.49q0-23.704 6.402-37.327 6.403-13.76 20.98-20.98 14.576-7.356 33.512-7.356 23.16 0 38.145 8.855 15.121 8.718 21.115 23.295 6.13 14.44 6.13 40.733zm-55.173-29.425v-13.215q0-14.031-1.499-18.118-1.499-4.087-6.13-4.087-5.722 0-7.084 3.542-1.363 3.406-1.363 18.663v13.215zM-889.171 111.097l-2.18 23.704q11.988-25.475 34.739-26.973v63.62q-15.122 0-22.206 4.086-7.084 4.087-8.719 11.444-1.634 7.22-1.634 33.512v71.385h-55.037V111.097ZM-789.45 71.318v52.176q6.81-7.901 15.12-11.716 8.447-3.95 18.256-3.95 11.307 0 19.617 3.542t12.67 9.944q4.359 6.403 5.176 12.534.954 6.13.954 26.156v81.466q0 19.89-2.725 29.698-2.588 9.672-12.397 16.893-9.808 7.084-23.295 7.084-9.673 0-18.119-4.224-8.31-4.223-15.258-12.67l-3.542 13.624h-51.495V71.318Zm16.756 91.138q0-14.032-1.771-18.255-1.771-4.36-6.948-4.36-5.04 0-6.54 3.815-1.498 3.678-1.498 18.8v77.924q0 14.577 1.635 18.663 1.771 4.087 6.812 4.087 5.176 0 6.675-4.223 1.635-4.223 1.635-20.298z" style="fill:#d6bba4;fill-opacity:1;stroke-width:1.02502" transform="matrix(.6652 0 0 1.56662 907.373 56.547)"/></g></g><g style="stroke-width:1.19229"><g aria-label="Bank" style="font-style:normal;font-variant:normal;font-weight:400;font-stretch:condensed;font-size:157.87px;line-height:0%;font-family:Impact;-inkscape-font-specification:&quot;Impact, Condensed&quot;;font-variant-ligatures:normal;font-variant-caps:normal;font-variant-numeric:normal;font-feature-settings:normal;text-align:start;writing-mode:lr-tb;text-anchor:start;fill:#006f6f;fill-opacity:1;stroke-width:4.58787"><path d="M-526.83 422.608h32.375q15.34 0 23.203 2.39 7.94 2.39 12.796 9.712 4.856 7.246 4.856 23.434 0 10.946-3.469 15.263-3.391 4.317-13.49 6.63 11.255 2.543 15.263 8.478 4.009 5.859 4.009 18.038v11.563q0 12.642-2.93 18.732-2.852 6.09-9.173 8.325-6.32 2.235-25.9 2.235h-37.54zm32.452 21.352v27.75q2.082-.076 3.238-.076 4.78 0 6.09-2.313 1.31-2.39 1.31-13.49 0-5.858-1.08-8.17-1.078-2.39-2.851-3.007-1.696-.617-6.707-.694zm0 47.176v34.92q6.86-.232 8.711-2.159 1.927-1.927 1.927-9.481v-11.64q0-8.017-1.696-9.713-1.696-1.695-8.942-1.927z" style="fill:#9141ac;fill-opacity:1;stroke-width:6.74949;filter:url(#aa)" transform="matrix(.7759 0 0 .90663 815.566 139.744)"/><path d="M-412.668 484.738h-29.215v-6.86q0-11.871 2.698-18.27 2.775-6.474 11.023-11.408 8.248-4.933 21.43-4.933 15.802 0 23.819 5.627 8.017 5.55 9.636 13.72 1.618 8.095 1.618 33.456v51.338h-30.294v-9.096q-2.852 5.473-7.4 8.248-4.471 2.698-10.715 2.698-8.17 0-15.031-4.548-6.784-4.625-6.784-20.119v-8.402q0-11.486 3.623-15.648 3.623-4.163 17.96-9.713 15.34-6.013 16.42-8.094 1.079-2.081 1.079-8.48 0-8.016-1.233-10.406-1.157-2.466-3.932-2.466-3.16 0-3.931 2.08-.77 2.005-.77 10.561zm9.867 14.03q-7.477 5.473-8.71 9.173-1.157 3.7-1.157 10.637 0 7.94 1.002 10.253 1.08 2.312 4.163 2.312 2.93 0 3.777-1.773.925-1.85.925-9.558z" style="fill:#813d9c;fill-opacity:1;stroke-width:6.74949;filter:url(#ab)" transform="matrix(.7759 0 0 .90663 815.566 139.744)"/><path d="m-329.262 445.117-.54 9.404q3.392-5.627 8.248-8.402 4.934-2.852 11.332-2.852 8.017 0 13.104 3.777 5.088 3.777 6.552 9.558 1.465 5.705 1.465 19.117v71.69h-31.142v-70.842q0-10.56-.694-12.873-.694-2.312-3.854-2.312-3.315 0-4.163 2.698-.848 2.62-.848 14.183v69.145h-31.142V445.117Z" style="fill:#813d9c;fill-opacity:1;stroke-width:6.74949;filter:url(#ac)" transform="matrix(.7759 0 0 .90663 815.566 139.744)"/><path d="m-211.245 445.117-12.642 40.778 16.419 61.513h-29.986l-9.713-44.555v44.555h-31.142v-124.8h31.142v52.418l9.713-29.91z" style="fill:#813d9c;fill-opacity:1;stroke-width:6.74949;filter:url(#ad)" transform="matrix(.7759 0 0 .90663 815.566 139.744)"/></g><g aria-label="Prop" style="font-style:normal;font-variant:normal;font-weight:400;font-stretch:condensed;font-size:165.327px;line-height:0%;font-family:Impact;-inkscape-font-specification:&quot;Impact, Condensed&quot;;font-variant-ligatures:normal;font-variant-caps:normal;font-variant-numeric:normal;font-feature-settings:normal;text-align:start;writing-mode:lr-tb;text-anchor:start;fill:#5b185b;fill-opacity:1;stroke:none;stroke-width:5.21747;stroke-miterlimit:4;stroke-dasharray:none;stroke-opacity:1"><path d="M-786.734 474.885h34.228q13.885 0 21.312 2.18 7.507 2.179 11.22 6.296 3.795 4.117 5.086 10.01 1.373 5.812 1.373 18.083v11.382q0 12.512-2.584 18.244-2.583 5.732-9.525 8.8-6.862 3.067-18.002 3.067h-9.122v52.633h-33.986zm33.986 22.36v33.26q1.453.08 2.502.08 4.682 0 6.458-2.26 1.857-2.34 1.857-9.606v-10.737q0-6.7-2.099-8.718t-8.718-2.018zM-672.103 498.457l-1.292 14.046q7.104-15.096 20.586-15.984v37.7q-8.961 0-13.159 2.421-4.197 2.422-5.166 6.781-.969 4.279-.969 19.859v42.3h-32.613V498.457ZM-571.841 536.075v26.236q0 14.45-1.453 21.23-1.453 6.701-6.216 12.594-4.763 5.812-12.27 8.638-7.427 2.744-17.115 2.744-10.817 0-18.324-2.34-7.508-2.422-11.706-7.185-4.117-4.844-5.893-11.625-1.776-6.861-1.776-20.504v-27.447q0-14.934 3.23-23.33 3.229-8.395 11.624-13.481 8.396-5.086 21.473-5.086 10.979 0 18.81 3.31 7.91 3.23 12.189 8.476 4.278 5.247 5.812 10.818 1.615 5.57 1.615 16.952zm-32.614-8.073q0-8.234-.888-10.333-.888-2.18-3.794-2.18t-3.875 2.18q-.968 2.1-.968 10.333v48.355q0 7.588.968 9.93.97 2.26 3.795 2.26 2.906 0 3.794-2.099.968-2.099.968-9.041zM-527.846 498.457l-.565 9.445q4.36-5.732 9.607-8.557 5.247-2.826 11.463-2.826 7.588 0 13.077 4.117 5.57 4.037 6.943 9.365 1.372 5.327 1.372 18.082v45.126q0 14.611-1.776 20.827-1.695 6.135-7.104 9.849-5.328 3.632-12.916 3.632-6.054 0-11.22-2.825-5.167-2.825-9.446-8.395v24.54h-32.613v-122.38Zm9.284 31.16q0-9.93-.727-12.028-.726-2.1-4.036-2.1-3.229 0-4.198 2.423-.888 2.421-.888 11.705v44.4q0 9.686.969 12.108.969 2.422 4.198 2.422 3.148 0 3.875-2.18.807-2.26.807-10.817z" style="fill:#cdab8f;fill-opacity:1;stroke-width:5.21747" transform="matrix(.85775 0 0 .82012 815.566 139.744)"/></g></g></g></g></svg>