<?xml version="1.0" encoding="UTF-8" standalone="no"?>
<!-- Created with Inkscape (http://www.inkscape.org/) -->

<svg
   xmlns:dc="http://purl.org/dc/elements/1.1/"
   xmlns:cc="http://creativecommons.org/ns#"
   xmlns:rdf="http://www.w3.org/1999/02/22-rdf-syntax-ns#"
   xmlns:svg="http://www.w3.org/2000/svg"
   xmlns="http://www.w3.org/2000/svg"
   xmlns:sodipodi="http://sodipodi.sourceforge.net/DTD/sodipodi-0.dtd"
   xmlns:inkscape="http://www.inkscape.org/namespaces/inkscape"
   inkscape:export-ydpi="57.252365"
   inkscape:export-xdpi="57.252365"
   inkscape:export-filename="/home/bbou/Desktop/wordnet.png"
   sodipodi:docname="ic_splash.svg"
   inkscape:version="0.92.2 (5c3e80d, 2017-08-06)"
   version="1.1"
   id="svg2"
   height="373.33334"
   width="341.33334">
  <defs
     id="defs">
    <filter
       id="filter2765"
       inkscape:label="Diffuse Light"
       style="color-interpolation-filters:sRGB;">
      <feGaussianBlur
         id="feGaussianBlur2755"
         result="blur"
         stdDeviation="6"
         in="SourceGraphic" />
      <feDiffuseLighting
         id="feDiffuseLighting2759"
         result="diffuse"
         lighting-color="rgb(255,255,255)"
         surfaceScale="10"
         diffuseConstant="1">
        <feDistantLight
           id="feDistantLight2757"
           azimuth="235"
           elevation="25" />
      </feDiffuseLighting>
      <feComposite
         id="feComposite2761"
         result="composite1"
         k1="1"
         operator="arithmetic"
         in2="diffuse"
         in="diffuse" />
      <feComposite
         id="feComposite2763"
         result="composite2"
         k3="1"
         operator="arithmetic"
         k1="1"
         in2="SourceGraphic"
         in="composite1" />
    </filter>
    <filter
       id="filter2777"
       inkscape:label="Diffuse Light"
       style="color-interpolation-filters:sRGB;">
      <feGaussianBlur
         id="feGaussianBlur2767"
         result="blur"
         stdDeviation="6"
         in="SourceGraphic" />
      <feDiffuseLighting
         id="feDiffuseLighting2771"
         result="diffuse"
         lighting-color="rgb(255,255,255)"
         surfaceScale="10"
         diffuseConstant="1">
        <feDistantLight
           id="feDistantLight2769"
           azimuth="235"
           elevation="25" />
      </feDiffuseLighting>
      <feComposite
         id="feComposite2773"
         result="composite1"
         k1="1"
         operator="arithmetic"
         in2="diffuse"
         in="diffuse" />
      <feComposite
         id="feComposite2775"
         result="composite2"
         k3="1"
         operator="arithmetic"
         k1="1"
         in2="SourceGraphic"
         in="composite1" />
    </filter>
    <filter
       id="filter2789"
       inkscape:label="Diffuse Light"
       style="color-interpolation-filters:sRGB;">
      <feGaussianBlur
         id="feGaussianBlur2779"
         result="blur"
         stdDeviation="6"
         in="SourceGraphic" />
      <feDiffuseLighting
         id="feDiffuseLighting2783"
         result="diffuse"
         lighting-color="rgb(255,255,255)"
         surfaceScale="10"
         diffuseConstant="1">
        <feDistantLight
           id="feDistantLight2781"
           azimuth="235"
           elevation="25" />
      </feDiffuseLighting>
      <feComposite
         id="feComposite2785"
         result="composite1"
         k1="1"
         operator="arithmetic"
         in2="diffuse"
         in="diffuse" />
      <feComposite
         id="feComposite2787"
         result="composite2"
         k3="1"
         operator="arithmetic"
         k1="1"
         in2="SourceGraphic"
         in="composite1" />
    </filter>
    <filter
       id="filter2801"
       inkscape:label="Diffuse Light"
       style="color-interpolation-filters:sRGB;">
      <feGaussianBlur
         id="feGaussianBlur2791"
         result="blur"
         stdDeviation="6"
         in="SourceGraphic" />
      <feDiffuseLighting
         id="feDiffuseLighting2795"
         result="diffuse"
         lighting-color="rgb(255,255,255)"
         surfaceScale="10"
         diffuseConstant="1">
        <feDistantLight
           id="feDistantLight2793"
           azimuth="235"
           elevation="25" />
      </feDiffuseLighting>
      <feComposite
         id="feComposite2797"
         result="composite1"
         k1="1"
         operator="arithmetic"
         in2="diffuse"
         in="diffuse" />
      <feComposite
         id="feComposite2799"
         result="composite2"
         k3="1"
         operator="arithmetic"
         k1="1"
         in2="SourceGraphic"
         in="composite1" />
    </filter>
    <filter
       id="filter2813"
       inkscape:label="Diffuse Light"
       style="color-interpolation-filters:sRGB;">
      <feGaussianBlur
         id="feGaussianBlur2803"
         result="blur"
         stdDeviation="6"
         in="SourceGraphic" />
      <feDiffuseLighting
         id="feDiffuseLighting2807"
         result="diffuse"
         lighting-color="rgb(255,255,255)"
         surfaceScale="10"
         diffuseConstant="1">
        <feDistantLight
           id="feDistantLight2805"
           azimuth="235"
           elevation="25" />
      </feDiffuseLighting>
      <feComposite
         id="feComposite2809"
         result="composite1"
         k1="1"
         operator="arithmetic"
         in2="diffuse"
         in="diffuse" />
      <feComposite
         id="feComposite2811"
         result="composite2"
         k3="1"
         operator="arithmetic"
         k1="1"
         in2="SourceGraphic"
         in="composite1" />
    </filter>
    <filter
       id="filter2825"
       inkscape:label="Diffuse Light"
       style="color-interpolation-filters:sRGB;">
      <feGaussianBlur
         id="feGaussianBlur2815"
         result="blur"
         stdDeviation="6"
         in="SourceGraphic" />
      <feDiffuseLighting
         id="feDiffuseLighting2819"
         result="diffuse"
         lighting-color="rgb(255,255,255)"
         surfaceScale="10"
         diffuseConstant="1">
        <feDistantLight
           id="feDistantLight2817"
           azimuth="235"
           elevation="25" />
      </feDiffuseLighting>
      <feComposite
         id="feComposite2821"
         result="composite1"
         k1="1"
         operator="arithmetic"
         in2="diffuse"
         in="diffuse" />
      <feComposite
         id="feComposite2823"
         result="composite2"
         k3="1"
         operator="arithmetic"
         k1="1"
         in2="SourceGraphic"
         in="composite1" />
    </filter>
    <filter
       id="filter2837"
       inkscape:label="Diffuse Light"
       style="color-interpolation-filters:sRGB;">
      <feGaussianBlur
         id="feGaussianBlur2827"
         result="blur"
         stdDeviation="6"
         in="SourceGraphic" />
      <feDiffuseLighting
         id="feDiffuseLighting2831"
         result="diffuse"
         lighting-color="rgb(255,255,255)"
         surfaceScale="10"
         diffuseConstant="1">
        <feDistantLight
           id="feDistantLight2829"
           azimuth="235"
           elevation="25" />
      </feDiffuseLighting>
      <feComposite
         id="feComposite2833"
         result="composite1"
         k1="1"
         operator="arithmetic"
         in2="diffuse"
         in="diffuse" />
      <feComposite
         id="feComposite2835"
         result="composite2"
         k3="1"
         operator="arithmetic"
         k1="1"
         in2="SourceGraphic"
         in="composite1" />
    </filter>
    <filter
       id="filter4016-1"
       inkscape:menu-tooltip="Basic diffuse bevel to use for building textures"
       inkscape:menu="ABCs"
       inkscape:label="Diffuse light"
       style="color-interpolation-filters:sRGB">
      <feGaussianBlur
         id="feGaussianBlur4018-9"
         result="result0"
         in="SourceGraphic"
         stdDeviation="5" />
      <feDiffuseLighting
         lighting-color="rgb(254,254,254)"
         id="feDiffuseLighting4020-37"
         result="result5"
         surfaceScale="10"
         diffuseConstant="1">
        <feDistantLight
           id="feDistantLight4022-12"
           azimuth="235"
           elevation="13" />
      </feDiffuseLighting>
      <feComposite
         in2="SourceGraphic"
         k4="0"
         id="feComposite4024-3"
         k3="0.6"
         k2="0"
         operator="arithmetic"
         result="result4"
         in="result5"
         k1="1" />
    </filter>
  </defs>
  <sodipodi:namedview
     id="base"
     pagecolor="#ffffff"
     bordercolor="#666666"
     borderopacity="1.0"
     inkscape:pageopacity="0.0"
     inkscape:pageshadow="2"
     inkscape:zoom="1.0384944"
     inkscape:cx="127.3723"
     inkscape:cy="264.07874"
     inkscape:document-units="px"
     inkscape:current-layer="layer1"
     showgrid="false"
     inkscape:window-width="1090"
     inkscape:window-height="623"
     inkscape:window-x="713"
     inkscape:window-y="260"
     inkscape:window-maximized="0"
     fit-margin-top="0"
     fit-margin-left="0"
     fit-margin-right="0"
     fit-margin-bottom="0"
     borderlayer="true" />
  <metadata
     id="metadata7">
    <rdf:RDF>
      <cc:Work
         rdf:about="">
        <dc:format>image/svg+xml</dc:format>
        <dc:type
           rdf:resource="http://purl.org/dc/dcmitype/StillImage" />
        <dc:title />
      </cc:Work>
    </rdf:RDF>
  </metadata>
  <g
     inkscape:label="Layer"
     inkscape:groupmode="layer"
     id="layer1"
     transform="translate(-197.70208,108.74546)">
    <g
       style="display:inline"
       transform="translate(1158.8989,-521.06745)"
       inkscape:label="Rings"
       id="layer7-3" />
    <g
       id="g7397"
       transform="matrix(0.39516847,0,0,0.39516847,-60.266785,157.67785)">
      <g
         id="g9640"
         transform="matrix(1.0421164,0,0,1,1599.6006,-336.98254)"
         style="stroke-width:0.97958446">
        <g
           id="text4502"
           style="font-style:normal;font-variant:normal;font-weight:normal;font-stretch:condensed;font-size:282.82723999px;line-height:100%;font-family:Impact;-inkscape-font-specification:'Impact, Condensed';font-variant-ligatures:normal;font-variant-caps:normal;font-variant-numeric:normal;font-feature-settings:normal;text-align:start;letter-spacing:0px;word-spacing:0px;writing-mode:lr-tb;text-anchor:start;fill:#006666;fill-opacity:1;stroke:none;stroke-width:18.47032738px;stroke-linecap:butt;stroke-linejoin:miter;stroke-opacity:0.99607843"
           transform="matrix(0.65193111,-0.00195511,0,1.5339044,0,0)"
           aria-label="Net">
          <path
             inkscape:connector-curvature="0"
             id="path9668"
             style="fill:#969eff;fill-opacity:1;stroke-width:18.47032738px;filter:url(#filter2765)"
             d="M -548.36859,76.120277 V 299.70295 h -50.95862 l -30.24373,-101.64104 v 101.64104 h -48.61093 V 76.120277 h 48.61093 l 32.59142,100.674343 V 76.120277 Z" />
          <path
             inkscape:connector-curvature="0"
             id="path9670"
             style="fill:#969eff;fill-opacity:1;stroke-width:18.47032738px;filter:url(#filter2837)"
             d="m -400.4643,211.31943 h -72.2259 v 39.63448 q 0,12.42894 1.79529,16.01952 1.79529,3.59058 6.90496,3.59058 6.35257,0 8.42405,-4.69538 2.20959,-4.83347 2.20959,-18.5053 v -24.16736 h 52.89201 v 13.53372 q 0,16.98621 -2.20959,26.10076 -2.07149,9.11455 -9.94314,19.47199 -7.87166,10.35744 -20.02439,15.60522 -12.01464,5.10967 -30.24373,5.10967 -17.67671,0 -31.21043,-5.10967 -13.53373,-5.10968 -21.12919,-13.94803 -7.45735,-8.97645 -10.35744,-19.61009 -2.90008,-10.77174 -2.90008,-31.21043 v -53.4444 q 0,-24.02927 6.49066,-37.83919 6.49067,-13.94803 21.26728,-21.26729 14.77662,-7.45736 33.97242,-7.45736 23.47687,0 38.66778,8.97646 15.32902,8.83835 21.40539,23.61496 6.21446,14.63852 6.21446,41.29168 z M -456.39449,181.49 v -13.39563 q 0,-14.22422 -1.51909,-18.3672 -1.51909,-4.14297 -6.21447,-4.14297 -5.80017,0 -7.18116,3.59058 -1.38099,3.45248 -1.38099,18.91959 V 181.49 Z" />
          <path
             inkscape:connector-curvature="0"
             id="path9672"
             style="fill:#969eff;fill-opacity:1;stroke-width:18.47032738px;filter:url(#filter2825)"
             d="m -323.26684,92.001689 v 28.862741 h 15.05281 v 29.00084 h -15.05281 v 98.05046 q 0,18.091 1.79529,20.16249 1.93338,2.07149 15.60521,2.07149 v 29.55324 h -22.51018 q -19.05769,0 -27.20555,-1.5191 -8.14785,-1.65719 -14.36232,-7.31926 -6.21446,-5.80016 -7.73355,-13.11942 -1.5191,-7.45736 -1.5191,-34.80101 v -93.07889 h -12.01463 v -29.00084 h 12.01463 V 92.001689 Z" />
        </g>
        <g
           id="text5161-2"
           style="font-style:normal;font-variant:normal;font-weight:normal;font-stretch:condensed;font-size:279px;line-height:0%;font-family:Impact;-inkscape-font-specification:'Impact, Condensed';font-variant-ligatures:normal;font-variant-caps:normal;font-variant-numeric:normal;font-feature-settings:normal;text-align:start;writing-mode:lr-tb;text-anchor:start;fill:#681c68;fill-opacity:1;stroke:none;stroke-width:1.02501976;stroke-miterlimit:4;stroke-dasharray:none;stroke-opacity:1"
           transform="scale(0.63831733,1.5666189)"
           aria-label="Verb">
          <path
             id="path9675"
             style="stroke-width:1.02501976"
             d="m -1095.1519,71.317841 -29.1533,220.557129 h -87.0512 l -33.104,-220.557129 h 60.4863 q 10.4897,91.138179 14.9853,154.076659 4.4956,-63.61963 9.3999,-113.07129 l 3.9507,-41.005369 z"
             inkscape:connector-curvature="0" />
          <path
             id="path9677"
             style="stroke-width:1.02501976"
             d="m -962.32715,204.68747 h -71.24855 v 39.09814 q 0,12.26075 1.771,15.80274 1.771,3.54199 6.8115,3.54199 6.2666,0 8.3101,-4.63184 2.1797,-4.76806 2.1797,-18.25488 v -23.84033 h 52.17625 v 13.35059 q 0,16.75634 -2.17969,25.74755 -2.04345,8.99122 -9.80859,19.2085 -7.76514,10.21729 -19.75342,15.39404 -11.85205,5.04053 -29.83445,5.04053 -17.4375,0 -30.7881,-5.04053 -13.3506,-5.04052 -20.8433,-13.75927 -7.3564,-8.85498 -10.2173,-19.34473 -2.8608,-10.62598 -2.8608,-30.78809 v -52.72119 q 0,-23.7041 6.4028,-37.32715 6.4029,-13.75927 20.9795,-20.97949 14.5767,-7.35644 33.5127,-7.35644 23.1592,0 38.14456,8.85498 15.12158,8.71875 21.11572,23.29541 6.13037,14.44043 6.13037,40.73291 z m -55.17335,-29.42578 v -13.21436 q 0,-14.03174 -1.4985,-18.11865 -1.4986,-4.08691 -6.1304,-4.08691 -5.7217,0 -7.084,3.54199 -1.3623,3.40576 -1.3623,18.66357 v 13.21436 z"
             inkscape:connector-curvature="0" />
          <path
             id="path9679"
             style="stroke-width:1.02501976"
             d="m -889.17139,111.09714 -2.17968,23.7041 q 11.98828,-25.4751 34.73877,-26.97363 v 63.61963 q -15.12159,0 -22.20557,4.08691 -7.08399,4.08691 -8.71875,11.44336 -1.63477,7.22021 -1.63477,33.51269 v 71.38477 H -944.2085 V 111.09714 Z"
             inkscape:connector-curvature="0" />
          <path
             id="path9681"
             style="stroke-width:1.02501976"
             d="m -789.45068,71.317841 v 52.176269 q 6.81152,-7.90137 15.12158,-11.71582 8.44629,-3.95068 18.25488,-3.95068 11.30713,0 19.61719,3.54199 8.31006,3.54199 12.66943,9.94482 4.35938,6.40283 5.17676,12.53321 0.95361,6.13037 0.95361,26.15625 v 81.46582 q 0,19.88964 -2.72461,29.69824 -2.58837,9.67236 -12.39697,16.89258 -9.80859,7.08398 -23.29541,7.08398 -9.67236,0 -18.11865,-4.22314 -8.31006,-4.22315 -15.25781,-12.66944 l -3.542,13.62305 h -51.49511 V 71.317841 Z m 16.75634,91.138179 q 0,-14.03173 -1.77099,-18.25488 -1.771,-4.35937 -6.94776,-4.35937 -5.04052,0 -6.53906,3.81445 -1.49853,3.67822 -1.49853,18.7998 v 77.92383 q 0,14.57666 1.63476,18.66358 1.771,4.08691 6.81153,4.08691 5.17675,0 6.67529,-4.22314 1.63476,-4.22315 1.63476,-20.29834 z"
             inkscape:connector-curvature="0" />
        </g>
      </g>
      <g
         id="g9646"
         transform="matrix(0.85620163,0,0,0.82159885,1507.7939,-253.78553)"
         style="stroke-width:1.19229043">
        <g
           id="text4581-5"
           style="font-style:normal;font-variant:normal;font-weight:normal;font-stretch:condensed;font-size:157.86955261px;line-height:0%;font-family:Impact;-inkscape-font-specification:'Impact, Condensed';font-variant-ligatures:normal;font-variant-caps:normal;font-variant-numeric:normal;font-feature-settings:normal;text-align:start;writing-mode:lr-tb;text-anchor:start;fill:#006f6f;fill-opacity:1;stroke-width:4.58787394"
           transform="scale(0.90620739,1.1035002)"
           aria-label="Bank">
          <path
             id="path9684"
             style="fill:#969eff;fill-opacity:1;stroke-width:6.74948788;filter:url(#filter2813)"
             d="m -526.8303,422.60794 h 32.37559 q 15.33986,0 23.20251,2.38963 7.93973,2.38963 12.79607,9.71268 4.85633,7.24596 4.85633,23.43376 0,10.94603 -3.46881,15.26278 -3.39173,4.31674 -13.48983,6.62929 11.25437,2.54379 15.26278,8.47932 4.00841,5.85844 4.00841,18.03783 v 11.56271 q 0,12.6419 -2.92922,18.73159 -2.85214,6.0897 -9.17309,8.32515 -6.32095,2.23546 -25.90047,2.23546 h -37.54027 z m 32.45268,21.35248 v 27.7505 q 2.08128,-0.0771 3.23755,-0.0771 4.77926,0 6.0897,-2.31254 1.31044,-2.38963 1.31044,-13.48983 0,-5.85844 -1.07919,-8.17098 -1.07918,-2.38963 -2.85213,-3.00631 -1.69587,-0.61668 -6.70637,-0.69376 z m 0,47.17586 v 34.91939 q 6.86054,-0.23126 8.71057,-2.15837 1.92712,-1.92712 1.92712,-9.48143 v -11.63979 q 0,-8.01682 -1.69586,-9.71268 -1.69587,-1.69587 -8.94183,-1.92712 z"
             inkscape:connector-curvature="0" />
          <path
             id="path9686"
             style="fill:#969eff;fill-opacity:1;stroke-width:6.74948788;filter:url(#filter2801)"
             d="m -412.6678,484.73825 h -29.21512 v -6.86055 q 0,-11.87105 2.69797,-18.26908 2.77505,-6.47512 11.02312,-11.40854 8.24806,-4.93343 21.42955,-4.93343 15.80238,0 23.81919,5.62719 8.01681,5.5501 9.63559,13.72109 1.61878,8.09389 1.61878,33.45477 v 51.33844 h -30.2943 v -9.096 q -2.85214,5.47302 -7.40014,8.24807 -4.47091,2.69797 -10.71478,2.69797 -8.17098,0 -15.03152,-4.548 -6.78346,-4.62509 -6.78346,-20.11912 v -8.40224 q 0,-11.48563 3.62298,-15.6482 3.62299,-4.16258 17.96075,-9.71268 15.33986,-6.01261 16.41905,-8.0939 1.07919,-2.08128 1.07919,-8.47932 0,-8.01681 -1.23336,-10.40644 -1.15627,-2.46671 -3.93132,-2.46671 -3.16048,0 -3.93132,2.08129 -0.77085,2.0042 -0.77085,10.56061 z m 9.86685,14.02942 q -7.47722,5.47302 -8.71058,9.17308 -1.15627,3.70007 -1.15627,10.6377 0,7.93973 1.0021,10.25227 1.07919,2.31254 4.16258,2.31254 2.92922,0 3.77715,-1.77295 0.92502,-1.85003 0.92502,-9.55851 z"
             inkscape:connector-curvature="0" />
          <path
             id="path9688"
             style="fill:#969eff;fill-opacity:1;stroke-width:6.74948788;filter:url(#filter2789)"
             d="m -329.26212,445.11669 -0.53959,9.40434 q 3.39173,-5.62719 8.24807,-8.40224 4.93342,-2.85214 11.33145,-2.85214 8.01682,0 13.10441,3.77716 5.08759,3.77715 6.5522,9.55851 1.46461,5.70427 1.46461,19.11701 v 71.68881 h -31.14223 v -70.84088 q 0,-10.56061 -0.69377,-12.87315 -0.69376,-2.31254 -3.85423,-2.31254 -3.31465,0 -4.16258,2.69797 -0.84793,2.62088 -0.84793,14.18359 v 69.14501 h -31.14224 V 445.11669 Z"
             inkscape:connector-curvature="0" />
          <path
             id="path9690"
             style="fill:#969eff;fill-opacity:1;stroke-width:6.74948788;filter:url(#filter2777)"
             d="m -211.24536,445.11669 -12.6419,40.77783 16.41905,61.51362 h -29.98597 l -9.71267,-44.55498 v 44.55498 h -31.14224 v -124.8002 h 31.14224 v 52.41763 l 9.71267,-29.90888 z"
             inkscape:connector-curvature="0" />
        </g>
        <g
           id="text4585-0"
           style="font-style:normal;font-variant:normal;font-weight:normal;font-stretch:condensed;font-size:165.32670593px;line-height:0%;font-family:Impact;-inkscape-font-specification:'Impact, Condensed';font-variant-ligatures:normal;font-variant-caps:normal;font-variant-numeric:normal;font-feature-settings:normal;text-align:start;writing-mode:lr-tb;text-anchor:start;fill:#5b185b;fill-opacity:1;stroke:none;stroke-width:5.21747446;stroke-miterlimit:4;stroke-dasharray:none;stroke-opacity:1"
           transform="scale(1.0018057,0.99819753)"
           aria-label="Prop">
          <path
             id="path9693"
             style="fill:#5b185b;fill-opacity:1;stroke-width:5.21747446"
             d="m -786.73373,474.88474 h 34.22779 q 13.88486,0 21.31165,2.1796 7.50751,2.1796 11.2209,6.29662 3.79412,4.11702 5.08574,10.01001 1.37234,5.81227 1.37234,18.08261 v 11.38236 q 0,12.51252 -2.58323,18.24406 -2.58323,5.73154 -9.52566,8.79912 -6.86171,3.06759 -18.00188,3.06759 h -9.12203 v 52.63331 h -33.98562 z m 33.98562,22.36108 v 33.25908 q 1.45306,0.0807 2.5025,0.0807 4.6821,0 6.45807,-2.26033 1.8567,-2.34105 1.8567,-9.60638 v -10.73655 q 0,-6.70026 -2.09887,-8.7184 -2.09888,-2.01815 -8.7184,-2.01815 z"
             inkscape:connector-curvature="0" />
          <path
             id="path9695"
             style="fill:#5b185b;fill-opacity:1;stroke-width:5.21747446"
             d="m -672.10291,498.45671 -1.29161,14.04631 q 7.10388,-15.09575 20.58511,-15.98374 v 37.69901 q -8.96058,0 -13.15833,2.42178 -4.19774,2.42178 -5.16646,6.78098 -0.96871,4.27847 -0.96871,19.85858 v 42.30039 h -32.61327 V 498.45671 Z"
             inkscape:connector-curvature="0" />
          <path
             id="path9697"
             style="fill:#5b185b;fill-opacity:1;stroke-width:5.21747446"
             d="m -571.84131,536.07499 v 26.23593 q 0,14.44994 -1.45306,21.23092 -1.45307,6.70025 -6.2159,12.59324 -4.76283,5.81227 -12.27034,8.63768 -7.42679,2.74468 -17.1139,2.74468 -10.81727,0 -18.32478,-2.34105 -7.50752,-2.42178 -11.70526,-7.18461 -4.11703,-4.84356 -5.893,-11.62453 -1.77597,-6.86171 -1.77597,-20.50439 v -27.44682 q 0,-14.93429 3.22904,-23.32979 3.22904,-8.3955 11.62453,-13.48123 8.3955,-5.08574 21.4731,-5.08574 10.97873,0 18.80914,3.30977 7.91114,3.22904 12.18962,8.47622 4.27847,5.24719 5.81227,10.81728 1.61451,5.57008 1.61451,16.95244 z m -32.61327,-8.07259 q 0,-8.23405 -0.88799,-10.33292 -0.88798,-2.1796 -3.79412,-2.1796 -2.90613,0 -3.87484,2.1796 -0.96871,2.09887 -0.96871,10.33292 v 48.35483 q 0,7.58824 0.96871,9.92929 0.96871,2.26033 3.79412,2.26033 2.90613,0 3.79412,-2.09888 0.96871,-2.09887 0.96871,-9.0413 z"
             inkscape:connector-curvature="0" />
          <path
             id="path9699"
             style="fill:#5b185b;fill-opacity:1;stroke-width:5.21747446"
             d="m -527.84566,498.45671 -0.56509,9.44493 q 4.3592,-5.73154 9.60639,-8.55695 5.24719,-2.82541 11.46308,-2.82541 7.58824,0 13.0776,4.11703 5.57009,4.03629 6.94243,9.36421 1.37234,5.32791 1.37234,18.0826 v 45.1258 q 0,14.61139 -1.77597,20.82729 -1.69524,6.13517 -7.10388,9.84856 -5.32791,3.63267 -12.91615,3.63267 -6.05444,0 -11.2209,-2.82541 -5.16646,-2.82541 -9.44494,-8.39549 v 24.54068 h -32.61327 V 498.45671 Z m 9.28348,31.16021 q 0,-9.92929 -0.72654,-12.02817 -0.72653,-2.09887 -4.03629,-2.09887 -3.22904,0 -4.19775,2.42178 -0.88799,2.42177 -0.88799,11.70526 v 44.39926 q 0,9.68711 0.96872,12.10889 0.96871,2.42178 4.19774,2.42178 3.14832,0 3.87485,-2.1796 0.80726,-2.26033 0.80726,-10.81728 z"
             inkscape:connector-curvature="0" />
        </g>
      </g>
    </g>
    <g
       transform="matrix(0.57303259,0,0,0.57303259,154.99823,-73.529265)"
       id="layer1-8"
       inkscape:label="Layer">
      <g
         id="g10537"
         transform="translate(326.2655,-443.91214)"
         style="stroke:#ff6600;filter:url(#filter4016-1)">
        <ellipse
           ry="143.60815"
           rx="143.52534"
           cy="538.18365"
           cx="46.087704"
           style="fill:none;stroke:#ff6600;stroke-width:16.16086197;stroke-miterlimit:4;stroke-dasharray:none;stroke-opacity:1"
           id="ellipse10515" />
        <path
           sodipodi:nodetypes="cccccccccccc"
           inkscape:connector-curvature="0"
           id="path10517"
           d="m -52.149993,538.87733 c 64.797616,0.28502 129.595231,0.57003 194.392863,0.85505 M 44.682378,641.30326 c 0.243947,-68.34766 0.487894,-136.6953 0.731851,-205.04295 m -59.895339,22.75193 c 31.826687,45.91009 31.589525,112.33723 -0.563825,157.96677 m 119.626385,0.52617 C 72.754756,571.5951 72.991917,505.16796 105.14527,459.53842 M -51.851943,538.54353 C -4.5962499,477.34274 95.800594,478.10256 142.6293,539.72808 m -0.31441,0.22216 C 95.059176,601.15102 -5.0240479,600.39257 -51.852743,538.76706"
           style="fill:none;stroke:#ff6600;stroke-width:12.72536182;stroke-opacity:1" />
        <ellipse
           ry="17.920031"
           rx="17.870319"
           cy="438.42767"
           cx="-466.94287"
           style="fill:#ff6600;fill-opacity:1;stroke:#ff6600;stroke-width:0.07928234"
           id="ellipse10519"
           transform="matrix(-0.72081244,-0.69313016,-0.66514612,0.74671323,0,0)" />
        <ellipse
           transform="matrix(-0.72081244,-0.69313016,-0.66514612,0.74671323,0,0)"
           id="ellipse10521"
           style="fill:#ff6600;fill-opacity:1;stroke:#ff6600;stroke-width:0.07928234"
           cx="-478.92422"
           cy="278.43362"
           rx="17.870319"
           ry="17.920031" />
        <ellipse
           transform="matrix(-0.72081244,-0.69313016,-0.66514612,0.74671323,0,0)"
           id="ellipse10523"
           style="fill:#ff6600;fill-opacity:1;stroke:#ff6600;stroke-width:0.07928234"
           cx="-306.6351"
           cy="436.62354"
           rx="17.870319"
           ry="17.920031" />
        <ellipse
           transform="matrix(-0.72081244,-0.69313016,-0.66514612,0.74671323,0,0)"
           id="ellipse10525"
           style="fill:#ff6600;fill-opacity:1;stroke:#ff6600;stroke-width:0.07928234"
           cx="-399.74319"
           cy="466.78085"
           rx="17.870319"
           ry="17.920031" />
        <ellipse
           ry="17.920031"
           rx="17.870319"
           cy="340.65161"
           cx="-281.89261"
           style="fill:#ff6600;fill-opacity:1;stroke:#ff6600;stroke-width:0.07928234"
           id="ellipse10527"
           transform="matrix(-0.72081244,-0.69313016,-0.66514612,0.74671323,0,0)" />
        <ellipse
           transform="matrix(-0.72081244,-0.69313016,-0.66514612,0.74671323,0,0)"
           id="ellipse10529"
           style="fill:#ff6600;fill-opacity:1;stroke:#ff6600;stroke-width:0.07928234"
           cx="-385.00516"
           cy="247.76277"
           rx="17.870319"
           ry="17.920031" />
        <ellipse
           ry="17.920031"
           rx="17.870319"
           cy="375.022"
           cx="-500.97342"
           style="fill:#4c0000;fill-opacity:1;stroke:#ff6600;stroke-width:0.07928234"
           id="ellipse10531"
           transform="matrix(-0.72081244,-0.69313016,-0.66514612,0.74671323,0,0)" />
        <ellipse
           transform="matrix(-0.72081244,-0.69313016,-0.66514612,0.74671323,0,0)"
           id="ellipse10533"
           style="fill:#ff6600;fill-opacity:1;stroke:#ff6600;stroke-width:0.07928234"
           cx="-500.97342"
           cy="375.022"
           rx="17.870319"
           ry="17.920031" />
        <ellipse
           transform="matrix(-0.72081244,-0.69313016,-0.66514612,0.74671323,0,0)"
           id="ellipse10535"
           style="fill:#ff6600;fill-opacity:1;stroke:#ff6600;stroke-width:0.07928234"
           cx="-317.02222"
           cy="275.43076"
           rx="17.870319"
           ry="17.920031" />
      </g>
    </g>
  </g>
  <style
     id="style8"
     type="text/css">
      .Border { fill: lightGray; stroke: black; stroke-width: 4; }
      .Label { font-size:24; font-family:Arial; fill:black; }
   </style>
  <style
     type="text/css"
     id="style8-5">
      .Border { fill: lightGray; stroke: black; stroke-width: 4; }
      .Label { font-size:24; font-family:Arial; fill:black; }
   </style>
  <style
     id="style8-8"
     type="text/css">
      .Border { fill: lightGray; stroke: black; stroke-width: 4; }
      .Label { font-size:24; font-family:Arial; fill:black; }
   </style>
  <style
     id="style8-4"
     type="text/css">
      .Border { fill: lightGray; stroke: black; stroke-width: 4; }
      .Label { font-size:24; font-family:Arial; fill:black; }
   </style>
  <style
     type="text/css"
     id="style8-1">
      .Border { fill: lightGray; stroke: black; stroke-width: 4; }
      .Label { font-size:24; font-family:Arial; fill:black; }
   </style>
  <style
     type="text/css"
     id="style8-6">
      .Border { fill: lightGray; stroke: black; stroke-width: 4; }
      .Label { font-size:24; font-family:Arial; fill:black; }
   </style>
  <style
     id="style8-24"
     type="text/css">
      .Border { fill: lightGray; stroke: black; stroke-width: 4; }
      .Label { font-size:24; font-family:Arial; fill:black; }
   </style>
  <style
     type="text/css"
     id="style8-5-806">
      .Border { fill: lightGray; stroke: black; stroke-width: 4; }
      .Label { font-size:24; font-family:Arial; fill:black; }
   </style>
  <style
     id="style8-8-2"
     type="text/css">
      .Border { fill: lightGray; stroke: black; stroke-width: 4; }
      .Label { font-size:24; font-family:Arial; fill:black; }
   </style>
  <style
     id="style8-4-65"
     type="text/css">
      .Border { fill: lightGray; stroke: black; stroke-width: 4; }
      .Label { font-size:24; font-family:Arial; fill:black; }
   </style>
  <style
     type="text/css"
     id="style8-1-6">
      .Border { fill: lightGray; stroke: black; stroke-width: 4; }
      .Label { font-size:24; font-family:Arial; fill:black; }
   </style>
  <style
     id="style8-2"
     type="text/css">
      .Border { fill: lightGray; stroke: black; stroke-width: 4; }
      .Label { font-size:24; font-family:Arial; fill:black; }
   </style>
  <style
     type="text/css"
     id="style8-5-8">
      .Border { fill: lightGray; stroke: black; stroke-width: 4; }
      .Label { font-size:24; font-family:Arial; fill:black; }
   </style>
  <style
     id="style8-8-8"
     type="text/css">
      .Border { fill: lightGray; stroke: black; stroke-width: 4; }
      .Label { font-size:24; font-family:Arial; fill:black; }
   </style>
  <style
     id="style8-4-4"
     type="text/css">
      .Border { fill: lightGray; stroke: black; stroke-width: 4; }
      .Label { font-size:24; font-family:Arial; fill:black; }
   </style>
  <style
     type="text/css"
     id="style8-1-9">
      .Border { fill: lightGray; stroke: black; stroke-width: 4; }
      .Label { font-size:24; font-family:Arial; fill:black; }
   </style>
  <style
     id="style8-7"
     type="text/css">
      .Border { fill: lightGray; stroke: black; stroke-width: 4; }
      .Label { font-size:24; font-family:Arial; fill:black; }
   </style>
  <style
     type="text/css"
     id="style8-5-80">
      .Border { fill: lightGray; stroke: black; stroke-width: 4; }
      .Label { font-size:24; font-family:Arial; fill:black; }
   </style>
  <style
     id="style8-8-89"
     type="text/css">
      .Border { fill: lightGray; stroke: black; stroke-width: 4; }
      .Label { font-size:24; font-family:Arial; fill:black; }
   </style>
  <style
     id="style8-4-7"
     type="text/css">
      .Border { fill: lightGray; stroke: black; stroke-width: 4; }
      .Label { font-size:24; font-family:Arial; fill:black; }
   </style>
  <style
     type="text/css"
     id="style8-1-8">
      .Border { fill: lightGray; stroke: black; stroke-width: 4; }
      .Label { font-size:24; font-family:Arial; fill:black; }
   </style>
  <style
     id="style8-49"
     type="text/css">
      .Border { fill: lightGray; stroke: black; stroke-width: 4; }
      .Label { font-size:24; font-family:Arial; fill:black; }
   </style>
  <style
     type="text/css"
     id="style8-5-5">
      .Border { fill: lightGray; stroke: black; stroke-width: 4; }
      .Label { font-size:24; font-family:Arial; fill:black; }
   </style>
  <style
     id="style8-8-3"
     type="text/css">
      .Border { fill: lightGray; stroke: black; stroke-width: 4; }
      .Label { font-size:24; font-family:Arial; fill:black; }
   </style>
  <style
     id="style8-4-5"
     type="text/css">
      .Border { fill: lightGray; stroke: black; stroke-width: 4; }
      .Label { font-size:24; font-family:Arial; fill:black; }
   </style>
  <style
     type="text/css"
     id="style8-1-1">
      .Border { fill: lightGray; stroke: black; stroke-width: 4; }
      .Label { font-size:24; font-family:Arial; fill:black; }
   </style>
  <style
     id="style8-59"
     type="text/css">
      .Border { fill: lightGray; stroke: black; stroke-width: 4; }
      .Label { font-size:24; font-family:Arial; fill:black; }
   </style>
  <style
     type="text/css"
     id="style8-5-0">
      .Border { fill: lightGray; stroke: black; stroke-width: 4; }
      .Label { font-size:24; font-family:Arial; fill:black; }
   </style>
  <style
     id="style8-8-6"
     type="text/css">
      .Border { fill: lightGray; stroke: black; stroke-width: 4; }
      .Label { font-size:24; font-family:Arial; fill:black; }
   </style>
  <style
     id="style8-4-6"
     type="text/css">
      .Border { fill: lightGray; stroke: black; stroke-width: 4; }
      .Label { font-size:24; font-family:Arial; fill:black; }
   </style>
  <style
     type="text/css"
     id="style8-1-2">
      .Border { fill: lightGray; stroke: black; stroke-width: 4; }
      .Label { font-size:24; font-family:Arial; fill:black; }
   </style>
  <style
     id="style8-50"
     type="text/css">
      .Border { fill: lightGray; stroke: black; stroke-width: 4; }
      .Label { font-size:24; font-family:Arial; fill:black; }
   </style>
  <style
     type="text/css"
     id="style8-5-6">
      .Border { fill: lightGray; stroke: black; stroke-width: 4; }
      .Label { font-size:24; font-family:Arial; fill:black; }
   </style>
  <style
     id="style8-8-5"
     type="text/css">
      .Border { fill: lightGray; stroke: black; stroke-width: 4; }
      .Label { font-size:24; font-family:Arial; fill:black; }
   </style>
  <style
     id="style8-4-0"
     type="text/css">
      .Border { fill: lightGray; stroke: black; stroke-width: 4; }
      .Label { font-size:24; font-family:Arial; fill:black; }
   </style>
  <style
     type="text/css"
     id="style8-1-81">
      .Border { fill: lightGray; stroke: black; stroke-width: 4; }
      .Label { font-size:24; font-family:Arial; fill:black; }
   </style>
  <style
     type="text/css"
     id="style8-6-6">
      .Border { fill: lightGray; stroke: black; stroke-width: 4; }
      .Label { font-size:24; font-family:Arial; fill:black; }
   </style>
  <style
     type="text/css"
     id="style8-10">
      .Border { fill: lightGray; stroke: black; stroke-width: 4; }
      .Label { font-size:24; font-family:Arial; fill:black; }
   </style>
  <style
     type="text/css"
     id="style8-3">
      .Border { fill: lightGray; stroke: black; stroke-width: 4; }
      .Label { font-size:24; font-family:Arial; fill:black; }
   </style>
</svg>
