<?xml version="1.0" encoding="UTF-8" standalone="no"?>
<svg xmlns:dc="http://purl.org/dc/elements/1.1/" xmlns:cc="http://creativecommons.org/ns#" xmlns:rdf="http://www.w3.org/1999/02/22-rdf-syntax-ns#" xmlns="http://www.w3.org/2000/svg" xmlns:sodipodi="http://sodipodi.sourceforge.net/DTD/sodipodi-0.dtd"
	xmlns:inkscape="http://www.inkscape.org/namespaces/inkscape" version="1.0" height="250" width="250" id="svg2" sodipodi:version="0.32" inkscape:version="0.92.3 (2405546, 2018-03-11)" sodipodi:docname="ic_logo.svg" inkscape:output_extension="org.inkscape.output.svg.inkscape" inkscape:export-filename="/home/bbou/Images/svg/treebolic-logo32.png" inkscape:export-xdpi="5.4420452" inkscape:export-ydpi="5.4420452">
	<metadata id="metadata29">
		<rdf:RDF>
			<cc:Work rdf:about="">
				<dc:format>image/svg+xml</dc:format>
				<dc:type rdf:resource="http://purl.org/dc/dcmitype/StillImage" />
				<dc:title>Example showing a blue circle with 3D highlighting effect</dc:title>
			</cc:Work>
		</rdf:RDF>
	</metadata>
	<sodipodi:namedview inkscape:window-height="1136" inkscape:window-width="1869" inkscape:pageshadow="2" inkscape:pageopacity="0.0" guidetolerance="10.0" gridtolerance="10.0" objecttolerance="10.0" borderopacity="1.0" bordercolor="#666666"
		pagecolor="#ffffff" id="base" showgrid="false" inkscape:zoom="0.98235203" inkscape:cx="-181.68428" inkscape:cy="121.88891" inkscape:window-x="51" inkscape:window-y="27" inkscape:current-layer="svg2" inkscape:window-maximized="1" />
	<title id="title4">Example showing a blue circle with 3D highlighting effect</title>
	<desc id="desc6">Picture of a blue sphere (circle with 3D highlighting)</desc>
	<style type="text/css" id="style8">
		.Border { fill: lightGray; stroke: black; stroke-width: 4; }
		.Label { font-size:24; font-family:Arial; fill:black; }
	</style>
	<defs id="defs10" />
	<g id="Star_1_-_empty" transform="matrix(5.5085249,0,0,5.5085249,-3344.7537,-313.57774)" style="fill:#ff0000;fill-opacity:1">
		<g id="g6866" style="fill:#ff0000;fill-opacity:1">
			<path style="fill:#ff0000;fill-opacity:1" inkscape:connector-curvature="0"
				d="m 617.617,100.868 c -0.703,0 -1.336,-0.279 -1.781,-0.785 -0.496,-0.56 -0.707,-1.346 -0.6,-2.215 l 1.354,-10.822 c 0.074,-0.585 -0.262,-1.62 -0.666,-2.049 l -7.453,-7.961 c -0.742,-0.792 -1.004,-1.754 -0.717,-2.637 0.287,-0.883 1.063,-1.508 2.129,-1.712 l 10.709,-2.056 c 0.578,-0.111 1.459,-0.752 1.746,-1.27 l 5.08,-9.213 c 0.199,-0.404 0.988,-1.78 2.469,-1.78 1.557,0 2.383,1.58 2.531,1.897 l 5.02,9.097 c 0.285,0.517 1.168,1.157 1.746,1.269 l 10.709,2.056 c 1.066,0.205 1.842,0.829 2.129,1.712 0.287,0.883 0.025,1.844 -0.717,2.637 l -7.453,7.96 c -0.404,0.43 -0.74,1.465 -0.668,2.051 l 1.352,10.822 c 0.109,0.866 -0.102,1.652 -0.596,2.213 -0.723,0.816 -1.939,1.017 -3.1,0.475 l -9.873,-4.633 c -0.197,-0.092 -0.582,-0.189 -1.08,-0.189 -0.498,0 -0.883,0.098 -1.078,0.188 l -9.873,4.633 c -0.444,0.207 -0.887,0.312 -1.319,0.312 z m 12.27,-8.239 c 0.883,0 1.734,0.172 2.398,0.484 l 9.057,4.249 -1.238,-9.932 c -0.186,-1.498 0.451,-3.457 1.482,-4.557 l 6.84,-7.304 -9.828,-1.891 c -1.48,-0.284 -3.148,-1.495 -3.879,-2.817 l -4.832,-8.764 -4.832,8.763 c -0.73,1.323 -2.396,2.534 -3.879,2.818 l -9.824,1.887 6.838,7.309 c 1.031,1.101 1.668,3.06 1.48,4.558 l -1.242,9.928 9.063,-4.247 c 0.663,-0.312 1.515,-0.484 2.396,-0.484 z"
				id="path6864" />
		</g>
	</g>
	<path style="fill:#faf320;fill-opacity:1;stroke-width:17.6133709" inkscape:connector-curvature="0"
		d="m 864.12036,-409.59027 c 0,10.93789 -6.97491,14.28445 -15.48216,7.39763 l -68.53363,-55.39406 c -8.48965,-6.88683 -22.42182,-6.88683 -30.9643,0 l -68.53363,55.39406 c -8.48965,6.88682 -15.48216,3.54026 -15.48216,-7.39763 v -338.26479 c 0,-10.93789 8.98282,-19.8855 19.92073,-19.8855 h 159.17202 c 10.93791,0 19.8855,8.94761 19.8855,19.8855 v 338.26479 z"
		id="path6871" />
</svg>
