<svg xmlns="http://www.w3.org/2000/svg" width="250" height="250" version="1.0"><desc>Picture of a blue sphere (circle with 3D highlighting)</desc><path d="M617.617 100.868a2.333 2.333 0 0 1-1.781-.785c-.496-.56-.707-1.346-.6-2.215l1.354-10.822c.074-.585-.262-1.62-.666-2.049l-7.453-7.961c-.742-.792-1.004-1.754-.717-2.637.287-.883 1.063-1.508 2.129-1.712l10.709-2.056c.578-.111 1.459-.752 1.746-1.27l5.08-9.213c.199-.404.988-1.78 2.469-1.78 1.557 0 2.383 1.58 2.531 1.897l5.02 9.097c.285.517 1.168 1.157 1.746 1.269l10.709 2.056c1.066.205 1.842.829 2.129 1.712.287.883.025 1.844-.717 2.637l-7.453 7.96c-.404.43-.74 1.465-.668 2.051l1.352 10.822c.109.866-.102 1.652-.596 2.213-.723.816-1.939 1.017-3.1.475l-9.873-4.633c-.197-.092-.582-.189-1.08-.189-.498 0-.883.098-1.078.188l-9.873 4.633a3.116 3.116 0 0 1-1.319.312zm12.27-8.239c.883 0 1.734.172 2.398.484l9.057 4.249-1.238-9.932c-.186-1.498.451-3.457 1.482-4.557l6.84-7.304-9.828-1.891c-1.48-.284-3.148-1.495-3.879-2.817l-4.832-8.764-4.832 8.763c-.73 1.323-2.396 2.534-3.879 2.818l-9.824 1.887 6.838 7.309c1.031 1.101 1.668 3.06 1.48 4.558l-1.242 9.928 9.063-4.247c.663-.312 1.515-.484 2.396-.484z" style="fill:red;fill-opacity:1" transform="matrix(5.50852 0 0 5.50852 -3344.754 -313.578)"/><path d="M864.12-409.59c0 10.938-6.975 14.284-15.482 7.397l-68.533-55.394c-8.49-6.887-22.422-6.887-30.965 0l-68.533 55.394c-8.49 6.887-15.483 3.54-15.483-7.397v-338.265c0-10.938 8.983-19.886 19.921-19.886h159.172c10.938 0 19.886 8.948 19.886 19.886v338.265z" style="fill:#faf320;fill-opacity:1;stroke-width:17.6133709"/></svg>