<?xml version="1.0" encoding="UTF-8" standalone="no"?><!-- Created with Inkscape (http://www.inkscape.org/) -->

<svg xmlns:dc="http://purl.org/dc/elements/1.1/" xmlns:cc="http://creativecommons.org/ns#" xmlns:rdf="http://www.w3.org/1999/02/22-rdf-syntax-ns#" xmlns="http://www.w3.org/2000/svg" xmlns:sodipodi="http://sodipodi.sourceforge.net/DTD/sodipodi-0.dtd"
	xmlns:inkscape="http://www.inkscape.org/namespaces/inkscape" version="1.0" width="128" height="128" id="svg2" inkscape:version="0.91 r13725" sodipodi:docname="bn_setup.svg" inkscape:export-filename="sphere-red.png" inkscape:export-xdpi="25.3125"
	inkscape:export-ydpi="25.3125">
	<metadata id="metadata3021">
		<rdf:RDF>
			<cc:Work rdf:about="">
				<dc:format>image/svg+xml</dc:format>
				<dc:type rdf:resource="http://purl.org/dc/dcmitype/StillImage" />
				<dc:title />
			</cc:Work>
		</rdf:RDF>
	</metadata>
	<sodipodi:namedview pagecolor="#ffffff" bordercolor="#666666" borderopacity="1" objecttolerance="10" gridtolerance="10" guidetolerance="10" inkscape:pageopacity="0" inkscape:pageshadow="2" inkscape:window-width="1226" inkscape:window-height="990"
		id="namedview3019" showgrid="false" inkscape:zoom="1.3037281" inkscape:cx="-121.15439" inkscape:cy="63.999999" inkscape:window-x="424" inkscape:window-y="34" inkscape:window-maximized="0" inkscape:current-layer="svg2" />
	<defs id="defs5" />
	<path style="fill:none" inkscape:connector-curvature="0" d="m 132.96888,133.64172 152.86122,0 0,152.86122 -152.86122,0 z" id="path4135" />
	<path style="fill:#ffffff" inkscape:connector-curvature="0"
		d="m 109.99571,70.469942 c 0.24531,-1.923221 0.42929,-3.846443 0.42929,-5.889871 0,-2.043419 -0.18398,-3.966641 -0.42929,-5.889863 l 12.93989,-9.916612 c 1.16521,-0.901507 1.47184,-2.524227 0.73593,-3.846443 L 111.40622,24.132324 c -0.73592,-1.322217 -2.39173,-1.803025 -3.74092,-1.322217 L 92.394995,28.820176 C 89.206009,26.416147 85.771725,24.432827 82.03081,22.930305 L 79.700394,7.0036331 C 79.516421,5.5612096 78.228559,4.4794062 76.695401,4.4794062 l -24.530612,0 c -1.533169,0 -2.82102,1.0818034 -3.005003,2.5242269 L 46.82938,22.930305 c -3.740925,1.502522 -7.175209,3.545941 -10.364185,5.889871 L 21.19489,22.810107 c -1.41051,-0.540907 -3.005003,0 -3.740925,1.322217 L 5.1886637,44.927153 c -0.7972465,1.322216 -0.4292903,2.944936 0.7359222,3.846443 l 12.9398891,9.916612 c -0.245297,1.923222 -0.42928,3.906542 -0.42928,5.889863 0,1.98332 0.183983,3.96665 0.42928,5.889871 L 5.9245859,80.386545 C 4.7593734,81.288063 4.4527416,82.910781 5.1886637,84.232988 L 17.453965,105.02783 c 0.735922,1.32221 2.39174,1.80301 3.740925,1.32221 l 15.270305,-6.01007 c 3.188976,2.40402 6.62326,4.38735 10.364185,5.88987 l 2.330406,15.92667 c 0.183983,1.44242 1.471834,2.52423 3.005003,2.52423 l 24.530612,0 c 1.533158,0 2.82102,-1.08181 3.004993,-2.52423 l 2.330416,-15.92667 c 3.740915,-1.50252 7.175199,-3.54594 10.364185,-5.88987 l 15.270305,6.01007 c 1.41051,0.5409 3.005,0 3.74092,-1.32221 l 12.26531,-20.794842 c 0.73591,-1.322207 0.42928,-2.944925 -0.73593,-3.846443 L 109.99571,70.469942 Z M 64.43009,85.615304 c -11.83602,0 -21.464284,-9.435804 -21.464284,-21.035233 0,-11.59943 9.628264,-21.035234 21.464284,-21.035234 11.83602,0 21.464284,9.435804 21.464284,21.035234 0,11.599429 -9.628264,21.035233 -21.464284,21.035233 z"
		id="path4137" />
</svg>
