<?xml version="1.0" encoding="UTF-8" standalone="no"?>
<svg
   xmlns:osb="http://www.openswatchbook.org/uri/2009/osb"
   xmlns:dc="http://purl.org/dc/elements/1.1/"
   xmlns:cc="http://creativecommons.org/ns#"
   xmlns:rdf="http://www.w3.org/1999/02/22-rdf-syntax-ns#"
   xmlns:svg="http://www.w3.org/2000/svg"
   xmlns="http://www.w3.org/2000/svg"
   xmlns:sodipodi="http://sodipodi.sourceforge.net/DTD/sodipodi-0.dtd"
   xmlns:inkscape="http://www.inkscape.org/namespaces/inkscape"
   height="1000"
   width="937.5"
   id="svg2"
   version="1.1"
   inkscape:version="0.91 r13725"
   sodipodi:docname="ic_help.svg">
  <metadata
     id="metadata10">
    <rdf:RDF>
      <cc:Work
         rdf:about="">
        <dc:format>image/svg+xml</dc:format>
        <dc:type
           rdf:resource="http://purl.org/dc/dcmitype/StillImage" />
      </cc:Work>
    </rdf:RDF>
  </metadata>
  <defs
     id="defs8">
    <linearGradient
       id="linearGradient19282"
       osb:paint="solid"
       gradientTransform="matrix(0,0,0,0,-110542770,-6317143.7)">
      <stop
         style="stop-color:#666666;stop-opacity:1;"
         offset="0"
         id="stop19284" />
    </linearGradient>
    <inkscape:path-effect
       effect="spiro"
       id="path-effect36695"
       is_visible="true" />
    <clipPath
       id="clipPath980">
      <path
         d="m 5.38916,28.1929 21.80814,0 0,-24.32864 -21.80814,0 0,24.32864 z"
         inkscape:connector-curvature="0"
         id="path982" />
    </clipPath>
    <clipPath
       id="clipPath46">
      <path
         d="M 0,32 32,32 32,0 0,0 0,32 Z"
         inkscape:connector-curvature="0"
         id="path48" />
    </clipPath>
    <clipPath
       id="clipPath980-5">
      <path
         d="m 5.38916,28.1929 21.80814,0 0,-24.32864 -21.80814,0 0,24.32864 z"
         inkscape:connector-curvature="0"
         id="path982-0" />
    </clipPath>
    <clipPath
       id="clipPath46-9">
      <path
         d="M 0,32 32,32 32,0 0,0 0,32 Z"
         inkscape:connector-curvature="0"
         id="path48-0" />
    </clipPath>
    <clipPath
       id="clipPath46-8">
      <path
         id="path48-9"
         inkscape:connector-curvature="0"
         d="M 0,32 32,32 32,0 0,0 0,32 z" />
    </clipPath>
    <clipPath
       id="clipPath980-6">
      <path
         id="path982-8"
         inkscape:connector-curvature="0"
         d="m 5.38916,28.1929 21.80814,0 0,-24.32864 -21.80814,0 0,24.32864 z" />
    </clipPath>
    <clipPath
       id="clipPath9180"
       clipPathUnits="userSpaceOnUse">
      <path
         transform="matrix(1.3993902,0,0,1.1907217,3.486295,1.0575123)"
         d="m 87.96199,52.105968 a 43.980995,52.026299 0 1 1 -87.96199,0 43.980995,52.026299 0 1 1 87.96199,0 z"
         sodipodi:ry="52.026299"
         sodipodi:rx="43.980995"
         sodipodi:cy="52.105968"
         sodipodi:cx="43.980995"
         id="path9182"
         style="fill:#a9a9a9;fill-opacity:1;fill-rule:evenodd;stroke:none"
         sodipodi:type="arc" />
    </clipPath>
    <clipPath
       id="clipPath9184"
       clipPathUnits="userSpaceOnUse">
      <path
         transform="matrix(0.1815424,0,0,0.1544719,788.01368,700.63965)"
         d="m 87.96199,52.105968 a 43.980995,52.026299 0 1 1 -87.96199,0 43.980995,52.026299 0 1 1 87.96199,0 z"
         sodipodi:ry="52.026299"
         sodipodi:rx="43.980995"
         sodipodi:cy="52.105968"
         sodipodi:cx="43.980995"
         id="path9186"
         style="fill:#a9a9a9;fill-opacity:1;fill-rule:evenodd;stroke:none"
         sodipodi:type="arc" />
    </clipPath>
    <clipPath
       id="clipPath46-7">
      <path
         d="M 0,32 32,32 32,0 0,0 0,32 z"
         inkscape:connector-curvature="0"
         id="path48-8" />
    </clipPath>
    <clipPath
       id="clipPath980-58">
      <path
         d="m 5.38916,28.1929 21.80814,0 0,-24.32864 -21.80814,0 0,24.32864 z"
         inkscape:connector-curvature="0"
         id="path982-7" />
    </clipPath>
    <inkscape:path-effect
       effect="spiro"
       id="path-effect36695-8"
       is_visible="true" />
    <inkscape:path-effect
       is_visible="true"
       id="path-effect36695-5"
       effect="spiro" />
    <clipPath
       id="clipPath980-9">
      <path
         id="path982-06"
         inkscape:connector-curvature="0"
         d="m 5.38916,28.1929 21.80814,0 0,-24.32864 -21.80814,0 0,24.32864 z" />
    </clipPath>
    <clipPath
       id="clipPath46-8-5">
      <path
         id="path48-6"
         inkscape:connector-curvature="0"
         d="M 0,32 32,32 32,0 0,0 0,32 z" />
    </clipPath>
    <clipPath
       id="clipPath980-5-2">
      <path
         id="path982-0-8"
         inkscape:connector-curvature="0"
         d="m 5.38916,28.1929 21.80814,0 0,-24.32864 -21.80814,0 0,24.32864 z" />
    </clipPath>
    <clipPath
       id="clipPath46-9-5">
      <path
         id="path48-0-7"
         inkscape:connector-curvature="0"
         d="M 0,32 32,32 32,0 0,0 0,32 z" />
    </clipPath>
    <inkscape:path-effect
       is_visible="true"
       id="path-effect36695-9"
       effect="spiro" />
    <clipPath
       id="clipPath46-99">
      <path
         id="path48-96"
         inkscape:connector-curvature="0"
         d="M 0,32 32,32 32,0 0,0 0,32 z" />
    </clipPath>
    <clipPath
       id="clipPath980-0">
      <path
         id="path982-6"
         inkscape:connector-curvature="0"
         d="m 5.38916,28.1929 21.80814,0 0,-24.32864 -21.80814,0 0,24.32864 z" />
    </clipPath>
    <clipPath
       id="clipPath46-3">
      <path
         id="path48-05"
         inkscape:connector-curvature="0"
         d="M 0,32 32,32 32,0 0,0 0,32 z" />
    </clipPath>
    <clipPath
       id="clipPath980-4">
      <path
         id="path982-1"
         inkscape:connector-curvature="0"
         d="m 5.38916,28.1929 21.80814,0 0,-24.32864 -21.80814,0 0,24.32864 z" />
    </clipPath>
    <inkscape:path-effect
       effect="spiro"
       id="path-effect36695-85"
       is_visible="true" />
    <clipPath
       id="clipPath980-1">
      <path
         d="m 5.38916,28.1929 21.80814,0 0,-24.32864 -21.80814,0 0,24.32864 z"
         inkscape:connector-curvature="0"
         id="path982-9" />
    </clipPath>
    <clipPath
       id="clipPath46-96">
      <path
         d="M 0,32 32,32 32,0 0,0 0,32 Z"
         inkscape:connector-curvature="0"
         id="path48-7" />
    </clipPath>
    <clipPath
       id="clipPath980-5-9">
      <path
         d="m 5.38916,28.1929 21.80814,0 0,-24.32864 -21.80814,0 0,24.32864 z"
         inkscape:connector-curvature="0"
         id="path982-0-0" />
    </clipPath>
    <clipPath
       id="clipPath46-9-59">
      <path
         d="M 0,32 32,32 32,0 0,0 0,32 Z"
         inkscape:connector-curvature="0"
         id="path48-0-76" />
    </clipPath>
    <clipPath
       id="clipPath9180-8"
       clipPathUnits="userSpaceOnUse">
      <path
         transform="matrix(1.3993902,0,0,1.1907217,3.486295,1.0575123)"
         d="m 87.96199,52.105968 a 43.980995,52.026299 0 1 1 -87.96199,0 43.980995,52.026299 0 1 1 87.96199,0 z"
         sodipodi:ry="52.026299"
         sodipodi:rx="43.980995"
         sodipodi:cy="52.105968"
         sodipodi:cx="43.980995"
         id="path9182-1"
         style="fill:#a9a9a9;fill-opacity:1;fill-rule:evenodd;stroke:none"
         sodipodi:type="arc" />
    </clipPath>
    <clipPath
       id="clipPath9184-8"
       clipPathUnits="userSpaceOnUse">
      <path
         transform="matrix(0.1815424,0,0,0.1544719,788.01368,700.63965)"
         d="m 87.96199,52.105968 a 43.980995,52.026299 0 1 1 -87.96199,0 43.980995,52.026299 0 1 1 87.96199,0 z"
         sodipodi:ry="52.026299"
         sodipodi:rx="43.980995"
         sodipodi:cy="52.105968"
         sodipodi:cx="43.980995"
         id="path9186-9"
         style="fill:#a9a9a9;fill-opacity:1;fill-rule:evenodd;stroke:none"
         sodipodi:type="arc" />
    </clipPath>
    <clipPath
       id="clipPath46-2">
      <path
         d="M 0,32 32,32 32,0 0,0 0,32 z"
         inkscape:connector-curvature="0"
         id="path48-95" />
    </clipPath>
    <clipPath
       id="clipPath980-46">
      <path
         d="m 5.38916,28.1929 21.80814,0 0,-24.32864 -21.80814,0 0,24.32864 z"
         inkscape:connector-curvature="0"
         id="path982-2" />
    </clipPath>
    <inkscape:path-effect
       effect="spiro"
       id="path-effect36695-7"
       is_visible="true" />
    <inkscape:path-effect
       is_visible="true"
       id="path-effect36695-5-7"
       effect="spiro" />
    <clipPath
       id="clipPath980-9-1">
      <path
         id="path982-06-7"
         inkscape:connector-curvature="0"
         d="m 5.38916,28.1929 21.80814,0 0,-24.32864 -21.80814,0 0,24.32864 z" />
    </clipPath>
    <clipPath
       id="clipPath46-8-1">
      <path
         id="path48-6-8"
         inkscape:connector-curvature="0"
         d="M 0,32 32,32 32,0 0,0 0,32 z" />
    </clipPath>
    <clipPath
       id="clipPath980-5-6">
      <path
         id="path982-0-80"
         inkscape:connector-curvature="0"
         d="m 5.38916,28.1929 21.80814,0 0,-24.32864 -21.80814,0 0,24.32864 z" />
    </clipPath>
    <clipPath
       id="clipPath46-9-7">
      <path
         id="path48-0-8"
         inkscape:connector-curvature="0"
         d="M 0,32 32,32 32,0 0,0 0,32 z" />
    </clipPath>
    <clipPath
       id="clipPath46-6">
      <path
         id="path48-08"
         inkscape:connector-curvature="0"
         d="M 0,32 32,32 32,0 0,0 0,32 z" />
    </clipPath>
    <clipPath
       id="clipPath980-8">
      <path
         id="path982-70"
         inkscape:connector-curvature="0"
         d="m 5.38916,28.1929 21.80814,0 0,-24.32864 -21.80814,0 0,24.32864 z" />
    </clipPath>
    <inkscape:path-effect
       is_visible="true"
       id="path-effect36695-98"
       effect="spiro" />
    <clipPath
       id="clipPath980-85">
      <path
         id="path982-84"
         inkscape:connector-curvature="0"
         d="m 5.38916,28.1929 21.80814,0 0,-24.32864 -21.80814,0 0,24.32864 z" />
    </clipPath>
    <clipPath
       id="clipPath46-37">
      <path
         id="path48-1"
         inkscape:connector-curvature="0"
         d="M 0,32 32,32 32,0 0,0 0,32 Z" />
    </clipPath>
    <clipPath
       id="clipPath980-5-3">
      <path
         id="path982-0-809"
         inkscape:connector-curvature="0"
         d="m 5.38916,28.1929 21.80814,0 0,-24.32864 -21.80814,0 0,24.32864 z" />
    </clipPath>
    <clipPath
       id="clipPath46-9-79">
      <path
         id="path48-0-9"
         inkscape:connector-curvature="0"
         d="M 0,32 32,32 32,0 0,0 0,32 Z" />
    </clipPath>
    <style
       type="text/css"
       id="style2988">
    .fil0 {fill:#006C3B}
    .fil1 {fill:#77C06C}
   </style>
    <style
       type="text/css"
       id="style2988-7">
    .fil0 {fill:#006C3B}
    .fil1 {fill:#77C06C}
   </style>
  </defs>
  <sodipodi:namedview
     pagecolor="#ffffff"
     bordercolor="#666666"
     borderopacity="1"
     objecttolerance="10"
     gridtolerance="10"
     guidetolerance="10"
     inkscape:pageopacity="0"
     inkscape:pageshadow="2"
     inkscape:window-width="1058"
     inkscape:window-height="1029"
     id="namedview6"
     showgrid="false"
     inkscape:zoom="0.24208851"
     inkscape:cx="471.08333"
     inkscape:cy="683.99491"
     inkscape:window-x="258"
     inkscape:window-y="228"
     inkscape:window-maximized="0"
     inkscape:current-layer="svg2" />
  <style
     type="text/css"
     id="style8">
      .Border { fill: lightGray; stroke: black; stroke-width: 4; }
      .Label { font-size:24; font-family:Arial; fill:black; }
   </style>
  <style
     type="text/css"
     id="style8-7">
      .Border { fill: lightGray; stroke: black; stroke-width: 4; }
      .Label { font-size:24; font-family:Arial; fill:black; }
   </style>
  <style
     type="text/css"
     id="style8-3">
      .Border { fill: lightGray; stroke: black; stroke-width: 4; }
      .Label { font-size:24; font-family:Arial; fill:black; }
   </style>
  <style
     type="text/css"
     id="style8-6">
      .Border { fill: lightGray; stroke: black; stroke-width: 4; }
      .Label { font-size:24; font-family:Arial; fill:black; }
   </style>
  <style
     id="style8-1"
     type="text/css">
      .Border { fill: lightGray; stroke: black; stroke-width: 4; }
      .Label { font-size:24; font-family:Arial; fill:black; }
   </style>
  <style
     id="style8-7-0"
     type="text/css">
      .Border { fill: lightGray; stroke: black; stroke-width: 4; }
      .Label { font-size:24; font-family:Arial; fill:black; }
   </style>
  <style
     id="style8-3-2"
     type="text/css">
      .Border { fill: lightGray; stroke: black; stroke-width: 4; }
      .Label { font-size:24; font-family:Arial; fill:black; }
   </style>
  <style
     id="style8-6-7"
     type="text/css">
      .Border { fill: lightGray; stroke: black; stroke-width: 4; }
      .Label { font-size:24; font-family:Arial; fill:black; }
   </style>
  <style
     type="text/css"
     id="style8-66">
      .Border { fill: lightGray; stroke: black; stroke-width: 4; }
      .Label { font-size:24; font-family:Arial; fill:black; }
   </style>
  <style
     type="text/css"
     id="style8-7-9">
      .Border { fill: lightGray; stroke: black; stroke-width: 4; }
      .Label { font-size:24; font-family:Arial; fill:black; }
   </style>
  <style
     type="text/css"
     id="style8-3-6">
      .Border { fill: lightGray; stroke: black; stroke-width: 4; }
      .Label { font-size:24; font-family:Arial; fill:black; }
   </style>
  <style
     type="text/css"
     id="style8-6-1">
      .Border { fill: lightGray; stroke: black; stroke-width: 4; }
      .Label { font-size:24; font-family:Arial; fill:black; }
   </style>
  <style
     id="style8-1-8"
     type="text/css">
      .Border { fill: lightGray; stroke: black; stroke-width: 4; }
      .Label { font-size:24; font-family:Arial; fill:black; }
   </style>
  <style
     id="style8-7-0-5"
     type="text/css">
      .Border { fill: lightGray; stroke: black; stroke-width: 4; }
      .Label { font-size:24; font-family:Arial; fill:black; }
   </style>
  <style
     id="style8-3-2-9"
     type="text/css">
      .Border { fill: lightGray; stroke: black; stroke-width: 4; }
      .Label { font-size:24; font-family:Arial; fill:black; }
   </style>
  <style
     id="style8-6-7-6"
     type="text/css">
      .Border { fill: lightGray; stroke: black; stroke-width: 4; }
      .Label { font-size:24; font-family:Arial; fill:black; }
   </style>
  <g
     id="g30"
     transform="matrix(40.104918,0,0,-40.104918,357.36074,815.36038)"
     style="fill:#c0c0c0;fill-opacity:1">
    <path
       style="fill:#c0c0c0;fill-opacity:1;fill-rule:nonzero;stroke:none"
       id="path32"
       inkscape:connector-curvature="0"
       d="m 0,0 c 0,0.432 0.062,0.797 0.186,1.096 0.124,0.298 0.296,0.539 0.517,0.723 0.22,0.184 0.48,0.317 0.779,0.4 0.298,0.082 0.617,0.124 0.957,0.124 0.322,0 0.628,-0.042 0.917,-0.124 C 3.645,2.136 3.9,2.003 4.121,1.819 4.341,1.635 4.515,1.394 4.644,1.096 4.773,0.797 4.837,0.432 4.837,0 4.837,-0.414 4.773,-0.768 4.644,-1.062 4.515,-1.355 4.341,-1.6 4.121,-1.793 3.9,-1.985 3.645,-2.125 3.356,-2.213 3.067,-2.3 2.761,-2.344 2.439,-2.344 2.099,-2.344 1.78,-2.3 1.482,-2.213 1.183,-2.125 0.923,-1.985 0.703,-1.793 0.482,-1.6 0.31,-1.355 0.186,-1.062 0.062,-0.768 0,-0.414 0,0 m 0.455,4.714 0,1.019 c 0,0.469 0.048,0.894 0.145,1.275 0.096,0.382 0.243,0.744 0.441,1.089 0.197,0.344 0.452,0.68 0.764,1.006 0.313,0.326 0.69,0.664 1.131,1.013 0.386,0.303 0.712,0.574 0.978,0.814 0.267,0.238 0.482,0.475 0.648,0.71 0.165,0.234 0.285,0.479 0.358,0.736 0.074,0.258 0.111,0.557 0.111,0.896 0,0.524 -0.178,0.957 -0.531,1.296 -0.354,0.34 -0.894,0.51 -1.62,0.51 -0.633,0 -1.316,-0.133 -2.047,-0.399 C 0.104,14.412 -0.653,14.086 -1.434,13.7 l -1.405,3.046 c 0.394,0.23 0.824,0.448 1.288,0.654 0.465,0.207 0.947,0.391 1.447,0.552 0.501,0.16 1.009,0.287 1.523,0.379 0.515,0.092 1.02,0.138 1.517,0.138 0.937,0 1.782,-0.113 2.535,-0.338 0.754,-0.225 1.393,-0.553 1.916,-0.985 0.525,-0.432 0.926,-0.957 1.206,-1.572 0.281,-0.616 0.421,-1.318 0.421,-2.108 0,-0.579 -0.065,-1.096 -0.193,-1.551 C 8.693,11.46 8.501,11.037 8.25,10.647 7.996,10.256 7.679,9.879 7.298,9.517 6.917,9.154 6.473,8.77 5.968,8.366 5.582,8.063 5.267,7.798 5.023,7.573 4.78,7.348 4.589,7.134 4.452,6.933 4.314,6.73 4.22,6.521 4.169,6.305 4.119,6.09 4.093,5.835 4.093,5.541 l 0,-0.827 -3.638,0 z" />
  </g>
</svg>
