<svg xmlns="http://www.w3.org/2000/svg" xml:space="preserve" width="64" height="64"><path d="M32.054 1.305a.214.214 0 0 0-.113.012c-1.148.441-6.7 5.825-7.965 6.626-2.788 1.767-5.68 3.132-7.37 3.333-3.606.429-3.895.183-6.765.271-2.87.088-8.062-.969-8.39.003-.328.972-.083 3.887.327 5.388.41 1.502 1.623 5.838 2.837 8.272.338.68 1.866 3.87 3.931 7.429 2.065 3.558 5.247 6.735 6.344 7.883 2.194 2.297 5.24 4.299 5.937 4.564 1.394.53 5.88 2.148 8.75 1.176 2.87-.971 5.356-3.143 5.684-4.115.164-.486 1.678-3.917 2.32-7.855.64-3.939.408-8.384.326-9.4-.164-2.032-.574-9.35-1.148-11.56-.556-2.138-3.479-11.825-4.705-12.027ZM27.91 13.85c2.102-.019 4.481 2.031 4.646 2.118l-7.877 3.576c.128-4.414 1.596-5.68 3.23-5.694zM16.81 19.684c2.102-.019 4.48 2.032 4.644 2.118l-7.875 3.576c.128-4.414 1.596-5.68 3.23-5.694zm16.396 9.28a.765.765 0 0 1 .309.014c1.022.253.733 3.772.13 5.85-.939 3.233-2.756 4.965-4.372 5.365-1.494.37-3.17.191-5.75-1.58-3.7-2.538-5.557-5.033-4.723-5.477 1.096-.584 5.801 2.332 9.084 1.52 2.91-.72 3.821-5.449 5.322-5.691zM57.663 33.537a.136.136 0 0 0-.072.008c-.726.279-4.238 3.684-5.038 4.19-1.763 1.118-3.592 1.981-4.66 2.109-2.282.27-2.464.115-4.28.17-1.814.057-5.098-.612-5.306.003-.207.614-.052 2.458.207 3.408.26.95 1.026 3.692 1.794 5.231.215.43 1.18 2.448 2.487 4.699 1.306 2.25 3.318 4.26 4.012 4.986 1.387 1.452 3.314 2.718 3.755 2.886.882.335 3.719 1.358 5.534.744 1.815-.615 3.388-1.988 3.595-2.603.104-.307 1.061-2.477 1.467-4.968.405-2.491.258-5.303.207-5.945-.104-1.285-.364-5.914-.727-7.31-.351-1.354-2.2-7.48-2.975-7.608zm-2.622 7.934c1.33-.012 2.834 1.285 2.938 1.34l-4.982 2.261c.082-2.791 1.01-3.592 2.044-3.601zm-7.02 3.69c1.33-.012 2.834 1.285 2.938 1.34l-4.98 2.262c.08-2.792 1.009-3.593 2.043-3.602zm10.37 5.87a.486.486 0 0 1 .196.008c.646.16.464 2.386.082 3.7-.593 2.045-1.743 3.14-2.765 3.393-.945.234-2.004.121-3.636-.999-2.34-1.605-3.515-3.183-2.988-3.464.694-.37 3.67 1.475 5.746.962 1.84-.456 2.416-3.447 3.366-3.6z" style="fill:#d3d3d3;fill-opacity:1;fill-rule:evenodd;stroke:none"/></svg>