<?xml version="1.0" encoding="UTF-8" standalone="no"?><!-- Generator: Adobe Illustrator 14.0.0, SVG Export Plug-In . SVG Version: 6.00 Build 43363)  -->

<svg xmlns:dc="http://purl.org/dc/elements/1.1/" xmlns:cc="http://creativecommons.org/ns#" xmlns:rdf="http://www.w3.org/1999/02/22-rdf-syntax-ns#" xmlns="http://www.w3.org/2000/svg" xmlns:sodipodi="http://sodipodi.sourceforge.net/DTD/sodipodi-0.dtd"
	xmlns:inkscape="http://www.inkscape.org/namespaces/inkscape" version="1.1" x="0px" y="0px" width="64" height="64" viewBox="0 0 64 64" enable-background="new 0 0 780 650" xml:space="preserve" id="svg4433" inkscape:version="0.91 r13725" sodipodi:docname="ic_role.svg"><metadata
     id="metadata5887"><rdf:RDF><cc:Work
         rdf:about=""><dc:format>image/svg+xml</dc:format><dc:type rdf:resource="http://purl.org/dc/dcmitype/StillImage" /></cc:Work></rdf:RDF></metadata>
	<defs id="defs5885" />
	<sodipodi:namedview pagecolor="#ffffff" bordercolor="#666666" borderopacity="1" objecttolerance="10" gridtolerance="10" guidetolerance="10" inkscape:pageopacity="0" inkscape:pageshadow="2" inkscape:window-width="1292" inkscape:window-height="767"
		id="namedview5883" showgrid="false" inkscape:zoom="1.9234755" inkscape:cx="-48.508492" inkscape:cy="-0.48276894" inkscape:window-x="531" inkscape:window-y="359" inkscape:window-maximized="0" inkscape:current-layer="svg4433" />
	<g id="Notification" transform="translate(-465.46203,-385.40339)" />
	<g id="Notification-5" transform="translate(-463.8149,-384.11737)" />
	<path style="fill:#d3d3d3;fill-opacity:1;fill-rule:evenodd;stroke:none"
		d="M 48.275391 1.9902344 C 48.220169 1.9815574 48.167284 1.9874603 48.117188 2.0058594 C 46.514026 2.5946288 38.759764 9.7718326 36.994141 10.839844 C 33.100753 13.194922 29.063432 15.015401 26.703125 15.283203 C 21.666661 15.854643 21.263759 15.526777 17.255859 15.644531 C 13.247957 15.762285 5.9971083 14.353109 5.5390625 15.648438 C 5.0810166 16.943731 5.4235363 20.830213 5.9960938 22.832031 C 6.568651 24.833847 8.2618563 30.615146 9.9570312 33.859375 C 10.430314 34.765146 12.563378 39.019629 15.447266 43.763672 C 18.331155 48.507714 22.775051 52.742636 24.306641 54.273438 C 27.369822 57.335039 31.624309 60.00416 32.597656 60.357422 C 34.544351 61.063945 40.808507 63.221074 44.816406 61.925781 C 48.824308 60.630488 52.29586 57.734746 52.753906 56.439453 C 52.982928 55.791807 55.096935 51.217456 55.992188 45.966797 C 56.887439 40.716106 56.56373 34.789718 56.449219 33.435547 C 56.220195 30.727208 55.647283 20.969237 54.845703 18.025391 C 54.069173 15.173538 49.987264 2.2592198 48.275391 1.9902344 z M 42.486328 18.712891 C 45.421781 18.688119 48.744641 21.421486 48.974609 21.537109 L 37.974609 26.304688 C 38.154083 20.420171 40.203198 18.732158 42.486328 18.712891 z M 26.988281 26.492188 C 29.923734 26.467415 33.244641 29.200783 33.474609 29.316406 L 22.476562 34.083984 C 22.656036 28.199468 24.705151 26.511455 26.988281 26.492188 z M 49.884766 38.865234 C 50.024465 38.843667 50.168332 38.847845 50.316406 38.882812 C 51.74326 39.219761 51.340063 43.912166 50.498047 46.681641 C 49.187467 50.992278 46.649593 53.300994 44.392578 53.833984 C 42.306744 54.326546 39.966922 54.089059 36.363281 51.728516 C 31.196628 48.344139 28.603273 45.018211 29.767578 44.425781 C 31.29801 43.647058 37.869387 47.53556 42.453125 46.453125 C 46.517237 45.493399 47.789279 39.188745 49.884766 38.865234 z "
		id="path2202" /></svg>