<?xml version="1.0" encoding="UTF-8" standalone="no"?>
<svg xmlns:osb="http://www.openswatchbook.org/uri/2009/osb" xmlns:dc="http://purl.org/dc/elements/1.1/" xmlns:cc="http://creativecommons.org/ns#" xmlns:rdf="http://www.w3.org/1999/02/22-rdf-syntax-ns#" xmlns:svg="http://www.w3.org/2000/svg"
	xmlns="http://www.w3.org/2000/svg" xmlns:sodipodi="http://sodipodi.sourceforge.net/DTD/sodipodi-0.dtd" xmlns:inkscape="http://www.inkscape.org/namespaces/inkscape" height="1000" width="937.5" id="svg2" version="1.1" inkscape:version="0.91 r13725"
	sodipodi:docname="ic_search_browse.svg">
	<metadata id="metadata10">
		<rdf:RDF>
			<cc:Work rdf:about="">
				<dc:format>image/svg+xml</dc:format>
				<dc:type rdf:resource="http://purl.org/dc/dcmitype/StillImage" />
			</cc:Work>
		</rdf:RDF>
	</metadata>
	<defs id="defs8">
		<linearGradient id="linearGradient19282" osb:paint="solid" gradientTransform="matrix(0,0,0,0,-15850794,-50191087)">
			<stop style="stop-color:#666666;stop-opacity:1;" offset="0" id="stop19284" />
		</linearGradient>
		<style type="text/css" id="style2988">
			.fil0 {fill:#006C3B}
			.fil1 {fill:#77C06C}
		</style>
	</defs>
	<sodipodi:namedview pagecolor="#ffffff" bordercolor="#666666" borderopacity="1" objecttolerance="10" gridtolerance="10" guidetolerance="10" inkscape:pageopacity="0" inkscape:pageshadow="2" inkscape:window-width="1268" inkscape:window-height="1029"
		id="namedview6" showgrid="false" inkscape:zoom="0.24208851" inkscape:cx="506.1005" inkscape:cy="864.039" inkscape:window-x="86" inkscape:window-y="133" inkscape:window-maximized="0" inkscape:current-layer="svg2" />
	<g transform="matrix(62.552205,0,0,61.869169,-4705.4506,-33800.646)" id="g31454" style="fill:#c0c0c0;fill-opacity:1">
		<g transform="translate(0,20)" id="g31456" style="fill:#c0c0c0;fill-opacity:1">
			<g id="g31458" style="fill:#c0c0c0;fill-opacity:1" />
			<g id="g31462" style="fill:#c0c0c0;fill-opacity:1">
				<path style="fill:#c0c0c0;fill-opacity:1;stroke:none"
					d="m 231.5,450 c -3.04236,0 -5.5,2.48919 -5.5,5.53125 0,3.04204 2.45764,5.46875 5.5,5.46875 1.08216,0 2.08617,-0.30479 2.9375,-0.84375 l 2.77023,2.58664 c 0.38046,0.37956 0.96888,0.35397 1.34375,-0.0313 l 0.1875,-0.1875 c 0.37487,-0.38522 0.38046,-0.99545 0,-1.375 l -2.70773,-2.52414 c 0.61646,-0.8895 1,-1.92958 1,-3.09375 0,-3.042 -2.48889,-5.5312 -5.53125,-5.5312 z m 0.0313,2.0625 c 1.9417,0 3.5,1.55589 3.5,3.46875 0,1.91286 -1.5583,3.46875 -3.5,3.46875 -1.9417,0 -3.53125,-1.55589 -3.53125,-3.46875 0,-1.91286 1.58955,-3.46875 3.53125,-3.46875 z"
					transform="matrix(0.99981264,0,0,1.0108506,-149.58222,73.479428)" id="path31464" inkscape:connector-curvature="0" sodipodi:nodetypes="sssccccccsssssss" />
			</g>
		</g>
	</g>
</svg>
