<?xml version="1.0" encoding="UTF-8" standalone="no"?><!-- Generator: Adobe Illustrator 14.0.0, SVG Export Plug-In . SVG Version: 6.00 Build 43363)  -->

<svg xmlns:dc="http://purl.org/dc/elements/1.1/" xmlns:cc="http://creativecommons.org/ns#" xmlns:rdf="http://www.w3.org/1999/02/22-rdf-syntax-ns#" xmlns:svg="http://www.w3.org/2000/svg" xmlns="http://www.w3.org/2000/svg"
	xmlns:sodipodi="http://sodipodi.sourceforge.net/DTD/sodipodi-0.dtd" xmlns:inkscape="http://www.inkscape.org/namespaces/inkscape" version="1.1" x="0px" y="0px" width="64" height="64" viewBox="0 0 64 64" enable-background="new 0 0 780 650"
	xml:space="preserve" id="svg4433" inkscape:version="0.91 r13725" sodipodi:docname="ic_selector.svg"><metadata
     id="metadata5887"><rdf:RDF><cc:Work
         rdf:about=""><dc:format>image/svg+xml</dc:format><dc:type rdf:resource="http://purl.org/dc/dcmitype/StillImage" /></cc:Work></rdf:RDF></metadata>
	<defs id="defs5885" />
	<sodipodi:namedview pagecolor="#ffffff" bordercolor="#666666" borderopacity="1" objecttolerance="10" gridtolerance="10" guidetolerance="10" inkscape:pageopacity="0" inkscape:pageshadow="2" inkscape:window-width="1263" inkscape:window-height="767"
		id="namedview5883" showgrid="false" inkscape:zoom="1.9234755" inkscape:cx="63.588186" inkscape:cy="-4.1916053" inkscape:window-x="133" inkscape:window-y="359" inkscape:window-maximized="0" inkscape:current-layer="svg4433" />
	<g id="Notification" transform="translate(-465.46203,-385.40339)" />
	<g id="Notification-6" transform="translate(-382.0084,-366.31973)" />
	<g id="g4219" transform="matrix(1.2079522,0,0,1,-8.532952,0.51989225)" style="fill:#d3d3d3"><path
       id="path5636"
       d="m 56.033555,13.71163 c 0,0.494 -0.406,0.9 -0.9,0.9 l -43.201,0 c -0.494,0 -0.9,-0.406 -0.9,-0.9 l 0,-8.099 c 0,-0.496 0.406,-0.9 0.9,-0.9 l 43.201,0 c 0.494,0 0.9,0.404 0.9,0.9 l 0,8.099 z"
       inkscape:connector-curvature="0"
       style="fill:#d3d3d3" />
		<path id="path5638" d="m 56.033555,28.415886 c 0,0.494 -0.406,0.9 -0.9,0.9 l -43.201,0 c -0.494,0 -0.9,-0.406 -0.9,-0.9 l 0,-8.1 c 0,-0.496 0.406,-0.9 0.9,-0.9 l 43.201,0 c 0.494,0 0.9,0.404 0.9,0.9 l 0,8.1 z" inkscape:connector-curvature="0"
			style="fill:#d3d3d3" />
		<path id="path5640" d="m 56.033555,43.120643 c 0,0.494 -0.406,0.898 -0.9,0.898 l -43.201,0 c -0.494,0 -0.9,-0.404 -0.9,-0.898 l 0,-8.102 c 0,-0.494 0.406,-0.898 0.9,-0.898 l 43.201,0 c 0.494,0 0.9,0.404 0.9,0.898 l 0,8.102 z"
			inkscape:connector-curvature="0" style="fill:#d3d3d3" />
		<path style="fill:#d3d3d3" inkscape:connector-curvature="0"
			d="m 56.033555,57.8229 c 0,0.494 -0.406,0.9 -0.9,0.9 l -43.201,0 c -0.494,0 -0.9,-0.406 -0.9,-0.9 l 0,-8.099 c 0,-0.496 0.406,-0.9 0.9,-0.9 l 43.201,0 c 0.494,0 0.9,0.404 0.9,0.9 l 0,8.099 z" id="path4199" /></g></svg>