<svg xmlns="http://www.w3.org/2000/svg" xml:space="preserve" width="64" height="64"><g style="fill:#d3d3d3"><g style="fill:#d3d3d3"><path d="M-267.89 25.816h-24.352c-.583 0-1.06.477-1.06 1.059v6.352c0 .584.477 1.06 1.06 1.06h24.353c.582 0 1.059-.476 1.059-1.06v-6.352a1.063 1.063 0 0 0-1.06-1.06zM-303.89 34.287h6.355c.582 0 1.059-.477 1.059-1.061v-6.352c0-.582-.477-1.06-1.06-1.06h-6.353c-.582 0-1.06.478-1.06 1.06v6.352c0 .584.478 1.06 1.06 1.06zM-267.89 37.816h-24.352c-.583 0-1.06.477-1.06 1.059v6.352c0 .584.477 1.06 1.06 1.06h24.353c.582 0 1.059-.476 1.059-1.06v-6.352a1.063 1.063 0 0 0-1.06-1.06zM-267.89 49.816h-24.352c-.583 0-1.06.477-1.06 1.059v6.352c0 .584.477 1.06 1.06 1.06h24.353c.582 0 1.059-.476 1.059-1.06v-6.352a1.063 1.063 0 0 0-1.06-1.06z" style="fill:#d3d3d3" transform="matrix(1.47737 0 0 1 454.388 -21.395)"/></g><path d="M59.137 38.94H23.16c-.861 0-1.566.477-1.566 1.06v6.351c0 .584.705 1.061 1.566 1.061h35.978c.86 0 1.565-.477 1.565-1.06v-6.353c-.002-.582-.705-1.059-1.565-1.059zM5.952 47.411h9.387c.86 0 1.565-.477 1.565-1.06v-6.353c0-.582-.705-1.059-1.565-1.059H5.952c-.86 0-1.565.477-1.565 1.06v6.351c0 .584.705 1.061 1.565 1.061zM59.137 50.94H23.16c-.861 0-1.566.477-1.566 1.06v6.351c0 .584.705 1.061 1.566 1.061h35.978c.86 0 1.565-.477 1.565-1.06v-6.353c-.002-.582-.705-1.059-1.565-1.059z" style="fill:#d3d3d3" transform="translate(-.52 1.48)"/></g></svg>