<?xml version="1.0" encoding="UTF-8" standalone="no"?><!-- Generator: Adobe Illustrator 14.0.0, SVG Export Plug-In . SVG Version: 6.00 Build 43363)  -->

<svg xmlns:dc="http://purl.org/dc/elements/1.1/" xmlns:cc="http://creativecommons.org/ns#" xmlns:rdf="http://www.w3.org/1999/02/22-rdf-syntax-ns#" xmlns:svg="http://www.w3.org/2000/svg" xmlns="http://www.w3.org/2000/svg"
	xmlns:sodipodi="http://sodipodi.sourceforge.net/DTD/sodipodi-0.dtd" xmlns:inkscape="http://www.inkscape.org/namespaces/inkscape" version="1.1" x="0px" y="0px" width="64" height="64" viewBox="0 0 64 64" enable-background="new 0 0 780 650"
	xml:space="preserve" id="svg4433" inkscape:version="0.91 r13725" sodipodi:docname="ic_xselector.svg"><metadata
     id="metadata5887"><rdf:RDF><cc:Work
         rdf:about=""><dc:format>image/svg+xml</dc:format><dc:type rdf:resource="http://purl.org/dc/dcmitype/StillImage" /></cc:Work></rdf:RDF></metadata>
	<defs id="defs5885" />
	<sodipodi:namedview pagecolor="#ffffff" bordercolor="#666666" borderopacity="1" objecttolerance="10" gridtolerance="10" guidetolerance="10" inkscape:pageopacity="0" inkscape:pageshadow="2" inkscape:window-width="1292" inkscape:window-height="767"
		id="namedview5883" showgrid="false" inkscape:zoom="1.9234755" inkscape:cx="-89.770225" inkscape:cy="-0.48276894" inkscape:window-x="531" inkscape:window-y="359" inkscape:window-maximized="0" inkscape:current-layer="svg4433" />
	<g id="Notification" transform="translate(-465.46203,-385.40339)" />
	<g id="g7767" transform="translate(-0.51989225,1.4801077)" style="fill:#d3d3d3"><g
       transform="matrix(1.4773658,0,0,1,454.90785,-22.875259)"
       id="g7747"
       style="fill:#d3d3d3"><path
         id="path5623"
         d="m -267.88946,25.81552 -24.353,0 c -0.583,0 -1.06,0.477 -1.06,1.059 l 0,6.352 c 0,0.584 0.477,1.061 1.06,1.061 l 24.353,0 c 0.582,0 1.059,-0.477 1.059,-1.061 l 0,-6.352 c -10e-4,-0.582 -0.477,-1.059 -1.059,-1.059 z"
         inkscape:connector-curvature="0"
         style="fill:#d3d3d3" /><path id="path5625"
		d="m -303.88946,34.28652 6.354,0 c 0.582,0 1.059,-0.477 1.059,-1.061 l 0,-6.352 c 0,-0.582 -0.477,-1.059 -1.059,-1.059 l -6.354,0 c -0.582,0 -1.059,0.477 -1.059,1.059 l 0,6.352 c 0,0.584 0.477,1.061 1.059,1.061 z" inkscape:connector-curvature="0"
		style="fill:#d3d3d3" /><path style="fill:#d3d3d3" inkscape:connector-curvature="0"
		d="m -267.88946,37.81552 -24.353,0 c -0.583,0 -1.06,0.477 -1.06,1.059 l 0,6.352 c 0,0.584 0.477,1.061 1.06,1.061 l 24.353,0 c 0.582,0 1.059,-0.477 1.059,-1.061 l 0,-6.352 c -10e-4,-0.582 -0.477,-1.059 -1.059,-1.059 z" id="path7734" /><path
		id="path7736" d="m -267.88946,49.81552 -24.353,0 c -0.583,0 -1.06,0.477 -1.06,1.059 l 0,6.352 c 0,0.584 0.477,1.061 1.06,1.061 l 24.353,0 c 0.582,0 1.059,-0.477 1.059,-1.061 l 0,-6.352 c -10e-4,-0.582 -0.477,-1.059 -1.059,-1.059 z"
		inkscape:connector-curvature="0" style="fill:#d3d3d3" /></g>
		<path id="path7755"
			d="m 59.137124,38.940261 -35.97829,0 c -0.861304,0 -1.566007,0.477 -1.566007,1.059 l 0,6.352 c 0,0.584 0.704703,1.061 1.566007,1.061 l 35.97829,0 c 0.859827,0 1.56453,-0.477 1.56453,-1.061 l 0,-6.352 c -0.0015,-0.582 -0.704703,-1.059 -1.56453,-1.059 z"
			inkscape:connector-curvature="0" style="fill:#d3d3d3" />
		<path id="path7757"
			d="m 5.9519548,47.411261 9.3871822,0 c 0.859827,0 1.56453,-0.477 1.56453,-1.061 l 0,-6.352 c 0,-0.582 -0.704703,-1.059 -1.56453,-1.059 l -9.3871822,0 c -0.8598269,0 -1.5645304,0.477 -1.5645304,1.059 l 0,6.352 c 0,0.584 0.7047035,1.061 1.5645304,1.061 z"
			inkscape:connector-curvature="0" style="fill:#d3d3d3" />
		<path style="fill:#d3d3d3" inkscape:connector-curvature="0"
			d="m 59.137124,50.940261 -35.97829,0 c -0.861304,0 -1.566007,0.477 -1.566007,1.059 l 0,6.352 c 0,0.584 0.704703,1.061 1.566007,1.061 l 35.97829,0 c 0.859827,0 1.56453,-0.477 1.56453,-1.061 l 0,-6.352 c -0.0015,-0.582 -0.704703,-1.059 -1.56453,-1.059 z"
			id="path7759" /></g></svg>