<?xml version="1.0" encoding="UTF-8" standalone="no"?>
<!-- Created with Inkscape (http://www.inkscape.org/) -->

<svg
   xmlns:a="http://ns.adobe.com/AdobeSVGViewerExtensions/3.0/"
   xmlns:dc="http://purl.org/dc/elements/1.1/"
   xmlns:cc="http://creativecommons.org/ns#"
   xmlns:rdf="http://www.w3.org/1999/02/22-rdf-syntax-ns#"
   xmlns:svg="http://www.w3.org/2000/svg"
   xmlns="http://www.w3.org/2000/svg"
   xmlns:xlink="http://www.w3.org/1999/xlink"
   xmlns:sodipodi="http://sodipodi.sourceforge.net/DTD/sodipodi-0.dtd"
   xmlns:inkscape="http://www.inkscape.org/namespaces/inkscape"
   version="1.0"
   width="48pt"
   height="48pt"
   viewBox="0 0 256 256"
   id="svg3261"
   xml:space="preserve"
   inkscape:version="0.92.5 (2060ec1f9f, 2020-04-08)"
   sodipodi:docname="ic_collocation.svg"
   inkscape:export-filename="/home/bbou/Desktop/Documents/pixes/svg/asterisk.png"
   inkscape:export-xdpi="24"
   inkscape:export-ydpi="24"><metadata
   id="metadata454"><rdf:RDF><cc:Work
       rdf:about=""><dc:format>image/svg+xml</dc:format><dc:type
         rdf:resource="http://purl.org/dc/dcmitype/StillImage" /><dc:title /></cc:Work></rdf:RDF></metadata><sodipodi:namedview
   pagecolor="#ffffff"
   bordercolor="#666666"
   borderopacity="1"
   objecttolerance="10"
   gridtolerance="10"
   guidetolerance="10"
   inkscape:pageopacity="0"
   inkscape:pageshadow="2"
   inkscape:window-width="1209"
   inkscape:window-height="810"
   id="namedview452"
   showgrid="false"
   inkscape:zoom="3.9333333"
   inkscape:cx="48.829853"
   inkscape:cy="9.6610168"
   inkscape:window-x="56"
   inkscape:window-y="25"
   inkscape:window-maximized="0"
   inkscape:current-layer="svg3261" />
  <defs
   id="defs3707"><inkscape:perspective
   sodipodi:type="inkscape:persp3d"
   inkscape:vp_x="0 : 30 : 1"
   inkscape:vp_y="0 : 1000 : 0"
   inkscape:vp_z="60 : 30 : 1"
   inkscape:persp3d-origin="30 : 20 : 1"
   id="perspective456" /><linearGradient
   x1="121.918"
   y1="185.75"
   x2="249.582"
   y2="185.75"
   id="XMLID_2_"
   gradientUnits="userSpaceOnUse">
        <stop
   style="stop-color:#ffff66;stop-opacity:1"
   offset="0"
   id="stop173" />
        <stop
   style="stop-color:#ffcc66;stop-opacity:1"
   offset="1"
   id="stop174" />
      </linearGradient>
    
    
    
    <linearGradient
   gradientTransform="translate(357,0)"
   gradientUnits="userSpaceOnUse"
   id="XMLID_3_"
   y2="245.0005"
   x2="-228"
   y1="11"
   x1="-228">
      <stop
   id="stop3268"
   offset="0"
   style="stop-color:#494949;stop-opacity:1" />
      <stop
   id="stop3269"
   offset="1"
   style="stop-color:#000000;stop-opacity:1" />
      <a:midPointStop
   offset="0"
   style="stop-color:#494949"
   id="midPointStop3270" />
      <a:midPointStop
   offset="0.5"
   style="stop-color:#494949"
   id="midPointStop3271" />
      <a:midPointStop
   offset="1"
   style="stop-color:#000000"
   id="midPointStop3272" />
    </linearGradient>
    
    
    <linearGradient
   gradientTransform="translate(357,0)"
   gradientUnits="userSpaceOnUse"
   id="XMLID_4_"
   y2="226.9473"
   x2="-130.0527"
   y1="29.0527"
   x1="-327.9473">
      <stop
   id="stop3276"
   offset="0"
   style="stop-color:#ffffff;stop-opacity:1" />
      <stop
   id="stop3277"
   offset="1"
   style="stop-color:#dadada;stop-opacity:1" />
      <a:midPointStop
   offset="0"
   style="stop-color:#FFFFFF"
   id="midPointStop3278" />
      <a:midPointStop
   offset="0.5"
   style="stop-color:#FFFFFF"
   id="midPointStop3279" />
      <a:midPointStop
   offset="1"
   style="stop-color:#DADADA"
   id="midPointStop3280" />
    </linearGradient>
    
    
    
    
    
    
    
    
    
    
    
    
    
    
    
    
    
    
    
    
    
    
    
    
    
    
    
    
    
    
    
    
    
    
    
  <linearGradient
   inkscape:collect="always"
   xlink:href="#XMLID_4_"
   id="linearGradient3714"
   gradientUnits="userSpaceOnUse"
   gradientTransform="translate(357,0)"
   x1="-327.9473"
   y1="29.0527"
   x2="-130.0527"
   y2="226.9473" /><linearGradient
   inkscape:collect="always"
   xlink:href="#XMLID_3_"
   id="linearGradient3718"
   gradientUnits="userSpaceOnUse"
   gradientTransform="translate(357,0)"
   x1="-228"
   y1="11"
   x2="-228"
   y2="245.0005" /></defs>
  
  
  
<g
   id="g62"
   transform="matrix(0.51788907,0,0,0.51788907,2.371884,61.710199)"><rect
     width="256"
     height="256"
     x="0"
     y="0"
     style="fill:none"
     id="_x3C_Slice_x3E_" /><g
     transform="matrix(1.6892148,0,0,1.6892148,-187.28783,-186.20308)"
     id="g169"
     style="fill:#0000ff;stroke:#000000">
      <path
   id="path170"
   style="opacity:0.2;fill:#0000ff;stroke:none"
   d="m 175.822,131.428 c 0,0 0,16.447 0,27.528 -7.835,-7.835 -19.465,-19.466 -19.465,-19.466 -4.65,-4.65 -12.217,-4.65 -16.868,0 -2.253,2.253 -3.493,5.248 -3.493,8.435 0,3.186 1.24,6.181 3.493,8.434 0,0 11.63,11.63 19.465,19.465 -11.081,0 -27.526,0 -27.526,0 -6.577,0 -11.928,5.35 -11.928,11.927 0,6.577 5.351,11.927 11.928,11.927 0,0 16.447,0 27.527,0 -7.835,7.835 -19.465,19.467 -19.465,19.467 -2.326,2.325 -3.488,5.379 -3.488,8.433 0,3.055 1.162,6.108 3.488,8.434 2.252,2.253 5.248,3.494 8.434,3.494 3.186,0 6.181,-1.241 8.434,-3.494 0,0 11.63,-11.629 19.465,-19.464 0,11.079 0,27.527 0,27.527 0,6.576 5.352,11.927 11.928,11.927 6.576,0 11.928,-5.351 11.928,-11.927 0,0 0,-16.447 0,-27.527 7.835,7.835 19.465,19.464 19.465,19.464 2.252,2.253 5.248,3.494 8.434,3.494 3.186,0 6.181,-1.241 8.434,-3.494 2.252,-2.252 3.493,-5.247 3.493,-8.434 0,-3.186 -1.241,-6.181 -3.493,-8.434 0,0 -11.631,-11.631 -19.466,-19.466 11.081,0 27.528,0 27.528,0 6.577,0 11.928,-5.35 11.928,-11.927 0,-6.577 -5.351,-11.927 -11.928,-11.927 0,0 -16.446,0 -27.527,0 7.836,-7.835 19.465,-19.465 19.465,-19.465 2.326,-2.325 3.488,-5.38 3.488,-8.434 0,-3.055 -1.162,-6.109 -3.488,-8.435 -4.65,-4.65 -12.217,-4.65 -16.867,0 0,0 -11.63,11.63 -19.465,19.465 0,-11.08 0,-27.527 0,-27.527 0,-6.577 -5.352,-11.928 -11.928,-11.928 -6.576,0 -11.93,5.351 -11.93,11.928 z"
   inkscape:connector-curvature="0" />
      <path
   id="path171"
   style="fill:#0000ff;stroke:none"
   d="m 173.822,129.428 c 0,0 0,16.447 0,27.528 -7.835,-7.835 -19.465,-19.466 -19.465,-19.466 -4.65,-4.65 -12.217,-4.65 -16.868,0 -2.253,2.253 -3.493,5.248 -3.493,8.435 0,3.186 1.24,6.181 3.493,8.434 0,0 11.63,11.63 19.465,19.465 -11.081,0 -27.526,0 -27.526,0 -6.577,0 -11.928,5.35 -11.928,11.927 0,6.577 5.351,11.927 11.928,11.927 0,0 16.447,0 27.527,0 -7.835,7.835 -19.465,19.467 -19.465,19.467 -2.326,2.325 -3.488,5.379 -3.488,8.433 0,3.055 1.162,6.108 3.488,8.434 2.252,2.253 5.248,3.494 8.434,3.494 3.186,0 6.181,-1.241 8.434,-3.494 0,0 11.63,-11.629 19.465,-19.464 0,11.079 0,27.527 0,27.527 0,6.576 5.352,11.927 11.928,11.927 6.576,0 11.928,-5.351 11.928,-11.927 0,0 0,-16.447 0,-27.527 7.835,7.835 19.465,19.464 19.465,19.464 2.252,2.253 5.248,3.494 8.434,3.494 3.186,0 6.181,-1.241 8.434,-3.494 2.252,-2.252 3.493,-5.247 3.493,-8.434 0,-3.186 -1.241,-6.181 -3.493,-8.434 0,0 -11.631,-11.631 -19.466,-19.466 11.081,0 27.528,0 27.528,0 6.577,0 11.928,-5.35 11.928,-11.927 0,-6.577 -5.351,-11.927 -11.928,-11.927 0,0 -16.446,0 -27.527,0 7.836,-7.835 19.465,-19.465 19.465,-19.465 2.326,-2.325 3.488,-5.38 3.488,-8.434 0,-3.055 -1.162,-6.109 -3.488,-8.435 -4.65,-4.65 -12.217,-4.65 -16.867,0 0,0 -11.63,11.63 -19.465,19.465 0,-11.08 0,-27.527 0,-27.527 0,-6.577 -5.352,-11.928 -11.928,-11.928 -6.576,0 -11.93,5.351 -11.93,11.928 z"
   inkscape:connector-curvature="0" />
      <linearGradient
   gradientUnits="userSpaceOnUse"
   id="linearGradient5966"
   y2="185.75"
   x2="249.582"
   y1="185.75"
   x1="121.918">
        <stop
   id="stop5968"
   offset="0"
   style="stop-color:#ffff66;stop-opacity:1" />
        <stop
   id="stop5970"
   offset="1"
   style="stop-color:#ffcc66;stop-opacity:1" />
      </linearGradient>
      <path
   id="path178"
   style="fill:#0000ff;stroke:none"
   d="m 242.072,178.24 h -38.191 l 27.006,-27.006 c 2.932,-2.933 2.932,-7.688 0,-10.62 -2.934,-2.933 -7.688,-2.933 -10.621,0 L 193.26,167.62 v -38.192 c 0,-4.148 -3.362,-7.51 -7.51,-7.51 -4.148,0 -7.51,3.362 -7.51,7.51 v 38.193 l -27.006,-27.007 c -2.934,-2.933 -7.688,-2.933 -10.621,0 -2.933,2.933 -2.933,7.688 0,10.62 l 27.006,27.006 h -38.191 c -4.148,0 -7.51,3.362 -7.51,7.51 0,4.148 3.361,7.51 7.51,7.51 h 38.193 l -27.008,27.007 c -2.932,2.933 -2.932,7.688 0,10.62 2.934,2.933 7.688,2.933 10.621,0 l 27.006,-27.006 v 38.192 c 0,4.147 3.362,7.509 7.51,7.509 4.148,0 7.51,-3.361 7.51,-7.509 v -38.192 l 27.006,27.006 c 2.933,2.933 7.688,2.933 10.62,0 2.932,-2.933 2.933,-7.688 0,-10.62 L 203.879,193.26 h 38.193 c 4.148,0 7.51,-3.362 7.51,-7.51 0,-4.148 -3.361,-7.51 -7.51,-7.51 z"
   inkscape:connector-curvature="0" />
      <path
   id="path179"
   style="fill:#0000ff;stroke:none"
   d="m 180.891,129.428 v 44.593 L 149.36,142.489 c -1.895,-1.895 -4.978,-1.895 -6.872,0 -0.917,0.918 -1.423,2.139 -1.423,3.437 0,1.298 0.506,2.518 1.423,3.436 l 31.53,31.53 h -44.59 c -2.68,0 -4.859,2.181 -4.859,4.859 0,2.68 2.18,4.859 4.859,4.859 h 44.592 l -31.531,31.531 c -1.895,1.895 -1.895,4.978 0,6.872 0.918,0.917 2.137,1.423 3.436,1.423 1.298,0 2.518,-0.506 3.436,-1.423 l 31.531,-31.53 v 44.591 c 0,2.68 2.18,4.858 4.859,4.858 2.679,0 4.859,-2.179 4.859,-4.858 v -44.591 l 31.53,31.53 c 0.918,0.917 2.138,1.423 3.437,1.423 1.298,0 2.518,-0.506 3.436,-1.423 0.918,-0.918 1.424,-2.138 1.424,-3.437 0,-1.298 -0.506,-2.518 -1.424,-3.436 l -31.531,-31.531 h 44.592 c 2.68,0 4.859,-2.18 4.859,-4.859 0,-2.679 -2.18,-4.859 -4.859,-4.859 h -44.59 l 31.529,-31.53 c 1.895,-1.895 1.896,-4.978 0,-6.872 -1.895,-1.895 -4.977,-1.895 -6.872,0 l -31.53,31.53 v -44.591 c 0,-2.68 -2.18,-4.86 -4.859,-4.86 -2.679,0 -4.861,2.18 -4.861,4.86 z"
   inkscape:connector-curvature="0" />
    </g><g
     style="fill:#800000;stroke:#000000"
     id="g41"
     transform="matrix(1.6892148,0,0,1.6892148,52.71217,-186.20308)">
      <path
   inkscape:connector-curvature="0"
   d="m 175.822,131.428 c 0,0 0,16.447 0,27.528 -7.835,-7.835 -19.465,-19.466 -19.465,-19.466 -4.65,-4.65 -12.217,-4.65 -16.868,0 -2.253,2.253 -3.493,5.248 -3.493,8.435 0,3.186 1.24,6.181 3.493,8.434 0,0 11.63,11.63 19.465,19.465 -11.081,0 -27.526,0 -27.526,0 -6.577,0 -11.928,5.35 -11.928,11.927 0,6.577 5.351,11.927 11.928,11.927 0,0 16.447,0 27.527,0 -7.835,7.835 -19.465,19.467 -19.465,19.467 -2.326,2.325 -3.488,5.379 -3.488,8.433 0,3.055 1.162,6.108 3.488,8.434 2.252,2.253 5.248,3.494 8.434,3.494 3.186,0 6.181,-1.241 8.434,-3.494 0,0 11.63,-11.629 19.465,-19.464 0,11.079 0,27.527 0,27.527 0,6.576 5.352,11.927 11.928,11.927 6.576,0 11.928,-5.351 11.928,-11.927 0,0 0,-16.447 0,-27.527 7.835,7.835 19.465,19.464 19.465,19.464 2.252,2.253 5.248,3.494 8.434,3.494 3.186,0 6.181,-1.241 8.434,-3.494 2.252,-2.252 3.493,-5.247 3.493,-8.434 0,-3.186 -1.241,-6.181 -3.493,-8.434 0,0 -11.631,-11.631 -19.466,-19.466 11.081,0 27.528,0 27.528,0 6.577,0 11.928,-5.35 11.928,-11.927 0,-6.577 -5.351,-11.927 -11.928,-11.927 0,0 -16.446,0 -27.527,0 7.836,-7.835 19.465,-19.465 19.465,-19.465 2.326,-2.325 3.488,-5.38 3.488,-8.434 0,-3.055 -1.162,-6.109 -3.488,-8.435 -4.65,-4.65 -12.217,-4.65 -16.867,0 0,0 -11.63,11.63 -19.465,19.465 0,-11.08 0,-27.527 0,-27.527 0,-6.577 -5.352,-11.928 -11.928,-11.928 -6.576,0 -11.93,5.351 -11.93,11.928 z"
   style="opacity:0.2;fill:#800000;stroke:none"
   id="path27" />
      <path
   inkscape:connector-curvature="0"
   d="m 173.822,129.428 c 0,0 0,16.447 0,27.528 -7.835,-7.835 -19.465,-19.466 -19.465,-19.466 -4.65,-4.65 -12.217,-4.65 -16.868,0 -2.253,2.253 -3.493,5.248 -3.493,8.435 0,3.186 1.24,6.181 3.493,8.434 0,0 11.63,11.63 19.465,19.465 -11.081,0 -27.526,0 -27.526,0 -6.577,0 -11.928,5.35 -11.928,11.927 0,6.577 5.351,11.927 11.928,11.927 0,0 16.447,0 27.527,0 -7.835,7.835 -19.465,19.467 -19.465,19.467 -2.326,2.325 -3.488,5.379 -3.488,8.433 0,3.055 1.162,6.108 3.488,8.434 2.252,2.253 5.248,3.494 8.434,3.494 3.186,0 6.181,-1.241 8.434,-3.494 0,0 11.63,-11.629 19.465,-19.464 0,11.079 0,27.527 0,27.527 0,6.576 5.352,11.927 11.928,11.927 6.576,0 11.928,-5.351 11.928,-11.927 0,0 0,-16.447 0,-27.527 7.835,7.835 19.465,19.464 19.465,19.464 2.252,2.253 5.248,3.494 8.434,3.494 3.186,0 6.181,-1.241 8.434,-3.494 2.252,-2.252 3.493,-5.247 3.493,-8.434 0,-3.186 -1.241,-6.181 -3.493,-8.434 0,0 -11.631,-11.631 -19.466,-19.466 11.081,0 27.528,0 27.528,0 6.577,0 11.928,-5.35 11.928,-11.927 0,-6.577 -5.351,-11.927 -11.928,-11.927 0,0 -16.446,0 -27.527,0 7.836,-7.835 19.465,-19.465 19.465,-19.465 2.326,-2.325 3.488,-5.38 3.488,-8.434 0,-3.055 -1.162,-6.109 -3.488,-8.435 -4.65,-4.65 -12.217,-4.65 -16.867,0 0,0 -11.63,11.63 -19.465,19.465 0,-11.08 0,-27.527 0,-27.527 0,-6.577 -5.352,-11.928 -11.928,-11.928 -6.576,0 -11.93,5.351 -11.93,11.928 z"
   style="fill:#800000;stroke:none"
   id="path29" />
      <linearGradient
   x1="121.918"
   y1="185.75"
   x2="249.582"
   y2="185.75"
   id="linearGradient35"
   gradientUnits="userSpaceOnUse">
        <stop
   style="stop-color:#ffff66;stop-opacity:1"
   offset="0"
   id="stop31" />
        <stop
   style="stop-color:#ffcc66;stop-opacity:1"
   offset="1"
   id="stop33" />
      </linearGradient>
      <path
   inkscape:connector-curvature="0"
   d="m 242.072,178.24 h -38.191 l 27.006,-27.006 c 2.932,-2.933 2.932,-7.688 0,-10.62 -2.934,-2.933 -7.688,-2.933 -10.621,0 L 193.26,167.62 v -38.192 c 0,-4.148 -3.362,-7.51 -7.51,-7.51 -4.148,0 -7.51,3.362 -7.51,7.51 v 38.193 l -27.006,-27.007 c -2.934,-2.933 -7.688,-2.933 -10.621,0 -2.933,2.933 -2.933,7.688 0,10.62 l 27.006,27.006 h -38.191 c -4.148,0 -7.51,3.362 -7.51,7.51 0,4.148 3.361,7.51 7.51,7.51 h 38.193 l -27.008,27.007 c -2.932,2.933 -2.932,7.688 0,10.62 2.934,2.933 7.688,2.933 10.621,0 l 27.006,-27.006 v 38.192 c 0,4.147 3.362,7.509 7.51,7.509 4.148,0 7.51,-3.361 7.51,-7.509 v -38.192 l 27.006,27.006 c 2.933,2.933 7.688,2.933 10.62,0 2.932,-2.933 2.933,-7.688 0,-10.62 L 203.879,193.26 h 38.193 c 4.148,0 7.51,-3.362 7.51,-7.51 0,-4.148 -3.361,-7.51 -7.51,-7.51 z"
   style="fill:#800000;stroke:none"
   id="path37" />
      <path
   inkscape:connector-curvature="0"
   d="m 180.891,129.428 v 44.593 L 149.36,142.489 c -1.895,-1.895 -4.978,-1.895 -6.872,0 -0.917,0.918 -1.423,2.139 -1.423,3.437 0,1.298 0.506,2.518 1.423,3.436 l 31.53,31.53 h -44.59 c -2.68,0 -4.859,2.181 -4.859,4.859 0,2.68 2.18,4.859 4.859,4.859 h 44.592 l -31.531,31.531 c -1.895,1.895 -1.895,4.978 0,6.872 0.918,0.917 2.137,1.423 3.436,1.423 1.298,0 2.518,-0.506 3.436,-1.423 l 31.531,-31.53 v 44.591 c 0,2.68 2.18,4.858 4.859,4.858 2.679,0 4.859,-2.179 4.859,-4.858 v -44.591 l 31.53,31.53 c 0.918,0.917 2.138,1.423 3.437,1.423 1.298,0 2.518,-0.506 3.436,-1.423 0.918,-0.918 1.424,-2.138 1.424,-3.437 0,-1.298 -0.506,-2.518 -1.424,-3.436 l -31.531,-31.531 h 44.592 c 2.68,0 4.859,-2.18 4.859,-4.859 0,-2.679 -2.18,-4.859 -4.859,-4.859 h -44.59 l 31.529,-31.53 c 1.895,-1.895 1.896,-4.978 0,-6.872 -1.895,-1.895 -4.977,-1.895 -6.872,0 l -31.53,31.53 v -44.591 c 0,-2.68 -2.18,-4.86 -4.859,-4.86 -2.679,0 -4.861,2.18 -4.861,4.86 z"
   style="fill:#800000;stroke:none"
   id="path39" />
    </g></g></svg>