<svg xmlns="http://www.w3.org/2000/svg" width="341.333" height="341.333"><defs><filter id="a" style="color-interpolation-filters:sRGB"><feGaussianBlur in="SourceGraphic" result="result0" stdDeviation="5"/><feDiffuseLighting lighting-color="#FEFEFE" result="result5" surfaceScale="10"><feDistantLight azimuth="235" elevation="13"/></feDiffuseLighting><feComposite in="result5" in2="SourceGraphic" k1="1" k3=".6" operator="arithmetic" result="result4"/></filter></defs><g transform="translate(-197.702 76.745)"><ellipse cx="368.141" cy="93.908" rx="163.217" ry="162.976" style="opacity:.98999999;fill:#ffd200;fill-opacity:1;fill-rule:evenodd;stroke:none;stroke-width:4.98529387;stroke-linecap:round;stroke-linejoin:round;stroke-miterlimit:4;stroke-dasharray:none;stroke-dashoffset:0;stroke-opacity:1"/><g style="stroke:#7e91fd;filter:url(#a)" transform="translate(327.38 -384.722)scale(.88937)"><ellipse cx="46.088" cy="538.184" rx="143.525" ry="143.608" style="fill:none;stroke:#7e91fd;stroke-width:16.16086197;stroke-miterlimit:4;stroke-dasharray:none;stroke-opacity:1"/><path d="m-52.15 538.877 194.393.855m-97.56 101.571.731-205.043m-59.895 22.752c31.827 45.91 31.59 112.337-.564 157.967m119.626.526c-31.826-45.91-31.59-112.337.564-157.967m-156.997 79.006c47.256-61.201 147.653-60.441 194.481 1.184m-.314.222c-47.256 61.201-147.339 60.443-194.168-1.183" style="fill:none;stroke:#7e91fd;stroke-width:12.72536182;stroke-opacity:1"/><ellipse cx="-466.943" cy="438.428" rx="17.87" ry="17.92" style="fill:#7e91fd;fill-opacity:1;stroke:#7e91fd;stroke-width:.07928234" transform="matrix(-.72081 -.69313 -.66515 .74671 0 0)"/><ellipse cx="-478.924" cy="278.434" rx="17.87" ry="17.92" style="fill:#7e91fd;fill-opacity:1;stroke:#7e91fd;stroke-width:.07928234" transform="matrix(-.72081 -.69313 -.66515 .74671 0 0)"/><ellipse cx="-306.635" cy="436.624" rx="17.87" ry="17.92" style="fill:#7e91fd;fill-opacity:1;stroke:#7e91fd;stroke-width:.07928234" transform="matrix(-.72081 -.69313 -.66515 .74671 0 0)"/><ellipse cx="-399.743" cy="466.781" rx="17.87" ry="17.92" style="fill:#7e91fd;fill-opacity:1;stroke:#7e91fd;stroke-width:.07928234" transform="matrix(-.72081 -.69313 -.66515 .74671 0 0)"/><ellipse cx="-281.893" cy="340.652" rx="17.87" ry="17.92" style="fill:#7e91fd;fill-opacity:1;stroke:#7e91fd;stroke-width:.07928234" transform="matrix(-.72081 -.69313 -.66515 .74671 0 0)"/><ellipse cx="-385.005" cy="247.763" rx="17.87" ry="17.92" style="fill:#7e91fd;fill-opacity:1;stroke:#7e91fd;stroke-width:.07928234" transform="matrix(-.72081 -.69313 -.66515 .74671 0 0)"/><ellipse cx="-500.973" cy="375.022" rx="17.87" ry="17.92" style="fill:#4c0000;fill-opacity:1;stroke:#7e91fd;stroke-width:.07928234" transform="matrix(-.72081 -.69313 -.66515 .74671 0 0)"/><ellipse cx="-500.973" cy="375.022" rx="17.87" ry="17.92" style="fill:#7e91fd;fill-opacity:1;stroke:#7e91fd;stroke-width:.07928234" transform="matrix(-.72081 -.69313 -.66515 .74671 0 0)"/><ellipse cx="-317.022" cy="275.431" rx="17.87" ry="17.92" style="fill:#7e91fd;fill-opacity:1;stroke:#7e91fd;stroke-width:.07928234" transform="matrix(-.72081 -.69313 -.66515 .74671 0 0)"/></g></g></svg>