<svg xmlns="http://www.w3.org/2000/svg" xml:space="preserve" width="64" height="64" version="1.0" viewBox="0 0 256 256"><path d="M0 0h256v256H0z" style="fill:none"/><path d="M112.968 36.892v46.5L80.087 50.51c-7.855-7.855-20.637-7.855-28.494 0a20.015 20.015 0 0 0-5.9 14.249 20.014 20.014 0 0 0 5.9 14.247l32.88 32.88H37.978c-11.11 0-20.15 9.037-20.15 20.147 0 11.11 9.04 20.148 20.15 20.148h46.499l-32.881 32.884c-3.93 3.927-5.892 9.086-5.892 14.245 0 5.16 1.963 10.318 5.892 14.247a20.013 20.013 0 0 0 14.247 5.902 20.016 20.016 0 0 0 14.247-5.902l32.88-32.88v46.5c0 11.108 9.04 20.147 20.15 20.147 11.107 0 20.148-9.039 20.148-20.147v-46.5l32.88 32.88a20.013 20.013 0 0 0 14.248 5.902 20.016 20.016 0 0 0 14.246-5.902 20.016 20.016 0 0 0 5.9-14.247 20.021 20.021 0 0 0-5.9-14.247l-32.882-32.882h46.5c11.11 0 20.15-9.038 20.15-20.148s-9.04-20.147-20.15-20.147h-46.498l32.88-32.88c3.93-3.928 5.892-9.088 5.892-14.247 0-5.16-1.963-10.32-5.892-14.249-7.854-7.855-20.637-7.855-28.492 0l-32.88 32.88V36.893c0-11.11-9.04-20.15-20.15-20.15-11.107 0-20.151 9.04-20.151 20.15z" style="opacity:.2;stroke:none"/><path d="M109.59 33.513v46.501L76.708 47.132c-7.855-7.855-20.638-7.855-28.494 0a20.015 20.015 0 0 0-5.9 14.248 20.014 20.014 0 0 0 5.9 14.247l32.88 32.88H34.598c-11.11 0-20.149 9.038-20.149 20.148s9.04 20.147 20.15 20.147h46.498a575462.45 575462.45 0 0 0-32.88 32.884c-3.93 3.928-5.892 9.086-5.892 14.245 0 5.16 1.962 10.318 5.892 14.247a20.013 20.013 0 0 0 14.246 5.902 20.016 20.016 0 0 0 14.247-5.902l32.88-32.879v46.5c0 11.108 9.041 20.147 20.15 20.147 11.108 0 20.149-9.04 20.149-20.148V177.3l32.88 32.88a20.013 20.013 0 0 0 14.247 5.901 20.016 20.016 0 0 0 14.247-5.902 20.016 20.016 0 0 0 5.9-14.247 20.021 20.021 0 0 0-5.9-14.246l-32.882-32.883h46.5c11.11 0 20.15-9.037 20.15-20.147 0-11.11-9.04-20.147-20.15-20.147h-46.499c13.237-13.235 32.88-32.88 32.88-32.88 3.93-3.928 5.893-9.089 5.893-14.248 0-5.16-1.963-10.32-5.892-14.248-7.855-7.855-20.637-7.855-28.492 0l-32.88 32.88v-46.5c0-11.11-9.041-20.149-20.15-20.149-11.108 0-20.152 9.04-20.152 20.15z" style="fill:#a9a9a9;stroke:none"/><path d="M224.878 117.052h-64.513l45.62-45.619c4.952-4.954 4.952-12.987 0-17.94-4.957-4.954-12.988-4.954-17.942 0l-45.619 45.62V34.598c0-7.007-5.68-12.686-12.686-12.686-7.007 0-12.686 5.68-12.686 12.686v64.516l-45.619-45.62c-4.956-4.955-12.987-4.955-17.941 0-4.955 4.954-4.955 12.986 0 17.94l45.619 45.618H34.598c-7.007 0-12.686 5.68-12.686 12.686 0 7.007 5.678 12.686 12.686 12.686h64.516l-45.622 45.62c-4.953 4.955-4.953 12.987 0 17.94 4.956 4.955 12.987 4.955 17.941 0l45.62-45.619v64.515c0 7.005 5.678 12.684 12.685 12.684 7.007 0 12.686-5.677 12.686-12.684v-64.515l45.619 45.62c4.954 4.954 12.987 4.954 17.94 0 4.952-4.955 4.954-12.988 0-17.94l-45.621-45.62h64.516c7.007 0 12.686-5.68 12.686-12.687s-5.677-12.686-12.686-12.686z" style="fill:#a9a9a9;stroke:none"/><path d="M121.53 34.598v75.327L68.268 56.661c-3.202-3.201-8.41-3.201-11.609 0a8.164 8.164 0 0 0-2.404 5.806 8.16 8.16 0 0 0 2.404 5.804l53.261 53.26H34.598c-4.527 0-8.208 3.685-8.208 8.209 0 4.527 3.683 8.208 8.208 8.208h75.326L56.66 191.21c-3.201 3.201-3.201 8.41 0 11.609a8.157 8.157 0 0 0 5.804 2.403 8.16 8.16 0 0 0 5.804-2.403l53.263-53.261v75.323c0 4.528 3.682 8.207 8.208 8.207 4.525 0 8.208-3.681 8.208-8.207v-75.323l53.26 53.26a8.161 8.161 0 0 0 5.806 2.404 8.16 8.16 0 0 0 5.805-2.403 8.156 8.156 0 0 0 2.405-5.806 8.155 8.155 0 0 0-2.405-5.804l-53.263-53.263h75.325c4.527 0 8.208-3.683 8.208-8.208s-3.682-8.208-8.208-8.208h-75.32l53.26-53.26c3.2-3.202 3.202-8.41 0-11.61-3.202-3.2-8.408-3.2-11.609 0l-53.26 53.262V34.598c0-4.527-3.683-8.21-8.209-8.21-4.525 0-8.21 3.683-8.21 8.21z" style="fill:silver;stroke:silver"/></svg>