<svg xmlns="http://www.w3.org/2000/svg" xml:space="preserve" width="128" height="64"><path d="M74.633 2.648v57.047h46.53V2.648h-46.53zm6.181 10.561h34.102v7.486H80.814V13.21zm0 13.742h34.102v7.485H80.814V26.95zm0 15.049h34.102v7.486H80.814V42z" style="fill:#dcdcdc;fill-opacity:1;fill-rule:nonzero;stroke:none"/><text xml:space="preserve" x="9.091" y="172.79" style="font-style:normal;font-variant:normal;font-weight:400;font-stretch:normal;font-size:15px;line-height:100%;font-family:&quot;DejaVu Sans&quot;;-inkscape-font-specification:&quot;DejaVu Sans, Normal&quot;;text-align:start;letter-spacing:0;word-spacing:0;writing-mode:lr-tb;text-anchor:start;fill:#000;fill-opacity:1;stroke:none;stroke-width:1px;stroke-linecap:butt;stroke-linejoin:miter;stroke-opacity:1"/><g style="stroke:none"><path d="M-35.844 64.967a31.284 31.566 0 0 0-32.197 31.55 31.284 31.566 0 0 0 62.568 0 31.284 31.566 0 0 0-30.37-31.55Zm-15.308 14.582h15.228c4.529 0 8.001 1.01 10.416 3.027 2.431 2.002 3.647 4.862 3.647 8.58 0 3.734-1.216 6.61-3.647 8.627-2.415 2.002-5.887 3.004-10.416 3.004h-6.053v12.346h-9.175V79.549zm9.175 6.65v9.938h5.077c1.78 0 3.153-.43 4.123-1.287.969-.874 1.453-2.105 1.453-3.694s-.484-2.812-1.453-3.67c-.97-.858-2.344-1.287-4.123-1.287h-5.077z" style="color:#000;fill:#dcdcdc;stroke:none;stroke-width:10;stroke-miterlimit:4;stroke-dasharray:none;stroke-opacity:1" transform="translate(68.742 -63.317)scale(.99039)"/></g></svg>