<svg xmlns="http://www.w3.org/2000/svg" width="360" height="360" version="1.0"><path d="M275.701 10.641a1.732 1.732 0 0 0-.437.094c-9.07 3.318-52.918 43.793-62.906 49.813-22.026 13.273-44.866 23.521-58.22 25.03-28.492 3.221-30.794 1.368-53.468 2.032-22.674.664-63.69-7.269-66.281.031-2.591 7.3-.646 29.187 2.594 40.469 3.239 11.282 12.816 43.872 22.406 62.156 2.677 5.105 14.747 29.106 31.062 55.844s41.46 50.591 50.125 59.219c17.33 17.255 41.4 32.29 46.907 34.281 11.013 3.982 46.42 16.144 69.093 8.844 22.674-7.3 42.315-23.606 44.907-30.906 1.295-3.65 13.279-29.439 18.343-59.032 5.065-29.593 3.21-62.993 2.563-70.625-1.296-15.264-4.528-70.283-9.063-86.875-4.464-16.332-28.232-91.204-37.625-90.375zm-32.28 94.282c16.606-.14 35.386 15.254 36.687 15.906l-62.22 26.875c1.016-33.165 12.616-42.673 25.532-42.781zm-87.688 43.843c16.606-.14 35.386 15.255 36.687 15.907l-62.219 26.875c1.016-33.166 12.615-42.673 25.532-42.782zm130.125 69.657c.6-.034 1.215.008 1.843.156 8.072 1.899 5.795 28.36 1.032 43.969-7.415 24.295-21.763 37.308-34.532 40.312-11.8 2.776-25.05 1.43-45.437-11.875-29.23-19.074-43.9-37.817-37.313-41.156 8.658-4.389 45.85 17.538 71.782 11.437 23.375-5.499 30.409-42.15 42.625-42.843z" style="fill:#729fcf;fill-opacity:1;fill-rule:evenodd;stroke:none"/></svg>