<?xml version="1.0" encoding="UTF-8" standalone="no"?><!--
  - Copyright (c) 2023. Bernard Bou
  -->

<!-- Created with Inkscape (http://www.inkscape.org/) -->

<svg xmlns:dc="http://purl.org/dc/elements/1.1/" xmlns:cc="http://creativecommons.org/ns#" xmlns:rdf="http://www.w3.org/1999/02/22-rdf-syntax-ns#" xmlns="http://www.w3.org/2000/svg" xmlns:sodipodi="http://sodipodi.sourceforge.net/DTD/sodipodi-0.dtd"
	xmlns:inkscape="http://www.inkscape.org/namespaces/inkscape" width="858.50018" height="854.82495" id="svg2" version="1.1" inkscape:version="0.91 r13725" sodipodi:docname="vnframe.svg">
	<title id="title7529">Showbiz Make-up Dressing Room Frame</title>
	<defs id="defs4">
		<clipPath id="clipPath3093">
			<path d="m 126.29333,63.905186 a 61.629631,62.957039 0 1 1 -123.2592571,0 61.629631,62.957039 0 1 1 123.2592571,0 z" sodipodi:ry="62.957039" sodipodi:rx="61.629631" sodipodi:cy="63.905186" sodipodi:cx="64.663704" id="path3095"
				style="fill:#ff0000;fill-opacity:1;fill-rule:evenodd;stroke:none" sodipodi:type="arc" />
		</clipPath>
		<clipPath id="clipPath3097">
			<path transform="matrix(0.12972965,0,0,0.12972965,787.5614,700.50245)" d="m 126.29333,63.905186 a 61.629631,62.957039 0 1 1 -123.2592571,0 61.629631,62.957039 0 1 1 123.2592571,0 z" sodipodi:ry="62.957039" sodipodi:rx="61.629631"
				sodipodi:cy="63.905186" sodipodi:cx="64.663704" id="path3099" style="fill:#ff0000;fill-opacity:1;fill-rule:evenodd;stroke:none" sodipodi:type="arc" />
		</clipPath>
	</defs>
	<sodipodi:namedview id="base" pagecolor="#ffffff" bordercolor="#666666" borderopacity="1.0" inkscape:pageopacity="0" inkscape:pageshadow="2" inkscape:zoom="0.33587572" inkscape:cx="463.31325" inkscape:cy="443.45437" inkscape:document-units="px"
		inkscape:current-layer="layer1" showgrid="false" showguides="true" inkscape:guide-bbox="true" inkscape:showpageshadow="false" inkscape:window-width="1087" inkscape:window-height="909" inkscape:window-x="604" inkscape:window-y="34"
		inkscape:window-maximized="0" fit-margin-top="0" fit-margin-left="0" fit-margin-right="0" fit-margin-bottom="0" inkscape:snap-to-guides="false" inkscape:snap-grids="false" />
	<g inkscape:label="Layer 1" inkscape:groupmode="layer" id="layer1" transform="translate(-78.06926,-399.6073)">
		<g id="g4534" transform="matrix(7.3677819,0,0,7.3677819,24.740269,343.73612)">
			<g clip-path="url(#clipPath3097)" transform="matrix(7.7083383,0,0,7.7083383,-6070.7897,-5399.7099)" id="Help">
				<path style="fill:#333333" inkscape:connector-curvature="0" id="path695"
					d="m 509.778,597.159 c -12.427,0 -22.5,10.074 -22.5,22.5 0,12.428 10.073,22.5 22.5,22.5 12.427,0 22.5,-10.072 22.5,-22.5 -10e-4,-12.426 -10.073,-22.5 -22.5,-22.5 z m -0.559,36.414 c -1.676,0 -3.054,-1.379 -3.054,-3.055 0,-1.676 1.378,-3.053 3.054,-3.053 1.677,0 3.054,1.377 3.054,3.053 0,1.676 -1.377,3.055 -3.054,3.055 z m 2.904,-11.791 c -0.892,1.305 -0.594,3.129 -3.052,3.129 -1.602,0 -2.385,-1.305 -2.385,-2.496 0,-4.432 6.519,-5.436 6.519,-9.086 0,-2.012 -1.34,-3.203 -3.576,-3.203 -4.767,0 -2.905,4.916 -6.518,4.916 -1.304,0 -2.421,-0.783 -2.421,-2.271 0,-3.65 4.172,-6.891 8.714,-6.891 4.769,0 9.46,2.197 9.46,7.449 10e-4,4.842 -5.55,6.703 -6.741,8.453 z" />
			</g>
			<path clip-path="url(#clipPath3093)" inkscape:connector-curvature="0" id="path7612" d="" style="fill:#333333;fill-opacity:1;fill-rule:evenodd;stroke:none" />
			<g transform="translate(-696.13344,-526.17091)" id="layer1-5" inkscape:label="Layer 1">
				<g style="fill:#808080" transform="matrix(1.0413737,0,0,1.0413737,633.79004,201.80949)" id="g4254">
					<path style="fill:#808080" id="path4256"
						d="m 176.984,366.951 -9.444,-3.157 c -1.154,-4.876 -3.07,-9.456 -5.629,-13.6 l 4.442,-8.904 c -3.049,-4.021 -6.638,-7.609 -10.658,-10.657 l -8.905,4.442 c -4.143,-2.56 -8.723,-4.478 -13.598,-5.631 l -3.157,-9.443 c -2.464,-0.337 -4.978,-0.516 -7.535,-0.516 -2.557,0 -5.07,0.179 -7.535,0.516 l -3.157,9.443 c -4.875,1.153 -9.455,3.071 -13.599,5.631 l -8.904,-4.442 c -4.021,3.048 -7.609,6.636 -10.656,10.657 l 4.442,8.904 c -2.56,4.144 -4.478,8.724 -5.63,13.6 l -9.444,3.157 c -0.337,2.463 -0.516,4.978 -0.516,7.534 0,2.556 0.178,5.071 0.516,7.534 l 9.444,3.157 c 1.153,4.876 3.07,9.456 5.629,13.6 l -4.44,8.904 c 3.047,4.021 6.635,7.609 10.656,10.657 l 8.904,-4.442 c 4.144,2.56 8.724,4.478 13.599,5.631 l 3.157,9.442 c 2.464,0.338 4.978,0.517 7.535,0.517 2.557,0 5.07,-0.179 7.535,-0.517 l 3.157,-9.442 c 4.875,-1.153 9.455,-3.071 13.598,-5.63 l 8.905,4.441 c 4.02,-3.048 7.609,-6.636 10.656,-10.657 l -4.44,-8.904 c 2.559,-4.144 4.475,-8.724 5.629,-13.6 l 9.444,-3.157 c 0.337,-2.463 0.516,-4.978 0.516,-7.534 0,-2.556 -0.179,-5.071 -0.517,-7.534 z M 122.5,412.075 c -20.76,0 -37.59,-16.829 -37.59,-37.59 0,-20.761 16.83,-37.59 37.59,-37.59 20.76,0 37.59,16.829 37.59,37.59 0,20.761 -16.83,37.59 -37.59,37.59 z"
						inkscape:connector-curvature="0" />
				</g>
			</g>
		</g>
		<path id="path6993"
			d="m 374.97822,657.09283 -42.07148,-41.54433 -32.72616,33.16482 42.07134,41.52108 m -30.6572,99.02228 -69.87397,0.44052 0.29365,46.58264 69.87397,-0.4405 m 117.07183,96.85651 0.70627,112.03125 139.74797,-0.881 -0.70628,-112.03124 c 41.56235,-24.43942 69.43773,-69.63906 69.1119,-121.32251 -0.48662,-77.18744 -63.46478,-139.35342 -140.62894,-138.86696 -77.18743,0.48662 -139.35357,63.44151 -138.86695,140.62897 0.32582,51.68341 28.74559,96.52821 70.63603,120.44149 z M 684.54953,833.49 l 69.87397,-0.44049 -0.29365,-46.58267 -69.87397,0.4405 M 519.75559,556.1865 c -7.36034,-1.4e-4 -46.58263,0.29367 -46.58263,0.29367 l 0.43318,68.70942 46.58263,-0.29368 m 173.68504,21.33547 -33.14171,-32.74957 -41.54435,42.07147 33.14157,32.72632 41.54449,-42.04822 z"
			inkscape:connector-curvature="0" style="fill:#808080;fill-opacity:1;stroke-width:0.2;stroke-linejoin:round" />
	</g>
	<metadata id="metadata394">
		<rdf:RDF>
			<cc:Work>
				<dc:format>image/svg+xml</dc:format>
				<dc:type rdf:resource="http://purl.org/dc/dcmitype/StillImage" />
				<cc:license rdf:resource="http://creativecommons.org/licenses/publicdomain/" />
				<dc:publisher>
					<cc:Agent rdf:about="http://openclipart.org/">
						<dc:title>Open Clip Art Library</dc:title>
					</cc:Agent>
				</dc:publisher>
				<dc:title>Showbiz Make-up Mirror Style Frame</dc:title>
				<dc:date>2012-02-12T13:17:48</dc:date>
				<dc:description>A frame designed to resemble the make-up mirrors found in dressing rooms backstage at theatres and studios.</dc:description>
				<dc:source>http://openclipart.org/detail/168127/showbiz-make-up-mirror-style-frame-by-gr8dan</dc:source>
				<dc:creator>
					<cc:Agent>
						<dc:title>GR8DAN</dc:title>
					</cc:Agent>
				</dc:creator>
				<dc:subject>
					<rdf:Bag>
						<rdf:li>backstage</rdf:li>
						<rdf:li>black</rdf:li>
						<rdf:li>border</rdf:li>
						<rdf:li>bulbs</rdf:li>
						<rdf:li>clip art</rdf:li>
						<rdf:li>clipart</rdf:li>
						<rdf:li>dressing room</rdf:li>
						<rdf:li>frame</rdf:li>
						<rdf:li>illuminated</rdf:li>
						<rdf:li>light bulb</rdf:li>
						<rdf:li>lights</rdf:li>
						<rdf:li>make-up</rdf:li>
						<rdf:li>rectangle</rdf:li>
						<rdf:li>showbiz</rdf:li>
					</rdf:Bag>
				</dc:subject>
			</cc:Work>
			<cc:License rdf:about="http://creativecommons.org/licenses/publicdomain/">
				<cc:permits rdf:resource="http://creativecommons.org/ns#Reproduction" />
				<cc:permits rdf:resource="http://creativecommons.org/ns#Distribution" />
				<cc:permits rdf:resource="http://creativecommons.org/ns#DerivativeWorks" />
			</cc:License>
		</rdf:RDF>
	</metadata>
	<style type="text/css" id="style8">
		.Border { fill: lightGray; stroke: black; stroke-width: 4; }
		.Label { font-size:24; font-family:Arial; fill:black; }
	</style>
	<style type="text/css" id="style8-7">
		.Border { fill: lightGray; stroke: black; stroke-width: 4; }
		.Label { font-size:24; font-family:Arial; fill:black; }
	</style>
	<style type="text/css" id="style8-3">
		.Border { fill: lightGray; stroke: black; stroke-width: 4; }
		.Label { font-size:24; font-family:Arial; fill:black; }
	</style>
	<style type="text/css" id="style8-6">
		.Border { fill: lightGray; stroke: black; stroke-width: 4; }
		.Label { font-size:24; font-family:Arial; fill:black; }
	</style>
	<style id="style8-1" type="text/css">
		.Border { fill: lightGray; stroke: black; stroke-width: 4; }
		.Label { font-size:24; font-family:Arial; fill:black; }
	</style>
	<style id="style8-7-0" type="text/css">
		.Border { fill: lightGray; stroke: black; stroke-width: 4; }
		.Label { font-size:24; font-family:Arial; fill:black; }
	</style>
	<style id="style8-3-2" type="text/css">
		.Border { fill: lightGray; stroke: black; stroke-width: 4; }
		.Label { font-size:24; font-family:Arial; fill:black; }
	</style>
	<style id="style8-6-7" type="text/css">
		.Border { fill: lightGray; stroke: black; stroke-width: 4; }
		.Label { font-size:24; font-family:Arial; fill:black; }
	</style>
</svg>
