<svg xmlns="http://www.w3.org/2000/svg" width="360" height="360" version="1.0"><defs><linearGradient id="a"><stop offset="0" style="stop-color:#fff;stop-opacity:.90196079"/><stop offset="1" style="stop-color:#fff;stop-opacity:0"/></linearGradient><linearGradient id="b"><stop offset="0" style="stop-color:#000;stop-opacity:1"/><stop offset="1" style="stop-color:#000;stop-opacity:0"/></linearGradient><linearGradient id="c"><stop offset="0" style="stop-color:#000;stop-opacity:1"/><stop offset="1" style="stop-color:#000;stop-opacity:0"/></linearGradient></defs><path d="m322.582 267.235-10.76-8.993 23.98-28.692c6.62-7.919 5.564-19.718-2.356-26.336l-28.692-23.98 8.993-10.76c8.278-9.906 6.96-24.642-2.945-32.921-9.906-8.28-24.642-6.96-32.92 2.945l-8.994 10.76-28.692-23.981c-7.92-6.619-19.646-5.503-26.265 2.416l-22.803 27.24 10.71 8.95c10.695 8.939 12.12 24.86 3.18 35.554-8.939 10.696-24.86 12.12-35.554 3.181l-10.739-8.974-22.802 27.239c-6.62 7.92-5.563 19.718 2.356 26.337L165.537 270l8.992-10.76c8.94-10.695 24.86-12.119 35.555-3.18s12.119 24.86 3.18 35.554l-8.992 10.76 27.257 22.781c7.92 6.619 19.718 5.564 26.337-2.356l23.98-28.692 10.76 8.993c9.906 8.279 24.64 6.962 32.92-2.945 8.28-9.906 6.962-24.642-2.944-32.92z" style="fill:gray;fill-opacity:1;stroke-width:.2;stroke-linejoin:round"/><path d="m201.511 166.047-10.76-8.993 23.98-28.692c6.62-7.92 5.564-19.718-2.355-26.337l-28.693-23.98 8.993-10.76c8.279-9.905 6.961-24.641-2.945-32.92-9.906-8.28-24.642-6.961-32.92 2.945l-8.993 10.76-28.693-23.981c-7.919-6.619-19.646-5.504-26.264 2.416L70.058 53.744l10.71 8.95c10.694 8.94 12.119 24.86 3.18 35.555-8.94 10.696-24.86 12.12-35.555 3.181l-10.738-8.974-22.803 27.239c-6.619 7.92-5.563 19.718 2.356 26.336l27.258 22.782 8.993-10.76c8.939-10.695 24.86-12.12 35.554-3.18 10.695 8.938 12.12 24.859 3.18 35.554l-8.992 10.76 27.258 22.781c7.919 6.619 19.717 5.564 26.336-2.356l23.98-28.692 10.76 8.992c9.907 8.28 24.641 6.962 32.921-2.945 8.279-9.905 6.961-24.64-2.945-32.92z" style="fill:#484848;fill-opacity:1;stroke-width:.2;stroke-linejoin:round"/></svg>