<svg xmlns="http://www.w3.org/2000/svg" width="200" height="200"><path d="M56.655 47.147 41.002 31.691 28.827 44.03l15.652 15.447m-11.405 36.84-25.996.164.109 17.331 25.996-.164m43.555 36.035.263 41.68 51.992-.328-.263-41.68c15.463-9.093 25.834-25.909 25.712-45.137-.18-28.717-23.611-51.845-52.32-51.664-28.716.181-51.844 23.603-51.663 52.32.121 19.228 10.694 35.912 26.28 44.809zm95.09-36.909 25.995-.164-.109-17.33-25.996.163m-61.2-85.837c-2.739 0-17.331.11-17.331.11l.161 25.562 17.33-.11m64.619 7.938-12.33-12.184-15.457 15.653 12.33 12.175 15.457-15.644z" style="fill:gray;fill-opacity:1;stroke-width:.2;stroke-linejoin:round"/></svg>