<?xml version="1.0" encoding="UTF-8" standalone="no"?>
<!-- Created with Inkscape (http://www.inkscape.org/) -->

<svg
   xmlns:dc="http://purl.org/dc/elements/1.1/"
   xmlns:cc="http://creativecommons.org/ns#"
   xmlns:rdf="http://www.w3.org/1999/02/22-rdf-syntax-ns#"
   xmlns:svg="http://www.w3.org/2000/svg"
   xmlns="http://www.w3.org/2000/svg"
   xmlns:xlink="http://www.w3.org/1999/xlink"
   xmlns:sodipodi="http://sodipodi.sourceforge.net/DTD/sodipodi-0.dtd"
   xmlns:inkscape="http://www.inkscape.org/namespaces/inkscape"
   width="96"
   height="96"
   id="svg2"
   version="1.1"
   inkscape:version="0.48.5 r10040"
   sodipodi:docname="Link to synset.svg">
  <defs
     id="defs4">
    <radialGradient
       r="135"
       fy="545.93359"
       fx="102.14286"
       cy="545.93359"
       cx="102.14286"
       gradientUnits="userSpaceOnUse"
       id="radialGradient3136"
       xlink:href="#linearGradient18791-8"
       inkscape:collect="always" />
    <linearGradient
       y2="535.2193"
       x2="605.71429"
       y1="535.2193"
       x1="154.28572"
       gradientUnits="userSpaceOnUse"
       id="linearGradient3134"
       xlink:href="#linearGradient15834-3"
       inkscape:collect="always" />
    <radialGradient
       r="135"
       fy="545.93359"
       fx="102.14286"
       cy="545.93359"
       cx="102.14286"
       gradientUnits="userSpaceOnUse"
       id="radialGradient3132"
       xlink:href="#linearGradient20749-8"
       inkscape:collect="always" />
    <radialGradient
       r="135"
       fy="545.93359"
       fx="102.14286"
       cy="545.93359"
       cx="102.14286"
       gradientUnits="userSpaceOnUse"
       id="radialGradient3112"
       xlink:href="#linearGradient18791-8"
       inkscape:collect="always" />
    <linearGradient
       y2="535.2193"
       x2="605.71429"
       y1="535.2193"
       x1="154.28572"
       gradientUnits="userSpaceOnUse"
       id="linearGradient3110"
       xlink:href="#linearGradient15834-3"
       inkscape:collect="always" />
    <radialGradient
       r="135"
       fy="545.93359"
       fx="102.14286"
       cy="545.93359"
       cx="102.14286"
       gradientUnits="userSpaceOnUse"
       id="radialGradient3108"
       xlink:href="#linearGradient20749-8"
       inkscape:collect="always" />
    <radialGradient
       r="135"
       fy="545.93359"
       fx="102.14286"
       cy="545.93359"
       cx="102.14286"
       gradientUnits="userSpaceOnUse"
       id="radialGradient3088"
       xlink:href="#linearGradient18791-8"
       inkscape:collect="always" />
    <linearGradient
       y2="535.2193"
       x2="605.71429"
       y1="535.2193"
       x1="154.28572"
       gradientUnits="userSpaceOnUse"
       id="linearGradient3086"
       xlink:href="#linearGradient15834-3"
       inkscape:collect="always" />
    <radialGradient
       r="135"
       fy="545.93359"
       fx="102.14286"
       cy="545.93359"
       cx="102.14286"
       gradientUnits="userSpaceOnUse"
       id="radialGradient3084"
       xlink:href="#linearGradient20749-8"
       inkscape:collect="always" />
    <linearGradient
       inkscape:collect="always"
       id="linearGradient20749-8">
      <stop
         style="stop-color: rgb(153, 153, 153); stop-opacity: 1;"
         offset="0"
         id="stop20751-96" />
      <stop
         style="stop-color: rgb(153, 153, 153); stop-opacity: 0;"
         offset="1"
         id="stop20753-4" />
    </linearGradient>
    <linearGradient
       id="linearGradient15834-3">
      <stop
         id="stop15842-3"
         offset="0"
         style="stop-color:#772b00;stop-opacity:1;" />
      <stop
         style="stop-color:#da441b;stop-opacity:1;"
         offset="0.5"
         id="stop15848-8" />
      <stop
         id="stop15850-6"
         offset="0.75"
         style="stop-color: rgb(210, 64, 15); stop-opacity: 1;" />
      <stop
         style="stop-color: rgb(212, 67, 22); stop-opacity: 0.614583;"
         offset="0.9375"
         id="stop15852-0" />
      <stop
         style="stop-color:#c33900;stop-opacity:0.21875;"
         offset="1"
         id="stop15838-4" />
    </linearGradient>
    <linearGradient
       inkscape:collect="always"
       id="linearGradient18791-8">
      <stop
         style="stop-color: rgb(255, 255, 255); stop-opacity: 1;"
         offset="0"
         id="stop18793-8" />
      <stop
         style="stop-color: rgb(255, 255, 255); stop-opacity: 0;"
         offset="1"
         id="stop18795-9" />
    </linearGradient>
    <radialGradient
       inkscape:collect="always"
       xlink:href="#linearGradient20749-8"
       id="radialGradient3706"
       gradientUnits="userSpaceOnUse"
       cx="102.14286"
       cy="545.93359"
       fx="102.14286"
       fy="545.93359"
       r="135" />
    <linearGradient
       inkscape:collect="always"
       xlink:href="#linearGradient15834-3"
       id="linearGradient3708"
       gradientUnits="userSpaceOnUse"
       x1="154.28572"
       y1="535.2193"
       x2="605.71429"
       y2="535.2193" />
    <radialGradient
       inkscape:collect="always"
       xlink:href="#linearGradient18791-8"
       id="radialGradient3710"
       gradientUnits="userSpaceOnUse"
       cx="102.14286"
       cy="545.93359"
       fx="102.14286"
       fy="545.93359"
       r="135" />
  </defs>
  <sodipodi:namedview
     id="base"
     pagecolor="#ffffff"
     bordercolor="#666666"
     borderopacity="1.0"
     inkscape:pageopacity="0.0"
     inkscape:pageshadow="2"
     inkscape:zoom="1.4"
     inkscape:cx="-47.877058"
     inkscape:cy="57.490015"
     inkscape:document-units="px"
     inkscape:current-layer="layer1"
     showgrid="false"
     inkscape:window-width="1094"
     inkscape:window-height="852"
     inkscape:window-x="661"
     inkscape:window-y="191"
     inkscape:window-maximized="0" />
  <metadata
     id="metadata7">
    <rdf:RDF>
      <cc:Work
         rdf:about="">
        <dc:format>image/svg+xml</dc:format>
        <dc:type
           rdf:resource="http://purl.org/dc/dcmitype/StillImage" />
        <dc:title />
      </cc:Work>
    </rdf:RDF>
  </metadata>
  <g
     inkscape:label="Layer 1"
     inkscape:groupmode="layer"
     id="layer1"
     transform="translate(0,-956.36217)">
    <path
       d="m 90.353025,1004.407 a 42.25398,42.634099 0 0 1 -84.5079603,0 42.25398,42.634099 0 1 1 84.5079603,0 z"
       style="color:#000000;fill:none;stroke:#ff6500;stroke-width:10;stroke-miterlimit:4;stroke-opacity:1;stroke-dasharray:none"
       id="path10779"
       inkscape:connector-curvature="0" />
    <g
       transform="matrix(0.71799222,0,0,0.73350513,16.638492,939.07509)"
       id="g4746" />
    <g
       transform="matrix(2.3933074,0,0,2.4450171,-64.255298,781.13187)"
       id="g4767" />
    <g
       transform="matrix(2.3933074,0,0,2.4450171,-6.8159205,781.13187)"
       id="g4847" />
    <g
       transform="matrix(2.3933074,0,0,2.4450171,-33.142302,732.23153)"
       id="g4855" />
    <g
       style="overflow:visible"
       id="g3995"
       transform="matrix(0.510006,0,0,0.510006,14.303259,971.84725)">
      <g
         inkscape:label="Livello 1"
         id="layer1-1"
         transform="matrix(0.47009421,0,0,0.47009421,3.867397,33.172591)">
        <g
           inkscape:label="ombre"
           id="layer5"
           transform="matrix(0.51188693,0,0,0.58594337,-5.936074,-60.575397)" />
        <g
           id="g2841"
           inkscape:label="Layer 1"
           transform="matrix(0.51188693,0,0,0.58594337,-5.936074,-60.575397)" />
        <g
           inkscape:label="bureau"
           id="layer2"
           transform="matrix(0.51188693,0,0,0.58594337,-5.936074,-60.575397)" />
        <g
           inkscape:label="barre"
           id="layer3"
           transform="matrix(0.51188693,0,0,0.58594337,-5.936074,-60.575397)" />
        <g
           inkscape:label="fichier"
           id="layer4"
           transform="matrix(0.51188693,0,0,0.58594337,-5.936074,-60.575397)" />
        <path
           transform="matrix(0.34958936,-0.11438929,0.155088,0.25785079,-54.058938,-75.419406)"
           d="m 237.14286,545.93359 c 0,74.55844 -60.44156,135 -135,135 -74.558441,0 -135,-60.44156 -135,-135 0,-74.55844 60.441559,-135 135,-135 74.55844,0 135,60.44156 135,135 z"
           sodipodi:ry="135"
           sodipodi:rx="135"
           sodipodi:cy="545.93359"
           sodipodi:cx="102.14286"
           id="path3453-7"
           style="fill:url(#radialGradient3706);fill-opacity:1;stroke:none"
           sodipodi:type="arc"
           inkscape:transform-center-y="10.305508"
           inkscape:transform-center-x="-6.1984247" />
        <path
           sodipodi:type="arc"
           style="fill:url(#linearGradient3708);fill-opacity:1;stroke:none"
           id="path3455-6"
           sodipodi:cx="380"
           sodipodi:cy="535.2193"
           sodipodi:rx="225.71428"
           sodipodi:ry="225.71428"
           d="m 605.71428,535.2193 c 0,124.65855 -101.05573,225.71428 -225.71428,225.71428 -124.65855,0 -225.71428,-101.05573 -225.71428,-225.71428 0,-124.65855 101.05573,-225.71428 225.71428,-225.71428 124.65855,0 225.71428,101.05573 225.71428,225.71428 z"
           transform="matrix(-0.16160701,-0.17763395,0.17763395,-0.16160701,31.47115,156.65493)" />
        <path
           sodipodi:type="arc"
           style="opacity:0.87614698;fill:url(#radialGradient3710);fill-opacity:1;stroke:none"
           id="path3457-4"
           sodipodi:cx="102.14286"
           sodipodi:cy="545.93359"
           sodipodi:rx="135"
           sodipodi:ry="135"
           d="m 237.14286,545.93359 c 0,74.55844 -60.44156,135 -135,135 -74.558441,0 -135,-60.44156 -135,-135 0,-74.55844 60.441559,-135 135,-135 74.55844,0 135,60.44156 135,135 z"
           transform="matrix(0.24014714,0,0,0.24014714,27.396331,-143.71285)" />
      </g>
      <g
         transform="matrix(0.47009421,0,0,0.47009421,63.867397,33.172591)"
         id="g3066"
         inkscape:label="Livello 1">
        <g
           transform="matrix(0.51188693,0,0,0.58594337,-5.936074,-60.575397)"
           id="g3068"
           inkscape:label="ombre" />
        <g
           transform="matrix(0.51188693,0,0,0.58594337,-5.936074,-60.575397)"
           inkscape:label="Layer 1"
           id="g3070" />
        <g
           transform="matrix(0.51188693,0,0,0.58594337,-5.936074,-60.575397)"
           id="g3072"
           inkscape:label="bureau" />
        <g
           transform="matrix(0.51188693,0,0,0.58594337,-5.936074,-60.575397)"
           id="g3074"
           inkscape:label="barre" />
        <g
           transform="matrix(0.51188693,0,0,0.58594337,-5.936074,-60.575397)"
           id="g3076"
           inkscape:label="fichier" />
        <path
           inkscape:transform-center-x="-6.1984247"
           inkscape:transform-center-y="10.305508"
           sodipodi:type="arc"
           style="fill:url(#radialGradient3084);fill-opacity:1;stroke:none"
           id="path3078"
           sodipodi:cx="102.14286"
           sodipodi:cy="545.93359"
           sodipodi:rx="135"
           sodipodi:ry="135"
           d="m 237.14286,545.93359 c 0,74.55844 -60.44156,135 -135,135 -74.558441,0 -135,-60.44156 -135,-135 0,-74.55844 60.441559,-135 135,-135 74.55844,0 135,60.44156 135,135 z"
           transform="matrix(0.34958936,-0.11438929,0.155088,0.25785079,-54.058938,-75.419406)" />
        <path
           transform="matrix(-0.16160701,-0.17763395,0.17763395,-0.16160701,31.47115,156.65493)"
           d="m 605.71428,535.2193 c 0,124.65855 -101.05573,225.71428 -225.71428,225.71428 -124.65855,0 -225.71428,-101.05573 -225.71428,-225.71428 0,-124.65855 101.05573,-225.71428 225.71428,-225.71428 124.65855,0 225.71428,101.05573 225.71428,225.71428 z"
           sodipodi:ry="225.71428"
           sodipodi:rx="225.71428"
           sodipodi:cy="535.2193"
           sodipodi:cx="380"
           id="path3080"
           style="fill:url(#linearGradient3086);fill-opacity:1;stroke:none"
           sodipodi:type="arc" />
        <path
           transform="matrix(0.24014714,0,0,0.24014714,27.396331,-143.71285)"
           d="m 237.14286,545.93359 c 0,74.55844 -60.44156,135 -135,135 -74.558441,0 -135,-60.44156 -135,-135 0,-74.55844 60.441559,-135 135,-135 74.55844,0 135,60.44156 135,135 z"
           sodipodi:ry="135"
           sodipodi:rx="135"
           sodipodi:cy="545.93359"
           sodipodi:cx="102.14286"
           id="path3082"
           style="opacity:0.87614698;fill:url(#radialGradient3088);fill-opacity:1;stroke:none"
           sodipodi:type="arc" />
      </g>
      <g
         inkscape:label="Livello 1"
         id="g3090"
         transform="matrix(0.47009421,0,0,0.47009421,63.867397,91.172591)">
        <g
           inkscape:label="ombre"
           id="g3092"
           transform="matrix(0.51188693,0,0,0.58594337,-5.936074,-60.575397)" />
        <g
           id="g3094"
           inkscape:label="Layer 1"
           transform="matrix(0.51188693,0,0,0.58594337,-5.936074,-60.575397)" />
        <g
           inkscape:label="bureau"
           id="g3096"
           transform="matrix(0.51188693,0,0,0.58594337,-5.936074,-60.575397)" />
        <g
           inkscape:label="barre"
           id="g3098"
           transform="matrix(0.51188693,0,0,0.58594337,-5.936074,-60.575397)" />
        <g
           inkscape:label="fichier"
           id="g3100"
           transform="matrix(0.51188693,0,0,0.58594337,-5.936074,-60.575397)" />
        <path
           transform="matrix(0.34958936,-0.11438929,0.155088,0.25785079,-54.058938,-75.419406)"
           d="m 237.14286,545.93359 c 0,74.55844 -60.44156,135 -135,135 -74.558441,0 -135,-60.44156 -135,-135 0,-74.55844 60.441559,-135 135,-135 74.55844,0 135,60.44156 135,135 z"
           sodipodi:ry="135"
           sodipodi:rx="135"
           sodipodi:cy="545.93359"
           sodipodi:cx="102.14286"
           id="path3102"
           style="fill:url(#radialGradient3108);fill-opacity:1;stroke:none"
           sodipodi:type="arc"
           inkscape:transform-center-y="10.305508"
           inkscape:transform-center-x="-6.1984247" />
        <path
           sodipodi:type="arc"
           style="fill:url(#linearGradient3110);fill-opacity:1;stroke:none"
           id="path3104"
           sodipodi:cx="380"
           sodipodi:cy="535.2193"
           sodipodi:rx="225.71428"
           sodipodi:ry="225.71428"
           d="m 605.71428,535.2193 c 0,124.65855 -101.05573,225.71428 -225.71428,225.71428 -124.65855,0 -225.71428,-101.05573 -225.71428,-225.71428 0,-124.65855 101.05573,-225.71428 225.71428,-225.71428 124.65855,0 225.71428,101.05573 225.71428,225.71428 z"
           transform="matrix(-0.16160701,-0.17763395,0.17763395,-0.16160701,31.47115,156.65493)" />
        <path
           sodipodi:type="arc"
           style="opacity:0.87614698;fill:url(#radialGradient3112);fill-opacity:1;stroke:none"
           id="path3106"
           sodipodi:cx="102.14286"
           sodipodi:cy="545.93359"
           sodipodi:rx="135"
           sodipodi:ry="135"
           d="m 237.14286,545.93359 c 0,74.55844 -60.44156,135 -135,135 -74.558441,0 -135,-60.44156 -135,-135 0,-74.55844 60.441559,-135 135,-135 74.55844,0 135,60.44156 135,135 z"
           transform="matrix(0.24014714,0,0,0.24014714,27.396331,-143.71285)" />
      </g>
      <g
         transform="matrix(0.47009421,0,0,0.47009421,3.867397,91.172591)"
         id="g3114"
         inkscape:label="Livello 1">
        <g
           transform="matrix(0.51188693,0,0,0.58594337,-5.936074,-60.575397)"
           id="g3116"
           inkscape:label="ombre" />
        <g
           transform="matrix(0.51188693,0,0,0.58594337,-5.936074,-60.575397)"
           inkscape:label="Layer 1"
           id="g3118" />
        <g
           transform="matrix(0.51188693,0,0,0.58594337,-5.936074,-60.575397)"
           id="g3120"
           inkscape:label="bureau" />
        <g
           transform="matrix(0.51188693,0,0,0.58594337,-5.936074,-60.575397)"
           id="g3122"
           inkscape:label="barre" />
        <g
           transform="matrix(0.51188693,0,0,0.58594337,-5.936074,-60.575397)"
           id="g3124"
           inkscape:label="fichier" />
        <path
           inkscape:transform-center-x="-6.1984247"
           inkscape:transform-center-y="10.305508"
           sodipodi:type="arc"
           style="fill:url(#radialGradient3132);fill-opacity:1;stroke:none"
           id="path3126"
           sodipodi:cx="102.14286"
           sodipodi:cy="545.93359"
           sodipodi:rx="135"
           sodipodi:ry="135"
           d="m 237.14286,545.93359 c 0,74.55844 -60.44156,135 -135,135 -74.558441,0 -135,-60.44156 -135,-135 0,-74.55844 60.441559,-135 135,-135 74.55844,0 135,60.44156 135,135 z"
           transform="matrix(0.34958936,-0.11438929,0.155088,0.25785079,-54.058938,-75.419406)" />
        <path
           transform="matrix(-0.16160701,-0.17763395,0.17763395,-0.16160701,31.47115,156.65493)"
           d="m 605.71428,535.2193 c 0,124.65855 -101.05573,225.71428 -225.71428,225.71428 -124.65855,0 -225.71428,-101.05573 -225.71428,-225.71428 0,-124.65855 101.05573,-225.71428 225.71428,-225.71428 124.65855,0 225.71428,101.05573 225.71428,225.71428 z"
           sodipodi:ry="225.71428"
           sodipodi:rx="225.71428"
           sodipodi:cy="535.2193"
           sodipodi:cx="380"
           id="path3128"
           style="fill:url(#linearGradient3134);fill-opacity:1;stroke:none"
           sodipodi:type="arc" />
        <path
           transform="matrix(0.24014714,0,0,0.24014714,27.396331,-143.71285)"
           d="m 237.14286,545.93359 c 0,74.55844 -60.44156,135 -135,135 -74.558441,0 -135,-60.44156 -135,-135 0,-74.55844 60.441559,-135 135,-135 74.55844,0 135,60.44156 135,135 z"
           sodipodi:ry="135"
           sodipodi:rx="135"
           sodipodi:cy="545.93359"
           sodipodi:cx="102.14286"
           id="path3130"
           style="opacity:0.87614698;fill:url(#radialGradient3136);fill-opacity:1;stroke:none"
           sodipodi:type="arc" />
      </g>
    </g>
  </g>
</svg>
