<svg xmlns="http://www.w3.org/2000/svg" width="128" height="128"><path d="M126.628 1020.452a62.527 62.487 0 0 1-125.055 0 62.527 62.487 0 1 1 125.055 0z" style="fill:#ed969e;fill-opacity:1;fill-rule:nonzero;stroke:#e25563;stroke-width:2.69678;stroke-linecap:butt;stroke-linejoin:round;stroke-miterlimit:4;stroke-dasharray:none;stroke-dashoffset:0;stroke-opacity:1" transform="translate(0 -956.362)"/><path d="m74.647 70.498 24.406-14.873c2.131-1.296 2.888-3.922 1.695-5.879-1.186-1.945-3.872-2.489-6.004-1.188L72.911 61.86c-.704.429-1.602.248-1.992-.395-.4-.659-.151-1.539.553-1.967l24.404-14.87c2.12-1.293 2.889-3.924 1.698-5.882-1.195-1.958-3.886-2.48-6.004-1.189L67.162 52.43c-.7.426-1.6.246-2-.412-.39-.64-.14-1.52.562-1.95L84.986 38.33c2.133-1.3 2.883-3.936 1.698-5.881-1.193-1.958-3.871-2.489-6.005-1.189L48.574 50.823l4.21-9.124c1.508-2.858.625-6.114-1.978-7.306-2.616-1.17-5.954.184-7.476 3.024 0 0-7.996 15.435-11.425 22.028-3.447 6.6-4.453 14.512 1.611 24.462 10.036 16.47 24.78 9.506 28.918 6.984l34.678-21.128c2.118-1.29 2.877-3.935 1.684-5.892-1.186-1.947-3.883-2.483-6.001-1.192L76.085 72.86c-.7.426-1.598.251-1.993-.396-.4-.658-.145-1.54.555-1.966z" style="stroke-width:1"/></svg>