<svg xmlns="http://www.w3.org/2000/svg" width="128" height="128">
    <path d="M126.628 1020.452a62.527 62.487 0 0 1-125.055 0 62.527 62.487 0 1 1 125.055 0z" style="fill:#ed969e;fill-opacity:1;fill-rule:nonzero;stroke:#e25563;stroke-width:2.69678;stroke-linecap:butt;stroke-linejoin:round;stroke-miterlimit:4;stroke-dasharray:none;stroke-dashoffset:0;stroke-opacity:1" transform="translate(0 -956.362)"/>
    <path d="M59.018 65.014c3.766-.883 5.498 4.291 4.85 7.36-1.357 6.415-8.534 8.646-13.788 6.536-8.19-3.29-10.836-13.992-7.418-22.026 4.706-11.059 17.755-14.488 27.55-9.273C82.79 54.306 86.585 71.47 80.2 84.303c-7.842 15.756-27.034 20.416-41.313 12.01-16.997-10.005-21.951-33.76-12.555-51.359 10.93-20.473 36.33-26.371 55.076-14.747 21.429 13.287 27.546 43.671 15.123 66.025l-.122.22" style="font-size:12px;fill:none;stroke:#000;stroke-width:8;stroke-linecap:round;stroke-linejoin:round;stroke-miterlimit:4;stroke-dasharray:none;stroke-opacity:1"/>
</svg>
