<svg xmlns="http://www.w3.org/2000/svg" width="128" height="128">
    <path d="M126.628 1020.452a62.527 62.487 0 0 1-125.055 0 62.527 62.487 0 1 1 125.055 0z" style="fill:#ed969e;fill-opacity:1;fill-rule:nonzero;stroke:#e25563;stroke-width:2.69678;stroke-linecap:butt;stroke-linejoin:round;stroke-miterlimit:4;stroke-dasharray:none;stroke-dashoffset:0;stroke-opacity:1" transform="translate(0 -956.362)"/>
    <path fill="#451c54" d="m232.048 376.949-20.714-20.714a1.794 1.794 0 0 0-2.529 0l-20.714 20.714a1.793 1.793 0 0 0 0 2.528l20.714 20.714a1.794 1.794 0 0 0 2.529 0l20.714-20.714a1.793 1.793 0 0 0 0-2.528zm-12.214-.361-6.357 4.954c-.775.605-1.41.294-1.41-.688v-2.699H209a.897.897 0 0 0-.895.894v7.142a.897.897 0 0 1-.895.894h-3.575a.898.898 0 0 1-.894-.894v-12.506c0-.491.402-.894.894-.894h8.431v-2.665c0-.983.635-1.293 1.41-.689l6.357 4.955c.777.603.777 1.591.001 2.196z" style="fill:#000" transform="translate(-327.3 -640.503)scale(1.86272)"/>
</svg>
