<svg xmlns="http://www.w3.org/2000/svg" width="128" height="128"><path d="M64.09 2.836 2.899 64.103l61.193 61.266 61.193-61.266Z" style="fill:#00c8fc;fill-opacity:1;stroke:#008cec;stroke-width:3.86401;stroke-opacity:1"/><path d="M64.046 26.5C43.359 26.5 26.5 43.31 26.5 64s16.859 37.5 37.546 37.5c20.687 0 37.454-16.81 37.454-37.5S84.733 26.5 64.046 26.5Zm8.404 24.855c.46 0 .997.025 1.553.087.556.041 1.15.071 1.827.174v5.843c-.75-.37-1.571-.62-2.466-.785-.871-.185-1.768-.261-2.832-.261-3.775 0-6.738 1.041-8.77 3.14-2.008 2.077-3.015 5.074-3.015 8.982v18.14H52.08V52.14h6.668v5.407c1.404-2.099 3.231-3.702 5.481-4.71 2.25-1.028 5.004-1.482 8.222-1.482z" style="fill:#342e2e;fill-opacity:1;fill-rule:evenodd;stroke:none;stroke-width:2.85622"/></svg>