<svg xmlns="http://www.w3.org/2000/svg" width="128" height="128"><path d="M64.09 2.836 2.899 64.103l61.193 61.266 61.193-61.266Z" style="fill:#00c8fc;fill-opacity:1;stroke:#008cec;stroke-width:3.86401;stroke-opacity:1"/><path d="M64 26.5c-20.712 0-37.5 16.83-37.5 37.544C26.5 84.757 43.288 101.5 64 101.5s37.5-16.743 37.5-37.456C101.5 43.33 84.712 26.5 64 26.5Zm-7.043 15.89h6.769v9.867h13.72v4.365h-13.72v18.772c0 2.822.475 4.697 1.372 5.5.92.804 2.702 1.223 5.487 1.223h6.86v4.715h-6.86c-5.16 0-8.647-.818-10.61-2.445-1.962-1.647-3.018-4.668-3.018-8.993V56.622H52.11v-4.365h4.847z" style="fill:#342e2e;fill-opacity:1;fill-rule:evenodd;stroke:none;stroke-width:2.34997;stroke-linejoin:round;stroke-miterlimit:4;stroke-dasharray:none;stroke-dashoffset:0;stroke-opacity:1"/></svg>