<svg xmlns="http://www.w3.org/2000/svg" width="128" height="128">
    <path d="M126.474 1020.348a62.452 62.498 0 0 1-124.903 0 62.452 62.498 0 1 1 124.903 0z" style="fill:orange;fill-opacity:1;fill-rule:nonzero;stroke:#ff8c00;stroke-width:2.69538;stroke-linecap:butt;stroke-linejoin:round;stroke-miterlimit:4;stroke-dasharray:none;stroke-dashoffset:0;stroke-opacity:1" transform="translate(0 -956.362)"/>
    <path d="M98.883 74.75v-8.732H44.98q-1.688-3.72-3.376-7.115 1.688-3.396 3.376-7.114h53.904v-8.732h-50.25q4.594-11.32 7.876-22.477h-4.126q-3.843 7.439-8.812 16.656-4.969 9.217-11.437 20.05v3.234q6.468 10.835 11.436 20.05 4.97 9.056 8.813 16.657h4.126q-3.282-11.159-7.876-22.477z"/>
</svg>
