<svg xmlns="http://www.w3.org/2000/svg" width="128" height="128">
    <path d="M126.474 1020.348a62.452 62.498 0 0 1-124.903 0 62.452 62.498 0 1 1 124.903 0z" style="fill:orange;fill-opacity:1;fill-rule:nonzero;stroke:#ff8c00;stroke-width:2.69538;stroke-linecap:butt;stroke-linejoin:round;stroke-miterlimit:4;stroke-dasharray:none;stroke-dashoffset:0;stroke-opacity:1" transform="translate(0 -956.362)"/>
    <path d="M29.117 74.75v-8.732H83.02q1.688-3.72 3.376-7.115-1.688-3.396-3.376-7.114H29.117v-8.732h50.249Q74.77 31.737 71.49 20.58h4.125q3.844 7.439 8.812 16.656 4.969 9.217 11.437 20.05v3.234q-6.468 10.835-11.436 20.05-4.97 9.056-8.813 16.657H71.49q3.281-11.159 7.875-22.477z"/>
</svg>
