<svg xmlns="http://www.w3.org/2000/svg" width="128" height="128"><path d="M126.628 1020.452a62.527 62.487 0 0 1-125.055 0 62.527 62.487 0 1 1 125.055 0z" style="fill:#ed969e;fill-opacity:1;fill-rule:nonzero;stroke:#e25563;stroke-width:2.69678;stroke-linecap:butt;stroke-linejoin:round;stroke-miterlimit:4;stroke-dasharray:none;stroke-dashoffset:0;stroke-opacity:1" transform="translate(0 -956.362)"/><path d="M63.834 22.589c-15.57 0-27.994 12.589-27.994 27.994 0 17.558 16.565 42.24 24.35 52.84 1.822 2.65 5.632 2.65 7.62 0 7.62-10.435 24.35-35.282 24.35-52.84-.332-15.405-12.92-27.994-28.326-27.994Zm0 41.411c-7.454 0-13.582-6.129-13.582-13.583 0-7.454 6.128-13.583 13.582-13.583 7.454 0 13.583 6.13 13.583 13.583C77.583 58.037 71.454 64 63.834 64z" style="stroke-width:1.33989"/></svg>