<svg xmlns="http://www.w3.org/2000/svg" width="128" height="128">
    <path d="M126.474 1020.348a62.452 62.498 0 0 1-124.903 0 62.452 62.498 0 1 1 124.903 0z" style="fill:orange;fill-opacity:1;fill-rule:nonzero;stroke:#ff8c00;stroke-width:2.69538;stroke-linecap:butt;stroke-linejoin:round;stroke-miterlimit:4;stroke-dasharray:none;stroke-dashoffset:0;stroke-opacity:1" transform="translate(0 -956.362)"/>
    <path d="M35.531 23.031c-6.925 0-12.5 5.575-12.5 12.5v56.937c0 6.925 5.575 12.5 12.5 12.5h56.938c6.925 0 12.5-5.575 12.5-12.5V35.531c0-6.925-5.575-12.5-12.5-12.5zm22.719 28.25h31.844c3.873 0 7 3.095 7 6.969v31.843c0 3.874-3.127 7-7 7H58.25a6.99 6.99 0 0 1-7-7V58.25c0-3.874 3.127-6.97 7-6.97z"/>
    <path d="M52.546 62.66h9.012v3.676q1.945-2.3 3.914-3.273 1.992-.973 4.79-.973 3.013 0 4.768 1.068 1.755 1.067 2.87 3.178 2.276-2.467 4.15-3.344 1.874-.902 4.625-.902 4.055 0 6.332 2.42 2.277 2.395 2.277 7.518v15.82h-9.676v-14.35q0-1.707-.665-2.537-.972-1.305-2.419-1.305-1.707 0-2.75 1.234-1.044 1.233-1.044 3.96v12.997h-9.677V73.973q0-1.66-.19-2.253-.308-.949-1.067-1.518-.76-.593-1.779-.593-1.66 0-2.727 1.257-1.068 1.257-1.068 4.127v12.854h-9.676z" style="stroke-width:4;stroke-linecap:round;stroke-linejoin:round"/>
</svg>
