<svg xmlns="http://www.w3.org/2000/svg" width="128" height="128"><path d="M126.474 1020.348a62.452 62.498 0 0 1-124.903 0 62.452 62.498 0 1 1 124.903 0z" style="fill:orange;fill-opacity:1;fill-rule:nonzero;stroke:#ff8c00;stroke-width:2.69538;stroke-linecap:butt;stroke-linejoin:round;stroke-miterlimit:4;stroke-dasharray:none;stroke-dashoffset:0;stroke-opacity:1" transform="translate(0 -956.362)"/><path d="M35.531 23.031c-6.925 0-12.5 5.575-12.5 12.5V92.47c0 6.925 5.575 12.5 12.5 12.5H92.47c6.925 0 12.5-5.575 12.5-12.5V35.53c0-6.925-5.575-12.5-12.5-12.5zm22.719 28.25h31.844c3.873 0 7 3.096 7 6.969v31.844c0 3.873-3.127 7-7 7H58.25a6.99 6.99 0 0 1-7-7V58.25c0-3.873 3.127-6.969 7-6.969z" style="fill:#000;fill-opacity:1;fill-rule:evenodd;stroke:none"/></svg>