<svg xmlns="http://www.w3.org/2000/svg" width="128" height="128">
    <path d="M126.474 1020.348a62.452 62.498 0 0 1-124.903 0 62.452 62.498 0 1 1 124.903 0z" style="fill:orange;fill-opacity:1;fill-rule:nonzero;stroke:#ff8c00;stroke-width:2.69538;stroke-linecap:butt;stroke-linejoin:round;stroke-miterlimit:4;stroke-dasharray:none;stroke-dashoffset:0;stroke-opacity:1" transform="translate(0 -956.362)"/>
    <path fill="none" d="M24.997 24.184h80.687v80.156H24.997z" style="stroke:#000;stroke-width:15;stroke-linecap:round;stroke-linejoin:round;stroke-dasharray:none;stroke-opacity:1"/>
    <path d="M58.621 58.666v39.01h39.711v-39.01Zm22.73 9.203c2.597 0 4.6.994 6.014 2.98 1.426 1.987 2.14 4.441 2.14 7.366 0 3.23-.775 5.698-2.323 7.404-1.548 1.694-3.503 2.541-5.867 2.541-1.146 0-2.194-.196-3.145-.586a7.493 7.493 0 0 1-2.523-1.736v9.268h-7.512V68.309H75.1v2.869c.963-1.207 1.846-2.023 2.65-2.45 1.085-.572 2.286-.859 3.602-.859zm-2.43 5.467c-.951 0-1.744.37-2.378 1.113-.634.744-.951 1.952-.951 3.621 0 1.536.323 2.675.969 3.418.646.744 1.464 1.116 2.45 1.116.866 0 1.59-.354 2.175-1.061.585-.719.879-1.933.879-3.639 0-1.572-.305-2.724-.914-3.455-.61-.743-1.353-1.113-2.23-1.113z"/>
</svg>
