<svg xmlns="http://www.w3.org/2000/svg" width="128" height="128">
    <path d="M126.616 1020.44a62.616 62.608 0 0 1-125.232 0 62.616 62.608 0 1 1 125.232 0z" style="fill:#b478cc;fill-opacity:1;fill-rule:nonzero;stroke:#a458c0;stroke-width:2.70129;stroke-linecap:butt;stroke-linejoin:round;stroke-miterlimit:4;stroke-dasharray:none;stroke-dashoffset:0;stroke-opacity:1" transform="translate(0 -956.362)"/>
    <path d="M37.44 30.85h32.154q10.504 0 15.715 5.291 5.252 5.291 5.252 15.06 0 10.04-5.723 15.694-5.68 5.653-17.38 5.653H56.87v24.603H37.44Zm19.43 28.266h4.739q5.594 0 7.857-2.036Q71.73 55 71.73 51.79q0-3.12-1.964-5.292-1.964-2.172-7.387-2.172H56.87z"/>
</svg>
