<svg xmlns="http://www.w3.org/2000/svg" width="128" height="128">
    <path d="M126.616 1020.44a62.616 62.608 0 0 1-125.232 0 62.616 62.608 0 1 1 125.232 0z" style="fill:#b478cc;fill-opacity:1;fill-rule:nonzero;stroke:#a458c0;stroke-width:2.70129;stroke-linecap:butt;stroke-linejoin:round;stroke-miterlimit:4;stroke-dasharray:none;stroke-dashoffset:0;stroke-opacity:1" transform="translate(0 -956.362)"/>
    <path d="M64.14 96.836q-8.943 0-15.953-3.25-6.889-3.365-10.88-10.444-3.986-7.079-3.986-18.22 0-11.604 4.108-18.799 4.11-7.195 11.12-10.445 7.13-3.364 15.954-3.364 4.956 0 9.669.927 4.835.93 8.22 2.437l-3.144 8.356q-3.384-1.277-7.493-2.09-3.988-.812-7.494-.812-9.307 0-14.14 4.527-4.836 4.526-5.802 13.81h31.787v8.355H44.198q.605 10.328 5.439 15.318t14.262 4.99q5.44 0 9.669-1.044 4.23-1.045 7.856-2.437v8.819q-3.384 1.625-7.493 2.438-4.11.928-9.79.928z"/>
</svg>
