<svg xmlns="http://www.w3.org/2000/svg" width="128" height="128">
    <g transform="matrix(2.66661 0 0 2.6877 -.237 -.614)">
        <ellipse cx="8.154" cy="7.959" rx="7.073" ry="7.14" style="fill:#0038d4;fill-opacity:1;fill-rule:evenodd;stroke:none" transform="matrix(3.26975 .9073 -.89083 3.2104 4.556 -8.866)"/>
        <g style="fill:#fff5ee;stroke:none">
            <path d="M422.857 623.79c-54.72 69.401-157.207-63.642-242.269-39.66C95.527 608.113 77.63 775.098-5.282 744.503c-82.913-30.596 11.948-169.18-37.147-242.667-49.094-73.487-213.437-38.907-209.96-127.216 3.476-88.31 164.592-40.916 219.311-110.316C21.642 194.904-62.03 49.29 23.03 25.308 108.092 1.325 112.805 169.2 195.718 199.796c82.913 30.595 195.543-93.98 244.637-20.492C489.45 252.79 331.248 309.15 327.771 397.459c-3.476 88.31 149.806 156.931 95.086 226.332z" style="fill:#fff5ee;fill-opacity:.969163;fill-rule:evenodd;stroke:none" transform="rotate(15.519 6.815 88.828)scale(.05568)"/>
            <path d="M231.143 320.22S194 28.79 342.57 285.933z" style="opacity:.752101;fill:url(#c);fill-opacity:1;stroke:none" transform="rotate(15.508 36.688 47.164)scale(.05567)"/>
            <path d="M114.248 558.033s-285.98-67.276 6.911-116.379z" style="opacity:.752101;fill:url(#d);fill-opacity:1;stroke:none" transform="rotate(15.508 36.688 47.164)scale(.05567)"/>
        </g>
    </g>
    <path fill="#013397" d="M67.614 63.864q-7.603 0-10.534 1.734-2.932 1.735-2.932 5.918 0 3.334 2.182 5.306 2.216 1.94 6 1.94 5.216 0 8.351-3.674 3.171-3.707 3.171-9.83v-1.394zm12.511-2.585v21.734h-6.273v-5.782Q71.705 80.7 68.5 82.367 65.296 84 60.66 84q-5.865 0-9.342-3.266-3.443-3.3-3.443-8.81 0-6.428 4.295-9.693 4.33-3.265 12.887-3.265h8.795v-.613q0-4.32-2.863-6.666-2.83-2.381-7.977-2.381-3.274 0-6.376.782-3.102.783-5.966 2.347v-5.782q3.444-1.327 6.682-1.973Q60.591 44 63.66 44q8.284 0 12.375 4.285 4.091 4.286 4.091 12.994z"/>
</svg>
