<svg xmlns="http://www.w3.org/2000/svg" width="128" height="128">
    <g transform="matrix(2.66661 0 0 2.6877 -.237 -.614)">
        <ellipse cx="8.154" cy="7.959" rx="7.073" ry="7.14" style="fill:#0038d4;fill-opacity:1;fill-rule:evenodd;stroke:none" transform="matrix(3.26975 .9073 -.89083 3.2104 4.556 -8.866)"/>
        <g style="fill:#fff5ee;stroke:none">
            <path d="M422.857 623.79c-54.72 69.401-157.207-63.642-242.269-39.66C95.527 608.113 77.63 775.098-5.282 744.503c-82.913-30.596 11.948-169.18-37.147-242.667-49.094-73.487-213.437-38.907-209.96-127.216 3.476-88.31 164.592-40.916 219.311-110.316C21.642 194.904-62.03 49.29 23.03 25.308 108.092 1.325 112.805 169.2 195.718 199.796c82.913 30.595 195.543-93.98 244.637-20.492C489.45 252.79 331.248 309.15 327.771 397.459c-3.476 88.31 149.806 156.931 95.086 226.332z" style="fill:#fff5ee;fill-opacity:.969163;fill-rule:evenodd;stroke:none" transform="rotate(15.519 6.815 88.828)scale(.05568)"/>
            <path d="M231.143 320.22S194 28.79 342.57 285.933z" style="opacity:.752101;fill:url(#c);fill-opacity:1;stroke:none" transform="rotate(15.508 36.688 47.164)scale(.05567)"/>
            <path d="M114.248 558.033s-285.98-67.276 6.911-116.379z" style="opacity:.752101;fill:url(#d);fill-opacity:1;stroke:none" transform="rotate(15.508 36.688 47.164)scale(.05567)"/>
        </g>
    </g>
    <path fill="#013397" d="M76.517 46.04v5.92q-2.653-1.36-5.51-2.041-2.857-.68-5.919-.68-4.66 0-7.007 1.427-2.313 1.43-2.313 4.286 0 2.177 1.667 3.435 1.667 1.225 6.7 2.347l2.144.477q6.667 1.428 9.456 4.047 2.823 2.586 2.823 7.246 0 5.306-4.218 8.4Q70.156 84 62.81 84q-3.062 0-6.395-.612-3.3-.577-6.974-1.768v-6.461q3.47 1.802 6.838 2.72 3.367.885 6.666.885 4.422 0 6.803-1.496 2.381-1.531 2.381-4.286 0-2.551-1.734-3.912-1.7-1.36-7.518-2.62l-2.177-.51q-5.816-1.224-8.401-3.74-2.586-2.552-2.586-6.974 0-5.373 3.81-8.3 3.81-2.924 10.817-2.924 3.47 0 6.53.51 3.062.51 5.647 1.53z"/>
</svg>
