<svg xmlns="http://www.w3.org/2000/svg" width="128" height="128"><path d="M126.628 1020.452a62.527 62.487 0 0 1-125.055 0 62.527 62.487 0 1 1 125.055 0z" style="fill:#ed969e;fill-opacity:1;fill-rule:nonzero;stroke:#e25563;stroke-width:2.69678;stroke-linecap:butt;stroke-linejoin:round;stroke-miterlimit:4;stroke-dasharray:none;stroke-dashoffset:0;stroke-opacity:1" transform="translate(0 -956.362)"/><g><path d="m-84.493 115.978-51.8-52.2c-1.5-1.6-3.6-2.4-5.7-2.4h-28.9c-4.4 0-8 3.6-8 8v28.7c0 2.1.8 4.1 2.3 5.6l52 52c1.6 1.6 3.6 2.3 5.7 2.3 2 0 4.1-.8 5.6-2.3l28.7-28.5c3.2-3 3.2-8.1.1-11.2zm-2.9 8.4-28.7 28.5c-.8.8-1.8 1.2-2.8 1.2-1.1 0-2.1-.4-2.8-1.2l-52-52c-.8-.7-1.2-1.7-1.2-2.8v-28.7c0-2.2 1.8-4 4-4h28.9c1.1 0 2.1.4 2.9 1.2l51.8 52.2c1.5 1.6 1.5 4.1-.1 5.6z" style="fill:none;stroke:#000;stroke-width:4.77918;stroke-dasharray:none;stroke-opacity:1" transform="translate(172.01 -26.193)scale(.83696)"/><circle cx="44.771" cy="47.033" r="7.407" style="fill:none;stroke:#000;stroke-width:4;stroke-linecap:square;stroke-linejoin:round;stroke-dasharray:none;stroke-opacity:1"/></g></svg>