<svg xmlns="http://www.w3.org/2000/svg" width="128" height="128">
    <path d="M126.628 1020.452a62.527 62.487 0 0 1-125.055 0 62.527 62.487 0 1 1 125.055 0z" style="fill:#ed969e;fill-opacity:1;fill-rule:nonzero;stroke:#e25563;stroke-width:2.69678;stroke-linecap:butt;stroke-linejoin:round;stroke-miterlimit:4;stroke-dasharray:none;stroke-dashoffset:0;stroke-opacity:1" transform="translate(0 -956.362)"/>
    <path fill="none" d="M23.228 40.902h58.17v58.17h-58.17Z" style="stroke-width:1.21188"/>
    <path d="m106.825 61.517-14.012-14.19a3.725 3.725 0 0 0-4.789-.355 3.37 3.37 0 0 0-.355 5.322l8.16 8.159h-41.15a3.547 3.547 0 0 0 0 7.094h41.15l-8.16 8.16a3.37 3.37 0 0 0 .355 5.32 3.725 3.725 0 0 0 4.789-.354l14.012-14.19a3.37 3.37 0 0 0 0-4.966z" style="stroke-width:1.77371" transform="translate(-10.968)"/>
    <path d="M82.857 92.113H76.61a28.113 28.113 0 0 1 0-56.226h6.247a3.124 3.124 0 0 0 2.187-.937 3.124 3.124 0 0 0 .937-2.187 3.748 3.748 0 0 0-.312-1.406 3.124 3.124 0 0 0-2.812-1.718h-6.56a34.36 34.36 0 0 0 .157 68.722h6.403a3.124 3.124 0 0 0 2.187-.937l.625-.781a3.748 3.748 0 0 0 .312-1.406 3.124 3.124 0 0 0-3.124-3.124z" style="stroke-width:1.56185" transform="translate(-10.968)"/>
</svg>
