<svg xmlns="http://www.w3.org/2000/svg" width="128" height="128">
    <path d="M126.474 1020.348a62.452 62.498 0 0 1-124.903 0 62.452 62.498 0 1 1 124.903 0z" style="fill:orange;fill-opacity:1;fill-rule:nonzero;stroke:#ff8c00;stroke-width:2.69538;stroke-linecap:butt;stroke-linejoin:round;stroke-miterlimit:4;stroke-dasharray:none;stroke-dashoffset:0;stroke-opacity:1" transform="translate(0 -956.362)"/>
    <path d="M38.786 63.82V49.84q5.364-9.5 12.768-9.5 6.652 0 13.519 5.377 6.867 5.198 11.803 5.198 2.79 0 6.008-2.688 3.327-2.868 6.33-7.887v13.802q-5.257 9.679-12.875 9.679-6.545 0-13.52-5.377-6.867-5.199-11.909-5.199-2.575 0-5.795 2.689-3.218 2.688-6.33 7.887zm0 23.84V74.934h50.43v12.728z"/>
</svg>
