<svg xmlns="http://www.w3.org/2000/svg" width="128" height="128">
    <path d="M126.474 1020.348a62.452 62.498 0 0 1-124.903 0 62.452 62.498 0 1 1 124.903 0z" style="fill:orange;fill-opacity:1;fill-rule:nonzero;stroke:#ff8c00;stroke-width:2.69538;stroke-linecap:butt;stroke-linejoin:round;stroke-miterlimit:4;stroke-dasharray:none;stroke-dashoffset:0;stroke-opacity:1" transform="translate(0 -956.362)"/>
    <path fill="none" d="M24.997 24.184h80.687v80.156H24.997z" style="stroke:#000;stroke-width:15;stroke-linecap:round;stroke-linejoin:round;stroke-dasharray:none;stroke-opacity:1"/>
    <path d="M58.552 58.042v39.01h39.71v-39.01zm20.32 7.691c2.559 0 4.443.196 5.655.586 1.225.39 2.243.995 3.05 1.817.822.82 1.501 1.932 2.04 3.332l-7.795.767c-.202-.686-.539-1.19-1.01-1.513-.646-.431-1.426-.647-2.342-.647-.929 0-1.61.167-2.04.504-.418.323-.626.72-.626 1.191 0 .525.268.923.807 1.192.538.269 1.712.51 3.516.726 2.732.31 4.764.741 6.097 1.293 1.333.552 2.349 1.34 3.049 2.364a5.765 5.765 0 0 1 1.07 3.37c0 1.24-.377 2.445-1.13 3.616-.741 1.171-1.918 2.106-3.534 2.807-1.602.686-3.789 1.03-6.562 1.03-3.918 0-6.712-.558-8.381-1.675-1.656-1.117-2.72-2.708-3.191-4.768l8.158-.765c.336.97.808 1.66 1.414 2.078.606.417 1.414.627 2.424.627 1.104 0 1.958-.236 2.564-.707.471-.35.707-.788.707-1.313 0-.592-.31-1.05-.93-1.373-.444-.229-1.621-.51-3.533-.847-2.854-.498-4.84-.956-5.957-1.373-1.104-.431-2.041-1.153-2.808-2.163-.754-1.01-1.131-2.16-1.131-3.453 0-1.413.41-2.63 1.232-3.654.821-1.023 1.952-1.783 3.393-2.281 1.44-.512 3.371-.768 5.795-.768z"/>
</svg>
