<svg xmlns="http://www.w3.org/2000/svg" width="128" height="128"><path d="M126.474 1020.348a62.452 62.498 0 0 1-124.903 0 62.452 62.498 0 1 1 124.903 0z" style="fill:orange;fill-opacity:1;fill-rule:nonzero;stroke:#ff8c00;stroke-width:2.69538;stroke-linecap:butt;stroke-linejoin:round;stroke-miterlimit:4;stroke-dasharray:none;stroke-dashoffset:0;stroke-opacity:1" transform="translate(0 -956.362)"/><text xml:space="preserve" x="64.352" y="87.259" style="font-style:normal;font-weight:400;line-height:0%;font-family:sans-serif;letter-spacing:0;word-spacing:0;fill:#000;fill-opacity:1;stroke:none" transform="translate(-.815 -.11)">
        <tspan x="64.352" y="87.259" style="font-size:40px;line-height:1.25;font-family:sans-serif">s</tspan>
      </text><path d="M36.346 23.142c-6.925 0-12.5 5.575-12.5 12.5V92.58c0 6.925 5.575 12.5 12.5 12.5h56.938c6.925 0 12.5-5.575 12.5-12.5V35.642c0-6.925-5.575-12.5-12.5-12.5zm22.72 28.25h31.843c3.873 0 7 3.095 7 6.969v31.844c0 3.873-3.127 7-7 7H59.065a6.99 6.99 0 0 1-7-7V58.36c0-3.873 3.127-6.969 7-6.969z" style="fill:#000;fill-opacity:1;fill-rule:evenodd;stroke:none" transform="translate(-.815 -.11)"/></svg>