<svg xmlns="http://www.w3.org/2000/svg" xmlns:xlink="http://www.w3.org/1999/xlink" width="128" height="128"><path d="M126.628 1020.452a62.527 62.487 0 0 1-125.055 0 62.527 62.487 0 1 1 125.055 0z" style="fill:#ed969e;fill-opacity:1;fill-rule:nonzero;stroke:#e25563;stroke-width:2.69678;stroke-linecap:butt;stroke-linejoin:round;stroke-miterlimit:4;stroke-dasharray:none;stroke-dashoffset:0;stroke-opacity:1" transform="translate(0 -956.362)"/><g><defs><linearGradient id="a" gradientTransform="matrix(0 0 0 0 218086290000 623033510000)"><stop offset="0" style="stop-color:#666;stop-opacity:1"/></linearGradient></defs><use xlink:href="#g5796" width="1250" height="1250" transform="matrix(.9964 0 0 .99792 -3028.061 -304.654)"/><use xlink:href="#g5796" width="1250" height="1250" transform="matrix(.98862 0 0 .99792 -3027.467 -284.091)"/><use xlink:href="#rect4442" width="1250" height="1250" transform="translate(-2865.633 70.77)"/><use xlink:href="#g5772" width="1250" height="1250" transform="matrix(.69291 0 0 .70953 -3182.42 -229.072)"/><use xlink:href="#g5772" width="1250" height="1250" transform="matrix(.69583 0 0 .74192 -3198.425 -234.486)"/><use xlink:href="#g5772" width="1250" height="1250" transform="matrix(.69583 0 0 .74192 -3154.425 -236.986)"/><use xlink:href="#g5772" width="1250" height="1250" transform="matrix(.62898 0 0 1.16243 -3079.666 -339.208)"/><use xlink:href="#rect10675" width="1250" height="1250" transform="translate(-2326.596 -210.394)"/><use xlink:href="#use5758" width="1250" height="1250" transform="translate(-2325.63 -193.672)"/><use xlink:href="#g6043" width="1250" height="1250" transform="translate(-2329.644 -269.75)"/><use xlink:href="#rect10675" width="1250" height="1250" transform="translate(-2284.612 -209.448)"/><use xlink:href="#rect10675" width="1250" height="1250" transform="translate(-2296.612 -197.448)"/><use xlink:href="#g6043" width="1250" height="1250" transform="translate(-2310.596 -275.791)"/><use xlink:href="#rect10675" width="1250" height="1250" transform="translate(-2265.564 -215.49)"/><use xlink:href="#rect10675" width="1250" height="1250" transform="translate(-2277.564 -203.49)"/><use xlink:href="#use5756-0-3" width="1250" height="1250" style="stroke:url(#a);stroke-opacity:1" transform="matrix(1.13774 0 0 1.13997 -2517.928 -205.84)"/><use xlink:href="#use5756-0-3" width="1250" height="1250" style="stroke:url(#a);stroke-opacity:1" transform="matrix(1.13774 0 0 1.13997 -2522.928 -198.612)"/><use xlink:href="#use5756-0-3" width="1250" height="1250" style="stroke:url(#a);stroke-opacity:1" transform="matrix(1.13774 0 0 1.13997 -2510.336 -194.961)"/><use xlink:href="#g5796" width="1250" height="1250" transform="matrix(.9964 0 0 .99792 -3206.081 -241.347)"/><use xlink:href="#g5796" width="1250" height="1250" transform="matrix(.98862 0 0 .99792 -3205.487 -220.785)"/><use xlink:href="#rect4442" width="1250" height="1250" transform="translate(-3043.653 134.076)"/><use xlink:href="#g5772" width="1250" height="1250" transform="matrix(.69291 0 0 .70953 -3360.44 -165.766)"/><use xlink:href="#g5772" width="1250" height="1250" transform="matrix(.69583 0 0 .74192 -3376.445 -171.18)"/><use xlink:href="#g5772" width="1250" height="1250" transform="matrix(.69583 0 0 .74192 -3332.445 -173.68)"/><use xlink:href="#g5772" width="1250" height="1250" transform="matrix(.62898 0 0 1.16243 -3257.686 -275.901)"/><use xlink:href="#rect10675" width="1250" height="1250" transform="translate(-2504.616 -147.088)"/><use xlink:href="#use5758" width="1250" height="1250" transform="translate(-2503.65 -130.365)"/><use xlink:href="#g6043" width="1250" height="1250" transform="translate(-2507.664 -206.443)"/><use xlink:href="#rect10675" width="1250" height="1250" transform="translate(-2462.632 -146.141)"/><use xlink:href="#rect10675" width="1250" height="1250" transform="translate(-2474.632 -134.141)"/><use xlink:href="#g6043" width="1250" height="1250" transform="translate(-2488.616 -212.485)"/><use xlink:href="#rect10675" width="1250" height="1250" transform="translate(-2443.584 -152.183)"/><use xlink:href="#rect10675" width="1250" height="1250" transform="translate(-2455.584 -140.183)"/><use xlink:href="#use5756-0-3" width="1250" height="1250" style="stroke:url(#a);stroke-opacity:1" transform="matrix(1.13774 0 0 1.13997 -2695.948 -142.534)"/><use xlink:href="#use5756-0-3" width="1250" height="1250" style="stroke:url(#a);stroke-opacity:1" transform="matrix(1.13774 0 0 1.13997 -2700.948 -135.305)"/><use xlink:href="#use5756-0-3" width="1250" height="1250" style="stroke:url(#a);stroke-opacity:1" transform="matrix(1.13774 0 0 1.13997 -2688.356 -131.655)"/><path d="m67.47 62.09-33.91-7.62L8.057 78.082l-3.23-34.606-30.338-16.958L6.403 12.753l6.753-34.093L36.109 4.758 70.621.645 52.893 30.539Z" style="fill:#000;stroke:#000" transform="matrix(.92726 0 0 .92308 43.17 37.828)"/></g></svg>