<svg xmlns="http://www.w3.org/2000/svg" xmlns:xlink="http://www.w3.org/1999/xlink" width="128" height="128"><path d="M126.628 1020.452a62.527 62.487 0 0 1-125.055 0 62.527 62.487 0 1 1 125.055 0z" style="fill:#ed969e;fill-opacity:1;fill-rule:nonzero;stroke:#e25563;stroke-width:2.69678;stroke-linecap:butt;stroke-linejoin:round;stroke-miterlimit:4;stroke-dasharray:none;stroke-dashoffset:0;stroke-opacity:1" transform="translate(0 -956.362)"/><defs><linearGradient id="a" gradientTransform="matrix(0 0 0 0 218086310000 623033510000)"><stop offset="0" style="stop-color:#666;stop-opacity:1"/></linearGradient></defs><use xlink:href="#g5796" width="1250" height="1250" transform="matrix(.9964 0 0 .99792 -1246.53 -889.596)"/><use xlink:href="#g5796" width="1250" height="1250" transform="matrix(.98862 0 0 .99792 -1245.935 -869.033)"/><use xlink:href="#rect4442" width="1250" height="1250" transform="translate(-1084.102 -514.172)"/><use xlink:href="#g5772" width="1250" height="1250" transform="matrix(.69291 0 0 .70953 -1400.888 -814.014)"/><use xlink:href="#g5772" width="1250" height="1250" transform="matrix(.69583 0 0 .74192 -1416.894 -819.428)"/><use xlink:href="#g5772" width="1250" height="1250" transform="matrix(.69583 0 0 .74192 -1372.894 -821.928)"/><use xlink:href="#g5772" width="1250" height="1250" transform="matrix(.62898 0 0 1.16243 -1298.135 -924.15)"/><use xlink:href="#rect10675" width="1250" height="1250" transform="translate(-545.064 -795.336)"/><use xlink:href="#use5758" width="1250" height="1250" transform="translate(-544.098 -778.614)"/><use xlink:href="#g6043" width="1250" height="1250" transform="translate(-548.113 -854.691)"/><use xlink:href="#rect10675" width="1250" height="1250" transform="translate(-503.081 -794.39)"/><use xlink:href="#rect10675" width="1250" height="1250" transform="translate(-515.081 -782.39)"/><use xlink:href="#g6043" width="1250" height="1250" transform="translate(-529.064 -860.734)"/><use xlink:href="#rect10675" width="1250" height="1250" transform="translate(-484.033 -800.432)"/><use xlink:href="#rect10675" width="1250" height="1250" transform="translate(-496.033 -788.432)"/><use xlink:href="#use5756-0-3" width="1250" height="1250" style="stroke:url(#a);stroke-opacity:1" transform="matrix(1.13774 0 0 1.13997 -736.397 -790.782)"/><use xlink:href="#use5756-0-3" width="1250" height="1250" style="stroke:url(#a);stroke-opacity:1" transform="matrix(1.13774 0 0 1.13997 -741.397 -783.554)"/><use xlink:href="#use5756-0-3" width="1250" height="1250" style="stroke:url(#a);stroke-opacity:1" transform="matrix(1.13774 0 0 1.13997 -728.804 -779.904)"/><use xlink:href="#g5796" width="1250" height="1250" transform="matrix(.9964 0 0 .99792 -1424.55 -826.29)"/><use xlink:href="#g5796" width="1250" height="1250" transform="matrix(.98862 0 0 .99792 -1423.955 -805.727)"/><use xlink:href="#rect4442" width="1250" height="1250" transform="translate(-1262.122 -450.866)"/><use xlink:href="#g5772" width="1250" height="1250" transform="matrix(.69291 0 0 .70953 -1578.908 -750.708)"/><use xlink:href="#g5772" width="1250" height="1250" transform="matrix(.69583 0 0 .74192 -1594.914 -756.122)"/><use xlink:href="#g5772" width="1250" height="1250" transform="matrix(.69583 0 0 .74192 -1550.914 -758.622)"/><use xlink:href="#g5772" width="1250" height="1250" transform="matrix(.62898 0 0 1.16243 -1476.155 -860.843)"/><use xlink:href="#rect10675" width="1250" height="1250" transform="translate(-723.084 -732.03)"/><use xlink:href="#use5758" width="1250" height="1250" transform="translate(-722.118 -715.307)"/><use xlink:href="#g6043" width="1250" height="1250" transform="translate(-726.133 -791.385)"/><use xlink:href="#rect10675" width="1250" height="1250" transform="translate(-681.101 -731.083)"/><use xlink:href="#rect10675" width="1250" height="1250" transform="translate(-693.101 -719.083)"/><use xlink:href="#g6043" width="1250" height="1250" transform="translate(-707.084 -797.427)"/><use xlink:href="#rect10675" width="1250" height="1250" transform="translate(-662.053 -737.126)"/><use xlink:href="#rect10675" width="1250" height="1250" transform="translate(-674.053 -725.126)"/><use xlink:href="#use5756-0-3" width="1250" height="1250" style="stroke:url(#a);stroke-opacity:1" transform="matrix(1.13774 0 0 1.13997 -914.417 -727.476)"/><use xlink:href="#use5756-0-3" width="1250" height="1250" style="stroke:url(#a);stroke-opacity:1" transform="matrix(1.13774 0 0 1.13997 -919.417 -720.247)"/><use xlink:href="#use5756-0-3" width="1250" height="1250" style="stroke:url(#a);stroke-opacity:1" transform="matrix(1.13774 0 0 1.13997 -906.824 -716.597)"/><use xlink:href="#g5796" width="1250" height="1250" transform="matrix(.9964 0 0 .99792 -843.068 -927.762)"/><use xlink:href="#g5796" width="1250" height="1250" transform="matrix(.98862 0 0 .99792 -842.474 -907.2)"/><use xlink:href="#rect4442" width="1250" height="1250" transform="translate(-680.64 -552.338)"/><use xlink:href="#g5772" width="1250" height="1250" transform="matrix(.69291 0 0 .70953 -997.427 -852.18)"/><use xlink:href="#g5772" width="1250" height="1250" transform="matrix(.69583 0 0 .74192 -1013.433 -857.594)"/><use xlink:href="#g5772" width="1250" height="1250" transform="matrix(.69583 0 0 .74192 -969.433 -860.094)"/><use xlink:href="#g5772" width="1250" height="1250" transform="matrix(.62898 0 0 1.16243 -894.673 -962.316)"/><use xlink:href="#rect10675" width="1250" height="1250" transform="translate(-141.603 -833.503)"/><use xlink:href="#use5758" width="1250" height="1250" transform="translate(-140.636 -816.78)"/><use xlink:href="#g6043" width="1250" height="1250" transform="translate(-144.651 -892.858)"/><use xlink:href="#rect10675" width="1250" height="1250" transform="translate(-99.62 -832.556)"/><use xlink:href="#rect10675" width="1250" height="1250" transform="translate(-111.62 -820.556)"/><use xlink:href="#g6043" width="1250" height="1250" transform="translate(-125.603 -898.9)"/><use xlink:href="#rect10675" width="1250" height="1250" transform="translate(-80.571 -838.598)"/><use xlink:href="#rect10675" width="1250" height="1250" transform="translate(-92.571 -826.598)"/><use xlink:href="#use5756-0-3" width="1250" height="1250" style="stroke:url(#a);stroke-opacity:1" transform="matrix(1.13774 0 0 1.13997 -332.936 -828.949)"/><use xlink:href="#use5756-0-3" width="1250" height="1250" style="stroke:url(#a);stroke-opacity:1" transform="matrix(1.13774 0 0 1.13997 -337.935 -821.72)"/><use xlink:href="#use5756-0-3" width="1250" height="1250" style="stroke:url(#a);stroke-opacity:1" transform="matrix(1.13774 0 0 1.13997 -325.343 -818.07)"/><use xlink:href="#g5796" width="1250" height="1250" transform="matrix(.9964 0 0 .99792 -1021.088 -864.456)"/><use xlink:href="#g5796" width="1250" height="1250" transform="matrix(.98862 0 0 .99792 -1020.494 -843.893)"/><use xlink:href="#rect4442" width="1250" height="1250" transform="translate(-858.66 -489.032)"/><use xlink:href="#g5772" width="1250" height="1250" transform="matrix(.69291 0 0 .70953 -1175.447 -788.874)"/><use xlink:href="#g5772" width="1250" height="1250" transform="matrix(.69583 0 0 .74192 -1191.453 -794.288)"/><use xlink:href="#g5772" width="1250" height="1250" transform="matrix(.69583 0 0 .74192 -1147.453 -796.788)"/><use xlink:href="#g5772" width="1250" height="1250" transform="matrix(.62898 0 0 1.16243 -1072.693 -899.01)"/><use xlink:href="#rect10675" width="1250" height="1250" transform="translate(-319.623 -770.196)"/><use xlink:href="#use5758" width="1250" height="1250" transform="translate(-318.656 -753.474)"/><use xlink:href="#g6043" width="1250" height="1250" transform="translate(-322.671 -829.552)"/><use xlink:href="#rect10675" width="1250" height="1250" transform="translate(-277.64 -769.25)"/><use xlink:href="#rect10675" width="1250" height="1250" transform="translate(-289.64 -757.25)"/><use xlink:href="#g6043" width="1250" height="1250" transform="translate(-303.623 -835.594)"/><use xlink:href="#rect10675" width="1250" height="1250" transform="translate(-258.591 -775.292)"/><use xlink:href="#rect10675" width="1250" height="1250" transform="translate(-270.591 -763.292)"/><use xlink:href="#use5756-0-3" width="1250" height="1250" style="stroke:url(#a);stroke-opacity:1" transform="matrix(1.13774 0 0 1.13997 -510.956 -765.642)"/><use xlink:href="#use5756-0-3" width="1250" height="1250" style="stroke:url(#a);stroke-opacity:1" transform="matrix(1.13774 0 0 1.13997 -515.955 -758.414)"/><use xlink:href="#use5756-0-3" width="1250" height="1250" style="stroke:url(#a);stroke-opacity:1" transform="matrix(1.13774 0 0 1.13997 -503.363 -754.764)"/><path fill="none" d="M426.69 2.736h58.17v58.17h-58.17z" style="stroke-width:1.21188"/><path d="M81.967 31.935a5.134 5.134 0 0 0 6.922 2.127l14.281-7.568c2.489-1.319 3.446-4.434 2.127-6.923l-.15-.282a5.136 5.136 0 0 0-6.922-2.127L83.944 24.73c-2.489 1.319-3.446 4.434-2.127 6.922zM28.212 61.148c.04.076.085.153.132.231a14.945 14.945 0 0 0 13.108 7.734c2.425 0 4.845-.604 7-1.746 10.502-5.566 21.826-23.21 24.05-26.791l10.587-5.61a9.607 9.607 0 0 1-1.396-1.976l-.15-.284a9.602 9.602 0 0 1-.856-2.263l-10.584 5.609c-.94-.037-2.746-.092-5.115-.092-9.68 0-22.84.858-30.558 4.948-7.291 3.865-10.082 12.937-6.223 20.23l.005.01zm17.842 1.695a9.732 9.732 0 0 1-4.602 1.15 9.867 9.867 0 0 1-4.298-.988c2.291-.577 4.846-1.583 7.423-2.949 4.43-2.347 9.649-5.842 14.36-9.224-3.94 4.872-8.58 9.73-12.883 12.01zm-3.875-7.311c-3.958 2.097-7.153 2.875-8.877 2.91.944-1.307 3.376-3.565 7.4-5.698 4.516-2.392 10.711-4.846 16.356-6.882-4.852 3.527-10.362 7.276-14.879 9.67zm-5.351-10.098c4.309-2.284 10.95-3.395 17.178-3.919-5.445 2-11.27 4.357-15.701 6.705-2.337 1.238-4.702 2.784-6.603 4.465a9.842 9.842 0 0 1 5.126-7.251z" style="fill:#000;stroke-width:.3194" transform="translate(7.214 9.053)scale(.88078)"/><path d="M106.247 73.345H21.753a3.2 3.2 0 0 0-3.2 3.2c0 8.699 4.96 17.549 13.608 24.28 8.787 6.84 20.094 10.606 31.839 10.606 11.745 0 23.052-3.766 31.839-10.606 8.648-6.731 13.608-15.581 13.608-24.28a3.2 3.2 0 0 0-3.2-3.2Z" style="fill:#000;stroke-width:.3194" transform="translate(7.63 6.207)scale(.88078)"/></svg>