<svg xmlns="http://www.w3.org/2000/svg" xmlns:xlink="http://www.w3.org/1999/xlink" width="128" height="128"><path d="M126.628 1020.452a62.527 62.487 0 0 1-125.055 0 62.527 62.487 0 1 1 125.055 0z" style="fill:#ed969e;fill-opacity:1;fill-rule:nonzero;stroke:#e25563;stroke-width:2.69678;stroke-linecap:butt;stroke-linejoin:round;stroke-miterlimit:4;stroke-dasharray:none;stroke-dashoffset:0;stroke-opacity:1" transform="translate(0 -956.362)"/><g><defs><linearGradient id="a" gradientTransform="matrix(0 0 0 0 7149937600 20426092000)"><stop offset="0" style="stop-color:#666;stop-opacity:1"/></linearGradient></defs><use xlink:href="#g5796" width="1250" height="1250" transform="matrix(.9964 0 0 .99792 -1246.53 -889.596)"/><use xlink:href="#g5796" width="1250" height="1250" transform="matrix(.98862 0 0 .99792 -1245.935 -869.033)"/><use xlink:href="#rect4442" width="1250" height="1250" transform="translate(-1084.102 -514.172)"/><use xlink:href="#g5772" width="1250" height="1250" transform="matrix(.69291 0 0 .70953 -1400.888 -814.014)"/><use xlink:href="#g5772" width="1250" height="1250" transform="matrix(.69583 0 0 .74192 -1416.894 -819.428)"/><use xlink:href="#g5772" width="1250" height="1250" transform="matrix(.69583 0 0 .74192 -1372.894 -821.928)"/><use xlink:href="#g5772" width="1250" height="1250" transform="matrix(.62898 0 0 1.16243 -1298.135 -924.15)"/><use xlink:href="#rect10675" width="1250" height="1250" transform="translate(-545.064 -795.336)"/><use xlink:href="#use5758" width="1250" height="1250" transform="translate(-544.098 -778.614)"/><use xlink:href="#g6043" width="1250" height="1250" transform="translate(-548.113 -854.691)"/><use xlink:href="#rect10675" width="1250" height="1250" transform="translate(-503.081 -794.39)"/><use xlink:href="#rect10675" width="1250" height="1250" transform="translate(-515.081 -782.39)"/><use xlink:href="#g6043" width="1250" height="1250" transform="translate(-529.064 -860.734)"/><use xlink:href="#rect10675" width="1250" height="1250" transform="translate(-484.033 -800.432)"/><use xlink:href="#rect10675" width="1250" height="1250" transform="translate(-496.033 -788.432)"/><use xlink:href="#use5756-0-3" width="1250" height="1250" style="stroke:url(#a);stroke-opacity:1" transform="matrix(1.13774 0 0 1.13997 -736.397 -790.782)"/><use xlink:href="#use5756-0-3" width="1250" height="1250" style="stroke:url(#a);stroke-opacity:1" transform="matrix(1.13774 0 0 1.13997 -741.397 -783.554)"/><use xlink:href="#use5756-0-3" width="1250" height="1250" style="stroke:url(#a);stroke-opacity:1" transform="matrix(1.13774 0 0 1.13997 -728.804 -779.904)"/><path fill="#050708" d="m34.63 54.34 6.4-19.198h46.928l6.4 19.198m-6.4 21.331a6.402 6.402 0 0 1-6.4-6.4 6.399 6.399 0 1 1 6.4 6.4zm-46.929 0a6.402 6.402 0 0 1-6.4-6.4 6.399 6.399 0 1 1 6.4 6.4zm52.983-42.615a6.403 6.403 0 0 0-6.054-4.314H41.03a6.397 6.397 0 0 0-6.05 4.314l-8.882 25.55v34.13a4.268 4.268 0 0 0 4.267 4.267h4.266a4.265 4.265 0 0 0 4.266-4.267V88.47h51.195v4.266a4.268 4.268 0 0 0 4.267 4.267h4.266a4.265 4.265 0 0 0 4.266-4.267v-34.13Z" style="fill:#000"/><use xlink:href="#g5796" width="1250" height="1250" transform="matrix(.9964 0 0 .99792 -1424.55 -826.29)"/><use xlink:href="#g5796" width="1250" height="1250" transform="matrix(.98862 0 0 .99792 -1423.955 -805.727)"/><use xlink:href="#rect4442" width="1250" height="1250" transform="translate(-1262.122 -450.866)"/><use xlink:href="#g5772" width="1250" height="1250" transform="matrix(.69291 0 0 .70953 -1578.908 -750.708)"/><use xlink:href="#g5772" width="1250" height="1250" transform="matrix(.69583 0 0 .74192 -1594.914 -756.122)"/><use xlink:href="#g5772" width="1250" height="1250" transform="matrix(.69583 0 0 .74192 -1550.914 -758.622)"/><use xlink:href="#g5772" width="1250" height="1250" transform="matrix(.62898 0 0 1.16243 -1476.155 -860.843)"/><use xlink:href="#rect10675" width="1250" height="1250" transform="translate(-723.084 -732.03)"/><use xlink:href="#use5758" width="1250" height="1250" transform="translate(-722.118 -715.307)"/><use xlink:href="#g6043" width="1250" height="1250" transform="translate(-726.133 -791.385)"/><use xlink:href="#rect10675" width="1250" height="1250" transform="translate(-681.101 -731.083)"/><use xlink:href="#rect10675" width="1250" height="1250" transform="translate(-693.101 -719.083)"/><use xlink:href="#g6043" width="1250" height="1250" transform="translate(-707.084 -797.427)"/><use xlink:href="#rect10675" width="1250" height="1250" transform="translate(-662.053 -737.126)"/><use xlink:href="#rect10675" width="1250" height="1250" transform="translate(-674.053 -725.126)"/><use xlink:href="#use5756-0-3" width="1250" height="1250" style="stroke:url(#a);stroke-opacity:1" transform="matrix(1.13774 0 0 1.13997 -914.417 -727.476)"/><use xlink:href="#use5756-0-3" width="1250" height="1250" style="stroke:url(#a);stroke-opacity:1" transform="matrix(1.13774 0 0 1.13997 -919.417 -720.247)"/><use xlink:href="#use5756-0-3" width="1250" height="1250" style="stroke:url(#a);stroke-opacity:1" transform="matrix(1.13774 0 0 1.13997 -906.824 -716.597)"/></g></svg>