<svg xmlns="http://www.w3.org/2000/svg" xml:space="preserve" style="enable-background:new 0 0 96 96" viewBox="0 0 96 96"><text xml:space="preserve" x="28.547" y="49.051" style="font-style:normal;font-variant:normal;font-weight:400;font-stretch:normal;font-size:58.20377731px;line-height:100%;font-family:&quot;Arial Black&quot;;-inkscape-font-specification:&quot;Arial Black, Normal&quot;;font-variant-ligatures:normal;font-variant-caps:normal;font-variant-numeric:normal;font-feature-settings:normal;text-align:start;letter-spacing:0;word-spacing:0;writing-mode:lr-tb;text-anchor:start;fill:#a9a9a9;fill-opacity:1;stroke:none;stroke-width:.74175173px;stroke-linecap:butt;stroke-linejoin:miter;stroke-opacity:1"><tspan x="28.547" y="49.051" style="stroke-width:.74175173px">a</tspan></text><path d="M24.137 65.254c-5.523 0-10 4.477-10 10s4.477 10 10 10c5.522 0 10-4.477 10-10s-4.478-10-10-10zM52.137 83.254a8 8 0 1 1 0-16 8 8 0 0 1 0 16zm0-18c-5.523 0-10 4.477-10 10s4.477 10 10 10 10-4.477 10-10-4.477-10-10-10zM80.137 65.254c-5.523 0-10 4.477-10 10s4.477 10 10 10c5.522 0 10-4.477 10-10s-4.478-10-10-10z" style="fill:#a9a9a9;fill-opacity:1;stroke-width:.2;stroke-linejoin:round" transform="translate(-4.137)"/></svg>