<?xml version="1.0" encoding="UTF-8" standalone="no"?><!-- Generator: Adobe Illustrator 19.0.0, SVG Export Plug-In . SVG Version: 6.00 Build 0)  -->

<svg xmlns:dc="http://purl.org/dc/elements/1.1/" xmlns:cc="http://creativecommons.org/ns#" xmlns:rdf="http://www.w3.org/1999/02/22-rdf-syntax-ns#" xmlns:svg="http://www.w3.org/2000/svg" xmlns="http://www.w3.org/2000/svg"
	xmlns:sodipodi="http://sodipodi.sourceforge.net/DTD/sodipodi-0.dtd" xmlns:inkscape="http://www.inkscape.org/namespaces/inkscape" version="1.1" id="Layer_1" x="0px" y="0px" viewBox="0 0 96 96" style="enable-background:new 0 0 96 96;"
	xml:space="preserve" inkscape:version="0.92.3 (2405546, 2018-03-11)" sodipodi:docname="adjposition.svg"><metadata
     id="metadata11"><rdf:RDF><cc:Work
         rdf:about=""><dc:format>image/svg+xml</dc:format><dc:type rdf:resource="http://purl.org/dc/dcmitype/StillImage" /></cc:Work></rdf:RDF></metadata>
	<defs id="defs9" />
	<sodipodi:namedview pagecolor="#ffffff" bordercolor="#666666" borderopacity="1" objecttolerance="10" gridtolerance="10" guidetolerance="10" inkscape:pageopacity="0" inkscape:pageshadow="2" inkscape:window-width="1869" inkscape:window-height="1136"
		id="namedview7" showgrid="false" inkscape:zoom="2.4583333" inkscape:cx="-77.469623" inkscape:cy="71.389831" inkscape:window-x="51" inkscape:window-y="27" inkscape:window-maximized="1" inkscape:current-layer="Layer_1" />
	<style type="text/css" id="style3">
	.st0{fill:#333333;}
</style>
	<style id="style3-35" type="text/css">
	.st0{fill:#333333;}
</style>
	<style type="text/css" id="style3-3">
	.st0{fill:#333333;}
</style>
	<text xml:space="preserve"
		style="font-style:normal;font-variant:normal;font-weight:normal;font-stretch:normal;font-size:58.20377731px;line-height:100%;font-family:'Arial Black';-inkscape-font-specification:'Arial Black, Normal';font-variant-ligatures:normal;font-variant-caps:normal;font-variant-numeric:normal;font-feature-settings:normal;text-align:start;letter-spacing:0px;word-spacing:0px;writing-mode:lr-tb;text-anchor:start;fill:#a9a9a9;fill-opacity:1;stroke:none;stroke-width:0.74175173px;stroke-linecap:butt;stroke-linejoin:miter;stroke-opacity:1"
		x="28.546638" y="49.051033" id="text847"><tspan
       sodipodi:role="line"
       id="tspan845"
       x="28.546638"
       y="49.051033"
       style="stroke-width:0.74175173px">a</tspan></text>
	<g id="g6958" transform="translate(-4.137168)"><path
       id="path7347"
       d="m 24.137167,65.254247 c -5.523,0 -10,4.47698 -10,9.99998 0,5.523 4.477,10 10,10 5.522,0 10,-4.477 10,-10 0,-5.523 -4.478,-9.99998 -10,-9.99998 z"
       inkscape:connector-curvature="0"
       style="fill:#a9a9a9;fill-opacity:1;stroke-width:0.2;stroke-linejoin:round" />
		<path id="path7353"
			d="m 52.137169,83.254227 c -4.418,0 -8,-3.582 -8,-8 0,-4.418 3.582,-7.99998 8,-7.99998 4.418,0 8,3.58198 8,7.99998 0,4.418 -3.582,8 -8,8 z m 0,-17.99998 c -5.523,0 -10,4.47698 -10,9.99998 0,5.523 4.477,10 10,10 5.523,0 10,-4.477 10,-10 0,-5.523 -4.477,-9.99998 -10,-9.99998 z"
			inkscape:connector-curvature="0" style="fill:#a9a9a9;fill-opacity:1;stroke-width:0.2;stroke-linejoin:round" />
		<path style="fill:#a9a9a9;fill-opacity:1;stroke-width:0.2;stroke-linejoin:round" inkscape:connector-curvature="0"
			d="m 80.137169,65.254247 c -5.523,0 -10,4.47698 -10,9.99998 0,5.523 4.477,10 10,10 5.522,0 10,-4.477 10,-10 0,-5.523 -4.478,-9.99998 -10,-9.99998 z" id="path6953" /></g></svg>