<?xml version="1.0" encoding="UTF-8" standalone="no"?><!-- Created with Inkscape (http://www.inkscape.org/) -->

<svg xmlns:a="http://ns.adobe.com/AdobeSVGViewerExtensions/3.0/" xmlns:dc="http://purl.org/dc/elements/1.1/" xmlns:cc="http://creativecommons.org/ns#" xmlns:rdf="http://www.w3.org/1999/02/22-rdf-syntax-ns#" xmlns:svg="http://www.w3.org/2000/svg"
	xmlns="http://www.w3.org/2000/svg" xmlns:xlink="http://www.w3.org/1999/xlink" xmlns:sodipodi="http://sodipodi.sourceforge.net/DTD/sodipodi-0.dtd" xmlns:inkscape="http://www.inkscape.org/namespaces/inkscape" version="1.0" width="48pt" height="48pt"
	viewBox="0 0 256 256" id="svg3261" xml:space="preserve" inkscape:version="0.91 r13725" sodipodi:docname="members.svg" inkscape:export-filename="/home/bbou/Desktop/Documents/pixes/svg/asterisk.png" inkscape:export-xdpi="24" inkscape:export-ydpi="24"><metadata
     id="metadata454"><rdf:RDF><cc:Work
         rdf:about=""><dc:format>image/svg+xml</dc:format><dc:type rdf:resource="http://purl.org/dc/dcmitype/StillImage" /><dc:title /></cc:Work></rdf:RDF></metadata>
	<sodipodi:namedview pagecolor="#ffffff" bordercolor="#666666" borderopacity="1" objecttolerance="10" gridtolerance="10" guidetolerance="10" inkscape:pageopacity="0" inkscape:pageshadow="2" inkscape:window-width="1226" inkscape:window-height="650"
		id="namedview452" showgrid="false" inkscape:zoom="5.5625733" inkscape:cx="16.079225" inkscape:cy="30" inkscape:window-x="389" inkscape:window-y="287" inkscape:window-maximized="0" inkscape:current-layer="svg3261" />
	<defs id="defs3707"><inkscape:perspective
       sodipodi:type="inkscape:persp3d"
       inkscape:vp_x="0 : 30 : 1"
       inkscape:vp_y="0 : 1000 : 0"
       inkscape:vp_z="60 : 30 : 1"
       inkscape:persp3d-origin="30 : 20 : 1"
       id="perspective456" />
		<linearGradient x1="121.918" y1="185.75" x2="249.582" y2="185.75" id="XMLID_2_" gradientUnits="userSpaceOnUse"><stop
         style="stop-color:#ffff66;stop-opacity:1"
         offset="0"
         id="stop173" />
			<stop style="stop-color:#ffcc66;stop-opacity:1" offset="1" id="stop174" /></linearGradient>
		<linearGradient gradientTransform="translate(357,0)" gradientUnits="userSpaceOnUse" id="XMLID_3_" y2="245.0005" x2="-228" y1="11" x1="-228"><stop
         id="stop3268"
         offset="0"
         style="stop-color:#494949;stop-opacity:1" />
			<stop id="stop3269" offset="1" style="stop-color:#000000;stop-opacity:1" />
			<a:midPointStop offset="0" style="stop-color:#494949" id="midPointStop3270" />
			<a:midPointStop offset="0.5" style="stop-color:#494949" id="midPointStop3271" />
			<a:midPointStop offset="1" style="stop-color:#000000" id="midPointStop3272" /></linearGradient>
		<linearGradient gradientTransform="translate(357,0)" gradientUnits="userSpaceOnUse" id="XMLID_4_" y2="226.9473" x2="-130.0527" y1="29.0527" x1="-327.9473"><stop
         id="stop3276"
         offset="0"
         style="stop-color:#ffffff;stop-opacity:1" />
			<stop id="stop3277" offset="1" style="stop-color:#dadada;stop-opacity:1" />
			<a:midPointStop offset="0" style="stop-color:#FFFFFF" id="midPointStop3278" />
			<a:midPointStop offset="0.5" style="stop-color:#FFFFFF" id="midPointStop3279" />
			<a:midPointStop offset="1" style="stop-color:#DADADA" id="midPointStop3280" /></linearGradient>
		<linearGradient inkscape:collect="always" xlink:href="#XMLID_4_" id="linearGradient3714" gradientUnits="userSpaceOnUse" gradientTransform="translate(357,0)" x1="-327.9473" y1="29.0527" x2="-130.0527" y2="226.9473" />
		<linearGradient inkscape:collect="always" xlink:href="#XMLID_3_" id="linearGradient3718" gradientUnits="userSpaceOnUse" gradientTransform="translate(357,0)" x1="-228" y1="11" x2="-228" y2="245.0005" />
		<linearGradient gradientUnits="userSpaceOnUse" id="linearGradient5966" y2="185.75" x2="249.582" y1="185.75" x1="121.918"><stop
         id="stop5968"
         offset="0"
         style="stop-color:#ffff66;stop-opacity:1" />
			<stop id="stop5970" offset="1" style="stop-color:#ffcc66;stop-opacity:1" /></linearGradient>
		<inkscape:perspective id="perspective456-3" inkscape:persp3d-origin="30 : 20 : 1" inkscape:vp_z="60 : 30 : 1" inkscape:vp_y="0 : 1000 : 0" inkscape:vp_x="0 : 30 : 1" sodipodi:type="inkscape:persp3d" />
		<linearGradient y2="226.9473" x2="-130.0527" y1="29.0527" x1="-327.9473" gradientTransform="translate(357,0)" gradientUnits="userSpaceOnUse" id="linearGradient7092" xlink:href="#XMLID_4_" inkscape:collect="always" />
		<linearGradient y2="245.0005" x2="-228" y1="11" x1="-228" gradientTransform="translate(357,0)" gradientUnits="userSpaceOnUse" id="linearGradient7094" xlink:href="#XMLID_3_" inkscape:collect="always" /></defs>
	<g id="g7056" transform="matrix(0.50150187,0.21017122,-0.21017122,0.50150187,89.587715,-24.728646)"><path
       d="m 108.00397,30.217053 c 0,0 0,29.220221 0,48.907047 C 94.084087,65.20421 73.421889,44.540236 73.421889,44.540236 c -8.261325,-8.261326 -21.705076,-8.261326 -29.968178,0 -4.002745,4.002744 -6.205765,9.323749 -6.205765,14.985869 0,5.660341 2.20302,10.981347 6.205765,14.984091 0,0 20.662195,20.662197 34.582083,34.582074 -19.686825,0 -48.903489,0 -48.903489,0 -11.684889,0 -21.1916303,9.50496 -21.1916303,21.18986 0,11.68488 9.5067413,21.18985 21.1916303,21.18985 0,0 29.220217,0 48.905266,0 -13.919888,13.91989 -34.582083,34.58564 -34.582083,34.58564 -4.13244,4.13065 -6.196882,9.55648 -6.196882,14.98231 0,5.4276 2.064442,10.85165 6.196882,14.98408 4.000969,4.00275 9.323748,6.20755 14.984088,6.20755 5.66034,0 10.981344,-2.2048 14.984089,-6.20755 0,0 20.6622,-20.66042 34.582085,-34.5803 0,19.68327 0,48.90526 0,48.90526 0,11.68312 9.50852,21.18986 21.19163,21.18986 11.68311,0 21.19163,-9.50674 21.19163,-21.18986 0,0 0,-29.22021 0,-48.90526 13.91989,13.91988 34.58209,34.5803 34.58209,34.5803 4.00096,4.00275 9.32375,6.20755 14.98409,6.20755 5.66033,0 10.98133,-2.2048 14.98408,-6.20755 4.00097,-4.00097 6.20577,-9.32197 6.20577,-14.98408 0,-5.66034 -2.2048,-10.98135 -6.20577,-14.98409 0,0 -20.66397,-20.66397 -34.58386,-34.58386 19.68683,0 48.90704,0 48.90704,0 11.68489,0 21.19164,-9.50497 21.19164,-21.18985 0,-11.6849 -9.50675,-21.18986 -21.19164,-21.18986 0,0 -29.21843,0 -48.90526,0 13.92166,-13.919877 34.58208,-34.582074 34.58208,-34.582074 4.13244,-4.130669 6.19688,-9.558269 6.19688,-14.984091 0,-5.427601 -2.06444,-10.853423 -6.19688,-14.985869 -8.26133,-8.261326 -21.70507,-8.261326 -29.9664,0 0,0 -20.66219,20.662197 -34.58208,34.582087 0,-19.685049 0,-48.90527 0,-48.90527 0,-11.684883 -9.50852,-21.191626 -21.19163,-21.191626 -11.68312,0 -21.19519,9.506743 -21.19519,21.191626 z"
       style="fill:#cc0000;stroke:none"
       id="path171"
       inkscape:connector-curvature="0" />
		<path
			d="m 229.25891,118.07875 -67.85125,0 47.97965,-47.97964 c 5.20908,-5.210856 5.20908,-13.65873 0,-18.867798 -5.21263,-5.210856 -13.65873,-5.210856 -18.86958,0 l -47.97964,47.979637 0,-67.853012 c 0,-7.369454 -5.97303,-13.34248 -13.34248,-13.34248 -7.36946,0 -13.34248,5.973026 -13.34248,13.34248 l 0,67.854789 -47.979655,-47.981414 c -5.212633,-5.210856 -13.65873,-5.210856 -18.869576,0 -5.210856,5.210845 -5.210856,13.65872 0,18.867798 l 47.979638,47.97964 -67.851235,0 c -7.369454,0 -13.342481,5.97303 -13.342481,13.34248 0,7.36946 5.971249,13.34248 13.342481,13.34248 l 67.85479,0 -47.983193,47.98143 c -5.209078,5.21084 -5.209078,13.65872 0,18.8678 5.212623,5.21084 13.65872,5.21084 18.869576,0 l 47.979655,-47.97965 0,67.85301 c 0,7.36769 5.97302,13.34071 13.34248,13.34071 7.36945,0 13.34248,-5.97124 13.34248,-13.34071 l 0,-67.85301 47.97964,47.97965 c 5.21085,5.21084 13.65872,5.21084 18.8678,0 5.20908,-5.21086 5.21086,-13.65873 0,-18.8678 l -47.98142,-47.98143 67.8548,0 c 7.36945,0 13.34248,-5.97302 13.34248,-13.34248 0,-7.36945 -5.97125,-13.34248 -13.34248,-13.34248 z"
			style="fill:#ff0000;stroke:none" id="path178" inkscape:connector-curvature="0" /></g>
	<g id="g7112" transform="matrix(0.50013062,0.21341376,-0.21341376,0.50013062,153.7558,96.702836)"><path
       d="m 108.00397,30.217053 c 0,0 0,29.220221 0,48.907047 C 94.084087,65.20421 73.421889,44.540236 73.421889,44.540236 c -8.261325,-8.261326 -21.705076,-8.261326 -29.968178,0 -4.002745,4.002744 -6.205765,9.323749 -6.205765,14.985869 0,5.660341 2.20302,10.981347 6.205765,14.984091 0,0 20.662195,20.662197 34.582083,34.582074 -19.686825,0 -48.903489,0 -48.903489,0 -11.684889,0 -21.1916303,9.50496 -21.1916303,21.18986 0,11.68488 9.5067413,21.18985 21.1916303,21.18985 0,0 29.220217,0 48.905266,0 -13.919888,13.91989 -34.582083,34.58564 -34.582083,34.58564 -4.13244,4.13065 -6.196882,9.55648 -6.196882,14.98231 0,5.4276 2.064442,10.85165 6.196882,14.98408 4.000969,4.00275 9.323748,6.20755 14.984088,6.20755 5.66034,0 10.981344,-2.2048 14.984089,-6.20755 0,0 20.6622,-20.66042 34.582085,-34.5803 0,19.68327 0,48.90526 0,48.90526 0,11.68312 9.50852,21.18986 21.19163,21.18986 11.68311,0 21.19163,-9.50674 21.19163,-21.18986 0,0 0,-29.22021 0,-48.90526 13.91989,13.91988 34.58209,34.5803 34.58209,34.5803 4.00096,4.00275 9.32375,6.20755 14.98409,6.20755 5.66033,0 10.98133,-2.2048 14.98408,-6.20755 4.00097,-4.00097 6.20577,-9.32197 6.20577,-14.98408 0,-5.66034 -2.2048,-10.98135 -6.20577,-14.98409 0,0 -20.66397,-20.66397 -34.58386,-34.58386 19.68683,0 48.90704,0 48.90704,0 11.68489,0 21.19164,-9.50497 21.19164,-21.18985 0,-11.6849 -9.50675,-21.18986 -21.19164,-21.18986 0,0 -29.21843,0 -48.90526,0 13.92166,-13.919877 34.58208,-34.582074 34.58208,-34.582074 4.13244,-4.130669 6.19688,-9.558269 6.19688,-14.984091 0,-5.427601 -2.06444,-10.853423 -6.19688,-14.985869 -8.26133,-8.261326 -21.70507,-8.261326 -29.9664,0 0,0 -20.66219,20.662197 -34.58208,34.582087 0,-19.685049 0,-48.90527 0,-48.90527 0,-11.684883 -9.50852,-21.191626 -21.19163,-21.191626 -11.68312,0 -21.19519,9.506743 -21.19519,21.191626 z"
       style="fill:#cc0000;stroke:none"
       id="path7114"
       inkscape:connector-curvature="0" />
		<path
			d="m 229.25891,118.07875 -67.85125,0 47.97965,-47.97964 c 5.20908,-5.210856 5.20908,-13.65873 0,-18.867798 -5.21263,-5.210856 -13.65873,-5.210856 -18.86958,0 l -47.97964,47.979637 0,-67.853012 c 0,-7.369454 -5.97303,-13.34248 -13.34248,-13.34248 -7.36946,0 -13.34248,5.973026 -13.34248,13.34248 l 0,67.854789 -47.979655,-47.981414 c -5.212633,-5.210856 -13.65873,-5.210856 -18.869576,0 -5.210856,5.210845 -5.210856,13.65872 0,18.867798 l 47.979638,47.97964 -67.851235,0 c -7.369454,0 -13.342481,5.97303 -13.342481,13.34248 0,7.36946 5.971249,13.34248 13.342481,13.34248 l 67.85479,0 -47.983193,47.98143 c -5.209078,5.21084 -5.209078,13.65872 0,18.8678 5.212623,5.21084 13.65872,5.21084 18.869576,0 l 47.979655,-47.97965 0,67.85301 c 0,7.36769 5.97302,13.34071 13.34248,13.34071 7.36945,0 13.34248,-5.97124 13.34248,-13.34071 l 0,-67.85301 47.97964,47.97965 c 5.21085,5.21084 13.65872,5.21084 18.8678,0 5.20908,-5.21086 5.21086,-13.65873 0,-18.8678 l -47.98142,-47.98143 67.8548,0 c 7.36945,0 13.34248,-5.97302 13.34248,-13.34248 0,-7.36945 -5.97125,-13.34248 -13.34248,-13.34248 z"
			style="fill:#ff0000;stroke:none" id="path7116" inkscape:connector-curvature="0" /></g>
	<g transform="matrix(0.50013062,0.21341376,-0.21341376,0.50013062,28.056915,95.935805)" id="g7118"><path
       inkscape:connector-curvature="0"
       id="path7120"
       style="fill:#cc0000;stroke:none"
       d="m 108.00397,30.217053 c 0,0 0,29.220221 0,48.907047 C 94.084087,65.20421 73.421889,44.540236 73.421889,44.540236 c -8.261325,-8.261326 -21.705076,-8.261326 -29.968178,0 -4.002745,4.002744 -6.205765,9.323749 -6.205765,14.985869 0,5.660341 2.20302,10.981347 6.205765,14.984091 0,0 20.662195,20.662197 34.582083,34.582074 -19.686825,0 -48.903489,0 -48.903489,0 -11.684889,0 -21.1916303,9.50496 -21.1916303,21.18986 0,11.68488 9.5067413,21.18985 21.1916303,21.18985 0,0 29.220217,0 48.905266,0 -13.919888,13.91989 -34.582083,34.58564 -34.582083,34.58564 -4.13244,4.13065 -6.196882,9.55648 -6.196882,14.98231 0,5.4276 2.064442,10.85165 6.196882,14.98408 4.000969,4.00275 9.323748,6.20755 14.984088,6.20755 5.66034,0 10.981344,-2.2048 14.984089,-6.20755 0,0 20.6622,-20.66042 34.582085,-34.5803 0,19.68327 0,48.90526 0,48.90526 0,11.68312 9.50852,21.18986 21.19163,21.18986 11.68311,0 21.19163,-9.50674 21.19163,-21.18986 0,0 0,-29.22021 0,-48.90526 13.91989,13.91988 34.58209,34.5803 34.58209,34.5803 4.00096,4.00275 9.32375,6.20755 14.98409,6.20755 5.66033,0 10.98133,-2.2048 14.98408,-6.20755 4.00097,-4.00097 6.20577,-9.32197 6.20577,-14.98408 0,-5.66034 -2.2048,-10.98135 -6.20577,-14.98409 0,0 -20.66397,-20.66397 -34.58386,-34.58386 19.68683,0 48.90704,0 48.90704,0 11.68489,0 21.19164,-9.50497 21.19164,-21.18985 0,-11.6849 -9.50675,-21.18986 -21.19164,-21.18986 0,0 -29.21843,0 -48.90526,0 13.92166,-13.919877 34.58208,-34.582074 34.58208,-34.582074 4.13244,-4.130669 6.19688,-9.558269 6.19688,-14.984091 0,-5.427601 -2.06444,-10.853423 -6.19688,-14.985869 -8.26133,-8.261326 -21.70507,-8.261326 -29.9664,0 0,0 -20.66219,20.662197 -34.58208,34.582087 0,-19.685049 0,-48.90527 0,-48.90527 0,-11.684883 -9.50852,-21.191626 -21.19163,-21.191626 -11.68312,0 -21.19519,9.506743 -21.19519,21.191626 z" />
		<path inkscape:connector-curvature="0" id="path7122" style="fill:#ff0000;stroke:none"
			d="m 229.25891,118.07875 -67.85125,0 47.97965,-47.97964 c 5.20908,-5.210856 5.20908,-13.65873 0,-18.867798 -5.21263,-5.210856 -13.65873,-5.210856 -18.86958,0 l -47.97964,47.979637 0,-67.853012 c 0,-7.369454 -5.97303,-13.34248 -13.34248,-13.34248 -7.36946,0 -13.34248,5.973026 -13.34248,13.34248 l 0,67.854789 -47.979655,-47.981414 c -5.212633,-5.210856 -13.65873,-5.210856 -18.869576,0 -5.210856,5.210845 -5.210856,13.65872 0,18.867798 l 47.979638,47.97964 -67.851235,0 c -7.369454,0 -13.342481,5.97303 -13.342481,13.34248 0,7.36946 5.971249,13.34248 13.342481,13.34248 l 67.85479,0 -47.983193,47.98143 c -5.209078,5.21084 -5.209078,13.65872 0,18.8678 5.212623,5.21084 13.65872,5.21084 18.869576,0 l 47.979655,-47.97965 0,67.85301 c 0,7.36769 5.97302,13.34071 13.34248,13.34071 7.36945,0 13.34248,-5.97124 13.34248,-13.34071 l 0,-67.85301 47.97964,47.97965 c 5.21085,5.21084 13.65872,5.21084 18.8678,0 5.20908,-5.21086 5.21086,-13.65873 0,-18.8678 l -47.98142,-47.98143 67.8548,0 c 7.36945,0 13.34248,-5.97302 13.34248,-13.34248 0,-7.36945 -5.97125,-13.34248 -13.34248,-13.34248 z" /></g></svg>