<?xml version="1.0" encoding="UTF-8" standalone="no"?><!-- Created with Inkscape (http://www.inkscape.org/) -->

<svg xmlns:dc="http://purl.org/dc/elements/1.1/" xmlns:cc="http://creativecommons.org/ns#" xmlns:rdf="http://www.w3.org/1999/02/22-rdf-syntax-ns#" xmlns="http://www.w3.org/2000/svg" xmlns:xlink="http://www.w3.org/1999/xlink" xmlns:sodipodi="http://sodipodi.sourceforge.net/DTD/sodipodi-0.dtd" xmlns:inkscape="http://www.inkscape.org/namespaces/inkscape" width="48" height="48" id="svg1872" sodipodi:version="0.32"
	inkscape:version="0.48.5 r10040" sodipodi:docname="pos.svg" version="1.0" inkscape:output_extension="org.inkscape.output.svg.inkscape">
	<defs id="defs1874">
		<linearGradient inkscape:collect="always" id="linearGradient3856">
			<stop style="stop-color:#c0c0c0;stop-opacity:1;" offset="0" id="stop3858" />
			<stop style="stop-color:#c0c0c0;stop-opacity:0;" offset="1" id="stop3860" />
		</linearGradient>
		<linearGradient inkscape:collect="always" id="linearGradient3848">
			<stop style="stop-color:#a9a9a9;stop-opacity:1;" offset="0" id="stop3850" />
			<stop style="stop-color:#a9a9a9;stop-opacity:0;" offset="1" id="stop3852" />
		</linearGradient>
		<linearGradient inkscape:collect="always" xlink:href="#linearGradient3848" id="linearGradient3871" gradientUnits="userSpaceOnUse" x1="250.36548" y1="180.01407" x2="289.50418" y2="301.00745" />
		<linearGradient inkscape:collect="always" xlink:href="#linearGradient3856" id="linearGradient3873" gradientUnits="userSpaceOnUse" x1="-10.830686" y1="499.84377" x2="121.15911" y2="499.84377" />
	</defs>
	<sodipodi:namedview id="base" pagecolor="#ffffff" bordercolor="#666666" borderopacity="1.0" inkscape:pageopacity="0.0" inkscape:pageshadow="2" inkscape:zoom="7.8481082" inkscape:cx="0.55976633" inkscape:cy="15.748324" inkscape:current-layer="layer1"
		showgrid="true" inkscape:grid-bbox="true" inkscape:document-units="px" inkscape:window-width="1247" inkscape:window-height="1070" inkscape:window-x="652" inkscape:window-y="102" width="48px" height="48px" inkscape:window-maximized="0" />
	<metadata id="metadata1877">
		<rdf:RDF>
			<cc:Work rdf:about="">
				<dc:format>image/svg+xml</dc:format>
				<dc:type rdf:resource="http://purl.org/dc/dcmitype/StillImage" />
			</cc:Work>
		</rdf:RDF>
	</metadata>
	<g id="layer1" inkscape:label="Layer 1" inkscape:groupmode="layer">
		<path sodipodi:type="arc" style="fill:#0038d4;fill-opacity:1;fill-rule:evenodd;stroke:none" id="path1880" sodipodi:cx="8.1539602" sodipodi:cy="7.9586635" sodipodi:rx="7.0727725" sodipodi:ry="7.1403465"
			d="m 15.226733,7.9586635 a 7.0727725,7.1403465 0 1 1 -14.1455453,0 7.0727725,7.1403465 0 1 1 14.1455453,0 z" transform="matrix(3.2697493,0.90729679,-0.89083067,3.2104081,4.5558356,-8.8656102)" />
		<g id="g3864" transform="matrix(0.89368675,0.24798205,-0.24798205,0.89368675,8.3561828,-4.2828176)">
			<g style="fill:#fff5ee;stroke:none" transform="matrix(0.06002724,0,0,0.06002724,39.571606,5.4069525)" id="g3046">
				<g style="fill:#fff5ee;stroke:none" transform="translate(-580.75883,-182.87005)" id="layer1-4" inkscape:label="Layer 1">
					<path transform="translate(219.71429,116.28571)"
						d="m 422.85714,623.79075 c -54.7195,69.40033 -157.20751,-63.643 -242.269,-39.66026 C 95.526639,608.11323 77.630425,775.0984 -5.282474,744.50295 -88.19537,713.9075 6.6658185,575.32296 -42.428569,501.83574 -91.522958,428.34852 -255.86552,462.92947 -252.38902,374.6201 -248.91251,286.31074 -87.797059,333.70411 -33.077563,264.30377 21.641934,194.90344 -62.031142,49.290469 23.030356,25.307728 108.09185,1.3249879 112.80549,169.20024 195.71838,199.79569 c 82.9129,30.59545 195.54266,-93.97925 244.63705,-20.49203 49.09439,73.48721 -109.10788,129.84645 -112.58438,218.15582 -3.47651,88.30936 149.80558,156.93093 95.08609,226.33127 z"
						inkscape:randomized="0" inkscape:rounded="0.36" inkscape:flatsided="false" sodipodi:arg2="1.2959841" sodipodi:arg1="0.66766559" sodipodi:r2="202.21327" sodipodi:r1="378.39618" sodipodi:cy="389.50504" sodipodi:cx="125.71429"
						sodipodi:sides="5" id="path3590" style="fill:#fff5ee;fill-opacity:0.969163;fill-rule:evenodd;stroke:none" sodipodi:type="star" />
					<path sodipodi:nodetypes="ccc" id="path3592" d="m 231.14286,320.21933 c 0,0 -37.14286,-291.428576 111.42857,-34.28572 l -111.42857,34.28572 z" style="opacity:0.75210081;fill:url(#linearGradient3871);fill-opacity:1;stroke:none"
						inkscape:connector-curvature="0" />
					<path style="opacity:0.75210081;fill:url(#linearGradient3873);fill-opacity:1;stroke:none" d="m 114.24795,558.03327 c 0,0 -285.97929,-67.27598 6.91116,-116.379 l -6.91116,116.379 z" id="path3625" sodipodi:nodetypes="ccc"
						inkscape:connector-curvature="0" />
				</g>
			</g>
		</g>
	</g>
</svg>
