<?xml version="1.0" encoding="UTF-8" standalone="no"?>
<!-- Created with Inkscape (http://www.inkscape.org/) -->

<svg
   version="1.0"
   width="128"
   height="128"
   id="svg2"
   inkscape:version="1.2.2 (b0a8486541, 2022-12-01)"
   sodipodi:docname="ic_bodypart.svg"
   inkscape:export-filename="causes.png"
   inkscape:export-xdpi="11.25"
   inkscape:export-ydpi="11.25"
   xml:space="preserve"
   xmlns:inkscape="http://www.inkscape.org/namespaces/inkscape"
   xmlns:sodipodi="http://sodipodi.sourceforge.net/DTD/sodipodi-0.dtd"
   xmlns="http://www.w3.org/2000/svg"
   xmlns:svg="http://www.w3.org/2000/svg"
   xmlns:rdf="http://www.w3.org/1999/02/22-rdf-syntax-ns#"
   xmlns:cc="http://creativecommons.org/ns#"
   xmlns:dc="http://purl.org/dc/elements/1.1/"><metadata
     id="metadata23"><rdf:RDF><cc:Work
         rdf:about=""><dc:format>image/svg+xml</dc:format><dc:type
           rdf:resource="http://purl.org/dc/dcmitype/StillImage" /><dc:title /></cc:Work></rdf:RDF></metadata><sodipodi:namedview
     pagecolor="#ffffff"
     bordercolor="#666666"
     borderopacity="1"
     objecttolerance="10"
     gridtolerance="10"
     guidetolerance="10"
     inkscape:pageopacity="0"
     inkscape:pageshadow="2"
     inkscape:window-width="1036"
     inkscape:window-height="567"
     id="namedview21"
     showgrid="false"
     inkscape:zoom="0.76367188"
     inkscape:cx="-158.44501"
     inkscape:cy="64.818414"
     inkscape:window-x="26"
     inkscape:window-y="23"
     inkscape:window-maximized="0"
     inkscape:current-layer="svg2"
     inkscape:showpageshadow="2"
     inkscape:pagecheckerboard="0"
     inkscape:deskcolor="#d1d1d1" /><defs
     id="defs5" /><path
     d="M 74.647079,70.497968 99.053483,55.625279 c 2.130657,-1.296315 2.887737,-3.921826 1.694987,-5.87904 -1.186161,-1.945706 -3.872501,-2.489057 -6.003982,-1.188632 L 72.910987,61.860251 c -0.704466,0.428269 -1.602104,0.248248 -1.991739,-0.395388 -0.401142,-0.658433 -0.15125,-1.53881 0.553215,-1.967079 L 95.876401,44.627561 c 2.11915,-1.292205 2.888555,-3.92347 1.697458,-5.881506 -1.194386,-1.958036 -3.885658,-2.479192 -6.003987,-1.188631 L 67.161825,52.429291 c -0.700356,0.425803 -1.599638,0.245782 -1.999137,-0.411829 -0.391278,-0.640348 -0.141386,-1.520725 0.561435,-1.950638 L 84.986364,38.330116 c 2.133125,-1.299603 2.882801,-3.9358 1.697458,-5.881506 -1.192741,-1.957214 -3.870861,-2.488235 -6.004808,-1.188631 l -32.105379,19.563098 4.211175,-9.12435 c 1.50675,-2.857318 0.623908,-6.113314 -1.978587,-7.305233 -2.616468,-1.171369 -5.954665,0.183309 -7.476212,3.023365 0,0 -7.995725,15.434947 -11.425165,22.028317 -3.446702,6.600767 -4.452846,14.511825 1.611147,24.462297 10.035962,16.469857 24.779595,9.505761 28.918433,6.983827 L 97.111887,69.763088 c 2.118329,-1.290561 2.877047,-3.934978 1.684306,-5.892192 -1.186166,-1.946528 -3.883192,-2.482481 -6.001521,-1.19192 L 76.085603,72.860435 c -0.700356,0.425803 -1.598816,0.250714 -1.993383,-0.396211 -0.399498,-0.658432 -0.145496,-1.540453 0.554859,-1.966256 z"
     id="path142"
     style="stroke-width:1" /></svg>
