<?xml version="1.0" encoding="UTF-8" standalone="no"?>
<!-- Created with Inkscape (http://www.inkscape.org/) -->

<svg
   sodipodi:docname="ic_domain_topic.svg"
   inkscape:version="1.2.2 (b0a8486541, 2022-12-01)"
   id="svg1"
   height="128"
   width="128"
   version="1.0"
   inkscape:export-filename="domain.topic.png"
   inkscape:export-xdpi="30"
   inkscape:export-ydpi="30"
   xmlns:inkscape="http://www.inkscape.org/namespaces/inkscape"
   xmlns:sodipodi="http://sodipodi.sourceforge.net/DTD/sodipodi-0.dtd"
   xmlns="http://www.w3.org/2000/svg"
   xmlns:svg="http://www.w3.org/2000/svg"
   xmlns:rdf="http://www.w3.org/1999/02/22-rdf-syntax-ns#"
   xmlns:cc="http://creativecommons.org/ns#"
   xmlns:dc="http://purl.org/dc/elements/1.1/">
  <sodipodi:namedview
     pagecolor="#ffffff"
     bordercolor="#666666"
     borderopacity="1"
     objecttolerance="10"
     gridtolerance="10"
     guidetolerance="10"
     inkscape:pageopacity="0"
     inkscape:pageshadow="2"
     inkscape:window-width="1920"
     inkscape:window-height="1113"
     id="namedview31"
     showgrid="false"
     inkscape:zoom="4.9166667"
     inkscape:cx="22.983051"
     inkscape:cy="21.661017"
     inkscape:window-x="0"
     inkscape:window-y="0"
     inkscape:window-maximized="1"
     inkscape:current-layer="svg1"
     inkscape:showpageshadow="0"
     inkscape:pagecheckerboard="1"
     inkscape:deskcolor="#d1d1d1" />
  <metadata
     id="metadata33">
    <rdf:RDF>
      <cc:Work
         rdf:about="">
        <dc:format>image/svg+xml</dc:format>
        <dc:type
           rdf:resource="http://purl.org/dc/dcmitype/StillImage" />
      </cc:Work>
    </rdf:RDF>
  </metadata>
  <defs
     id="defs3" />
  <path
     style="fill:#342e2e;fill-opacity:1;fill-rule:evenodd;stroke:none;stroke-width:2.85623"
     d="M 64.045675,26.5 C 43.358512,26.5 26.5,43.310546 26.5,64 c 0,20.689453 16.858512,37.5 37.545675,37.5 C 84.73284,101.5 101.5,84.689453 101.5,64 101.5,43.310546 84.73284,26.5 64.045675,26.5 Z m 3.014618,23.197674 c 2.056522,3.7e-5 4.069435,0.240223 6.029231,0.610465 1.95974,0.349733 3.916347,0.849833 5.755178,1.569767 v 5.319768 C 76.95748,56.313169 75.000873,55.623871 73.089525,55.191861 71.202309,54.739338 69.361249,54.581426 67.4257,54.581395 c -4.33087,3.1e-5 -7.744814,1.143359 -10.140074,3.488371 -2.395287,2.3245 -3.56274,5.550501 -3.562728,9.767443 -1.2e-5,4.216976 1.167441,7.509617 3.562728,9.854651 2.39526,2.324478 5.809204,3.488375 10.140074,3.488373 1.935549,2e-6 3.776609,-0.178467 5.663824,-0.610465 1.911348,-0.452549 3.867956,-1.121276 5.755178,-2.005815 v 5.232558 c -1.863026,0.740541 -3.838403,1.286707 -5.846529,1.656978 -1.983993,0.370269 -4.053209,0.523254 -6.303289,0.523254 -6.121274,0 -11.011325,-1.613001 -14.616321,-4.883721 -3.605016,-3.270711 -5.389772,-7.701753 -5.389769,-13.255813 -3e-6,-5.636308 1.760559,-10.026209 5.389769,-13.255814 3.653385,-3.229542 8.642701,-4.883684 14.98173,-4.883721 z"
     id="path3064" />
</svg>
