<svg xmlns="http://www.w3.org/2000/svg" width="341.333" height="373.333"><defs><filter id="a" style="color-interpolation-filters:sRGB"><feGaussianBlur in="SourceGraphic" result="result0" stdDeviation="6"/><feDiffuseLighting result="result5" surfaceScale="10"><feDistantLight azimuth="235" elevation="25"/></feDiffuseLighting><feComposite in="result5" in2="SourceGraphic" k1="1" k3=".6" operator="arithmetic" result="result4"/></filter><filter id="b" style="color-interpolation-filters:sRGB"><feGaussianBlur in="SourceGraphic" result="result0" stdDeviation="5"/><feDiffuseLighting lighting-color="#FEFEFE" result="result5" surfaceScale="10"><feDistantLight azimuth="235" elevation="13"/></feDiffuseLighting><feComposite in="result5" in2="SourceGraphic" k1="1" k3=".6" operator="arithmetic" result="result4"/></filter><filter id="c" style="color-interpolation-filters:sRGB"><feGaussianBlur in="SourceGraphic" result="result0" stdDeviation="5"/><feDiffuseLighting lighting-color="#FEFEFE" result="result5" surfaceScale="10"><feDistantLight azimuth="235" elevation="13"/></feDiffuseLighting><feComposite in="result5" in2="SourceGraphic" k1="1" k3=".6" operator="arithmetic" result="result4"/></filter></defs><g transform="translate(-197.702 108.745)"><path d="M41.714 333.114h53.448v37.317H41.714z" style="opacity:.98999999;fill:#906336;fill-opacity:.99215686;fill-rule:evenodd;stroke:none;stroke-width:1.79862833;stroke-linecap:round;stroke-linejoin:round;stroke-miterlimit:4;stroke-dasharray:none;stroke-dashoffset:0;stroke-opacity:1"/><text xml:space="preserve" x="-252.732" y="217.582" style="font-style:normal;font-variant:normal;font-weight:400;font-stretch:condensed;font-size:132.64131165px;line-height:0%;font-family:Impact;-inkscape-font-specification:&quot;Impact, Condensed&quot;;font-variant-ligatures:normal;font-variant-caps:normal;font-variant-numeric:normal;font-feature-settings:normal;text-align:start;writing-mode:lr-tb;text-anchor:start;fill:#cbbeaf;fill-opacity:1;stroke:none;stroke-width:8.1591711;stroke-miterlimit:4;stroke-dasharray:none;stroke-opacity:1" transform="scale(.61288 1.63165)"><tspan x="-252.732" y="217.582" style="fill:#cbbeaf;fill-opacity:1;stroke-width:8.1591711">Word</tspan></text><ellipse cx="-264.585" cy="-1829.623" fill="none" rx="78.303" ry="101.454" style="opacity:.98999999;fill:#ceffff;fill-opacity:0;fill-rule:evenodd;stroke:none;stroke-width:5;stroke-linecap:round;stroke-linejoin:round;stroke-miterlimit:4;stroke-dasharray:none;stroke-dashoffset:0;stroke-opacity:1"/><ellipse cx="-212.156" cy="-1971.93" fill="none" rx="47.663" ry="50.386" style="opacity:.98999999;fill:#ceffff;fill-opacity:0;fill-rule:evenodd;stroke:none;stroke-width:5;stroke-linecap:round;stroke-linejoin:round;stroke-miterlimit:4;stroke-dasharray:none;stroke-dashoffset:0;stroke-opacity:1"/><path d="M41.714 234.502h53.515v33.306H41.714z" style="opacity:1;fill:#44005c;fill-opacity:.99607843;fill-rule:evenodd;stroke:none;stroke-width:2.76786804;stroke-linecap:round;stroke-linejoin:round;stroke-miterlimit:4;stroke-dasharray:none;stroke-dashoffset:0;stroke-opacity:1"/><path d="M41.714 202.502h53.515v33.306H41.714z" style="opacity:1;fill:#6aa9a2;fill-opacity:1;fill-rule:evenodd;stroke:none;stroke-width:2.76786804;stroke-linecap:round;stroke-linejoin:round;stroke-miterlimit:4;stroke-dasharray:none;stroke-dashoffset:0;stroke-opacity:1"/><path d="M41.714 169.216h53.515v33.306H41.714z" style="opacity:1;fill:#ac8e78;fill-opacity:.99607843;fill-rule:evenodd;stroke:none;stroke-width:2.76786804;stroke-linecap:round;stroke-linejoin:round;stroke-miterlimit:4;stroke-dasharray:none;stroke-dashoffset:0;stroke-opacity:1"/><text xml:space="preserve" x="556.779" y="163.51" style="font-style:normal;font-variant:normal;font-weight:400;font-stretch:condensed;line-height:0%;font-family:Impact;-inkscape-font-specification:&quot;Impact Condensed&quot;;text-align:start;writing-mode:lr-tb;text-anchor:start;fill:#938672;fill-opacity:1;stroke:#00132c;stroke-width:.69631934;stroke-miterlimit:4;stroke-dasharray:none;stroke-opacity:1;filter:url(#a)" transform="matrix(.75535 0 0 1.27265 -28.14 42.92)"><tspan x="556.779" y="163.51" style="font-size:127.66687775px;line-height:1.25;fill:#938672;fill-opacity:1;stroke:#00132c;stroke-width:.69631934;stroke-opacity:1">net</tspan></text><text xml:space="preserve" x="305.122" y="178.588" style="font-style:normal;font-variant:normal;font-weight:400;font-stretch:condensed;font-size:115.01089478px;line-height:0%;font-family:Impact;-inkscape-font-specification:&quot;Impact, Condensed&quot;;font-variant-ligatures:normal;font-variant-caps:normal;font-variant-numeric:normal;font-feature-settings:normal;text-align:start;writing-mode:lr-tb;text-anchor:start;fill:#9700a6;fill-opacity:.99607843;stroke:none;stroke-width:7.07466888;stroke-miterlimit:4;stroke-dasharray:none;stroke-opacity:1" transform="scale(.71352 1.4015)"><tspan x="305.122" y="178.588" style="stroke-width:7.07466888">W</tspan></text><text xml:space="preserve" x="395.668" y="178.588" style="font-style:normal;font-variant:normal;font-weight:400;font-stretch:condensed;font-size:115.01089478px;line-height:0%;font-family:Impact;-inkscape-font-specification:&quot;Impact, Condensed&quot;;font-variant-ligatures:normal;font-variant-caps:normal;font-variant-numeric:normal;font-feature-settings:normal;text-align:start;writing-mode:lr-tb;text-anchor:start;fill:#cbbeaf;fill-opacity:1;stroke:none;stroke-width:7.07466888;stroke-miterlimit:4;stroke-dasharray:none;stroke-opacity:1" transform="scale(.71352 1.4015)"><tspan x="395.668" y="178.588" style="stroke-width:7.07466888">o</tspan></text><text xml:space="preserve" x="452.259" y="178.588" style="font-style:normal;font-variant:normal;font-weight:400;font-stretch:condensed;font-size:115.01089478px;line-height:0%;font-family:Impact;-inkscape-font-specification:&quot;Impact, Condensed&quot;;font-variant-ligatures:normal;font-variant-caps:normal;font-variant-numeric:normal;font-feature-settings:normal;text-align:start;writing-mode:lr-tb;text-anchor:start;fill:#d18b45;fill-opacity:.99215686;stroke:none;stroke-width:7.07466888;stroke-miterlimit:4;stroke-dasharray:none;stroke-opacity:1" transform="scale(.71352 1.4015)"><tspan x="452.259" y="178.588" style="stroke-width:7.07466888">r</tspan></text><text xml:space="preserve" x="494.702" y="178.588" style="font-style:normal;font-variant:normal;font-weight:400;font-stretch:condensed;font-size:115.01089478px;line-height:0%;font-family:Impact;-inkscape-font-specification:&quot;Impact, Condensed&quot;;font-variant-ligatures:normal;font-variant-caps:normal;font-variant-numeric:normal;font-feature-settings:normal;text-align:start;writing-mode:lr-tb;text-anchor:start;fill:#6aa9a2;fill-opacity:1;stroke:none;stroke-width:7.07466888;stroke-miterlimit:4;stroke-dasharray:none;stroke-opacity:1" transform="scale(.71352 1.4015)"><tspan x="494.702" y="178.588" style="stroke-width:7.07466888">d</tspan></text><path d="M41.714 267.808h53.515v33.306H41.714z" style="opacity:1;fill:#d08b45;fill-opacity:.99215686;fill-rule:evenodd;stroke:none;stroke-width:2.76786804;stroke-linecap:round;stroke-linejoin:round;stroke-miterlimit:4;stroke-dasharray:none;stroke-dashoffset:0;stroke-opacity:1"/><path d="M41.714 299.808h53.515v33.306H41.714z" style="opacity:1;fill:#685f51;fill-opacity:1;fill-rule:evenodd;stroke:none;stroke-width:2.76786804;stroke-linecap:round;stroke-linejoin:round;stroke-miterlimit:4;stroke-dasharray:none;stroke-dashoffset:0;stroke-opacity:1"/><text xml:space="preserve" x="230.031" y="108.582" style="font-style:normal;font-variant:normal;font-weight:400;font-stretch:condensed;font-size:58.09820557px;line-height:0%;font-family:Impact;-inkscape-font-specification:&quot;Impact, Condensed&quot;;font-variant-ligatures:normal;font-variant-caps:normal;font-variant-numeric:normal;font-feature-settings:normal;text-align:start;writing-mode:lr-tb;text-anchor:start;fill:#916f6f;fill-opacity:1;stroke:none;stroke-width:3.57381129;stroke-miterlimit:4;stroke-dasharray:none;stroke-opacity:1" transform="scale(.94181 1.06178)"><tspan x="230.031" y="108.582" style="fill:#916f6f;stroke-width:3.57381129">Open</tspan></text><text xml:space="preserve" x="-121.909" y="199.74" style="font-style:normal;font-variant:normal;font-weight:400;font-stretch:condensed;font-size:79.45899963px;line-height:0%;font-family:Impact;-inkscape-font-specification:&quot;Impact, Condensed&quot;;font-variant-ligatures:normal;font-variant-caps:normal;font-variant-numeric:normal;font-feature-settings:normal;text-align:start;writing-mode:lr-tb;text-anchor:start;fill:#43005b;fill-opacity:.99607843;stroke:none;stroke-width:4.8877635;stroke-miterlimit:4;stroke-dasharray:none;stroke-opacity:1" transform="scale(1.28808 .77635)"><tspan x="-121.909" y="199.74" style="fill:#43005b;fill-opacity:.99607843;stroke-width:4.8877635">English</tspan></text><g style="stroke:orange;filter:url(#b)" transform="translate(-32.264 -286.248)scale(.54437)"><ellipse cx="46.088" cy="538.184" rx="143.525" ry="143.608" style="fill:none;stroke:orange;stroke-width:16.16086197;stroke-miterlimit:4;stroke-dasharray:none;stroke-opacity:1"/><path d="m-52.15 538.877 194.393.855m-97.56 101.571.731-205.043m-59.895 22.752c31.827 45.91 31.59 112.337-.564 157.967m119.626.526c-31.826-45.91-31.59-112.337.564-157.967m-156.997 79.006c47.256-61.201 147.653-60.441 194.481 1.184m-.314.222c-47.256 61.201-147.339 60.443-194.168-1.183" style="fill:none;stroke:orange;stroke-width:12.72536182;stroke-opacity:1"/><ellipse cx="-466.943" cy="438.428" rx="17.87" ry="17.92" style="fill:orange;fill-opacity:1;stroke:orange;stroke-width:.07928234" transform="matrix(-.72081 -.69313 -.66515 .74671 0 0)"/><ellipse cx="-478.924" cy="278.434" rx="17.87" ry="17.92" style="fill:orange;fill-opacity:1;stroke:orange;stroke-width:.07928234" transform="matrix(-.72081 -.69313 -.66515 .74671 0 0)"/><ellipse cx="-306.635" cy="436.624" rx="17.87" ry="17.92" style="fill:orange;fill-opacity:1;stroke:orange;stroke-width:.07928234" transform="matrix(-.72081 -.69313 -.66515 .74671 0 0)"/><ellipse cx="-399.743" cy="466.781" rx="17.87" ry="17.92" style="fill:orange;fill-opacity:1;stroke:orange;stroke-width:.07928234" transform="matrix(-.72081 -.69313 -.66515 .74671 0 0)"/><ellipse cx="-281.893" cy="340.652" rx="17.87" ry="17.92" style="fill:orange;fill-opacity:1;stroke:orange;stroke-width:.07928234" transform="matrix(-.72081 -.69313 -.66515 .74671 0 0)"/><ellipse cx="-385.005" cy="247.763" rx="17.87" ry="17.92" style="fill:orange;fill-opacity:1;stroke:orange;stroke-width:.07928234" transform="matrix(-.72081 -.69313 -.66515 .74671 0 0)"/><ellipse cx="-500.973" cy="375.022" rx="17.87" ry="17.92" style="fill:#4c0000;fill-opacity:1;stroke:orange;stroke-width:.07928234" transform="matrix(-.72081 -.69313 -.66515 .74671 0 0)"/><ellipse cx="-500.973" cy="375.022" rx="17.87" ry="17.92" style="fill:orange;fill-opacity:1;stroke:orange;stroke-width:.07928234" transform="matrix(-.72081 -.69313 -.66515 .74671 0 0)"/><ellipse cx="-317.022" cy="275.431" rx="17.87" ry="17.92" style="fill:orange;fill-opacity:1;stroke:orange;stroke-width:.07928234" transform="matrix(-.72081 -.69313 -.66515 .74671 0 0)"/></g><g style="stroke:#c9c99b;filter:url(#c)" transform="translate(342.765 -320.14)scale(.55555)"><ellipse cx="46.088" cy="538.184" rx="143.525" ry="143.608" style="fill:none;stroke:#c9c99b;stroke-width:16.16086197;stroke-miterlimit:4;stroke-dasharray:none;stroke-opacity:1"/><path d="m-52.15 538.877 194.393.855m-97.56 101.571.731-205.043m-59.895 22.752c31.827 45.91 31.59 112.337-.564 157.967m119.626.526c-31.826-45.91-31.59-112.337.564-157.967m-156.997 79.006c47.256-61.201 147.653-60.441 194.481 1.184m-.314.222c-47.256 61.201-147.339 60.443-194.168-1.183" style="fill:none;stroke:#c9c99b;stroke-width:12.72536182;stroke-opacity:1"/><ellipse cx="-466.943" cy="438.428" rx="17.87" ry="17.92" style="fill:#c9c99b;fill-opacity:1;stroke:#c9c99b;stroke-width:.07928234" transform="matrix(-.72081 -.69313 -.66515 .74671 0 0)"/><ellipse cx="-478.924" cy="278.434" rx="17.87" ry="17.92" style="fill:#c9c99b;fill-opacity:1;stroke:#c9c99b;stroke-width:.07928234" transform="matrix(-.72081 -.69313 -.66515 .74671 0 0)"/><ellipse cx="-306.635" cy="436.624" rx="17.87" ry="17.92" style="fill:#c9c99b;fill-opacity:1;stroke:#c9c99b;stroke-width:.07928234" transform="matrix(-.72081 -.69313 -.66515 .74671 0 0)"/><ellipse cx="-399.743" cy="466.781" rx="17.87" ry="17.92" style="fill:#c9c99b;fill-opacity:1;stroke:#c9c99b;stroke-width:.07928234" transform="matrix(-.72081 -.69313 -.66515 .74671 0 0)"/><ellipse cx="-281.893" cy="340.652" rx="17.87" ry="17.92" style="fill:#c9c99b;fill-opacity:1;stroke:#c9c99b;stroke-width:.07928234" transform="matrix(-.72081 -.69313 -.66515 .74671 0 0)"/><ellipse cx="-385.005" cy="247.763" rx="17.87" ry="17.92" style="fill:#c9c99b;fill-opacity:1;stroke:#c9c99b;stroke-width:.07928234" transform="matrix(-.72081 -.69313 -.66515 .74671 0 0)"/><ellipse cx="-500.973" cy="375.022" rx="17.87" ry="17.92" style="fill:#4c0000;fill-opacity:1;stroke:#c9c99b;stroke-width:.07928234" transform="matrix(-.72081 -.69313 -.66515 .74671 0 0)"/><ellipse cx="-500.973" cy="375.022" rx="17.87" ry="17.92" style="fill:#c9c99b;fill-opacity:1;stroke:#c9c99b;stroke-width:.07928234" transform="matrix(-.72081 -.69313 -.66515 .74671 0 0)"/><ellipse cx="-317.022" cy="275.431" rx="17.87" ry="17.92" style="fill:#c9c99b;fill-opacity:1;stroke:#c9c99b;stroke-width:.07928234" transform="matrix(-.72081 -.69313 -.66515 .74671 0 0)"/></g><text xml:space="preserve" x="349.376" y="113.288" style="font-style:normal;font-variant:normal;font-weight:400;font-stretch:condensed;font-size:60.61663055px;line-height:0%;font-family:Impact;-inkscape-font-specification:&quot;Impact, Condensed&quot;;font-variant-ligatures:normal;font-variant-caps:normal;font-variant-numeric:normal;font-feature-settings:normal;text-align:start;writing-mode:lr-tb;text-anchor:start;fill:#abba95;fill-opacity:1;stroke:none;stroke-width:3.72871256;stroke-miterlimit:4;stroke-dasharray:none;stroke-opacity:1" transform="scale(.98263 1.01767)"><tspan x="349.376" y="113.288" style="fill:#abba95;fill-opacity:1;stroke-width:3.72871256">English</tspan></text></g></svg>