<svg xmlns="http://www.w3.org/2000/svg" xmlns:xlink="http://www.w3.org/1999/xlink" viewBox="0 0 384 384"><defs><linearGradient xlink:href="#a" id="h" x1="154.29" x2="605.71" y1="535.22" y2="535.22" gradientUnits="userSpaceOnUse"/><linearGradient id="c"><stop offset="0" stop-color="#999"/><stop offset="1" stop-color="#999" stop-opacity="0"/></linearGradient><linearGradient id="a"><stop offset="0" stop-color="#772b00"/><stop offset=".5" stop-color="#da441b"/><stop offset=".75" stop-color="#d2400f"/><stop offset=".938" stop-color="#d44316" stop-opacity=".615"/><stop offset="1" stop-color="#c33900" stop-opacity=".219"/></linearGradient><linearGradient id="b"><stop offset="0" stop-color="#fff"/><stop offset="1" stop-color="#fff" stop-opacity="0"/></linearGradient><radialGradient xlink:href="#b" id="i" cx="102.14" cy="545.93" r="135" gradientUnits="userSpaceOnUse"/><radialGradient xlink:href="#c" id="g" cx="102.14" cy="545.93" r="135" gradientUnits="userSpaceOnUse"/></defs><g transform="translate(4.463 -131.98)scale(.7502)"><circle cx="256.27" cy="422.93" r="254.48" fill="#806678" fill-rule="evenodd" opacity=".99" transform="translate(-6.288 8.931)"/><g fill-rule="evenodd"><path fill="#039" d="M426.51 533.19a203.925 203.177-.033 0 1-175.324 100.977A203.925 203.177-.033 0 1 74.948 534.78l175.313-103.79z" opacity=".99"/><path fill="#36c" d="M74.893 535.416a203.178 203.178 0 0 1-1.468-204.052 203.178 203.178 0 0 1 176.491-102.422l-.057 203.18z" opacity=".99"/><path fill="#69f" d="M249.204 229.052a203.178 203.178 0 0 1 176.54 101.575 203.178 203.178 0 0 1-.276 203.678L249.794 432.228z" opacity=".99"/></g><circle cx="256.13" cy="422.62" r="94.549" fill="gold" fill-rule="evenodd" opacity=".99" transform="translate(-6.288 8.931)"/><circle cx="313.64" cy="468.69" r="19.915" fill="#ff0" fill-rule="evenodd" opacity=".99" transform="translate(-6.288 8.931)"/><path fill="#393a7a" stroke="#393a7a" stroke-width="5.3381" d="M272.399 204.275a22.555 22.758 0 0 1-45.11 0 22.555 22.758 0 1 1 45.11 0z" color="#000"/><text xml:space="preserve" x="16.876" y="1029.505" fill="#f5f5f5" font-family="sans-serif" font-weight="bold" letter-spacing="0" style="line-height:0%" transform="matrix(.5338 0 0 .5338 224.168 -331.88)" word-spacing="0"><tspan x="16.876" y="1029.505" font-size="65.475" style="line-height:1.25">M</tspan></text><path fill="orange" stroke="orange" stroke-width="5.5508999999999995" d="M406.89 367.787a23.455 23.666 0 0 1-46.91 0 23.455 23.666 0 1 1 46.91 0z" color="#000"/><text xml:space="preserve" x="24.876" y="1029.505" fill="#f5f5f5" font-family="sans-serif" font-weight="bold" letter-spacing="0" style="line-height:0%" transform="translate(356.736 -189.745)scale(.55509)" word-spacing="0"><tspan x="24.876" y="1029.505" font-size="65.475" style="line-height:1.25">P</tspan></text><path fill="orange" stroke="orange" stroke-width="5.5628" d="M137.736 367.793a23.505 23.716 0 0 1-47.01 0 23.505 23.716 0 1 1 47.01 0z" color="#000"/><text xml:space="preserve" x="22.018" y="1032.362" fill="#f5f5f5" font-family="sans-serif" font-weight="bold" letter-spacing="0" style="line-height:0%" transform="translate(87.474 -190.936)scale(.55628)" word-spacing="0"><tspan x="22.018" y="1032.362" font-size="65.475" style="line-height:1.25">V</tspan></text><path fill="orange" d="M278.316 367.779a28.472 28.504 0 0 1-56.944 0 28.472 28.504 0 1 1 56.944 0z" color="#000"/><text xml:space="preserve" x="11.661" y="1029.148" fill="#f5f5f5" font-family="sans-serif" font-weight="bold" letter-spacing="0" style="line-height:0%" transform="translate(220.41 -251.92)scale(.617)" word-spacing="0"><tspan x="11.661" y="1029.148" font-size="65.475" style="line-height:1.25">W</tspan></text><path fill="orange" stroke="orange" stroke-width="5.5508999999999995" d="M273.3 577.307a23.455 23.666 0 0 1-46.909 0 23.455 23.666 0 1 1 46.91 0z" color="#000"/><text xml:space="preserve" x="25.59" y="1029.505" fill="#f5f5f5" font-family="sans-serif" font-weight="bold" letter-spacing="0" style="line-height:0%" transform="translate(223.147 19.774)scale(.55509)" word-spacing="0"><tspan x="25.59" y="1029.505" font-size="65.475" style="line-height:1.25">F</tspan></text><path fill="none" stroke="#ff6500" stroke-width="5.9851" d="M275.137 431.543a25.29 25.517 0 0 1-50.579 0 25.29 25.517 0 1 1 50.58 0z" color="#000"/><g transform="matrix(.1435 0 0 .1435 230.801 422.188)"><circle cx="102.14" cy="545.93" r="135" fill="url(#g)" transform="matrix(.34959 -.11439 .15509 .25785 -54.059 -75.419)"/><circle cx="380" cy="535.22" r="225.71" fill="url(#h)" transform="scale(-.24015)rotate(47.704 672.16 -474.356)"/><circle cx="102.14" cy="545.93" r="135" fill="url(#i)" opacity=".876" transform="translate(27.396 -143.71)scale(.24015)"/></g><g transform="matrix(.1435 0 0 .1435 249.116 422.188)"><circle cx="102.14" cy="545.93" r="135" fill="url(#g)" transform="matrix(.34959 -.11439 .15509 .25785 -54.059 -75.419)"/><circle cx="380" cy="535.22" r="225.71" fill="url(#h)" transform="scale(-.24015)rotate(47.704 672.16 -474.356)"/><circle cx="102.14" cy="545.93" r="135" fill="url(#i)" opacity=".876" transform="translate(27.396 -143.71)scale(.24015)"/></g><g transform="matrix(.1435 0 0 .1435 249.116 439.892)"><circle cx="102.14" cy="545.93" r="135" fill="url(#g)" transform="matrix(.34959 -.11439 .15509 .25785 -54.059 -75.419)"/><circle cx="380" cy="535.22" r="225.71" fill="url(#h)" transform="scale(-.24015)rotate(47.704 672.16 -474.356)"/><circle cx="102.14" cy="545.93" r="135" fill="url(#i)" opacity=".876" transform="translate(27.396 -143.71)scale(.24015)"/></g><g transform="matrix(.1435 0 0 .1435 230.801 439.892)"><circle cx="102.14" cy="545.93" r="135" fill="url(#g)" transform="matrix(.34959 -.11439 .15509 .25785 -54.059 -75.419)"/><circle cx="380" cy="535.22" r="225.71" fill="url(#h)" transform="scale(-.24015)rotate(47.704 672.16 -474.356)"/><circle cx="102.14" cy="545.93" r="135" fill="url(#i)" opacity=".876" transform="translate(27.396 -143.71)scale(.24015)"/></g><path fill="#f0f" fill-rule="evenodd" d="M139.982 522.601a.245.245 0 0 0-.068.015c-1.417.518-8.266 6.84-9.827 7.781-3.44 2.074-7.008 3.675-9.094 3.91-4.451.503-4.81.214-8.352.318-3.542.103-9.95-1.136-10.354.005-.405 1.14-.101 4.559.405 6.321.506 1.763 2.002 6.853 3.5 9.71.418.797 2.303 4.546 4.852 8.723 2.549 4.177 6.477 7.903 7.83 9.25 2.707 2.696 6.467 5.044 7.327 5.356 1.72.622 7.252 2.521 10.793 1.381 3.542-1.14 6.61-3.687 7.015-4.828.202-.57 2.074-4.598 2.866-9.221.79-4.623.501-9.84.4-11.032-.203-2.384-.707-10.979-1.416-13.571-.697-2.551-4.41-14.247-5.877-14.117zm-5.042 14.728c2.594-.021 5.527 2.383 5.73 2.485l-9.719 4.198c.159-5.18 1.97-6.666 3.989-6.683zm-13.698 6.85c2.594-.023 5.527 2.382 5.73 2.484l-9.719 4.198c.159-5.18 1.97-6.666 3.988-6.683zm20.327 10.88a.967.967 0 0 1 .288.025c1.26.296.905 4.43.16 6.868-1.158 3.795-3.399 5.828-5.393 6.297-1.844.434-3.914.223-7.098-1.855-4.566-2.98-6.858-5.907-5.829-6.429 1.353-.686 7.162 2.74 11.213 1.787 3.652-.86 4.75-6.585 6.659-6.693zM227.472 240.941a.246.246 0 0 0-.068.015c-1.417.518-8.267 6.84-9.827 7.781-3.44 2.074-7.008 3.675-9.094 3.91-4.451.503-4.81.214-8.353.318-3.541.103-9.949-1.136-10.354.005-.404 1.14-.1 4.559.406 6.321.506 1.763 2.002 6.853 3.5 9.71.418.797 2.303 4.546 4.852 8.723 2.549 4.177 6.477 7.903 7.83 9.25 2.707 2.696 6.467 5.045 7.327 5.356 1.72.622 7.251 2.521 10.793 1.381 3.542-1.14 6.61-3.687 7.015-4.828.202-.57 2.074-4.598 2.866-9.221.79-4.623.501-9.84.4-11.032-.203-2.384-.707-10.98-1.416-13.571-.697-2.551-4.41-14.247-5.877-14.117zm-5.043 14.728c2.595-.021 5.528 2.383 5.731 2.485l-9.719 4.198c.159-5.18 1.97-6.666 3.988-6.683zm-13.698 6.85c2.595-.023 5.528 2.382 5.731 2.484l-9.719 4.198c.159-5.18 1.97-6.666 3.988-6.683zm20.327 10.88a.967.967 0 0 1 .288.025c1.261.296.906 4.43.162 6.868-1.159 3.795-3.4 5.828-5.395 6.297-1.843.434-3.913.223-7.097-1.855-4.566-2.98-6.858-5.907-5.829-6.429 1.353-.685 7.162 2.74 11.213 1.787 3.651-.86 4.75-6.585 6.658-6.693z"/><g fill-rule="evenodd"><path fill="#f0f" d="M248.17 641.593a.207.207 0 0 0-.053.011c-1.101.403-6.423 5.315-7.635 6.046-2.674 1.61-5.446 2.855-7.066 3.038-3.459.39-3.738.166-6.49.246-2.752.081-7.73-.882-8.044.004-.315.886-.079 3.543.314 4.912.393 1.37 1.556 5.325 2.72 7.544.325.62 1.79 3.532 3.77 6.778 1.98 3.245 5.032 6.14 6.083 7.187 2.104 2.094 5.025 3.919 5.693 4.16 1.337.484 5.634 1.96 8.386 1.074s5.136-2.865 5.45-3.751c.158-.443 1.612-3.573 2.227-7.165s.39-7.645.311-8.571c-.157-1.853-.55-8.53-1.1-10.544-.542-1.983-3.426-11.07-4.566-10.97zm-3.918 11.443c2.015-.017 4.295 1.851 4.453 1.93l-7.552 3.262c.123-4.025 1.531-5.18 3.099-5.192zm-10.643 5.321c2.016-.017 4.295 1.852 4.453 1.93l-7.552 3.262c.124-4.025 1.532-5.179 3.1-5.192zm15.793 8.454a.776.776 0 0 1 .224.02c.98.23.703 3.441.125 5.336-.9 2.948-2.642 4.528-4.191 4.892-1.432.337-3.04.174-5.515-1.44-3.548-2.316-5.328-4.59-4.529-4.996 1.051-.533 5.565 2.129 8.713 1.388 2.837-.667 3.69-5.116 5.173-5.2z"/><path fill="#a40000" d="M262.588 642.617a.209.209 0 0 0-.038.004c-.761.15-2.573 1.594-3.399 2.568-.826.973-3.202 3.803-4.331 5.825-.315.565-1.82 3.166-3.36 6.357-1.541 3.192-2.406 7.125-2.739 8.504-.665 2.756-.813 6.077-.72 6.755.185 1.354.84 5.674 2.57 7.581 1.733 1.908 4.106 2.995 4.867 2.845.38-.075 3.2-.316 6.023-1.48 2.822-1.163 5.644-3.25 6.277-3.75 1.267-1 5.901-4.46 7.127-5.868 1.226-1.407 6.754-8.29 6.027-9.03s-6.374-2.934-7.381-3.615c-2.22-1.502-4.218-3.261-4.995-4.544-1.658-2.736-1.604-3.074-2.758-5.359-1.135-2.25-2.405-6.794-3.17-6.793zm-1.468 14.636c3.26-.042 2.35 5.694 2.359 5.94l-5.348-4.851c1.259-.764 2.236-1.079 2.989-1.089zm8.056 6.49c3.26-.043 2.35 5.693 2.359 5.94l-5.348-4.848c1.26-.763 2.236-1.083 2.989-1.092zm-12.434 4.771c1.542-.003 2.691.554 3.327 1.316.783.94 1.29 2.221 1.122 4.764-.24 3.646-1.13 5.94-1.718 5.507-.771-.57-.665-5.085-2.385-7.15-1.627-1.952-5.292-.52-5.652-1.907-.216-.836 2.11-1.972 3.642-2.329a7.392 7.392 0 0 1 1.665-.201z"/></g><path fill="#a40000" fill-rule="evenodd" d="M416.002 456.631a.272.272 0 0 0-.057.006c-1.136.224-3.841 2.382-5.075 3.835-1.234 1.454-4.783 5.682-6.47 8.702-.47.843-2.718 4.727-5.019 9.494-2.3 4.767-3.593 10.642-4.09 12.701-.994 4.117-1.215 9.078-1.076 10.09.277 2.022 1.254 8.474 3.84 11.323 2.587 2.85 6.132 4.472 7.269 4.249.568-.112 4.78-.472 8.996-2.21 4.215-1.737 8.429-4.855 9.375-5.602 1.892-1.494 8.813-6.66 10.644-8.764 1.83-2.102 10.088-12.382 9.001-13.488-1.086-1.106-9.52-4.38-11.024-5.398-3.316-2.244-6.3-4.872-7.46-6.787-2.476-4.086-2.396-4.591-4.119-8.004-1.696-3.36-3.592-10.148-4.735-10.146zm-2.192 21.861c4.87-.063 3.51 8.504 3.523 8.872l-7.987-7.246c1.88-1.14 3.34-1.611 4.464-1.626zm12.032 9.693c4.87-.063 3.51 8.504 3.523 8.871l-7.987-7.24c1.88-1.14 3.34-1.616 4.464-1.631zm-18.57 7.126c2.302-.004 4.02.827 4.968 1.966 1.169 1.403 1.926 3.317 1.677 7.115-.358 5.446-1.69 8.873-2.566 8.226-1.153-.851-.994-7.595-3.564-10.678-2.43-2.917-7.903-.777-8.44-2.85-.324-1.248 3.15-2.945 5.438-3.478.89-.207 1.72-.299 2.487-.3z"/><path fill="orange" stroke="orange" stroke-width="2.4928" d="M314.803 469.817a10.533 10.628 0 0 1-21.066 0 10.533 10.628 0 1 1 21.066 0z" color="#000"/><text xml:space="preserve" x="24.876" y="1029.505" fill="#f5f5f5" font-family="sans-serif" font-weight="bold" letter-spacing="0" style="line-height:0%" transform="translate(292.28 219.44)scale(.24928)" word-spacing="0"><tspan x="24.876" y="1029.505" font-size="65.475" style="line-height:1.25">B</tspan></text><path fill="orange" stroke="orange" stroke-width="2.4928" d="M208.795 469.818a10.533 10.628 0 0 1-21.066 0 10.533 10.628 0 1 1 21.066 0z" color="#000"/><text xml:space="preserve" x="194.033" y="468.879" fill="#f5f5f5" stroke-width=".109" font-family="'Arial Black'" font-size="17.431" letter-spacing="0" style="font-feature-settings:normal;font-variant-caps:normal;font-variant-ligatures:normal;font-variant-numeric:normal;line-height:0%" transform="translate(-2.288 6.931)" word-spacing="0"><tspan x="194.033" y="468.879">S</tspan></text><text xml:space="preserve" x="227.726" y="404.882" stroke-width=".638" font-family="'DejaVu Sans Mono'" font-size="7.655" letter-spacing="0" style="line-height:0%" word-spacing="0"><tspan x="227.726" y="404.882" font-size="10.561" style="line-height:1">WORDNET</tspan></text><text xml:space="preserve" x="223.948" y="616.194" fill="#fff" stroke-width=".638" font-family="'DejaVu Sans Mono'" font-size="7.655" letter-spacing="0" style="line-height:0%" word-spacing="0"><tspan x="223.948" y="616.194" font-size="10.561" style="line-height:1">FRAMENET</tspan></text><text xml:space="preserve" x="90.977" y="335.491" fill="#fff" stroke-width=".638" font-family="'DejaVu Sans Mono'" font-size="7.655" letter-spacing="0" style="line-height:0%" word-spacing="0"><tspan x="90.977" y="335.491" font-size="10.561" style="line-height:1">VERBNET</tspan></text><text xml:space="preserve" x="294.801" y="491.583" fill="#666" stroke-width=".638" font-family="'DejaVu Sans Mono'" font-size="7.655" letter-spacing="0" style="line-height:0%" word-spacing="0"><tspan x="294.801" y="491.583" font-size="10.561" style="line-height:1">BNC</tspan></text><text xml:space="preserve" x="354.04" y="335.486" fill="#fff" stroke-width=".638" font-family="'DejaVu Sans'" font-size="7.655" letter-spacing="0" style="line-height:0%" word-spacing="0"><tspan x="354.04" y="335.486" font-size="10.561" style="line-height:1">PROPBANK</tspan></text><text xml:space="preserve" x="198.698" y="231.763" fill="#fff" stroke-width=".638" font-family="'DejaVu Sans'" font-size="7.655" letter-spacing="0" style="line-height:0%" word-spacing="0"><tspan x="198.698" y="231.763" font-size="10.561" style="line-height:1">PREDICATE MATRIX</tspan></text><text xml:space="preserve" x="195.4" y="443.81" fill="#666" stroke-width=".793" font-family="'DejaVu Sans Mono'" font-size="9.511" letter-spacing="0" style="font-feature-settings:normal;font-variant-caps:normal;font-variant-ligatures:normal;font-variant-numeric:normal;line-height:0%" transform="scale(.90449 1.1056)" word-spacing="0"><tspan x="195.4" y="443.81">SYNTAGNET</tspan></text></g></svg>