<svg xmlns="http://www.w3.org/2000/svg" xmlns:xlink="http://www.w3.org/1999/xlink" width="128" height="128"><path d="M126.474 1020.348a62.452 62.498 0 0 1-124.903 0 62.452 62.498 0 1 1 124.903 0z" style="fill:#b5835a;fill-opacity:1;fill-rule:nonzero;stroke:#986a44;stroke-width:2.69538;stroke-linecap:butt;stroke-linejoin:round;stroke-miterlimit:4;stroke-dasharray:none;stroke-dashoffset:0;stroke-opacity:1" transform="translate(0 -956.362)"/><defs><linearGradient id="a" gradientTransform="matrix(0 0 0 0 218086310000 623033510000)"><stop offset="0" style="stop-color:#666;stop-opacity:1"/></linearGradient></defs><use xlink:href="#g5796" width="1250" height="1250" transform="matrix(.9964 0 0 .99792 -1246.53 -889.596)"/><use xlink:href="#g5796" width="1250" height="1250" transform="matrix(.98862 0 0 .99792 -1245.935 -869.033)"/><use xlink:href="#rect4442" width="1250" height="1250" transform="translate(-1084.102 -514.172)"/><use xlink:href="#g5772" width="1250" height="1250" transform="matrix(.69291 0 0 .70953 -1400.888 -814.014)"/><use xlink:href="#g5772" width="1250" height="1250" transform="matrix(.69583 0 0 .74192 -1416.894 -819.428)"/><use xlink:href="#g5772" width="1250" height="1250" transform="matrix(.69583 0 0 .74192 -1372.894 -821.928)"/><use xlink:href="#g5772" width="1250" height="1250" transform="matrix(.62898 0 0 1.16243 -1298.135 -924.15)"/><use xlink:href="#rect10675" width="1250" height="1250" transform="translate(-545.064 -795.336)"/><use xlink:href="#use5758" width="1250" height="1250" transform="translate(-544.098 -778.614)"/><use xlink:href="#g6043" width="1250" height="1250" transform="translate(-548.113 -854.691)"/><use xlink:href="#rect10675" width="1250" height="1250" transform="translate(-503.081 -794.39)"/><use xlink:href="#rect10675" width="1250" height="1250" transform="translate(-515.081 -782.39)"/><use xlink:href="#g6043" width="1250" height="1250" transform="translate(-529.064 -860.734)"/><use xlink:href="#rect10675" width="1250" height="1250" transform="translate(-484.033 -800.432)"/><use xlink:href="#rect10675" width="1250" height="1250" transform="translate(-496.033 -788.432)"/><use xlink:href="#use5756-0-3" width="1250" height="1250" style="stroke:url(#a);stroke-opacity:1" transform="matrix(1.13774 0 0 1.13997 -736.397 -790.782)"/><use xlink:href="#use5756-0-3" width="1250" height="1250" style="stroke:url(#a);stroke-opacity:1" transform="matrix(1.13774 0 0 1.13997 -741.397 -783.554)"/><use xlink:href="#use5756-0-3" width="1250" height="1250" style="stroke:url(#a);stroke-opacity:1" transform="matrix(1.13774 0 0 1.13997 -728.804 -779.904)"/><use xlink:href="#g5796" width="1250" height="1250" transform="matrix(.9964 0 0 .99792 -1424.55 -826.29)"/><use xlink:href="#g5796" width="1250" height="1250" transform="matrix(.98862 0 0 .99792 -1423.955 -805.727)"/><use xlink:href="#rect4442" width="1250" height="1250" transform="translate(-1262.122 -450.866)"/><use xlink:href="#g5772" width="1250" height="1250" transform="matrix(.69291 0 0 .70953 -1578.908 -750.708)"/><use xlink:href="#g5772" width="1250" height="1250" transform="matrix(.69583 0 0 .74192 -1594.914 -756.122)"/><use xlink:href="#g5772" width="1250" height="1250" transform="matrix(.69583 0 0 .74192 -1550.914 -758.622)"/><use xlink:href="#g5772" width="1250" height="1250" transform="matrix(.62898 0 0 1.16243 -1476.155 -860.843)"/><use xlink:href="#rect10675" width="1250" height="1250" transform="translate(-723.084 -732.03)"/><use xlink:href="#use5758" width="1250" height="1250" transform="translate(-722.118 -715.307)"/><use xlink:href="#g6043" width="1250" height="1250" transform="translate(-726.133 -791.385)"/><use xlink:href="#rect10675" width="1250" height="1250" transform="translate(-681.101 -731.083)"/><use xlink:href="#rect10675" width="1250" height="1250" transform="translate(-693.101 -719.083)"/><use xlink:href="#g6043" width="1250" height="1250" transform="translate(-707.084 -797.427)"/><use xlink:href="#rect10675" width="1250" height="1250" transform="translate(-662.053 -737.126)"/><use xlink:href="#rect10675" width="1250" height="1250" transform="translate(-674.053 -725.126)"/><use xlink:href="#use5756-0-3" width="1250" height="1250" style="stroke:url(#a);stroke-opacity:1" transform="matrix(1.13774 0 0 1.13997 -914.417 -727.476)"/><use xlink:href="#use5756-0-3" width="1250" height="1250" style="stroke:url(#a);stroke-opacity:1" transform="matrix(1.13774 0 0 1.13997 -919.417 -720.247)"/><use xlink:href="#use5756-0-3" width="1250" height="1250" style="stroke:url(#a);stroke-opacity:1" transform="matrix(1.13774 0 0 1.13997 -906.824 -716.597)"/><path d="M-465.63-92.804c0 38.429 31.263 69.693 69.694 69.693 38.43 0 69.693-31.262 69.693-69.693 0-38.427-31.263-69.693-69.693-69.693-38.43 0-69.694 31.266-69.694 69.693zm86.066 430.665a22.204 22.204 0 0 1-32.744 0c-1.832-2.001-33.857-37.078-74.61-88.04l-184.254 63.156 274.655 94.465 275.815-94.538-184.073-63.311c-40.84 51.083-72.954 86.263-74.79 88.268z" style="fill:none;stroke-width:1.84975"/><path d="M20.957 51.752c0 12.19 18.754 36.043 28.219 46.81 9.464-10.77 28.219-34.628 28.219-46.81 0-15.56-12.66-28.22-28.22-28.22-15.56 0-28.218 12.66-28.218 28.22zm28.219-16.104c7.971 0 14.456 6.485 14.456 14.457s-6.485 14.457-14.456 14.457c-7.972 0-14.457-6.485-14.457-14.457s6.485-14.457 14.457-14.457z" style="fill:#000;stroke-width:.234396" transform="translate(9.623 10.077)scale(.8833)"/><path d="M45.73 51.752c0 12.19 18.753 36.043 28.218 46.81 9.465-10.77 28.22-34.628 28.22-46.81 0-15.56-12.66-28.22-28.22-28.22-15.56 0-28.219 12.66-28.219 28.22zm28.218-16.104c7.972 0 14.457 6.485 14.457 14.457S81.92 64.562 73.948 64.562s-14.457-6.485-14.457-14.457 6.485-14.457 14.457-14.457z" style="fill:#fff;stroke-width:.234396" transform="translate(9.623 10.077)scale(.8833)"/></svg>