<svg xmlns="http://www.w3.org/2000/svg" width="128" height="128"><path d="M64.09 2.836 2.899 64.103l61.193 61.266 61.193-61.266Z" style="fill:#00c8fc;fill-opacity:1;stroke:#008cec;stroke-width:3.86401;stroke-opacity:1"/><path d="M64 26.5c-20.712 0-37.5 16.81-37.5 37.5s16.788 37.5 37.5 37.5 37.5-16.81 37.5-37.5S84.712 26.5 64 26.5ZM47.445 49.96h6.677v20.755c0 3.27.785 5.68 2.287 7.326 1.501 1.625 3.764 2.442 6.768 2.442 3.61 0 6.423-.924 8.506-2.878 2.107-1.955 3.11-4.65 3.11-8.024V49.96h6.768v34.535h-6.768v-5.232c-1.623 2.098-3.515 3.593-5.671 4.622-2.132 1.008-4.574 1.57-7.409 1.57-4.675 0-8.187-1.282-10.61-3.75-2.422-2.469-3.658-6.063-3.658-10.814z" style="fill:#342e2e;fill-opacity:1;fill-rule:evenodd;stroke:none;stroke-width:2.85796"/></svg>