<svg xmlns="http://www.w3.org/2000/svg" width="128" height="128"><path d="M64.09 2.836 2.899 64.103l61.193 61.266 61.193-61.266Z" style="fill:#00c8fc;fill-opacity:1;stroke:#008cec;stroke-width:3.86401;stroke-opacity:1"/><path d="M64.046 26.5C43.359 26.5 26.5 43.31 26.5 64s16.859 37.5 37.546 37.5c20.687 0 37.454-16.81 37.454-37.5S84.733 26.5 64.046 26.5Zm3.014 23.198c2.057 0 4.07.24 6.03.61 1.96.35 3.916.85 5.755 1.57v5.32c-1.888-.885-3.844-1.574-5.755-2.006-1.888-.453-3.729-.61-5.664-.61-4.331 0-7.745 1.143-10.14 3.488-2.396 2.324-3.563 5.55-3.563 9.767s1.167 7.51 3.563 9.855c2.395 2.324 5.809 3.488 10.14 3.488 1.935 0 3.776-.178 5.664-.61a29.845 29.845 0 0 0 5.755-2.006v5.233a31.173 31.173 0 0 1-5.847 1.656c-1.984.37-4.053.524-6.303.524-6.121 0-11.011-1.613-14.616-4.884-3.605-3.27-5.39-7.702-5.39-13.256 0-5.636 1.76-10.026 5.39-13.256 3.653-3.23 8.642-4.883 14.981-4.883z" style="fill:#342e2e;fill-opacity:1;fill-rule:evenodd;stroke:none;stroke-width:2.85623"/></svg>