<svg xmlns="http://www.w3.org/2000/svg" width="128" height="128"><path d="M126.474 1020.348a62.452 62.498 0 0 1-124.903 0 62.452 62.498 0 1 1 124.903 0z" style="fill:orange;fill-opacity:1;fill-rule:nonzero;stroke:#ff8c00;stroke-width:2.69538;stroke-linecap:butt;stroke-linejoin:round;stroke-miterlimit:4;stroke-dasharray:none;stroke-dashoffset:0;stroke-opacity:1" transform="translate(0 -956.362)"/><text xml:space="preserve" x="60.769" y="84.603" style="font-style:normal;font-variant:normal;font-weight:400;font-stretch:normal;line-height:0%;font-family:sans-serif;-inkscape-font-specification:Sans;text-align:start;letter-spacing:0;word-spacing:0;writing-mode:lr-tb;text-anchor:start;fill:#000;fill-opacity:1;stroke:none" transform="translate(.574 -.574)">
        <tspan x="60.769" y="84.603" style="font-size:40px;line-height:1.25;font-family:sans-serif">p</tspan>
      </text><path d="M34.957 23.605c-6.925 0-12.5 5.575-12.5 12.5v56.938c0 6.925 5.575 12.5 12.5 12.5h56.938c6.925 0 12.5-5.575 12.5-12.5V36.105c0-6.925-5.575-12.5-12.5-12.5zm22.72 28.25H89.52c3.873 0 7 3.095 7 6.969v31.844c0 3.873-3.127 7-7 7H57.676a6.99 6.99 0 0 1-7-7V58.824c0-3.874 3.127-6.969 7-6.969z" style="fill:#000;fill-opacity:1;fill-rule:evenodd;stroke:none" transform="translate(.574 -.574)"/></svg>