<svg xmlns="http://www.w3.org/2000/svg" xmlns:xlink="http://www.w3.org/1999/xlink" width="128" height="128"><path d="M126.628 1020.452a62.527 62.487 0 0 1-125.055 0 62.527 62.487 0 1 1 125.055 0z" style="fill:#ed969e;fill-opacity:1;fill-rule:nonzero;stroke:#e25563;stroke-width:2.69678;stroke-linecap:butt;stroke-linejoin:round;stroke-miterlimit:4;stroke-dasharray:none;stroke-dashoffset:0;stroke-opacity:1" transform="translate(0 -956.362)"/><g><defs><linearGradient id="a" gradientTransform="matrix(0 0 0 0 218086310000 623033510000)"><stop offset="0" style="stop-color:#666;stop-opacity:1"/></linearGradient></defs><use xlink:href="#g5796" width="1250" height="1250" transform="matrix(.9964 0 0 .99792 -1246.53 -889.596)"/><use xlink:href="#g5796" width="1250" height="1250" transform="matrix(.98862 0 0 .99792 -1245.935 -869.033)"/><use xlink:href="#rect4442" width="1250" height="1250" transform="translate(-1084.102 -514.172)"/><use xlink:href="#g5772" width="1250" height="1250" transform="matrix(.69291 0 0 .70953 -1400.888 -814.014)"/><use xlink:href="#g5772" width="1250" height="1250" transform="matrix(.69583 0 0 .74192 -1416.894 -819.428)"/><use xlink:href="#g5772" width="1250" height="1250" transform="matrix(.69583 0 0 .74192 -1372.894 -821.928)"/><use xlink:href="#g5772" width="1250" height="1250" transform="matrix(.62898 0 0 1.16243 -1298.135 -924.15)"/><use xlink:href="#rect10675" width="1250" height="1250" transform="translate(-545.064 -795.336)"/><use xlink:href="#use5758" width="1250" height="1250" transform="translate(-544.098 -778.614)"/><use xlink:href="#g6043" width="1250" height="1250" transform="translate(-548.113 -854.691)"/><use xlink:href="#rect10675" width="1250" height="1250" transform="translate(-503.081 -794.39)"/><use xlink:href="#rect10675" width="1250" height="1250" transform="translate(-515.081 -782.39)"/><use xlink:href="#g6043" width="1250" height="1250" transform="translate(-529.064 -860.734)"/><use xlink:href="#rect10675" width="1250" height="1250" transform="translate(-484.033 -800.432)"/><use xlink:href="#rect10675" width="1250" height="1250" transform="translate(-496.033 -788.432)"/><use xlink:href="#use5756-0-3" width="1250" height="1250" style="stroke:url(#a);stroke-opacity:1" transform="matrix(1.13774 0 0 1.13997 -736.397 -790.782)"/><use xlink:href="#use5756-0-3" width="1250" height="1250" style="stroke:url(#a);stroke-opacity:1" transform="matrix(1.13774 0 0 1.13997 -741.397 -783.554)"/><use xlink:href="#use5756-0-3" width="1250" height="1250" style="stroke:url(#a);stroke-opacity:1" transform="matrix(1.13774 0 0 1.13997 -728.804 -779.904)"/><use xlink:href="#g5796" width="1250" height="1250" transform="matrix(.9964 0 0 .99792 -1424.55 -826.29)"/><use xlink:href="#g5796" width="1250" height="1250" transform="matrix(.98862 0 0 .99792 -1423.955 -805.727)"/><use xlink:href="#rect4442" width="1250" height="1250" transform="translate(-1262.122 -450.866)"/><use xlink:href="#g5772" width="1250" height="1250" transform="matrix(.69291 0 0 .70953 -1578.908 -750.708)"/><use xlink:href="#g5772" width="1250" height="1250" transform="matrix(.69583 0 0 .74192 -1594.914 -756.122)"/><use xlink:href="#g5772" width="1250" height="1250" transform="matrix(.69583 0 0 .74192 -1550.914 -758.622)"/><use xlink:href="#g5772" width="1250" height="1250" transform="matrix(.62898 0 0 1.16243 -1476.155 -860.843)"/><use xlink:href="#rect10675" width="1250" height="1250" transform="translate(-723.084 -732.03)"/><use xlink:href="#use5758" width="1250" height="1250" transform="translate(-722.118 -715.307)"/><use xlink:href="#g6043" width="1250" height="1250" transform="translate(-726.133 -791.385)"/><use xlink:href="#rect10675" width="1250" height="1250" transform="translate(-681.101 -731.083)"/><use xlink:href="#rect10675" width="1250" height="1250" transform="translate(-693.101 -719.083)"/><use xlink:href="#g6043" width="1250" height="1250" transform="translate(-707.084 -797.427)"/><use xlink:href="#rect10675" width="1250" height="1250" transform="translate(-662.053 -737.126)"/><use xlink:href="#rect10675" width="1250" height="1250" transform="translate(-674.053 -725.126)"/><use xlink:href="#use5756-0-3" width="1250" height="1250" style="stroke:url(#a);stroke-opacity:1" transform="matrix(1.13774 0 0 1.13997 -914.417 -727.476)"/><use xlink:href="#use5756-0-3" width="1250" height="1250" style="stroke:url(#a);stroke-opacity:1" transform="matrix(1.13774 0 0 1.13997 -919.417 -720.247)"/><use xlink:href="#use5756-0-3" width="1250" height="1250" style="stroke:url(#a);stroke-opacity:1" transform="matrix(1.13774 0 0 1.13997 -906.824 -716.597)"/><path d="M74.732 32.577a2.942 2.942 0 0 1 .452 4.159 2.931 2.931 0 0 1-2.296 1.103c-9.891 0-16.871 3.526-21.392 7.016l-6.094 6.184v6.727a2.97 2.97 0 0 1-.868 2.098l-7.595 7.63a2.947 2.947 0 0 1-4.177 0l-15.225-15.26a2.947 2.947 0 0 1 0-4.177l7.612-7.631a2.94 2.94 0 0 1 2.098-.868h6.239C43.323 28.29 53.449 26.12 61.387 27.17a29.604 29.604 0 0 1 12.297 4.63z"/><path d="M196.7 114.5c4.5.1 8.8 2 11.8 5.4l299.3 282.9c5.9 6.5 5.6 16.4-.6 22.6l-49.1 49.1c-6.4 6.4-16.7 6.4-23.1 0l-1.6-1.9-282.9-299.3c-4.8-6.5-4.1-15.6 1.6-21.3l32.7-32.7c3.1-3.1 7.5-4.9 11.9-4.8z" style="fill-rule:evenodd;clip-rule:evenodd" transform="translate(16.669 21.022)scale(.18083)"/></g></svg>