<svg xmlns="http://www.w3.org/2000/svg" xmlns:xlink="http://www.w3.org/1999/xlink" width="128" height="128"><path d="M126.628 1020.452a62.527 62.487 0 0 1-125.055 0 62.527 62.487 0 1 1 125.055 0z" style="fill:#ed969e;fill-opacity:1;fill-rule:nonzero;stroke:#e25563;stroke-width:2.69678;stroke-linecap:butt;stroke-linejoin:round;stroke-miterlimit:4;stroke-dasharray:none;stroke-dashoffset:0;stroke-opacity:1" transform="translate(0 -956.362)"/><defs><linearGradient id="a" gradientTransform="matrix(0 0 0 0 218086300000 623033510000)"><stop offset="0" style="stop-color:#666;stop-opacity:1"/></linearGradient></defs><path fill="#451c54" d="m232.048 376.949-20.714-20.714a1.794 1.794 0 0 0-2.529 0l-20.714 20.714a1.793 1.793 0 0 0 0 2.528l20.714 20.714a1.794 1.794 0 0 0 2.529 0l20.714-20.714a1.793 1.793 0 0 0 0-2.528zm-12.214-.361-6.357 4.954c-.775.605-1.41.294-1.41-.688v-2.699H209a.897.897 0 0 0-.895.894v7.142a.897.897 0 0 1-.895.894h-3.575a.898.898 0 0 1-.894-.894v-12.506c0-.491.402-.894.894-.894h8.431v-2.665c0-.983.635-1.293 1.41-.689l6.357 4.955c.777.603.777 1.591.001 2.196z" style="fill:#000" transform="translate(-327.3 -640.503)scale(1.86272)"/><use xlink:href="#g5796" width="1250" height="1250" transform="matrix(.9964 0 0 .99792 -2256.084 -427.163)"/><use xlink:href="#g5796" width="1250" height="1250" transform="matrix(.98862 0 0 .99792 -2255.49 -406.6)"/><use xlink:href="#rect4442" width="1250" height="1250" transform="translate(-2093.657 -51.739)"/><use xlink:href="#g5772" width="1250" height="1250" transform="matrix(.69291 0 0 .70953 -2410.443 -351.581)"/><use xlink:href="#g5772" width="1250" height="1250" transform="matrix(.69583 0 0 .74192 -2426.449 -356.995)"/><use xlink:href="#g5772" width="1250" height="1250" transform="matrix(.69583 0 0 .74192 -2382.449 -359.495)"/><use xlink:href="#g5772" width="1250" height="1250" transform="matrix(.62898 0 0 1.16243 -2307.69 -461.717)"/><use xlink:href="#rect10675" width="1250" height="1250" transform="translate(-1554.619 -332.903)"/><use xlink:href="#use5758" width="1250" height="1250" transform="translate(-1553.653 -316.18)"/><use xlink:href="#g6043" width="1250" height="1250" transform="translate(-1557.668 -392.258)"/><use xlink:href="#rect10675" width="1250" height="1250" transform="translate(-1512.636 -331.957)"/><use xlink:href="#rect10675" width="1250" height="1250" transform="translate(-1524.636 -319.957)"/><use xlink:href="#g6043" width="1250" height="1250" transform="translate(-1538.619 -398.3)"/><use xlink:href="#rect10675" width="1250" height="1250" transform="translate(-1493.587 -337.999)"/><use xlink:href="#rect10675" width="1250" height="1250" transform="translate(-1505.587 -325.999)"/><use xlink:href="#use5756-0-3" width="1250" height="1250" style="stroke:url(#a);stroke-opacity:1" transform="matrix(1.13774 0 0 1.13997 -1745.952 -328.35)"/><use xlink:href="#use5756-0-3" width="1250" height="1250" style="stroke:url(#a);stroke-opacity:1" transform="matrix(1.13774 0 0 1.13997 -1750.951 -321.12)"/><use xlink:href="#use5756-0-3" width="1250" height="1250" style="stroke:url(#a);stroke-opacity:1" transform="matrix(1.13774 0 0 1.13997 -1738.359 -317.47)"/><use xlink:href="#g5796" width="1250" height="1250" transform="matrix(.9964 0 0 .99792 -2434.104 -363.856)"/><use xlink:href="#g5796" width="1250" height="1250" transform="matrix(.98862 0 0 .99792 -2433.51 -343.294)"/><use xlink:href="#rect4442" width="1250" height="1250" transform="translate(-2271.677 11.567)"/><use xlink:href="#g5772" width="1250" height="1250" transform="matrix(.69291 0 0 .70953 -2588.463 -288.275)"/><use xlink:href="#g5772" width="1250" height="1250" transform="matrix(.69583 0 0 .74192 -2604.469 -293.689)"/><use xlink:href="#g5772" width="1250" height="1250" transform="matrix(.69583 0 0 .74192 -2560.469 -296.189)"/><use xlink:href="#g5772" width="1250" height="1250" transform="matrix(.62898 0 0 1.16243 -2485.71 -398.41)"/><use xlink:href="#rect10675" width="1250" height="1250" transform="translate(-1732.639 -269.597)"/><use xlink:href="#use5758" width="1250" height="1250" transform="translate(-1731.673 -252.874)"/><use xlink:href="#g6043" width="1250" height="1250" transform="translate(-1735.688 -328.952)"/><use xlink:href="#rect10675" width="1250" height="1250" transform="translate(-1690.656 -268.65)"/><use xlink:href="#rect10675" width="1250" height="1250" transform="translate(-1702.656 -256.65)"/><use xlink:href="#g6043" width="1250" height="1250" transform="translate(-1716.639 -334.994)"/><use xlink:href="#rect10675" width="1250" height="1250" transform="translate(-1671.607 -274.693)"/><use xlink:href="#rect10675" width="1250" height="1250" transform="translate(-1683.607 -262.693)"/><use xlink:href="#use5756-0-3" width="1250" height="1250" style="stroke:url(#a);stroke-opacity:1" transform="matrix(1.13774 0 0 1.13997 -1923.972 -265.043)"/><use xlink:href="#use5756-0-3" width="1250" height="1250" style="stroke:url(#a);stroke-opacity:1" transform="matrix(1.13774 0 0 1.13997 -1928.972 -257.815)"/><use xlink:href="#use5756-0-3" width="1250" height="1250" style="stroke:url(#a);stroke-opacity:1" transform="matrix(1.13774 0 0 1.13997 -1916.379 -254.164)"/></svg>