<svg xmlns="http://www.w3.org/2000/svg" width="360" height="360" version="1.0"><path d="M222.756 78.047a.946.946 0 0 0-.5.052c-5.071 1.95-29.598 25.73-35.182 29.268-12.315 7.803-25.085 13.834-32.55 14.722-15.93 1.893-17.205.806-29.882 1.197-12.677.39-35.61-4.279-37.06.012-1.448 4.292-.365 17.168 1.446 23.8 1.81 6.633 7.166 25.787 12.528 36.536 1.497 3 8.244 17.096 17.366 32.814 9.121 15.717 23.177 29.748 28.022 34.82 9.688 10.143 23.145 18.986 26.224 20.157 6.157 2.34 25.97 9.488 38.647 5.196 12.677-4.291 23.658-13.885 25.106-18.177.725-2.146 7.411-17.3 10.243-34.697 2.832-17.396 1.808-37.031 1.446-41.518-.725-8.973-2.537-41.302-5.072-51.055-2.456-9.449-15.367-52.236-20.782-53.127zm-18.31 55.405c9.284-.083 19.794 8.973 20.522 9.356l-34.793 15.796c.568-19.496 7.049-25.089 14.27-25.152zm-49.02 25.773c9.284-.082 19.788 8.974 20.516 9.357l-34.787 15.796c.568-19.496 7.05-25.089 14.27-25.153zm72.42 40.994a3.38 3.38 0 0 1 1.366.058c4.513 1.116 3.237 16.663.574 25.839-4.145 14.281-12.172 21.93-19.311 23.696-6.598 1.632-13.998.845-25.397-6.976-16.342-11.212-24.544-22.232-20.862-24.194 4.841-2.58 25.626 10.303 40.124 6.716 12.855-3.18 16.878-24.067 23.506-25.14z" style="fill:gray;fill-opacity:1;fill-rule:evenodd;stroke:none;stroke-width:4.41695356"/><path d="M324.292 180.012a144.292 145.59 0 0 1-288.584 0 144.292 145.59 0 1 1 288.584 0z" style="color:#000;fill:none;fill-opacity:1;stroke:gray;stroke-width:34.14880753;stroke-miterlimit:4;stroke-dasharray:none;stroke-opacity:1"/></svg>