<svg xmlns="http://www.w3.org/2000/svg" xml:space="preserve" width="128" height="64"><path d="M74.633 2.648v57.047h46.53V2.648h-46.53zm6.181 10.561h34.102v7.486H80.814V13.21zm0 13.742h34.102v7.485H80.814V26.95zm0 15.049h34.102v7.486H80.814V42z" style="fill:#dcdcdc;fill-opacity:1;fill-rule:nonzero;stroke:none"/><text xml:space="preserve" x="9.091" y="172.79" style="font-style:normal;font-variant:normal;font-weight:400;font-stretch:normal;font-size:15px;line-height:100%;font-family:&quot;DejaVu Sans&quot;;-inkscape-font-specification:&quot;DejaVu Sans, Normal&quot;;text-align:start;letter-spacing:0;word-spacing:0;writing-mode:lr-tb;text-anchor:start;fill:#000;fill-opacity:1;stroke:none;stroke-width:1px;stroke-linecap:butt;stroke-linejoin:miter;stroke-opacity:1"/><g style="stroke:none"><path d="M-29.941 213.15a31.284 31.566 0 0 0-32.2 31.553 31.284 31.566 0 0 0 62.569 0 31.284 31.566 0 0 0-30.37-31.553zm-18.45 16.166h8.172l8.362 23.27 8.341-23.27h8.172l-11.677 31.526h-9.694l-11.676-31.526z" style="color:#000;fill:#dcdcdc;stroke:none;stroke-width:10;stroke-miterlimit:4;stroke-dasharray:none;stroke-opacity:1" transform="matrix(.98063 0 0 .98063 62.434 -207.694)"/></g></svg>