<svg xmlns="http://www.w3.org/2000/svg" xml:space="preserve" width="128" height="64"><path d="M74.633 2.648v57.047h46.53V2.648h-46.53zm6.181 10.561h34.102v7.486H80.814V13.21zm0 13.742h34.102v7.485H80.814V26.95zm0 15.049h34.102v7.486H80.814V42z" style="fill:#dcdcdc;fill-opacity:1;fill-rule:nonzero;stroke:none"/><g style="stroke:none"><path d="M-29.941 213.15a31.284 31.566 0 0 0-32.2 31.553 31.284 31.566 0 0 0 62.569 0 31.284 31.566 0 0 0-30.37-31.553zm-18.45 16.166h8.172l8.362 23.27 8.341-23.27h8.172l-11.677 31.526h-9.694l-11.676-31.526z" style="color:#000;fill:#dcdcdc;stroke:none;stroke-width:10;stroke-miterlimit:4;stroke-dasharray:none;stroke-opacity:1" transform="translate(62.434 -207.694)scale(.98063)"/></g></svg>