<svg xmlns="http://www.w3.org/2000/svg" xml:space="preserve" width="128" height="128"><defs><clipPath id="a" clipPathUnits="userSpaceOnUse"><path d="M126.293 63.905a61.63 62.957 0 1 1-123.259 0 61.63 62.957 0 1 1 123.26 0z" style="fill:red;fill-opacity:1;fill-rule:evenodd;stroke:none" transform="translate(787.561 700.502)scale(.12973)"/></clipPath></defs><g clip-path="url(#a)" transform="translate(-6070.79 -5399.71)scale(7.70834)"><path d="M509.778 597.159c-12.427 0-22.5 10.074-22.5 22.5 0 12.428 10.073 22.5 22.5 22.5s22.5-10.072 22.5-22.5c-.001-12.426-10.073-22.5-22.5-22.5zm-.559 36.414a3.069 3.069 0 0 1-3.054-3.055 3.067 3.067 0 0 1 3.054-3.053 3.066 3.066 0 0 1 3.054 3.053 3.068 3.068 0 0 1-3.054 3.055zm2.904-11.791c-.892 1.305-.594 3.129-3.052 3.129-1.602 0-2.385-1.305-2.385-2.496 0-4.432 6.519-5.436 6.519-9.086 0-2.012-1.34-3.203-3.576-3.203-4.767 0-2.905 4.916-6.518 4.916-1.304 0-2.421-.783-2.421-2.271 0-3.65 4.172-6.891 8.714-6.891 4.769 0 9.46 2.197 9.46 7.449.001 4.842-5.55 6.703-6.741 8.453z" style="fill:#333"/></g><path d="m176.984 366.951-9.444-3.157a46.053 46.053 0 0 0-5.629-13.6l4.442-8.904a55.343 55.343 0 0 0-10.658-10.657l-8.905 4.442a45.993 45.993 0 0 0-13.598-5.631l-3.157-9.443a55.567 55.567 0 0 0-7.535-.516c-2.557 0-5.07.179-7.535.516l-3.157 9.443a46.01 46.01 0 0 0-13.599 5.631l-8.904-4.442a55.249 55.249 0 0 0-10.656 10.657l4.442 8.904a45.976 45.976 0 0 0-5.63 13.6l-9.444 3.157a55.39 55.39 0 0 0 0 15.068l9.444 3.157a46.027 46.027 0 0 0 5.629 13.6l-4.44 8.904a55.249 55.249 0 0 0 10.656 10.657l8.904-4.442a46.01 46.01 0 0 0 13.599 5.631l3.157 9.442c2.464.338 4.978.517 7.535.517 2.557 0 5.07-.179 7.535-.517l3.157-9.442a46.017 46.017 0 0 0 13.598-5.63l8.905 4.441a55.277 55.277 0 0 0 10.656-10.657l-4.44-8.904a46.053 46.053 0 0 0 5.629-13.6l9.444-3.157c.337-2.463.516-4.978.516-7.534a55.39 55.39 0 0 0-.517-7.534zM122.5 412.075c-20.76 0-37.59-16.829-37.59-37.59 0-20.761 16.83-37.59 37.59-37.59 20.76 0 37.59 16.829 37.59 37.59 0 20.761-16.83 37.59-37.59 37.59z" style="fill:gray" transform="translate(-62.343 -324.361)scale(1.04137)"/></svg>