<?xml version="1.0" encoding="UTF-8" standalone="no"?><!--
  - Copyright (c) 2023. Bernard Bou
  -->

<!-- Generator: Adobe Illustrator 16.0.0, SVG Export Plug-In . SVG Version: 6.00 Build 0)  -->

<svg xmlns:dc="http://purl.org/dc/elements/1.1/" xmlns:cc="http://creativecommons.org/ns#" xmlns:rdf="http://www.w3.org/1999/02/22-rdf-syntax-ns#" xmlns="http://www.w3.org/2000/svg" xmlns:sodipodi="http://sodipodi.sourceforge.net/DTD/sodipodi-0.dtd"
	xmlns:inkscape="http://www.inkscape.org/namespaces/inkscape" version="1.1" id="Layer_1" x="0px" y="0px" width="512mm" height="512mm" viewBox="0 0 1935.118 1935.1181" enable-background="new 0 0 1072.446 437.979" xml:space="preserve" sodipodi:docname="convtask.svg" inkscape:version="0.92.1 r15371"><metadata
     id="metadata269"><rdf:RDF><cc:Work
         rdf:about=""><dc:format>image/svg+xml</dc:format><dc:type rdf:resource="http://purl.org/dc/dcmitype/StillImage" /><dc:title /></cc:Work></rdf:RDF></metadata>
	<defs id="defs267"><inkscape:path-effect
       effect="bspline"
       id="path-effect8819"
       is_visible="true"
       weight="33.333333"
       steps="2"
       helper_size="0"
       apply_no_weight="true"
       apply_with_weight="true"
       only_selected="false" /></defs>
	<sodipodi:namedview pagecolor="#ffffff" bordercolor="#666666" borderopacity="1" objecttolerance="10" gridtolerance="10" guidetolerance="10" inkscape:pageopacity="0" inkscape:pageshadow="2" inkscape:window-width="1398" inkscape:window-height="899"
		id="namedview265" showgrid="false" units="mm" width="512mm" inkscape:zoom="0.22627417" inkscape:cx="1737.3797" inkscape:cy="1108.5294" inkscape:window-x="280" inkscape:window-y="27" inkscape:window-maximized="0" inkscape:current-layer="Layer_1" />
	<g id="g44" transform="matrix(24.233315,0,0,24.233315,-6588.6245,-452.36382)" style="fill:#8b4513;fill-opacity:1"><path
       d="m 289.52,38.36 c 0,-4.092 3.061,-7.29 7.291,-7.29 h 7.024 v -7.013 c 0,-1.981 -1.612,-3.593 -3.595,-3.593 h -22.605 c -1.981,0 -3.594,1.611 -3.594,3.593 v 21.544 c 0,1.255 1.009,2.277 2.251,2.277 0.629,0 1.236,-0.271 1.626,-0.704 l 3.518,-3.515 h 8.085 V 38.36 Z"
       id="path40"
       inkscape:connector-curvature="0"
       style="fill:#8b4513;fill-opacity:1" />
		<path
			d="m 310.11,34.43 h -13.299 c -2.166,0 -3.931,1.764 -3.931,3.93 v 10.189 c 0,2.165 1.765,3.929 3.931,3.929 h 10.201 l 1.722,1.723 c 0.579,0.611 1.384,0.958 2.229,0.958 1.696,0 3.078,-1.384 3.078,-3.09 V 38.36 c -10e-4,-2.166 -1.764,-3.93 -3.931,-3.93 z"
			id="path42" inkscape:connector-curvature="0" style="fill:#8b4513;fill-opacity:1" /></g>
	<path style="fill:#a9a9a9;fill-rule:evenodd;stroke:#c0c0c0;stroke-width:39.7338562;stroke-linecap:butt;stroke-linejoin:miter;stroke-miterlimit:4;stroke-dasharray:none;stroke-opacity:1"
		d="M 134.30311,1776.233 C 690.71111,1228.8722 1247.1152,681.51526 1803.5153,134.16225" id="path8817" inkscape:connector-curvature="0" inkscape:path-effect="#path-effect8819"
		inkscape:original-d="M 134.30311,1776.233 C 690.711,1228.8721 1247.1152,681.51525 1803.5153,134.16225" />
	<g id="g17461"><g
       transform="matrix(0.054893,2.2707398,-2.3569836,0.05697786,1877.5965,694.88573)"
       id="g8435"
       style="fill:#8b4513;fill-opacity:1"><g
         id="g8433"
         style="fill:#8b4513;fill-opacity:1"><path
           sodipodi:nodetypes="cccccsc"
           id="path8431"
           d="M 506.44,401.925 237.01501,157.9496 183.44814,211.67997 430.73,477.637 c 6.551,7.189 17.777,7.44 24.646,0.57 l 51.634,-51.634 c 6.873,-6.873 6.612,-18.103 -0.57,-24.648 z"
           inkscape:connector-curvature="0"
           style="fill:#8b4513;fill-opacity:1" /></g></g>
		<g transform="translate(75.130095,-111.87184)" id="g17449"><g
         style="fill:#8b4513;fill-opacity:1"
         id="g8429"
         transform="matrix(0.054893,2.2707398,-2.3569836,0.05697786,1864.3382,739.0799)"><g
           style="fill:#8b4513;fill-opacity:1"
           id="g8427"><path
             style="fill:#8b4513;fill-opacity:1"
             inkscape:connector-curvature="0"
             d="M 187.992,249.39 86.798,148.195 c -6.655,-6.655 -17.446,-6.655 -24.102,0 L 4.992,205.9 c -6.656,6.655 -6.656,17.446 0,24.102 l 101.194,101.194 c 6.656,6.655 17.445,6.656 24.102,0 l 57.704,-57.704 c 6.656,-6.655 6.656,-17.446 0,-24.102 z"
             id="path8425" /></g></g>
			<g style="fill:#8b4513;fill-opacity:1" id="g8441" transform="matrix(0.054893,2.2707398,-2.3569836,0.05697786,1842.2412,705.93427)"><g
           style="fill:#8b4513;fill-opacity:1"
           id="g8439"><path
             sodipodi:nodetypes="ccccccsccc"
             style="fill:#8b4513;fill-opacity:1"
             inkscape:connector-curvature="0"
             d="M 415.68771,71.425898 C 387.64871,14.856898 261.16,12.298 212.554,47.894 c -5.929,-1.972 -12.722,-0.617 -17.441,4.102 l -78.154,78.153 89.075,89.075 78.154,-78.154 c 3.195,-3.194 4.991,-7.528 4.991,-12.049 0,-0.167 29.86295,-27.76153 29.85695,-27.92853 13.122,-8.882999 38.92964,-20.016243 55.05364,-17.958247 16.25817,-1.508846 48.20835,2.477447 41.59812,-11.708325 z"
             id="path8437" /></g></g></g></g>
	<g style="fill:#8b4513;fill-opacity:1" id="g8443" transform="matrix(0.054893,2.2707398,-2.3569836,0.05697786,1877.5965,694.88573)" />
	<g style="fill:#8b4513;fill-opacity:1" id="g8445" transform="matrix(0.054893,2.2707398,-2.3569836,0.05697786,1877.5965,694.88573)" />
	<g style="fill:#8b4513;fill-opacity:1" id="g8447" transform="matrix(0.054893,2.2707398,-2.3569836,0.05697786,1877.5965,694.88573)" />
	<g style="fill:#8b4513;fill-opacity:1" id="g8449" transform="matrix(0.054893,2.2707398,-2.3569836,0.05697786,1877.5965,694.88573)" />
	<g style="fill:#8b4513;fill-opacity:1" id="g8451" transform="matrix(0.054893,2.2707398,-2.3569836,0.05697786,1877.5965,694.88573)" />
	<g style="fill:#8b4513;fill-opacity:1" id="g8453" transform="matrix(0.054893,2.2707398,-2.3569836,0.05697786,1877.5965,694.88573)" />
	<g style="fill:#8b4513;fill-opacity:1" id="g8455" transform="matrix(0.054893,2.2707398,-2.3569836,0.05697786,1877.5965,694.88573)" />
	<g style="fill:#8b4513;fill-opacity:1" id="g8457" transform="matrix(0.054893,2.2707398,-2.3569836,0.05697786,1877.5965,694.88573)" />
	<g style="fill:#8b4513;fill-opacity:1" id="g8459" transform="matrix(0.054893,2.2707398,-2.3569836,0.05697786,1877.5965,694.88573)" />
	<g style="fill:#8b4513;fill-opacity:1" id="g8461" transform="matrix(0.054893,2.2707398,-2.3569836,0.05697786,1877.5965,694.88573)" />
	<g style="fill:#8b4513;fill-opacity:1" id="g8463" transform="matrix(0.054893,2.2707398,-2.3569836,0.05697786,1877.5965,694.88573)" />
	<g style="fill:#8b4513;fill-opacity:1" id="g8465" transform="matrix(0.054893,2.2707398,-2.3569836,0.05697786,1877.5965,694.88573)" />
	<g style="fill:#8b4513;fill-opacity:1" id="g8467" transform="matrix(0.054893,2.2707398,-2.3569836,0.05697786,1877.5965,694.88573)" />
	<g style="fill:#8b4513;fill-opacity:1" id="g8469" transform="matrix(0.054893,2.2707398,-2.3569836,0.05697786,1877.5965,694.88573)" />
	<g style="fill:#8b4513;fill-opacity:1" id="g8471" transform="matrix(0.054893,2.2707398,-2.3569836,0.05697786,1877.5965,694.88573)" /></svg>