<svg xmlns="http://www.w3.org/2000/svg" xml:space="preserve" width="512" height="512"><path d="m176.776 483.675 79.232-22.945-65.034-56.706z" style="fill:#8b4513;stroke-width:7.23026085"/><rect width="315.627" height="98.703" x="-162.982" y="413.952" rx="0" ry="23.31" style="fill:#8b4513;stroke-width:6.16114664" transform="matrix(.70467 -.70954 .74484 .66724 0 0)"/><path d="M50.78 461.428 470.876 48.161" style="fill:#a9a9a9;fill-rule:evenodd;stroke:silver;stroke-width:10;stroke-linecap:butt;stroke-linejoin:miter;stroke-miterlimit:4;stroke-dasharray:none;stroke-opacity:1"/><path d="M214.062 156.59c0 50.312-42.547 85.53-88.867 85.53-46.32 0-88.885-35.218-88.885-85.53H7.8c0 57.271 45.6 104.531 100.624 112.665v55.041h33.541v-55.041C196.956 261.12 242.59 213.86 242.59 156.59m-117.394 50.312c27.789 0 50.144-22.54 50.144-50.312l.15-100.624c0-27.806-22.505-50.312-50.294-50.312-27.772 0-50.312 22.506-50.312 50.312V156.59c0 27.772 22.54 50.312 50.312 50.312z" style="fill:#8b4513;fill-opacity:1;stroke-width:3.35412502;stroke-linejoin:round"/></svg>