<svg xmlns="http://www.w3.org/2000/svg" width="1000" height="1066.667"><g fill="#333" style="fill:#696969;fill-opacity:1"><path d="M7.177 372.236h8.965l9.961-9.962v31.877l-9.961-9.962H7.177zM34.567 369.749l-2.816 2.816a7.963 7.963 0 0 1 2.344 5.647 7.955 7.955 0 0 1-2.344 5.646l2.816 2.816a11.937 11.937 0 0 0 3.512-8.463c0-3.302-1.344-6.293-3.512-8.462z" style="fill:#696969;fill-opacity:1" transform="matrix(19.85174 0 0 19.85174 -89.14 -6974.85)"/><path d="m39.704 365.025-2.816 2.816a14.562 14.562 0 0 1 4.283 10.324c0 4.027-1.639 7.68-4.283 10.324l2.816 2.816c3.365-3.367 5.451-8.015 5.451-13.141 0-5.123-2.086-9.771-5.451-13.139z" style="fill:#696969;fill-opacity:1" transform="matrix(19.85174 0 0 19.85174 -89.14 -6974.85)"/><path d="m44.56 359.854-2.816 2.816c3.982 3.982 6.449 9.48 6.449 15.543 0 6.063-2.467 11.561-6.447 15.543l2.814 2.816c4.705-4.704 7.617-11.197 7.617-18.359 0-7.162-2.914-13.655-7.617-18.359z" style="fill:#696969;fill-opacity:1" transform="matrix(19.85174 0 0 19.85174 -89.14 -6974.85)"/></g></svg>