<svg xmlns="http://www.w3.org/2000/svg" xml:space="preserve" id="svg2" width="179.904" height="53.28" style="clip-rule:evenodd;fill-rule:evenodd;image-rendering:optimizeQuality;shape-rendering:geometricPrecision;text-rendering:geometricPrecision" version="1.1" viewBox="0 0 1874 555"><defs id="defs4"><clipPath id="clipPath11113" clipPathUnits="userSpaceOnUse"><rect id="rect11115" width="440.818" height="564.412" x="-175.186" y="-823.053" ry="0" style="opacity:.98999999;fill:#696969;fill-opacity:1;fill-rule:evenodd;stroke:none;stroke-width:55.55555344;stroke-linecap:round;stroke-linejoin:round;stroke-miterlimit:4;stroke-dasharray:none;stroke-dashoffset:0;stroke-opacity:1" transform="rotate(40.126)"/></clipPath><clipPath id="clipPath11177" clipPathUnits="userSpaceOnUse"><path id="path11179" d="M1006.51-1097.954 613.07-768.371l-329.584-393.44 331.299-394.419Z" style="opacity:.98999999;fill:red;fill-opacity:.99215686;fill-rule:evenodd;stroke:none;stroke-width:5;stroke-linecap:round;stroke-linejoin:round;stroke-miterlimit:4;stroke-dasharray:none;stroke-dashoffset:0;stroke-opacity:1"/></clipPath><style id="style6" type="text/css">.fil0{fill:#fff}</style></defs><path id="path12" d="M1805 555H69c-38 0-69-31-69-69V69C0 31 31 0 69 0h1736c38 0 69 31 69 69v417c0 38-31 69-69 69z" style="fill:#000"/><path id="path14" d="M1805 0H69C31 0 0 31 0 69v417c0 38 31 69 69 69h1736c38 0 69-31 69-69V69c0-38-31-69-69-69zm0 11c32 0 58 26 58 58v417c0 32-26 58-58 58H69c-32 0-58-26-58-58V69c0-32 26-58 58-58h1736Z" style="fill:#a6a6a6"/><path id="path16" d="M658 146.12c0 12-3 21-10 28-8 8-18 12-31 12-12 0-22-4-31-13-8-8-13-19-13-31s4-23 13-31c8-8 19-13 31-13 6 0 12 1 17 3s10 5 13 9l-7 7c-6-7-13-10-23-10-9 0-16 3-23 9-6 6-10 14-10 24s3 18 10 24c6 6 14 9 23 9s17-3 23-9c4-4 6-10 7-17h-30v-10h40c0 2 1 4 1 6z" class="fil0" style="fill:#fff"/><g id="g8111" transform="translate(0 4.12)"><path id="path18" d="M658 139.94h-1c0 11-3 20-10 27-8 8-17 12-30 12-12 0-22-4-30-12s-12-18-12-30 4-22 12-30 18-12 30-12c6 0 11 1 17 3 5 2 9 5 13 9l1-1-1-1-7 7 1 1 1-1c-6-7-14-10-24-10-9 0-17 3-24 10-7 6-10 15-10 25s3 19 10 25 15 10 24 10c10 0 18-3 24-10 4-4 7-10 7-18v-2h-30v-7h39v-1h-1c0 2 1 4 1 6h2c0-2 0-4-1-7v-1h-43v12h32v-1h-1c-1 7-3 12-7 16-6 6-13 9-22 9-8 0-16-3-22-9s-9-13-9-23 3-17 9-23 13-9 22-9 16 3 22 9l1 1 8-8 1-1-1-1c-3-4-8-7-14-10-6-2-12-4-18-4-12 0-23 4-32 13s-13 19-13 32 4 23 13 32 19 13 32 13 24-4 32-13l-1-1 1 1c7-7 11-17 11-29h-1z" class="fil0" style="fill:#fff;stroke:#fff"/></g><path id="polygon20" d="M813 10486v-83h48v10h-37v26h34v10h-34v27h37v10z" class="fil0" style="fill:#fff" transform="translate(-139 -10306)"/><path id="polygon22" d="M860 10485h-46v-81h46v9h1v-1 1h2v-12h-52v87h52v-14h-38v-23h34v-13h-34v-24h38v-1h-2v-1h-39v29h34v7h-34v29h38z" class="fil0" style="fill:#fff" transform="translate(-139 -10306)"/><path id="polygon24" d="M896 10486v-73h-23v-10h57v10h-23v73z" class="fil0" style="fill:#fff" transform="translate(-139 -10306)"/><path id="polygon26" d="M905 10486h2v-1 1h1v-72h23v-13h-60v13h24v74h13v-2h-1v-1h-10v-73h-23v-8h55v8h-24z" class="fil0" style="fill:#fff" transform="translate(-139 -10306)"/><path id="polygon28" d="M971 10403h11v83h-11z" class="fil0" style="fill:#fff" transform="translate(-139 -10306)"/><path id="polygon30" d="M971 10488h12v-87h-13v87h1v-2h2v-82h8v81h-10v1h2-2z" class="fil0" style="fill:#fff" transform="translate(-139 -10306)"/><path id="polygon32" d="M1019 10486v-73h-23v-10h57v10h-23v73z" class="fil0" style="fill:#fff" transform="translate(-139 -10306)"/><path id="polygon34" d="M1028 10486h2v-1 1h1v-72h23v-13h-60v13h23v74h14v-2h-1v-1h-10v-73h-23v-8h54v8h-23z" class="fil0" style="fill:#fff" transform="translate(-139 -10306)"/><path id="path36" d="M969 162c6 6 14 9 23 9s16-3 23-9c6-6 9-14 9-24s-3-18-9-24-14-9-23-9-16 3-23 9c-6 6-9 14-9 24s3 18 9 24zm53 7c-8 8-18 13-31 13-12 0-22-4-31-13-8-8-12-19-12-31s4-22 12-31c8-8 18-13 31-13 12 0 22 4 31 13 8 8 12 19 12 31s-4 22-12 31z" class="fil0" style="fill:#fff"/><path id="path38" d="m969 162-1 1c6 6 14 10 24 10 9 0 17-3 24-10 6-7 10-15 10-25s-3-18-10-25c-6-7-14-10-24-10-9 0-17 3-24 10-6 6-10 15-10 25s3 18 10 25l1-1 1-1c-6-6-9-14-9-23s3-17 9-23 13-9 22-9 16 3 22 9 9 14 9 23-3 17-9 23-13 9-22 9-16-3-22-9l-1 1zm53 7-1-1c-8 8-18 12-30 12s-22-4-30-12-12-18-12-30 4-22 12-30 18-12 30-12 22 4 30 12 12 18 12 30-4 22-12 30l1 1 1 1c8-9 13-19 13-32 0-12-4-23-13-32-8-9-19-13-32-13s-23 4-32 13c-8 9-13 19-13 32 0 12 4 23 13 32 8 9 19 13 32 13 12 0 23-4 32-13l-1-1z" class="fil0" style="fill:#fff"/><path id="polygon40" d="m1242 10486-43-68v68h-10v-83h13l40 65h1l-1-16v-49h11v83z" class="fil0" style="fill:#fff" transform="translate(-139 -10306)"/><path id="polygon42" d="M1251 10404v81h-9l-42-68h-3l1 17v51h-9v1h1-1v2h12v-54l-1-16h-1v2-2l-1 1 43 69h13v-87h-13v67h2v-2h-1v2l1-1-41-66h-15v87h2v-2h1v-82h11l40 65h3l-1-17v-48z" class="fil0" style="fill:#fff" transform="translate(-139 -10306)"/><path id="path44" d="M1485 416h26V242h-26v174zm233-111-30 75h-1l-31-75h-28l46 105-26 59h27l71-164h-29zm-147 91c-9 0-20-4-20-15 0-13 15-19 27-19 11 0 17 2 24 6-2 16-16 27-31 27zm3-95c-19 0-38 8-46 27l23 10c5-10 14-13 24-13 13 0 27 8 27 22v2c-5-3-15-7-27-7-25 0-50 14-50 39 0 23 20 38 43 38 17 0 27-8 33-17h1v13h25v-67c0-31-23-48-53-48zm-160 25h-37v-60h37c19 0 30 16 30 30 0 13-11 30-30 30zm-1-84h-62v174h26v-66h36c29 0 57-21 57-54s-28-54-57-54zm-339 154c-18 0-33-15-33-36s15-36 33-36 32 15 32 36-14 36-32 36zm30-82h-1c-6-7-17-13-31-13-30 0-57 26-57 59s27 59 57 59c14 0 25-6 31-13h1v9c0 23-12 35-32 35-16 0-26-11-30-21l-23 9c6 16 24 35 52 35 30 0 56-18 56-62V305h-25v10zm43 101h26V241h-26v174zm64-57c-1-23 18-34 31-34 10 0 19 5 22 13l-53 22zm81-20c-5-13-20-38-51-38-30 0-56 24-56 59 0 33 25 59 59 59 27 0 43-17 49-26l-20-13c-7 10-16 16-29 16s-23-6-29-18l79-33-3-7zm-629-19v25h60c-2 14-6 24-14 32-9 9-22 18-46 18-37 0-66-30-66-67s29-67 66-67c20 0 34 8 45 18l18-18c-15-14-35-25-63-25-51 0-93 41-93 92s43 92 93 92c27 0 48-9 64-26 17-17 22-40 22-59 0-6 0-11-1-16h-84zm154 77c-18 0-33-15-33-36s15-36 33-36 33 15 33 36-15 36-33 36zm0-95c-33 0-59 25-59 59s27 59 59 59c33 0 59-25 59-59s-27-59-59-59zm129 95c-18 0-33-15-33-36s15-36 33-36 33 15 33 36-15 36-33 36zm0-95c-33 0-59 25-59 59s27 59 59 59c33 0 59-25 59-59s-27-59-59-59z" class="fil0" style="fill:#fff"/><g id="g8105" transform="translate(4.12 507.765)"><path id="path8093" d="M111.26-437.847c-11.814-.294-21.554 9.191-21.574 21.008l-.56 369.183c-.021 16.201 17.5 26.352 31.545 18.275l320-184.108c14.04-8.082 14.071-28.33.055-36.454L121.284-435.02a21.05 21.05 0 0 0-10.024-2.828z" style="color:#000;font-style:normal;font-variant:normal;font-weight:400;font-stretch:normal;font-size:medium;line-height:normal;font-family:sans-serif;text-indent:0;text-align:start;text-decoration:none;text-decoration-line:none;text-decoration-style:solid;text-decoration-color:#000;letter-spacing:normal;word-spacing:normal;text-transform:none;direction:ltr;block-progression:tb;writing-mode:lr-tb;baseline-shift:baseline;text-anchor:start;white-space:normal;clip-rule:nonzero;display:inline;overflow:visible;visibility:visible;opacity:.98999999;isolation:auto;mix-blend-mode:normal;color-interpolation:sRGB;color-interpolation-filters:linearRGB;solid-color:#000;solid-opacity:1;fill:#00d4fe;fill-opacity:1;fill-rule:evenodd;stroke:none;stroke-width:55.55554962;stroke-linecap:round;stroke-linejoin:round;stroke-miterlimit:4;stroke-dasharray:none;stroke-dashoffset:0;stroke-opacity:1;color-rendering:auto;image-rendering:auto;shape-rendering:auto;text-rendering:auto;enable-background:accumulate"/><path id="path8095" d="M89.082-877.878c-15.59-.388-28.446 12.13-28.472 27.726l-.74 487.242c-.028 21.382 23.097 34.78 41.632 24.118l422.333-242.982c18.53-10.667 18.57-37.39.071-48.112l-421.593-244.26a27.78 27.78 0 0 0-13.23-3.732z" clip-path="url(#clipPath11113)" style="color:#000;font-style:normal;font-variant:normal;font-weight:400;font-stretch:normal;font-size:medium;line-height:normal;font-family:sans-serif;text-indent:0;text-align:start;text-decoration:none;text-decoration-line:none;text-decoration-style:solid;text-decoration-color:#000;letter-spacing:normal;word-spacing:normal;text-transform:none;direction:ltr;block-progression:tb;writing-mode:lr-tb;baseline-shift:baseline;text-anchor:start;white-space:normal;clip-rule:nonzero;display:inline;overflow:visible;visibility:visible;opacity:.98999999;isolation:auto;mix-blend-mode:normal;color-interpolation:sRGB;color-interpolation-filters:linearRGB;solid-color:#000;solid-opacity:1;fill:#f93647;fill-opacity:1;fill-rule:evenodd;stroke:none;stroke-width:55.55554962;stroke-linecap:round;stroke-linejoin:round;stroke-miterlimit:4;stroke-dasharray:none;stroke-dashoffset:0;stroke-opacity:1;color-rendering:auto;image-rendering:auto;shape-rendering:auto;text-rendering:auto;enable-background:accumulate" transform="translate(43.762 227.633)scale(.7577)"/><path id="path8097" d="M89.082-877.878c-15.59-.388-28.446 12.13-28.472 27.726l-.74 487.242c-.028 21.382 23.097 34.78 41.632 24.118l422.333-242.982c18.53-10.667 18.57-37.39.071-48.112l-421.593-244.26a27.78 27.78 0 0 0-13.23-3.732z" clip-path="url(#clipPath11113)" style="color:#000;font-style:normal;font-variant:normal;font-weight:400;font-stretch:normal;font-size:medium;line-height:normal;font-family:sans-serif;text-indent:0;text-align:start;text-decoration:none;text-decoration-line:none;text-decoration-style:solid;text-decoration-color:#000;letter-spacing:normal;word-spacing:normal;text-transform:none;direction:ltr;block-progression:tb;writing-mode:lr-tb;baseline-shift:baseline;text-anchor:start;white-space:normal;clip-rule:nonzero;display:inline;overflow:visible;visibility:visible;opacity:.98999999;isolation:auto;mix-blend-mode:normal;color-interpolation:sRGB;color-interpolation-filters:linearRGB;solid-color:#000;solid-opacity:1;fill:#91f288;fill-opacity:.99215686;fill-rule:evenodd;stroke:none;stroke-width:55.55554962;stroke-linecap:round;stroke-linejoin:round;stroke-miterlimit:4;stroke-dasharray:none;stroke-dashoffset:0;stroke-opacity:1;color-rendering:auto;image-rendering:auto;shape-rendering:auto;text-rendering:auto;enable-background:accumulate" transform="matrix(.7577 0 0 -.7577 44.293 -691.882)"/><path id="path8099" d="M91.379-1435.557c-15.591-.389-28.447 12.13-28.473 27.726l-.739 487.243c-.028 21.382 23.098 34.779 41.632 24.118l422.333-242.982c18.53-10.667 18.57-37.391.071-48.113l-421.594-244.26a27.78 27.78 0 0 0-13.23-3.732z" clip-path="url(#clipPath11177)" style="color:#000;font-style:normal;font-variant:normal;font-weight:400;font-stretch:normal;font-size:medium;line-height:normal;font-family:sans-serif;text-indent:0;text-align:start;text-decoration:none;text-decoration-line:none;text-decoration-style:solid;text-decoration-color:#000;letter-spacing:normal;word-spacing:normal;text-transform:none;direction:ltr;block-progression:tb;writing-mode:lr-tb;baseline-shift:baseline;text-anchor:start;white-space:normal;clip-rule:nonzero;display:inline;overflow:visible;visibility:visible;opacity:.98999999;isolation:auto;mix-blend-mode:normal;color-interpolation:sRGB;color-interpolation-filters:linearRGB;solid-color:#000;solid-opacity:1;fill:#ffce00;fill-opacity:1;fill-rule:evenodd;stroke:none;stroke-width:55.55554962;stroke-linecap:round;stroke-linejoin:round;stroke-miterlimit:4;stroke-dasharray:none;stroke-dashoffset:0;stroke-opacity:1;color-rendering:auto;image-rendering:auto;shape-rendering:auto;text-rendering:auto;enable-background:accumulate" transform="translate(44.314 649.367)scale(.7577)"/></g></svg>