<svg xmlns="http://www.w3.org/2000/svg" xmlns:xlink="http://www.w3.org/1999/xlink" width="300" height="300"><defs><radialGradient xlink:href="#a" id="l" cx="102.143" cy="545.934" r="135" fx="102.143" fy="545.934" gradientUnits="userSpaceOnUse"/><radialGradient xlink:href="#a" id="n" cx="102.143" cy="545.934" r="135" fx="102.143" fy="545.934" gradientUnits="userSpaceOnUse"/><radialGradient xlink:href="#a" id="p" cx="102.143" cy="545.934" r="135" fx="102.143" fy="545.934" gradientUnits="userSpaceOnUse"/><radialGradient xlink:href="#a" id="r" cx="102.143" cy="545.934" r="135" fx="102.143" fy="545.934" gradientUnits="userSpaceOnUse"/><radialGradient xlink:href="#a" id="t" cx="102.143" cy="545.934" r="135" fx="102.143" fy="545.934" gradientUnits="userSpaceOnUse"/><radialGradient xlink:href="#a" id="v" cx="102.143" cy="545.934" r="135" fx="102.143" fy="545.934" gradientUnits="userSpaceOnUse"/><radialGradient xlink:href="#a" id="x" cx="102.143" cy="545.934" r="135" fx="102.143" fy="545.934" gradientUnits="userSpaceOnUse"/><radialGradient xlink:href="#c" id="y" cx="102.143" cy="545.934" r="135" fx="102.143" fy="545.934" gradientUnits="userSpaceOnUse"/><radialGradient xlink:href="#d" id="A" cx="102.143" cy="545.934" r="135" fx="102.143" fy="545.934" gradientUnits="userSpaceOnUse"/><radialGradient xlink:href="#c" id="E" cx="102.143" cy="545.934" r="135" fx="102.143" fy="545.934" gradientUnits="userSpaceOnUse"/><radialGradient xlink:href="#d" id="G" cx="102.143" cy="545.934" r="135" fx="102.143" fy="545.934" gradientUnits="userSpaceOnUse"/><radialGradient xlink:href="#c" id="H" cx="102.143" cy="545.934" r="135" fx="102.143" fy="545.934" gradientUnits="userSpaceOnUse"/><radialGradient xlink:href="#d" id="J" cx="102.143" cy="545.934" r="135" fx="102.143" fy="545.934" gradientUnits="userSpaceOnUse"/><radialGradient xlink:href="#c" id="B" cx="102.143" cy="545.934" r="135" fx="102.143" fy="545.934" gradientUnits="userSpaceOnUse"/><radialGradient xlink:href="#d" id="D" cx="102.143" cy="545.934" r="135" fx="102.143" fy="545.934" gradientUnits="userSpaceOnUse"/><radialGradient xlink:href="#c" id="K" cx="102.143" cy="545.934" r="135" fx="102.143" fy="545.934" gradientUnits="userSpaceOnUse"/><radialGradient xlink:href="#d" id="M" cx="102.143" cy="545.934" r="135" fx="102.143" fy="545.934" gradientUnits="userSpaceOnUse"/><radialGradient xlink:href="#c" id="N" cx="102.143" cy="545.934" r="135" fx="102.143" fy="545.934" gradientUnits="userSpaceOnUse"/><radialGradient xlink:href="#d" id="P" cx="102.143" cy="545.934" r="135" fx="102.143" fy="545.934" gradientUnits="userSpaceOnUse"/><linearGradient id="e"><stop offset="0" style="stop-color:#772b00;stop-opacity:1"/><stop offset=".5" style="stop-color:#da441b;stop-opacity:1"/><stop offset=".75" style="stop-color:#d2400f;stop-opacity:1"/><stop offset=".938" style="stop-color:#d44316;stop-opacity:.614583"/><stop offset="1" style="stop-color:#c33900;stop-opacity:.21875"/></linearGradient><linearGradient id="a"><stop offset="0" style="stop-color:#fff;stop-opacity:1"/><stop offset="1" style="stop-color:#fff;stop-opacity:0"/></linearGradient><linearGradient id="c"><stop offset="0" style="stop-color:#999;stop-opacity:1"/><stop offset="1" style="stop-color:#999;stop-opacity:0"/></linearGradient><linearGradient id="f"><stop offset="0" style="stop-color:#081074;stop-opacity:1"/><stop offset=".5" style="stop-color:#5873c2;stop-opacity:1"/><stop offset=".75" style="stop-color:#0f99d2;stop-opacity:1"/><stop offset=".938" style="stop-color:#1660d4;stop-opacity:.6156863"/><stop offset="1" style="stop-color:#414cf6;stop-opacity:.21568628"/></linearGradient><linearGradient id="d"><stop offset="0" style="stop-color:#fff;stop-opacity:1"/><stop offset="1" style="stop-color:#fff;stop-opacity:0"/></linearGradient><linearGradient id="g"><stop offset="0" style="stop-color:#770900;stop-opacity:1"/><stop offset=".5" style="stop-color:#da101b;stop-opacity:1"/><stop offset=".75" style="stop-color:#d2400f;stop-opacity:1"/><stop offset=".938" style="stop-color:#d44316;stop-opacity:.614583"/><stop offset="1" style="stop-color:#c30000;stop-opacity:.21875"/></linearGradient><linearGradient xlink:href="#e" id="j" x1="154.286" x2="605.714" y1="535.219" y2="535.219" gradientUnits="userSpaceOnUse"/><linearGradient xlink:href="#e" id="m" x1="154.286" x2="605.714" y1="535.219" y2="535.219" gradientUnits="userSpaceOnUse"/><linearGradient xlink:href="#e" id="o" x1="154.286" x2="605.714" y1="535.219" y2="535.219" gradientUnits="userSpaceOnUse"/><linearGradient xlink:href="#e" id="q" x1="154.286" x2="605.714" y1="535.219" y2="535.219" gradientUnits="userSpaceOnUse"/><linearGradient xlink:href="#e" id="s" x1="154.286" x2="605.714" y1="535.219" y2="535.219" gradientUnits="userSpaceOnUse"/><linearGradient xlink:href="#e" id="u" x1="154.286" x2="605.714" y1="535.219" y2="535.219" gradientUnits="userSpaceOnUse"/><linearGradient xlink:href="#e" id="w" x1="154.286" x2="605.714" y1="535.219" y2="535.219" gradientUnits="userSpaceOnUse"/><linearGradient xlink:href="#f" id="I" x1="154.286" x2="605.714" y1="535.219" y2="535.219" gradientUnits="userSpaceOnUse"/><linearGradient xlink:href="#f" id="C" x1="154.286" x2="605.714" y1="535.219" y2="535.219" gradientUnits="userSpaceOnUse"/><linearGradient xlink:href="#f" id="z" x1="154.286" x2="605.714" y1="535.219" y2="535.219" gradientUnits="userSpaceOnUse"/><linearGradient xlink:href="#f" id="F" x1="154.286" x2="605.714" y1="535.219" y2="535.219" gradientUnits="userSpaceOnUse"/><linearGradient xlink:href="#f" id="L" x1="154.286" x2="605.714" y1="535.219" y2="535.219" gradientUnits="userSpaceOnUse"/><linearGradient xlink:href="#g" id="O" x1="154.286" x2="605.714" y1="535.219" y2="535.219" gradientUnits="userSpaceOnUse"/><filter id="i" color-interpolation-filters="sRGB"><feGaussianBlur in="SourceGraphic" result="result0" stdDeviation="6"/><feDiffuseLighting result="result5" surfaceScale="10"><feDistantLight azimuth="235" elevation="25"/></feDiffuseLighting><feComposite in="result5" in2="SourceGraphic" k1="1" k3=".6" operator="arithmetic" result="result4"/></filter><filter id="k" width="1" height="1" x="0" y="0" color-interpolation-filters="sRGB"><feColorMatrix result="result1" type="hueRotate" values="180"/></filter><filter id="h" width="1" height="1" x="0" y="0" color-interpolation-filters="sRGB"><feColorMatrix result="result2" type="saturate" values="1"/><feColorMatrix in="result2" result="result1" type="hueRotate" values="50"/><feColorMatrix values="1 -1 1 0 0 0 1 0 0 0 1 -1 1 0 0 0 0 0 1 0"/><feColorMatrix result="fbSourceGraphic" type="hueRotate" values="300"/><feColorMatrix in="fbSourceGraphic" result="fbSourceGraphicAlpha" values="0 0 0 -1 0 0 0 0 -1 0 0 0 0 -1 0 0 0 0 1 0"/><feColorMatrix in="fbSourceGraphic" result="result1" type="saturate" values="0"/><feFlood flood-color="#096F98" result="result3"/><feBlend in2="result1" mode="screen" result="result2"/><feComposite in="result2" in2="fbSourceGraphic" operator="in"/></filter></defs><g style="filter:url(#h)" transform="matrix(-.00663 .69217 .68772 .00667 5.79 -4.183)"><g style="fill:none;stroke:#2f5a6a;stroke-opacity:1;filter:url(#i)"><g style="fill:none;stroke:#2f5a6a;stroke-opacity:1"><path d="M212 15v390m195-195H15M59 90c87.502 64.18 214.497 64.18 302 0m0 240c-87.502-64.18-214.497-64.18-302 0M211.36 15.596c-117.4 94.366-116.791 295.79.629 390.18m.427-.63c117.399-94.367 116.79-295.16-.63-389.55" style="fill:none;stroke:#2f5a6a;stroke-width:20;stroke-opacity:1" transform="translate(30.045 32.966)scale(.8599)"/></g></g><path d="M605.714 535.22c0 124.658-101.055 225.714-225.714 225.714-124.659 0-225.714-101.056-225.714-225.715 0-124.658 101.055-225.714 225.714-225.714 124.659 0 225.714 101.056 225.714 225.714z" style="fill:url(#k);fill-opacity:1;stroke:none;filter:url(#j)" transform="matrix(-.08937 -.09922 .09823 -.09027 194.39 118.576)"/><path d="M237.143 545.934c0 74.558-60.442 135-135 135-74.559 0-135-60.442-135-135 0-74.559 60.441-135 135-135 74.558 0 135 60.441 135 135z" style="opacity:.87614698;fill:url(#l);fill-opacity:1;stroke:none" transform="matrix(.1328 0 0 .13414 187.55 -54.132)"/><path d="M605.714 535.22c0 124.658-101.055 225.714-225.714 225.714-124.659 0-225.714-101.056-225.714-225.715 0-124.658 101.055-225.714 225.714-225.714 124.659 0 225.714 101.056 225.714 225.714z" style="fill:url(#m);fill-opacity:1;stroke:none;filter:url(#k)" transform="matrix(-.08937 -.09922 .09823 -.09027 194.39 474.576)"/><path d="M237.143 545.934c0 74.558-60.442 135-135 135-74.559 0-135-60.442-135-135 0-74.559 60.441-135 135-135 74.558 0 135 60.441 135 135z" style="opacity:.87614698;fill:url(#n);fill-opacity:1;stroke:none" transform="matrix(.1328 0 0 .13414 187.55 301.868)"/><path d="M605.714 535.22c0 124.658-101.055 225.714-225.714 225.714-124.659 0-225.714-101.056-225.714-225.715 0-124.658 101.055-225.714 225.714-225.714 124.659 0 225.714 101.056 225.714 225.714z" style="fill:url(#o);fill-opacity:1;stroke:none;filter:url(#k)" transform="matrix(-.08937 -.09922 .09823 -.09027 24.129 300.876)"/><path d="M237.143 545.934c0 74.558-60.442 135-135 135-74.559 0-135-60.442-135-135 0-74.559 60.441-135 135-135 74.558 0 135 60.441 135 135z" style="opacity:.87614698;fill:url(#p);fill-opacity:1;stroke:none" transform="matrix(.1328 0 0 .13414 17.29 128.167)"/><path d="M605.714 535.22c0 124.658-101.055 225.714-225.714 225.714-124.659 0-225.714-101.056-225.714-225.715 0-124.658 101.055-225.714 225.714-225.714 124.659 0 225.714 101.056 225.714 225.714z" style="fill:url(#q);fill-opacity:1;stroke:none;filter:url(#k)" transform="matrix(-.08937 -.09922 .09823 -.09027 359.492 300.876)"/><path d="M237.143 545.934c0 74.558-60.442 135-135 135-74.559 0-135-60.442-135-135 0-74.559 60.441-135 135-135 74.558 0 135 60.441 135 135z" style="opacity:.87614698;fill:url(#r);fill-opacity:1;stroke:none" transform="matrix(.1328 0 0 .13414 352.652 128.167)"/><path d="M605.714 535.22c0 124.658-101.055 225.714-225.714 225.714-124.659 0-225.714-101.056-225.714-225.715 0-124.658 101.055-225.714 225.714-225.714 124.659 0 225.714 101.056 225.714 225.714z" style="fill:url(#s);fill-opacity:1;stroke:none;filter:url(#k)" transform="matrix(-.08937 -.09922 .09823 -.09027 328.535 189.088)"/><path d="M237.143 545.934c0 74.558-60.442 135-135 135-74.559 0-135-60.442-135-135 0-74.559 60.441-135 135-135 74.558 0 135 60.441 135 135z" style="opacity:.87614698;fill:url(#t);fill-opacity:1;stroke:none" transform="matrix(.1328 0 0 .13414 321.696 16.38)"/><path d="M605.714 535.22c0 124.658-101.055 225.714-225.714 225.714-124.659 0-225.714-101.056-225.714-225.715 0-124.658 101.055-225.714 225.714-225.714 124.659 0 225.714 101.056 225.714 225.714z" style="fill:url(#u);fill-opacity:1;stroke:none;filter:url(#k)" transform="matrix(-.08937 -.09922 .09823 -.09027 56.805 189.088)"/><path d="M237.143 545.934c0 74.558-60.442 135-135 135-74.559 0-135-60.442-135-135 0-74.559 60.441-135 135-135 74.558 0 135 60.441 135 135z" style="opacity:.87614698;fill:url(#v);fill-opacity:1;stroke:none" transform="matrix(.1328 0 0 .13414 49.966 16.38)"/><path d="M605.714 535.22c0 124.658-101.055 225.714-225.714 225.714-124.659 0-225.714-101.056-225.714-225.715 0-124.658 101.055-225.714 225.714-225.714 124.659 0 225.714 101.056 225.714 225.714z" style="fill:url(#w);fill-opacity:1;stroke:none;filter:url(#k)" transform="matrix(-.08937 -.09922 .09823 -.09027 326.815 405.784)"/><path d="M237.143 545.934c0 74.558-60.442 135-135 135-74.559 0-135-60.442-135-135 0-74.559 60.441-135 135-135 74.558 0 135 60.441 135 135z" style="opacity:.87614698;fill:url(#x);fill-opacity:1;stroke:none" transform="matrix(.1328 0 0 .13414 319.976 233.076)"/></g><path d="M237.143 545.934a135 135 0 1 1-270 0 135 135 0 1 1 270 0z" style="fill:url(#y);fill-opacity:1;stroke:none" transform="matrix(.14153 -.04743 .06279 .10692 107.534 224.316)"/><path d="M605.714 535.22a225.714 225.714 0 1 1-451.428 0 225.714 225.714 0 1 1 451.428 0z" style="fill:url(#z);fill-opacity:1;stroke:none" transform="matrix(-.06112 -.07208 .06718 -.06558 138.243 321.588)"/><path d="M237.143 545.934c0 74.558-60.442 135-135 135-74.559 0-135-60.442-135-135 0-74.559 60.441-135 135-135 74.558 0 135 60.441 135 135z" style="opacity:.87614698;fill:url(#A);fill-opacity:1;stroke:none" transform="matrix(.09722 0 0 .09958 136.178 199.848)"/><path d="M237.143 545.934a135 135 0 1 1-270 0 135 135 0 1 1 270 0z" style="fill:url(#B);fill-opacity:1;stroke:none" transform="matrix(.13007 -.04359 .0577 .09826 232.35 115.806)"/><path d="M605.714 535.22a225.714 225.714 0 1 1-451.428 0 225.714 225.714 0 1 1 451.428 0z" style="fill:url(#C);fill-opacity:1;stroke:none" transform="matrix(-.06228 -.06927 .06846 -.06302 259.149 206.092)"/><path d="M237.143 545.934c0 74.558-60.442 135-135 135-74.559 0-135-60.442-135-135 0-74.559 60.441-135 135-135 74.558 0 135 60.441 135 135z" style="opacity:.87614698;fill:url(#D);fill-opacity:1;stroke:none" transform="matrix(.08935 0 0 .09151 257.36 89.782)"/><path d="M237.143 545.934a135 135 0 1 1-270 0 135 135 0 1 1 270 0z" style="fill:url(#E);fill-opacity:1;stroke:none" transform="matrix(.14153 -.04743 .06279 .10692 34.394 203.402)"/><path d="M605.714 535.22a225.714 225.714 0 1 1-451.428 0 225.714 225.714 0 1 1 451.428 0z" style="fill:url(#F);fill-opacity:1;stroke:none" transform="matrix(-.06112 -.0705 .06718 -.06414 62.215 298.344)"/><path d="M237.143 545.934c0 74.558-60.442 135-135 135-74.559 0-135-60.442-135-135 0-74.559 60.441-135 135-135 74.558 0 135 60.441 135 135z" style="opacity:.87614698;fill:url(#G);fill-opacity:1;stroke:none" transform="matrix(.09722 0 0 .09958 56.78 176.046)"/><path d="M237.143 545.934c0 74.558-60.442 135-135 135-74.559 0-135-60.442-135-135 0-74.559 60.441-135 135-135 74.558 0 135 60.441 135 135z" style="fill:url(#H);fill-opacity:1;stroke:none" transform="matrix(.14153 -.04743 .06279 .10692 102.298 110.377)"/><path d="M605.714 535.22c0 124.658-101.055 225.714-225.714 225.714-124.659 0-225.714-101.056-225.714-225.715 0-124.658 101.055-225.714 225.714-225.714 124.659 0 225.714 101.056 225.714 225.714z" style="fill:url(#I);fill-opacity:1;stroke:none" transform="matrix(-.06543 -.07366 .07192 -.06701 136.925 206.61)"/><path d="M237.143 545.934c0 74.558-60.442 135-135 135-74.559 0-135-60.442-135-135 0-74.559 60.441-135 135-135 74.558 0 135 60.441 135 135z" style="opacity:.87614698;fill:url(#J);fill-opacity:1;stroke:none" transform="matrix(.09722 0 0 .09958 135.275 82.058)"/><path d="M237.143 545.934a135 135 0 1 1-270 0 135 135 0 1 1 270 0z" style="fill:url(#K);fill-opacity:1;stroke:none" transform="matrix(.13222 -.04436 .05866 .1 -14.574 111.103)"/><path d="M605.714 535.22c0 124.658-101.055 225.714-225.714 225.714-124.659 0-225.714-101.056-225.714-225.715 0-124.658 101.055-225.714 225.714-225.714 124.659 0 225.714 101.056 225.714 225.714z" style="fill:url(#L);fill-opacity:1;stroke:none" transform="matrix(-.06112 -.06888 .06718 -.06267 13.923 202.062)"/><path d="M237.143 545.934c0 74.558-60.442 135-135 135-74.559 0-135-60.442-135-135 0-74.559 60.441-135 135-135 74.558 0 135 60.441 135 135z" style="opacity:.87614698;fill:url(#M);fill-opacity:1;stroke:none" transform="matrix(.09083 0 0 .09313 12.382 85.583)"/><path d="M237.143 545.934a135 135 0 1 1-270 0 135 135 0 1 1 270 0z" style="fill:url(#N);fill-opacity:1;stroke:none" transform="matrix(.14708 -.0493 .06525 .1111 187.177 5.55)"/><path d="M605.714 535.22a225.714 225.714 0 1 1-451.428 0 225.714 225.714 0 1 1 451.428 0z" style="fill:url(#O);fill-opacity:1;stroke:none" transform="matrix(-.06238 -.07023 .06857 -.0639 219.559 106.82)"/><path d="M237.143 545.934a135 135 0 1 1-270 0 135 135 0 1 1 270 0z" style="opacity:.87614698;fill:url(#P);fill-opacity:1;stroke:none" transform="matrix(.10103 0 0 .10348 214.705 -26.286)"/></svg>