<svg xmlns="http://www.w3.org/2000/svg" width="341.333" height="373.333"><defs><filter id="a" style="color-interpolation-filters:sRGB"><feGaussianBlur in="SourceGraphic" result="result0" stdDeviation="6"/><feDiffuseLighting result="result5" surfaceScale="10"><feDistantLight azimuth="235" elevation="25"/></feDiffuseLighting><feComposite in="result5" in2="SourceGraphic" k1="1" k3=".6" operator="arithmetic" result="result4"/></filter><filter id="b" style="color-interpolation-filters:sRGB"><feGaussianBlur in="SourceGraphic" result="result0" stdDeviation="5"/><feDiffuseLighting lighting-color="#FEFEFE" result="result5" surfaceScale="10"><feDistantLight azimuth="235" elevation="13"/></feDiffuseLighting><feComposite in="result5" in2="SourceGraphic" k1="1" k3=".6" operator="arithmetic" result="result4"/></filter></defs><text xml:space="preserve" x="556.779" y="163.51" style="font-style:normal;font-variant:normal;font-weight:400;font-stretch:condensed;line-height:0%;font-family:Impact;-inkscape-font-specification:&quot;Impact Condensed&quot;;text-align:start;writing-mode:lr-tb;text-anchor:start;fill:#bdb76b;fill-opacity:1;stroke:#00132c;stroke-width:.69631934;stroke-miterlimit:4;stroke-dasharray:none;stroke-opacity:1;filter:url(#a)" transform="matrix(.74826 0 0 1.70878 -222.042 76.519)"><tspan x="556.779" y="163.51" style="font-size:127.66687775px;line-height:1.25;fill:#bdb76b;stroke:#00132c;stroke-width:.69631934;stroke-opacity:1">Net</tspan></text><text xml:space="preserve" x="372.431" y="140.54" style="font-style:normal;font-variant:normal;font-weight:400;font-stretch:condensed;font-size:124.02507782px;line-height:0%;font-family:Impact;-inkscape-font-specification:&quot;Impact, Condensed&quot;;font-variant-ligatures:normal;font-variant-caps:normal;font-variant-numeric:normal;font-feature-settings:normal;text-align:start;writing-mode:lr-tb;text-anchor:start;fill:#908474;fill-opacity:1;stroke:none;stroke-width:7.62917614;stroke-miterlimit:4;stroke-dasharray:none;stroke-opacity:1" transform="matrix(.57307 0 0 1.745 -197.702 108.745)"><tspan x="372.431" y="140.54" style="stroke-width:7.62917614;fill:#908474">Frame</tspan></text><g style="stroke:#958e6e;filter:url(#b)" transform="translate(144.804 -210.784)scale(.56115)"><ellipse cx="46.088" cy="538.184" rx="143.525" ry="143.608" style="fill:none;stroke:#958e6e;stroke-width:16.16086197;stroke-miterlimit:4;stroke-dasharray:none;stroke-opacity:1"/><path d="m-52.15 538.877 194.393.855m-97.56 101.571.731-205.043m-59.895 22.752c31.827 45.91 31.59 112.337-.564 157.967m119.626.526c-31.826-45.91-31.59-112.337.564-157.967m-156.997 79.006c47.256-61.201 147.653-60.441 194.481 1.184m-.314.222c-47.256 61.201-147.339 60.443-194.168-1.183" style="fill:none;stroke:#958e6e;stroke-width:12.72536182;stroke-opacity:1"/><ellipse cx="-466.943" cy="438.428" rx="17.87" ry="17.92" style="fill:#958e6e;fill-opacity:1;stroke:#958e6e;stroke-width:.07928234" transform="matrix(-.72081 -.69313 -.66515 .74671 0 0)"/><ellipse cx="-478.924" cy="278.434" rx="17.87" ry="17.92" style="fill:#958e6e;fill-opacity:1;stroke:#958e6e;stroke-width:.07928234" transform="matrix(-.72081 -.69313 -.66515 .74671 0 0)"/><ellipse cx="-306.635" cy="436.624" rx="17.87" ry="17.92" style="fill:#958e6e;fill-opacity:1;stroke:#958e6e;stroke-width:.07928234" transform="matrix(-.72081 -.69313 -.66515 .74671 0 0)"/><ellipse cx="-399.743" cy="466.781" rx="17.87" ry="17.92" style="fill:#958e6e;fill-opacity:1;stroke:#958e6e;stroke-width:.07928234" transform="matrix(-.72081 -.69313 -.66515 .74671 0 0)"/><ellipse cx="-281.893" cy="340.652" rx="17.87" ry="17.92" style="fill:#958e6e;fill-opacity:1;stroke:#958e6e;stroke-width:.07928234" transform="matrix(-.72081 -.69313 -.66515 .74671 0 0)"/><ellipse cx="-385.005" cy="247.763" rx="17.87" ry="17.92" style="fill:#958e6e;fill-opacity:1;stroke:#958e6e;stroke-width:.07928234" transform="matrix(-.72081 -.69313 -.66515 .74671 0 0)"/><ellipse cx="-500.973" cy="375.022" rx="17.87" ry="17.92" style="fill:#4c0000;fill-opacity:1;stroke:#958e6e;stroke-width:.07928234" transform="matrix(-.72081 -.69313 -.66515 .74671 0 0)"/><ellipse cx="-500.973" cy="375.022" rx="17.87" ry="17.92" style="fill:#958e6e;fill-opacity:1;stroke:#958e6e;stroke-width:.07928234" transform="matrix(-.72081 -.69313 -.66515 .74671 0 0)"/><ellipse cx="-317.022" cy="275.431" rx="17.87" ry="17.92" style="fill:#958e6e;fill-opacity:1;stroke:#958e6e;stroke-width:.07928234" transform="matrix(-.72081 -.69313 -.66515 .74671 0 0)"/></g></svg>