<?xml version="1.0" encoding="UTF-8" standalone="no"?>
<!-- Created with Inkscape (http://www.inkscape.org/) -->

<svg
   version="1.0"
   width="128"
   height="128"
   id="svg2"
   inkscape:version="1.2.2 (b0a8486541, 2022-12-01)"
   sodipodi:docname="ic_location.svg"
   inkscape:export-filename="causes.png"
   inkscape:export-xdpi="11.25"
   inkscape:export-ydpi="11.25"
   xml:space="preserve"
   xmlns:inkscape="http://www.inkscape.org/namespaces/inkscape"
   xmlns:sodipodi="http://sodipodi.sourceforge.net/DTD/sodipodi-0.dtd"
   xmlns="http://www.w3.org/2000/svg"
   xmlns:svg="http://www.w3.org/2000/svg"
   xmlns:rdf="http://www.w3.org/1999/02/22-rdf-syntax-ns#"
   xmlns:cc="http://creativecommons.org/ns#"
   xmlns:dc="http://purl.org/dc/elements/1.1/"><metadata
     id="metadata23"><rdf:RDF><cc:Work
         rdf:about=""><dc:format>image/svg+xml</dc:format><dc:type
           rdf:resource="http://purl.org/dc/dcmitype/StillImage" /></cc:Work></rdf:RDF></metadata><sodipodi:namedview
     pagecolor="#ffffff"
     bordercolor="#666666"
     borderopacity="1"
     objecttolerance="10"
     gridtolerance="10"
     guidetolerance="10"
     inkscape:pageopacity="0"
     inkscape:pageshadow="2"
     inkscape:window-width="1036"
     inkscape:window-height="567"
     id="namedview21"
     showgrid="false"
     inkscape:zoom="0.76367188"
     inkscape:cx="-158.44501"
     inkscape:cy="64.818414"
     inkscape:window-x="26"
     inkscape:window-y="23"
     inkscape:window-maximized="0"
     inkscape:current-layer="svg2"
     inkscape:showpageshadow="2"
     inkscape:pagecheckerboard="0"
     inkscape:deskcolor="#d1d1d1" /><defs
     id="defs5" /><path
     d="m 63.884793,34.502059 c -11.62078,0 -20.892679,9.395524 -20.892679,20.892679 0,13.104284 12.362532,31.524456 18.172922,39.436477 1.359879,1.978005 4.203261,1.978005 5.686765,0 C 72.538566,87.04282 85.024718,68.499022 85.024718,55.394738 84.777468,43.897583 75.381948,34.502059 63.884793,34.502059 Z m 0,30.90633 c -5.563139,0 -10.137276,-4.574137 -10.137276,-10.137276 0,-5.56314 4.574137,-10.137277 10.137276,-10.137277 5.56314,0 10.137276,4.574137 10.137276,10.137277 0.123626,5.686764 -4.450511,10.137276 -10.137276,10.137276 z"
     id="path148"
     style="stroke-width:1" /></svg>
